%TF.GenerationSoftware,KiCad,Pcbnew,7.0.10-7.0.10~ubuntu22.04.1*%
%TF.CreationDate,2024-02-09T13:23:24+01:00*%
%TF.ProjectId,keyboard,6b657962-6f61-4726-942e-6b696361645f,v1.0.0*%
%TF.SameCoordinates,Original*%
%TF.FileFunction,Drillmap*%
%TF.FilePolarity,Positive*%
%FSLAX45Y45*%
G04 Gerber Fmt 4.5, Leading zero omitted, Abs format (unit mm)*
G04 Created by KiCad (PCBNEW 7.0.10-7.0.10~ubuntu22.04.1) date 2024-02-09 13:23:24*
%MOMM*%
%LPD*%
G01*
G04 APERTURE LIST*
%ADD10C,0.150000*%
%ADD11C,0.200000*%
%ADD12C,0.100000*%
%ADD13C,0.170180*%
%ADD14C,0.300000*%
%ADD15C,0.342900*%
G04 APERTURE END LIST*
D10*
X17694867Y-13968175D02*
X16816171Y-15490125D01*
X11882275Y-4501290D02*
X15438865Y-5302510D01*
X16573479Y-15577666D02*
X11679429Y-13764387D01*
X17435570Y-5507400D02*
G75*
G03*
X17235569Y-5307400I-200000J0D01*
G01*
X4175573Y-8231594D02*
G75*
G03*
X4125809Y-8381907I149475J-132881D01*
G01*
X4125809Y-8381907D02*
X4562790Y-13376618D01*
X11640696Y-13754307D02*
X8389755Y-13248399D01*
X8083732Y-5050180D02*
G75*
G03*
X8039805Y-5069949I59548J-191010D01*
G01*
X11679428Y-13764388D02*
G75*
G03*
X11640696Y-13754308I-69498J-187582D01*
G01*
X11882275Y-4501290D02*
G75*
G03*
X11838321Y-4496401I-43955J-195140D01*
G01*
X17694865Y-13968173D02*
G75*
G03*
X17718309Y-13831700I-173195J100003D01*
G01*
X15482819Y-5307401D02*
X17235569Y-5307400D01*
X17438925Y-12325484D02*
X17718309Y-13831700D01*
X16573480Y-15577663D02*
G75*
G03*
X16816171Y-15490125I69490J187533D01*
G01*
X8083732Y-5050181D02*
X9831505Y-4505459D01*
X17435569Y-5507400D02*
X17435569Y-12289008D01*
X8389755Y-13248400D02*
G75*
G03*
X8341569Y-13246782I-30755J-197670D01*
G01*
X9891014Y-4496401D02*
G75*
G03*
X9831505Y-4505459I6J-200049D01*
G01*
X8341570Y-13246782D02*
X4779460Y-13558426D01*
X5789198Y-6429952D02*
X8039805Y-5069948D01*
X4175574Y-8231594D02*
X5743161Y-6468246D01*
X9891014Y-4496400D02*
X11838320Y-4496400D01*
X17435570Y-12289008D02*
G75*
G03*
X17438925Y-12325484I200130J18D01*
G01*
X4562785Y-13376618D02*
G75*
G03*
X4779460Y-13558426I199245J17438D01*
G01*
X5789199Y-6429953D02*
G75*
G03*
X5743162Y-6468246I103481J-171227D01*
G01*
X15438865Y-5302510D02*
G75*
G03*
X15482819Y-5307401I43955J195080D01*
G01*
X17025569Y-10627401D02*
X17025569Y-12087400D01*
X17055569Y-12117400D02*
X17235569Y-12117400D01*
X17235569Y-10597401D02*
X17055569Y-10597401D01*
X17265569Y-12087400D02*
X17265569Y-10627401D01*
X17055569Y-10597401D02*
G75*
G03*
X17025569Y-10627401I0J-30000D01*
G01*
X17025569Y-12087400D02*
G75*
G03*
X17055569Y-12117400I30000J0D01*
G01*
X17265569Y-10627401D02*
G75*
G03*
X17235569Y-10597401I-30000J0D01*
G01*
X17235569Y-12117400D02*
G75*
G03*
X17265569Y-12087400I0J30000D01*
G01*
D11*
D12*
X16215570Y-5432400D02*
X16305570Y-5522400D01*
X16305570Y-5432400D02*
X16215570Y-5522400D01*
X16515570Y-5432400D02*
X16605570Y-5522400D01*
X16605570Y-5432400D02*
X16515570Y-5522400D01*
D13*
X4734470Y-9203190D02*
G75*
G03*
X4564290Y-9203190I-85090J0D01*
G01*
X4564290Y-9203190D02*
G75*
G03*
X4734470Y-9203190I85090J0D01*
G01*
X4882636Y-10896721D02*
G75*
G03*
X4712456Y-10896721I-85090J0D01*
G01*
X4712456Y-10896721D02*
G75*
G03*
X4882636Y-10896721I85090J0D01*
G01*
X5030800Y-12590252D02*
G75*
G03*
X4860620Y-12590252I-85090J0D01*
G01*
X4860620Y-12590252D02*
G75*
G03*
X5030800Y-12590252I85090J0D01*
G01*
X5830285Y-9107319D02*
G75*
G03*
X5660105Y-9107319I-85090J0D01*
G01*
X5660105Y-9107319D02*
G75*
G03*
X5830285Y-9107319I85090J0D01*
G01*
X5978450Y-10800850D02*
G75*
G03*
X5808270Y-10800850I-85090J0D01*
G01*
X5808270Y-10800850D02*
G75*
G03*
X5978450Y-10800850I85090J0D01*
G01*
X6126614Y-12494381D02*
G75*
G03*
X5956434Y-12494381I-85090J0D01*
G01*
X5956434Y-12494381D02*
G75*
G03*
X6126614Y-12494381I85090J0D01*
G01*
X6379457Y-7352778D02*
G75*
G03*
X6209277Y-7352778I-85090J0D01*
G01*
X6209277Y-7352778D02*
G75*
G03*
X6379457Y-7352778I85090J0D01*
G01*
X6527621Y-9046310D02*
G75*
G03*
X6357441Y-9046310I-85090J0D01*
G01*
X6357441Y-9046310D02*
G75*
G03*
X6527621Y-9046310I85090J0D01*
G01*
X6675786Y-10739840D02*
G75*
G03*
X6505606Y-10739840I-85090J0D01*
G01*
X6505606Y-10739840D02*
G75*
G03*
X6675786Y-10739840I85090J0D01*
G01*
X6823951Y-12433371D02*
G75*
G03*
X6653771Y-12433371I-85090J0D01*
G01*
X6653771Y-12433371D02*
G75*
G03*
X6823951Y-12433371I85090J0D01*
G01*
X7475271Y-7256907D02*
G75*
G03*
X7305091Y-7256907I-85090J0D01*
G01*
X7305091Y-7256907D02*
G75*
G03*
X7475271Y-7256907I85090J0D01*
G01*
X7623435Y-8950438D02*
G75*
G03*
X7453255Y-8950438I-85090J0D01*
G01*
X7453255Y-8950438D02*
G75*
G03*
X7623435Y-8950438I85090J0D01*
G01*
X7771600Y-10643969D02*
G75*
G03*
X7601420Y-10643969I-85090J0D01*
G01*
X7601420Y-10643969D02*
G75*
G03*
X7771600Y-10643969I85090J0D01*
G01*
X7919766Y-12337500D02*
G75*
G03*
X7749586Y-12337500I-85090J0D01*
G01*
X7749586Y-12337500D02*
G75*
G03*
X7919766Y-12337500I85090J0D01*
G01*
X8595659Y-9407400D02*
G75*
G03*
X8425479Y-9407400I-85090J0D01*
G01*
X8425479Y-9407400D02*
G75*
G03*
X8595659Y-9407400I85090J0D01*
G01*
X8595660Y-7707400D02*
G75*
G03*
X8425480Y-7707400I-85090J0D01*
G01*
X8425480Y-7707400D02*
G75*
G03*
X8595660Y-7707400I85090J0D01*
G01*
X8595660Y-6007400D02*
G75*
G03*
X8425480Y-6007400I-85090J0D01*
G01*
X8425480Y-6007400D02*
G75*
G03*
X8595660Y-6007400I85090J0D01*
G01*
X8595660Y-11107401D02*
G75*
G03*
X8425480Y-11107401I-85090J0D01*
G01*
X8425480Y-11107401D02*
G75*
G03*
X8595660Y-11107401I85090J0D01*
G01*
X9695659Y-9407400D02*
G75*
G03*
X9525479Y-9407400I-85090J0D01*
G01*
X9525479Y-9407400D02*
G75*
G03*
X9695659Y-9407400I85090J0D01*
G01*
X9695660Y-7707400D02*
G75*
G03*
X9525480Y-7707400I-85090J0D01*
G01*
X9525480Y-7707400D02*
G75*
G03*
X9695660Y-7707400I85090J0D01*
G01*
X9695660Y-6007400D02*
G75*
G03*
X9525480Y-6007400I-85090J0D01*
G01*
X9525480Y-6007400D02*
G75*
G03*
X9695660Y-6007400I85090J0D01*
G01*
X9695660Y-11107401D02*
G75*
G03*
X9525480Y-11107401I-85090J0D01*
G01*
X9525480Y-11107401D02*
G75*
G03*
X9695660Y-11107401I85090J0D01*
G01*
X10395659Y-8846400D02*
G75*
G03*
X10225479Y-8846400I-85090J0D01*
G01*
X10225479Y-8846400D02*
G75*
G03*
X10395659Y-8846400I85090J0D01*
G01*
X10395659Y-12246400D02*
G75*
G03*
X10225479Y-12246400I-85090J0D01*
G01*
X10225479Y-12246400D02*
G75*
G03*
X10395659Y-12246400I85090J0D01*
G01*
X10395660Y-5446401D02*
G75*
G03*
X10225480Y-5446401I-85090J0D01*
G01*
X10225480Y-5446401D02*
G75*
G03*
X10395660Y-5446401I85090J0D01*
G01*
X10395660Y-7146400D02*
G75*
G03*
X10225480Y-7146400I-85090J0D01*
G01*
X10225480Y-7146400D02*
G75*
G03*
X10395660Y-7146400I85090J0D01*
G01*
X10395660Y-10546400D02*
G75*
G03*
X10225480Y-10546400I-85090J0D01*
G01*
X10225480Y-10546400D02*
G75*
G03*
X10395660Y-10546400I85090J0D01*
G01*
X11495659Y-8846400D02*
G75*
G03*
X11325479Y-8846400I-85090J0D01*
G01*
X11325479Y-8846400D02*
G75*
G03*
X11495659Y-8846400I85090J0D01*
G01*
X11495659Y-12246400D02*
G75*
G03*
X11325479Y-12246400I-85090J0D01*
G01*
X11325479Y-12246400D02*
G75*
G03*
X11495659Y-12246400I85090J0D01*
G01*
X11495660Y-5446401D02*
G75*
G03*
X11325480Y-5446401I-85090J0D01*
G01*
X11325480Y-5446401D02*
G75*
G03*
X11495660Y-5446401I85090J0D01*
G01*
X11495660Y-7146400D02*
G75*
G03*
X11325480Y-7146400I-85090J0D01*
G01*
X11325480Y-7146400D02*
G75*
G03*
X11495660Y-7146400I85090J0D01*
G01*
X11495660Y-10546400D02*
G75*
G03*
X11325480Y-10546400I-85090J0D01*
G01*
X11325480Y-10546400D02*
G75*
G03*
X11495660Y-10546400I85090J0D01*
G01*
X12195659Y-6007400D02*
G75*
G03*
X12025479Y-6007400I-85090J0D01*
G01*
X12025479Y-6007400D02*
G75*
G03*
X12195659Y-6007400I85090J0D01*
G01*
X12195659Y-7707401D02*
G75*
G03*
X12025479Y-7707401I-85090J0D01*
G01*
X12025479Y-7707401D02*
G75*
G03*
X12195659Y-7707401I85090J0D01*
G01*
X12195660Y-11107401D02*
G75*
G03*
X12025480Y-11107401I-85090J0D01*
G01*
X12025480Y-11107401D02*
G75*
G03*
X12195660Y-11107401I85090J0D01*
G01*
X12195660Y-9407401D02*
G75*
G03*
X12025480Y-9407401I-85090J0D01*
G01*
X12025480Y-9407401D02*
G75*
G03*
X12195660Y-9407401I85090J0D01*
G01*
X12195660Y-12807400D02*
G75*
G03*
X12025480Y-12807400I-85090J0D01*
G01*
X12025480Y-12807400D02*
G75*
G03*
X12195660Y-12807400I85090J0D01*
G01*
X13295659Y-6007400D02*
G75*
G03*
X13125479Y-6007400I-85090J0D01*
G01*
X13125479Y-6007400D02*
G75*
G03*
X13295659Y-6007400I85090J0D01*
G01*
X13295659Y-7707401D02*
G75*
G03*
X13125479Y-7707401I-85090J0D01*
G01*
X13125479Y-7707401D02*
G75*
G03*
X13295659Y-7707401I85090J0D01*
G01*
X13295660Y-11107401D02*
G75*
G03*
X13125480Y-11107401I-85090J0D01*
G01*
X13125480Y-11107401D02*
G75*
G03*
X13295660Y-11107401I85090J0D01*
G01*
X13295660Y-9407401D02*
G75*
G03*
X13125480Y-9407401I-85090J0D01*
G01*
X13125480Y-9407401D02*
G75*
G03*
X13295660Y-9407401I85090J0D01*
G01*
X13295660Y-12807400D02*
G75*
G03*
X13125480Y-12807400I-85090J0D01*
G01*
X13125480Y-12807400D02*
G75*
G03*
X13295660Y-12807400I85090J0D01*
G01*
X13995659Y-9657400D02*
G75*
G03*
X13825479Y-9657400I-85090J0D01*
G01*
X13825479Y-9657400D02*
G75*
G03*
X13995659Y-9657400I85090J0D01*
G01*
X13995659Y-6257400D02*
G75*
G03*
X13825479Y-6257400I-85090J0D01*
G01*
X13825479Y-6257400D02*
G75*
G03*
X13995659Y-6257400I85090J0D01*
G01*
X13995659Y-11357400D02*
G75*
G03*
X13825479Y-11357400I-85090J0D01*
G01*
X13825479Y-11357400D02*
G75*
G03*
X13995659Y-11357400I85090J0D01*
G01*
X13995660Y-7957400D02*
G75*
G03*
X13825480Y-7957400I-85090J0D01*
G01*
X13825480Y-7957400D02*
G75*
G03*
X13995660Y-7957400I85090J0D01*
G01*
X14214401Y-13104050D02*
G75*
G03*
X14044221Y-13104050I-85090J0D01*
G01*
X14044221Y-13104050D02*
G75*
G03*
X14214401Y-13104050I85090J0D01*
G01*
X15095659Y-9657400D02*
G75*
G03*
X14925479Y-9657400I-85090J0D01*
G01*
X14925479Y-9657400D02*
G75*
G03*
X15095659Y-9657400I85090J0D01*
G01*
X15095659Y-6257400D02*
G75*
G03*
X14925479Y-6257400I-85090J0D01*
G01*
X14925479Y-6257400D02*
G75*
G03*
X15095659Y-6257400I85090J0D01*
G01*
X15095659Y-11357400D02*
G75*
G03*
X14925479Y-11357400I-85090J0D01*
G01*
X14925479Y-11357400D02*
G75*
G03*
X15095659Y-11357400I85090J0D01*
G01*
X15095660Y-7957400D02*
G75*
G03*
X14925480Y-7957400I-85090J0D01*
G01*
X14925480Y-7957400D02*
G75*
G03*
X15095660Y-7957400I85090J0D01*
G01*
X15276919Y-13388751D02*
G75*
G03*
X15106739Y-13388751I-85090J0D01*
G01*
X15106739Y-13388751D02*
G75*
G03*
X15276919Y-13388751I85090J0D01*
G01*
X16219134Y-14771601D02*
G75*
G03*
X16048954Y-14771601I-85090J0D01*
G01*
X16048954Y-14771601D02*
G75*
G03*
X16219134Y-14771601I85090J0D01*
G01*
X16769134Y-13818973D02*
G75*
G03*
X16598954Y-13818973I-85090J0D01*
G01*
X16598954Y-13818973D02*
G75*
G03*
X16769134Y-13818973I85090J0D01*
G01*
D14*
X4731874Y-9422405D02*
X4731874Y-9722405D01*
X4581874Y-9572405D02*
X4881874Y-9572405D01*
X4880039Y-11115936D02*
X4880039Y-11415936D01*
X4730039Y-11265936D02*
X5030039Y-11265936D01*
X5028203Y-12809467D02*
X5028203Y-13109467D01*
X4878203Y-12959467D02*
X5178203Y-12959467D01*
X5249145Y-9597990D02*
X5249145Y-9897990D01*
X5099145Y-9747990D02*
X5399145Y-9747990D01*
X5249145Y-9597990D02*
X5249145Y-9897990D01*
X5099145Y-9747990D02*
X5399145Y-9747990D01*
X5397311Y-11291521D02*
X5397311Y-11591521D01*
X5247311Y-11441521D02*
X5547311Y-11441521D01*
X5397311Y-11291521D02*
X5397311Y-11591521D01*
X5247311Y-11441521D02*
X5547311Y-11441521D01*
X5545474Y-12985052D02*
X5545474Y-13285052D01*
X5395474Y-13135052D02*
X5695474Y-13135052D01*
X5545474Y-12985052D02*
X5545474Y-13285052D01*
X5395474Y-13135052D02*
X5695474Y-13135052D01*
X5728068Y-9335249D02*
X5728068Y-9635249D01*
X5578068Y-9485249D02*
X5878068Y-9485249D01*
X5876234Y-11028781D02*
X5876234Y-11328780D01*
X5726234Y-11178781D02*
X6026234Y-11178781D01*
X6024397Y-12722312D02*
X6024397Y-13022312D01*
X5874397Y-12872312D02*
X6174397Y-12872312D01*
X6376860Y-7571994D02*
X6376860Y-7871994D01*
X6226860Y-7721994D02*
X6526860Y-7721994D01*
X6525024Y-9265525D02*
X6525024Y-9565525D01*
X6375024Y-9415525D02*
X6675024Y-9415525D01*
X6673189Y-10959055D02*
X6673189Y-11259055D01*
X6523189Y-11109055D02*
X6823189Y-11109055D01*
X6821355Y-12652587D02*
X6821355Y-12952587D01*
X6671355Y-12802587D02*
X6971355Y-12802587D01*
X6894132Y-7747579D02*
X6894132Y-8047579D01*
X6744132Y-7897579D02*
X7044132Y-7897579D01*
X6894132Y-7747579D02*
X6894132Y-8047579D01*
X6744132Y-7897579D02*
X7044132Y-7897579D01*
X7042296Y-9441110D02*
X7042296Y-9741110D01*
X6892296Y-9591110D02*
X7192296Y-9591110D01*
X7042296Y-9441110D02*
X7042296Y-9741110D01*
X6892296Y-9591110D02*
X7192296Y-9591110D01*
X7190460Y-11134640D02*
X7190460Y-11434640D01*
X7040460Y-11284640D02*
X7340460Y-11284640D01*
X7190460Y-11134640D02*
X7190460Y-11434640D01*
X7040460Y-11284640D02*
X7340460Y-11284640D01*
X7338626Y-12828171D02*
X7338626Y-13128171D01*
X7188626Y-12978171D02*
X7488626Y-12978171D01*
X7338626Y-12828171D02*
X7338626Y-13128171D01*
X7188626Y-12978171D02*
X7488626Y-12978171D01*
X7373055Y-7484838D02*
X7373055Y-7784838D01*
X7223055Y-7634838D02*
X7523055Y-7634838D01*
X7521219Y-9178369D02*
X7521219Y-9478369D01*
X7371219Y-9328369D02*
X7671219Y-9328369D01*
X7669384Y-10871900D02*
X7669384Y-11171900D01*
X7519384Y-11021900D02*
X7819384Y-11021900D01*
X7817549Y-12565431D02*
X7817549Y-12865431D01*
X7667549Y-12715431D02*
X7967549Y-12715431D01*
X8560569Y-9632400D02*
X8560569Y-9932400D01*
X8410569Y-9782400D02*
X8710569Y-9782400D01*
X8560570Y-7932400D02*
X8560570Y-8232400D01*
X8410570Y-8082400D02*
X8710570Y-8082400D01*
X8560570Y-6232400D02*
X8560570Y-6532400D01*
X8410570Y-6382400D02*
X8710570Y-6382400D01*
X8560570Y-11332401D02*
X8560570Y-11632401D01*
X8410570Y-11482401D02*
X8710570Y-11482401D01*
X9060569Y-9852400D02*
X9060569Y-10152400D01*
X8910569Y-10002400D02*
X9210569Y-10002400D01*
X9060569Y-9852400D02*
X9060569Y-10152400D01*
X8910569Y-10002400D02*
X9210569Y-10002400D01*
X9060570Y-8152400D02*
X9060570Y-8452400D01*
X8910570Y-8302400D02*
X9210570Y-8302400D01*
X9060570Y-8152400D02*
X9060570Y-8452400D01*
X8910570Y-8302400D02*
X9210570Y-8302400D01*
X9060570Y-6452400D02*
X9060570Y-6752400D01*
X8910570Y-6602400D02*
X9210570Y-6602400D01*
X9060570Y-6452400D02*
X9060570Y-6752400D01*
X8910570Y-6602400D02*
X9210570Y-6602400D01*
X9060570Y-11552401D02*
X9060570Y-11852401D01*
X8910570Y-11702401D02*
X9210570Y-11702401D01*
X9060570Y-11552401D02*
X9060570Y-11852401D01*
X8910570Y-11702401D02*
X9210570Y-11702401D01*
X9560569Y-9632400D02*
X9560569Y-9932400D01*
X9410569Y-9782400D02*
X9710569Y-9782400D01*
X9560570Y-7932400D02*
X9560570Y-8232400D01*
X9410570Y-8082400D02*
X9710570Y-8082400D01*
X9560570Y-6232400D02*
X9560570Y-6532400D01*
X9410570Y-6382400D02*
X9710570Y-6382400D01*
X9560570Y-11332401D02*
X9560570Y-11632401D01*
X9410570Y-11482401D02*
X9710570Y-11482401D01*
X10360569Y-9071400D02*
X10360569Y-9371400D01*
X10210569Y-9221400D02*
X10510569Y-9221400D01*
X10360569Y-12471400D02*
X10360569Y-12771400D01*
X10210569Y-12621400D02*
X10510569Y-12621400D01*
X10360570Y-5671400D02*
X10360570Y-5971400D01*
X10210570Y-5821400D02*
X10510570Y-5821400D01*
X10360570Y-7371400D02*
X10360570Y-7671400D01*
X10210570Y-7521400D02*
X10510570Y-7521400D01*
X10360570Y-10771400D02*
X10360570Y-11071400D01*
X10210570Y-10921400D02*
X10510570Y-10921400D01*
X10860569Y-9291400D02*
X10860569Y-9591400D01*
X10710569Y-9441400D02*
X11010569Y-9441400D01*
X10860569Y-9291400D02*
X10860569Y-9591400D01*
X10710569Y-9441400D02*
X11010569Y-9441400D01*
X10860569Y-12691400D02*
X10860569Y-12991400D01*
X10710569Y-12841400D02*
X11010569Y-12841400D01*
X10860569Y-12691400D02*
X10860569Y-12991400D01*
X10710569Y-12841400D02*
X11010569Y-12841400D01*
X10860570Y-5891400D02*
X10860570Y-6191400D01*
X10710570Y-6041400D02*
X11010570Y-6041400D01*
X10860570Y-5891400D02*
X10860570Y-6191400D01*
X10710570Y-6041400D02*
X11010570Y-6041400D01*
X10860570Y-7591400D02*
X10860570Y-7891400D01*
X10710570Y-7741400D02*
X11010570Y-7741400D01*
X10860570Y-7591400D02*
X10860570Y-7891400D01*
X10710570Y-7741400D02*
X11010570Y-7741400D01*
X10860570Y-10991400D02*
X10860570Y-11291400D01*
X10710570Y-11141400D02*
X11010570Y-11141400D01*
X10860570Y-10991400D02*
X10860570Y-11291400D01*
X10710570Y-11141400D02*
X11010570Y-11141400D01*
X11360569Y-9071400D02*
X11360569Y-9371400D01*
X11210569Y-9221400D02*
X11510569Y-9221400D01*
X11360569Y-12471400D02*
X11360569Y-12771400D01*
X11210569Y-12621400D02*
X11510569Y-12621400D01*
X11360570Y-5671400D02*
X11360570Y-5971400D01*
X11210570Y-5821400D02*
X11510570Y-5821400D01*
X11360570Y-7371400D02*
X11360570Y-7671400D01*
X11210570Y-7521400D02*
X11510570Y-7521400D01*
X11360570Y-10771400D02*
X11360570Y-11071400D01*
X11210570Y-10921400D02*
X11510570Y-10921400D01*
X12160569Y-6232400D02*
X12160569Y-6532400D01*
X12010569Y-6382400D02*
X12310569Y-6382400D01*
X12160569Y-7932401D02*
X12160569Y-8232401D01*
X12010569Y-8082401D02*
X12310569Y-8082401D01*
X12160570Y-11332401D02*
X12160570Y-11632401D01*
X12010570Y-11482401D02*
X12310570Y-11482401D01*
X12160570Y-9632401D02*
X12160570Y-9932401D01*
X12010570Y-9782401D02*
X12310570Y-9782401D01*
X12160570Y-13032400D02*
X12160570Y-13332400D01*
X12010570Y-13182400D02*
X12310570Y-13182400D01*
X12660569Y-6452400D02*
X12660569Y-6752400D01*
X12510569Y-6602400D02*
X12810569Y-6602400D01*
X12660569Y-6452400D02*
X12660569Y-6752400D01*
X12510569Y-6602400D02*
X12810569Y-6602400D01*
X12660569Y-8152401D02*
X12660569Y-8452401D01*
X12510569Y-8302401D02*
X12810569Y-8302401D01*
X12660569Y-8152401D02*
X12660569Y-8452401D01*
X12510569Y-8302401D02*
X12810569Y-8302401D01*
X12660570Y-11552401D02*
X12660570Y-11852401D01*
X12510570Y-11702401D02*
X12810570Y-11702401D01*
X12660570Y-11552401D02*
X12660570Y-11852401D01*
X12510570Y-11702401D02*
X12810570Y-11702401D01*
X12660570Y-9852401D02*
X12660570Y-10152401D01*
X12510570Y-10002401D02*
X12810570Y-10002401D01*
X12660570Y-9852401D02*
X12660570Y-10152401D01*
X12510570Y-10002401D02*
X12810570Y-10002401D01*
X12660570Y-13252400D02*
X12660570Y-13552400D01*
X12510570Y-13402400D02*
X12810570Y-13402400D01*
X12660570Y-13252400D02*
X12660570Y-13552400D01*
X12510570Y-13402400D02*
X12810570Y-13402400D01*
X13160569Y-6232400D02*
X13160569Y-6532400D01*
X13010569Y-6382400D02*
X13310569Y-6382400D01*
X13160569Y-7932401D02*
X13160569Y-8232401D01*
X13010569Y-8082401D02*
X13310569Y-8082401D01*
X13160570Y-11332401D02*
X13160570Y-11632401D01*
X13010570Y-11482401D02*
X13310570Y-11482401D01*
X13160570Y-9632401D02*
X13160570Y-9932401D01*
X13010570Y-9782401D02*
X13310570Y-9782401D01*
X13160570Y-13032400D02*
X13160570Y-13332400D01*
X13010570Y-13182400D02*
X13310570Y-13182400D01*
X13960569Y-9882400D02*
X13960569Y-10182400D01*
X13810569Y-10032400D02*
X14110569Y-10032400D01*
X13960569Y-6482400D02*
X13960569Y-6782400D01*
X13810569Y-6632400D02*
X14110569Y-6632400D01*
X13960569Y-11582400D02*
X13960569Y-11882400D01*
X13810569Y-11732400D02*
X14110569Y-11732400D01*
X13960570Y-8182400D02*
X13960570Y-8482400D01*
X13810570Y-8332400D02*
X14110570Y-8332400D01*
X14080550Y-13329213D02*
X14080550Y-13629213D01*
X13930550Y-13479213D02*
X14230550Y-13479213D01*
X14460569Y-10102400D02*
X14460569Y-10402400D01*
X14310569Y-10252400D02*
X14610569Y-10252400D01*
X14460569Y-10102400D02*
X14460569Y-10402400D01*
X14310569Y-10252400D02*
X14610569Y-10252400D01*
X14460569Y-6702400D02*
X14460569Y-7002400D01*
X14310569Y-6852400D02*
X14610569Y-6852400D01*
X14460569Y-6702400D02*
X14460569Y-7002400D01*
X14310569Y-6852400D02*
X14610569Y-6852400D01*
X14460569Y-11802400D02*
X14460569Y-12102400D01*
X14310569Y-11952400D02*
X14610569Y-11952400D01*
X14460569Y-11802400D02*
X14460569Y-12102400D01*
X14310569Y-11952400D02*
X14610569Y-11952400D01*
X14460570Y-8402400D02*
X14460570Y-8702400D01*
X14310570Y-8552400D02*
X14610570Y-8552400D01*
X14460570Y-8402400D02*
X14460570Y-8702400D01*
X14310570Y-8552400D02*
X14610570Y-8552400D01*
X14506573Y-13671127D02*
X14506573Y-13971127D01*
X14356573Y-13821127D02*
X14656573Y-13821127D01*
X14506573Y-13671127D02*
X14506573Y-13971127D01*
X14356573Y-13821127D02*
X14656573Y-13821127D01*
X14960569Y-9882400D02*
X14960569Y-10182400D01*
X14810569Y-10032400D02*
X15110569Y-10032400D01*
X14960569Y-6482400D02*
X14960569Y-6782400D01*
X14810569Y-6632400D02*
X15110569Y-6632400D01*
X14960569Y-11582400D02*
X14960569Y-11882400D01*
X14810569Y-11732400D02*
X15110569Y-11732400D01*
X14960570Y-8182400D02*
X14960570Y-8482400D01*
X14810570Y-8332400D02*
X15110570Y-8332400D01*
X15046476Y-13588032D02*
X15046476Y-13888032D01*
X14896476Y-13738032D02*
X15196476Y-13738032D01*
X16483804Y-14765800D02*
X16483804Y-15065800D01*
X16333804Y-14915800D02*
X16633804Y-14915800D01*
X16924329Y-14442787D02*
X16924329Y-14742787D01*
X16774329Y-14592787D02*
X17074329Y-14592787D01*
X16924329Y-14442787D02*
X16924329Y-14742787D01*
X16774329Y-14592787D02*
X17074329Y-14592787D01*
X16983804Y-13899775D02*
X16983804Y-14199775D01*
X16833804Y-14049775D02*
X17133804Y-14049775D01*
D15*
X5318522Y-9276489D02*
X5318522Y-9034020D01*
X5076053Y-9034020D01*
X5076053Y-9276489D01*
X5318522Y-9276489D01*
X5466687Y-10970020D02*
X5466687Y-10727551D01*
X5224218Y-10727551D01*
X5224218Y-10970020D01*
X5466687Y-10970020D01*
X5614851Y-12663551D02*
X5614851Y-12421082D01*
X5372382Y-12421082D01*
X5372382Y-12663551D01*
X5614851Y-12663551D01*
X6963509Y-7426077D02*
X6963509Y-7183608D01*
X6721040Y-7183608D01*
X6721040Y-7426077D01*
X6963509Y-7426077D01*
X7111673Y-9119609D02*
X7111673Y-8877139D01*
X6869204Y-8877139D01*
X6869204Y-9119609D01*
X7111673Y-9119609D01*
X7259837Y-10813139D02*
X7259837Y-10570670D01*
X7017368Y-10570670D01*
X7017368Y-10813139D01*
X7259837Y-10813139D01*
X7408003Y-12506670D02*
X7408003Y-12264201D01*
X7165534Y-12264201D01*
X7165534Y-12506670D01*
X7408003Y-12506670D01*
X9181804Y-9528635D02*
X9181804Y-9286166D01*
X8939335Y-9286166D01*
X8939335Y-9528635D01*
X9181804Y-9528635D01*
X9181804Y-7828635D02*
X9181804Y-7586165D01*
X8939335Y-7586165D01*
X8939335Y-7828635D01*
X9181804Y-7828635D01*
X9181804Y-6128635D02*
X9181804Y-5886166D01*
X8939335Y-5886166D01*
X8939335Y-6128635D01*
X9181804Y-6128635D01*
X9181805Y-11228635D02*
X9181805Y-10986166D01*
X8939336Y-10986166D01*
X8939336Y-11228635D01*
X9181805Y-11228635D01*
X10981804Y-8967635D02*
X10981804Y-8725166D01*
X10739335Y-8725166D01*
X10739335Y-8967635D01*
X10981804Y-8967635D01*
X10981804Y-12367635D02*
X10981804Y-12125166D01*
X10739335Y-12125166D01*
X10739335Y-12367635D01*
X10981804Y-12367635D01*
X10981804Y-5567635D02*
X10981804Y-5325166D01*
X10739335Y-5325166D01*
X10739335Y-5567635D01*
X10981804Y-5567635D01*
X10981804Y-7267635D02*
X10981804Y-7025166D01*
X10739335Y-7025166D01*
X10739335Y-7267635D01*
X10981804Y-7267635D01*
X10981804Y-10667635D02*
X10981804Y-10425166D01*
X10739335Y-10425166D01*
X10739335Y-10667635D01*
X10981804Y-10667635D01*
X12781804Y-6128635D02*
X12781804Y-5886165D01*
X12539334Y-5886165D01*
X12539334Y-6128635D01*
X12781804Y-6128635D01*
X12781804Y-7828635D02*
X12781804Y-7586166D01*
X12539335Y-7586166D01*
X12539335Y-7828635D01*
X12781804Y-7828635D01*
X12781804Y-11228635D02*
X12781804Y-10986166D01*
X12539335Y-10986166D01*
X12539335Y-11228635D01*
X12781804Y-11228635D01*
X12781804Y-9528635D02*
X12781804Y-9286166D01*
X12539335Y-9286166D01*
X12539335Y-9528635D01*
X12781804Y-9528635D01*
X12781804Y-12928634D02*
X12781804Y-12686165D01*
X12539335Y-12686165D01*
X12539335Y-12928634D01*
X12781804Y-12928634D01*
X14581804Y-9778635D02*
X14581804Y-9536166D01*
X14339334Y-9536166D01*
X14339334Y-9778635D01*
X14581804Y-9778635D01*
X14581804Y-6378635D02*
X14581804Y-6136166D01*
X14339335Y-6136166D01*
X14339335Y-6378635D01*
X14581804Y-6378635D01*
X14581804Y-11478635D02*
X14581804Y-11236166D01*
X14339335Y-11236166D01*
X14339335Y-11478635D01*
X14581804Y-11478635D01*
X14581805Y-8078635D02*
X14581805Y-7836166D01*
X14339336Y-7836166D01*
X14339336Y-8078635D01*
X14581805Y-8078635D01*
X14781805Y-13367635D02*
X14781805Y-13125166D01*
X14539335Y-13125166D01*
X14539335Y-13367635D01*
X14781805Y-13367635D01*
X16530279Y-14416522D02*
X16530279Y-14174053D01*
X16287810Y-14174053D01*
X16287810Y-14416522D01*
X16530279Y-14416522D01*
D11*
X4378325Y-15909107D02*
X4378325Y-15709107D01*
X4378325Y-15709107D02*
X4425944Y-15709107D01*
X4425944Y-15709107D02*
X4454515Y-15718631D01*
X4454515Y-15718631D02*
X4473563Y-15737679D01*
X4473563Y-15737679D02*
X4483086Y-15756726D01*
X4483086Y-15756726D02*
X4492610Y-15794822D01*
X4492610Y-15794822D02*
X4492610Y-15823393D01*
X4492610Y-15823393D02*
X4483086Y-15861488D01*
X4483086Y-15861488D02*
X4473563Y-15880536D01*
X4473563Y-15880536D02*
X4454515Y-15899584D01*
X4454515Y-15899584D02*
X4425944Y-15909107D01*
X4425944Y-15909107D02*
X4378325Y-15909107D01*
X4578325Y-15909107D02*
X4578325Y-15775774D01*
X4578325Y-15813869D02*
X4587848Y-15794822D01*
X4587848Y-15794822D02*
X4597372Y-15785298D01*
X4597372Y-15785298D02*
X4616420Y-15775774D01*
X4616420Y-15775774D02*
X4635467Y-15775774D01*
X4702134Y-15909107D02*
X4702134Y-15775774D01*
X4702134Y-15709107D02*
X4692610Y-15718631D01*
X4692610Y-15718631D02*
X4702134Y-15728155D01*
X4702134Y-15728155D02*
X4711658Y-15718631D01*
X4711658Y-15718631D02*
X4702134Y-15709107D01*
X4702134Y-15709107D02*
X4702134Y-15728155D01*
X4825944Y-15909107D02*
X4806896Y-15899584D01*
X4806896Y-15899584D02*
X4797372Y-15880536D01*
X4797372Y-15880536D02*
X4797372Y-15709107D01*
X4930705Y-15909107D02*
X4911658Y-15899584D01*
X4911658Y-15899584D02*
X4902134Y-15880536D01*
X4902134Y-15880536D02*
X4902134Y-15709107D01*
X5159277Y-15909107D02*
X5159277Y-15709107D01*
X5159277Y-15709107D02*
X5225944Y-15851965D01*
X5225944Y-15851965D02*
X5292610Y-15709107D01*
X5292610Y-15709107D02*
X5292610Y-15909107D01*
X5473563Y-15909107D02*
X5473563Y-15804346D01*
X5473563Y-15804346D02*
X5464039Y-15785298D01*
X5464039Y-15785298D02*
X5444991Y-15775774D01*
X5444991Y-15775774D02*
X5406896Y-15775774D01*
X5406896Y-15775774D02*
X5387848Y-15785298D01*
X5473563Y-15899584D02*
X5454515Y-15909107D01*
X5454515Y-15909107D02*
X5406896Y-15909107D01*
X5406896Y-15909107D02*
X5387848Y-15899584D01*
X5387848Y-15899584D02*
X5378325Y-15880536D01*
X5378325Y-15880536D02*
X5378325Y-15861488D01*
X5378325Y-15861488D02*
X5387848Y-15842441D01*
X5387848Y-15842441D02*
X5406896Y-15832917D01*
X5406896Y-15832917D02*
X5454515Y-15832917D01*
X5454515Y-15832917D02*
X5473563Y-15823393D01*
X5568801Y-15775774D02*
X5568801Y-15975774D01*
X5568801Y-15785298D02*
X5587848Y-15775774D01*
X5587848Y-15775774D02*
X5625944Y-15775774D01*
X5625944Y-15775774D02*
X5644991Y-15785298D01*
X5644991Y-15785298D02*
X5654515Y-15794822D01*
X5654515Y-15794822D02*
X5664039Y-15813869D01*
X5664039Y-15813869D02*
X5664039Y-15871012D01*
X5664039Y-15871012D02*
X5654515Y-15890060D01*
X5654515Y-15890060D02*
X5644991Y-15899584D01*
X5644991Y-15899584D02*
X5625944Y-15909107D01*
X5625944Y-15909107D02*
X5587848Y-15909107D01*
X5587848Y-15909107D02*
X5568801Y-15899584D01*
X5749753Y-15890060D02*
X5759277Y-15899584D01*
X5759277Y-15899584D02*
X5749753Y-15909107D01*
X5749753Y-15909107D02*
X5740229Y-15899584D01*
X5740229Y-15899584D02*
X5749753Y-15890060D01*
X5749753Y-15890060D02*
X5749753Y-15909107D01*
X5749753Y-15785298D02*
X5759277Y-15794822D01*
X5759277Y-15794822D02*
X5749753Y-15804346D01*
X5749753Y-15804346D02*
X5740229Y-15794822D01*
X5740229Y-15794822D02*
X5749753Y-15785298D01*
X5749753Y-15785298D02*
X5749753Y-15804346D01*
D12*
X4027548Y-16192624D02*
X4117548Y-16282624D01*
X4117548Y-16192624D02*
X4027548Y-16282624D01*
D11*
X4416420Y-16129107D02*
X4435467Y-16129107D01*
X4435467Y-16129107D02*
X4454515Y-16138631D01*
X4454515Y-16138631D02*
X4464039Y-16148155D01*
X4464039Y-16148155D02*
X4473563Y-16167203D01*
X4473563Y-16167203D02*
X4483086Y-16205298D01*
X4483086Y-16205298D02*
X4483086Y-16252917D01*
X4483086Y-16252917D02*
X4473563Y-16291012D01*
X4473563Y-16291012D02*
X4464039Y-16310060D01*
X4464039Y-16310060D02*
X4454515Y-16319584D01*
X4454515Y-16319584D02*
X4435467Y-16329107D01*
X4435467Y-16329107D02*
X4416420Y-16329107D01*
X4416420Y-16329107D02*
X4397372Y-16319584D01*
X4397372Y-16319584D02*
X4387848Y-16310060D01*
X4387848Y-16310060D02*
X4378325Y-16291012D01*
X4378325Y-16291012D02*
X4368801Y-16252917D01*
X4368801Y-16252917D02*
X4368801Y-16205298D01*
X4368801Y-16205298D02*
X4378325Y-16167203D01*
X4378325Y-16167203D02*
X4387848Y-16148155D01*
X4387848Y-16148155D02*
X4397372Y-16138631D01*
X4397372Y-16138631D02*
X4416420Y-16129107D01*
X4568801Y-16310060D02*
X4578325Y-16319584D01*
X4578325Y-16319584D02*
X4568801Y-16329107D01*
X4568801Y-16329107D02*
X4559277Y-16319584D01*
X4559277Y-16319584D02*
X4568801Y-16310060D01*
X4568801Y-16310060D02*
X4568801Y-16329107D01*
X4673563Y-16329107D02*
X4711658Y-16329107D01*
X4711658Y-16329107D02*
X4730706Y-16319584D01*
X4730706Y-16319584D02*
X4740229Y-16310060D01*
X4740229Y-16310060D02*
X4759277Y-16281488D01*
X4759277Y-16281488D02*
X4768801Y-16243393D01*
X4768801Y-16243393D02*
X4768801Y-16167203D01*
X4768801Y-16167203D02*
X4759277Y-16148155D01*
X4759277Y-16148155D02*
X4749753Y-16138631D01*
X4749753Y-16138631D02*
X4730706Y-16129107D01*
X4730706Y-16129107D02*
X4692610Y-16129107D01*
X4692610Y-16129107D02*
X4673563Y-16138631D01*
X4673563Y-16138631D02*
X4664039Y-16148155D01*
X4664039Y-16148155D02*
X4654515Y-16167203D01*
X4654515Y-16167203D02*
X4654515Y-16214822D01*
X4654515Y-16214822D02*
X4664039Y-16233869D01*
X4664039Y-16233869D02*
X4673563Y-16243393D01*
X4673563Y-16243393D02*
X4692610Y-16252917D01*
X4692610Y-16252917D02*
X4730706Y-16252917D01*
X4730706Y-16252917D02*
X4749753Y-16243393D01*
X4749753Y-16243393D02*
X4759277Y-16233869D01*
X4759277Y-16233869D02*
X4768801Y-16214822D01*
X4892610Y-16129107D02*
X4911658Y-16129107D01*
X4911658Y-16129107D02*
X4930706Y-16138631D01*
X4930706Y-16138631D02*
X4940229Y-16148155D01*
X4940229Y-16148155D02*
X4949753Y-16167203D01*
X4949753Y-16167203D02*
X4959277Y-16205298D01*
X4959277Y-16205298D02*
X4959277Y-16252917D01*
X4959277Y-16252917D02*
X4949753Y-16291012D01*
X4949753Y-16291012D02*
X4940229Y-16310060D01*
X4940229Y-16310060D02*
X4930706Y-16319584D01*
X4930706Y-16319584D02*
X4911658Y-16329107D01*
X4911658Y-16329107D02*
X4892610Y-16329107D01*
X4892610Y-16329107D02*
X4873563Y-16319584D01*
X4873563Y-16319584D02*
X4864039Y-16310060D01*
X4864039Y-16310060D02*
X4854515Y-16291012D01*
X4854515Y-16291012D02*
X4844991Y-16252917D01*
X4844991Y-16252917D02*
X4844991Y-16205298D01*
X4844991Y-16205298D02*
X4854515Y-16167203D01*
X4854515Y-16167203D02*
X4864039Y-16148155D01*
X4864039Y-16148155D02*
X4873563Y-16138631D01*
X4873563Y-16138631D02*
X4892610Y-16129107D01*
X5083086Y-16129107D02*
X5102134Y-16129107D01*
X5102134Y-16129107D02*
X5121182Y-16138631D01*
X5121182Y-16138631D02*
X5130706Y-16148155D01*
X5130706Y-16148155D02*
X5140229Y-16167203D01*
X5140229Y-16167203D02*
X5149753Y-16205298D01*
X5149753Y-16205298D02*
X5149753Y-16252917D01*
X5149753Y-16252917D02*
X5140229Y-16291012D01*
X5140229Y-16291012D02*
X5130706Y-16310060D01*
X5130706Y-16310060D02*
X5121182Y-16319584D01*
X5121182Y-16319584D02*
X5102134Y-16329107D01*
X5102134Y-16329107D02*
X5083086Y-16329107D01*
X5083086Y-16329107D02*
X5064039Y-16319584D01*
X5064039Y-16319584D02*
X5054515Y-16310060D01*
X5054515Y-16310060D02*
X5044991Y-16291012D01*
X5044991Y-16291012D02*
X5035467Y-16252917D01*
X5035467Y-16252917D02*
X5035467Y-16205298D01*
X5035467Y-16205298D02*
X5044991Y-16167203D01*
X5044991Y-16167203D02*
X5054515Y-16148155D01*
X5054515Y-16148155D02*
X5064039Y-16138631D01*
X5064039Y-16138631D02*
X5083086Y-16129107D01*
X5235467Y-16329107D02*
X5235467Y-16195774D01*
X5235467Y-16214822D02*
X5244991Y-16205298D01*
X5244991Y-16205298D02*
X5264039Y-16195774D01*
X5264039Y-16195774D02*
X5292610Y-16195774D01*
X5292610Y-16195774D02*
X5311658Y-16205298D01*
X5311658Y-16205298D02*
X5321182Y-16224346D01*
X5321182Y-16224346D02*
X5321182Y-16329107D01*
X5321182Y-16224346D02*
X5330706Y-16205298D01*
X5330706Y-16205298D02*
X5349753Y-16195774D01*
X5349753Y-16195774D02*
X5378325Y-16195774D01*
X5378325Y-16195774D02*
X5397372Y-16205298D01*
X5397372Y-16205298D02*
X5406896Y-16224346D01*
X5406896Y-16224346D02*
X5406896Y-16329107D01*
X5502134Y-16329107D02*
X5502134Y-16195774D01*
X5502134Y-16214822D02*
X5511658Y-16205298D01*
X5511658Y-16205298D02*
X5530706Y-16195774D01*
X5530706Y-16195774D02*
X5559277Y-16195774D01*
X5559277Y-16195774D02*
X5578325Y-16205298D01*
X5578325Y-16205298D02*
X5587848Y-16224346D01*
X5587848Y-16224346D02*
X5587848Y-16329107D01*
X5587848Y-16224346D02*
X5597372Y-16205298D01*
X5597372Y-16205298D02*
X5616420Y-16195774D01*
X5616420Y-16195774D02*
X5644991Y-16195774D01*
X5644991Y-16195774D02*
X5664039Y-16205298D01*
X5664039Y-16205298D02*
X5673563Y-16224346D01*
X5673563Y-16224346D02*
X5673563Y-16329107D01*
X6064039Y-16119584D02*
X5892610Y-16376726D01*
X6321182Y-16129107D02*
X6340229Y-16129107D01*
X6340229Y-16129107D02*
X6359277Y-16138631D01*
X6359277Y-16138631D02*
X6368801Y-16148155D01*
X6368801Y-16148155D02*
X6378325Y-16167203D01*
X6378325Y-16167203D02*
X6387848Y-16205298D01*
X6387848Y-16205298D02*
X6387848Y-16252917D01*
X6387848Y-16252917D02*
X6378325Y-16291012D01*
X6378325Y-16291012D02*
X6368801Y-16310060D01*
X6368801Y-16310060D02*
X6359277Y-16319584D01*
X6359277Y-16319584D02*
X6340229Y-16329107D01*
X6340229Y-16329107D02*
X6321182Y-16329107D01*
X6321182Y-16329107D02*
X6302134Y-16319584D01*
X6302134Y-16319584D02*
X6292610Y-16310060D01*
X6292610Y-16310060D02*
X6283087Y-16291012D01*
X6283087Y-16291012D02*
X6273563Y-16252917D01*
X6273563Y-16252917D02*
X6273563Y-16205298D01*
X6273563Y-16205298D02*
X6283087Y-16167203D01*
X6283087Y-16167203D02*
X6292610Y-16148155D01*
X6292610Y-16148155D02*
X6302134Y-16138631D01*
X6302134Y-16138631D02*
X6321182Y-16129107D01*
X6473563Y-16310060D02*
X6483087Y-16319584D01*
X6483087Y-16319584D02*
X6473563Y-16329107D01*
X6473563Y-16329107D02*
X6464039Y-16319584D01*
X6464039Y-16319584D02*
X6473563Y-16310060D01*
X6473563Y-16310060D02*
X6473563Y-16329107D01*
X6606896Y-16129107D02*
X6625944Y-16129107D01*
X6625944Y-16129107D02*
X6644991Y-16138631D01*
X6644991Y-16138631D02*
X6654515Y-16148155D01*
X6654515Y-16148155D02*
X6664039Y-16167203D01*
X6664039Y-16167203D02*
X6673563Y-16205298D01*
X6673563Y-16205298D02*
X6673563Y-16252917D01*
X6673563Y-16252917D02*
X6664039Y-16291012D01*
X6664039Y-16291012D02*
X6654515Y-16310060D01*
X6654515Y-16310060D02*
X6644991Y-16319584D01*
X6644991Y-16319584D02*
X6625944Y-16329107D01*
X6625944Y-16329107D02*
X6606896Y-16329107D01*
X6606896Y-16329107D02*
X6587848Y-16319584D01*
X6587848Y-16319584D02*
X6578325Y-16310060D01*
X6578325Y-16310060D02*
X6568801Y-16291012D01*
X6568801Y-16291012D02*
X6559277Y-16252917D01*
X6559277Y-16252917D02*
X6559277Y-16205298D01*
X6559277Y-16205298D02*
X6568801Y-16167203D01*
X6568801Y-16167203D02*
X6578325Y-16148155D01*
X6578325Y-16148155D02*
X6587848Y-16138631D01*
X6587848Y-16138631D02*
X6606896Y-16129107D01*
X6740229Y-16129107D02*
X6864039Y-16129107D01*
X6864039Y-16129107D02*
X6797372Y-16205298D01*
X6797372Y-16205298D02*
X6825944Y-16205298D01*
X6825944Y-16205298D02*
X6844991Y-16214822D01*
X6844991Y-16214822D02*
X6854515Y-16224346D01*
X6854515Y-16224346D02*
X6864039Y-16243393D01*
X6864039Y-16243393D02*
X6864039Y-16291012D01*
X6864039Y-16291012D02*
X6854515Y-16310060D01*
X6854515Y-16310060D02*
X6844991Y-16319584D01*
X6844991Y-16319584D02*
X6825944Y-16329107D01*
X6825944Y-16329107D02*
X6768801Y-16329107D01*
X6768801Y-16329107D02*
X6749753Y-16319584D01*
X6749753Y-16319584D02*
X6740229Y-16310060D01*
X7044991Y-16129107D02*
X6949753Y-16129107D01*
X6949753Y-16129107D02*
X6940229Y-16224346D01*
X6940229Y-16224346D02*
X6949753Y-16214822D01*
X6949753Y-16214822D02*
X6968801Y-16205298D01*
X6968801Y-16205298D02*
X7016420Y-16205298D01*
X7016420Y-16205298D02*
X7035468Y-16214822D01*
X7035468Y-16214822D02*
X7044991Y-16224346D01*
X7044991Y-16224346D02*
X7054515Y-16243393D01*
X7054515Y-16243393D02*
X7054515Y-16291012D01*
X7054515Y-16291012D02*
X7044991Y-16310060D01*
X7044991Y-16310060D02*
X7035468Y-16319584D01*
X7035468Y-16319584D02*
X7016420Y-16329107D01*
X7016420Y-16329107D02*
X6968801Y-16329107D01*
X6968801Y-16329107D02*
X6949753Y-16319584D01*
X6949753Y-16319584D02*
X6940229Y-16310060D01*
X7225944Y-16195774D02*
X7225944Y-16329107D01*
X7178325Y-16119584D02*
X7130706Y-16262441D01*
X7130706Y-16262441D02*
X7254515Y-16262441D01*
X7321182Y-16129107D02*
X7321182Y-16167203D01*
X7397372Y-16129107D02*
X7397372Y-16167203D01*
X7692611Y-16405298D02*
X7683087Y-16395774D01*
X7683087Y-16395774D02*
X7664039Y-16367203D01*
X7664039Y-16367203D02*
X7654515Y-16348155D01*
X7654515Y-16348155D02*
X7644991Y-16319584D01*
X7644991Y-16319584D02*
X7635468Y-16271965D01*
X7635468Y-16271965D02*
X7635468Y-16233869D01*
X7635468Y-16233869D02*
X7644991Y-16186250D01*
X7644991Y-16186250D02*
X7654515Y-16157679D01*
X7654515Y-16157679D02*
X7664039Y-16138631D01*
X7664039Y-16138631D02*
X7683087Y-16110060D01*
X7683087Y-16110060D02*
X7692611Y-16100536D01*
X7759277Y-16148155D02*
X7768801Y-16138631D01*
X7768801Y-16138631D02*
X7787849Y-16129107D01*
X7787849Y-16129107D02*
X7835468Y-16129107D01*
X7835468Y-16129107D02*
X7854515Y-16138631D01*
X7854515Y-16138631D02*
X7864039Y-16148155D01*
X7864039Y-16148155D02*
X7873563Y-16167203D01*
X7873563Y-16167203D02*
X7873563Y-16186250D01*
X7873563Y-16186250D02*
X7864039Y-16214822D01*
X7864039Y-16214822D02*
X7749753Y-16329107D01*
X7749753Y-16329107D02*
X7873563Y-16329107D01*
X8111658Y-16329107D02*
X8111658Y-16129107D01*
X8197372Y-16329107D02*
X8197372Y-16224346D01*
X8197372Y-16224346D02*
X8187849Y-16205298D01*
X8187849Y-16205298D02*
X8168801Y-16195774D01*
X8168801Y-16195774D02*
X8140230Y-16195774D01*
X8140230Y-16195774D02*
X8121182Y-16205298D01*
X8121182Y-16205298D02*
X8111658Y-16214822D01*
X8321182Y-16329107D02*
X8302134Y-16319584D01*
X8302134Y-16319584D02*
X8292611Y-16310060D01*
X8292611Y-16310060D02*
X8283087Y-16291012D01*
X8283087Y-16291012D02*
X8283087Y-16233869D01*
X8283087Y-16233869D02*
X8292611Y-16214822D01*
X8292611Y-16214822D02*
X8302134Y-16205298D01*
X8302134Y-16205298D02*
X8321182Y-16195774D01*
X8321182Y-16195774D02*
X8349753Y-16195774D01*
X8349753Y-16195774D02*
X8368801Y-16205298D01*
X8368801Y-16205298D02*
X8378325Y-16214822D01*
X8378325Y-16214822D02*
X8387849Y-16233869D01*
X8387849Y-16233869D02*
X8387849Y-16291012D01*
X8387849Y-16291012D02*
X8378325Y-16310060D01*
X8378325Y-16310060D02*
X8368801Y-16319584D01*
X8368801Y-16319584D02*
X8349753Y-16329107D01*
X8349753Y-16329107D02*
X8321182Y-16329107D01*
X8502134Y-16329107D02*
X8483087Y-16319584D01*
X8483087Y-16319584D02*
X8473563Y-16300536D01*
X8473563Y-16300536D02*
X8473563Y-16129107D01*
X8654515Y-16319584D02*
X8635468Y-16329107D01*
X8635468Y-16329107D02*
X8597373Y-16329107D01*
X8597373Y-16329107D02*
X8578325Y-16319584D01*
X8578325Y-16319584D02*
X8568801Y-16300536D01*
X8568801Y-16300536D02*
X8568801Y-16224346D01*
X8568801Y-16224346D02*
X8578325Y-16205298D01*
X8578325Y-16205298D02*
X8597373Y-16195774D01*
X8597373Y-16195774D02*
X8635468Y-16195774D01*
X8635468Y-16195774D02*
X8654515Y-16205298D01*
X8654515Y-16205298D02*
X8664039Y-16224346D01*
X8664039Y-16224346D02*
X8664039Y-16243393D01*
X8664039Y-16243393D02*
X8568801Y-16262441D01*
X8740230Y-16319584D02*
X8759277Y-16329107D01*
X8759277Y-16329107D02*
X8797373Y-16329107D01*
X8797373Y-16329107D02*
X8816420Y-16319584D01*
X8816420Y-16319584D02*
X8825944Y-16300536D01*
X8825944Y-16300536D02*
X8825944Y-16291012D01*
X8825944Y-16291012D02*
X8816420Y-16271965D01*
X8816420Y-16271965D02*
X8797373Y-16262441D01*
X8797373Y-16262441D02*
X8768801Y-16262441D01*
X8768801Y-16262441D02*
X8749754Y-16252917D01*
X8749754Y-16252917D02*
X8740230Y-16233869D01*
X8740230Y-16233869D02*
X8740230Y-16224346D01*
X8740230Y-16224346D02*
X8749754Y-16205298D01*
X8749754Y-16205298D02*
X8768801Y-16195774D01*
X8768801Y-16195774D02*
X8797373Y-16195774D01*
X8797373Y-16195774D02*
X8816420Y-16205298D01*
X8892611Y-16405298D02*
X8902135Y-16395774D01*
X8902135Y-16395774D02*
X8921182Y-16367203D01*
X8921182Y-16367203D02*
X8930706Y-16348155D01*
X8930706Y-16348155D02*
X8940230Y-16319584D01*
X8940230Y-16319584D02*
X8949754Y-16271965D01*
X8949754Y-16271965D02*
X8949754Y-16233869D01*
X8949754Y-16233869D02*
X8940230Y-16186250D01*
X8940230Y-16186250D02*
X8930706Y-16157679D01*
X8930706Y-16157679D02*
X8921182Y-16138631D01*
X8921182Y-16138631D02*
X8902135Y-16110060D01*
X8902135Y-16110060D02*
X8892611Y-16100536D01*
X9254516Y-16405298D02*
X9244992Y-16395774D01*
X9244992Y-16395774D02*
X9225944Y-16367203D01*
X9225944Y-16367203D02*
X9216420Y-16348155D01*
X9216420Y-16348155D02*
X9206896Y-16319584D01*
X9206896Y-16319584D02*
X9197373Y-16271965D01*
X9197373Y-16271965D02*
X9197373Y-16233869D01*
X9197373Y-16233869D02*
X9206896Y-16186250D01*
X9206896Y-16186250D02*
X9216420Y-16157679D01*
X9216420Y-16157679D02*
X9225944Y-16138631D01*
X9225944Y-16138631D02*
X9244992Y-16110060D01*
X9244992Y-16110060D02*
X9254516Y-16100536D01*
X9330706Y-16195774D02*
X9330706Y-16329107D01*
X9330706Y-16214822D02*
X9340230Y-16205298D01*
X9340230Y-16205298D02*
X9359277Y-16195774D01*
X9359277Y-16195774D02*
X9387849Y-16195774D01*
X9387849Y-16195774D02*
X9406896Y-16205298D01*
X9406896Y-16205298D02*
X9416420Y-16224346D01*
X9416420Y-16224346D02*
X9416420Y-16329107D01*
X9540230Y-16329107D02*
X9521182Y-16319584D01*
X9521182Y-16319584D02*
X9511658Y-16310060D01*
X9511658Y-16310060D02*
X9502135Y-16291012D01*
X9502135Y-16291012D02*
X9502135Y-16233869D01*
X9502135Y-16233869D02*
X9511658Y-16214822D01*
X9511658Y-16214822D02*
X9521182Y-16205298D01*
X9521182Y-16205298D02*
X9540230Y-16195774D01*
X9540230Y-16195774D02*
X9568801Y-16195774D01*
X9568801Y-16195774D02*
X9587849Y-16205298D01*
X9587849Y-16205298D02*
X9597373Y-16214822D01*
X9597373Y-16214822D02*
X9606896Y-16233869D01*
X9606896Y-16233869D02*
X9606896Y-16291012D01*
X9606896Y-16291012D02*
X9597373Y-16310060D01*
X9597373Y-16310060D02*
X9587849Y-16319584D01*
X9587849Y-16319584D02*
X9568801Y-16329107D01*
X9568801Y-16329107D02*
X9540230Y-16329107D01*
X9664039Y-16195774D02*
X9740230Y-16195774D01*
X9692611Y-16129107D02*
X9692611Y-16300536D01*
X9692611Y-16300536D02*
X9702135Y-16319584D01*
X9702135Y-16319584D02*
X9721182Y-16329107D01*
X9721182Y-16329107D02*
X9740230Y-16329107D01*
X9959277Y-16195774D02*
X9959277Y-16395774D01*
X9959277Y-16205298D02*
X9978325Y-16195774D01*
X9978325Y-16195774D02*
X10016420Y-16195774D01*
X10016420Y-16195774D02*
X10035468Y-16205298D01*
X10035468Y-16205298D02*
X10044992Y-16214822D01*
X10044992Y-16214822D02*
X10054516Y-16233869D01*
X10054516Y-16233869D02*
X10054516Y-16291012D01*
X10054516Y-16291012D02*
X10044992Y-16310060D01*
X10044992Y-16310060D02*
X10035468Y-16319584D01*
X10035468Y-16319584D02*
X10016420Y-16329107D01*
X10016420Y-16329107D02*
X9978325Y-16329107D01*
X9978325Y-16329107D02*
X9959277Y-16319584D01*
X10168801Y-16329107D02*
X10149754Y-16319584D01*
X10149754Y-16319584D02*
X10140230Y-16300536D01*
X10140230Y-16300536D02*
X10140230Y-16129107D01*
X10330706Y-16329107D02*
X10330706Y-16224346D01*
X10330706Y-16224346D02*
X10321182Y-16205298D01*
X10321182Y-16205298D02*
X10302135Y-16195774D01*
X10302135Y-16195774D02*
X10264039Y-16195774D01*
X10264039Y-16195774D02*
X10244992Y-16205298D01*
X10330706Y-16319584D02*
X10311658Y-16329107D01*
X10311658Y-16329107D02*
X10264039Y-16329107D01*
X10264039Y-16329107D02*
X10244992Y-16319584D01*
X10244992Y-16319584D02*
X10235468Y-16300536D01*
X10235468Y-16300536D02*
X10235468Y-16281488D01*
X10235468Y-16281488D02*
X10244992Y-16262441D01*
X10244992Y-16262441D02*
X10264039Y-16252917D01*
X10264039Y-16252917D02*
X10311658Y-16252917D01*
X10311658Y-16252917D02*
X10330706Y-16243393D01*
X10397373Y-16195774D02*
X10473563Y-16195774D01*
X10425944Y-16129107D02*
X10425944Y-16300536D01*
X10425944Y-16300536D02*
X10435468Y-16319584D01*
X10435468Y-16319584D02*
X10454516Y-16329107D01*
X10454516Y-16329107D02*
X10473563Y-16329107D01*
X10616420Y-16319584D02*
X10597373Y-16329107D01*
X10597373Y-16329107D02*
X10559277Y-16329107D01*
X10559277Y-16329107D02*
X10540230Y-16319584D01*
X10540230Y-16319584D02*
X10530706Y-16300536D01*
X10530706Y-16300536D02*
X10530706Y-16224346D01*
X10530706Y-16224346D02*
X10540230Y-16205298D01*
X10540230Y-16205298D02*
X10559277Y-16195774D01*
X10559277Y-16195774D02*
X10597373Y-16195774D01*
X10597373Y-16195774D02*
X10616420Y-16205298D01*
X10616420Y-16205298D02*
X10625944Y-16224346D01*
X10625944Y-16224346D02*
X10625944Y-16243393D01*
X10625944Y-16243393D02*
X10530706Y-16262441D01*
X10797373Y-16329107D02*
X10797373Y-16129107D01*
X10797373Y-16319584D02*
X10778325Y-16329107D01*
X10778325Y-16329107D02*
X10740230Y-16329107D01*
X10740230Y-16329107D02*
X10721182Y-16319584D01*
X10721182Y-16319584D02*
X10711658Y-16310060D01*
X10711658Y-16310060D02*
X10702135Y-16291012D01*
X10702135Y-16291012D02*
X10702135Y-16233869D01*
X10702135Y-16233869D02*
X10711658Y-16214822D01*
X10711658Y-16214822D02*
X10721182Y-16205298D01*
X10721182Y-16205298D02*
X10740230Y-16195774D01*
X10740230Y-16195774D02*
X10778325Y-16195774D01*
X10778325Y-16195774D02*
X10797373Y-16205298D01*
X10873563Y-16405298D02*
X10883087Y-16395774D01*
X10883087Y-16395774D02*
X10902135Y-16367203D01*
X10902135Y-16367203D02*
X10911658Y-16348155D01*
X10911658Y-16348155D02*
X10921182Y-16319584D01*
X10921182Y-16319584D02*
X10930706Y-16271965D01*
X10930706Y-16271965D02*
X10930706Y-16233869D01*
X10930706Y-16233869D02*
X10921182Y-16186250D01*
X10921182Y-16186250D02*
X10911658Y-16157679D01*
X10911658Y-16157679D02*
X10902135Y-16138631D01*
X10902135Y-16138631D02*
X10883087Y-16110060D01*
X10883087Y-16110060D02*
X10873563Y-16100536D01*
D13*
X4117548Y-16501624D02*
G75*
G03*
X3947368Y-16501624I-85090J0D01*
G01*
X3947368Y-16501624D02*
G75*
G03*
X4117548Y-16501624I85090J0D01*
G01*
D11*
X4483086Y-16593107D02*
X4368801Y-16593107D01*
X4425944Y-16593107D02*
X4425944Y-16393107D01*
X4425944Y-16393107D02*
X4406896Y-16421679D01*
X4406896Y-16421679D02*
X4387848Y-16440726D01*
X4387848Y-16440726D02*
X4368801Y-16450250D01*
X4568801Y-16574060D02*
X4578325Y-16583584D01*
X4578325Y-16583584D02*
X4568801Y-16593107D01*
X4568801Y-16593107D02*
X4559277Y-16583584D01*
X4559277Y-16583584D02*
X4568801Y-16574060D01*
X4568801Y-16574060D02*
X4568801Y-16593107D01*
X4644991Y-16393107D02*
X4778325Y-16393107D01*
X4778325Y-16393107D02*
X4692610Y-16593107D01*
X4892610Y-16393107D02*
X4911658Y-16393107D01*
X4911658Y-16393107D02*
X4930706Y-16402631D01*
X4930706Y-16402631D02*
X4940229Y-16412155D01*
X4940229Y-16412155D02*
X4949753Y-16431203D01*
X4949753Y-16431203D02*
X4959277Y-16469298D01*
X4959277Y-16469298D02*
X4959277Y-16516917D01*
X4959277Y-16516917D02*
X4949753Y-16555012D01*
X4949753Y-16555012D02*
X4940229Y-16574060D01*
X4940229Y-16574060D02*
X4930706Y-16583584D01*
X4930706Y-16583584D02*
X4911658Y-16593107D01*
X4911658Y-16593107D02*
X4892610Y-16593107D01*
X4892610Y-16593107D02*
X4873563Y-16583584D01*
X4873563Y-16583584D02*
X4864039Y-16574060D01*
X4864039Y-16574060D02*
X4854515Y-16555012D01*
X4854515Y-16555012D02*
X4844991Y-16516917D01*
X4844991Y-16516917D02*
X4844991Y-16469298D01*
X4844991Y-16469298D02*
X4854515Y-16431203D01*
X4854515Y-16431203D02*
X4864039Y-16412155D01*
X4864039Y-16412155D02*
X4873563Y-16402631D01*
X4873563Y-16402631D02*
X4892610Y-16393107D01*
X5035467Y-16412155D02*
X5044991Y-16402631D01*
X5044991Y-16402631D02*
X5064039Y-16393107D01*
X5064039Y-16393107D02*
X5111658Y-16393107D01*
X5111658Y-16393107D02*
X5130706Y-16402631D01*
X5130706Y-16402631D02*
X5140229Y-16412155D01*
X5140229Y-16412155D02*
X5149753Y-16431203D01*
X5149753Y-16431203D02*
X5149753Y-16450250D01*
X5149753Y-16450250D02*
X5140229Y-16478822D01*
X5140229Y-16478822D02*
X5025944Y-16593107D01*
X5025944Y-16593107D02*
X5149753Y-16593107D01*
X5235467Y-16593107D02*
X5235467Y-16459774D01*
X5235467Y-16478822D02*
X5244991Y-16469298D01*
X5244991Y-16469298D02*
X5264039Y-16459774D01*
X5264039Y-16459774D02*
X5292610Y-16459774D01*
X5292610Y-16459774D02*
X5311658Y-16469298D01*
X5311658Y-16469298D02*
X5321182Y-16488346D01*
X5321182Y-16488346D02*
X5321182Y-16593107D01*
X5321182Y-16488346D02*
X5330706Y-16469298D01*
X5330706Y-16469298D02*
X5349753Y-16459774D01*
X5349753Y-16459774D02*
X5378325Y-16459774D01*
X5378325Y-16459774D02*
X5397372Y-16469298D01*
X5397372Y-16469298D02*
X5406896Y-16488346D01*
X5406896Y-16488346D02*
X5406896Y-16593107D01*
X5502134Y-16593107D02*
X5502134Y-16459774D01*
X5502134Y-16478822D02*
X5511658Y-16469298D01*
X5511658Y-16469298D02*
X5530706Y-16459774D01*
X5530706Y-16459774D02*
X5559277Y-16459774D01*
X5559277Y-16459774D02*
X5578325Y-16469298D01*
X5578325Y-16469298D02*
X5587848Y-16488346D01*
X5587848Y-16488346D02*
X5587848Y-16593107D01*
X5587848Y-16488346D02*
X5597372Y-16469298D01*
X5597372Y-16469298D02*
X5616420Y-16459774D01*
X5616420Y-16459774D02*
X5644991Y-16459774D01*
X5644991Y-16459774D02*
X5664039Y-16469298D01*
X5664039Y-16469298D02*
X5673563Y-16488346D01*
X5673563Y-16488346D02*
X5673563Y-16593107D01*
X6064039Y-16383584D02*
X5892610Y-16640726D01*
X6321182Y-16393107D02*
X6340229Y-16393107D01*
X6340229Y-16393107D02*
X6359277Y-16402631D01*
X6359277Y-16402631D02*
X6368801Y-16412155D01*
X6368801Y-16412155D02*
X6378325Y-16431203D01*
X6378325Y-16431203D02*
X6387848Y-16469298D01*
X6387848Y-16469298D02*
X6387848Y-16516917D01*
X6387848Y-16516917D02*
X6378325Y-16555012D01*
X6378325Y-16555012D02*
X6368801Y-16574060D01*
X6368801Y-16574060D02*
X6359277Y-16583584D01*
X6359277Y-16583584D02*
X6340229Y-16593107D01*
X6340229Y-16593107D02*
X6321182Y-16593107D01*
X6321182Y-16593107D02*
X6302134Y-16583584D01*
X6302134Y-16583584D02*
X6292610Y-16574060D01*
X6292610Y-16574060D02*
X6283087Y-16555012D01*
X6283087Y-16555012D02*
X6273563Y-16516917D01*
X6273563Y-16516917D02*
X6273563Y-16469298D01*
X6273563Y-16469298D02*
X6283087Y-16431203D01*
X6283087Y-16431203D02*
X6292610Y-16412155D01*
X6292610Y-16412155D02*
X6302134Y-16402631D01*
X6302134Y-16402631D02*
X6321182Y-16393107D01*
X6473563Y-16574060D02*
X6483087Y-16583584D01*
X6483087Y-16583584D02*
X6473563Y-16593107D01*
X6473563Y-16593107D02*
X6464039Y-16583584D01*
X6464039Y-16583584D02*
X6473563Y-16574060D01*
X6473563Y-16574060D02*
X6473563Y-16593107D01*
X6606896Y-16393107D02*
X6625944Y-16393107D01*
X6625944Y-16393107D02*
X6644991Y-16402631D01*
X6644991Y-16402631D02*
X6654515Y-16412155D01*
X6654515Y-16412155D02*
X6664039Y-16431203D01*
X6664039Y-16431203D02*
X6673563Y-16469298D01*
X6673563Y-16469298D02*
X6673563Y-16516917D01*
X6673563Y-16516917D02*
X6664039Y-16555012D01*
X6664039Y-16555012D02*
X6654515Y-16574060D01*
X6654515Y-16574060D02*
X6644991Y-16583584D01*
X6644991Y-16583584D02*
X6625944Y-16593107D01*
X6625944Y-16593107D02*
X6606896Y-16593107D01*
X6606896Y-16593107D02*
X6587848Y-16583584D01*
X6587848Y-16583584D02*
X6578325Y-16574060D01*
X6578325Y-16574060D02*
X6568801Y-16555012D01*
X6568801Y-16555012D02*
X6559277Y-16516917D01*
X6559277Y-16516917D02*
X6559277Y-16469298D01*
X6559277Y-16469298D02*
X6568801Y-16431203D01*
X6568801Y-16431203D02*
X6578325Y-16412155D01*
X6578325Y-16412155D02*
X6587848Y-16402631D01*
X6587848Y-16402631D02*
X6606896Y-16393107D01*
X6844991Y-16393107D02*
X6806896Y-16393107D01*
X6806896Y-16393107D02*
X6787848Y-16402631D01*
X6787848Y-16402631D02*
X6778325Y-16412155D01*
X6778325Y-16412155D02*
X6759277Y-16440726D01*
X6759277Y-16440726D02*
X6749753Y-16478822D01*
X6749753Y-16478822D02*
X6749753Y-16555012D01*
X6749753Y-16555012D02*
X6759277Y-16574060D01*
X6759277Y-16574060D02*
X6768801Y-16583584D01*
X6768801Y-16583584D02*
X6787848Y-16593107D01*
X6787848Y-16593107D02*
X6825944Y-16593107D01*
X6825944Y-16593107D02*
X6844991Y-16583584D01*
X6844991Y-16583584D02*
X6854515Y-16574060D01*
X6854515Y-16574060D02*
X6864039Y-16555012D01*
X6864039Y-16555012D02*
X6864039Y-16507393D01*
X6864039Y-16507393D02*
X6854515Y-16488346D01*
X6854515Y-16488346D02*
X6844991Y-16478822D01*
X6844991Y-16478822D02*
X6825944Y-16469298D01*
X6825944Y-16469298D02*
X6787848Y-16469298D01*
X6787848Y-16469298D02*
X6768801Y-16478822D01*
X6768801Y-16478822D02*
X6759277Y-16488346D01*
X6759277Y-16488346D02*
X6749753Y-16507393D01*
X6930706Y-16393107D02*
X7064039Y-16393107D01*
X7064039Y-16393107D02*
X6978325Y-16593107D01*
X7178325Y-16393107D02*
X7197372Y-16393107D01*
X7197372Y-16393107D02*
X7216420Y-16402631D01*
X7216420Y-16402631D02*
X7225944Y-16412155D01*
X7225944Y-16412155D02*
X7235468Y-16431203D01*
X7235468Y-16431203D02*
X7244991Y-16469298D01*
X7244991Y-16469298D02*
X7244991Y-16516917D01*
X7244991Y-16516917D02*
X7235468Y-16555012D01*
X7235468Y-16555012D02*
X7225944Y-16574060D01*
X7225944Y-16574060D02*
X7216420Y-16583584D01*
X7216420Y-16583584D02*
X7197372Y-16593107D01*
X7197372Y-16593107D02*
X7178325Y-16593107D01*
X7178325Y-16593107D02*
X7159277Y-16583584D01*
X7159277Y-16583584D02*
X7149753Y-16574060D01*
X7149753Y-16574060D02*
X7140229Y-16555012D01*
X7140229Y-16555012D02*
X7130706Y-16516917D01*
X7130706Y-16516917D02*
X7130706Y-16469298D01*
X7130706Y-16469298D02*
X7140229Y-16431203D01*
X7140229Y-16431203D02*
X7149753Y-16412155D01*
X7149753Y-16412155D02*
X7159277Y-16402631D01*
X7159277Y-16402631D02*
X7178325Y-16393107D01*
X7321182Y-16393107D02*
X7321182Y-16431203D01*
X7397372Y-16393107D02*
X7397372Y-16431203D01*
X7692611Y-16669298D02*
X7683087Y-16659774D01*
X7683087Y-16659774D02*
X7664039Y-16631203D01*
X7664039Y-16631203D02*
X7654515Y-16612155D01*
X7654515Y-16612155D02*
X7644991Y-16583584D01*
X7644991Y-16583584D02*
X7635468Y-16535965D01*
X7635468Y-16535965D02*
X7635468Y-16497869D01*
X7635468Y-16497869D02*
X7644991Y-16450250D01*
X7644991Y-16450250D02*
X7654515Y-16421679D01*
X7654515Y-16421679D02*
X7664039Y-16402631D01*
X7664039Y-16402631D02*
X7683087Y-16374060D01*
X7683087Y-16374060D02*
X7692611Y-16364536D01*
X7864039Y-16393107D02*
X7768801Y-16393107D01*
X7768801Y-16393107D02*
X7759277Y-16488346D01*
X7759277Y-16488346D02*
X7768801Y-16478822D01*
X7768801Y-16478822D02*
X7787849Y-16469298D01*
X7787849Y-16469298D02*
X7835468Y-16469298D01*
X7835468Y-16469298D02*
X7854515Y-16478822D01*
X7854515Y-16478822D02*
X7864039Y-16488346D01*
X7864039Y-16488346D02*
X7873563Y-16507393D01*
X7873563Y-16507393D02*
X7873563Y-16555012D01*
X7873563Y-16555012D02*
X7864039Y-16574060D01*
X7864039Y-16574060D02*
X7854515Y-16583584D01*
X7854515Y-16583584D02*
X7835468Y-16593107D01*
X7835468Y-16593107D02*
X7787849Y-16593107D01*
X7787849Y-16593107D02*
X7768801Y-16583584D01*
X7768801Y-16583584D02*
X7759277Y-16574060D01*
X8044991Y-16459774D02*
X8044991Y-16593107D01*
X7997372Y-16383584D02*
X7949753Y-16526441D01*
X7949753Y-16526441D02*
X8073563Y-16526441D01*
X8302134Y-16593107D02*
X8302134Y-16393107D01*
X8387849Y-16593107D02*
X8387849Y-16488346D01*
X8387849Y-16488346D02*
X8378325Y-16469298D01*
X8378325Y-16469298D02*
X8359277Y-16459774D01*
X8359277Y-16459774D02*
X8330706Y-16459774D01*
X8330706Y-16459774D02*
X8311658Y-16469298D01*
X8311658Y-16469298D02*
X8302134Y-16478822D01*
X8511658Y-16593107D02*
X8492611Y-16583584D01*
X8492611Y-16583584D02*
X8483087Y-16574060D01*
X8483087Y-16574060D02*
X8473563Y-16555012D01*
X8473563Y-16555012D02*
X8473563Y-16497869D01*
X8473563Y-16497869D02*
X8483087Y-16478822D01*
X8483087Y-16478822D02*
X8492611Y-16469298D01*
X8492611Y-16469298D02*
X8511658Y-16459774D01*
X8511658Y-16459774D02*
X8540230Y-16459774D01*
X8540230Y-16459774D02*
X8559277Y-16469298D01*
X8559277Y-16469298D02*
X8568801Y-16478822D01*
X8568801Y-16478822D02*
X8578325Y-16497869D01*
X8578325Y-16497869D02*
X8578325Y-16555012D01*
X8578325Y-16555012D02*
X8568801Y-16574060D01*
X8568801Y-16574060D02*
X8559277Y-16583584D01*
X8559277Y-16583584D02*
X8540230Y-16593107D01*
X8540230Y-16593107D02*
X8511658Y-16593107D01*
X8692611Y-16593107D02*
X8673563Y-16583584D01*
X8673563Y-16583584D02*
X8664039Y-16564536D01*
X8664039Y-16564536D02*
X8664039Y-16393107D01*
X8844992Y-16583584D02*
X8825944Y-16593107D01*
X8825944Y-16593107D02*
X8787849Y-16593107D01*
X8787849Y-16593107D02*
X8768801Y-16583584D01*
X8768801Y-16583584D02*
X8759277Y-16564536D01*
X8759277Y-16564536D02*
X8759277Y-16488346D01*
X8759277Y-16488346D02*
X8768801Y-16469298D01*
X8768801Y-16469298D02*
X8787849Y-16459774D01*
X8787849Y-16459774D02*
X8825944Y-16459774D01*
X8825944Y-16459774D02*
X8844992Y-16469298D01*
X8844992Y-16469298D02*
X8854515Y-16488346D01*
X8854515Y-16488346D02*
X8854515Y-16507393D01*
X8854515Y-16507393D02*
X8759277Y-16526441D01*
X8930706Y-16583584D02*
X8949754Y-16593107D01*
X8949754Y-16593107D02*
X8987849Y-16593107D01*
X8987849Y-16593107D02*
X9006896Y-16583584D01*
X9006896Y-16583584D02*
X9016420Y-16564536D01*
X9016420Y-16564536D02*
X9016420Y-16555012D01*
X9016420Y-16555012D02*
X9006896Y-16535965D01*
X9006896Y-16535965D02*
X8987849Y-16526441D01*
X8987849Y-16526441D02*
X8959277Y-16526441D01*
X8959277Y-16526441D02*
X8940230Y-16516917D01*
X8940230Y-16516917D02*
X8930706Y-16497869D01*
X8930706Y-16497869D02*
X8930706Y-16488346D01*
X8930706Y-16488346D02*
X8940230Y-16469298D01*
X8940230Y-16469298D02*
X8959277Y-16459774D01*
X8959277Y-16459774D02*
X8987849Y-16459774D01*
X8987849Y-16459774D02*
X9006896Y-16469298D01*
X9083087Y-16669298D02*
X9092611Y-16659774D01*
X9092611Y-16659774D02*
X9111658Y-16631203D01*
X9111658Y-16631203D02*
X9121182Y-16612155D01*
X9121182Y-16612155D02*
X9130706Y-16583584D01*
X9130706Y-16583584D02*
X9140230Y-16535965D01*
X9140230Y-16535965D02*
X9140230Y-16497869D01*
X9140230Y-16497869D02*
X9130706Y-16450250D01*
X9130706Y-16450250D02*
X9121182Y-16421679D01*
X9121182Y-16421679D02*
X9111658Y-16402631D01*
X9111658Y-16402631D02*
X9092611Y-16374060D01*
X9092611Y-16374060D02*
X9083087Y-16364536D01*
X9444992Y-16669298D02*
X9435468Y-16659774D01*
X9435468Y-16659774D02*
X9416420Y-16631203D01*
X9416420Y-16631203D02*
X9406896Y-16612155D01*
X9406896Y-16612155D02*
X9397373Y-16583584D01*
X9397373Y-16583584D02*
X9387849Y-16535965D01*
X9387849Y-16535965D02*
X9387849Y-16497869D01*
X9387849Y-16497869D02*
X9397373Y-16450250D01*
X9397373Y-16450250D02*
X9406896Y-16421679D01*
X9406896Y-16421679D02*
X9416420Y-16402631D01*
X9416420Y-16402631D02*
X9435468Y-16374060D01*
X9435468Y-16374060D02*
X9444992Y-16364536D01*
X9521182Y-16459774D02*
X9521182Y-16593107D01*
X9521182Y-16478822D02*
X9530706Y-16469298D01*
X9530706Y-16469298D02*
X9549754Y-16459774D01*
X9549754Y-16459774D02*
X9578325Y-16459774D01*
X9578325Y-16459774D02*
X9597373Y-16469298D01*
X9597373Y-16469298D02*
X9606896Y-16488346D01*
X9606896Y-16488346D02*
X9606896Y-16593107D01*
X9730706Y-16593107D02*
X9711658Y-16583584D01*
X9711658Y-16583584D02*
X9702135Y-16574060D01*
X9702135Y-16574060D02*
X9692611Y-16555012D01*
X9692611Y-16555012D02*
X9692611Y-16497869D01*
X9692611Y-16497869D02*
X9702135Y-16478822D01*
X9702135Y-16478822D02*
X9711658Y-16469298D01*
X9711658Y-16469298D02*
X9730706Y-16459774D01*
X9730706Y-16459774D02*
X9759277Y-16459774D01*
X9759277Y-16459774D02*
X9778325Y-16469298D01*
X9778325Y-16469298D02*
X9787849Y-16478822D01*
X9787849Y-16478822D02*
X9797373Y-16497869D01*
X9797373Y-16497869D02*
X9797373Y-16555012D01*
X9797373Y-16555012D02*
X9787849Y-16574060D01*
X9787849Y-16574060D02*
X9778325Y-16583584D01*
X9778325Y-16583584D02*
X9759277Y-16593107D01*
X9759277Y-16593107D02*
X9730706Y-16593107D01*
X9854516Y-16459774D02*
X9930706Y-16459774D01*
X9883087Y-16393107D02*
X9883087Y-16564536D01*
X9883087Y-16564536D02*
X9892611Y-16583584D01*
X9892611Y-16583584D02*
X9911658Y-16593107D01*
X9911658Y-16593107D02*
X9930706Y-16593107D01*
X10149754Y-16459774D02*
X10149754Y-16659774D01*
X10149754Y-16469298D02*
X10168801Y-16459774D01*
X10168801Y-16459774D02*
X10206897Y-16459774D01*
X10206897Y-16459774D02*
X10225944Y-16469298D01*
X10225944Y-16469298D02*
X10235468Y-16478822D01*
X10235468Y-16478822D02*
X10244992Y-16497869D01*
X10244992Y-16497869D02*
X10244992Y-16555012D01*
X10244992Y-16555012D02*
X10235468Y-16574060D01*
X10235468Y-16574060D02*
X10225944Y-16583584D01*
X10225944Y-16583584D02*
X10206897Y-16593107D01*
X10206897Y-16593107D02*
X10168801Y-16593107D01*
X10168801Y-16593107D02*
X10149754Y-16583584D01*
X10359277Y-16593107D02*
X10340230Y-16583584D01*
X10340230Y-16583584D02*
X10330706Y-16564536D01*
X10330706Y-16564536D02*
X10330706Y-16393107D01*
X10521182Y-16593107D02*
X10521182Y-16488346D01*
X10521182Y-16488346D02*
X10511658Y-16469298D01*
X10511658Y-16469298D02*
X10492611Y-16459774D01*
X10492611Y-16459774D02*
X10454516Y-16459774D01*
X10454516Y-16459774D02*
X10435468Y-16469298D01*
X10521182Y-16583584D02*
X10502135Y-16593107D01*
X10502135Y-16593107D02*
X10454516Y-16593107D01*
X10454516Y-16593107D02*
X10435468Y-16583584D01*
X10435468Y-16583584D02*
X10425944Y-16564536D01*
X10425944Y-16564536D02*
X10425944Y-16545488D01*
X10425944Y-16545488D02*
X10435468Y-16526441D01*
X10435468Y-16526441D02*
X10454516Y-16516917D01*
X10454516Y-16516917D02*
X10502135Y-16516917D01*
X10502135Y-16516917D02*
X10521182Y-16507393D01*
X10587849Y-16459774D02*
X10664039Y-16459774D01*
X10616420Y-16393107D02*
X10616420Y-16564536D01*
X10616420Y-16564536D02*
X10625944Y-16583584D01*
X10625944Y-16583584D02*
X10644992Y-16593107D01*
X10644992Y-16593107D02*
X10664039Y-16593107D01*
X10806897Y-16583584D02*
X10787849Y-16593107D01*
X10787849Y-16593107D02*
X10749754Y-16593107D01*
X10749754Y-16593107D02*
X10730706Y-16583584D01*
X10730706Y-16583584D02*
X10721182Y-16564536D01*
X10721182Y-16564536D02*
X10721182Y-16488346D01*
X10721182Y-16488346D02*
X10730706Y-16469298D01*
X10730706Y-16469298D02*
X10749754Y-16459774D01*
X10749754Y-16459774D02*
X10787849Y-16459774D01*
X10787849Y-16459774D02*
X10806897Y-16469298D01*
X10806897Y-16469298D02*
X10816420Y-16488346D01*
X10816420Y-16488346D02*
X10816420Y-16507393D01*
X10816420Y-16507393D02*
X10721182Y-16526441D01*
X10987849Y-16593107D02*
X10987849Y-16393107D01*
X10987849Y-16583584D02*
X10968801Y-16593107D01*
X10968801Y-16593107D02*
X10930706Y-16593107D01*
X10930706Y-16593107D02*
X10911658Y-16583584D01*
X10911658Y-16583584D02*
X10902135Y-16574060D01*
X10902135Y-16574060D02*
X10892611Y-16555012D01*
X10892611Y-16555012D02*
X10892611Y-16497869D01*
X10892611Y-16497869D02*
X10902135Y-16478822D01*
X10902135Y-16478822D02*
X10911658Y-16469298D01*
X10911658Y-16469298D02*
X10930706Y-16459774D01*
X10930706Y-16459774D02*
X10968801Y-16459774D01*
X10968801Y-16459774D02*
X10987849Y-16469298D01*
X11064039Y-16669298D02*
X11073563Y-16659774D01*
X11073563Y-16659774D02*
X11092611Y-16631203D01*
X11092611Y-16631203D02*
X11102135Y-16612155D01*
X11102135Y-16612155D02*
X11111658Y-16583584D01*
X11111658Y-16583584D02*
X11121182Y-16535965D01*
X11121182Y-16535965D02*
X11121182Y-16497869D01*
X11121182Y-16497869D02*
X11111658Y-16450250D01*
X11111658Y-16450250D02*
X11102135Y-16421679D01*
X11102135Y-16421679D02*
X11092611Y-16402631D01*
X11092611Y-16402631D02*
X11073563Y-16374060D01*
X11073563Y-16374060D02*
X11064039Y-16364536D01*
X4017548Y-16691804D02*
X4017548Y-16891804D01*
X3917548Y-16791804D02*
X4117548Y-16791804D01*
X4359277Y-16683287D02*
X4483086Y-16683287D01*
X4483086Y-16683287D02*
X4416420Y-16759478D01*
X4416420Y-16759478D02*
X4444991Y-16759478D01*
X4444991Y-16759478D02*
X4464039Y-16769002D01*
X4464039Y-16769002D02*
X4473563Y-16778526D01*
X4473563Y-16778526D02*
X4483086Y-16797573D01*
X4483086Y-16797573D02*
X4483086Y-16845192D01*
X4483086Y-16845192D02*
X4473563Y-16864240D01*
X4473563Y-16864240D02*
X4464039Y-16873764D01*
X4464039Y-16873764D02*
X4444991Y-16883288D01*
X4444991Y-16883288D02*
X4387848Y-16883288D01*
X4387848Y-16883288D02*
X4368801Y-16873764D01*
X4368801Y-16873764D02*
X4359277Y-16864240D01*
X4568801Y-16864240D02*
X4578325Y-16873764D01*
X4578325Y-16873764D02*
X4568801Y-16883288D01*
X4568801Y-16883288D02*
X4559277Y-16873764D01*
X4559277Y-16873764D02*
X4568801Y-16864240D01*
X4568801Y-16864240D02*
X4568801Y-16883288D01*
X4702134Y-16683287D02*
X4721182Y-16683287D01*
X4721182Y-16683287D02*
X4740229Y-16692811D01*
X4740229Y-16692811D02*
X4749753Y-16702335D01*
X4749753Y-16702335D02*
X4759277Y-16721383D01*
X4759277Y-16721383D02*
X4768801Y-16759478D01*
X4768801Y-16759478D02*
X4768801Y-16807097D01*
X4768801Y-16807097D02*
X4759277Y-16845192D01*
X4759277Y-16845192D02*
X4749753Y-16864240D01*
X4749753Y-16864240D02*
X4740229Y-16873764D01*
X4740229Y-16873764D02*
X4721182Y-16883288D01*
X4721182Y-16883288D02*
X4702134Y-16883288D01*
X4702134Y-16883288D02*
X4683086Y-16873764D01*
X4683086Y-16873764D02*
X4673563Y-16864240D01*
X4673563Y-16864240D02*
X4664039Y-16845192D01*
X4664039Y-16845192D02*
X4654515Y-16807097D01*
X4654515Y-16807097D02*
X4654515Y-16759478D01*
X4654515Y-16759478D02*
X4664039Y-16721383D01*
X4664039Y-16721383D02*
X4673563Y-16702335D01*
X4673563Y-16702335D02*
X4683086Y-16692811D01*
X4683086Y-16692811D02*
X4702134Y-16683287D01*
X4892610Y-16683287D02*
X4911658Y-16683287D01*
X4911658Y-16683287D02*
X4930706Y-16692811D01*
X4930706Y-16692811D02*
X4940229Y-16702335D01*
X4940229Y-16702335D02*
X4949753Y-16721383D01*
X4949753Y-16721383D02*
X4959277Y-16759478D01*
X4959277Y-16759478D02*
X4959277Y-16807097D01*
X4959277Y-16807097D02*
X4949753Y-16845192D01*
X4949753Y-16845192D02*
X4940229Y-16864240D01*
X4940229Y-16864240D02*
X4930706Y-16873764D01*
X4930706Y-16873764D02*
X4911658Y-16883288D01*
X4911658Y-16883288D02*
X4892610Y-16883288D01*
X4892610Y-16883288D02*
X4873563Y-16873764D01*
X4873563Y-16873764D02*
X4864039Y-16864240D01*
X4864039Y-16864240D02*
X4854515Y-16845192D01*
X4854515Y-16845192D02*
X4844991Y-16807097D01*
X4844991Y-16807097D02*
X4844991Y-16759478D01*
X4844991Y-16759478D02*
X4854515Y-16721383D01*
X4854515Y-16721383D02*
X4864039Y-16702335D01*
X4864039Y-16702335D02*
X4873563Y-16692811D01*
X4873563Y-16692811D02*
X4892610Y-16683287D01*
X5083086Y-16683287D02*
X5102134Y-16683287D01*
X5102134Y-16683287D02*
X5121182Y-16692811D01*
X5121182Y-16692811D02*
X5130706Y-16702335D01*
X5130706Y-16702335D02*
X5140229Y-16721383D01*
X5140229Y-16721383D02*
X5149753Y-16759478D01*
X5149753Y-16759478D02*
X5149753Y-16807097D01*
X5149753Y-16807097D02*
X5140229Y-16845192D01*
X5140229Y-16845192D02*
X5130706Y-16864240D01*
X5130706Y-16864240D02*
X5121182Y-16873764D01*
X5121182Y-16873764D02*
X5102134Y-16883288D01*
X5102134Y-16883288D02*
X5083086Y-16883288D01*
X5083086Y-16883288D02*
X5064039Y-16873764D01*
X5064039Y-16873764D02*
X5054515Y-16864240D01*
X5054515Y-16864240D02*
X5044991Y-16845192D01*
X5044991Y-16845192D02*
X5035467Y-16807097D01*
X5035467Y-16807097D02*
X5035467Y-16759478D01*
X5035467Y-16759478D02*
X5044991Y-16721383D01*
X5044991Y-16721383D02*
X5054515Y-16702335D01*
X5054515Y-16702335D02*
X5064039Y-16692811D01*
X5064039Y-16692811D02*
X5083086Y-16683287D01*
X5235467Y-16883288D02*
X5235467Y-16749954D01*
X5235467Y-16769002D02*
X5244991Y-16759478D01*
X5244991Y-16759478D02*
X5264039Y-16749954D01*
X5264039Y-16749954D02*
X5292610Y-16749954D01*
X5292610Y-16749954D02*
X5311658Y-16759478D01*
X5311658Y-16759478D02*
X5321182Y-16778526D01*
X5321182Y-16778526D02*
X5321182Y-16883288D01*
X5321182Y-16778526D02*
X5330706Y-16759478D01*
X5330706Y-16759478D02*
X5349753Y-16749954D01*
X5349753Y-16749954D02*
X5378325Y-16749954D01*
X5378325Y-16749954D02*
X5397372Y-16759478D01*
X5397372Y-16759478D02*
X5406896Y-16778526D01*
X5406896Y-16778526D02*
X5406896Y-16883288D01*
X5502134Y-16883288D02*
X5502134Y-16749954D01*
X5502134Y-16769002D02*
X5511658Y-16759478D01*
X5511658Y-16759478D02*
X5530706Y-16749954D01*
X5530706Y-16749954D02*
X5559277Y-16749954D01*
X5559277Y-16749954D02*
X5578325Y-16759478D01*
X5578325Y-16759478D02*
X5587848Y-16778526D01*
X5587848Y-16778526D02*
X5587848Y-16883288D01*
X5587848Y-16778526D02*
X5597372Y-16759478D01*
X5597372Y-16759478D02*
X5616420Y-16749954D01*
X5616420Y-16749954D02*
X5644991Y-16749954D01*
X5644991Y-16749954D02*
X5664039Y-16759478D01*
X5664039Y-16759478D02*
X5673563Y-16778526D01*
X5673563Y-16778526D02*
X5673563Y-16883288D01*
X6064039Y-16673764D02*
X5892610Y-16930907D01*
X6321182Y-16683287D02*
X6340229Y-16683287D01*
X6340229Y-16683287D02*
X6359277Y-16692811D01*
X6359277Y-16692811D02*
X6368801Y-16702335D01*
X6368801Y-16702335D02*
X6378325Y-16721383D01*
X6378325Y-16721383D02*
X6387848Y-16759478D01*
X6387848Y-16759478D02*
X6387848Y-16807097D01*
X6387848Y-16807097D02*
X6378325Y-16845192D01*
X6378325Y-16845192D02*
X6368801Y-16864240D01*
X6368801Y-16864240D02*
X6359277Y-16873764D01*
X6359277Y-16873764D02*
X6340229Y-16883288D01*
X6340229Y-16883288D02*
X6321182Y-16883288D01*
X6321182Y-16883288D02*
X6302134Y-16873764D01*
X6302134Y-16873764D02*
X6292610Y-16864240D01*
X6292610Y-16864240D02*
X6283087Y-16845192D01*
X6283087Y-16845192D02*
X6273563Y-16807097D01*
X6273563Y-16807097D02*
X6273563Y-16759478D01*
X6273563Y-16759478D02*
X6283087Y-16721383D01*
X6283087Y-16721383D02*
X6292610Y-16702335D01*
X6292610Y-16702335D02*
X6302134Y-16692811D01*
X6302134Y-16692811D02*
X6321182Y-16683287D01*
X6473563Y-16864240D02*
X6483087Y-16873764D01*
X6483087Y-16873764D02*
X6473563Y-16883288D01*
X6473563Y-16883288D02*
X6464039Y-16873764D01*
X6464039Y-16873764D02*
X6473563Y-16864240D01*
X6473563Y-16864240D02*
X6473563Y-16883288D01*
X6673563Y-16883288D02*
X6559277Y-16883288D01*
X6616420Y-16883288D02*
X6616420Y-16683287D01*
X6616420Y-16683287D02*
X6597372Y-16711859D01*
X6597372Y-16711859D02*
X6578325Y-16730906D01*
X6578325Y-16730906D02*
X6559277Y-16740430D01*
X6864039Y-16883288D02*
X6749753Y-16883288D01*
X6806896Y-16883288D02*
X6806896Y-16683287D01*
X6806896Y-16683287D02*
X6787848Y-16711859D01*
X6787848Y-16711859D02*
X6768801Y-16730906D01*
X6768801Y-16730906D02*
X6749753Y-16740430D01*
X6978325Y-16769002D02*
X6959277Y-16759478D01*
X6959277Y-16759478D02*
X6949753Y-16749954D01*
X6949753Y-16749954D02*
X6940229Y-16730906D01*
X6940229Y-16730906D02*
X6940229Y-16721383D01*
X6940229Y-16721383D02*
X6949753Y-16702335D01*
X6949753Y-16702335D02*
X6959277Y-16692811D01*
X6959277Y-16692811D02*
X6978325Y-16683287D01*
X6978325Y-16683287D02*
X7016420Y-16683287D01*
X7016420Y-16683287D02*
X7035468Y-16692811D01*
X7035468Y-16692811D02*
X7044991Y-16702335D01*
X7044991Y-16702335D02*
X7054515Y-16721383D01*
X7054515Y-16721383D02*
X7054515Y-16730906D01*
X7054515Y-16730906D02*
X7044991Y-16749954D01*
X7044991Y-16749954D02*
X7035468Y-16759478D01*
X7035468Y-16759478D02*
X7016420Y-16769002D01*
X7016420Y-16769002D02*
X6978325Y-16769002D01*
X6978325Y-16769002D02*
X6959277Y-16778526D01*
X6959277Y-16778526D02*
X6949753Y-16788049D01*
X6949753Y-16788049D02*
X6940229Y-16807097D01*
X6940229Y-16807097D02*
X6940229Y-16845192D01*
X6940229Y-16845192D02*
X6949753Y-16864240D01*
X6949753Y-16864240D02*
X6959277Y-16873764D01*
X6959277Y-16873764D02*
X6978325Y-16883288D01*
X6978325Y-16883288D02*
X7016420Y-16883288D01*
X7016420Y-16883288D02*
X7035468Y-16873764D01*
X7035468Y-16873764D02*
X7044991Y-16864240D01*
X7044991Y-16864240D02*
X7054515Y-16845192D01*
X7054515Y-16845192D02*
X7054515Y-16807097D01*
X7054515Y-16807097D02*
X7044991Y-16788049D01*
X7044991Y-16788049D02*
X7035468Y-16778526D01*
X7035468Y-16778526D02*
X7016420Y-16769002D01*
X7244991Y-16883288D02*
X7130706Y-16883288D01*
X7187848Y-16883288D02*
X7187848Y-16683287D01*
X7187848Y-16683287D02*
X7168801Y-16711859D01*
X7168801Y-16711859D02*
X7149753Y-16730906D01*
X7149753Y-16730906D02*
X7130706Y-16740430D01*
X7321182Y-16683287D02*
X7321182Y-16721383D01*
X7397372Y-16683287D02*
X7397372Y-16721383D01*
X7692611Y-16959478D02*
X7683087Y-16949954D01*
X7683087Y-16949954D02*
X7664039Y-16921383D01*
X7664039Y-16921383D02*
X7654515Y-16902335D01*
X7654515Y-16902335D02*
X7644991Y-16873764D01*
X7644991Y-16873764D02*
X7635468Y-16826145D01*
X7635468Y-16826145D02*
X7635468Y-16788049D01*
X7635468Y-16788049D02*
X7644991Y-16740430D01*
X7644991Y-16740430D02*
X7654515Y-16711859D01*
X7654515Y-16711859D02*
X7664039Y-16692811D01*
X7664039Y-16692811D02*
X7683087Y-16664240D01*
X7683087Y-16664240D02*
X7692611Y-16654716D01*
X7873563Y-16883288D02*
X7759277Y-16883288D01*
X7816420Y-16883288D02*
X7816420Y-16683287D01*
X7816420Y-16683287D02*
X7797372Y-16711859D01*
X7797372Y-16711859D02*
X7778325Y-16730906D01*
X7778325Y-16730906D02*
X7759277Y-16740430D01*
X7997372Y-16683287D02*
X8016420Y-16683287D01*
X8016420Y-16683287D02*
X8035468Y-16692811D01*
X8035468Y-16692811D02*
X8044991Y-16702335D01*
X8044991Y-16702335D02*
X8054515Y-16721383D01*
X8054515Y-16721383D02*
X8064039Y-16759478D01*
X8064039Y-16759478D02*
X8064039Y-16807097D01*
X8064039Y-16807097D02*
X8054515Y-16845192D01*
X8054515Y-16845192D02*
X8044991Y-16864240D01*
X8044991Y-16864240D02*
X8035468Y-16873764D01*
X8035468Y-16873764D02*
X8016420Y-16883288D01*
X8016420Y-16883288D02*
X7997372Y-16883288D01*
X7997372Y-16883288D02*
X7978325Y-16873764D01*
X7978325Y-16873764D02*
X7968801Y-16864240D01*
X7968801Y-16864240D02*
X7959277Y-16845192D01*
X7959277Y-16845192D02*
X7949753Y-16807097D01*
X7949753Y-16807097D02*
X7949753Y-16759478D01*
X7949753Y-16759478D02*
X7959277Y-16721383D01*
X7959277Y-16721383D02*
X7968801Y-16702335D01*
X7968801Y-16702335D02*
X7978325Y-16692811D01*
X7978325Y-16692811D02*
X7997372Y-16683287D01*
X8178325Y-16769002D02*
X8159277Y-16759478D01*
X8159277Y-16759478D02*
X8149753Y-16749954D01*
X8149753Y-16749954D02*
X8140230Y-16730906D01*
X8140230Y-16730906D02*
X8140230Y-16721383D01*
X8140230Y-16721383D02*
X8149753Y-16702335D01*
X8149753Y-16702335D02*
X8159277Y-16692811D01*
X8159277Y-16692811D02*
X8178325Y-16683287D01*
X8178325Y-16683287D02*
X8216420Y-16683287D01*
X8216420Y-16683287D02*
X8235468Y-16692811D01*
X8235468Y-16692811D02*
X8244991Y-16702335D01*
X8244991Y-16702335D02*
X8254515Y-16721383D01*
X8254515Y-16721383D02*
X8254515Y-16730906D01*
X8254515Y-16730906D02*
X8244991Y-16749954D01*
X8244991Y-16749954D02*
X8235468Y-16759478D01*
X8235468Y-16759478D02*
X8216420Y-16769002D01*
X8216420Y-16769002D02*
X8178325Y-16769002D01*
X8178325Y-16769002D02*
X8159277Y-16778526D01*
X8159277Y-16778526D02*
X8149753Y-16788049D01*
X8149753Y-16788049D02*
X8140230Y-16807097D01*
X8140230Y-16807097D02*
X8140230Y-16845192D01*
X8140230Y-16845192D02*
X8149753Y-16864240D01*
X8149753Y-16864240D02*
X8159277Y-16873764D01*
X8159277Y-16873764D02*
X8178325Y-16883288D01*
X8178325Y-16883288D02*
X8216420Y-16883288D01*
X8216420Y-16883288D02*
X8235468Y-16873764D01*
X8235468Y-16873764D02*
X8244991Y-16864240D01*
X8244991Y-16864240D02*
X8254515Y-16845192D01*
X8254515Y-16845192D02*
X8254515Y-16807097D01*
X8254515Y-16807097D02*
X8244991Y-16788049D01*
X8244991Y-16788049D02*
X8235468Y-16778526D01*
X8235468Y-16778526D02*
X8216420Y-16769002D01*
X8492611Y-16883288D02*
X8492611Y-16683287D01*
X8578325Y-16883288D02*
X8578325Y-16778526D01*
X8578325Y-16778526D02*
X8568801Y-16759478D01*
X8568801Y-16759478D02*
X8549754Y-16749954D01*
X8549754Y-16749954D02*
X8521182Y-16749954D01*
X8521182Y-16749954D02*
X8502134Y-16759478D01*
X8502134Y-16759478D02*
X8492611Y-16769002D01*
X8702134Y-16883288D02*
X8683087Y-16873764D01*
X8683087Y-16873764D02*
X8673563Y-16864240D01*
X8673563Y-16864240D02*
X8664039Y-16845192D01*
X8664039Y-16845192D02*
X8664039Y-16788049D01*
X8664039Y-16788049D02*
X8673563Y-16769002D01*
X8673563Y-16769002D02*
X8683087Y-16759478D01*
X8683087Y-16759478D02*
X8702134Y-16749954D01*
X8702134Y-16749954D02*
X8730706Y-16749954D01*
X8730706Y-16749954D02*
X8749754Y-16759478D01*
X8749754Y-16759478D02*
X8759277Y-16769002D01*
X8759277Y-16769002D02*
X8768801Y-16788049D01*
X8768801Y-16788049D02*
X8768801Y-16845192D01*
X8768801Y-16845192D02*
X8759277Y-16864240D01*
X8759277Y-16864240D02*
X8749754Y-16873764D01*
X8749754Y-16873764D02*
X8730706Y-16883288D01*
X8730706Y-16883288D02*
X8702134Y-16883288D01*
X8883087Y-16883288D02*
X8864039Y-16873764D01*
X8864039Y-16873764D02*
X8854515Y-16854716D01*
X8854515Y-16854716D02*
X8854515Y-16683287D01*
X9035468Y-16873764D02*
X9016420Y-16883288D01*
X9016420Y-16883288D02*
X8978325Y-16883288D01*
X8978325Y-16883288D02*
X8959277Y-16873764D01*
X8959277Y-16873764D02*
X8949754Y-16854716D01*
X8949754Y-16854716D02*
X8949754Y-16778526D01*
X8949754Y-16778526D02*
X8959277Y-16759478D01*
X8959277Y-16759478D02*
X8978325Y-16749954D01*
X8978325Y-16749954D02*
X9016420Y-16749954D01*
X9016420Y-16749954D02*
X9035468Y-16759478D01*
X9035468Y-16759478D02*
X9044992Y-16778526D01*
X9044992Y-16778526D02*
X9044992Y-16797573D01*
X9044992Y-16797573D02*
X8949754Y-16816621D01*
X9121182Y-16873764D02*
X9140230Y-16883288D01*
X9140230Y-16883288D02*
X9178325Y-16883288D01*
X9178325Y-16883288D02*
X9197373Y-16873764D01*
X9197373Y-16873764D02*
X9206896Y-16854716D01*
X9206896Y-16854716D02*
X9206896Y-16845192D01*
X9206896Y-16845192D02*
X9197373Y-16826145D01*
X9197373Y-16826145D02*
X9178325Y-16816621D01*
X9178325Y-16816621D02*
X9149754Y-16816621D01*
X9149754Y-16816621D02*
X9130706Y-16807097D01*
X9130706Y-16807097D02*
X9121182Y-16788049D01*
X9121182Y-16788049D02*
X9121182Y-16778526D01*
X9121182Y-16778526D02*
X9130706Y-16759478D01*
X9130706Y-16759478D02*
X9149754Y-16749954D01*
X9149754Y-16749954D02*
X9178325Y-16749954D01*
X9178325Y-16749954D02*
X9197373Y-16759478D01*
X9273563Y-16959478D02*
X9283087Y-16949954D01*
X9283087Y-16949954D02*
X9302135Y-16921383D01*
X9302135Y-16921383D02*
X9311658Y-16902335D01*
X9311658Y-16902335D02*
X9321182Y-16873764D01*
X9321182Y-16873764D02*
X9330706Y-16826145D01*
X9330706Y-16826145D02*
X9330706Y-16788049D01*
X9330706Y-16788049D02*
X9321182Y-16740430D01*
X9321182Y-16740430D02*
X9311658Y-16711859D01*
X9311658Y-16711859D02*
X9302135Y-16692811D01*
X9302135Y-16692811D02*
X9283087Y-16664240D01*
X9283087Y-16664240D02*
X9273563Y-16654716D01*
X9635468Y-16959478D02*
X9625944Y-16949954D01*
X9625944Y-16949954D02*
X9606896Y-16921383D01*
X9606896Y-16921383D02*
X9597373Y-16902335D01*
X9597373Y-16902335D02*
X9587849Y-16873764D01*
X9587849Y-16873764D02*
X9578325Y-16826145D01*
X9578325Y-16826145D02*
X9578325Y-16788049D01*
X9578325Y-16788049D02*
X9587849Y-16740430D01*
X9587849Y-16740430D02*
X9597373Y-16711859D01*
X9597373Y-16711859D02*
X9606896Y-16692811D01*
X9606896Y-16692811D02*
X9625944Y-16664240D01*
X9625944Y-16664240D02*
X9635468Y-16654716D01*
X9711658Y-16749954D02*
X9711658Y-16883288D01*
X9711658Y-16769002D02*
X9721182Y-16759478D01*
X9721182Y-16759478D02*
X9740230Y-16749954D01*
X9740230Y-16749954D02*
X9768801Y-16749954D01*
X9768801Y-16749954D02*
X9787849Y-16759478D01*
X9787849Y-16759478D02*
X9797373Y-16778526D01*
X9797373Y-16778526D02*
X9797373Y-16883288D01*
X9921182Y-16883288D02*
X9902135Y-16873764D01*
X9902135Y-16873764D02*
X9892611Y-16864240D01*
X9892611Y-16864240D02*
X9883087Y-16845192D01*
X9883087Y-16845192D02*
X9883087Y-16788049D01*
X9883087Y-16788049D02*
X9892611Y-16769002D01*
X9892611Y-16769002D02*
X9902135Y-16759478D01*
X9902135Y-16759478D02*
X9921182Y-16749954D01*
X9921182Y-16749954D02*
X9949754Y-16749954D01*
X9949754Y-16749954D02*
X9968801Y-16759478D01*
X9968801Y-16759478D02*
X9978325Y-16769002D01*
X9978325Y-16769002D02*
X9987849Y-16788049D01*
X9987849Y-16788049D02*
X9987849Y-16845192D01*
X9987849Y-16845192D02*
X9978325Y-16864240D01*
X9978325Y-16864240D02*
X9968801Y-16873764D01*
X9968801Y-16873764D02*
X9949754Y-16883288D01*
X9949754Y-16883288D02*
X9921182Y-16883288D01*
X10044992Y-16749954D02*
X10121182Y-16749954D01*
X10073563Y-16683287D02*
X10073563Y-16854716D01*
X10073563Y-16854716D02*
X10083087Y-16873764D01*
X10083087Y-16873764D02*
X10102135Y-16883288D01*
X10102135Y-16883288D02*
X10121182Y-16883288D01*
X10340230Y-16749954D02*
X10340230Y-16949954D01*
X10340230Y-16759478D02*
X10359277Y-16749954D01*
X10359277Y-16749954D02*
X10397373Y-16749954D01*
X10397373Y-16749954D02*
X10416420Y-16759478D01*
X10416420Y-16759478D02*
X10425944Y-16769002D01*
X10425944Y-16769002D02*
X10435468Y-16788049D01*
X10435468Y-16788049D02*
X10435468Y-16845192D01*
X10435468Y-16845192D02*
X10425944Y-16864240D01*
X10425944Y-16864240D02*
X10416420Y-16873764D01*
X10416420Y-16873764D02*
X10397373Y-16883288D01*
X10397373Y-16883288D02*
X10359277Y-16883288D01*
X10359277Y-16883288D02*
X10340230Y-16873764D01*
X10549754Y-16883288D02*
X10530706Y-16873764D01*
X10530706Y-16873764D02*
X10521182Y-16854716D01*
X10521182Y-16854716D02*
X10521182Y-16683287D01*
X10711658Y-16883288D02*
X10711658Y-16778526D01*
X10711658Y-16778526D02*
X10702135Y-16759478D01*
X10702135Y-16759478D02*
X10683087Y-16749954D01*
X10683087Y-16749954D02*
X10644992Y-16749954D01*
X10644992Y-16749954D02*
X10625944Y-16759478D01*
X10711658Y-16873764D02*
X10692611Y-16883288D01*
X10692611Y-16883288D02*
X10644992Y-16883288D01*
X10644992Y-16883288D02*
X10625944Y-16873764D01*
X10625944Y-16873764D02*
X10616420Y-16854716D01*
X10616420Y-16854716D02*
X10616420Y-16835668D01*
X10616420Y-16835668D02*
X10625944Y-16816621D01*
X10625944Y-16816621D02*
X10644992Y-16807097D01*
X10644992Y-16807097D02*
X10692611Y-16807097D01*
X10692611Y-16807097D02*
X10711658Y-16797573D01*
X10778325Y-16749954D02*
X10854516Y-16749954D01*
X10806897Y-16683287D02*
X10806897Y-16854716D01*
X10806897Y-16854716D02*
X10816420Y-16873764D01*
X10816420Y-16873764D02*
X10835468Y-16883288D01*
X10835468Y-16883288D02*
X10854516Y-16883288D01*
X10997373Y-16873764D02*
X10978325Y-16883288D01*
X10978325Y-16883288D02*
X10940230Y-16883288D01*
X10940230Y-16883288D02*
X10921182Y-16873764D01*
X10921182Y-16873764D02*
X10911658Y-16854716D01*
X10911658Y-16854716D02*
X10911658Y-16778526D01*
X10911658Y-16778526D02*
X10921182Y-16759478D01*
X10921182Y-16759478D02*
X10940230Y-16749954D01*
X10940230Y-16749954D02*
X10978325Y-16749954D01*
X10978325Y-16749954D02*
X10997373Y-16759478D01*
X10997373Y-16759478D02*
X11006897Y-16778526D01*
X11006897Y-16778526D02*
X11006897Y-16797573D01*
X11006897Y-16797573D02*
X10911658Y-16816621D01*
X11178325Y-16883288D02*
X11178325Y-16683287D01*
X11178325Y-16873764D02*
X11159278Y-16883288D01*
X11159278Y-16883288D02*
X11121182Y-16883288D01*
X11121182Y-16883288D02*
X11102135Y-16873764D01*
X11102135Y-16873764D02*
X11092611Y-16864240D01*
X11092611Y-16864240D02*
X11083087Y-16845192D01*
X11083087Y-16845192D02*
X11083087Y-16788049D01*
X11083087Y-16788049D02*
X11092611Y-16769002D01*
X11092611Y-16769002D02*
X11102135Y-16759478D01*
X11102135Y-16759478D02*
X11121182Y-16749954D01*
X11121182Y-16749954D02*
X11159278Y-16749954D01*
X11159278Y-16749954D02*
X11178325Y-16759478D01*
X11254516Y-16959478D02*
X11264039Y-16949954D01*
X11264039Y-16949954D02*
X11283087Y-16921383D01*
X11283087Y-16921383D02*
X11292611Y-16902335D01*
X11292611Y-16902335D02*
X11302135Y-16873764D01*
X11302135Y-16873764D02*
X11311658Y-16826145D01*
X11311658Y-16826145D02*
X11311658Y-16788049D01*
X11311658Y-16788049D02*
X11302135Y-16740430D01*
X11302135Y-16740430D02*
X11292611Y-16711859D01*
X11292611Y-16711859D02*
X11283087Y-16692811D01*
X11283087Y-16692811D02*
X11264039Y-16664240D01*
X11264039Y-16664240D02*
X11254516Y-16654716D01*
X4088259Y-17182515D02*
X4088259Y-17041092D01*
X3946836Y-17041092D01*
X3946836Y-17182515D01*
X4088259Y-17182515D01*
X4359277Y-17003288D02*
X4483086Y-17003288D01*
X4483086Y-17003288D02*
X4416420Y-17079478D01*
X4416420Y-17079478D02*
X4444991Y-17079478D01*
X4444991Y-17079478D02*
X4464039Y-17089002D01*
X4464039Y-17089002D02*
X4473563Y-17098526D01*
X4473563Y-17098526D02*
X4483086Y-17117573D01*
X4483086Y-17117573D02*
X4483086Y-17165192D01*
X4483086Y-17165192D02*
X4473563Y-17184240D01*
X4473563Y-17184240D02*
X4464039Y-17193764D01*
X4464039Y-17193764D02*
X4444991Y-17203288D01*
X4444991Y-17203288D02*
X4387848Y-17203288D01*
X4387848Y-17203288D02*
X4368801Y-17193764D01*
X4368801Y-17193764D02*
X4359277Y-17184240D01*
X4568801Y-17184240D02*
X4578325Y-17193764D01*
X4578325Y-17193764D02*
X4568801Y-17203288D01*
X4568801Y-17203288D02*
X4559277Y-17193764D01*
X4559277Y-17193764D02*
X4568801Y-17184240D01*
X4568801Y-17184240D02*
X4568801Y-17203288D01*
X4749753Y-17069954D02*
X4749753Y-17203288D01*
X4702134Y-16993764D02*
X4654515Y-17136621D01*
X4654515Y-17136621D02*
X4778325Y-17136621D01*
X4844991Y-17022335D02*
X4854515Y-17012811D01*
X4854515Y-17012811D02*
X4873563Y-17003288D01*
X4873563Y-17003288D02*
X4921182Y-17003288D01*
X4921182Y-17003288D02*
X4940229Y-17012811D01*
X4940229Y-17012811D02*
X4949753Y-17022335D01*
X4949753Y-17022335D02*
X4959277Y-17041383D01*
X4959277Y-17041383D02*
X4959277Y-17060430D01*
X4959277Y-17060430D02*
X4949753Y-17089002D01*
X4949753Y-17089002D02*
X4835467Y-17203288D01*
X4835467Y-17203288D02*
X4959277Y-17203288D01*
X5054515Y-17203288D02*
X5092610Y-17203288D01*
X5092610Y-17203288D02*
X5111658Y-17193764D01*
X5111658Y-17193764D02*
X5121182Y-17184240D01*
X5121182Y-17184240D02*
X5140229Y-17155668D01*
X5140229Y-17155668D02*
X5149753Y-17117573D01*
X5149753Y-17117573D02*
X5149753Y-17041383D01*
X5149753Y-17041383D02*
X5140229Y-17022335D01*
X5140229Y-17022335D02*
X5130706Y-17012811D01*
X5130706Y-17012811D02*
X5111658Y-17003288D01*
X5111658Y-17003288D02*
X5073563Y-17003288D01*
X5073563Y-17003288D02*
X5054515Y-17012811D01*
X5054515Y-17012811D02*
X5044991Y-17022335D01*
X5044991Y-17022335D02*
X5035467Y-17041383D01*
X5035467Y-17041383D02*
X5035467Y-17089002D01*
X5035467Y-17089002D02*
X5044991Y-17108049D01*
X5044991Y-17108049D02*
X5054515Y-17117573D01*
X5054515Y-17117573D02*
X5073563Y-17127097D01*
X5073563Y-17127097D02*
X5111658Y-17127097D01*
X5111658Y-17127097D02*
X5130706Y-17117573D01*
X5130706Y-17117573D02*
X5140229Y-17108049D01*
X5140229Y-17108049D02*
X5149753Y-17089002D01*
X5235467Y-17203288D02*
X5235467Y-17069954D01*
X5235467Y-17089002D02*
X5244991Y-17079478D01*
X5244991Y-17079478D02*
X5264039Y-17069954D01*
X5264039Y-17069954D02*
X5292610Y-17069954D01*
X5292610Y-17069954D02*
X5311658Y-17079478D01*
X5311658Y-17079478D02*
X5321182Y-17098526D01*
X5321182Y-17098526D02*
X5321182Y-17203288D01*
X5321182Y-17098526D02*
X5330706Y-17079478D01*
X5330706Y-17079478D02*
X5349753Y-17069954D01*
X5349753Y-17069954D02*
X5378325Y-17069954D01*
X5378325Y-17069954D02*
X5397372Y-17079478D01*
X5397372Y-17079478D02*
X5406896Y-17098526D01*
X5406896Y-17098526D02*
X5406896Y-17203288D01*
X5502134Y-17203288D02*
X5502134Y-17069954D01*
X5502134Y-17089002D02*
X5511658Y-17079478D01*
X5511658Y-17079478D02*
X5530706Y-17069954D01*
X5530706Y-17069954D02*
X5559277Y-17069954D01*
X5559277Y-17069954D02*
X5578325Y-17079478D01*
X5578325Y-17079478D02*
X5587848Y-17098526D01*
X5587848Y-17098526D02*
X5587848Y-17203288D01*
X5587848Y-17098526D02*
X5597372Y-17079478D01*
X5597372Y-17079478D02*
X5616420Y-17069954D01*
X5616420Y-17069954D02*
X5644991Y-17069954D01*
X5644991Y-17069954D02*
X5664039Y-17079478D01*
X5664039Y-17079478D02*
X5673563Y-17098526D01*
X5673563Y-17098526D02*
X5673563Y-17203288D01*
X6064039Y-16993764D02*
X5892610Y-17250907D01*
X6321182Y-17003288D02*
X6340229Y-17003288D01*
X6340229Y-17003288D02*
X6359277Y-17012811D01*
X6359277Y-17012811D02*
X6368801Y-17022335D01*
X6368801Y-17022335D02*
X6378325Y-17041383D01*
X6378325Y-17041383D02*
X6387848Y-17079478D01*
X6387848Y-17079478D02*
X6387848Y-17127097D01*
X6387848Y-17127097D02*
X6378325Y-17165192D01*
X6378325Y-17165192D02*
X6368801Y-17184240D01*
X6368801Y-17184240D02*
X6359277Y-17193764D01*
X6359277Y-17193764D02*
X6340229Y-17203288D01*
X6340229Y-17203288D02*
X6321182Y-17203288D01*
X6321182Y-17203288D02*
X6302134Y-17193764D01*
X6302134Y-17193764D02*
X6292610Y-17184240D01*
X6292610Y-17184240D02*
X6283087Y-17165192D01*
X6283087Y-17165192D02*
X6273563Y-17127097D01*
X6273563Y-17127097D02*
X6273563Y-17079478D01*
X6273563Y-17079478D02*
X6283087Y-17041383D01*
X6283087Y-17041383D02*
X6292610Y-17022335D01*
X6292610Y-17022335D02*
X6302134Y-17012811D01*
X6302134Y-17012811D02*
X6321182Y-17003288D01*
X6473563Y-17184240D02*
X6483087Y-17193764D01*
X6483087Y-17193764D02*
X6473563Y-17203288D01*
X6473563Y-17203288D02*
X6464039Y-17193764D01*
X6464039Y-17193764D02*
X6473563Y-17184240D01*
X6473563Y-17184240D02*
X6473563Y-17203288D01*
X6673563Y-17203288D02*
X6559277Y-17203288D01*
X6616420Y-17203288D02*
X6616420Y-17003288D01*
X6616420Y-17003288D02*
X6597372Y-17031859D01*
X6597372Y-17031859D02*
X6578325Y-17050907D01*
X6578325Y-17050907D02*
X6559277Y-17060430D01*
X6740229Y-17003288D02*
X6864039Y-17003288D01*
X6864039Y-17003288D02*
X6797372Y-17079478D01*
X6797372Y-17079478D02*
X6825944Y-17079478D01*
X6825944Y-17079478D02*
X6844991Y-17089002D01*
X6844991Y-17089002D02*
X6854515Y-17098526D01*
X6854515Y-17098526D02*
X6864039Y-17117573D01*
X6864039Y-17117573D02*
X6864039Y-17165192D01*
X6864039Y-17165192D02*
X6854515Y-17184240D01*
X6854515Y-17184240D02*
X6844991Y-17193764D01*
X6844991Y-17193764D02*
X6825944Y-17203288D01*
X6825944Y-17203288D02*
X6768801Y-17203288D01*
X6768801Y-17203288D02*
X6749753Y-17193764D01*
X6749753Y-17193764D02*
X6740229Y-17184240D01*
X7044991Y-17003288D02*
X6949753Y-17003288D01*
X6949753Y-17003288D02*
X6940229Y-17098526D01*
X6940229Y-17098526D02*
X6949753Y-17089002D01*
X6949753Y-17089002D02*
X6968801Y-17079478D01*
X6968801Y-17079478D02*
X7016420Y-17079478D01*
X7016420Y-17079478D02*
X7035468Y-17089002D01*
X7035468Y-17089002D02*
X7044991Y-17098526D01*
X7044991Y-17098526D02*
X7054515Y-17117573D01*
X7054515Y-17117573D02*
X7054515Y-17165192D01*
X7054515Y-17165192D02*
X7044991Y-17184240D01*
X7044991Y-17184240D02*
X7035468Y-17193764D01*
X7035468Y-17193764D02*
X7016420Y-17203288D01*
X7016420Y-17203288D02*
X6968801Y-17203288D01*
X6968801Y-17203288D02*
X6949753Y-17193764D01*
X6949753Y-17193764D02*
X6940229Y-17184240D01*
X7178325Y-17003288D02*
X7197372Y-17003288D01*
X7197372Y-17003288D02*
X7216420Y-17012811D01*
X7216420Y-17012811D02*
X7225944Y-17022335D01*
X7225944Y-17022335D02*
X7235468Y-17041383D01*
X7235468Y-17041383D02*
X7244991Y-17079478D01*
X7244991Y-17079478D02*
X7244991Y-17127097D01*
X7244991Y-17127097D02*
X7235468Y-17165192D01*
X7235468Y-17165192D02*
X7225944Y-17184240D01*
X7225944Y-17184240D02*
X7216420Y-17193764D01*
X7216420Y-17193764D02*
X7197372Y-17203288D01*
X7197372Y-17203288D02*
X7178325Y-17203288D01*
X7178325Y-17203288D02*
X7159277Y-17193764D01*
X7159277Y-17193764D02*
X7149753Y-17184240D01*
X7149753Y-17184240D02*
X7140229Y-17165192D01*
X7140229Y-17165192D02*
X7130706Y-17127097D01*
X7130706Y-17127097D02*
X7130706Y-17079478D01*
X7130706Y-17079478D02*
X7140229Y-17041383D01*
X7140229Y-17041383D02*
X7149753Y-17022335D01*
X7149753Y-17022335D02*
X7159277Y-17012811D01*
X7159277Y-17012811D02*
X7178325Y-17003288D01*
X7321182Y-17003288D02*
X7321182Y-17041383D01*
X7397372Y-17003288D02*
X7397372Y-17041383D01*
X7692611Y-17279478D02*
X7683087Y-17269954D01*
X7683087Y-17269954D02*
X7664039Y-17241383D01*
X7664039Y-17241383D02*
X7654515Y-17222335D01*
X7654515Y-17222335D02*
X7644991Y-17193764D01*
X7644991Y-17193764D02*
X7635468Y-17146145D01*
X7635468Y-17146145D02*
X7635468Y-17108049D01*
X7635468Y-17108049D02*
X7644991Y-17060430D01*
X7644991Y-17060430D02*
X7654515Y-17031859D01*
X7654515Y-17031859D02*
X7664039Y-17012811D01*
X7664039Y-17012811D02*
X7683087Y-16984240D01*
X7683087Y-16984240D02*
X7692611Y-16974716D01*
X7759277Y-17022335D02*
X7768801Y-17012811D01*
X7768801Y-17012811D02*
X7787849Y-17003288D01*
X7787849Y-17003288D02*
X7835468Y-17003288D01*
X7835468Y-17003288D02*
X7854515Y-17012811D01*
X7854515Y-17012811D02*
X7864039Y-17022335D01*
X7864039Y-17022335D02*
X7873563Y-17041383D01*
X7873563Y-17041383D02*
X7873563Y-17060430D01*
X7873563Y-17060430D02*
X7864039Y-17089002D01*
X7864039Y-17089002D02*
X7749753Y-17203288D01*
X7749753Y-17203288D02*
X7873563Y-17203288D01*
X7940230Y-17003288D02*
X8073563Y-17003288D01*
X8073563Y-17003288D02*
X7987849Y-17203288D01*
X8302134Y-17203288D02*
X8302134Y-17003288D01*
X8387849Y-17203288D02*
X8387849Y-17098526D01*
X8387849Y-17098526D02*
X8378325Y-17079478D01*
X8378325Y-17079478D02*
X8359277Y-17069954D01*
X8359277Y-17069954D02*
X8330706Y-17069954D01*
X8330706Y-17069954D02*
X8311658Y-17079478D01*
X8311658Y-17079478D02*
X8302134Y-17089002D01*
X8511658Y-17203288D02*
X8492611Y-17193764D01*
X8492611Y-17193764D02*
X8483087Y-17184240D01*
X8483087Y-17184240D02*
X8473563Y-17165192D01*
X8473563Y-17165192D02*
X8473563Y-17108049D01*
X8473563Y-17108049D02*
X8483087Y-17089002D01*
X8483087Y-17089002D02*
X8492611Y-17079478D01*
X8492611Y-17079478D02*
X8511658Y-17069954D01*
X8511658Y-17069954D02*
X8540230Y-17069954D01*
X8540230Y-17069954D02*
X8559277Y-17079478D01*
X8559277Y-17079478D02*
X8568801Y-17089002D01*
X8568801Y-17089002D02*
X8578325Y-17108049D01*
X8578325Y-17108049D02*
X8578325Y-17165192D01*
X8578325Y-17165192D02*
X8568801Y-17184240D01*
X8568801Y-17184240D02*
X8559277Y-17193764D01*
X8559277Y-17193764D02*
X8540230Y-17203288D01*
X8540230Y-17203288D02*
X8511658Y-17203288D01*
X8692611Y-17203288D02*
X8673563Y-17193764D01*
X8673563Y-17193764D02*
X8664039Y-17174716D01*
X8664039Y-17174716D02*
X8664039Y-17003288D01*
X8844992Y-17193764D02*
X8825944Y-17203288D01*
X8825944Y-17203288D02*
X8787849Y-17203288D01*
X8787849Y-17203288D02*
X8768801Y-17193764D01*
X8768801Y-17193764D02*
X8759277Y-17174716D01*
X8759277Y-17174716D02*
X8759277Y-17098526D01*
X8759277Y-17098526D02*
X8768801Y-17079478D01*
X8768801Y-17079478D02*
X8787849Y-17069954D01*
X8787849Y-17069954D02*
X8825944Y-17069954D01*
X8825944Y-17069954D02*
X8844992Y-17079478D01*
X8844992Y-17079478D02*
X8854515Y-17098526D01*
X8854515Y-17098526D02*
X8854515Y-17117573D01*
X8854515Y-17117573D02*
X8759277Y-17136621D01*
X8930706Y-17193764D02*
X8949754Y-17203288D01*
X8949754Y-17203288D02*
X8987849Y-17203288D01*
X8987849Y-17203288D02*
X9006896Y-17193764D01*
X9006896Y-17193764D02*
X9016420Y-17174716D01*
X9016420Y-17174716D02*
X9016420Y-17165192D01*
X9016420Y-17165192D02*
X9006896Y-17146145D01*
X9006896Y-17146145D02*
X8987849Y-17136621D01*
X8987849Y-17136621D02*
X8959277Y-17136621D01*
X8959277Y-17136621D02*
X8940230Y-17127097D01*
X8940230Y-17127097D02*
X8930706Y-17108049D01*
X8930706Y-17108049D02*
X8930706Y-17098526D01*
X8930706Y-17098526D02*
X8940230Y-17079478D01*
X8940230Y-17079478D02*
X8959277Y-17069954D01*
X8959277Y-17069954D02*
X8987849Y-17069954D01*
X8987849Y-17069954D02*
X9006896Y-17079478D01*
X9083087Y-17279478D02*
X9092611Y-17269954D01*
X9092611Y-17269954D02*
X9111658Y-17241383D01*
X9111658Y-17241383D02*
X9121182Y-17222335D01*
X9121182Y-17222335D02*
X9130706Y-17193764D01*
X9130706Y-17193764D02*
X9140230Y-17146145D01*
X9140230Y-17146145D02*
X9140230Y-17108049D01*
X9140230Y-17108049D02*
X9130706Y-17060430D01*
X9130706Y-17060430D02*
X9121182Y-17031859D01*
X9121182Y-17031859D02*
X9111658Y-17012811D01*
X9111658Y-17012811D02*
X9092611Y-16984240D01*
X9092611Y-16984240D02*
X9083087Y-16974716D01*
X9444992Y-17279478D02*
X9435468Y-17269954D01*
X9435468Y-17269954D02*
X9416420Y-17241383D01*
X9416420Y-17241383D02*
X9406896Y-17222335D01*
X9406896Y-17222335D02*
X9397373Y-17193764D01*
X9397373Y-17193764D02*
X9387849Y-17146145D01*
X9387849Y-17146145D02*
X9387849Y-17108049D01*
X9387849Y-17108049D02*
X9397373Y-17060430D01*
X9397373Y-17060430D02*
X9406896Y-17031859D01*
X9406896Y-17031859D02*
X9416420Y-17012811D01*
X9416420Y-17012811D02*
X9435468Y-16984240D01*
X9435468Y-16984240D02*
X9444992Y-16974716D01*
X9521182Y-17069954D02*
X9521182Y-17203288D01*
X9521182Y-17089002D02*
X9530706Y-17079478D01*
X9530706Y-17079478D02*
X9549754Y-17069954D01*
X9549754Y-17069954D02*
X9578325Y-17069954D01*
X9578325Y-17069954D02*
X9597373Y-17079478D01*
X9597373Y-17079478D02*
X9606896Y-17098526D01*
X9606896Y-17098526D02*
X9606896Y-17203288D01*
X9730706Y-17203288D02*
X9711658Y-17193764D01*
X9711658Y-17193764D02*
X9702135Y-17184240D01*
X9702135Y-17184240D02*
X9692611Y-17165192D01*
X9692611Y-17165192D02*
X9692611Y-17108049D01*
X9692611Y-17108049D02*
X9702135Y-17089002D01*
X9702135Y-17089002D02*
X9711658Y-17079478D01*
X9711658Y-17079478D02*
X9730706Y-17069954D01*
X9730706Y-17069954D02*
X9759277Y-17069954D01*
X9759277Y-17069954D02*
X9778325Y-17079478D01*
X9778325Y-17079478D02*
X9787849Y-17089002D01*
X9787849Y-17089002D02*
X9797373Y-17108049D01*
X9797373Y-17108049D02*
X9797373Y-17165192D01*
X9797373Y-17165192D02*
X9787849Y-17184240D01*
X9787849Y-17184240D02*
X9778325Y-17193764D01*
X9778325Y-17193764D02*
X9759277Y-17203288D01*
X9759277Y-17203288D02*
X9730706Y-17203288D01*
X9854516Y-17069954D02*
X9930706Y-17069954D01*
X9883087Y-17003288D02*
X9883087Y-17174716D01*
X9883087Y-17174716D02*
X9892611Y-17193764D01*
X9892611Y-17193764D02*
X9911658Y-17203288D01*
X9911658Y-17203288D02*
X9930706Y-17203288D01*
X10149754Y-17069954D02*
X10149754Y-17269954D01*
X10149754Y-17079478D02*
X10168801Y-17069954D01*
X10168801Y-17069954D02*
X10206897Y-17069954D01*
X10206897Y-17069954D02*
X10225944Y-17079478D01*
X10225944Y-17079478D02*
X10235468Y-17089002D01*
X10235468Y-17089002D02*
X10244992Y-17108049D01*
X10244992Y-17108049D02*
X10244992Y-17165192D01*
X10244992Y-17165192D02*
X10235468Y-17184240D01*
X10235468Y-17184240D02*
X10225944Y-17193764D01*
X10225944Y-17193764D02*
X10206897Y-17203288D01*
X10206897Y-17203288D02*
X10168801Y-17203288D01*
X10168801Y-17203288D02*
X10149754Y-17193764D01*
X10359277Y-17203288D02*
X10340230Y-17193764D01*
X10340230Y-17193764D02*
X10330706Y-17174716D01*
X10330706Y-17174716D02*
X10330706Y-17003288D01*
X10521182Y-17203288D02*
X10521182Y-17098526D01*
X10521182Y-17098526D02*
X10511658Y-17079478D01*
X10511658Y-17079478D02*
X10492611Y-17069954D01*
X10492611Y-17069954D02*
X10454516Y-17069954D01*
X10454516Y-17069954D02*
X10435468Y-17079478D01*
X10521182Y-17193764D02*
X10502135Y-17203288D01*
X10502135Y-17203288D02*
X10454516Y-17203288D01*
X10454516Y-17203288D02*
X10435468Y-17193764D01*
X10435468Y-17193764D02*
X10425944Y-17174716D01*
X10425944Y-17174716D02*
X10425944Y-17155668D01*
X10425944Y-17155668D02*
X10435468Y-17136621D01*
X10435468Y-17136621D02*
X10454516Y-17127097D01*
X10454516Y-17127097D02*
X10502135Y-17127097D01*
X10502135Y-17127097D02*
X10521182Y-17117573D01*
X10587849Y-17069954D02*
X10664039Y-17069954D01*
X10616420Y-17003288D02*
X10616420Y-17174716D01*
X10616420Y-17174716D02*
X10625944Y-17193764D01*
X10625944Y-17193764D02*
X10644992Y-17203288D01*
X10644992Y-17203288D02*
X10664039Y-17203288D01*
X10806897Y-17193764D02*
X10787849Y-17203288D01*
X10787849Y-17203288D02*
X10749754Y-17203288D01*
X10749754Y-17203288D02*
X10730706Y-17193764D01*
X10730706Y-17193764D02*
X10721182Y-17174716D01*
X10721182Y-17174716D02*
X10721182Y-17098526D01*
X10721182Y-17098526D02*
X10730706Y-17079478D01*
X10730706Y-17079478D02*
X10749754Y-17069954D01*
X10749754Y-17069954D02*
X10787849Y-17069954D01*
X10787849Y-17069954D02*
X10806897Y-17079478D01*
X10806897Y-17079478D02*
X10816420Y-17098526D01*
X10816420Y-17098526D02*
X10816420Y-17117573D01*
X10816420Y-17117573D02*
X10721182Y-17136621D01*
X10987849Y-17203288D02*
X10987849Y-17003288D01*
X10987849Y-17193764D02*
X10968801Y-17203288D01*
X10968801Y-17203288D02*
X10930706Y-17203288D01*
X10930706Y-17203288D02*
X10911658Y-17193764D01*
X10911658Y-17193764D02*
X10902135Y-17184240D01*
X10902135Y-17184240D02*
X10892611Y-17165192D01*
X10892611Y-17165192D02*
X10892611Y-17108049D01*
X10892611Y-17108049D02*
X10902135Y-17089002D01*
X10902135Y-17089002D02*
X10911658Y-17079478D01*
X10911658Y-17079478D02*
X10930706Y-17069954D01*
X10930706Y-17069954D02*
X10968801Y-17069954D01*
X10968801Y-17069954D02*
X10987849Y-17079478D01*
X11064039Y-17279478D02*
X11073563Y-17269954D01*
X11073563Y-17269954D02*
X11092611Y-17241383D01*
X11092611Y-17241383D02*
X11102135Y-17222335D01*
X11102135Y-17222335D02*
X11111658Y-17193764D01*
X11111658Y-17193764D02*
X11121182Y-17146145D01*
X11121182Y-17146145D02*
X11121182Y-17108049D01*
X11121182Y-17108049D02*
X11111658Y-17060430D01*
X11111658Y-17060430D02*
X11102135Y-17031859D01*
X11102135Y-17031859D02*
X11092611Y-17012811D01*
X11092611Y-17012811D02*
X11073563Y-16984240D01*
X11073563Y-16984240D02*
X11064039Y-16974716D01*
M02*
