%TF.GenerationSoftware,KiCad,Pcbnew,7.0.10-7.0.10~ubuntu22.04.1*%
%TF.CreationDate,2024-02-09T13:23:23+01:00*%
%TF.ProjectId,keyboard,6b657962-6f61-4726-942e-6b696361645f,v1.0.0*%
%TF.SameCoordinates,Original*%
%TF.FileFunction,Profile,NP*%
%FSLAX46Y46*%
G04 Gerber Fmt 4.6, Leading zero omitted, Abs format (unit mm)*
G04 Created by KiCad (PCBNEW 7.0.10-7.0.10~ubuntu22.04.1) date 2024-02-09 13:23:23*
%MOMM*%
%LPD*%
G01*
G04 APERTURE LIST*
%TA.AperFunction,Profile*%
%ADD10C,0.150000*%
%TD*%
G04 APERTURE END LIST*
D10*
X176948674Y-139681747D02*
X168161707Y-154901250D01*
X118822748Y-45012896D02*
X154388651Y-53025099D01*
X165734793Y-155776660D02*
X116794287Y-137643875D01*
X174355700Y-55074001D02*
G75*
G03*
X172355691Y-53074000I-2000000J1D01*
G01*
X41755731Y-82315940D02*
G75*
G03*
X41258088Y-83819069I1494749J-1328810D01*
G01*
X41258090Y-83819066D02*
X45627899Y-133766178D01*
X116406962Y-137543074D02*
X83897548Y-132483990D01*
X80837317Y-50501804D02*
G75*
G03*
X80398048Y-50699487I595483J-1910096D01*
G01*
X116794284Y-137643883D02*
G75*
G03*
X116406963Y-137543078I-694984J-1875817D01*
G01*
X118822748Y-45012897D02*
G75*
G03*
X118383206Y-44964006I-439548J-1951403D01*
G01*
X176948647Y-139681732D02*
G75*
G03*
X177183091Y-138316996I-1731947J1000032D01*
G01*
X154828192Y-53074008D02*
X172355691Y-53074000D01*
X174389249Y-123254838D02*
X177183092Y-138316996D01*
X165734804Y-155776631D02*
G75*
G03*
X168161707Y-154901250I694896J1875331D01*
G01*
X80837319Y-50501810D02*
X98315050Y-45054590D01*
X174355692Y-55074001D02*
X174355693Y-122890079D01*
X83897547Y-132483998D02*
G75*
G03*
X83415695Y-132467824I-307547J-1976702D01*
G01*
X98910144Y-44964011D02*
G75*
G03*
X98315049Y-45054591I56J-2000489D01*
G01*
X83415698Y-132467820D02*
X47794595Y-135584263D01*
X57891982Y-64299521D02*
X80398048Y-50699478D01*
X41755736Y-82315940D02*
X57431614Y-64682461D01*
X98910144Y-44964001D02*
X118383205Y-44964000D01*
X174355696Y-122890079D02*
G75*
G03*
X174389250Y-123254837I2001304J179D01*
G01*
X45627846Y-133766183D02*
G75*
G03*
X47794595Y-135584262I1992454J174383D01*
G01*
X57891988Y-64299530D02*
G75*
G03*
X57431619Y-64682462I1034812J-1712270D01*
G01*
X154388650Y-53025102D02*
G75*
G03*
X154828192Y-53074008I439550J1950802D01*
G01*
%TO.C,REF\u002A\u002A*%
X170255689Y-106274005D02*
X170255689Y-120874005D01*
X170555689Y-121174005D02*
X172355689Y-121174005D01*
X172355689Y-105974005D02*
X170555689Y-105974005D01*
X172655689Y-120874005D02*
X172655689Y-106274005D01*
X170555689Y-105974005D02*
G75*
G03*
X170255689Y-106274005I0J-300000D01*
G01*
X170255689Y-120874005D02*
G75*
G03*
X170555689Y-121174005I300000J0D01*
G01*
X172655689Y-106274005D02*
G75*
G03*
X172355689Y-105974005I-300000J0D01*
G01*
X172355689Y-121174005D02*
G75*
G03*
X172655689Y-120874005I0J300000D01*
G01*
%TD*%
M02*
