M48
; DRILL file {KiCad 7.0.10-7.0.10~ubuntu22.04.1} date Fri 09 Feb 2024 01:23:24 PM CET
; FORMAT={-:-/ absolute / metric / decimal}
; #@! TF.CreationDate,2024-02-09T13:23:24+01:00
; #@! TF.GenerationSoftware,Kicad,Pcbnew,7.0.10-7.0.10~ubuntu22.04.1
; #@! TF.FileFunction,Plated,1,2,PTH
FMAT,2
METRIC
; #@! TA.AperFunction,Plated,PTH,ViaDrill
T1C0.300
; #@! TA.AperFunction,Plated,PTH,ComponentDrill
T2C0.300
; #@! TA.AperFunction,Plated,PTH,ViaDrill
T3C0.400
; #@! TA.AperFunction,Plated,PTH,ComponentDrill
T4C0.800
; #@! TA.AperFunction,Plated,PTH,ComponentDrill
T5C0.900
; #@! TA.AperFunction,Plated,PTH,ComponentDrill
T6C1.000
; #@! TA.AperFunction,Plated,PTH,ComponentDrill
T7C1.092
; #@! TA.AperFunction,Plated,PTH,ComponentDrill
T8C1.100
; #@! TA.AperFunction,Plated,PTH,ComponentDrill
T9C1.300
; #@! TA.AperFunction,Plated,PTH,ComponentDrill
T10C2.200
; #@! TA.AperFunction,Plated,PTH,ComponentDrill
T11C4.100
%
G90
G05
T1
X55.69Y-84.74
X55.911Y-103.771
X57.15Y-104.86
X57.53Y-86.99
X58.45Y-118.18
X60.97Y-121.43
X71.59Y-73.13
X73.853Y-102.804
X74.32Y-84.42
X74.85Y-100.92
X76.66Y-116.05
X77.56Y-118.42
X93.412Y-89.071
X94.91Y-71.33
X94.94Y-105.39
X98.01Y-118.88
X101.37Y-97.63
X101.58Y-64.63
X110.16Y-115.7
X111.402Y-86.671
X112.52Y-120.67
X112.61Y-98.59
X113.05Y-64.56
X128.59Y-121.89
X129.402Y-91.73
X129.93Y-124.26
X130.92Y-70.2
X130.98Y-104.28
X134.09Y-108.45
X147.402Y-92.39
X148.64Y-93.54
X148.92Y-72.71
X149.75Y-108.74
X149.808Y-90.938
X149.81Y-88.54
X149.81Y-91.738
X149.823Y-90.139
X149.825Y-89.339
X150.182Y-107.424
X150.182Y-106.54
X151.37Y-130.1
X152.182Y-95.05
X152.36Y-63.32
X152.64Y-119.76
X152.982Y-95.06
X153.782Y-95.06
X156.2Y-92.71
X159.026Y-88.362
X159.035Y-68.087
X160.06Y-138.82
X161.566Y-88.362
X161.61Y-70.587
X162.935Y-69.187
X163.11Y-63.962
X163.16Y-66.487
X163.26Y-137.82
X163.84Y-107.12
X164.085Y-108.687
X164.106Y-88.212
X164.11Y-65.537
X164.272Y-60.424
X164.835Y-112.287
X165.11Y-61.987
X165.935Y-109.787
X166.646Y-87.087
X167.835Y-71.787
X169.186Y-88.212
T2
X50.773Y-86.438
X52.267Y-86.307
X53.535Y-118.017
X53.736Y-120.308
X55.03Y-117.886
X55.23Y-120.178
X68.504Y-82.578
X68.704Y-84.869
X69.998Y-82.447
X70.198Y-84.738
X71.467Y-116.448
X71.667Y-118.74
X72.961Y-116.318
X73.162Y-118.609
X89.856Y-105.874
X89.856Y-71.874
X89.856Y-103.574
X89.856Y-69.574
X91.356Y-105.874
X91.356Y-71.874
X91.356Y-103.574
X91.356Y-69.574
X107.856Y-63.964
X107.856Y-97.964
X107.856Y-131.964
X107.856Y-66.264
X107.856Y-100.264
X109.356Y-63.964
X109.356Y-97.964
X109.356Y-131.964
X109.356Y-66.264
X109.356Y-100.264
X125.856Y-137.574
X125.856Y-71.874
X125.856Y-105.874
X125.856Y-103.574
X125.856Y-69.574
X127.356Y-137.574
X127.356Y-71.874
X127.356Y-105.874
X127.356Y-103.574
X127.356Y-69.574
X143.422Y-141.446
X143.856Y-108.374
X143.856Y-74.374
X143.856Y-106.074
X143.856Y-72.074
X144.871Y-141.834
X145.356Y-108.374
X145.356Y-74.374
X145.356Y-106.074
X145.356Y-72.074
X157.106Y-122.574
X158.606Y-122.574
X166.712Y-134.912
X168.011Y-135.662
T3
X49.281Y-93.396
X50.703Y-110.339
X52.237Y-127.269
X55.116Y-94.692
X56.539Y-111.635
X58.072Y-128.566
X65.688Y-74.886
X67.222Y-91.816
X68.644Y-108.759
X70.178Y-125.69
X71.523Y-76.182
X73.057Y-93.113
X74.479Y-110.055
X76.013Y-126.986
X87.704Y-95.671
X87.712Y-61.669
X87.757Y-112.671
X87.764Y-78.669
X93.404Y-97.471
X93.412Y-63.469
X93.457Y-114.471
X93.464Y-80.469
X105.694Y-90.061
X105.698Y-124.063
X105.702Y-56.059
X105.747Y-107.061
X105.754Y-73.059
X111.394Y-91.861
X111.398Y-125.863
X111.402Y-57.859
X111.447Y-108.861
X111.454Y-74.859
X123.694Y-95.681
X123.702Y-61.679
X123.704Y-129.673
X123.747Y-112.681
X123.754Y-78.679
X129.394Y-97.481
X129.402Y-63.479
X129.404Y-131.473
X129.447Y-114.481
X129.454Y-80.479
X141.694Y-98.171
X141.702Y-64.169
X141.747Y-115.171
X141.754Y-81.169
X143.391Y-133.261
X147.394Y-99.971
X147.402Y-65.969
X147.447Y-116.971
X147.454Y-82.969
X148.431Y-136.475
X163.965Y-146.284
X168.374Y-142.247
T4
X156.356Y-54.874
X171.856Y-54.874
T5
X156.006Y-107.374
X156.006Y-119.774
X157.231Y-109.764
X157.231Y-112.304
X157.231Y-114.844
X157.231Y-117.384
X157.856Y-107.374
X157.856Y-119.774
T6
X159.026Y-92.374
X161.566Y-92.374
X164.106Y-92.374
X166.646Y-92.374
X169.186Y-92.374
T7
X156.486Y-57.904
X156.486Y-60.444
X156.486Y-62.984
X156.486Y-65.524
X156.486Y-68.064
X156.486Y-70.604
X156.486Y-73.144
X156.486Y-75.684
X156.486Y-78.224
X156.486Y-80.764
X156.486Y-83.304
X156.486Y-85.844
X171.726Y-57.904
X171.726Y-60.444
X171.726Y-62.984
X171.726Y-65.524
X171.726Y-68.064
X171.726Y-70.604
X171.726Y-73.144
X171.726Y-75.684
X171.726Y-78.224
X171.726Y-80.764
X171.726Y-83.304
X171.726Y-85.844
T8
X156.486Y-57.904
X171.726Y-57.904
T9
X160.856Y-98.874
X167.356Y-98.874
T10
X156.606Y-98.874
X171.606Y-98.874
T11
X63.161Y-116.171
X79.606Y-68.574
X117.606Y-119.574
X135.606Y-69.824
X160.984Y-127.797
M30
