%TF.GenerationSoftware,KiCad,Pcbnew,7.0.10-7.0.10~ubuntu22.04.1*%
%TF.CreationDate,2024-02-09T13:23:23+01:00*%
%TF.ProjectId,keyboard,6b657962-6f61-4726-942e-6b696361645f,v1.0.0*%
%TF.SameCoordinates,Original*%
%TF.FileFunction,Soldermask,Bot*%
%TF.FilePolarity,Negative*%
%FSLAX46Y46*%
G04 Gerber Fmt 4.6, Leading zero omitted, Abs format (unit mm)*
G04 Created by KiCad (PCBNEW 7.0.10-7.0.10~ubuntu22.04.1) date 2024-02-09 13:23:23*
%MOMM*%
%LPD*%
G01*
G04 APERTURE LIST*
G04 Aperture macros list*
%AMRoundRect*
0 Rectangle with rounded corners*
0 $1 Rounding radius*
0 $2 $3 $4 $5 $6 $7 $8 $9 X,Y pos of 4 corners*
0 Add a 4 corners polygon primitive as box body*
4,1,4,$2,$3,$4,$5,$6,$7,$8,$9,$2,$3,0*
0 Add four circle primitives for the rounded corners*
1,1,$1+$1,$2,$3*
1,1,$1+$1,$4,$5*
1,1,$1+$1,$6,$7*
1,1,$1+$1,$8,$9*
0 Add four rect primitives between the rounded corners*
20,1,$1+$1,$2,$3,$4,$5,0*
20,1,$1+$1,$4,$5,$6,$7,0*
20,1,$1+$1,$6,$7,$8,$9,0*
20,1,$1+$1,$8,$9,$2,$3,0*%
%AMFreePoly0*
4,1,14,0.635355,0.435355,0.650000,0.400000,0.650000,0.200000,0.635355,0.164645,0.035355,-0.435355,0.000000,-0.450000,-0.035355,-0.435355,-0.635355,0.164645,-0.650000,0.200000,-0.650000,0.400000,-0.635355,0.435355,-0.600000,0.450000,0.600000,0.450000,0.635355,0.435355,0.635355,0.435355,$1*%
%AMFreePoly1*
4,1,16,0.635355,1.035355,0.650000,1.000000,0.650000,-0.250000,0.635355,-0.285355,0.600000,-0.300000,-0.600000,-0.300000,-0.635355,-0.285355,-0.650000,-0.250000,-0.650000,1.000000,-0.635355,1.035355,-0.600000,1.050000,-0.564645,1.035355,0.000000,0.470710,0.564645,1.035355,0.600000,1.050000,0.635355,1.035355,0.635355,1.035355,$1*%
G04 Aperture macros list end*
%ADD10RoundRect,0.050000X-0.450000X-0.450000X0.450000X-0.450000X0.450000X0.450000X-0.450000X0.450000X0*%
%ADD11C,1.100000*%
%ADD12RoundRect,0.050000X-0.450000X-0.625000X0.450000X-0.625000X0.450000X0.625000X-0.450000X0.625000X0*%
%ADD13C,1.801800*%
%ADD14C,3.100000*%
%ADD15C,3.529000*%
%ADD16RoundRect,0.050000X1.300000X1.300000X-1.300000X1.300000X-1.300000X-1.300000X1.300000X-1.300000X0*%
%ADD17RoundRect,0.050000X-0.450000X-0.600000X0.450000X-0.600000X0.450000X0.600000X-0.450000X0.600000X0*%
%ADD18C,0.700000*%
%ADD19RoundRect,0.050000X-0.876300X0.876300X-0.876300X-0.876300X0.876300X-0.876300X0.876300X0.876300X0*%
%ADD20C,1.852600*%
%ADD21RoundRect,0.050000X1.181751X1.408356X-1.408356X1.181751X-1.181751X-1.408356X1.408356X-1.181751X0*%
%ADD22C,4.800000*%
%ADD23C,4.100000*%
%ADD24FreePoly0,180.000000*%
%ADD25FreePoly1,180.000000*%
%ADD26FreePoly0,90.000000*%
%ADD27FreePoly1,90.000000*%
%ADD28FreePoly0,270.000000*%
%ADD29FreePoly1,270.000000*%
%ADD30RoundRect,0.050000X-0.395994X-0.636937X0.500581X-0.558497X0.395994X0.636937X-0.500581X0.558497X0*%
%ADD31RoundRect,0.050000X-0.700000X0.700000X-0.700000X-0.700000X0.700000X-0.700000X0.700000X0.700000X0*%
%ADD32C,1.500000*%
%ADD33O,1.800000X1.800000*%
%ADD34RoundRect,0.050000X-0.589958X-0.463087X0.279375X-0.696024X0.589958X0.463087X-0.279375X0.696024X0*%
%ADD35RoundRect,0.050000X-0.475833X1.775833X-1.775833X-0.475833X0.475833X-1.775833X1.775833X0.475833X0*%
%ADD36C,2.100000*%
%ADD37C,1.700000*%
%ADD38RoundRect,0.050000X1.592168X0.919239X-0.919239X1.592168X-1.592168X-0.919239X0.919239X-1.592168X0*%
%ADD39RoundRect,0.050000X-0.689711X-0.294615X0.089711X-0.744615X0.689711X0.294615X-0.089711X0.744615X0*%
G04 APERTURE END LIST*
D10*
%TO.C,T1*%
X160405700Y-53674001D03*
X160405700Y-55874001D03*
D11*
X162605700Y-54774001D03*
X165605700Y-54774001D03*
D10*
X167805700Y-53674001D03*
X167805700Y-55874001D03*
D12*
X161855700Y-56849001D03*
X164855700Y-56849001D03*
X166355700Y-56849001D03*
%TD*%
D13*
%TO.C,S20*%
X132105692Y-77074008D03*
D14*
X131605692Y-80824008D03*
X126605692Y-83024008D03*
X126605692Y-83024008D03*
D15*
X126605692Y-77074008D03*
D14*
X121605692Y-80824008D03*
D13*
X121105692Y-77074008D03*
D16*
X129880692Y-83024008D03*
X118330692Y-80824008D03*
%TD*%
D17*
%TO.C,D20*%
X88955699Y-71874007D03*
D18*
X89855699Y-71874007D03*
X91355699Y-71874007D03*
D17*
X92255699Y-71874007D03*
%TD*%
%TO.C,D26*%
X142955696Y-74374007D03*
D18*
X143855696Y-74374007D03*
X145355696Y-74374007D03*
D17*
X146255696Y-74374007D03*
%TD*%
D19*
%TO.C,MCU1*%
X171725688Y-57904005D03*
D20*
X156485688Y-57904005D03*
X156485688Y-60444005D03*
X156485688Y-62984005D03*
X156485688Y-65524005D03*
X156485688Y-68064005D03*
X156485688Y-70604005D03*
X156485688Y-73144005D03*
X156485688Y-75684005D03*
X156485688Y-78224005D03*
X156485688Y-80764005D03*
X156485688Y-83304005D03*
X156485688Y-85844005D03*
X171725688Y-57904005D03*
X171725688Y-60444005D03*
X171725688Y-62984005D03*
X171725688Y-65524005D03*
X171725688Y-68064005D03*
X171725688Y-70604005D03*
X171725688Y-73144005D03*
X171725688Y-75684005D03*
X171725688Y-78224005D03*
X171725688Y-80764005D03*
X171725688Y-83304005D03*
X171725688Y-85844005D03*
%TD*%
D13*
%TO.C,S22*%
X150105694Y-113574005D03*
D14*
X149605694Y-117324005D03*
X144605694Y-119524005D03*
X144605694Y-119524005D03*
D15*
X144605694Y-113574005D03*
D14*
X139605694Y-117324005D03*
D13*
X139105694Y-113574005D03*
D16*
X147880694Y-119524005D03*
X136330694Y-117324005D03*
%TD*%
D13*
%TO.C,S1*%
X60415238Y-124943808D03*
D14*
X60243975Y-128723116D03*
X55454744Y-131350523D03*
X55454744Y-131350523D03*
D15*
X54936167Y-125423165D03*
D14*
X50282028Y-129594674D03*
D13*
X49457096Y-125902522D03*
D21*
X58717281Y-131065088D03*
X47019490Y-129880109D03*
%TD*%
D13*
%TO.C,S9*%
X96105691Y-94074003D03*
D14*
X95605691Y-97824003D03*
X90605691Y-100024003D03*
X90605691Y-100024003D03*
D15*
X90605691Y-94074003D03*
D14*
X85605691Y-97824003D03*
D13*
X85105691Y-94074003D03*
D16*
X93880691Y-100024003D03*
X82330691Y-97824003D03*
%TD*%
D22*
%TO.C,_7*%
X117605698Y-119574006D03*
%TD*%
D17*
%TO.C,D19*%
X88955691Y-105874011D03*
D18*
X89855691Y-105874011D03*
X91355691Y-105874011D03*
D17*
X92255691Y-105874011D03*
%TD*%
%TO.C,D9*%
X124955694Y-137573999D03*
D18*
X125855694Y-137573999D03*
X127355694Y-137573999D03*
D17*
X128255694Y-137573999D03*
%TD*%
D22*
%TO.C,_6*%
X63161113Y-116171110D03*
%TD*%
D13*
%TO.C,S23*%
X150105690Y-96574001D03*
D14*
X149605690Y-100324001D03*
X144605690Y-102524001D03*
X144605690Y-102524001D03*
D15*
X144605690Y-96574001D03*
D14*
X139605690Y-100324001D03*
D13*
X139105690Y-96574001D03*
D16*
X147880690Y-102524001D03*
X136330690Y-100324001D03*
%TD*%
D23*
%TO.C,_3*%
X171605691Y-98873997D03*
%TD*%
D24*
%TO.C,J16*%
X161565699Y-90382000D03*
D25*
X161565699Y-89366000D03*
%TD*%
D13*
%TO.C,S2*%
X58933599Y-108008497D03*
D14*
X58762336Y-111787805D03*
X53973105Y-114415212D03*
X53973105Y-114415212D03*
D15*
X53454528Y-108487854D03*
D14*
X48800389Y-112659363D03*
D13*
X47975457Y-108967211D03*
D21*
X57235642Y-114129777D03*
X45537851Y-112944798D03*
%TD*%
D22*
%TO.C,_4*%
X79605694Y-68574003D03*
%TD*%
D17*
%TO.C,D22*%
X106955699Y-66264004D03*
D18*
X107855699Y-66264004D03*
X109355699Y-66264004D03*
D17*
X110255699Y-66264004D03*
%TD*%
D13*
%TO.C,S12*%
X114105694Y-122464005D03*
D14*
X113605694Y-126214005D03*
X108605694Y-128414005D03*
X108605694Y-128414005D03*
D15*
X108605694Y-122464005D03*
D14*
X103605694Y-126214005D03*
D13*
X103105694Y-122464005D03*
D16*
X111880694Y-128414005D03*
X100330694Y-126214005D03*
%TD*%
D13*
%TO.C,S24*%
X150105702Y-79574002D03*
D14*
X149605702Y-83324002D03*
X144605702Y-85524002D03*
X144605702Y-85524002D03*
D15*
X144605702Y-79574002D03*
D14*
X139605702Y-83324002D03*
D13*
X139105702Y-79574002D03*
D16*
X147880702Y-85524002D03*
X136330702Y-83324002D03*
%TD*%
D17*
%TO.C,D4*%
X88955699Y-103574005D03*
D18*
X89855699Y-103574005D03*
X91355699Y-103574005D03*
D17*
X92255699Y-103574005D03*
%TD*%
D22*
%TO.C,_8*%
X160984199Y-127797132D03*
%TD*%
D26*
%TO.C,J7*%
X161097692Y-60424001D03*
D27*
X162113692Y-60424001D03*
%TD*%
D26*
%TO.C,J2*%
X159347698Y-112304005D03*
D27*
X160363698Y-112304005D03*
%TD*%
D28*
%TO.C,J10*%
X167113695Y-62974005D03*
D29*
X166097695Y-62974005D03*
%TD*%
D17*
%TO.C,D8*%
X106955694Y-63964002D03*
D18*
X107855694Y-63964002D03*
X109355694Y-63964002D03*
D17*
X110255694Y-63964002D03*
%TD*%
D30*
%TO.C,D1*%
X52638789Y-118095508D03*
D18*
X53535364Y-118017068D03*
X55029656Y-117886334D03*
D30*
X55926231Y-117807894D03*
%TD*%
D13*
%TO.C,S3*%
X57451946Y-91073186D03*
D14*
X57280683Y-94852494D03*
X52491452Y-97479901D03*
X52491452Y-97479901D03*
D15*
X51972875Y-91552543D03*
D14*
X47318736Y-95724052D03*
D13*
X46493804Y-92031900D03*
D21*
X55753989Y-97194466D03*
X44056198Y-96009487D03*
%TD*%
D23*
%TO.C,_2*%
X156605701Y-98874007D03*
%TD*%
D13*
%TO.C,S10*%
X96105696Y-77074001D03*
D14*
X95605696Y-80824001D03*
X90605696Y-83024001D03*
X90605696Y-83024001D03*
D15*
X90605696Y-77074001D03*
D14*
X85605696Y-80824001D03*
D13*
X85105696Y-77074001D03*
D16*
X93880696Y-83024001D03*
X82330696Y-80824001D03*
%TD*%
D31*
%TO.C,*%
X156355698Y-54874006D03*
D32*
X171855698Y-54874006D03*
%TD*%
D13*
%TO.C,S6*%
X75383454Y-89504382D03*
D14*
X75212191Y-93283690D03*
X70422960Y-95911097D03*
X70422960Y-95911097D03*
D15*
X69904383Y-89983739D03*
D14*
X65250244Y-94155248D03*
D13*
X64425312Y-90463096D03*
D21*
X73685497Y-95625662D03*
X61987706Y-94440683D03*
%TD*%
D17*
%TO.C,D25*%
X142955694Y-108374009D03*
D18*
X143855694Y-108374009D03*
X145355694Y-108374009D03*
D17*
X146255694Y-108374009D03*
%TD*%
D24*
%TO.C,J15*%
X159025697Y-90382007D03*
D25*
X159025697Y-89366007D03*
%TD*%
D17*
%TO.C,D24*%
X124955695Y-71874001D03*
D18*
X125855695Y-71874001D03*
X127355695Y-71874001D03*
D17*
X128255695Y-71874001D03*
%TD*%
D13*
%TO.C,S16*%
X114105697Y-54464005D03*
D14*
X113605697Y-58214005D03*
X108605697Y-60414005D03*
X108605697Y-60414005D03*
D15*
X108605697Y-54464005D03*
D14*
X103605697Y-58214005D03*
D13*
X103105697Y-54464005D03*
D16*
X111880697Y-60414005D03*
X100330697Y-58214005D03*
%TD*%
D33*
%TO.C,Nice!View1*%
X166645699Y-92374001D03*
X169185699Y-92374001D03*
X164105699Y-92374001D03*
X161565699Y-92374001D03*
X159025699Y-92374001D03*
%TD*%
D17*
%TO.C,D10*%
X124955698Y-103574004D03*
D18*
X125855698Y-103574004D03*
X127355698Y-103574004D03*
D17*
X128255698Y-103574004D03*
%TD*%
%TO.C,D28*%
X156205696Y-122574004D03*
D18*
X157105696Y-122574004D03*
X158605696Y-122574004D03*
D17*
X159505696Y-122574004D03*
%TD*%
D13*
%TO.C,S5*%
X76865099Y-106439688D03*
D14*
X76693836Y-110218996D03*
X71904605Y-112846403D03*
X71904605Y-112846403D03*
D15*
X71386028Y-106919045D03*
D14*
X66731889Y-111090554D03*
D13*
X65906957Y-107398402D03*
D21*
X75167142Y-112560968D03*
X63469351Y-111375989D03*
%TD*%
D13*
%TO.C,S8*%
X96105702Y-111074006D03*
D14*
X95605702Y-114824006D03*
X90605702Y-117024006D03*
X90605702Y-117024006D03*
D15*
X90605702Y-111074006D03*
D14*
X85605702Y-114824006D03*
D13*
X85105702Y-111074006D03*
D16*
X93880702Y-117024006D03*
X82330702Y-114824006D03*
%TD*%
D26*
%TO.C,J8*%
X161097698Y-62974001D03*
D27*
X162113698Y-62974001D03*
%TD*%
D17*
%TO.C,D6*%
X106955698Y-131963998D03*
D18*
X107855698Y-131963998D03*
X109355698Y-131963998D03*
D17*
X110255698Y-131963998D03*
%TD*%
D34*
%TO.C,D14*%
X142553138Y-141213247D03*
D18*
X143422472Y-141446184D03*
X144871360Y-141834412D03*
D34*
X145740694Y-142067349D03*
%TD*%
D13*
%TO.C,S27*%
X166840443Y-138189733D03*
D14*
X169838038Y-140497746D03*
X169243294Y-145927873D03*
X169243294Y-145927873D03*
D15*
X164090443Y-142952873D03*
D14*
X164838038Y-149158000D03*
D13*
X161340443Y-147716013D03*
D35*
X170880794Y-143091640D03*
X163200538Y-151994233D03*
%TD*%
D17*
%TO.C,D23*%
X124955695Y-105874000D03*
D18*
X125855695Y-105874000D03*
X127355695Y-105874000D03*
D17*
X128255695Y-105874000D03*
%TD*%
%TO.C,D12*%
X142955701Y-106074002D03*
D18*
X143855701Y-106074002D03*
X145355701Y-106074002D03*
D17*
X146255701Y-106074002D03*
%TD*%
D13*
%TO.C,S19*%
X132105699Y-94074005D03*
D14*
X131605699Y-97824005D03*
X126605699Y-100024005D03*
X126605699Y-100024005D03*
D15*
X126605699Y-94074005D03*
D14*
X121605699Y-97824005D03*
D13*
X121105699Y-94074005D03*
D16*
X129880699Y-100024005D03*
X118330699Y-97824005D03*
%TD*%
D13*
%TO.C,S14*%
X114105694Y-88464004D03*
D14*
X113605694Y-92214004D03*
X108605694Y-94414004D03*
X108605694Y-94414004D03*
D15*
X108605694Y-88464004D03*
D14*
X103605694Y-92214004D03*
D13*
X103105694Y-88464004D03*
D16*
X111880694Y-94414004D03*
X100330694Y-92214004D03*
%TD*%
D13*
%TO.C,S13*%
X114105698Y-105464004D03*
D14*
X113605698Y-109214004D03*
X108605698Y-111414004D03*
X108605698Y-111414004D03*
D15*
X108605698Y-105464004D03*
D14*
X103605698Y-109214004D03*
D13*
X103105698Y-105464004D03*
D16*
X111880698Y-111414004D03*
X100330698Y-109214004D03*
%TD*%
D13*
%TO.C,S18*%
X132105698Y-111074008D03*
D14*
X131605698Y-114824008D03*
X126605698Y-117024008D03*
X126605698Y-117024008D03*
D15*
X126605698Y-111074008D03*
D14*
X121605698Y-114824008D03*
D13*
X121105698Y-111074008D03*
D16*
X129880698Y-117024008D03*
X118330698Y-114824008D03*
%TD*%
D36*
%TO.C,_1*%
X160855690Y-98874000D03*
X167355690Y-98874000D03*
%TD*%
D30*
%TO.C,D16*%
X49875945Y-86516140D03*
D18*
X50772520Y-86437700D03*
X52266812Y-86306966D03*
D30*
X53163387Y-86228526D03*
%TD*%
%TO.C,D17*%
X70770747Y-118817960D03*
D18*
X71667322Y-118739520D03*
X73161614Y-118608786D03*
D30*
X74058189Y-118530346D03*
%TD*%
D17*
%TO.C,D13*%
X142955702Y-72074001D03*
D18*
X143855702Y-72074001D03*
X145355702Y-72074001D03*
D17*
X146255702Y-72074001D03*
%TD*%
D37*
%TO.C,REF\u002A\u002A*%
X157230689Y-109764005D03*
X157230689Y-112304005D03*
X157230689Y-114844005D03*
X157230689Y-117384005D03*
X156005689Y-107374005D03*
X156005689Y-119774005D03*
X157855689Y-107374005D03*
X157855689Y-119774005D03*
%TD*%
D13*
%TO.C,S15*%
X114105698Y-71464005D03*
D14*
X113605698Y-75214005D03*
X108605698Y-77414005D03*
X108605698Y-77414005D03*
D15*
X108605698Y-71464005D03*
D14*
X103605698Y-75214005D03*
D13*
X103105698Y-71464005D03*
D16*
X111880698Y-77414005D03*
X100330698Y-75214005D03*
%TD*%
D13*
%TO.C,S21*%
X132105690Y-60074001D03*
D14*
X131605690Y-63824001D03*
X126605690Y-66024001D03*
X126605690Y-66024001D03*
D15*
X126605690Y-60074001D03*
D14*
X121605690Y-63824001D03*
D13*
X121105690Y-60074001D03*
D16*
X129880690Y-66024001D03*
X118330690Y-63824001D03*
%TD*%
D24*
%TO.C,J17*%
X164105695Y-90382002D03*
D25*
X164105695Y-89366002D03*
%TD*%
D30*
%TO.C,D15*%
X52839240Y-120386761D03*
D18*
X53735815Y-120308321D03*
X55230107Y-120177587D03*
D30*
X56126682Y-120099147D03*
%TD*%
D13*
%TO.C,S11*%
X96105698Y-60074002D03*
D14*
X95605698Y-63824002D03*
X90605698Y-66024002D03*
X90605698Y-66024002D03*
D15*
X90605698Y-60074002D03*
D14*
X85605698Y-63824002D03*
D13*
X85105698Y-60074002D03*
D16*
X93880698Y-66024002D03*
X82330698Y-63824002D03*
%TD*%
D30*
%TO.C,D2*%
X70570285Y-116526704D03*
D18*
X71466860Y-116448264D03*
X72961152Y-116317530D03*
D30*
X73857727Y-116239090D03*
%TD*%
D13*
%TO.C,S26*%
X151918293Y-133887513D03*
D14*
X150464759Y-137380325D03*
X145065728Y-138211267D03*
X145065728Y-138211267D03*
D15*
X146605701Y-132464008D03*
D14*
X140805500Y-134792135D03*
D13*
X141293109Y-131040503D03*
D38*
X148229135Y-139058899D03*
X137642093Y-133944502D03*
%TD*%
D30*
%TO.C,D3*%
X67606995Y-82656078D03*
D18*
X68503570Y-82577638D03*
X69997862Y-82446904D03*
D30*
X70894437Y-82368464D03*
%TD*%
D13*
%TO.C,S7*%
X73901813Y-72569071D03*
D14*
X73730550Y-76348379D03*
X68941319Y-78975786D03*
X68941319Y-78975786D03*
D15*
X68422742Y-73048428D03*
D14*
X63768603Y-77219937D03*
D13*
X62943671Y-73527785D03*
D21*
X72203856Y-78690351D03*
X60506065Y-77505372D03*
%TD*%
D39*
%TO.C,D27*%
X165932968Y-134461509D03*
D18*
X166712391Y-134911509D03*
X168011429Y-135661509D03*
D39*
X168790852Y-136111509D03*
%TD*%
D13*
%TO.C,S25*%
X150105694Y-62574002D03*
D14*
X149605694Y-66324002D03*
X144605694Y-68524002D03*
X144605694Y-68524002D03*
D15*
X144605694Y-62574002D03*
D14*
X139605694Y-66324002D03*
D13*
X139105694Y-62574002D03*
D16*
X147880694Y-68524002D03*
X136330694Y-66324002D03*
%TD*%
D17*
%TO.C,D21*%
X106955700Y-100264000D03*
D18*
X107855700Y-100264000D03*
X109355700Y-100264000D03*
D17*
X110255700Y-100264000D03*
%TD*%
D13*
%TO.C,S4*%
X78346756Y-123375000D03*
D14*
X78175493Y-127154308D03*
X73386262Y-129781715D03*
X73386262Y-129781715D03*
D15*
X72867685Y-123854357D03*
D14*
X68213546Y-128025866D03*
D13*
X67388614Y-124333714D03*
D21*
X76648799Y-129496280D03*
X64951008Y-128311301D03*
%TD*%
D13*
%TO.C,S17*%
X132105699Y-128073999D03*
D14*
X131605699Y-131823999D03*
X126605699Y-134023999D03*
X126605699Y-134023999D03*
D15*
X126605699Y-128073999D03*
D14*
X121605699Y-131823999D03*
D13*
X121105699Y-128073999D03*
D16*
X129880699Y-134023999D03*
X118330699Y-131823999D03*
%TD*%
D26*
%TO.C,J9*%
X161097688Y-65523999D03*
D27*
X162113688Y-65523999D03*
%TD*%
D22*
%TO.C,_5*%
X135605700Y-69823998D03*
%TD*%
D17*
%TO.C,D11*%
X124955699Y-69574006D03*
D18*
X125855699Y-69574006D03*
X127355699Y-69574006D03*
D17*
X128255699Y-69574006D03*
%TD*%
D26*
%TO.C,J3*%
X159347696Y-114844003D03*
D27*
X160363696Y-114844003D03*
%TD*%
D24*
%TO.C,J19*%
X169185693Y-90382002D03*
D25*
X169185693Y-89366002D03*
%TD*%
D17*
%TO.C,D5*%
X88955704Y-69574007D03*
D18*
X89855704Y-69574007D03*
X91355704Y-69574007D03*
D17*
X92255704Y-69574007D03*
%TD*%
D26*
%TO.C,J1*%
X159347701Y-109764009D03*
D27*
X160363701Y-109764009D03*
%TD*%
D17*
%TO.C,D7*%
X106955698Y-97964002D03*
D18*
X107855698Y-97964002D03*
X109355698Y-97964002D03*
D17*
X110255698Y-97964002D03*
%TD*%
D30*
%TO.C,D18*%
X67807446Y-84947330D03*
D18*
X68704021Y-84868890D03*
X70198313Y-84738156D03*
D30*
X71094888Y-84659716D03*
%TD*%
D24*
%TO.C,J18*%
X166645694Y-90382002D03*
D25*
X166645694Y-89366002D03*
%TD*%
M02*
