M48
; DRILL file {KiCad 7.0.10-7.0.10~ubuntu22.04.1} date Fri 09 Feb 2024 01:23:24 PM CET
; FORMAT={-:-/ absolute / metric / decimal}
; #@! TF.CreationDate,2024-02-09T13:23:24+01:00
; #@! TF.GenerationSoftware,Kicad,Pcbnew,7.0.10-7.0.10~ubuntu22.04.1
; #@! TF.FileFunction,NonPlated,1,2,NPTH
FMAT,2
METRIC
; #@! TA.AperFunction,NonPlated,NPTH,ComponentDrill
T1C0.900
; #@! TA.AperFunction,NonPlated,NPTH,ComponentDrill
T2C1.702
; #@! TA.AperFunction,NonPlated,NPTH,ComponentDrill
T3C3.000
; #@! TA.AperFunction,NonPlated,NPTH,ComponentDrill
T4C3.429
%
G90
G05
T1
X162.606Y-54.774
X165.606Y-54.774
T2
X46.494Y-92.032
X47.975Y-108.967
X49.457Y-125.903
X57.452Y-91.073
X58.934Y-108.008
X60.415Y-124.944
X62.944Y-73.528
X64.425Y-90.463
X65.907Y-107.398
X67.389Y-124.334
X73.902Y-72.569
X75.383Y-89.504
X76.865Y-106.44
X78.347Y-123.375
X85.106Y-94.074
X85.106Y-77.074
X85.106Y-60.074
X85.106Y-111.074
X96.106Y-94.074
X96.106Y-77.074
X96.106Y-60.074
X96.106Y-111.074
X103.106Y-88.464
X103.106Y-122.464
X103.106Y-54.464
X103.106Y-71.464
X103.106Y-105.464
X114.106Y-88.464
X114.106Y-122.464
X114.106Y-54.464
X114.106Y-71.464
X114.106Y-105.464
X121.106Y-60.074
X121.106Y-77.074
X121.106Y-111.074
X121.106Y-94.074
X121.106Y-128.074
X132.106Y-60.074
X132.106Y-77.074
X132.106Y-111.074
X132.106Y-94.074
X132.106Y-128.074
X139.106Y-96.574
X139.106Y-62.574
X139.106Y-113.574
X139.106Y-79.574
X141.293Y-131.041
X150.106Y-96.574
X150.106Y-62.574
X150.106Y-113.574
X150.106Y-79.574
X151.918Y-133.888
X161.34Y-147.716
X166.84Y-138.19
T3
X47.319Y-95.724
X48.8Y-112.659
X50.282Y-129.595
X52.491Y-97.48
X52.491Y-97.48
X53.973Y-114.415
X53.973Y-114.415
X55.455Y-131.351
X55.455Y-131.351
X57.281Y-94.852
X58.762Y-111.788
X60.244Y-128.723
X63.769Y-77.22
X65.25Y-94.155
X66.732Y-111.091
X68.214Y-128.026
X68.941Y-78.976
X68.941Y-78.976
X70.423Y-95.911
X70.423Y-95.911
X71.905Y-112.846
X71.905Y-112.846
X73.386Y-129.782
X73.386Y-129.782
X73.731Y-76.348
X75.212Y-93.284
X76.694Y-110.219
X78.175Y-127.154
X85.606Y-97.824
X85.606Y-80.824
X85.606Y-63.824
X85.606Y-114.824
X90.606Y-100.024
X90.606Y-100.024
X90.606Y-83.024
X90.606Y-83.024
X90.606Y-66.024
X90.606Y-66.024
X90.606Y-117.024
X90.606Y-117.024
X95.606Y-97.824
X95.606Y-80.824
X95.606Y-63.824
X95.606Y-114.824
X103.606Y-92.214
X103.606Y-126.214
X103.606Y-58.214
X103.606Y-75.214
X103.606Y-109.214
X108.606Y-94.414
X108.606Y-94.414
X108.606Y-128.414
X108.606Y-128.414
X108.606Y-60.414
X108.606Y-60.414
X108.606Y-77.414
X108.606Y-77.414
X108.606Y-111.414
X108.606Y-111.414
X113.606Y-92.214
X113.606Y-126.214
X113.606Y-58.214
X113.606Y-75.214
X113.606Y-109.214
X121.606Y-63.824
X121.606Y-80.824
X121.606Y-114.824
X121.606Y-97.824
X121.606Y-131.824
X126.606Y-66.024
X126.606Y-66.024
X126.606Y-83.024
X126.606Y-83.024
X126.606Y-117.024
X126.606Y-117.024
X126.606Y-100.024
X126.606Y-100.024
X126.606Y-134.024
X126.606Y-134.024
X131.606Y-63.824
X131.606Y-80.824
X131.606Y-114.824
X131.606Y-97.824
X131.606Y-131.824
X139.606Y-100.324
X139.606Y-66.324
X139.606Y-117.324
X139.606Y-83.324
X140.805Y-134.792
X144.606Y-102.524
X144.606Y-102.524
X144.606Y-68.524
X144.606Y-68.524
X144.606Y-119.524
X144.606Y-119.524
X144.606Y-85.524
X144.606Y-85.524
X145.066Y-138.211
X145.066Y-138.211
X149.606Y-100.324
X149.606Y-66.324
X149.606Y-117.324
X149.606Y-83.324
X150.465Y-137.38
X164.838Y-149.158
X169.243Y-145.928
X169.243Y-145.928
X169.838Y-140.498
T4
X51.973Y-91.553
X53.455Y-108.488
X54.936Y-125.423
X68.423Y-73.048
X69.904Y-89.984
X71.386Y-106.919
X72.868Y-123.854
X90.606Y-94.074
X90.606Y-77.074
X90.606Y-60.074
X90.606Y-111.074
X108.606Y-88.464
X108.606Y-122.464
X108.606Y-54.464
X108.606Y-71.464
X108.606Y-105.464
X126.606Y-60.074
X126.606Y-77.074
X126.606Y-111.074
X126.606Y-94.074
X126.606Y-128.074
X144.606Y-96.574
X144.606Y-62.574
X144.606Y-113.574
X144.606Y-79.574
X146.606Y-132.464
X164.09Y-142.953
M30
