0
SECTION
2
HEADER
9
$INSUNITS
70
4
0
ENDSEC
0
SECTION
2
TABLES
0
TABLE
2
LTYPE
0
LTYPE
72
65
70
64
2
CONTINUOUS
3
______
73
0
40
0
0
ENDTAB
0
TABLE
2
LAYER
0
ENDTAB
0
ENDSEC
0
SECTION
2
ENTITIES
0
LINE
8
0
10
47.7233632
20
-86.5320081
11
52.0931698
21
-136.4791253
0
LINE
8
0
10
48.2210045
20
-85.0288898
11
63.8968888
21
-67.3954028
0
LINE
8
0
10
64.3572593
20
-67.0124671
11
86.8633229
21
-53.4124275
0
LINE
8
0
10
87.3026004
20
-53.2147578
11
104.7803165
21
-47.7675362
0
LINE
8
0
10
105.3754167
20
-47.6769486
11
124.8454267
21
-47.6769486
0
LINE
8
0
10
125.2908527
20
-47.7271805
11
159.016398
21
-55.4318051
0
LINE
8
0
10
160.570972
20
-57.3815732
11
160.570972
21
-102.2869487
0
LINE
8
0
10
162.570972
20
-104.2869487
11
178.820972
21
-104.2869487
0
LINE
8
0
10
180.820972
20
-106.2869487
11
180.820972
21
-125.6030296
0
LINE
8
0
10
180.8545146
20
-125.9677834
11
183.6483598
21
-141.0299394
0
LINE
8
0
10
183.4139533
20
-142.3946932
11
174.6269734
21
-157.6141888
0
LINE
8
0
10
172.2000692
20
-158.4896031
11
123.2595624
21
-140.3568227
0
LINE
8
0
10
122.8722457
20
-140.2560231
11
90.3628218
21
-135.196936
0
LINE
8
0
10
89.8809737
20
-135.1807605
11
54.2598706
21
-138.2972033
0
ARC
8
0
10
49.7157527
20
-86.3576967
40
2
50
138.3634216
51
184.9999976
0
ARC
8
0
10
65.3916369
20
-68.7242098
40
2
50
121.1438711
51
138.3634216
0
ARC
8
0
10
87.8977006
20
-55.1241702
40
2
50
107.3105158
51
121.1438711
0
ARC
8
0
10
105.3754167
20
-49.6769486
40
2
50
90
51
107.3105158
0
ARC
8
0
10
124.8454267
20
-49.6769486
40
2
50
77.1315699
51
90
0
ARC
8
0
10
158.570972
20
-57.3815732
40
2
50
0
51
77.1315699
0
ARC
8
0
10
162.570972
20
-102.2869487
40
2
50
180
51
270
0
ARC
8
0
10
178.820972
20
-106.2869487
40
2
50
0
51
90
0
ARC
8
0
10
182.820972
20
-125.6030296
40
2
50
180
51
190.5082382
0
ARC
8
0
10
181.6819025
20
-141.3946932
40
2
50
329.9999999
51
10.5082382
0
ARC
8
0
10
172.8949226
20
-156.6141888
40
2
50
249.67
51
329.9999999
0
ARC
8
0
10
122.5647091
20
-142.232237
40
2
50
69.67
51
81.154631
0
ARC
8
0
10
90.0552851
20
-137.1731499
40
2
50
81.154631
51
94.9999976
0
ARC
8
0
10
54.0855592
20
-136.3048139
40
2
50
184.9999976
51
274.9999976
0
LINE
8
0
10
55.038176
20
-135.7195608
11
68.9849018
21
-134.4993804
0
LINE
8
0
10
68.9849018
20
-134.4993804
11
67.7647214
21
-120.5526546
0
LINE
8
0
10
67.7647214
20
-120.5526546
11
53.8179956
21
-121.772835
0
LINE
8
0
10
53.8179956
20
-121.772835
11
55.038176
21
-135.7195608
0
LINE
8
0
10
53.5565284
20
-118.7842509
11
67.5032542
21
-117.5640705
0
LINE
8
0
10
67.5032542
20
-117.5640705
11
66.2830738
21
-103.6173447
0
LINE
8
0
10
66.2830738
20
-103.6173447
11
52.336348
21
-104.8375251
0
LINE
8
0
10
52.336348
20
-104.8375251
11
53.5565284
21
-118.7842509
0
LINE
8
0
10
52.0748807
20
-101.8489411
11
66.0216065
21
-100.6287607
0
LINE
8
0
10
66.0216065
20
-100.6287607
11
64.8014261
21
-86.6820349
0
LINE
8
0
10
64.8014261
20
-86.6820349
11
50.8547003
21
-87.9022153
0
LINE
8
0
10
50.8547003
20
-87.9022153
11
52.0748807
21
-101.8489411
0
LINE
8
0
10
72.9696806
20
-134.1507574
11
86.9164064
21
-132.930577
0
LINE
8
0
10
86.9164064
20
-132.930577
11
85.696226
21
-118.9838512
0
LINE
8
0
10
85.696226
20
-118.9838512
11
71.7495002
21
-120.2040316
0
LINE
8
0
10
71.7495002
20
-120.2040316
11
72.9696806
21
-134.1507574
0
LINE
8
0
10
71.4880329
20
-117.2154476
11
85.4347587
21
-115.9952672
0
LINE
8
0
10
85.4347587
20
-115.9952672
11
84.2145783
21
-102.0485414
0
LINE
8
0
10
84.2145783
20
-102.0485414
11
70.2678525
21
-103.2687218
0
LINE
8
0
10
70.2678525
20
-103.2687218
11
71.4880329
21
-117.2154476
0
LINE
8
0
10
70.0063853
20
-100.2801377
11
83.9531111
21
-99.0599573
0
LINE
8
0
10
83.9531111
20
-99.0599573
11
82.7329307
21
-85.1132315
0
LINE
8
0
10
82.7329307
20
-85.1132315
11
68.7862049
21
-86.3334119
0
LINE
8
0
10
68.7862049
20
-86.3334119
11
70.0063853
21
-100.2801377
0
LINE
8
0
10
68.5247377
20
-83.3448278
11
82.4714635
21
-82.1246474
0
LINE
8
0
10
82.4714635
20
-82.1246474
11
81.2512831
21
-68.1779216
0
LINE
8
0
10
81.2512831
20
-68.1779216
11
67.3045573
21
-69.398102
0
LINE
8
0
10
67.3045573
20
-69.398102
11
68.5247377
21
-83.3448278
0
LINE
8
0
10
90.0709721
20
-120.7869487
11
104.0709721
21
-120.7869487
0
LINE
8
0
10
104.0709721
20
-120.7869487
11
104.0709721
21
-106.7869487
0
LINE
8
0
10
104.0709721
20
-106.7869487
11
90.0709721
21
-106.7869487
0
LINE
8
0
10
90.0709721
20
-106.7869487
11
90.0709721
21
-120.7869487
0
LINE
8
0
10
90.0709721
20
-103.7869487
11
104.0709721
21
-103.7869487
0
LINE
8
0
10
104.0709721
20
-103.7869487
11
104.0709721
21
-89.7869487
0
LINE
8
0
10
104.0709721
20
-89.7869487
11
90.0709721
21
-89.7869487
0
LINE
8
0
10
90.0709721
20
-89.7869487
11
90.0709721
21
-103.7869487
0
LINE
8
0
10
90.070972
20
-86.7869487
11
104.070972
21
-86.7869487
0
LINE
8
0
10
104.070972
20
-86.7869487
11
104.070972
21
-72.7869487
0
LINE
8
0
10
104.070972
20
-72.7869487
11
90.070972
21
-72.7869487
0
LINE
8
0
10
90.070972
20
-72.7869487
11
90.070972
21
-86.7869487
0
LINE
8
0
10
90.070972
20
-69.7869486
11
104.070972
21
-69.7869486
0
LINE
8
0
10
104.070972
20
-69.7869486
11
104.070972
21
-55.7869486
0
LINE
8
0
10
104.070972
20
-55.7869486
11
90.070972
21
-55.7869486
0
LINE
8
0
10
90.070972
20
-55.7869486
11
90.070972
21
-69.7869486
0
LINE
8
0
10
108.070972
20
-132.1769487
11
122.070972
21
-132.1769487
0
LINE
8
0
10
122.070972
20
-132.1769487
11
122.070972
21
-118.1769487
0
LINE
8
0
10
122.070972
20
-118.1769487
11
108.070972
21
-118.1769487
0
LINE
8
0
10
108.070972
20
-118.1769487
11
108.070972
21
-132.1769487
0
LINE
8
0
10
108.070972
20
-115.1769487
11
122.070972
21
-115.1769487
0
LINE
8
0
10
122.070972
20
-115.1769487
11
122.070972
21
-101.1769487
0
LINE
8
0
10
122.070972
20
-101.1769487
11
108.070972
21
-101.1769487
0
LINE
8
0
10
108.070972
20
-101.1769487
11
108.070972
21
-115.1769487
0
LINE
8
0
10
108.070972
20
-98.1769487
11
122.070972
21
-98.1769487
0
LINE
8
0
10
122.070972
20
-98.1769487
11
122.070972
21
-84.1769487
0
LINE
8
0
10
122.070972
20
-84.1769487
11
108.070972
21
-84.1769487
0
LINE
8
0
10
108.070972
20
-84.1769487
11
108.070972
21
-98.1769487
0
LINE
8
0
10
108.0709719
20
-81.1769487
11
122.0709719
21
-81.1769487
0
LINE
8
0
10
122.0709719
20
-81.1769487
11
122.0709719
21
-67.1769487
0
LINE
8
0
10
122.0709719
20
-67.1769487
11
108.0709719
21
-67.1769487
0
LINE
8
0
10
108.0709719
20
-67.1769487
11
108.0709719
21
-81.1769487
0
LINE
8
0
10
108.0709719
20
-64.1769486
11
122.0709719
21
-64.1769486
0
LINE
8
0
10
122.0709719
20
-64.1769486
11
122.0709719
21
-50.1769486
0
LINE
8
0
10
122.0709719
20
-50.1769486
11
108.0709719
21
-50.1769486
0
LINE
8
0
10
108.0709719
20
-50.1769486
11
108.0709719
21
-64.1769486
0
LINE
8
0
10
126.0709721
20
-137.7869487
11
140.0709721
21
-137.7869487
0
LINE
8
0
10
140.0709721
20
-137.7869487
11
140.0709721
21
-123.7869487
0
LINE
8
0
10
140.0709721
20
-123.7869487
11
126.0709721
21
-123.7869487
0
LINE
8
0
10
126.0709721
20
-123.7869487
11
126.0709721
21
-137.7869487
0
LINE
8
0
10
126.0709721
20
-120.7869487
11
140.0709721
21
-120.7869487
0
LINE
8
0
10
140.0709721
20
-120.7869487
11
140.0709721
21
-106.7869487
0
LINE
8
0
10
140.0709721
20
-106.7869487
11
126.0709721
21
-106.7869487
0
LINE
8
0
10
126.0709721
20
-106.7869487
11
126.0709721
21
-120.7869487
0
LINE
8
0
10
126.070972
20
-103.7869487
11
140.070972
21
-103.7869487
0
LINE
8
0
10
140.070972
20
-103.7869487
11
140.070972
21
-89.7869487
0
LINE
8
0
10
140.070972
20
-89.7869487
11
126.070972
21
-89.7869487
0
LINE
8
0
10
126.070972
20
-89.7869487
11
126.070972
21
-103.7869487
0
LINE
8
0
10
126.070972
20
-86.7869486
11
140.070972
21
-86.7869486
0
LINE
8
0
10
140.070972
20
-86.7869486
11
140.070972
21
-72.7869486
0
LINE
8
0
10
140.070972
20
-72.7869486
11
126.070972
21
-72.7869486
0
LINE
8
0
10
126.070972
20
-72.7869486
11
126.070972
21
-86.7869486
0
LINE
8
0
10
126.070972
20
-69.7869486
11
140.070972
21
-69.7869486
0
LINE
8
0
10
140.070972
20
-69.7869486
11
140.070972
21
-55.7869486
0
LINE
8
0
10
140.070972
20
-55.7869486
11
126.070972
21
-55.7869486
0
LINE
8
0
10
126.070972
20
-55.7869486
11
126.070972
21
-69.7869486
0
LINE
8
0
10
144.070972
20
-123.2869487
11
158.070972
21
-123.2869487
0
LINE
8
0
10
158.070972
20
-123.2869487
11
158.070972
21
-109.2869487
0
LINE
8
0
10
158.070972
20
-109.2869487
11
144.070972
21
-109.2869487
0
LINE
8
0
10
144.070972
20
-109.2869487
11
144.070972
21
-123.2869487
0
LINE
8
0
10
144.070972
20
-106.2869486
11
158.070972
21
-106.2869486
0
LINE
8
0
10
158.070972
20
-106.2869486
11
158.070972
21
-92.2869486
0
LINE
8
0
10
158.070972
20
-92.2869486
11
144.070972
21
-92.2869486
0
LINE
8
0
10
144.070972
20
-92.2869486
11
144.070972
21
-106.2869486
0
LINE
8
0
10
144.070972
20
-89.2869486
11
158.070972
21
-89.2869486
0
LINE
8
0
10
158.070972
20
-89.2869486
11
158.070972
21
-75.2869486
0
LINE
8
0
10
158.070972
20
-75.2869486
11
144.070972
21
-75.2869486
0
LINE
8
0
10
144.070972
20
-75.2869486
11
144.070972
21
-89.2869486
0
LINE
8
0
10
144.070972
20
-72.2869486
11
158.070972
21
-72.2869486
0
LINE
8
0
10
158.070972
20
-72.2869486
11
158.070972
21
-58.2869486
0
LINE
8
0
10
158.070972
20
-58.2869486
11
144.070972
21
-58.2869486
0
LINE
8
0
10
144.070972
20
-58.2869486
11
144.070972
21
-72.2869486
0
LINE
8
0
10
144.4977578
20
-140.1266961
11
158.0207194
21
-143.7501627
0
LINE
8
0
10
158.0207194
20
-143.7501627
11
161.644186
21
-130.2272011
0
LINE
8
0
10
161.644186
20
-130.2272011
11
148.1212244
21
-126.6037345
0
LINE
8
0
10
148.1212244
20
-126.6037345
11
144.4977578
21
-140.1266961
0
LINE
8
0
10
173.1178909
20
-155.2279963
11
180.1178909
21
-143.1036407
0
LINE
8
0
10
180.1178909
20
-143.1036407
11
167.9935353
21
-136.1036407
0
LINE
8
0
10
167.9935353
20
-136.1036407
11
160.9935353
21
-148.2279963
0
LINE
8
0
10
160.9935353
20
-148.2279963
11
173.1178909
21
-155.2279963
0
LINE
8
0
10
160.570972
20
-123.5369487
11
178.070972
21
-123.5369487
0
LINE
8
0
10
178.070972
20
-123.5369487
11
178.070972
21
-109.0369487
0
LINE
8
0
10
178.070972
20
-109.0369487
11
160.570972
21
-109.0369487
0
LINE
8
0
10
160.570972
20
-109.0369487
11
160.570972
21
-123.5369487
0
ENDSEC
0
EOF