M48
; DRILL file {KiCad 7.0.6-7.0.6~ubuntu20.04.1} date Sat 05 Aug 2023 11:34:35 AM CEST
; FORMAT={-:-/ absolute / metric / decimal}
; #@! TF.CreationDate,2023-08-05T11:34:35+02:00
; #@! TF.GenerationSoftware,Kicad,Pcbnew,7.0.6-7.0.6~ubuntu20.04.1
; #@! TF.FileFunction,Plated,1,2,PTH
FMAT,2
METRIC
; #@! TA.AperFunction,Plated,PTH,ComponentDrill
T1C0.300
; #@! TA.AperFunction,Plated,PTH,ViaDrill
T2C0.400
; #@! TA.AperFunction,Plated,PTH,ComponentDrill
T3C0.800
; #@! TA.AperFunction,Plated,PTH,ComponentDrill
T4C0.900
; #@! TA.AperFunction,Plated,PTH,ComponentDrill
T5C1.000
; #@! TA.AperFunction,Plated,PTH,ComponentDrill
T6C1.092
; #@! TA.AperFunction,Plated,PTH,ComponentDrill
T7C1.100
; #@! TA.AperFunction,Plated,PTH,ComponentDrill
T8C1.300
; #@! TA.AperFunction,Plated,PTH,ComponentDrill
T9C2.200
; #@! TA.AperFunction,Plated,PTH,ComponentDrill
T10C4.100
%
G90
G05
T1
X57.639Y-96.193
X59.133Y-96.063
X74.089Y-77.689
X75.583Y-77.558
X76.851Y-109.269
X77.052Y-111.56
X78.346Y-109.138
X78.546Y-111.429
X91.82Y-73.829
X92.02Y-76.12
X93.314Y-73.698
X93.514Y-75.99
X94.783Y-107.7
X94.983Y-109.991
X96.277Y-107.569
X96.478Y-109.86
X113.172Y-60.825
X113.172Y-94.825
X113.172Y-63.125
X113.172Y-97.125
X114.672Y-60.825
X114.672Y-94.825
X114.672Y-63.125
X114.672Y-97.125
X131.172Y-57.515
X131.172Y-123.215
X131.172Y-91.515
X131.172Y-89.215
X131.172Y-55.215
X132.672Y-57.515
X132.672Y-123.215
X132.672Y-91.515
X132.672Y-89.215
X132.672Y-55.215
X149.172Y-97.125
X149.172Y-94.825
X149.172Y-60.825
X149.172Y-128.825
X149.172Y-63.125
X150.672Y-97.125
X150.672Y-94.825
X150.672Y-60.825
X150.672Y-128.825
X150.672Y-63.125
X166.739Y-132.698
X167.172Y-65.625
X167.172Y-63.325
X167.172Y-97.325
X167.172Y-99.625
X168.187Y-133.086
X168.672Y-65.625
X168.672Y-63.325
X168.672Y-97.325
X168.672Y-99.625
X180.422Y-113.825
X181.922Y-113.825
X190.029Y-126.163
X191.328Y-126.913
T2
X56.139Y-103.139
X61.974Y-104.436
X72.598Y-84.634
X74.02Y-101.577
X75.554Y-118.508
X78.014Y-94.765
X78.434Y-85.931
X79.094Y-93.483
X79.856Y-102.873
X81.389Y-119.804
X83.644Y-109.865
X84.314Y-112.405
X89.005Y-66.124
X90.539Y-83.055
X91.961Y-99.997
X93.495Y-116.928
X94.841Y-67.42
X96.374Y-84.351
X97.047Y-92.64
X97.796Y-101.294
X98.024Y-75.865
X98.914Y-90.425
X99.33Y-118.225
X100.884Y-109.705
X109.364Y-82.845
X111.022Y-86.909
X111.029Y-52.907
X111.074Y-103.909
X111.082Y-69.907
X116.722Y-88.709
X116.729Y-80.547
X116.729Y-54.707
X116.774Y-105.709
X116.782Y-71.707
X118.444Y-96.625
X119.754Y-77.835
X129.012Y-81.299
X129.015Y-115.301
X129.019Y-47.297
X129.064Y-98.299
X129.072Y-64.297
X134.044Y-108.295
X134.712Y-83.099
X134.715Y-117.101
X134.719Y-49.097
X134.719Y-78.369
X134.764Y-100.099
X134.772Y-66.097
X136.214Y-74.135
X141.514Y-97.515
X145.614Y-79.855
X147.012Y-86.919
X147.019Y-52.917
X147.021Y-120.911
X147.064Y-103.919
X147.072Y-69.917
X151.984Y-113.595
X152.712Y-88.719
X152.719Y-54.717
X152.719Y-83.322
X152.721Y-122.711
X152.764Y-105.719
X152.772Y-71.717
X153.174Y-116.115
X154.494Y-95.375
X165.012Y-89.409
X165.019Y-55.407
X165.064Y-106.409
X165.072Y-72.407
X166.709Y-124.499
X170.712Y-91.209
X170.719Y-57.207
X170.764Y-108.209
X170.772Y-74.207
X171.584Y-85.145
X171.748Y-127.713
X172.6Y-64.0
X173.434Y-99.955
X173.857Y-82.321
X173.857Y-79.322
X173.857Y-80.322
X173.857Y-81.321
X173.857Y-83.32
X174.324Y-122.345
X174.6Y-66.8
X175.6Y-85.665
X175.674Y-110.915
X175.674Y-98.7
X175.674Y-97.415
X176.673Y-85.665
X177.8Y-85.665
X178.204Y-93.795
X179.8Y-83.8
X182.319Y-59.407
X182.342Y-79.707
X184.532Y-135.445
X184.882Y-79.707
X184.919Y-61.807
X186.219Y-60.707
X186.412Y-55.207
X186.419Y-58.507
X187.119Y-99.907
X187.282Y-137.522
X187.419Y-51.707
X187.422Y-79.707
X187.422Y-56.878
X188.066Y-127.324
X188.067Y-103.555
X188.296Y-53.107
X189.019Y-101.015
X189.962Y-78.507
X191.219Y-62.907
X191.691Y-133.486
X192.502Y-79.707
T3
X179.672Y-46.125
X195.172Y-46.125
T4
X179.322Y-98.625
X179.322Y-111.025
X180.547Y-101.015
X180.547Y-103.555
X180.547Y-106.095
X180.547Y-108.635
X181.172Y-98.625
X181.172Y-111.025
T5
X182.342Y-83.625
X184.882Y-83.625
X187.422Y-83.625
X189.962Y-83.625
X192.502Y-83.625
T6
X179.802Y-49.155
X179.802Y-51.695
X179.802Y-54.235
X179.802Y-56.775
X179.802Y-59.315
X179.802Y-61.855
X179.802Y-64.395
X179.802Y-66.935
X179.802Y-69.475
X179.802Y-72.015
X179.802Y-74.555
X179.802Y-77.095
X195.042Y-49.155
X195.042Y-51.695
X195.042Y-54.235
X195.042Y-56.775
X195.042Y-59.315
X195.042Y-61.855
X195.042Y-64.395
X195.042Y-66.935
X195.042Y-69.475
X195.042Y-72.015
X195.042Y-74.555
X195.042Y-77.095
T7
X179.802Y-49.155
X195.042Y-49.155
T8
X184.172Y-90.125
X190.672Y-90.125
T9
X179.922Y-90.125
X194.922Y-90.125
T10
X86.477Y-107.423
X102.922Y-59.825
X140.922Y-110.825
X158.922Y-61.075
X184.3Y-119.049
T0
M30
