%TF.GenerationSoftware,KiCad,Pcbnew,7.0.6-7.0.6~ubuntu20.04.1*%
%TF.CreationDate,2023-08-05T11:34:34+02:00*%
%TF.ProjectId,keyboard,6b657962-6f61-4726-942e-6b696361645f,v1.0.0*%
%TF.SameCoordinates,Original*%
%TF.FileFunction,Soldermask,Top*%
%TF.FilePolarity,Negative*%
%FSLAX46Y46*%
G04 Gerber Fmt 4.6, Leading zero omitted, Abs format (unit mm)*
G04 Created by KiCad (PCBNEW 7.0.6-7.0.6~ubuntu20.04.1) date 2023-08-05 11:34:34*
%MOMM*%
%LPD*%
G01*
G04 APERTURE LIST*
G04 Aperture macros list*
%AMRoundRect*
0 Rectangle with rounded corners*
0 $1 Rounding radius*
0 $2 $3 $4 $5 $6 $7 $8 $9 X,Y pos of 4 corners*
0 Add a 4 corners polygon primitive as box body*
4,1,4,$2,$3,$4,$5,$6,$7,$8,$9,$2,$3,0*
0 Add four circle primitives for the rounded corners*
1,1,$1+$1,$2,$3*
1,1,$1+$1,$4,$5*
1,1,$1+$1,$6,$7*
1,1,$1+$1,$8,$9*
0 Add four rect primitives between the rounded corners*
20,1,$1+$1,$2,$3,$4,$5,0*
20,1,$1+$1,$4,$5,$6,$7,0*
20,1,$1+$1,$6,$7,$8,$9,0*
20,1,$1+$1,$8,$9,$2,$3,0*%
%AMFreePoly0*
4,1,14,0.635355,0.435355,0.650000,0.400000,0.650000,0.200000,0.635355,0.164645,0.035355,-0.435355,0.000000,-0.450000,-0.035355,-0.435355,-0.635355,0.164645,-0.650000,0.200000,-0.650000,0.400000,-0.635355,0.435355,-0.600000,0.450000,0.600000,0.450000,0.635355,0.435355,0.635355,0.435355,$1*%
%AMFreePoly1*
4,1,16,0.635355,1.035355,0.650000,1.000000,0.650000,-0.250000,0.635355,-0.285355,0.600000,-0.300000,-0.600000,-0.300000,-0.635355,-0.285355,-0.650000,-0.250000,-0.650000,1.000000,-0.635355,1.035355,-0.600000,1.050000,-0.564645,1.035355,0.000000,0.470710,0.564645,1.035355,0.600000,1.050000,0.635355,1.035355,0.635355,1.035355,$1*%
G04 Aperture macros list end*
%ADD10RoundRect,0.050000X-0.450000X-0.450000X0.450000X-0.450000X0.450000X0.450000X-0.450000X0.450000X0*%
%ADD11C,1.100000*%
%ADD12RoundRect,0.050000X-0.450000X-0.625000X0.450000X-0.625000X0.450000X0.625000X-0.450000X0.625000X0*%
%ADD13C,1.801800*%
%ADD14C,3.100000*%
%ADD15C,3.529000*%
%ADD16RoundRect,0.050000X1.300000X1.300000X-1.300000X1.300000X-1.300000X-1.300000X1.300000X-1.300000X0*%
%ADD17C,4.800000*%
%ADD18RoundRect,0.050000X-0.395994X-0.636937X0.500581X-0.558497X0.395994X0.636937X-0.500581X0.558497X0*%
%ADD19C,0.700000*%
%ADD20RoundRect,0.050000X-0.450000X-0.600000X0.450000X-0.600000X0.450000X0.600000X-0.450000X0.600000X0*%
%ADD21C,4.100000*%
%ADD22FreePoly0,270.000000*%
%ADD23FreePoly1,270.000000*%
%ADD24FreePoly0,90.000000*%
%ADD25FreePoly1,90.000000*%
%ADD26FreePoly0,180.000000*%
%ADD27FreePoly1,180.000000*%
%ADD28RoundRect,0.050000X-0.700000X0.700000X-0.700000X-0.700000X0.700000X-0.700000X0.700000X0.700000X0*%
%ADD29C,1.500000*%
%ADD30RoundRect,0.050000X1.181751X1.408356X-1.408356X1.181751X-1.181751X-1.408356X1.408356X-1.181751X0*%
%ADD31RoundRect,0.050000X-0.876300X0.876300X-0.876300X-0.876300X0.876300X-0.876300X0.876300X0.876300X0*%
%ADD32C,1.852600*%
%ADD33RoundRect,0.050000X-0.475833X1.775833X-1.775833X-0.475833X0.475833X-1.775833X1.775833X0.475833X0*%
%ADD34C,2.100000*%
%ADD35RoundRect,0.050000X1.592168X0.919239X-0.919239X1.592168X-1.592168X-0.919239X0.919239X-1.592168X0*%
%ADD36RoundRect,0.050000X-0.589958X-0.463087X0.279375X-0.696024X0.589958X0.463087X-0.279375X0.696024X0*%
%ADD37C,1.700000*%
%ADD38RoundRect,0.050000X-0.689711X-0.294615X0.089711X-0.744615X0.689711X0.294615X-0.089711X0.744615X0*%
%ADD39O,1.800000X1.800000*%
G04 APERTURE END LIST*
D10*
%TO.C,T1*%
X183721806Y-44925437D03*
X183721806Y-47125437D03*
D11*
X185921806Y-46025437D03*
X188921806Y-46025437D03*
D10*
X191121806Y-44925437D03*
X191121806Y-47125437D03*
D12*
X189671806Y-48100437D03*
X186671806Y-48100437D03*
X185171806Y-48100437D03*
%TD*%
D13*
%TO.C,S22*%
X155421801Y-51325431D03*
D14*
X154921801Y-55075431D03*
X149921801Y-57275431D03*
X149921801Y-57275431D03*
D15*
X149921801Y-51325431D03*
D14*
X144921801Y-55075431D03*
D13*
X144421801Y-51325431D03*
D16*
X146646801Y-57275431D03*
X158196801Y-55075431D03*
%TD*%
D17*
%TO.C,_8*%
X184300309Y-119048558D03*
%TD*%
D18*
%TO.C,D3*%
X90923101Y-73907520D03*
D19*
X91819676Y-73829080D03*
X93313968Y-73698346D03*
D18*
X94210543Y-73619906D03*
%TD*%
D20*
%TO.C,D9*%
X148271803Y-128825426D03*
D19*
X149171803Y-128825426D03*
X150671803Y-128825426D03*
D20*
X151571803Y-128825426D03*
%TD*%
D21*
%TO.C,_3*%
X194921807Y-90125438D03*
%TD*%
D22*
%TO.C,J11*%
X190429802Y-51675432D03*
D23*
X189413802Y-51675432D03*
%TD*%
D20*
%TO.C,D22*%
X130271803Y-91515433D03*
D19*
X131171803Y-91515433D03*
X132671803Y-91515433D03*
D20*
X133571803Y-91515433D03*
%TD*%
D13*
%TO.C,S14*%
X137421805Y-96715430D03*
D14*
X136921805Y-100465430D03*
X131921805Y-102665430D03*
X131921805Y-102665430D03*
D15*
X131921805Y-96715430D03*
D14*
X126921805Y-100465430D03*
D13*
X126421805Y-96715430D03*
D16*
X128646805Y-102665430D03*
X140196805Y-100465430D03*
%TD*%
D20*
%TO.C,D12*%
X166271806Y-97325435D03*
D19*
X167171806Y-97325435D03*
X168671806Y-97325435D03*
D20*
X169571806Y-97325435D03*
%TD*%
D22*
%TO.C,J13*%
X190429802Y-56775430D03*
D23*
X189413802Y-56775430D03*
%TD*%
D13*
%TO.C,S12*%
X119421804Y-51325435D03*
D14*
X118921804Y-55075435D03*
X113921804Y-57275435D03*
X113921804Y-57275435D03*
D15*
X113921804Y-51325435D03*
D14*
X108921804Y-55075435D03*
D13*
X108421804Y-51325435D03*
D16*
X110646804Y-57275435D03*
X122196804Y-55075435D03*
%TD*%
D20*
%TO.C,D13*%
X166271806Y-63325439D03*
D19*
X167171806Y-63325439D03*
X168671806Y-63325439D03*
D20*
X169571806Y-63325439D03*
%TD*%
D24*
%TO.C,J14*%
X184413802Y-54225432D03*
D25*
X185429802Y-54225432D03*
%TD*%
D20*
%TO.C,D25*%
X148271804Y-63125431D03*
D19*
X149171804Y-63125431D03*
X150671804Y-63125431D03*
D20*
X151571804Y-63125431D03*
%TD*%
%TO.C,D8*%
X130271807Y-55215428D03*
D19*
X131171807Y-55215428D03*
X132671807Y-55215428D03*
D20*
X133571807Y-55215428D03*
%TD*%
%TO.C,D23*%
X130271797Y-57515430D03*
D19*
X131171797Y-57515430D03*
X132671797Y-57515430D03*
D20*
X133571797Y-57515430D03*
%TD*%
D13*
%TO.C,S24*%
X173421805Y-87825433D03*
D14*
X172921805Y-91575433D03*
X167921805Y-93775433D03*
X167921805Y-93775433D03*
D15*
X167921805Y-87825433D03*
D14*
X162921805Y-91575433D03*
D13*
X162421805Y-87825433D03*
D16*
X164646805Y-93775433D03*
X176196805Y-91575433D03*
%TD*%
D18*
%TO.C,D16*%
X76155346Y-111638191D03*
D19*
X77051921Y-111559751D03*
X78546213Y-111429017D03*
D18*
X79442788Y-111350577D03*
%TD*%
D20*
%TO.C,D29*%
X179521807Y-113825437D03*
D19*
X180421807Y-113825437D03*
X181921807Y-113825437D03*
D20*
X182821807Y-113825437D03*
%TD*%
D26*
%TO.C,J20*%
X192501798Y-81633432D03*
D27*
X192501798Y-80617432D03*
%TD*%
D21*
%TO.C,_2*%
X179921799Y-90125437D03*
%TD*%
D17*
%TO.C,_4*%
X102921803Y-59825441D03*
%TD*%
D20*
%TO.C,D20*%
X112271800Y-97125432D03*
D19*
X113171800Y-97125432D03*
X114671800Y-97125432D03*
D20*
X115571800Y-97125432D03*
%TD*%
D26*
%TO.C,J24*%
X182341806Y-81633437D03*
D27*
X182341806Y-80617437D03*
%TD*%
D20*
%TO.C,D27*%
X166271804Y-65625431D03*
D19*
X167171804Y-65625431D03*
X168671804Y-65625431D03*
D20*
X169571804Y-65625431D03*
%TD*%
D17*
%TO.C,_7*%
X140921802Y-110825427D03*
%TD*%
D13*
%TO.C,S23*%
X173421804Y-104825440D03*
D14*
X172921804Y-108575440D03*
X167921804Y-110775440D03*
X167921804Y-110775440D03*
D15*
X167921804Y-104825440D03*
D14*
X162921804Y-108575440D03*
D13*
X162421804Y-104825440D03*
D16*
X164646804Y-110775440D03*
X176196804Y-108575440D03*
%TD*%
D13*
%TO.C,S20*%
X155421803Y-85325440D03*
D14*
X154921803Y-89075440D03*
X149921803Y-91275440D03*
X149921803Y-91275440D03*
D15*
X149921803Y-85325440D03*
D14*
X144921803Y-89075440D03*
D13*
X144421803Y-85325440D03*
D16*
X146646803Y-91275440D03*
X158196803Y-89075440D03*
%TD*%
D13*
%TO.C,S9*%
X119421801Y-102325436D03*
D14*
X118921801Y-106075436D03*
X113921801Y-108275436D03*
X113921801Y-108275436D03*
D15*
X113921801Y-102325436D03*
D14*
X108921801Y-106075436D03*
D13*
X108421801Y-102325436D03*
D16*
X110646801Y-108275436D03*
X122196801Y-106075436D03*
%TD*%
D20*
%TO.C,D21*%
X112271799Y-63125434D03*
D19*
X113171799Y-63125434D03*
X114671799Y-63125434D03*
D20*
X115571799Y-63125434D03*
%TD*%
%TO.C,D7*%
X130271804Y-89215436D03*
D19*
X131171804Y-89215436D03*
X132671804Y-89215436D03*
D20*
X133571804Y-89215436D03*
%TD*%
D28*
%TO.C,*%
X179671804Y-46125433D03*
D29*
X195171804Y-46125433D03*
%TD*%
D13*
%TO.C,S21*%
X155421796Y-68325430D03*
D14*
X154921796Y-72075430D03*
X149921796Y-74275430D03*
X149921796Y-74275430D03*
D15*
X149921796Y-68325430D03*
D14*
X144921796Y-72075430D03*
D13*
X144421796Y-68325430D03*
D16*
X146646796Y-74275430D03*
X158196796Y-72075430D03*
%TD*%
D13*
%TO.C,S3*%
X82249691Y-99259932D03*
D14*
X82078428Y-103039240D03*
X77289197Y-105666647D03*
X77289197Y-105666647D03*
D15*
X76770620Y-99739289D03*
D14*
X72116481Y-103910798D03*
D13*
X71291549Y-100218646D03*
D30*
X74026659Y-105952083D03*
X85340965Y-102753805D03*
%TD*%
D20*
%TO.C,D10*%
X148271800Y-94825434D03*
D19*
X149171800Y-94825434D03*
X150671800Y-94825434D03*
D20*
X151571800Y-94825434D03*
%TD*%
D22*
%TO.C,J12*%
X190429793Y-54225429D03*
D23*
X189413793Y-54225429D03*
%TD*%
D13*
%TO.C,S4*%
X80768051Y-82324619D03*
D14*
X80596788Y-86103927D03*
X75807557Y-88731334D03*
X75807557Y-88731334D03*
D15*
X75288980Y-82803976D03*
D14*
X70634841Y-86975485D03*
D13*
X69809909Y-83283333D03*
D30*
X72545019Y-89016770D03*
X83859325Y-85818492D03*
%TD*%
D26*
%TO.C,J23*%
X184881797Y-81633434D03*
D27*
X184881797Y-80617434D03*
%TD*%
D26*
%TO.C,J21*%
X189961808Y-81633435D03*
D27*
X189961808Y-80617435D03*
%TD*%
D31*
%TO.C,MCU1*%
X179801807Y-49155438D03*
D32*
X179801807Y-49155438D03*
X179801807Y-51695438D03*
X179801807Y-54235438D03*
X179801807Y-56775438D03*
X179801807Y-59315438D03*
X179801807Y-61855438D03*
X179801807Y-64395438D03*
X179801807Y-66935438D03*
X179801807Y-69475438D03*
X179801807Y-72015438D03*
X179801807Y-74555438D03*
X179801807Y-77095438D03*
X195041807Y-49155438D03*
X195041807Y-51695438D03*
X195041807Y-54235438D03*
X195041807Y-56775438D03*
X195041807Y-59315438D03*
X195041807Y-61855438D03*
X195041807Y-64395438D03*
X195041807Y-66935438D03*
X195041807Y-69475438D03*
X195041807Y-72015438D03*
X195041807Y-74555438D03*
X195041807Y-77095438D03*
%TD*%
D13*
%TO.C,S18*%
X155421801Y-119325434D03*
D14*
X154921801Y-123075434D03*
X149921801Y-125275434D03*
X149921801Y-125275434D03*
D15*
X149921801Y-119325434D03*
D14*
X144921801Y-123075434D03*
D13*
X144421801Y-119325434D03*
D16*
X146646801Y-125275434D03*
X158196801Y-123075434D03*
%TD*%
D13*
%TO.C,S11*%
X119421803Y-68325442D03*
D14*
X118921803Y-72075442D03*
X113921803Y-74275442D03*
X113921803Y-74275442D03*
D15*
X113921803Y-68325442D03*
D14*
X108921803Y-72075442D03*
D13*
X108421803Y-68325442D03*
D16*
X110646803Y-74275442D03*
X122196803Y-72075442D03*
%TD*%
D20*
%TO.C,D26*%
X166271807Y-99625427D03*
D19*
X167171807Y-99625427D03*
X168671807Y-99625427D03*
D20*
X169571807Y-99625427D03*
%TD*%
D17*
%TO.C,_6*%
X86477205Y-107422539D03*
%TD*%
D13*
%TO.C,S25*%
X173421800Y-70825435D03*
D14*
X172921800Y-74575435D03*
X167921800Y-76775435D03*
X167921800Y-76775435D03*
D15*
X167921800Y-70825435D03*
D14*
X162921800Y-74575435D03*
D13*
X162421800Y-70825435D03*
D16*
X164646800Y-76775435D03*
X176196800Y-74575435D03*
%TD*%
D13*
%TO.C,S28*%
X190156539Y-129441166D03*
D14*
X193154134Y-131749179D03*
X192559390Y-137179306D03*
X192559390Y-137179306D03*
D15*
X187406539Y-134204306D03*
D14*
X188154134Y-140409433D03*
D13*
X184656539Y-138967446D03*
D33*
X190921890Y-140015539D03*
X194791634Y-128912946D03*
%TD*%
D34*
%TO.C,_1*%
X184171800Y-90125430D03*
X190671800Y-90125430D03*
%TD*%
D13*
%TO.C,S5*%
X101662862Y-114626433D03*
D14*
X101491599Y-118405741D03*
X96702368Y-121033148D03*
X96702368Y-121033148D03*
D15*
X96183791Y-115105790D03*
D14*
X91529652Y-119277299D03*
D13*
X90704720Y-115585147D03*
D30*
X93439830Y-121318584D03*
X104754136Y-118120306D03*
%TD*%
D13*
%TO.C,S27*%
X175234391Y-125138945D03*
D14*
X173780857Y-128631757D03*
X168381826Y-129462699D03*
X168381826Y-129462699D03*
D15*
X169921799Y-123715440D03*
D14*
X164121598Y-126043567D03*
D13*
X164609207Y-122291935D03*
D35*
X165218419Y-128615066D03*
X176944264Y-129479389D03*
%TD*%
D36*
%TO.C,D14*%
X165869244Y-132464682D03*
D19*
X166738578Y-132697619D03*
X168187466Y-133085847D03*
D36*
X169056800Y-133318784D03*
%TD*%
D13*
%TO.C,S7*%
X98699555Y-80755814D03*
D14*
X98528292Y-84535122D03*
X93739061Y-87162529D03*
X93739061Y-87162529D03*
D15*
X93220484Y-81235171D03*
D14*
X88566345Y-85406680D03*
D13*
X87741413Y-81714528D03*
D30*
X90476523Y-87447965D03*
X101790829Y-84249687D03*
%TD*%
D13*
%TO.C,S15*%
X137421798Y-79715433D03*
D14*
X136921798Y-83465433D03*
X131921798Y-85665433D03*
X131921798Y-85665433D03*
D15*
X131921798Y-79715433D03*
D14*
X126921798Y-83465433D03*
D13*
X126421798Y-79715433D03*
D16*
X128646798Y-85665433D03*
X140196798Y-83465433D03*
%TD*%
D18*
%TO.C,D2*%
X93886392Y-107778138D03*
D19*
X94782967Y-107699698D03*
X96277259Y-107568964D03*
D18*
X97173834Y-107490524D03*
%TD*%
D13*
%TO.C,S13*%
X137421797Y-113715434D03*
D14*
X136921797Y-117465434D03*
X131921797Y-119665434D03*
X131921797Y-119665434D03*
D15*
X131921797Y-113715434D03*
D14*
X126921797Y-117465434D03*
D13*
X126421797Y-113715434D03*
D16*
X128646797Y-119665434D03*
X140196797Y-117465434D03*
%TD*%
D13*
%TO.C,S19*%
X155421801Y-102325431D03*
D14*
X154921801Y-106075431D03*
X149921801Y-108275431D03*
X149921801Y-108275431D03*
D15*
X149921801Y-102325431D03*
D14*
X144921801Y-106075431D03*
D13*
X144421801Y-102325431D03*
D16*
X146646801Y-108275431D03*
X158196801Y-106075431D03*
%TD*%
D17*
%TO.C,_5*%
X158921803Y-61075435D03*
%TD*%
D20*
%TO.C,D5*%
X112271795Y-60825430D03*
D19*
X113171795Y-60825430D03*
X114671795Y-60825430D03*
D20*
X115571795Y-60825430D03*
%TD*%
D13*
%TO.C,S17*%
X137421810Y-45715433D03*
D14*
X136921810Y-49465433D03*
X131921810Y-51665433D03*
X131921810Y-51665433D03*
D15*
X131921810Y-45715433D03*
D14*
X126921810Y-49465433D03*
D13*
X126421810Y-45715433D03*
D16*
X128646810Y-51665433D03*
X140196810Y-49465433D03*
%TD*%
D37*
%TO.C,REF\u002A\u002A*%
X180546807Y-101015434D03*
X180546807Y-103555434D03*
X180546807Y-106095434D03*
X180546807Y-108635434D03*
X179321807Y-98625434D03*
X179321807Y-111025434D03*
X181171807Y-98625434D03*
X181171807Y-111025434D03*
%TD*%
D20*
%TO.C,D11*%
X148271803Y-60825432D03*
D19*
X149171803Y-60825432D03*
X150671803Y-60825432D03*
D20*
X151571803Y-60825432D03*
%TD*%
D18*
%TO.C,D19*%
X91123556Y-76198767D03*
D19*
X92020131Y-76120327D03*
X93514423Y-75989593D03*
D18*
X94410998Y-75911153D03*
%TD*%
D13*
%TO.C,S16*%
X137421805Y-62715435D03*
D14*
X136921805Y-66465435D03*
X131921805Y-68665435D03*
X131921805Y-68665435D03*
D15*
X131921805Y-62715435D03*
D14*
X126921805Y-66465435D03*
D13*
X126421805Y-62715435D03*
D16*
X128646805Y-68665435D03*
X140196805Y-66465435D03*
%TD*%
D24*
%TO.C,J5*%
X182663802Y-106095430D03*
D25*
X183679802Y-106095430D03*
%TD*%
D13*
%TO.C,S26*%
X173421802Y-53825437D03*
D14*
X172921802Y-57575437D03*
X167921802Y-59775437D03*
X167921802Y-59775437D03*
D15*
X167921802Y-53825437D03*
D14*
X162921802Y-57575437D03*
D13*
X162421802Y-53825437D03*
D16*
X164646802Y-59775437D03*
X176196802Y-57575437D03*
%TD*%
D13*
%TO.C,S2*%
X83731350Y-116195235D03*
D14*
X83560087Y-119974543D03*
X78770856Y-122601950D03*
X78770856Y-122601950D03*
D15*
X78252279Y-116674592D03*
D14*
X73598140Y-120846101D03*
D13*
X72773208Y-117153949D03*
D30*
X75508318Y-122887386D03*
X86822624Y-119689108D03*
%TD*%
D13*
%TO.C,S1*%
X64318199Y-100828727D03*
D14*
X64146936Y-104608035D03*
X59357705Y-107235442D03*
X59357705Y-107235442D03*
D15*
X58839128Y-101308084D03*
D14*
X54184989Y-105479593D03*
D13*
X53360057Y-101787441D03*
D30*
X56095167Y-107520878D03*
X67409473Y-104322600D03*
%TD*%
D38*
%TO.C,D28*%
X189249078Y-125712944D03*
D19*
X190028501Y-126162944D03*
X191327539Y-126912944D03*
D38*
X192106962Y-127362944D03*
%TD*%
D39*
%TO.C,Nice!View1*%
X189961800Y-83625435D03*
X192501800Y-83625435D03*
X187421800Y-83625435D03*
X184881800Y-83625435D03*
X182341800Y-83625435D03*
%TD*%
D18*
%TO.C,D17*%
X73192051Y-77767564D03*
D19*
X74088626Y-77689124D03*
X75582918Y-77558390D03*
D18*
X76479493Y-77479950D03*
%TD*%
D13*
%TO.C,S10*%
X119421796Y-85325435D03*
D14*
X118921796Y-89075435D03*
X113921796Y-91275435D03*
X113921796Y-91275435D03*
D15*
X113921796Y-85325435D03*
D14*
X108921796Y-89075435D03*
D13*
X108421796Y-85325435D03*
D16*
X110646796Y-91275435D03*
X122196796Y-89075435D03*
%TD*%
D13*
%TO.C,S6*%
X100181204Y-97691131D03*
D14*
X100009941Y-101470439D03*
X95220710Y-104097846D03*
X95220710Y-104097846D03*
D15*
X94702133Y-98170488D03*
D14*
X90047994Y-102341997D03*
D13*
X89223062Y-98649845D03*
D30*
X91958172Y-104383282D03*
X103272478Y-101185004D03*
%TD*%
D26*
%TO.C,J22*%
X187421802Y-81633432D03*
D27*
X187421802Y-80617432D03*
%TD*%
D20*
%TO.C,D6*%
X130271798Y-123215439D03*
D19*
X131171798Y-123215439D03*
X132671798Y-123215439D03*
D20*
X133571798Y-123215439D03*
%TD*%
D24*
%TO.C,J4*%
X182663803Y-108635438D03*
D25*
X183679803Y-108635438D03*
%TD*%
D24*
%TO.C,J6*%
X182663797Y-103555432D03*
D25*
X183679797Y-103555432D03*
%TD*%
D20*
%TO.C,D4*%
X112271797Y-94825443D03*
D19*
X113171797Y-94825443D03*
X114671797Y-94825443D03*
D20*
X115571797Y-94825443D03*
%TD*%
%TO.C,D24*%
X148271796Y-97125434D03*
D19*
X149171796Y-97125434D03*
X150671796Y-97125434D03*
D20*
X151571796Y-97125434D03*
%TD*%
D13*
%TO.C,S8*%
X97217911Y-63820503D03*
D14*
X97046648Y-67599811D03*
X92257417Y-70227218D03*
X92257417Y-70227218D03*
D15*
X91738840Y-64299860D03*
D14*
X87084701Y-68471369D03*
D13*
X86259769Y-64779217D03*
D30*
X88994879Y-70512654D03*
X100309185Y-67314376D03*
%TD*%
D18*
%TO.C,D1*%
X75954884Y-109346947D03*
D19*
X76851459Y-109268507D03*
X78345751Y-109137773D03*
D18*
X79242326Y-109059333D03*
%TD*%
%TO.C,D15*%
X56742195Y-96271678D03*
D19*
X57638770Y-96193238D03*
X59133062Y-96062504D03*
D18*
X60029637Y-95984064D03*
%TD*%
%TO.C,D18*%
X94086855Y-110069380D03*
D19*
X94983430Y-109990940D03*
X96477722Y-109860206D03*
D18*
X97374297Y-109781766D03*
%TD*%
M02*
