%TF.GenerationSoftware,KiCad,Pcbnew,7.0.6-7.0.6~ubuntu20.04.1*%
%TF.CreationDate,2023-08-05T11:34:34+02:00*%
%TF.ProjectId,keyboard,6b657962-6f61-4726-942e-6b696361645f,v1.0.0*%
%TF.SameCoordinates,Original*%
%TF.FileFunction,Paste,Top*%
%TF.FilePolarity,Positive*%
%FSLAX46Y46*%
G04 Gerber Fmt 4.6, Leading zero omitted, Abs format (unit mm)*
G04 Created by KiCad (PCBNEW 7.0.6-7.0.6~ubuntu20.04.1) date 2023-08-05 11:34:34*
%MOMM*%
%LPD*%
G01*
G04 APERTURE LIST*
G04 Aperture macros list*
%AMRotRect*
0 Rectangle, with rotation*
0 The origin of the aperture is its center*
0 $1 length*
0 $2 width*
0 $3 Rotation angle, in degrees counterclockwise*
0 Add horizontal line*
21,1,$1,$2,0,0,$3*%
%AMFreePoly0*
4,1,6,0.600000,0.200000,0.000000,-0.400000,-0.600000,0.200000,-0.600000,0.400000,0.600000,0.400000,0.600000,0.200000,0.600000,0.200000,$1*%
%AMFreePoly1*
4,1,6,0.600000,-0.250000,-0.600000,-0.250000,-0.600000,1.000000,0.000000,0.400000,0.600000,1.000000,0.600000,-0.250000,0.600000,-0.250000,$1*%
G04 Aperture macros list end*
%ADD10R,0.900000X0.900000*%
%ADD11R,0.900000X1.250000*%
%ADD12R,2.600000X2.600000*%
%ADD13RotRect,0.900000X1.200000X5.000000*%
%ADD14R,0.900000X1.200000*%
%ADD15FreePoly0,270.000000*%
%ADD16FreePoly1,270.000000*%
%ADD17FreePoly0,90.000000*%
%ADD18FreePoly1,90.000000*%
%ADD19FreePoly0,180.000000*%
%ADD20FreePoly1,180.000000*%
%ADD21RotRect,2.600000X2.600000X185.000000*%
%ADD22RotRect,2.600000X2.600000X240.000000*%
%ADD23RotRect,2.600000X2.600000X165.000000*%
%ADD24RotRect,0.900000X1.200000X345.000000*%
%ADD25RotRect,0.900000X1.200000X330.000000*%
G04 APERTURE END LIST*
D10*
%TO.C,T1*%
X183721806Y-44925437D03*
X183721806Y-47125437D03*
X191121806Y-44925437D03*
X191121806Y-47125437D03*
D11*
X189671806Y-48100437D03*
X186671806Y-48100437D03*
X185171806Y-48100437D03*
%TD*%
D12*
%TO.C,S22*%
X146646801Y-57275431D03*
X158196801Y-55075431D03*
%TD*%
D13*
%TO.C,D3*%
X90923101Y-73907520D03*
X94210543Y-73619906D03*
%TD*%
D14*
%TO.C,D9*%
X148271803Y-128825426D03*
X151571803Y-128825426D03*
%TD*%
D15*
%TO.C,J11*%
X190429802Y-51675432D03*
D16*
X189413802Y-51675432D03*
%TD*%
D14*
%TO.C,D22*%
X130271803Y-91515433D03*
X133571803Y-91515433D03*
%TD*%
D12*
%TO.C,S14*%
X128646805Y-102665430D03*
X140196805Y-100465430D03*
%TD*%
D14*
%TO.C,D12*%
X166271806Y-97325435D03*
X169571806Y-97325435D03*
%TD*%
D15*
%TO.C,J13*%
X190429802Y-56775430D03*
D16*
X189413802Y-56775430D03*
%TD*%
D12*
%TO.C,S12*%
X110646804Y-57275435D03*
X122196804Y-55075435D03*
%TD*%
D14*
%TO.C,D13*%
X166271806Y-63325439D03*
X169571806Y-63325439D03*
%TD*%
D17*
%TO.C,J14*%
X184413802Y-54225432D03*
D18*
X185429802Y-54225432D03*
%TD*%
D14*
%TO.C,D25*%
X148271804Y-63125431D03*
X151571804Y-63125431D03*
%TD*%
%TO.C,D8*%
X130271807Y-55215428D03*
X133571807Y-55215428D03*
%TD*%
%TO.C,D23*%
X130271797Y-57515430D03*
X133571797Y-57515430D03*
%TD*%
D12*
%TO.C,S24*%
X164646805Y-93775433D03*
X176196805Y-91575433D03*
%TD*%
D13*
%TO.C,D16*%
X76155346Y-111638191D03*
X79442788Y-111350577D03*
%TD*%
D14*
%TO.C,D29*%
X179521807Y-113825437D03*
X182821807Y-113825437D03*
%TD*%
D19*
%TO.C,J20*%
X192501798Y-81633432D03*
D20*
X192501798Y-80617432D03*
%TD*%
D14*
%TO.C,D20*%
X112271800Y-97125432D03*
X115571800Y-97125432D03*
%TD*%
D19*
%TO.C,J24*%
X182341806Y-81633437D03*
D20*
X182341806Y-80617437D03*
%TD*%
D14*
%TO.C,D27*%
X166271804Y-65625431D03*
X169571804Y-65625431D03*
%TD*%
D12*
%TO.C,S23*%
X164646804Y-110775440D03*
X176196804Y-108575440D03*
%TD*%
%TO.C,S20*%
X146646803Y-91275440D03*
X158196803Y-89075440D03*
%TD*%
%TO.C,S9*%
X110646801Y-108275436D03*
X122196801Y-106075436D03*
%TD*%
D14*
%TO.C,D21*%
X112271799Y-63125434D03*
X115571799Y-63125434D03*
%TD*%
%TO.C,D7*%
X130271804Y-89215436D03*
X133571804Y-89215436D03*
%TD*%
D12*
%TO.C,S21*%
X146646796Y-74275430D03*
X158196796Y-72075430D03*
%TD*%
D21*
%TO.C,S3*%
X74026659Y-105952083D03*
X85340965Y-102753805D03*
%TD*%
D14*
%TO.C,D10*%
X148271800Y-94825434D03*
X151571800Y-94825434D03*
%TD*%
D15*
%TO.C,J12*%
X190429793Y-54225429D03*
D16*
X189413793Y-54225429D03*
%TD*%
D21*
%TO.C,S4*%
X72545019Y-89016770D03*
X83859325Y-85818492D03*
%TD*%
D19*
%TO.C,J23*%
X184881797Y-81633434D03*
D20*
X184881797Y-80617434D03*
%TD*%
D19*
%TO.C,J21*%
X189961808Y-81633435D03*
D20*
X189961808Y-80617435D03*
%TD*%
D12*
%TO.C,S18*%
X146646801Y-125275434D03*
X158196801Y-123075434D03*
%TD*%
%TO.C,S11*%
X110646803Y-74275442D03*
X122196803Y-72075442D03*
%TD*%
D14*
%TO.C,D26*%
X166271807Y-99625427D03*
X169571807Y-99625427D03*
%TD*%
D12*
%TO.C,S25*%
X164646800Y-76775435D03*
X176196800Y-74575435D03*
%TD*%
D22*
%TO.C,S28*%
X190921890Y-140015539D03*
X194791634Y-128912946D03*
%TD*%
D21*
%TO.C,S5*%
X93439830Y-121318584D03*
X104754136Y-118120306D03*
%TD*%
D23*
%TO.C,S27*%
X165218419Y-128615066D03*
X176944264Y-129479389D03*
%TD*%
D24*
%TO.C,D14*%
X165869244Y-132464682D03*
X169056800Y-133318784D03*
%TD*%
D21*
%TO.C,S7*%
X90476523Y-87447965D03*
X101790829Y-84249687D03*
%TD*%
D12*
%TO.C,S15*%
X128646798Y-85665433D03*
X140196798Y-83465433D03*
%TD*%
D13*
%TO.C,D2*%
X93886392Y-107778138D03*
X97173834Y-107490524D03*
%TD*%
D12*
%TO.C,S13*%
X128646797Y-119665434D03*
X140196797Y-117465434D03*
%TD*%
%TO.C,S19*%
X146646801Y-108275431D03*
X158196801Y-106075431D03*
%TD*%
D14*
%TO.C,D5*%
X112271795Y-60825430D03*
X115571795Y-60825430D03*
%TD*%
D12*
%TO.C,S17*%
X128646810Y-51665433D03*
X140196810Y-49465433D03*
%TD*%
D14*
%TO.C,D11*%
X148271803Y-60825432D03*
X151571803Y-60825432D03*
%TD*%
D13*
%TO.C,D19*%
X91123556Y-76198767D03*
X94410998Y-75911153D03*
%TD*%
D12*
%TO.C,S16*%
X128646805Y-68665435D03*
X140196805Y-66465435D03*
%TD*%
D17*
%TO.C,J5*%
X182663802Y-106095430D03*
D18*
X183679802Y-106095430D03*
%TD*%
D12*
%TO.C,S26*%
X164646802Y-59775437D03*
X176196802Y-57575437D03*
%TD*%
D21*
%TO.C,S2*%
X75508318Y-122887386D03*
X86822624Y-119689108D03*
%TD*%
%TO.C,S1*%
X56095167Y-107520878D03*
X67409473Y-104322600D03*
%TD*%
D25*
%TO.C,D28*%
X189249078Y-125712944D03*
X192106962Y-127362944D03*
%TD*%
D13*
%TO.C,D17*%
X73192051Y-77767564D03*
X76479493Y-77479950D03*
%TD*%
D12*
%TO.C,S10*%
X110646796Y-91275435D03*
X122196796Y-89075435D03*
%TD*%
D21*
%TO.C,S6*%
X91958172Y-104383282D03*
X103272478Y-101185004D03*
%TD*%
D19*
%TO.C,J22*%
X187421802Y-81633432D03*
D20*
X187421802Y-80617432D03*
%TD*%
D14*
%TO.C,D6*%
X130271798Y-123215439D03*
X133571798Y-123215439D03*
%TD*%
D17*
%TO.C,J4*%
X182663803Y-108635438D03*
D18*
X183679803Y-108635438D03*
%TD*%
D17*
%TO.C,J6*%
X182663797Y-103555432D03*
D18*
X183679797Y-103555432D03*
%TD*%
D14*
%TO.C,D4*%
X112271797Y-94825443D03*
X115571797Y-94825443D03*
%TD*%
%TO.C,D24*%
X148271796Y-97125434D03*
X151571796Y-97125434D03*
%TD*%
D21*
%TO.C,S8*%
X88994879Y-70512654D03*
X100309185Y-67314376D03*
%TD*%
D13*
%TO.C,D1*%
X75954884Y-109346947D03*
X79242326Y-109059333D03*
%TD*%
%TO.C,D15*%
X56742195Y-96271678D03*
X60029637Y-95984064D03*
%TD*%
%TO.C,D18*%
X94086855Y-110069380D03*
X97374297Y-109781766D03*
%TD*%
M02*
