%TF.GenerationSoftware,KiCad,Pcbnew,7.0.6-7.0.6~ubuntu20.04.1*%
%TF.CreationDate,2023-08-05T11:34:34+02:00*%
%TF.ProjectId,keyboard,6b657962-6f61-4726-942e-6b696361645f,v1.0.0*%
%TF.SameCoordinates,Original*%
%TF.FileFunction,Profile,NP*%
%FSLAX46Y46*%
G04 Gerber Fmt 4.6, Leading zero omitted, Abs format (unit mm)*
G04 Created by KiCad (PCBNEW 7.0.6-7.0.6~ubuntu20.04.1) date 2023-08-05 11:34:34*
%MOMM*%
%LPD*%
G01*
G04 APERTURE LIST*
%TA.AperFunction,Profile*%
%ADD10C,0.150000*%
%TD*%
G04 APERTURE END LIST*
D10*
X68494838Y-126516486D02*
X50381121Y-112178548D01*
X200264777Y-130933179D02*
X191477805Y-146152680D01*
X189050902Y-147028090D02*
X140110393Y-128895317D01*
X197705344Y-114506266D02*
X200499185Y-129568430D01*
X197671802Y-46325441D02*
X197671810Y-114141523D01*
X189050878Y-147028155D02*
G75*
G03*
X191477802Y-146152665I694822J1875455D01*
G01*
X48621982Y-92071493D02*
X80747721Y-55933883D01*
X142138859Y-36264320D02*
G75*
G03*
X141699308Y-36215436I-439559J-1951780D01*
G01*
X49629974Y-110784686D02*
G75*
G03*
X50381122Y-112178547I1992426J174386D01*
G01*
X197671820Y-114141523D02*
G75*
G03*
X197705344Y-114506268I1999080J-177D01*
G01*
X81208086Y-55550949D02*
X103714159Y-41950909D01*
X197671858Y-46325441D02*
G75*
G03*
X195671803Y-44325442I-2000058J-59D01*
G01*
X68494826Y-126516501D02*
G75*
G03*
X69910447Y-126940690I1241274J1568201D01*
G01*
X81208083Y-55550943D02*
G75*
G03*
X80747722Y-55933884I1034517J-1711857D01*
G01*
X107213651Y-123735429D02*
G75*
G03*
X106731811Y-123719248I-307551J-1975971D01*
G01*
X142138858Y-36264326D02*
X177704751Y-44276537D01*
X140110391Y-128895323D02*
G75*
G03*
X139723070Y-128794506I-694691J-1874477D01*
G01*
X49630015Y-110784682D02*
X48124334Y-93574610D01*
X200264787Y-130933185D02*
G75*
G03*
X200499190Y-129568427I-1731987J999985D01*
G01*
X139723070Y-128794506D02*
X107213651Y-123735426D01*
X122226249Y-36215432D02*
X141699308Y-36215436D01*
X122226249Y-36215433D02*
G75*
G03*
X121631147Y-36306024I51J-2000267D01*
G01*
X104153425Y-41753245D02*
X121631147Y-36306024D01*
X104153429Y-41753256D02*
G75*
G03*
X103714151Y-41950910I594871J-1909044D01*
G01*
X106731811Y-123719247D02*
X69910438Y-126940703D01*
X178144292Y-44325435D02*
X195671803Y-44325442D01*
X48621983Y-92071494D02*
G75*
G03*
X48124335Y-93574610I1494717J-1328806D01*
G01*
X177704752Y-44276534D02*
G75*
G03*
X178144298Y-44325432I439548J1951134D01*
G01*
%TO.C,REF\u002A\u002A*%
X193571807Y-97525434D02*
X193571807Y-112125434D01*
X193871807Y-112425434D02*
X195671807Y-112425434D01*
X195671807Y-97225434D02*
X193871807Y-97225434D01*
X195971807Y-112125434D02*
X195971807Y-97525434D01*
X193871807Y-97225434D02*
G75*
G03*
X193571807Y-97525434I0J-300000D01*
G01*
X193571807Y-112125434D02*
G75*
G03*
X193871807Y-112425434I300000J0D01*
G01*
X195971807Y-97525434D02*
G75*
G03*
X195671807Y-97225434I-300000J0D01*
G01*
X195671807Y-112425434D02*
G75*
G03*
X195971807Y-112125434I0J300000D01*
G01*
%TD*%
M02*
