%TF.GenerationSoftware,KiCad,Pcbnew,7.0.6-7.0.6~ubuntu20.04.1*%
%TF.CreationDate,2023-07-19T10:45:04+02:00*%
%TF.ProjectId,keyboard,6b657962-6f61-4726-942e-6b696361645f,v1.0.0*%
%TF.SameCoordinates,Original*%
%TF.FileFunction,Drillmap*%
%TF.FilePolarity,Positive*%
%FSLAX45Y45*%
G04 Gerber Fmt 4.5, Leading zero omitted, Abs format (unit mm)*
G04 Created by KiCad (PCBNEW 7.0.6-7.0.6~ubuntu20.04.1) date 2023-07-19 10:45:04*
%MOMM*%
%LPD*%
G01*
G04 APERTURE LIST*
%ADD10C,0.150000*%
%ADD11C,0.200000*%
%ADD12C,0.090000*%
%ADD13C,0.170180*%
%ADD14C,0.300000*%
%ADD15C,0.342900*%
G04 APERTURE END LIST*
D10*
X18562345Y-12263363D02*
G75*
G03*
X18585788Y-12126889I-173205J100003D01*
G01*
X12749755Y-2796479D02*
X16306345Y-3597699D01*
X8951213Y-3345370D02*
X10698984Y-2800648D01*
X18303041Y-3802590D02*
G75*
G03*
X18103049Y-3602589I-200001J0D01*
G01*
X12749755Y-2796479D02*
G75*
G03*
X12705801Y-2791589I-43945J-195001D01*
G01*
X17440960Y-13872854D02*
X12546908Y-12059576D01*
X5385353Y-11821694D02*
X3573981Y-10387900D01*
X3498871Y-10248514D02*
X3348303Y-8527506D01*
X12546907Y-12059577D02*
G75*
G03*
X12508177Y-12049497I-69487J-187543D01*
G01*
X9209050Y-11541970D02*
X5526913Y-11864116D01*
X6656678Y-4725140D02*
G75*
G03*
X6610641Y-4763434I103492J-171240D01*
G01*
X8951213Y-3345371D02*
G75*
G03*
X8907285Y-3365136I59507J-190949D01*
G01*
X3398066Y-8377195D02*
G75*
G03*
X3348303Y-8527506I149476J-132880D01*
G01*
X10758494Y-2791589D02*
G75*
G03*
X10698984Y-2800648I-4J-199981D01*
G01*
X16306345Y-3597700D02*
G75*
G03*
X16350298Y-3602588I43955J195160D01*
G01*
X16350298Y-3602589D02*
X18103049Y-3602589D01*
X6656678Y-4725140D02*
X8907285Y-3365137D01*
X9257235Y-11543588D02*
G75*
G03*
X9209049Y-11541970I-30755J-197612D01*
G01*
X3398066Y-8377195D02*
X6610641Y-4763434D01*
X17440959Y-13872859D02*
G75*
G03*
X17683650Y-13785312I69482J187549D01*
G01*
X10758494Y-2791589D02*
X12705801Y-2791589D01*
X18303050Y-3802590D02*
X18303050Y-10584197D01*
X18306403Y-10620672D02*
X18585788Y-12126888D01*
X18562348Y-12263365D02*
X17683649Y-13785313D01*
X5385355Y-11821692D02*
G75*
G03*
X5526913Y-11864116I124125J156792D01*
G01*
X12508177Y-12049497D02*
X9257235Y-11543588D01*
X3498873Y-10248514D02*
G75*
G03*
X3573981Y-10387900I199247J17434D01*
G01*
X18303050Y-10584197D02*
G75*
G03*
X18306403Y-10620672I199950J-13D01*
G01*
D11*
D12*
X17083049Y-3727589D02*
X17173049Y-3817589D01*
X17173049Y-3727589D02*
X17083049Y-3817589D01*
X17383049Y-3727589D02*
X17473049Y-3817589D01*
X17473049Y-3727589D02*
X17383049Y-3817589D01*
D13*
X3956965Y-9348790D02*
G75*
G03*
X3956965Y-9348790I-85090J0D01*
G01*
X5052779Y-9252918D02*
G75*
G03*
X5052779Y-9252918I-85090J0D01*
G01*
X5601951Y-7498378D02*
G75*
G03*
X5601951Y-7498378I-85090J0D01*
G01*
X5750115Y-9191909D02*
G75*
G03*
X5750115Y-9191909I-85090J0D01*
G01*
X5898280Y-10885440D02*
G75*
G03*
X5898280Y-10885440I-85090J0D01*
G01*
X6697765Y-7402507D02*
G75*
G03*
X6697765Y-7402507I-85090J0D01*
G01*
X6845930Y-9096038D02*
G75*
G03*
X6845930Y-9096038I-85090J0D01*
G01*
X6994095Y-10789569D02*
G75*
G03*
X6994095Y-10789569I-85090J0D01*
G01*
X7246936Y-5647968D02*
G75*
G03*
X7246936Y-5647968I-85090J0D01*
G01*
X7395102Y-7341498D02*
G75*
G03*
X7395102Y-7341498I-85090J0D01*
G01*
X7543265Y-9035031D02*
G75*
G03*
X7543265Y-9035031I-85090J0D01*
G01*
X7691430Y-10728561D02*
G75*
G03*
X7691430Y-10728561I-85090J0D01*
G01*
X8342750Y-5552096D02*
G75*
G03*
X8342750Y-5552096I-85090J0D01*
G01*
X8490916Y-7245626D02*
G75*
G03*
X8490916Y-7245626I-85090J0D01*
G01*
X8639079Y-8939160D02*
G75*
G03*
X8639079Y-8939160I-85090J0D01*
G01*
X8787244Y-10632689D02*
G75*
G03*
X8787244Y-10632689I-85090J0D01*
G01*
X9463139Y-4302589D02*
G75*
G03*
X9463139Y-4302589I-85090J0D01*
G01*
X9463140Y-9402588D02*
G75*
G03*
X9463140Y-9402588I-85090J0D01*
G01*
X9463140Y-6002589D02*
G75*
G03*
X9463140Y-6002589I-85090J0D01*
G01*
X9463141Y-7702589D02*
G75*
G03*
X9463141Y-7702589I-85090J0D01*
G01*
X10563139Y-4302589D02*
G75*
G03*
X10563139Y-4302589I-85090J0D01*
G01*
X10563140Y-9402588D02*
G75*
G03*
X10563140Y-9402588I-85090J0D01*
G01*
X10563140Y-6002589D02*
G75*
G03*
X10563140Y-6002589I-85090J0D01*
G01*
X10563141Y-7702589D02*
G75*
G03*
X10563141Y-7702589I-85090J0D01*
G01*
X11263139Y-10541588D02*
G75*
G03*
X11263139Y-10541588I-85090J0D01*
G01*
X11263139Y-3741589D02*
G75*
G03*
X11263139Y-3741589I-85090J0D01*
G01*
X11263139Y-7141589D02*
G75*
G03*
X11263139Y-7141589I-85090J0D01*
G01*
X11263140Y-5441590D02*
G75*
G03*
X11263140Y-5441590I-85090J0D01*
G01*
X11263140Y-8841588D02*
G75*
G03*
X11263140Y-8841588I-85090J0D01*
G01*
X12363139Y-10541588D02*
G75*
G03*
X12363139Y-10541588I-85090J0D01*
G01*
X12363139Y-3741589D02*
G75*
G03*
X12363139Y-3741589I-85090J0D01*
G01*
X12363139Y-7141589D02*
G75*
G03*
X12363139Y-7141589I-85090J0D01*
G01*
X12363140Y-5441590D02*
G75*
G03*
X12363140Y-5441590I-85090J0D01*
G01*
X12363140Y-8841588D02*
G75*
G03*
X12363140Y-8841588I-85090J0D01*
G01*
X13063139Y-7702589D02*
G75*
G03*
X13063139Y-7702589I-85090J0D01*
G01*
X13063140Y-9402589D02*
G75*
G03*
X13063140Y-9402589I-85090J0D01*
G01*
X13063140Y-6002588D02*
G75*
G03*
X13063140Y-6002588I-85090J0D01*
G01*
X13063140Y-11102589D02*
G75*
G03*
X13063140Y-11102589I-85090J0D01*
G01*
X13063141Y-4302589D02*
G75*
G03*
X13063141Y-4302589I-85090J0D01*
G01*
X14163139Y-7702589D02*
G75*
G03*
X14163139Y-7702589I-85090J0D01*
G01*
X14163140Y-9402589D02*
G75*
G03*
X14163140Y-9402589I-85090J0D01*
G01*
X14163140Y-6002588D02*
G75*
G03*
X14163140Y-6002588I-85090J0D01*
G01*
X14163140Y-11102589D02*
G75*
G03*
X14163140Y-11102589I-85090J0D01*
G01*
X14163141Y-4302589D02*
G75*
G03*
X14163141Y-4302589I-85090J0D01*
G01*
X14863139Y-4552589D02*
G75*
G03*
X14863139Y-4552589I-85090J0D01*
G01*
X14863139Y-9652589D02*
G75*
G03*
X14863139Y-9652589I-85090J0D01*
G01*
X14863140Y-6252588D02*
G75*
G03*
X14863140Y-6252588I-85090J0D01*
G01*
X14863358Y-7952296D02*
G75*
G03*
X14863358Y-7952296I-85090J0D01*
G01*
X15081881Y-11399239D02*
G75*
G03*
X15081881Y-11399239I-85090J0D01*
G01*
X15963139Y-4552589D02*
G75*
G03*
X15963139Y-4552589I-85090J0D01*
G01*
X15963139Y-9652589D02*
G75*
G03*
X15963139Y-9652589I-85090J0D01*
G01*
X15963140Y-6252588D02*
G75*
G03*
X15963140Y-6252588I-85090J0D01*
G01*
X15963358Y-7952296D02*
G75*
G03*
X15963358Y-7952296I-85090J0D01*
G01*
X16144399Y-11683940D02*
G75*
G03*
X16144399Y-11683940I-85090J0D01*
G01*
X17086614Y-13066790D02*
G75*
G03*
X17086614Y-13066790I-85090J0D01*
G01*
X17636614Y-12114162D02*
G75*
G03*
X17636614Y-12114162I-85090J0D01*
G01*
D14*
X3954368Y-9568005D02*
X3954368Y-9868005D01*
X3804368Y-9718005D02*
X4104368Y-9718005D01*
X4471640Y-9743590D02*
X4471640Y-10043590D01*
X4321640Y-9893590D02*
X4621640Y-9893590D01*
X4471640Y-9743590D02*
X4471640Y-10043590D01*
X4321640Y-9893590D02*
X4621640Y-9893590D01*
X4950563Y-9480849D02*
X4950563Y-9780849D01*
X4800563Y-9630849D02*
X5100563Y-9630849D01*
X5599354Y-7717594D02*
X5599354Y-8017594D01*
X5449354Y-7867594D02*
X5749354Y-7867594D01*
X5747519Y-9411124D02*
X5747519Y-9711124D01*
X5597519Y-9561124D02*
X5897519Y-9561124D01*
X5895684Y-11104655D02*
X5895684Y-11404655D01*
X5745684Y-11254655D02*
X6045684Y-11254655D01*
X6116626Y-7893179D02*
X6116626Y-8193179D01*
X5966626Y-8043179D02*
X6266626Y-8043179D01*
X6116626Y-7893179D02*
X6116626Y-8193179D01*
X5966626Y-8043179D02*
X6266626Y-8043179D01*
X6264790Y-9586709D02*
X6264790Y-9886709D01*
X6114790Y-9736709D02*
X6414790Y-9736709D01*
X6264790Y-9586709D02*
X6264790Y-9886709D01*
X6114790Y-9736709D02*
X6414790Y-9736709D01*
X6412955Y-11280240D02*
X6412955Y-11580240D01*
X6262955Y-11430240D02*
X6562955Y-11430240D01*
X6412955Y-11280240D02*
X6412955Y-11580240D01*
X6262955Y-11430240D02*
X6562955Y-11430240D01*
X6595549Y-7630438D02*
X6595549Y-7930438D01*
X6445549Y-7780438D02*
X6745549Y-7780438D01*
X6743713Y-9323968D02*
X6743713Y-9623968D01*
X6593713Y-9473968D02*
X6893713Y-9473968D01*
X6891878Y-11017499D02*
X6891878Y-11317499D01*
X6741878Y-11167499D02*
X7041878Y-11167499D01*
X7244339Y-5867183D02*
X7244339Y-6167183D01*
X7094339Y-6017183D02*
X7394339Y-6017183D01*
X7392505Y-7560713D02*
X7392505Y-7860713D01*
X7242505Y-7710713D02*
X7542505Y-7710713D01*
X7540668Y-9254246D02*
X7540668Y-9554246D01*
X7390668Y-9404246D02*
X7690668Y-9404246D01*
X7688833Y-10947776D02*
X7688833Y-11247776D01*
X7538833Y-11097776D02*
X7838833Y-11097776D01*
X7761611Y-6042768D02*
X7761611Y-6342768D01*
X7611611Y-6192768D02*
X7911611Y-6192768D01*
X7761611Y-6042768D02*
X7761611Y-6342768D01*
X7611611Y-6192768D02*
X7911611Y-6192768D01*
X7909777Y-7736298D02*
X7909777Y-8036298D01*
X7759777Y-7886298D02*
X8059777Y-7886298D01*
X7909777Y-7736298D02*
X7909777Y-8036298D01*
X7759777Y-7886298D02*
X8059777Y-7886298D01*
X8057940Y-9429831D02*
X8057940Y-9729831D01*
X7907940Y-9579831D02*
X8207940Y-9579831D01*
X8057940Y-9429831D02*
X8057940Y-9729831D01*
X7907940Y-9579831D02*
X8207940Y-9579831D01*
X8206104Y-11123361D02*
X8206104Y-11423361D01*
X8056104Y-11273361D02*
X8356104Y-11273361D01*
X8206104Y-11123361D02*
X8206104Y-11423361D01*
X8056104Y-11273361D02*
X8356104Y-11273361D01*
X8240534Y-5780027D02*
X8240534Y-6080027D01*
X8090534Y-5930027D02*
X8390534Y-5930027D01*
X8388700Y-7473557D02*
X8388700Y-7773557D01*
X8238700Y-7623557D02*
X8538700Y-7623557D01*
X8536863Y-9167090D02*
X8536863Y-9467090D01*
X8386863Y-9317090D02*
X8686863Y-9317090D01*
X8685028Y-10860620D02*
X8685028Y-11160620D01*
X8535028Y-11010620D02*
X8835028Y-11010620D01*
X9428049Y-4527589D02*
X9428049Y-4827589D01*
X9278049Y-4677589D02*
X9578049Y-4677589D01*
X9428050Y-9627588D02*
X9428050Y-9927588D01*
X9278050Y-9777588D02*
X9578050Y-9777588D01*
X9428050Y-6227589D02*
X9428050Y-6527589D01*
X9278050Y-6377589D02*
X9578050Y-6377589D01*
X9428051Y-7927589D02*
X9428051Y-8227589D01*
X9278051Y-8077589D02*
X9578051Y-8077589D01*
X9928049Y-4747589D02*
X9928049Y-5047589D01*
X9778049Y-4897589D02*
X10078049Y-4897589D01*
X9928049Y-4747589D02*
X9928049Y-5047589D01*
X9778049Y-4897589D02*
X10078049Y-4897589D01*
X9928050Y-9847588D02*
X9928050Y-10147588D01*
X9778050Y-9997588D02*
X10078050Y-9997588D01*
X9928050Y-9847588D02*
X9928050Y-10147588D01*
X9778050Y-9997588D02*
X10078050Y-9997588D01*
X9928050Y-6447589D02*
X9928050Y-6747589D01*
X9778050Y-6597589D02*
X10078050Y-6597589D01*
X9928050Y-6447589D02*
X9928050Y-6747589D01*
X9778050Y-6597589D02*
X10078050Y-6597589D01*
X9928051Y-8147589D02*
X9928051Y-8447589D01*
X9778051Y-8297589D02*
X10078051Y-8297589D01*
X9928051Y-8147589D02*
X9928051Y-8447589D01*
X9778051Y-8297589D02*
X10078051Y-8297589D01*
X10428049Y-4527589D02*
X10428049Y-4827589D01*
X10278049Y-4677589D02*
X10578049Y-4677589D01*
X10428050Y-9627588D02*
X10428050Y-9927588D01*
X10278050Y-9777588D02*
X10578050Y-9777588D01*
X10428050Y-6227589D02*
X10428050Y-6527589D01*
X10278050Y-6377589D02*
X10578050Y-6377589D01*
X10428051Y-7927589D02*
X10428051Y-8227589D01*
X10278051Y-8077589D02*
X10578051Y-8077589D01*
X11228049Y-10766588D02*
X11228049Y-11066588D01*
X11078049Y-10916588D02*
X11378049Y-10916588D01*
X11228049Y-3966589D02*
X11228049Y-4266589D01*
X11078049Y-4116589D02*
X11378049Y-4116589D01*
X11228049Y-7366589D02*
X11228049Y-7666589D01*
X11078049Y-7516589D02*
X11378049Y-7516589D01*
X11228050Y-5666590D02*
X11228050Y-5966590D01*
X11078050Y-5816590D02*
X11378050Y-5816590D01*
X11228050Y-9066588D02*
X11228050Y-9366588D01*
X11078050Y-9216588D02*
X11378050Y-9216588D01*
X11728049Y-10986588D02*
X11728049Y-11286588D01*
X11578049Y-11136588D02*
X11878049Y-11136588D01*
X11728049Y-10986588D02*
X11728049Y-11286588D01*
X11578049Y-11136588D02*
X11878049Y-11136588D01*
X11728049Y-4186589D02*
X11728049Y-4486589D01*
X11578049Y-4336589D02*
X11878049Y-4336589D01*
X11728049Y-4186589D02*
X11728049Y-4486589D01*
X11578049Y-4336589D02*
X11878049Y-4336589D01*
X11728049Y-7586589D02*
X11728049Y-7886589D01*
X11578049Y-7736589D02*
X11878049Y-7736589D01*
X11728049Y-7586589D02*
X11728049Y-7886589D01*
X11578049Y-7736589D02*
X11878049Y-7736589D01*
X11728050Y-5886590D02*
X11728050Y-6186590D01*
X11578050Y-6036590D02*
X11878050Y-6036590D01*
X11728050Y-5886590D02*
X11728050Y-6186590D01*
X11578050Y-6036590D02*
X11878050Y-6036590D01*
X11728050Y-9286588D02*
X11728050Y-9586588D01*
X11578050Y-9436588D02*
X11878050Y-9436588D01*
X11728050Y-9286588D02*
X11728050Y-9586588D01*
X11578050Y-9436588D02*
X11878050Y-9436588D01*
X12228049Y-10766588D02*
X12228049Y-11066588D01*
X12078049Y-10916588D02*
X12378049Y-10916588D01*
X12228049Y-3966589D02*
X12228049Y-4266589D01*
X12078049Y-4116589D02*
X12378049Y-4116589D01*
X12228049Y-7366589D02*
X12228049Y-7666589D01*
X12078049Y-7516589D02*
X12378049Y-7516589D01*
X12228050Y-5666590D02*
X12228050Y-5966590D01*
X12078050Y-5816590D02*
X12378050Y-5816590D01*
X12228050Y-9066588D02*
X12228050Y-9366588D01*
X12078050Y-9216588D02*
X12378050Y-9216588D01*
X13028049Y-7927589D02*
X13028049Y-8227589D01*
X12878049Y-8077589D02*
X13178049Y-8077589D01*
X13028050Y-9627589D02*
X13028050Y-9927589D01*
X12878050Y-9777589D02*
X13178050Y-9777589D01*
X13028050Y-6227588D02*
X13028050Y-6527588D01*
X12878050Y-6377588D02*
X13178050Y-6377588D01*
X13028050Y-11327589D02*
X13028050Y-11627589D01*
X12878050Y-11477589D02*
X13178050Y-11477589D01*
X13028051Y-4527589D02*
X13028051Y-4827589D01*
X12878051Y-4677589D02*
X13178051Y-4677589D01*
X13528049Y-8147589D02*
X13528049Y-8447589D01*
X13378049Y-8297589D02*
X13678049Y-8297589D01*
X13528049Y-8147589D02*
X13528049Y-8447589D01*
X13378049Y-8297589D02*
X13678049Y-8297589D01*
X13528050Y-9847589D02*
X13528050Y-10147589D01*
X13378050Y-9997589D02*
X13678050Y-9997589D01*
X13528050Y-9847589D02*
X13528050Y-10147589D01*
X13378050Y-9997589D02*
X13678050Y-9997589D01*
X13528050Y-6447588D02*
X13528050Y-6747588D01*
X13378050Y-6597588D02*
X13678050Y-6597588D01*
X13528050Y-6447588D02*
X13528050Y-6747588D01*
X13378050Y-6597588D02*
X13678050Y-6597588D01*
X13528050Y-11547589D02*
X13528050Y-11847589D01*
X13378050Y-11697589D02*
X13678050Y-11697589D01*
X13528050Y-11547589D02*
X13528050Y-11847589D01*
X13378050Y-11697589D02*
X13678050Y-11697589D01*
X13528051Y-4747589D02*
X13528051Y-5047589D01*
X13378051Y-4897589D02*
X13678051Y-4897589D01*
X13528051Y-4747589D02*
X13528051Y-5047589D01*
X13378051Y-4897589D02*
X13678051Y-4897589D01*
X14028049Y-7927589D02*
X14028049Y-8227589D01*
X13878049Y-8077589D02*
X14178049Y-8077589D01*
X14028050Y-9627589D02*
X14028050Y-9927589D01*
X13878050Y-9777589D02*
X14178050Y-9777589D01*
X14028050Y-6227588D02*
X14028050Y-6527588D01*
X13878050Y-6377588D02*
X14178050Y-6377588D01*
X14028050Y-11327589D02*
X14028050Y-11627589D01*
X13878050Y-11477589D02*
X14178050Y-11477589D01*
X14028051Y-4527589D02*
X14028051Y-4827589D01*
X13878051Y-4677589D02*
X14178051Y-4677589D01*
X14828049Y-4777589D02*
X14828049Y-5077589D01*
X14678049Y-4927589D02*
X14978049Y-4927589D01*
X14828049Y-9877589D02*
X14828049Y-10177589D01*
X14678049Y-10027589D02*
X14978049Y-10027589D01*
X14828050Y-6477588D02*
X14828050Y-6777588D01*
X14678050Y-6627588D02*
X14978050Y-6627588D01*
X14828268Y-8177296D02*
X14828268Y-8477296D01*
X14678268Y-8327296D02*
X14978268Y-8327296D01*
X14948030Y-11624402D02*
X14948030Y-11924402D01*
X14798030Y-11774402D02*
X15098030Y-11774402D01*
X15328049Y-4997589D02*
X15328049Y-5297589D01*
X15178049Y-5147589D02*
X15478049Y-5147589D01*
X15328049Y-4997589D02*
X15328049Y-5297589D01*
X15178049Y-5147589D02*
X15478049Y-5147589D01*
X15328049Y-10097589D02*
X15328049Y-10397589D01*
X15178049Y-10247589D02*
X15478049Y-10247589D01*
X15328049Y-10097589D02*
X15328049Y-10397589D01*
X15178049Y-10247589D02*
X15478049Y-10247589D01*
X15328050Y-6697588D02*
X15328050Y-6997588D01*
X15178050Y-6847588D02*
X15478050Y-6847588D01*
X15328050Y-6697588D02*
X15328050Y-6997588D01*
X15178050Y-6847588D02*
X15478050Y-6847588D01*
X15328268Y-8397296D02*
X15328268Y-8697296D01*
X15178268Y-8547296D02*
X15478268Y-8547296D01*
X15328268Y-8397296D02*
X15328268Y-8697296D01*
X15178268Y-8547296D02*
X15478268Y-8547296D01*
X15374053Y-11966315D02*
X15374053Y-12266315D01*
X15224053Y-12116315D02*
X15524053Y-12116315D01*
X15374053Y-11966315D02*
X15374053Y-12266315D01*
X15224053Y-12116315D02*
X15524053Y-12116315D01*
X15828049Y-4777589D02*
X15828049Y-5077589D01*
X15678049Y-4927589D02*
X15978049Y-4927589D01*
X15828049Y-9877589D02*
X15828049Y-10177589D01*
X15678049Y-10027589D02*
X15978049Y-10027589D01*
X15828050Y-6477588D02*
X15828050Y-6777588D01*
X15678050Y-6627588D02*
X15978050Y-6627588D01*
X15828268Y-8177296D02*
X15828268Y-8477296D01*
X15678268Y-8327296D02*
X15978268Y-8327296D01*
X15913956Y-11883221D02*
X15913956Y-12183221D01*
X15763956Y-12033221D02*
X16063956Y-12033221D01*
X17351284Y-13060989D02*
X17351284Y-13360989D01*
X17201284Y-13210989D02*
X17501284Y-13210989D01*
X17791809Y-12737976D02*
X17791809Y-13037976D01*
X17641809Y-12887976D02*
X17941809Y-12887976D01*
X17791809Y-12737976D02*
X17791809Y-13037976D01*
X17641809Y-12887976D02*
X17941809Y-12887976D01*
X17851284Y-12194964D02*
X17851284Y-12494964D01*
X17701284Y-12344964D02*
X18001284Y-12344964D01*
D15*
X4541017Y-9422088D02*
X4541017Y-9179619D01*
X4298548Y-9179619D01*
X4298548Y-9422088D01*
X4541017Y-9422088D01*
X6186003Y-7571677D02*
X6186003Y-7329208D01*
X5943534Y-7329208D01*
X5943534Y-7571677D01*
X6186003Y-7571677D01*
X6334167Y-9265208D02*
X6334167Y-9022739D01*
X6091698Y-9022739D01*
X6091698Y-9265208D01*
X6334167Y-9265208D01*
X6482332Y-10958739D02*
X6482332Y-10716270D01*
X6239863Y-10716270D01*
X6239863Y-10958739D01*
X6482332Y-10958739D01*
X7830988Y-5721267D02*
X7830988Y-5478798D01*
X7588519Y-5478798D01*
X7588519Y-5721267D01*
X7830988Y-5721267D01*
X7979154Y-7414797D02*
X7979154Y-7172327D01*
X7736684Y-7172327D01*
X7736684Y-7414797D01*
X7979154Y-7414797D01*
X8127317Y-9108330D02*
X8127317Y-8865861D01*
X7884847Y-8865861D01*
X7884847Y-9108330D01*
X8127317Y-9108330D01*
X8275481Y-10801860D02*
X8275481Y-10559390D01*
X8033012Y-10559390D01*
X8033012Y-10801860D01*
X8275481Y-10801860D01*
X10049284Y-4423824D02*
X10049284Y-4181354D01*
X9806815Y-4181354D01*
X9806815Y-4423824D01*
X10049284Y-4423824D01*
X10049284Y-9523823D02*
X10049284Y-9281354D01*
X9806815Y-9281354D01*
X9806815Y-9523823D01*
X10049284Y-9523823D01*
X10049284Y-6123823D02*
X10049284Y-5881354D01*
X9806815Y-5881354D01*
X9806815Y-6123823D01*
X10049284Y-6123823D01*
X10049285Y-7823823D02*
X10049285Y-7581354D01*
X9806816Y-7581354D01*
X9806816Y-7823823D01*
X10049285Y-7823823D01*
X11849283Y-10662823D02*
X11849283Y-10420354D01*
X11606814Y-10420354D01*
X11606814Y-10662823D01*
X11849283Y-10662823D01*
X11849284Y-3862824D02*
X11849284Y-3620355D01*
X11606814Y-3620355D01*
X11606814Y-3862824D01*
X11849284Y-3862824D01*
X11849284Y-7262823D02*
X11849284Y-7020354D01*
X11606814Y-7020354D01*
X11606814Y-7262823D01*
X11849284Y-7262823D01*
X11849284Y-5562825D02*
X11849284Y-5320355D01*
X11606815Y-5320355D01*
X11606815Y-5562825D01*
X11849284Y-5562825D01*
X11849284Y-8962823D02*
X11849284Y-8720354D01*
X11606815Y-8720354D01*
X11606815Y-8962823D01*
X11849284Y-8962823D01*
X13649284Y-7823824D02*
X13649284Y-7581354D01*
X13406814Y-7581354D01*
X13406814Y-7823824D01*
X13649284Y-7823824D01*
X13649284Y-9523823D02*
X13649284Y-9281354D01*
X13406815Y-9281354D01*
X13406815Y-9523823D01*
X13649284Y-9523823D01*
X13649284Y-6123823D02*
X13649284Y-5881354D01*
X13406815Y-5881354D01*
X13406815Y-6123823D01*
X13649284Y-6123823D01*
X13649284Y-11223824D02*
X13649284Y-10981355D01*
X13406815Y-10981355D01*
X13406815Y-11223824D01*
X13649284Y-11223824D01*
X13649285Y-4423823D02*
X13649285Y-4181354D01*
X13406816Y-4181354D01*
X13406816Y-4423823D01*
X13649285Y-4423823D01*
X15449284Y-4673824D02*
X15449284Y-4431354D01*
X15206815Y-4431354D01*
X15206815Y-4673824D01*
X15449284Y-4673824D01*
X15449284Y-9773823D02*
X15449284Y-9531354D01*
X15206815Y-9531354D01*
X15206815Y-9773823D01*
X15449284Y-9773823D01*
X15449284Y-6373823D02*
X15449284Y-6131353D01*
X15206815Y-6131353D01*
X15206815Y-6373823D01*
X15449284Y-6373823D01*
X15449503Y-8073530D02*
X15449503Y-7831061D01*
X15207033Y-7831061D01*
X15207033Y-8073530D01*
X15449503Y-8073530D01*
X15649284Y-11662824D02*
X15649284Y-11420354D01*
X15406815Y-11420354D01*
X15406815Y-11662824D01*
X15649284Y-11662824D01*
X17397759Y-12711711D02*
X17397759Y-12469242D01*
X17155289Y-12469242D01*
X17155289Y-12711711D01*
X17397759Y-12711711D01*
D11*
X3600818Y-14204299D02*
X3600818Y-14004299D01*
X3600818Y-14004299D02*
X3648437Y-14004299D01*
X3648437Y-14004299D02*
X3677009Y-14013823D01*
X3677009Y-14013823D02*
X3696056Y-14032871D01*
X3696056Y-14032871D02*
X3705580Y-14051918D01*
X3705580Y-14051918D02*
X3715104Y-14090014D01*
X3715104Y-14090014D02*
X3715104Y-14118585D01*
X3715104Y-14118585D02*
X3705580Y-14156680D01*
X3705580Y-14156680D02*
X3696056Y-14175728D01*
X3696056Y-14175728D02*
X3677009Y-14194776D01*
X3677009Y-14194776D02*
X3648437Y-14204299D01*
X3648437Y-14204299D02*
X3600818Y-14204299D01*
X3800818Y-14204299D02*
X3800818Y-14070966D01*
X3800818Y-14109061D02*
X3810342Y-14090014D01*
X3810342Y-14090014D02*
X3819866Y-14080490D01*
X3819866Y-14080490D02*
X3838914Y-14070966D01*
X3838914Y-14070966D02*
X3857961Y-14070966D01*
X3924628Y-14204299D02*
X3924628Y-14070966D01*
X3924628Y-14004299D02*
X3915104Y-14013823D01*
X3915104Y-14013823D02*
X3924628Y-14023347D01*
X3924628Y-14023347D02*
X3934152Y-14013823D01*
X3934152Y-14013823D02*
X3924628Y-14004299D01*
X3924628Y-14004299D02*
X3924628Y-14023347D01*
X4048437Y-14204299D02*
X4029390Y-14194776D01*
X4029390Y-14194776D02*
X4019866Y-14175728D01*
X4019866Y-14175728D02*
X4019866Y-14004299D01*
X4153199Y-14204299D02*
X4134152Y-14194776D01*
X4134152Y-14194776D02*
X4124628Y-14175728D01*
X4124628Y-14175728D02*
X4124628Y-14004299D01*
X4381771Y-14204299D02*
X4381771Y-14004299D01*
X4381771Y-14004299D02*
X4448438Y-14147157D01*
X4448438Y-14147157D02*
X4515104Y-14004299D01*
X4515104Y-14004299D02*
X4515104Y-14204299D01*
X4696057Y-14204299D02*
X4696057Y-14099538D01*
X4696057Y-14099538D02*
X4686533Y-14080490D01*
X4686533Y-14080490D02*
X4667485Y-14070966D01*
X4667485Y-14070966D02*
X4629390Y-14070966D01*
X4629390Y-14070966D02*
X4610342Y-14080490D01*
X4696057Y-14194776D02*
X4677009Y-14204299D01*
X4677009Y-14204299D02*
X4629390Y-14204299D01*
X4629390Y-14204299D02*
X4610342Y-14194776D01*
X4610342Y-14194776D02*
X4600818Y-14175728D01*
X4600818Y-14175728D02*
X4600818Y-14156680D01*
X4600818Y-14156680D02*
X4610342Y-14137633D01*
X4610342Y-14137633D02*
X4629390Y-14128109D01*
X4629390Y-14128109D02*
X4677009Y-14128109D01*
X4677009Y-14128109D02*
X4696057Y-14118585D01*
X4791295Y-14070966D02*
X4791295Y-14270966D01*
X4791295Y-14080490D02*
X4810342Y-14070966D01*
X4810342Y-14070966D02*
X4848438Y-14070966D01*
X4848438Y-14070966D02*
X4867485Y-14080490D01*
X4867485Y-14080490D02*
X4877009Y-14090014D01*
X4877009Y-14090014D02*
X4886533Y-14109061D01*
X4886533Y-14109061D02*
X4886533Y-14166204D01*
X4886533Y-14166204D02*
X4877009Y-14185252D01*
X4877009Y-14185252D02*
X4867485Y-14194776D01*
X4867485Y-14194776D02*
X4848438Y-14204299D01*
X4848438Y-14204299D02*
X4810342Y-14204299D01*
X4810342Y-14204299D02*
X4791295Y-14194776D01*
X4972247Y-14185252D02*
X4981771Y-14194776D01*
X4981771Y-14194776D02*
X4972247Y-14204299D01*
X4972247Y-14204299D02*
X4962723Y-14194776D01*
X4962723Y-14194776D02*
X4972247Y-14185252D01*
X4972247Y-14185252D02*
X4972247Y-14204299D01*
X4972247Y-14080490D02*
X4981771Y-14090014D01*
X4981771Y-14090014D02*
X4972247Y-14099538D01*
X4972247Y-14099538D02*
X4962723Y-14090014D01*
X4962723Y-14090014D02*
X4972247Y-14080490D01*
X4972247Y-14080490D02*
X4972247Y-14099538D01*
D12*
X3250042Y-14487816D02*
X3340042Y-14577816D01*
X3340042Y-14487816D02*
X3250042Y-14577816D01*
D11*
X3638914Y-14424299D02*
X3657961Y-14424299D01*
X3657961Y-14424299D02*
X3677009Y-14433823D01*
X3677009Y-14433823D02*
X3686533Y-14443347D01*
X3686533Y-14443347D02*
X3696056Y-14462395D01*
X3696056Y-14462395D02*
X3705580Y-14500490D01*
X3705580Y-14500490D02*
X3705580Y-14548109D01*
X3705580Y-14548109D02*
X3696056Y-14586204D01*
X3696056Y-14586204D02*
X3686533Y-14605252D01*
X3686533Y-14605252D02*
X3677009Y-14614776D01*
X3677009Y-14614776D02*
X3657961Y-14624299D01*
X3657961Y-14624299D02*
X3638914Y-14624299D01*
X3638914Y-14624299D02*
X3619866Y-14614776D01*
X3619866Y-14614776D02*
X3610342Y-14605252D01*
X3610342Y-14605252D02*
X3600818Y-14586204D01*
X3600818Y-14586204D02*
X3591295Y-14548109D01*
X3591295Y-14548109D02*
X3591295Y-14500490D01*
X3591295Y-14500490D02*
X3600818Y-14462395D01*
X3600818Y-14462395D02*
X3610342Y-14443347D01*
X3610342Y-14443347D02*
X3619866Y-14433823D01*
X3619866Y-14433823D02*
X3638914Y-14424299D01*
X3791295Y-14605252D02*
X3800818Y-14614776D01*
X3800818Y-14614776D02*
X3791295Y-14624299D01*
X3791295Y-14624299D02*
X3781771Y-14614776D01*
X3781771Y-14614776D02*
X3791295Y-14605252D01*
X3791295Y-14605252D02*
X3791295Y-14624299D01*
X3896056Y-14624299D02*
X3934152Y-14624299D01*
X3934152Y-14624299D02*
X3953199Y-14614776D01*
X3953199Y-14614776D02*
X3962723Y-14605252D01*
X3962723Y-14605252D02*
X3981771Y-14576680D01*
X3981771Y-14576680D02*
X3991295Y-14538585D01*
X3991295Y-14538585D02*
X3991295Y-14462395D01*
X3991295Y-14462395D02*
X3981771Y-14443347D01*
X3981771Y-14443347D02*
X3972247Y-14433823D01*
X3972247Y-14433823D02*
X3953199Y-14424299D01*
X3953199Y-14424299D02*
X3915104Y-14424299D01*
X3915104Y-14424299D02*
X3896056Y-14433823D01*
X3896056Y-14433823D02*
X3886533Y-14443347D01*
X3886533Y-14443347D02*
X3877009Y-14462395D01*
X3877009Y-14462395D02*
X3877009Y-14510014D01*
X3877009Y-14510014D02*
X3886533Y-14529061D01*
X3886533Y-14529061D02*
X3896056Y-14538585D01*
X3896056Y-14538585D02*
X3915104Y-14548109D01*
X3915104Y-14548109D02*
X3953199Y-14548109D01*
X3953199Y-14548109D02*
X3972247Y-14538585D01*
X3972247Y-14538585D02*
X3981771Y-14529061D01*
X3981771Y-14529061D02*
X3991295Y-14510014D01*
X4115104Y-14424299D02*
X4134152Y-14424299D01*
X4134152Y-14424299D02*
X4153199Y-14433823D01*
X4153199Y-14433823D02*
X4162723Y-14443347D01*
X4162723Y-14443347D02*
X4172247Y-14462395D01*
X4172247Y-14462395D02*
X4181771Y-14500490D01*
X4181771Y-14500490D02*
X4181771Y-14548109D01*
X4181771Y-14548109D02*
X4172247Y-14586204D01*
X4172247Y-14586204D02*
X4162723Y-14605252D01*
X4162723Y-14605252D02*
X4153199Y-14614776D01*
X4153199Y-14614776D02*
X4134152Y-14624299D01*
X4134152Y-14624299D02*
X4115104Y-14624299D01*
X4115104Y-14624299D02*
X4096056Y-14614776D01*
X4096056Y-14614776D02*
X4086533Y-14605252D01*
X4086533Y-14605252D02*
X4077009Y-14586204D01*
X4077009Y-14586204D02*
X4067485Y-14548109D01*
X4067485Y-14548109D02*
X4067485Y-14500490D01*
X4067485Y-14500490D02*
X4077009Y-14462395D01*
X4077009Y-14462395D02*
X4086533Y-14443347D01*
X4086533Y-14443347D02*
X4096056Y-14433823D01*
X4096056Y-14433823D02*
X4115104Y-14424299D01*
X4305580Y-14424299D02*
X4324628Y-14424299D01*
X4324628Y-14424299D02*
X4343676Y-14433823D01*
X4343676Y-14433823D02*
X4353199Y-14443347D01*
X4353199Y-14443347D02*
X4362723Y-14462395D01*
X4362723Y-14462395D02*
X4372247Y-14500490D01*
X4372247Y-14500490D02*
X4372247Y-14548109D01*
X4372247Y-14548109D02*
X4362723Y-14586204D01*
X4362723Y-14586204D02*
X4353199Y-14605252D01*
X4353199Y-14605252D02*
X4343676Y-14614776D01*
X4343676Y-14614776D02*
X4324628Y-14624299D01*
X4324628Y-14624299D02*
X4305580Y-14624299D01*
X4305580Y-14624299D02*
X4286533Y-14614776D01*
X4286533Y-14614776D02*
X4277009Y-14605252D01*
X4277009Y-14605252D02*
X4267485Y-14586204D01*
X4267485Y-14586204D02*
X4257961Y-14548109D01*
X4257961Y-14548109D02*
X4257961Y-14500490D01*
X4257961Y-14500490D02*
X4267485Y-14462395D01*
X4267485Y-14462395D02*
X4277009Y-14443347D01*
X4277009Y-14443347D02*
X4286533Y-14433823D01*
X4286533Y-14433823D02*
X4305580Y-14424299D01*
X4457961Y-14624299D02*
X4457961Y-14490966D01*
X4457961Y-14510014D02*
X4467485Y-14500490D01*
X4467485Y-14500490D02*
X4486533Y-14490966D01*
X4486533Y-14490966D02*
X4515104Y-14490966D01*
X4515104Y-14490966D02*
X4534152Y-14500490D01*
X4534152Y-14500490D02*
X4543676Y-14519538D01*
X4543676Y-14519538D02*
X4543676Y-14624299D01*
X4543676Y-14519538D02*
X4553199Y-14500490D01*
X4553199Y-14500490D02*
X4572247Y-14490966D01*
X4572247Y-14490966D02*
X4600818Y-14490966D01*
X4600818Y-14490966D02*
X4619866Y-14500490D01*
X4619866Y-14500490D02*
X4629390Y-14519538D01*
X4629390Y-14519538D02*
X4629390Y-14624299D01*
X4724628Y-14624299D02*
X4724628Y-14490966D01*
X4724628Y-14510014D02*
X4734152Y-14500490D01*
X4734152Y-14500490D02*
X4753199Y-14490966D01*
X4753199Y-14490966D02*
X4781771Y-14490966D01*
X4781771Y-14490966D02*
X4800819Y-14500490D01*
X4800819Y-14500490D02*
X4810342Y-14519538D01*
X4810342Y-14519538D02*
X4810342Y-14624299D01*
X4810342Y-14519538D02*
X4819866Y-14500490D01*
X4819866Y-14500490D02*
X4838914Y-14490966D01*
X4838914Y-14490966D02*
X4867485Y-14490966D01*
X4867485Y-14490966D02*
X4886533Y-14500490D01*
X4886533Y-14500490D02*
X4896057Y-14519538D01*
X4896057Y-14519538D02*
X4896057Y-14624299D01*
X5286533Y-14414776D02*
X5115104Y-14671918D01*
X5543676Y-14424299D02*
X5562723Y-14424299D01*
X5562723Y-14424299D02*
X5581771Y-14433823D01*
X5581771Y-14433823D02*
X5591295Y-14443347D01*
X5591295Y-14443347D02*
X5600819Y-14462395D01*
X5600819Y-14462395D02*
X5610342Y-14500490D01*
X5610342Y-14500490D02*
X5610342Y-14548109D01*
X5610342Y-14548109D02*
X5600819Y-14586204D01*
X5600819Y-14586204D02*
X5591295Y-14605252D01*
X5591295Y-14605252D02*
X5581771Y-14614776D01*
X5581771Y-14614776D02*
X5562723Y-14624299D01*
X5562723Y-14624299D02*
X5543676Y-14624299D01*
X5543676Y-14624299D02*
X5524628Y-14614776D01*
X5524628Y-14614776D02*
X5515104Y-14605252D01*
X5515104Y-14605252D02*
X5505581Y-14586204D01*
X5505581Y-14586204D02*
X5496057Y-14548109D01*
X5496057Y-14548109D02*
X5496057Y-14500490D01*
X5496057Y-14500490D02*
X5505581Y-14462395D01*
X5505581Y-14462395D02*
X5515104Y-14443347D01*
X5515104Y-14443347D02*
X5524628Y-14433823D01*
X5524628Y-14433823D02*
X5543676Y-14424299D01*
X5696057Y-14605252D02*
X5705580Y-14614776D01*
X5705580Y-14614776D02*
X5696057Y-14624299D01*
X5696057Y-14624299D02*
X5686533Y-14614776D01*
X5686533Y-14614776D02*
X5696057Y-14605252D01*
X5696057Y-14605252D02*
X5696057Y-14624299D01*
X5829390Y-14424299D02*
X5848438Y-14424299D01*
X5848438Y-14424299D02*
X5867485Y-14433823D01*
X5867485Y-14433823D02*
X5877009Y-14443347D01*
X5877009Y-14443347D02*
X5886533Y-14462395D01*
X5886533Y-14462395D02*
X5896057Y-14500490D01*
X5896057Y-14500490D02*
X5896057Y-14548109D01*
X5896057Y-14548109D02*
X5886533Y-14586204D01*
X5886533Y-14586204D02*
X5877009Y-14605252D01*
X5877009Y-14605252D02*
X5867485Y-14614776D01*
X5867485Y-14614776D02*
X5848438Y-14624299D01*
X5848438Y-14624299D02*
X5829390Y-14624299D01*
X5829390Y-14624299D02*
X5810342Y-14614776D01*
X5810342Y-14614776D02*
X5800819Y-14605252D01*
X5800819Y-14605252D02*
X5791295Y-14586204D01*
X5791295Y-14586204D02*
X5781771Y-14548109D01*
X5781771Y-14548109D02*
X5781771Y-14500490D01*
X5781771Y-14500490D02*
X5791295Y-14462395D01*
X5791295Y-14462395D02*
X5800819Y-14443347D01*
X5800819Y-14443347D02*
X5810342Y-14433823D01*
X5810342Y-14433823D02*
X5829390Y-14424299D01*
X5962723Y-14424299D02*
X6086533Y-14424299D01*
X6086533Y-14424299D02*
X6019866Y-14500490D01*
X6019866Y-14500490D02*
X6048438Y-14500490D01*
X6048438Y-14500490D02*
X6067485Y-14510014D01*
X6067485Y-14510014D02*
X6077009Y-14519538D01*
X6077009Y-14519538D02*
X6086533Y-14538585D01*
X6086533Y-14538585D02*
X6086533Y-14586204D01*
X6086533Y-14586204D02*
X6077009Y-14605252D01*
X6077009Y-14605252D02*
X6067485Y-14614776D01*
X6067485Y-14614776D02*
X6048438Y-14624299D01*
X6048438Y-14624299D02*
X5991295Y-14624299D01*
X5991295Y-14624299D02*
X5972247Y-14614776D01*
X5972247Y-14614776D02*
X5962723Y-14605252D01*
X6267485Y-14424299D02*
X6172247Y-14424299D01*
X6172247Y-14424299D02*
X6162723Y-14519538D01*
X6162723Y-14519538D02*
X6172247Y-14510014D01*
X6172247Y-14510014D02*
X6191295Y-14500490D01*
X6191295Y-14500490D02*
X6238914Y-14500490D01*
X6238914Y-14500490D02*
X6257961Y-14510014D01*
X6257961Y-14510014D02*
X6267485Y-14519538D01*
X6267485Y-14519538D02*
X6277009Y-14538585D01*
X6277009Y-14538585D02*
X6277009Y-14586204D01*
X6277009Y-14586204D02*
X6267485Y-14605252D01*
X6267485Y-14605252D02*
X6257961Y-14614776D01*
X6257961Y-14614776D02*
X6238914Y-14624299D01*
X6238914Y-14624299D02*
X6191295Y-14624299D01*
X6191295Y-14624299D02*
X6172247Y-14614776D01*
X6172247Y-14614776D02*
X6162723Y-14605252D01*
X6448438Y-14490966D02*
X6448438Y-14624299D01*
X6400819Y-14414776D02*
X6353200Y-14557633D01*
X6353200Y-14557633D02*
X6477009Y-14557633D01*
X6543676Y-14424299D02*
X6543676Y-14462395D01*
X6619866Y-14424299D02*
X6619866Y-14462395D01*
X6915104Y-14700490D02*
X6905581Y-14690966D01*
X6905581Y-14690966D02*
X6886533Y-14662395D01*
X6886533Y-14662395D02*
X6877009Y-14643347D01*
X6877009Y-14643347D02*
X6867485Y-14614776D01*
X6867485Y-14614776D02*
X6857962Y-14567157D01*
X6857962Y-14567157D02*
X6857962Y-14529061D01*
X6857962Y-14529061D02*
X6867485Y-14481442D01*
X6867485Y-14481442D02*
X6877009Y-14452871D01*
X6877009Y-14452871D02*
X6886533Y-14433823D01*
X6886533Y-14433823D02*
X6905581Y-14405252D01*
X6905581Y-14405252D02*
X6915104Y-14395728D01*
X6981771Y-14443347D02*
X6991295Y-14433823D01*
X6991295Y-14433823D02*
X7010342Y-14424299D01*
X7010342Y-14424299D02*
X7057962Y-14424299D01*
X7057962Y-14424299D02*
X7077009Y-14433823D01*
X7077009Y-14433823D02*
X7086533Y-14443347D01*
X7086533Y-14443347D02*
X7096057Y-14462395D01*
X7096057Y-14462395D02*
X7096057Y-14481442D01*
X7096057Y-14481442D02*
X7086533Y-14510014D01*
X7086533Y-14510014D02*
X6972247Y-14624299D01*
X6972247Y-14624299D02*
X7096057Y-14624299D01*
X7334152Y-14624299D02*
X7334152Y-14424299D01*
X7419866Y-14624299D02*
X7419866Y-14519538D01*
X7419866Y-14519538D02*
X7410343Y-14500490D01*
X7410343Y-14500490D02*
X7391295Y-14490966D01*
X7391295Y-14490966D02*
X7362723Y-14490966D01*
X7362723Y-14490966D02*
X7343676Y-14500490D01*
X7343676Y-14500490D02*
X7334152Y-14510014D01*
X7543676Y-14624299D02*
X7524628Y-14614776D01*
X7524628Y-14614776D02*
X7515104Y-14605252D01*
X7515104Y-14605252D02*
X7505581Y-14586204D01*
X7505581Y-14586204D02*
X7505581Y-14529061D01*
X7505581Y-14529061D02*
X7515104Y-14510014D01*
X7515104Y-14510014D02*
X7524628Y-14500490D01*
X7524628Y-14500490D02*
X7543676Y-14490966D01*
X7543676Y-14490966D02*
X7572247Y-14490966D01*
X7572247Y-14490966D02*
X7591295Y-14500490D01*
X7591295Y-14500490D02*
X7600819Y-14510014D01*
X7600819Y-14510014D02*
X7610343Y-14529061D01*
X7610343Y-14529061D02*
X7610343Y-14586204D01*
X7610343Y-14586204D02*
X7600819Y-14605252D01*
X7600819Y-14605252D02*
X7591295Y-14614776D01*
X7591295Y-14614776D02*
X7572247Y-14624299D01*
X7572247Y-14624299D02*
X7543676Y-14624299D01*
X7724628Y-14624299D02*
X7705581Y-14614776D01*
X7705581Y-14614776D02*
X7696057Y-14595728D01*
X7696057Y-14595728D02*
X7696057Y-14424299D01*
X7877009Y-14614776D02*
X7857962Y-14624299D01*
X7857962Y-14624299D02*
X7819866Y-14624299D01*
X7819866Y-14624299D02*
X7800819Y-14614776D01*
X7800819Y-14614776D02*
X7791295Y-14595728D01*
X7791295Y-14595728D02*
X7791295Y-14519538D01*
X7791295Y-14519538D02*
X7800819Y-14500490D01*
X7800819Y-14500490D02*
X7819866Y-14490966D01*
X7819866Y-14490966D02*
X7857962Y-14490966D01*
X7857962Y-14490966D02*
X7877009Y-14500490D01*
X7877009Y-14500490D02*
X7886533Y-14519538D01*
X7886533Y-14519538D02*
X7886533Y-14538585D01*
X7886533Y-14538585D02*
X7791295Y-14557633D01*
X7962724Y-14614776D02*
X7981771Y-14624299D01*
X7981771Y-14624299D02*
X8019866Y-14624299D01*
X8019866Y-14624299D02*
X8038914Y-14614776D01*
X8038914Y-14614776D02*
X8048438Y-14595728D01*
X8048438Y-14595728D02*
X8048438Y-14586204D01*
X8048438Y-14586204D02*
X8038914Y-14567157D01*
X8038914Y-14567157D02*
X8019866Y-14557633D01*
X8019866Y-14557633D02*
X7991295Y-14557633D01*
X7991295Y-14557633D02*
X7972247Y-14548109D01*
X7972247Y-14548109D02*
X7962724Y-14529061D01*
X7962724Y-14529061D02*
X7962724Y-14519538D01*
X7962724Y-14519538D02*
X7972247Y-14500490D01*
X7972247Y-14500490D02*
X7991295Y-14490966D01*
X7991295Y-14490966D02*
X8019866Y-14490966D01*
X8019866Y-14490966D02*
X8038914Y-14500490D01*
X8115105Y-14700490D02*
X8124628Y-14690966D01*
X8124628Y-14690966D02*
X8143676Y-14662395D01*
X8143676Y-14662395D02*
X8153200Y-14643347D01*
X8153200Y-14643347D02*
X8162724Y-14614776D01*
X8162724Y-14614776D02*
X8172247Y-14567157D01*
X8172247Y-14567157D02*
X8172247Y-14529061D01*
X8172247Y-14529061D02*
X8162724Y-14481442D01*
X8162724Y-14481442D02*
X8153200Y-14452871D01*
X8153200Y-14452871D02*
X8143676Y-14433823D01*
X8143676Y-14433823D02*
X8124628Y-14405252D01*
X8124628Y-14405252D02*
X8115105Y-14395728D01*
X8477009Y-14700490D02*
X8467486Y-14690966D01*
X8467486Y-14690966D02*
X8448438Y-14662395D01*
X8448438Y-14662395D02*
X8438914Y-14643347D01*
X8438914Y-14643347D02*
X8429390Y-14614776D01*
X8429390Y-14614776D02*
X8419867Y-14567157D01*
X8419867Y-14567157D02*
X8419867Y-14529061D01*
X8419867Y-14529061D02*
X8429390Y-14481442D01*
X8429390Y-14481442D02*
X8438914Y-14452871D01*
X8438914Y-14452871D02*
X8448438Y-14433823D01*
X8448438Y-14433823D02*
X8467486Y-14405252D01*
X8467486Y-14405252D02*
X8477009Y-14395728D01*
X8553200Y-14490966D02*
X8553200Y-14624299D01*
X8553200Y-14510014D02*
X8562724Y-14500490D01*
X8562724Y-14500490D02*
X8581771Y-14490966D01*
X8581771Y-14490966D02*
X8610343Y-14490966D01*
X8610343Y-14490966D02*
X8629390Y-14500490D01*
X8629390Y-14500490D02*
X8638914Y-14519538D01*
X8638914Y-14519538D02*
X8638914Y-14624299D01*
X8762724Y-14624299D02*
X8743676Y-14614776D01*
X8743676Y-14614776D02*
X8734152Y-14605252D01*
X8734152Y-14605252D02*
X8724628Y-14586204D01*
X8724628Y-14586204D02*
X8724628Y-14529061D01*
X8724628Y-14529061D02*
X8734152Y-14510014D01*
X8734152Y-14510014D02*
X8743676Y-14500490D01*
X8743676Y-14500490D02*
X8762724Y-14490966D01*
X8762724Y-14490966D02*
X8791295Y-14490966D01*
X8791295Y-14490966D02*
X8810343Y-14500490D01*
X8810343Y-14500490D02*
X8819867Y-14510014D01*
X8819867Y-14510014D02*
X8829390Y-14529061D01*
X8829390Y-14529061D02*
X8829390Y-14586204D01*
X8829390Y-14586204D02*
X8819867Y-14605252D01*
X8819867Y-14605252D02*
X8810343Y-14614776D01*
X8810343Y-14614776D02*
X8791295Y-14624299D01*
X8791295Y-14624299D02*
X8762724Y-14624299D01*
X8886533Y-14490966D02*
X8962724Y-14490966D01*
X8915105Y-14424299D02*
X8915105Y-14595728D01*
X8915105Y-14595728D02*
X8924628Y-14614776D01*
X8924628Y-14614776D02*
X8943676Y-14624299D01*
X8943676Y-14624299D02*
X8962724Y-14624299D01*
X9181771Y-14490966D02*
X9181771Y-14690966D01*
X9181771Y-14500490D02*
X9200819Y-14490966D01*
X9200819Y-14490966D02*
X9238914Y-14490966D01*
X9238914Y-14490966D02*
X9257962Y-14500490D01*
X9257962Y-14500490D02*
X9267486Y-14510014D01*
X9267486Y-14510014D02*
X9277009Y-14529061D01*
X9277009Y-14529061D02*
X9277009Y-14586204D01*
X9277009Y-14586204D02*
X9267486Y-14605252D01*
X9267486Y-14605252D02*
X9257962Y-14614776D01*
X9257962Y-14614776D02*
X9238914Y-14624299D01*
X9238914Y-14624299D02*
X9200819Y-14624299D01*
X9200819Y-14624299D02*
X9181771Y-14614776D01*
X9391295Y-14624299D02*
X9372248Y-14614776D01*
X9372248Y-14614776D02*
X9362724Y-14595728D01*
X9362724Y-14595728D02*
X9362724Y-14424299D01*
X9553200Y-14624299D02*
X9553200Y-14519538D01*
X9553200Y-14519538D02*
X9543676Y-14500490D01*
X9543676Y-14500490D02*
X9524629Y-14490966D01*
X9524629Y-14490966D02*
X9486533Y-14490966D01*
X9486533Y-14490966D02*
X9467486Y-14500490D01*
X9553200Y-14614776D02*
X9534152Y-14624299D01*
X9534152Y-14624299D02*
X9486533Y-14624299D01*
X9486533Y-14624299D02*
X9467486Y-14614776D01*
X9467486Y-14614776D02*
X9457962Y-14595728D01*
X9457962Y-14595728D02*
X9457962Y-14576680D01*
X9457962Y-14576680D02*
X9467486Y-14557633D01*
X9467486Y-14557633D02*
X9486533Y-14548109D01*
X9486533Y-14548109D02*
X9534152Y-14548109D01*
X9534152Y-14548109D02*
X9553200Y-14538585D01*
X9619867Y-14490966D02*
X9696057Y-14490966D01*
X9648438Y-14424299D02*
X9648438Y-14595728D01*
X9648438Y-14595728D02*
X9657962Y-14614776D01*
X9657962Y-14614776D02*
X9677009Y-14624299D01*
X9677009Y-14624299D02*
X9696057Y-14624299D01*
X9838914Y-14614776D02*
X9819867Y-14624299D01*
X9819867Y-14624299D02*
X9781771Y-14624299D01*
X9781771Y-14624299D02*
X9762724Y-14614776D01*
X9762724Y-14614776D02*
X9753200Y-14595728D01*
X9753200Y-14595728D02*
X9753200Y-14519538D01*
X9753200Y-14519538D02*
X9762724Y-14500490D01*
X9762724Y-14500490D02*
X9781771Y-14490966D01*
X9781771Y-14490966D02*
X9819867Y-14490966D01*
X9819867Y-14490966D02*
X9838914Y-14500490D01*
X9838914Y-14500490D02*
X9848438Y-14519538D01*
X9848438Y-14519538D02*
X9848438Y-14538585D01*
X9848438Y-14538585D02*
X9753200Y-14557633D01*
X10019867Y-14624299D02*
X10019867Y-14424299D01*
X10019867Y-14614776D02*
X10000819Y-14624299D01*
X10000819Y-14624299D02*
X9962724Y-14624299D01*
X9962724Y-14624299D02*
X9943676Y-14614776D01*
X9943676Y-14614776D02*
X9934152Y-14605252D01*
X9934152Y-14605252D02*
X9924629Y-14586204D01*
X9924629Y-14586204D02*
X9924629Y-14529061D01*
X9924629Y-14529061D02*
X9934152Y-14510014D01*
X9934152Y-14510014D02*
X9943676Y-14500490D01*
X9943676Y-14500490D02*
X9962724Y-14490966D01*
X9962724Y-14490966D02*
X10000819Y-14490966D01*
X10000819Y-14490966D02*
X10019867Y-14500490D01*
X10096057Y-14700490D02*
X10105581Y-14690966D01*
X10105581Y-14690966D02*
X10124629Y-14662395D01*
X10124629Y-14662395D02*
X10134152Y-14643347D01*
X10134152Y-14643347D02*
X10143676Y-14614776D01*
X10143676Y-14614776D02*
X10153200Y-14567157D01*
X10153200Y-14567157D02*
X10153200Y-14529061D01*
X10153200Y-14529061D02*
X10143676Y-14481442D01*
X10143676Y-14481442D02*
X10134152Y-14452871D01*
X10134152Y-14452871D02*
X10124629Y-14433823D01*
X10124629Y-14433823D02*
X10105581Y-14405252D01*
X10105581Y-14405252D02*
X10096057Y-14395728D01*
D13*
X3340042Y-14796816D02*
G75*
G03*
X3340042Y-14796816I-85090J0D01*
G01*
D11*
X3705580Y-14888299D02*
X3591295Y-14888299D01*
X3648437Y-14888299D02*
X3648437Y-14688299D01*
X3648437Y-14688299D02*
X3629390Y-14716871D01*
X3629390Y-14716871D02*
X3610342Y-14735918D01*
X3610342Y-14735918D02*
X3591295Y-14745442D01*
X3791295Y-14869252D02*
X3800818Y-14878776D01*
X3800818Y-14878776D02*
X3791295Y-14888299D01*
X3791295Y-14888299D02*
X3781771Y-14878776D01*
X3781771Y-14878776D02*
X3791295Y-14869252D01*
X3791295Y-14869252D02*
X3791295Y-14888299D01*
X3867485Y-14688299D02*
X4000818Y-14688299D01*
X4000818Y-14688299D02*
X3915104Y-14888299D01*
X4115104Y-14688299D02*
X4134152Y-14688299D01*
X4134152Y-14688299D02*
X4153199Y-14697823D01*
X4153199Y-14697823D02*
X4162723Y-14707347D01*
X4162723Y-14707347D02*
X4172247Y-14726395D01*
X4172247Y-14726395D02*
X4181771Y-14764490D01*
X4181771Y-14764490D02*
X4181771Y-14812109D01*
X4181771Y-14812109D02*
X4172247Y-14850204D01*
X4172247Y-14850204D02*
X4162723Y-14869252D01*
X4162723Y-14869252D02*
X4153199Y-14878776D01*
X4153199Y-14878776D02*
X4134152Y-14888299D01*
X4134152Y-14888299D02*
X4115104Y-14888299D01*
X4115104Y-14888299D02*
X4096056Y-14878776D01*
X4096056Y-14878776D02*
X4086533Y-14869252D01*
X4086533Y-14869252D02*
X4077009Y-14850204D01*
X4077009Y-14850204D02*
X4067485Y-14812109D01*
X4067485Y-14812109D02*
X4067485Y-14764490D01*
X4067485Y-14764490D02*
X4077009Y-14726395D01*
X4077009Y-14726395D02*
X4086533Y-14707347D01*
X4086533Y-14707347D02*
X4096056Y-14697823D01*
X4096056Y-14697823D02*
X4115104Y-14688299D01*
X4257961Y-14707347D02*
X4267485Y-14697823D01*
X4267485Y-14697823D02*
X4286533Y-14688299D01*
X4286533Y-14688299D02*
X4334152Y-14688299D01*
X4334152Y-14688299D02*
X4353199Y-14697823D01*
X4353199Y-14697823D02*
X4362723Y-14707347D01*
X4362723Y-14707347D02*
X4372247Y-14726395D01*
X4372247Y-14726395D02*
X4372247Y-14745442D01*
X4372247Y-14745442D02*
X4362723Y-14774014D01*
X4362723Y-14774014D02*
X4248438Y-14888299D01*
X4248438Y-14888299D02*
X4372247Y-14888299D01*
X4457961Y-14888299D02*
X4457961Y-14754966D01*
X4457961Y-14774014D02*
X4467485Y-14764490D01*
X4467485Y-14764490D02*
X4486533Y-14754966D01*
X4486533Y-14754966D02*
X4515104Y-14754966D01*
X4515104Y-14754966D02*
X4534152Y-14764490D01*
X4534152Y-14764490D02*
X4543676Y-14783538D01*
X4543676Y-14783538D02*
X4543676Y-14888299D01*
X4543676Y-14783538D02*
X4553199Y-14764490D01*
X4553199Y-14764490D02*
X4572247Y-14754966D01*
X4572247Y-14754966D02*
X4600818Y-14754966D01*
X4600818Y-14754966D02*
X4619866Y-14764490D01*
X4619866Y-14764490D02*
X4629390Y-14783538D01*
X4629390Y-14783538D02*
X4629390Y-14888299D01*
X4724628Y-14888299D02*
X4724628Y-14754966D01*
X4724628Y-14774014D02*
X4734152Y-14764490D01*
X4734152Y-14764490D02*
X4753199Y-14754966D01*
X4753199Y-14754966D02*
X4781771Y-14754966D01*
X4781771Y-14754966D02*
X4800819Y-14764490D01*
X4800819Y-14764490D02*
X4810342Y-14783538D01*
X4810342Y-14783538D02*
X4810342Y-14888299D01*
X4810342Y-14783538D02*
X4819866Y-14764490D01*
X4819866Y-14764490D02*
X4838914Y-14754966D01*
X4838914Y-14754966D02*
X4867485Y-14754966D01*
X4867485Y-14754966D02*
X4886533Y-14764490D01*
X4886533Y-14764490D02*
X4896057Y-14783538D01*
X4896057Y-14783538D02*
X4896057Y-14888299D01*
X5286533Y-14678776D02*
X5115104Y-14935918D01*
X5543676Y-14688299D02*
X5562723Y-14688299D01*
X5562723Y-14688299D02*
X5581771Y-14697823D01*
X5581771Y-14697823D02*
X5591295Y-14707347D01*
X5591295Y-14707347D02*
X5600819Y-14726395D01*
X5600819Y-14726395D02*
X5610342Y-14764490D01*
X5610342Y-14764490D02*
X5610342Y-14812109D01*
X5610342Y-14812109D02*
X5600819Y-14850204D01*
X5600819Y-14850204D02*
X5591295Y-14869252D01*
X5591295Y-14869252D02*
X5581771Y-14878776D01*
X5581771Y-14878776D02*
X5562723Y-14888299D01*
X5562723Y-14888299D02*
X5543676Y-14888299D01*
X5543676Y-14888299D02*
X5524628Y-14878776D01*
X5524628Y-14878776D02*
X5515104Y-14869252D01*
X5515104Y-14869252D02*
X5505581Y-14850204D01*
X5505581Y-14850204D02*
X5496057Y-14812109D01*
X5496057Y-14812109D02*
X5496057Y-14764490D01*
X5496057Y-14764490D02*
X5505581Y-14726395D01*
X5505581Y-14726395D02*
X5515104Y-14707347D01*
X5515104Y-14707347D02*
X5524628Y-14697823D01*
X5524628Y-14697823D02*
X5543676Y-14688299D01*
X5696057Y-14869252D02*
X5705580Y-14878776D01*
X5705580Y-14878776D02*
X5696057Y-14888299D01*
X5696057Y-14888299D02*
X5686533Y-14878776D01*
X5686533Y-14878776D02*
X5696057Y-14869252D01*
X5696057Y-14869252D02*
X5696057Y-14888299D01*
X5829390Y-14688299D02*
X5848438Y-14688299D01*
X5848438Y-14688299D02*
X5867485Y-14697823D01*
X5867485Y-14697823D02*
X5877009Y-14707347D01*
X5877009Y-14707347D02*
X5886533Y-14726395D01*
X5886533Y-14726395D02*
X5896057Y-14764490D01*
X5896057Y-14764490D02*
X5896057Y-14812109D01*
X5896057Y-14812109D02*
X5886533Y-14850204D01*
X5886533Y-14850204D02*
X5877009Y-14869252D01*
X5877009Y-14869252D02*
X5867485Y-14878776D01*
X5867485Y-14878776D02*
X5848438Y-14888299D01*
X5848438Y-14888299D02*
X5829390Y-14888299D01*
X5829390Y-14888299D02*
X5810342Y-14878776D01*
X5810342Y-14878776D02*
X5800819Y-14869252D01*
X5800819Y-14869252D02*
X5791295Y-14850204D01*
X5791295Y-14850204D02*
X5781771Y-14812109D01*
X5781771Y-14812109D02*
X5781771Y-14764490D01*
X5781771Y-14764490D02*
X5791295Y-14726395D01*
X5791295Y-14726395D02*
X5800819Y-14707347D01*
X5800819Y-14707347D02*
X5810342Y-14697823D01*
X5810342Y-14697823D02*
X5829390Y-14688299D01*
X6067485Y-14688299D02*
X6029390Y-14688299D01*
X6029390Y-14688299D02*
X6010342Y-14697823D01*
X6010342Y-14697823D02*
X6000819Y-14707347D01*
X6000819Y-14707347D02*
X5981771Y-14735918D01*
X5981771Y-14735918D02*
X5972247Y-14774014D01*
X5972247Y-14774014D02*
X5972247Y-14850204D01*
X5972247Y-14850204D02*
X5981771Y-14869252D01*
X5981771Y-14869252D02*
X5991295Y-14878776D01*
X5991295Y-14878776D02*
X6010342Y-14888299D01*
X6010342Y-14888299D02*
X6048438Y-14888299D01*
X6048438Y-14888299D02*
X6067485Y-14878776D01*
X6067485Y-14878776D02*
X6077009Y-14869252D01*
X6077009Y-14869252D02*
X6086533Y-14850204D01*
X6086533Y-14850204D02*
X6086533Y-14802585D01*
X6086533Y-14802585D02*
X6077009Y-14783538D01*
X6077009Y-14783538D02*
X6067485Y-14774014D01*
X6067485Y-14774014D02*
X6048438Y-14764490D01*
X6048438Y-14764490D02*
X6010342Y-14764490D01*
X6010342Y-14764490D02*
X5991295Y-14774014D01*
X5991295Y-14774014D02*
X5981771Y-14783538D01*
X5981771Y-14783538D02*
X5972247Y-14802585D01*
X6153200Y-14688299D02*
X6286533Y-14688299D01*
X6286533Y-14688299D02*
X6200819Y-14888299D01*
X6400819Y-14688299D02*
X6419866Y-14688299D01*
X6419866Y-14688299D02*
X6438914Y-14697823D01*
X6438914Y-14697823D02*
X6448438Y-14707347D01*
X6448438Y-14707347D02*
X6457961Y-14726395D01*
X6457961Y-14726395D02*
X6467485Y-14764490D01*
X6467485Y-14764490D02*
X6467485Y-14812109D01*
X6467485Y-14812109D02*
X6457961Y-14850204D01*
X6457961Y-14850204D02*
X6448438Y-14869252D01*
X6448438Y-14869252D02*
X6438914Y-14878776D01*
X6438914Y-14878776D02*
X6419866Y-14888299D01*
X6419866Y-14888299D02*
X6400819Y-14888299D01*
X6400819Y-14888299D02*
X6381771Y-14878776D01*
X6381771Y-14878776D02*
X6372247Y-14869252D01*
X6372247Y-14869252D02*
X6362723Y-14850204D01*
X6362723Y-14850204D02*
X6353200Y-14812109D01*
X6353200Y-14812109D02*
X6353200Y-14764490D01*
X6353200Y-14764490D02*
X6362723Y-14726395D01*
X6362723Y-14726395D02*
X6372247Y-14707347D01*
X6372247Y-14707347D02*
X6381771Y-14697823D01*
X6381771Y-14697823D02*
X6400819Y-14688299D01*
X6543676Y-14688299D02*
X6543676Y-14726395D01*
X6619866Y-14688299D02*
X6619866Y-14726395D01*
X6915104Y-14964490D02*
X6905581Y-14954966D01*
X6905581Y-14954966D02*
X6886533Y-14926395D01*
X6886533Y-14926395D02*
X6877009Y-14907347D01*
X6877009Y-14907347D02*
X6867485Y-14878776D01*
X6867485Y-14878776D02*
X6857962Y-14831157D01*
X6857962Y-14831157D02*
X6857962Y-14793061D01*
X6857962Y-14793061D02*
X6867485Y-14745442D01*
X6867485Y-14745442D02*
X6877009Y-14716871D01*
X6877009Y-14716871D02*
X6886533Y-14697823D01*
X6886533Y-14697823D02*
X6905581Y-14669252D01*
X6905581Y-14669252D02*
X6915104Y-14659728D01*
X7086533Y-14688299D02*
X6991295Y-14688299D01*
X6991295Y-14688299D02*
X6981771Y-14783538D01*
X6981771Y-14783538D02*
X6991295Y-14774014D01*
X6991295Y-14774014D02*
X7010342Y-14764490D01*
X7010342Y-14764490D02*
X7057962Y-14764490D01*
X7057962Y-14764490D02*
X7077009Y-14774014D01*
X7077009Y-14774014D02*
X7086533Y-14783538D01*
X7086533Y-14783538D02*
X7096057Y-14802585D01*
X7096057Y-14802585D02*
X7096057Y-14850204D01*
X7096057Y-14850204D02*
X7086533Y-14869252D01*
X7086533Y-14869252D02*
X7077009Y-14878776D01*
X7077009Y-14878776D02*
X7057962Y-14888299D01*
X7057962Y-14888299D02*
X7010342Y-14888299D01*
X7010342Y-14888299D02*
X6991295Y-14878776D01*
X6991295Y-14878776D02*
X6981771Y-14869252D01*
X7267485Y-14688299D02*
X7229390Y-14688299D01*
X7229390Y-14688299D02*
X7210342Y-14697823D01*
X7210342Y-14697823D02*
X7200819Y-14707347D01*
X7200819Y-14707347D02*
X7181771Y-14735918D01*
X7181771Y-14735918D02*
X7172247Y-14774014D01*
X7172247Y-14774014D02*
X7172247Y-14850204D01*
X7172247Y-14850204D02*
X7181771Y-14869252D01*
X7181771Y-14869252D02*
X7191295Y-14878776D01*
X7191295Y-14878776D02*
X7210342Y-14888299D01*
X7210342Y-14888299D02*
X7248438Y-14888299D01*
X7248438Y-14888299D02*
X7267485Y-14878776D01*
X7267485Y-14878776D02*
X7277009Y-14869252D01*
X7277009Y-14869252D02*
X7286533Y-14850204D01*
X7286533Y-14850204D02*
X7286533Y-14802585D01*
X7286533Y-14802585D02*
X7277009Y-14783538D01*
X7277009Y-14783538D02*
X7267485Y-14774014D01*
X7267485Y-14774014D02*
X7248438Y-14764490D01*
X7248438Y-14764490D02*
X7210342Y-14764490D01*
X7210342Y-14764490D02*
X7191295Y-14774014D01*
X7191295Y-14774014D02*
X7181771Y-14783538D01*
X7181771Y-14783538D02*
X7172247Y-14802585D01*
X7524628Y-14888299D02*
X7524628Y-14688299D01*
X7610343Y-14888299D02*
X7610343Y-14783538D01*
X7610343Y-14783538D02*
X7600819Y-14764490D01*
X7600819Y-14764490D02*
X7581771Y-14754966D01*
X7581771Y-14754966D02*
X7553200Y-14754966D01*
X7553200Y-14754966D02*
X7534152Y-14764490D01*
X7534152Y-14764490D02*
X7524628Y-14774014D01*
X7734152Y-14888299D02*
X7715104Y-14878776D01*
X7715104Y-14878776D02*
X7705581Y-14869252D01*
X7705581Y-14869252D02*
X7696057Y-14850204D01*
X7696057Y-14850204D02*
X7696057Y-14793061D01*
X7696057Y-14793061D02*
X7705581Y-14774014D01*
X7705581Y-14774014D02*
X7715104Y-14764490D01*
X7715104Y-14764490D02*
X7734152Y-14754966D01*
X7734152Y-14754966D02*
X7762724Y-14754966D01*
X7762724Y-14754966D02*
X7781771Y-14764490D01*
X7781771Y-14764490D02*
X7791295Y-14774014D01*
X7791295Y-14774014D02*
X7800819Y-14793061D01*
X7800819Y-14793061D02*
X7800819Y-14850204D01*
X7800819Y-14850204D02*
X7791295Y-14869252D01*
X7791295Y-14869252D02*
X7781771Y-14878776D01*
X7781771Y-14878776D02*
X7762724Y-14888299D01*
X7762724Y-14888299D02*
X7734152Y-14888299D01*
X7915104Y-14888299D02*
X7896057Y-14878776D01*
X7896057Y-14878776D02*
X7886533Y-14859728D01*
X7886533Y-14859728D02*
X7886533Y-14688299D01*
X8067485Y-14878776D02*
X8048438Y-14888299D01*
X8048438Y-14888299D02*
X8010343Y-14888299D01*
X8010343Y-14888299D02*
X7991295Y-14878776D01*
X7991295Y-14878776D02*
X7981771Y-14859728D01*
X7981771Y-14859728D02*
X7981771Y-14783538D01*
X7981771Y-14783538D02*
X7991295Y-14764490D01*
X7991295Y-14764490D02*
X8010343Y-14754966D01*
X8010343Y-14754966D02*
X8048438Y-14754966D01*
X8048438Y-14754966D02*
X8067485Y-14764490D01*
X8067485Y-14764490D02*
X8077009Y-14783538D01*
X8077009Y-14783538D02*
X8077009Y-14802585D01*
X8077009Y-14802585D02*
X7981771Y-14821633D01*
X8153200Y-14878776D02*
X8172247Y-14888299D01*
X8172247Y-14888299D02*
X8210343Y-14888299D01*
X8210343Y-14888299D02*
X8229390Y-14878776D01*
X8229390Y-14878776D02*
X8238914Y-14859728D01*
X8238914Y-14859728D02*
X8238914Y-14850204D01*
X8238914Y-14850204D02*
X8229390Y-14831157D01*
X8229390Y-14831157D02*
X8210343Y-14821633D01*
X8210343Y-14821633D02*
X8181771Y-14821633D01*
X8181771Y-14821633D02*
X8162724Y-14812109D01*
X8162724Y-14812109D02*
X8153200Y-14793061D01*
X8153200Y-14793061D02*
X8153200Y-14783538D01*
X8153200Y-14783538D02*
X8162724Y-14764490D01*
X8162724Y-14764490D02*
X8181771Y-14754966D01*
X8181771Y-14754966D02*
X8210343Y-14754966D01*
X8210343Y-14754966D02*
X8229390Y-14764490D01*
X8305581Y-14964490D02*
X8315105Y-14954966D01*
X8315105Y-14954966D02*
X8334152Y-14926395D01*
X8334152Y-14926395D02*
X8343676Y-14907347D01*
X8343676Y-14907347D02*
X8353200Y-14878776D01*
X8353200Y-14878776D02*
X8362724Y-14831157D01*
X8362724Y-14831157D02*
X8362724Y-14793061D01*
X8362724Y-14793061D02*
X8353200Y-14745442D01*
X8353200Y-14745442D02*
X8343676Y-14716871D01*
X8343676Y-14716871D02*
X8334152Y-14697823D01*
X8334152Y-14697823D02*
X8315105Y-14669252D01*
X8315105Y-14669252D02*
X8305581Y-14659728D01*
X8667486Y-14964490D02*
X8657962Y-14954966D01*
X8657962Y-14954966D02*
X8638914Y-14926395D01*
X8638914Y-14926395D02*
X8629390Y-14907347D01*
X8629390Y-14907347D02*
X8619867Y-14878776D01*
X8619867Y-14878776D02*
X8610343Y-14831157D01*
X8610343Y-14831157D02*
X8610343Y-14793061D01*
X8610343Y-14793061D02*
X8619867Y-14745442D01*
X8619867Y-14745442D02*
X8629390Y-14716871D01*
X8629390Y-14716871D02*
X8638914Y-14697823D01*
X8638914Y-14697823D02*
X8657962Y-14669252D01*
X8657962Y-14669252D02*
X8667486Y-14659728D01*
X8743676Y-14754966D02*
X8743676Y-14888299D01*
X8743676Y-14774014D02*
X8753200Y-14764490D01*
X8753200Y-14764490D02*
X8772247Y-14754966D01*
X8772247Y-14754966D02*
X8800819Y-14754966D01*
X8800819Y-14754966D02*
X8819867Y-14764490D01*
X8819867Y-14764490D02*
X8829390Y-14783538D01*
X8829390Y-14783538D02*
X8829390Y-14888299D01*
X8953200Y-14888299D02*
X8934152Y-14878776D01*
X8934152Y-14878776D02*
X8924628Y-14869252D01*
X8924628Y-14869252D02*
X8915105Y-14850204D01*
X8915105Y-14850204D02*
X8915105Y-14793061D01*
X8915105Y-14793061D02*
X8924628Y-14774014D01*
X8924628Y-14774014D02*
X8934152Y-14764490D01*
X8934152Y-14764490D02*
X8953200Y-14754966D01*
X8953200Y-14754966D02*
X8981771Y-14754966D01*
X8981771Y-14754966D02*
X9000819Y-14764490D01*
X9000819Y-14764490D02*
X9010343Y-14774014D01*
X9010343Y-14774014D02*
X9019867Y-14793061D01*
X9019867Y-14793061D02*
X9019867Y-14850204D01*
X9019867Y-14850204D02*
X9010343Y-14869252D01*
X9010343Y-14869252D02*
X9000819Y-14878776D01*
X9000819Y-14878776D02*
X8981771Y-14888299D01*
X8981771Y-14888299D02*
X8953200Y-14888299D01*
X9077009Y-14754966D02*
X9153200Y-14754966D01*
X9105581Y-14688299D02*
X9105581Y-14859728D01*
X9105581Y-14859728D02*
X9115105Y-14878776D01*
X9115105Y-14878776D02*
X9134152Y-14888299D01*
X9134152Y-14888299D02*
X9153200Y-14888299D01*
X9372248Y-14754966D02*
X9372248Y-14954966D01*
X9372248Y-14764490D02*
X9391295Y-14754966D01*
X9391295Y-14754966D02*
X9429390Y-14754966D01*
X9429390Y-14754966D02*
X9448438Y-14764490D01*
X9448438Y-14764490D02*
X9457962Y-14774014D01*
X9457962Y-14774014D02*
X9467486Y-14793061D01*
X9467486Y-14793061D02*
X9467486Y-14850204D01*
X9467486Y-14850204D02*
X9457962Y-14869252D01*
X9457962Y-14869252D02*
X9448438Y-14878776D01*
X9448438Y-14878776D02*
X9429390Y-14888299D01*
X9429390Y-14888299D02*
X9391295Y-14888299D01*
X9391295Y-14888299D02*
X9372248Y-14878776D01*
X9581771Y-14888299D02*
X9562724Y-14878776D01*
X9562724Y-14878776D02*
X9553200Y-14859728D01*
X9553200Y-14859728D02*
X9553200Y-14688299D01*
X9743676Y-14888299D02*
X9743676Y-14783538D01*
X9743676Y-14783538D02*
X9734152Y-14764490D01*
X9734152Y-14764490D02*
X9715105Y-14754966D01*
X9715105Y-14754966D02*
X9677009Y-14754966D01*
X9677009Y-14754966D02*
X9657962Y-14764490D01*
X9743676Y-14878776D02*
X9724629Y-14888299D01*
X9724629Y-14888299D02*
X9677009Y-14888299D01*
X9677009Y-14888299D02*
X9657962Y-14878776D01*
X9657962Y-14878776D02*
X9648438Y-14859728D01*
X9648438Y-14859728D02*
X9648438Y-14840680D01*
X9648438Y-14840680D02*
X9657962Y-14821633D01*
X9657962Y-14821633D02*
X9677009Y-14812109D01*
X9677009Y-14812109D02*
X9724629Y-14812109D01*
X9724629Y-14812109D02*
X9743676Y-14802585D01*
X9810343Y-14754966D02*
X9886533Y-14754966D01*
X9838914Y-14688299D02*
X9838914Y-14859728D01*
X9838914Y-14859728D02*
X9848438Y-14878776D01*
X9848438Y-14878776D02*
X9867486Y-14888299D01*
X9867486Y-14888299D02*
X9886533Y-14888299D01*
X10029390Y-14878776D02*
X10010343Y-14888299D01*
X10010343Y-14888299D02*
X9972248Y-14888299D01*
X9972248Y-14888299D02*
X9953200Y-14878776D01*
X9953200Y-14878776D02*
X9943676Y-14859728D01*
X9943676Y-14859728D02*
X9943676Y-14783538D01*
X9943676Y-14783538D02*
X9953200Y-14764490D01*
X9953200Y-14764490D02*
X9972248Y-14754966D01*
X9972248Y-14754966D02*
X10010343Y-14754966D01*
X10010343Y-14754966D02*
X10029390Y-14764490D01*
X10029390Y-14764490D02*
X10038914Y-14783538D01*
X10038914Y-14783538D02*
X10038914Y-14802585D01*
X10038914Y-14802585D02*
X9943676Y-14821633D01*
X10210343Y-14888299D02*
X10210343Y-14688299D01*
X10210343Y-14878776D02*
X10191295Y-14888299D01*
X10191295Y-14888299D02*
X10153200Y-14888299D01*
X10153200Y-14888299D02*
X10134152Y-14878776D01*
X10134152Y-14878776D02*
X10124629Y-14869252D01*
X10124629Y-14869252D02*
X10115105Y-14850204D01*
X10115105Y-14850204D02*
X10115105Y-14793061D01*
X10115105Y-14793061D02*
X10124629Y-14774014D01*
X10124629Y-14774014D02*
X10134152Y-14764490D01*
X10134152Y-14764490D02*
X10153200Y-14754966D01*
X10153200Y-14754966D02*
X10191295Y-14754966D01*
X10191295Y-14754966D02*
X10210343Y-14764490D01*
X10286533Y-14964490D02*
X10296057Y-14954966D01*
X10296057Y-14954966D02*
X10315105Y-14926395D01*
X10315105Y-14926395D02*
X10324629Y-14907347D01*
X10324629Y-14907347D02*
X10334152Y-14878776D01*
X10334152Y-14878776D02*
X10343676Y-14831157D01*
X10343676Y-14831157D02*
X10343676Y-14793061D01*
X10343676Y-14793061D02*
X10334152Y-14745442D01*
X10334152Y-14745442D02*
X10324629Y-14716871D01*
X10324629Y-14716871D02*
X10315105Y-14697823D01*
X10315105Y-14697823D02*
X10296057Y-14669252D01*
X10296057Y-14669252D02*
X10286533Y-14659728D01*
X3240042Y-14986996D02*
X3240042Y-15186996D01*
X3140042Y-15086996D02*
X3340042Y-15086996D01*
X3581771Y-14978479D02*
X3705580Y-14978479D01*
X3705580Y-14978479D02*
X3638914Y-15054670D01*
X3638914Y-15054670D02*
X3667485Y-15054670D01*
X3667485Y-15054670D02*
X3686533Y-15064194D01*
X3686533Y-15064194D02*
X3696056Y-15073718D01*
X3696056Y-15073718D02*
X3705580Y-15092765D01*
X3705580Y-15092765D02*
X3705580Y-15140384D01*
X3705580Y-15140384D02*
X3696056Y-15159432D01*
X3696056Y-15159432D02*
X3686533Y-15168956D01*
X3686533Y-15168956D02*
X3667485Y-15178479D01*
X3667485Y-15178479D02*
X3610342Y-15178479D01*
X3610342Y-15178479D02*
X3591295Y-15168956D01*
X3591295Y-15168956D02*
X3581771Y-15159432D01*
X3791295Y-15159432D02*
X3800818Y-15168956D01*
X3800818Y-15168956D02*
X3791295Y-15178479D01*
X3791295Y-15178479D02*
X3781771Y-15168956D01*
X3781771Y-15168956D02*
X3791295Y-15159432D01*
X3791295Y-15159432D02*
X3791295Y-15178479D01*
X3924628Y-14978479D02*
X3943676Y-14978479D01*
X3943676Y-14978479D02*
X3962723Y-14988003D01*
X3962723Y-14988003D02*
X3972247Y-14997527D01*
X3972247Y-14997527D02*
X3981771Y-15016575D01*
X3981771Y-15016575D02*
X3991295Y-15054670D01*
X3991295Y-15054670D02*
X3991295Y-15102289D01*
X3991295Y-15102289D02*
X3981771Y-15140384D01*
X3981771Y-15140384D02*
X3972247Y-15159432D01*
X3972247Y-15159432D02*
X3962723Y-15168956D01*
X3962723Y-15168956D02*
X3943676Y-15178479D01*
X3943676Y-15178479D02*
X3924628Y-15178479D01*
X3924628Y-15178479D02*
X3905580Y-15168956D01*
X3905580Y-15168956D02*
X3896056Y-15159432D01*
X3896056Y-15159432D02*
X3886533Y-15140384D01*
X3886533Y-15140384D02*
X3877009Y-15102289D01*
X3877009Y-15102289D02*
X3877009Y-15054670D01*
X3877009Y-15054670D02*
X3886533Y-15016575D01*
X3886533Y-15016575D02*
X3896056Y-14997527D01*
X3896056Y-14997527D02*
X3905580Y-14988003D01*
X3905580Y-14988003D02*
X3924628Y-14978479D01*
X4115104Y-14978479D02*
X4134152Y-14978479D01*
X4134152Y-14978479D02*
X4153199Y-14988003D01*
X4153199Y-14988003D02*
X4162723Y-14997527D01*
X4162723Y-14997527D02*
X4172247Y-15016575D01*
X4172247Y-15016575D02*
X4181771Y-15054670D01*
X4181771Y-15054670D02*
X4181771Y-15102289D01*
X4181771Y-15102289D02*
X4172247Y-15140384D01*
X4172247Y-15140384D02*
X4162723Y-15159432D01*
X4162723Y-15159432D02*
X4153199Y-15168956D01*
X4153199Y-15168956D02*
X4134152Y-15178479D01*
X4134152Y-15178479D02*
X4115104Y-15178479D01*
X4115104Y-15178479D02*
X4096056Y-15168956D01*
X4096056Y-15168956D02*
X4086533Y-15159432D01*
X4086533Y-15159432D02*
X4077009Y-15140384D01*
X4077009Y-15140384D02*
X4067485Y-15102289D01*
X4067485Y-15102289D02*
X4067485Y-15054670D01*
X4067485Y-15054670D02*
X4077009Y-15016575D01*
X4077009Y-15016575D02*
X4086533Y-14997527D01*
X4086533Y-14997527D02*
X4096056Y-14988003D01*
X4096056Y-14988003D02*
X4115104Y-14978479D01*
X4305580Y-14978479D02*
X4324628Y-14978479D01*
X4324628Y-14978479D02*
X4343676Y-14988003D01*
X4343676Y-14988003D02*
X4353199Y-14997527D01*
X4353199Y-14997527D02*
X4362723Y-15016575D01*
X4362723Y-15016575D02*
X4372247Y-15054670D01*
X4372247Y-15054670D02*
X4372247Y-15102289D01*
X4372247Y-15102289D02*
X4362723Y-15140384D01*
X4362723Y-15140384D02*
X4353199Y-15159432D01*
X4353199Y-15159432D02*
X4343676Y-15168956D01*
X4343676Y-15168956D02*
X4324628Y-15178479D01*
X4324628Y-15178479D02*
X4305580Y-15178479D01*
X4305580Y-15178479D02*
X4286533Y-15168956D01*
X4286533Y-15168956D02*
X4277009Y-15159432D01*
X4277009Y-15159432D02*
X4267485Y-15140384D01*
X4267485Y-15140384D02*
X4257961Y-15102289D01*
X4257961Y-15102289D02*
X4257961Y-15054670D01*
X4257961Y-15054670D02*
X4267485Y-15016575D01*
X4267485Y-15016575D02*
X4277009Y-14997527D01*
X4277009Y-14997527D02*
X4286533Y-14988003D01*
X4286533Y-14988003D02*
X4305580Y-14978479D01*
X4457961Y-15178479D02*
X4457961Y-15045146D01*
X4457961Y-15064194D02*
X4467485Y-15054670D01*
X4467485Y-15054670D02*
X4486533Y-15045146D01*
X4486533Y-15045146D02*
X4515104Y-15045146D01*
X4515104Y-15045146D02*
X4534152Y-15054670D01*
X4534152Y-15054670D02*
X4543676Y-15073718D01*
X4543676Y-15073718D02*
X4543676Y-15178479D01*
X4543676Y-15073718D02*
X4553199Y-15054670D01*
X4553199Y-15054670D02*
X4572247Y-15045146D01*
X4572247Y-15045146D02*
X4600818Y-15045146D01*
X4600818Y-15045146D02*
X4619866Y-15054670D01*
X4619866Y-15054670D02*
X4629390Y-15073718D01*
X4629390Y-15073718D02*
X4629390Y-15178479D01*
X4724628Y-15178479D02*
X4724628Y-15045146D01*
X4724628Y-15064194D02*
X4734152Y-15054670D01*
X4734152Y-15054670D02*
X4753199Y-15045146D01*
X4753199Y-15045146D02*
X4781771Y-15045146D01*
X4781771Y-15045146D02*
X4800819Y-15054670D01*
X4800819Y-15054670D02*
X4810342Y-15073718D01*
X4810342Y-15073718D02*
X4810342Y-15178479D01*
X4810342Y-15073718D02*
X4819866Y-15054670D01*
X4819866Y-15054670D02*
X4838914Y-15045146D01*
X4838914Y-15045146D02*
X4867485Y-15045146D01*
X4867485Y-15045146D02*
X4886533Y-15054670D01*
X4886533Y-15054670D02*
X4896057Y-15073718D01*
X4896057Y-15073718D02*
X4896057Y-15178479D01*
X5286533Y-14968956D02*
X5115104Y-15226098D01*
X5543676Y-14978479D02*
X5562723Y-14978479D01*
X5562723Y-14978479D02*
X5581771Y-14988003D01*
X5581771Y-14988003D02*
X5591295Y-14997527D01*
X5591295Y-14997527D02*
X5600819Y-15016575D01*
X5600819Y-15016575D02*
X5610342Y-15054670D01*
X5610342Y-15054670D02*
X5610342Y-15102289D01*
X5610342Y-15102289D02*
X5600819Y-15140384D01*
X5600819Y-15140384D02*
X5591295Y-15159432D01*
X5591295Y-15159432D02*
X5581771Y-15168956D01*
X5581771Y-15168956D02*
X5562723Y-15178479D01*
X5562723Y-15178479D02*
X5543676Y-15178479D01*
X5543676Y-15178479D02*
X5524628Y-15168956D01*
X5524628Y-15168956D02*
X5515104Y-15159432D01*
X5515104Y-15159432D02*
X5505581Y-15140384D01*
X5505581Y-15140384D02*
X5496057Y-15102289D01*
X5496057Y-15102289D02*
X5496057Y-15054670D01*
X5496057Y-15054670D02*
X5505581Y-15016575D01*
X5505581Y-15016575D02*
X5515104Y-14997527D01*
X5515104Y-14997527D02*
X5524628Y-14988003D01*
X5524628Y-14988003D02*
X5543676Y-14978479D01*
X5696057Y-15159432D02*
X5705580Y-15168956D01*
X5705580Y-15168956D02*
X5696057Y-15178479D01*
X5696057Y-15178479D02*
X5686533Y-15168956D01*
X5686533Y-15168956D02*
X5696057Y-15159432D01*
X5696057Y-15159432D02*
X5696057Y-15178479D01*
X5896057Y-15178479D02*
X5781771Y-15178479D01*
X5838914Y-15178479D02*
X5838914Y-14978479D01*
X5838914Y-14978479D02*
X5819866Y-15007051D01*
X5819866Y-15007051D02*
X5800819Y-15026098D01*
X5800819Y-15026098D02*
X5781771Y-15035622D01*
X6086533Y-15178479D02*
X5972247Y-15178479D01*
X6029390Y-15178479D02*
X6029390Y-14978479D01*
X6029390Y-14978479D02*
X6010342Y-15007051D01*
X6010342Y-15007051D02*
X5991295Y-15026098D01*
X5991295Y-15026098D02*
X5972247Y-15035622D01*
X6200819Y-15064194D02*
X6181771Y-15054670D01*
X6181771Y-15054670D02*
X6172247Y-15045146D01*
X6172247Y-15045146D02*
X6162723Y-15026098D01*
X6162723Y-15026098D02*
X6162723Y-15016575D01*
X6162723Y-15016575D02*
X6172247Y-14997527D01*
X6172247Y-14997527D02*
X6181771Y-14988003D01*
X6181771Y-14988003D02*
X6200819Y-14978479D01*
X6200819Y-14978479D02*
X6238914Y-14978479D01*
X6238914Y-14978479D02*
X6257961Y-14988003D01*
X6257961Y-14988003D02*
X6267485Y-14997527D01*
X6267485Y-14997527D02*
X6277009Y-15016575D01*
X6277009Y-15016575D02*
X6277009Y-15026098D01*
X6277009Y-15026098D02*
X6267485Y-15045146D01*
X6267485Y-15045146D02*
X6257961Y-15054670D01*
X6257961Y-15054670D02*
X6238914Y-15064194D01*
X6238914Y-15064194D02*
X6200819Y-15064194D01*
X6200819Y-15064194D02*
X6181771Y-15073718D01*
X6181771Y-15073718D02*
X6172247Y-15083241D01*
X6172247Y-15083241D02*
X6162723Y-15102289D01*
X6162723Y-15102289D02*
X6162723Y-15140384D01*
X6162723Y-15140384D02*
X6172247Y-15159432D01*
X6172247Y-15159432D02*
X6181771Y-15168956D01*
X6181771Y-15168956D02*
X6200819Y-15178479D01*
X6200819Y-15178479D02*
X6238914Y-15178479D01*
X6238914Y-15178479D02*
X6257961Y-15168956D01*
X6257961Y-15168956D02*
X6267485Y-15159432D01*
X6267485Y-15159432D02*
X6277009Y-15140384D01*
X6277009Y-15140384D02*
X6277009Y-15102289D01*
X6277009Y-15102289D02*
X6267485Y-15083241D01*
X6267485Y-15083241D02*
X6257961Y-15073718D01*
X6257961Y-15073718D02*
X6238914Y-15064194D01*
X6467485Y-15178479D02*
X6353200Y-15178479D01*
X6410342Y-15178479D02*
X6410342Y-14978479D01*
X6410342Y-14978479D02*
X6391295Y-15007051D01*
X6391295Y-15007051D02*
X6372247Y-15026098D01*
X6372247Y-15026098D02*
X6353200Y-15035622D01*
X6543676Y-14978479D02*
X6543676Y-15016575D01*
X6619866Y-14978479D02*
X6619866Y-15016575D01*
X6915104Y-15254670D02*
X6905581Y-15245146D01*
X6905581Y-15245146D02*
X6886533Y-15216575D01*
X6886533Y-15216575D02*
X6877009Y-15197527D01*
X6877009Y-15197527D02*
X6867485Y-15168956D01*
X6867485Y-15168956D02*
X6857962Y-15121337D01*
X6857962Y-15121337D02*
X6857962Y-15083241D01*
X6857962Y-15083241D02*
X6867485Y-15035622D01*
X6867485Y-15035622D02*
X6877009Y-15007051D01*
X6877009Y-15007051D02*
X6886533Y-14988003D01*
X6886533Y-14988003D02*
X6905581Y-14959432D01*
X6905581Y-14959432D02*
X6915104Y-14949908D01*
X7096057Y-15178479D02*
X6981771Y-15178479D01*
X7038914Y-15178479D02*
X7038914Y-14978479D01*
X7038914Y-14978479D02*
X7019866Y-15007051D01*
X7019866Y-15007051D02*
X7000819Y-15026098D01*
X7000819Y-15026098D02*
X6981771Y-15035622D01*
X7286533Y-15178479D02*
X7172247Y-15178479D01*
X7229390Y-15178479D02*
X7229390Y-14978479D01*
X7229390Y-14978479D02*
X7210342Y-15007051D01*
X7210342Y-15007051D02*
X7191295Y-15026098D01*
X7191295Y-15026098D02*
X7172247Y-15035622D01*
X7362723Y-14997527D02*
X7372247Y-14988003D01*
X7372247Y-14988003D02*
X7391295Y-14978479D01*
X7391295Y-14978479D02*
X7438914Y-14978479D01*
X7438914Y-14978479D02*
X7457962Y-14988003D01*
X7457962Y-14988003D02*
X7467485Y-14997527D01*
X7467485Y-14997527D02*
X7477009Y-15016575D01*
X7477009Y-15016575D02*
X7477009Y-15035622D01*
X7477009Y-15035622D02*
X7467485Y-15064194D01*
X7467485Y-15064194D02*
X7353200Y-15178479D01*
X7353200Y-15178479D02*
X7477009Y-15178479D01*
X7715104Y-15178479D02*
X7715104Y-14978479D01*
X7800819Y-15178479D02*
X7800819Y-15073718D01*
X7800819Y-15073718D02*
X7791295Y-15054670D01*
X7791295Y-15054670D02*
X7772247Y-15045146D01*
X7772247Y-15045146D02*
X7743676Y-15045146D01*
X7743676Y-15045146D02*
X7724628Y-15054670D01*
X7724628Y-15054670D02*
X7715104Y-15064194D01*
X7924628Y-15178479D02*
X7905581Y-15168956D01*
X7905581Y-15168956D02*
X7896057Y-15159432D01*
X7896057Y-15159432D02*
X7886533Y-15140384D01*
X7886533Y-15140384D02*
X7886533Y-15083241D01*
X7886533Y-15083241D02*
X7896057Y-15064194D01*
X7896057Y-15064194D02*
X7905581Y-15054670D01*
X7905581Y-15054670D02*
X7924628Y-15045146D01*
X7924628Y-15045146D02*
X7953200Y-15045146D01*
X7953200Y-15045146D02*
X7972247Y-15054670D01*
X7972247Y-15054670D02*
X7981771Y-15064194D01*
X7981771Y-15064194D02*
X7991295Y-15083241D01*
X7991295Y-15083241D02*
X7991295Y-15140384D01*
X7991295Y-15140384D02*
X7981771Y-15159432D01*
X7981771Y-15159432D02*
X7972247Y-15168956D01*
X7972247Y-15168956D02*
X7953200Y-15178479D01*
X7953200Y-15178479D02*
X7924628Y-15178479D01*
X8105581Y-15178479D02*
X8086533Y-15168956D01*
X8086533Y-15168956D02*
X8077009Y-15149908D01*
X8077009Y-15149908D02*
X8077009Y-14978479D01*
X8257962Y-15168956D02*
X8238914Y-15178479D01*
X8238914Y-15178479D02*
X8200819Y-15178479D01*
X8200819Y-15178479D02*
X8181771Y-15168956D01*
X8181771Y-15168956D02*
X8172247Y-15149908D01*
X8172247Y-15149908D02*
X8172247Y-15073718D01*
X8172247Y-15073718D02*
X8181771Y-15054670D01*
X8181771Y-15054670D02*
X8200819Y-15045146D01*
X8200819Y-15045146D02*
X8238914Y-15045146D01*
X8238914Y-15045146D02*
X8257962Y-15054670D01*
X8257962Y-15054670D02*
X8267485Y-15073718D01*
X8267485Y-15073718D02*
X8267485Y-15092765D01*
X8267485Y-15092765D02*
X8172247Y-15111813D01*
X8343676Y-15168956D02*
X8362724Y-15178479D01*
X8362724Y-15178479D02*
X8400819Y-15178479D01*
X8400819Y-15178479D02*
X8419867Y-15168956D01*
X8419867Y-15168956D02*
X8429390Y-15149908D01*
X8429390Y-15149908D02*
X8429390Y-15140384D01*
X8429390Y-15140384D02*
X8419867Y-15121337D01*
X8419867Y-15121337D02*
X8400819Y-15111813D01*
X8400819Y-15111813D02*
X8372247Y-15111813D01*
X8372247Y-15111813D02*
X8353200Y-15102289D01*
X8353200Y-15102289D02*
X8343676Y-15083241D01*
X8343676Y-15083241D02*
X8343676Y-15073718D01*
X8343676Y-15073718D02*
X8353200Y-15054670D01*
X8353200Y-15054670D02*
X8372247Y-15045146D01*
X8372247Y-15045146D02*
X8400819Y-15045146D01*
X8400819Y-15045146D02*
X8419867Y-15054670D01*
X8496057Y-15254670D02*
X8505581Y-15245146D01*
X8505581Y-15245146D02*
X8524628Y-15216575D01*
X8524628Y-15216575D02*
X8534152Y-15197527D01*
X8534152Y-15197527D02*
X8543676Y-15168956D01*
X8543676Y-15168956D02*
X8553200Y-15121337D01*
X8553200Y-15121337D02*
X8553200Y-15083241D01*
X8553200Y-15083241D02*
X8543676Y-15035622D01*
X8543676Y-15035622D02*
X8534152Y-15007051D01*
X8534152Y-15007051D02*
X8524628Y-14988003D01*
X8524628Y-14988003D02*
X8505581Y-14959432D01*
X8505581Y-14959432D02*
X8496057Y-14949908D01*
X8857962Y-15254670D02*
X8848438Y-15245146D01*
X8848438Y-15245146D02*
X8829390Y-15216575D01*
X8829390Y-15216575D02*
X8819867Y-15197527D01*
X8819867Y-15197527D02*
X8810343Y-15168956D01*
X8810343Y-15168956D02*
X8800819Y-15121337D01*
X8800819Y-15121337D02*
X8800819Y-15083241D01*
X8800819Y-15083241D02*
X8810343Y-15035622D01*
X8810343Y-15035622D02*
X8819867Y-15007051D01*
X8819867Y-15007051D02*
X8829390Y-14988003D01*
X8829390Y-14988003D02*
X8848438Y-14959432D01*
X8848438Y-14959432D02*
X8857962Y-14949908D01*
X8934152Y-15045146D02*
X8934152Y-15178479D01*
X8934152Y-15064194D02*
X8943676Y-15054670D01*
X8943676Y-15054670D02*
X8962724Y-15045146D01*
X8962724Y-15045146D02*
X8991295Y-15045146D01*
X8991295Y-15045146D02*
X9010343Y-15054670D01*
X9010343Y-15054670D02*
X9019867Y-15073718D01*
X9019867Y-15073718D02*
X9019867Y-15178479D01*
X9143676Y-15178479D02*
X9124628Y-15168956D01*
X9124628Y-15168956D02*
X9115105Y-15159432D01*
X9115105Y-15159432D02*
X9105581Y-15140384D01*
X9105581Y-15140384D02*
X9105581Y-15083241D01*
X9105581Y-15083241D02*
X9115105Y-15064194D01*
X9115105Y-15064194D02*
X9124628Y-15054670D01*
X9124628Y-15054670D02*
X9143676Y-15045146D01*
X9143676Y-15045146D02*
X9172248Y-15045146D01*
X9172248Y-15045146D02*
X9191295Y-15054670D01*
X9191295Y-15054670D02*
X9200819Y-15064194D01*
X9200819Y-15064194D02*
X9210343Y-15083241D01*
X9210343Y-15083241D02*
X9210343Y-15140384D01*
X9210343Y-15140384D02*
X9200819Y-15159432D01*
X9200819Y-15159432D02*
X9191295Y-15168956D01*
X9191295Y-15168956D02*
X9172248Y-15178479D01*
X9172248Y-15178479D02*
X9143676Y-15178479D01*
X9267486Y-15045146D02*
X9343676Y-15045146D01*
X9296057Y-14978479D02*
X9296057Y-15149908D01*
X9296057Y-15149908D02*
X9305581Y-15168956D01*
X9305581Y-15168956D02*
X9324628Y-15178479D01*
X9324628Y-15178479D02*
X9343676Y-15178479D01*
X9562724Y-15045146D02*
X9562724Y-15245146D01*
X9562724Y-15054670D02*
X9581771Y-15045146D01*
X9581771Y-15045146D02*
X9619867Y-15045146D01*
X9619867Y-15045146D02*
X9638914Y-15054670D01*
X9638914Y-15054670D02*
X9648438Y-15064194D01*
X9648438Y-15064194D02*
X9657962Y-15083241D01*
X9657962Y-15083241D02*
X9657962Y-15140384D01*
X9657962Y-15140384D02*
X9648438Y-15159432D01*
X9648438Y-15159432D02*
X9638914Y-15168956D01*
X9638914Y-15168956D02*
X9619867Y-15178479D01*
X9619867Y-15178479D02*
X9581771Y-15178479D01*
X9581771Y-15178479D02*
X9562724Y-15168956D01*
X9772248Y-15178479D02*
X9753200Y-15168956D01*
X9753200Y-15168956D02*
X9743676Y-15149908D01*
X9743676Y-15149908D02*
X9743676Y-14978479D01*
X9934152Y-15178479D02*
X9934152Y-15073718D01*
X9934152Y-15073718D02*
X9924629Y-15054670D01*
X9924629Y-15054670D02*
X9905581Y-15045146D01*
X9905581Y-15045146D02*
X9867486Y-15045146D01*
X9867486Y-15045146D02*
X9848438Y-15054670D01*
X9934152Y-15168956D02*
X9915105Y-15178479D01*
X9915105Y-15178479D02*
X9867486Y-15178479D01*
X9867486Y-15178479D02*
X9848438Y-15168956D01*
X9848438Y-15168956D02*
X9838914Y-15149908D01*
X9838914Y-15149908D02*
X9838914Y-15130860D01*
X9838914Y-15130860D02*
X9848438Y-15111813D01*
X9848438Y-15111813D02*
X9867486Y-15102289D01*
X9867486Y-15102289D02*
X9915105Y-15102289D01*
X9915105Y-15102289D02*
X9934152Y-15092765D01*
X10000819Y-15045146D02*
X10077009Y-15045146D01*
X10029390Y-14978479D02*
X10029390Y-15149908D01*
X10029390Y-15149908D02*
X10038914Y-15168956D01*
X10038914Y-15168956D02*
X10057962Y-15178479D01*
X10057962Y-15178479D02*
X10077009Y-15178479D01*
X10219867Y-15168956D02*
X10200819Y-15178479D01*
X10200819Y-15178479D02*
X10162724Y-15178479D01*
X10162724Y-15178479D02*
X10143676Y-15168956D01*
X10143676Y-15168956D02*
X10134152Y-15149908D01*
X10134152Y-15149908D02*
X10134152Y-15073718D01*
X10134152Y-15073718D02*
X10143676Y-15054670D01*
X10143676Y-15054670D02*
X10162724Y-15045146D01*
X10162724Y-15045146D02*
X10200819Y-15045146D01*
X10200819Y-15045146D02*
X10219867Y-15054670D01*
X10219867Y-15054670D02*
X10229390Y-15073718D01*
X10229390Y-15073718D02*
X10229390Y-15092765D01*
X10229390Y-15092765D02*
X10134152Y-15111813D01*
X10400819Y-15178479D02*
X10400819Y-14978479D01*
X10400819Y-15168956D02*
X10381771Y-15178479D01*
X10381771Y-15178479D02*
X10343676Y-15178479D01*
X10343676Y-15178479D02*
X10324629Y-15168956D01*
X10324629Y-15168956D02*
X10315105Y-15159432D01*
X10315105Y-15159432D02*
X10305581Y-15140384D01*
X10305581Y-15140384D02*
X10305581Y-15083241D01*
X10305581Y-15083241D02*
X10315105Y-15064194D01*
X10315105Y-15064194D02*
X10324629Y-15054670D01*
X10324629Y-15054670D02*
X10343676Y-15045146D01*
X10343676Y-15045146D02*
X10381771Y-15045146D01*
X10381771Y-15045146D02*
X10400819Y-15054670D01*
X10477010Y-15254670D02*
X10486533Y-15245146D01*
X10486533Y-15245146D02*
X10505581Y-15216575D01*
X10505581Y-15216575D02*
X10515105Y-15197527D01*
X10515105Y-15197527D02*
X10524629Y-15168956D01*
X10524629Y-15168956D02*
X10534152Y-15121337D01*
X10534152Y-15121337D02*
X10534152Y-15083241D01*
X10534152Y-15083241D02*
X10524629Y-15035622D01*
X10524629Y-15035622D02*
X10515105Y-15007051D01*
X10515105Y-15007051D02*
X10505581Y-14988003D01*
X10505581Y-14988003D02*
X10486533Y-14959432D01*
X10486533Y-14959432D02*
X10477010Y-14949908D01*
X3310753Y-15477707D02*
X3310753Y-15336284D01*
X3169330Y-15336284D01*
X3169330Y-15477707D01*
X3310753Y-15477707D01*
X3581771Y-15298479D02*
X3705580Y-15298479D01*
X3705580Y-15298479D02*
X3638914Y-15374670D01*
X3638914Y-15374670D02*
X3667485Y-15374670D01*
X3667485Y-15374670D02*
X3686533Y-15384194D01*
X3686533Y-15384194D02*
X3696056Y-15393718D01*
X3696056Y-15393718D02*
X3705580Y-15412765D01*
X3705580Y-15412765D02*
X3705580Y-15460384D01*
X3705580Y-15460384D02*
X3696056Y-15479432D01*
X3696056Y-15479432D02*
X3686533Y-15488956D01*
X3686533Y-15488956D02*
X3667485Y-15498479D01*
X3667485Y-15498479D02*
X3610342Y-15498479D01*
X3610342Y-15498479D02*
X3591295Y-15488956D01*
X3591295Y-15488956D02*
X3581771Y-15479432D01*
X3791295Y-15479432D02*
X3800818Y-15488956D01*
X3800818Y-15488956D02*
X3791295Y-15498479D01*
X3791295Y-15498479D02*
X3781771Y-15488956D01*
X3781771Y-15488956D02*
X3791295Y-15479432D01*
X3791295Y-15479432D02*
X3791295Y-15498479D01*
X3972247Y-15365146D02*
X3972247Y-15498479D01*
X3924628Y-15288956D02*
X3877009Y-15431813D01*
X3877009Y-15431813D02*
X4000818Y-15431813D01*
X4067485Y-15317527D02*
X4077009Y-15308003D01*
X4077009Y-15308003D02*
X4096056Y-15298479D01*
X4096056Y-15298479D02*
X4143676Y-15298479D01*
X4143676Y-15298479D02*
X4162723Y-15308003D01*
X4162723Y-15308003D02*
X4172247Y-15317527D01*
X4172247Y-15317527D02*
X4181771Y-15336575D01*
X4181771Y-15336575D02*
X4181771Y-15355622D01*
X4181771Y-15355622D02*
X4172247Y-15384194D01*
X4172247Y-15384194D02*
X4057961Y-15498479D01*
X4057961Y-15498479D02*
X4181771Y-15498479D01*
X4277009Y-15498479D02*
X4315104Y-15498479D01*
X4315104Y-15498479D02*
X4334152Y-15488956D01*
X4334152Y-15488956D02*
X4343676Y-15479432D01*
X4343676Y-15479432D02*
X4362723Y-15450860D01*
X4362723Y-15450860D02*
X4372247Y-15412765D01*
X4372247Y-15412765D02*
X4372247Y-15336575D01*
X4372247Y-15336575D02*
X4362723Y-15317527D01*
X4362723Y-15317527D02*
X4353199Y-15308003D01*
X4353199Y-15308003D02*
X4334152Y-15298479D01*
X4334152Y-15298479D02*
X4296057Y-15298479D01*
X4296057Y-15298479D02*
X4277009Y-15308003D01*
X4277009Y-15308003D02*
X4267485Y-15317527D01*
X4267485Y-15317527D02*
X4257961Y-15336575D01*
X4257961Y-15336575D02*
X4257961Y-15384194D01*
X4257961Y-15384194D02*
X4267485Y-15403241D01*
X4267485Y-15403241D02*
X4277009Y-15412765D01*
X4277009Y-15412765D02*
X4296057Y-15422289D01*
X4296057Y-15422289D02*
X4334152Y-15422289D01*
X4334152Y-15422289D02*
X4353199Y-15412765D01*
X4353199Y-15412765D02*
X4362723Y-15403241D01*
X4362723Y-15403241D02*
X4372247Y-15384194D01*
X4457961Y-15498479D02*
X4457961Y-15365146D01*
X4457961Y-15384194D02*
X4467485Y-15374670D01*
X4467485Y-15374670D02*
X4486533Y-15365146D01*
X4486533Y-15365146D02*
X4515104Y-15365146D01*
X4515104Y-15365146D02*
X4534152Y-15374670D01*
X4534152Y-15374670D02*
X4543676Y-15393718D01*
X4543676Y-15393718D02*
X4543676Y-15498479D01*
X4543676Y-15393718D02*
X4553199Y-15374670D01*
X4553199Y-15374670D02*
X4572247Y-15365146D01*
X4572247Y-15365146D02*
X4600818Y-15365146D01*
X4600818Y-15365146D02*
X4619866Y-15374670D01*
X4619866Y-15374670D02*
X4629390Y-15393718D01*
X4629390Y-15393718D02*
X4629390Y-15498479D01*
X4724628Y-15498479D02*
X4724628Y-15365146D01*
X4724628Y-15384194D02*
X4734152Y-15374670D01*
X4734152Y-15374670D02*
X4753199Y-15365146D01*
X4753199Y-15365146D02*
X4781771Y-15365146D01*
X4781771Y-15365146D02*
X4800819Y-15374670D01*
X4800819Y-15374670D02*
X4810342Y-15393718D01*
X4810342Y-15393718D02*
X4810342Y-15498479D01*
X4810342Y-15393718D02*
X4819866Y-15374670D01*
X4819866Y-15374670D02*
X4838914Y-15365146D01*
X4838914Y-15365146D02*
X4867485Y-15365146D01*
X4867485Y-15365146D02*
X4886533Y-15374670D01*
X4886533Y-15374670D02*
X4896057Y-15393718D01*
X4896057Y-15393718D02*
X4896057Y-15498479D01*
X5286533Y-15288956D02*
X5115104Y-15546098D01*
X5543676Y-15298479D02*
X5562723Y-15298479D01*
X5562723Y-15298479D02*
X5581771Y-15308003D01*
X5581771Y-15308003D02*
X5591295Y-15317527D01*
X5591295Y-15317527D02*
X5600819Y-15336575D01*
X5600819Y-15336575D02*
X5610342Y-15374670D01*
X5610342Y-15374670D02*
X5610342Y-15422289D01*
X5610342Y-15422289D02*
X5600819Y-15460384D01*
X5600819Y-15460384D02*
X5591295Y-15479432D01*
X5591295Y-15479432D02*
X5581771Y-15488956D01*
X5581771Y-15488956D02*
X5562723Y-15498479D01*
X5562723Y-15498479D02*
X5543676Y-15498479D01*
X5543676Y-15498479D02*
X5524628Y-15488956D01*
X5524628Y-15488956D02*
X5515104Y-15479432D01*
X5515104Y-15479432D02*
X5505581Y-15460384D01*
X5505581Y-15460384D02*
X5496057Y-15422289D01*
X5496057Y-15422289D02*
X5496057Y-15374670D01*
X5496057Y-15374670D02*
X5505581Y-15336575D01*
X5505581Y-15336575D02*
X5515104Y-15317527D01*
X5515104Y-15317527D02*
X5524628Y-15308003D01*
X5524628Y-15308003D02*
X5543676Y-15298479D01*
X5696057Y-15479432D02*
X5705580Y-15488956D01*
X5705580Y-15488956D02*
X5696057Y-15498479D01*
X5696057Y-15498479D02*
X5686533Y-15488956D01*
X5686533Y-15488956D02*
X5696057Y-15479432D01*
X5696057Y-15479432D02*
X5696057Y-15498479D01*
X5896057Y-15498479D02*
X5781771Y-15498479D01*
X5838914Y-15498479D02*
X5838914Y-15298479D01*
X5838914Y-15298479D02*
X5819866Y-15327051D01*
X5819866Y-15327051D02*
X5800819Y-15346098D01*
X5800819Y-15346098D02*
X5781771Y-15355622D01*
X5962723Y-15298479D02*
X6086533Y-15298479D01*
X6086533Y-15298479D02*
X6019866Y-15374670D01*
X6019866Y-15374670D02*
X6048438Y-15374670D01*
X6048438Y-15374670D02*
X6067485Y-15384194D01*
X6067485Y-15384194D02*
X6077009Y-15393718D01*
X6077009Y-15393718D02*
X6086533Y-15412765D01*
X6086533Y-15412765D02*
X6086533Y-15460384D01*
X6086533Y-15460384D02*
X6077009Y-15479432D01*
X6077009Y-15479432D02*
X6067485Y-15488956D01*
X6067485Y-15488956D02*
X6048438Y-15498479D01*
X6048438Y-15498479D02*
X5991295Y-15498479D01*
X5991295Y-15498479D02*
X5972247Y-15488956D01*
X5972247Y-15488956D02*
X5962723Y-15479432D01*
X6267485Y-15298479D02*
X6172247Y-15298479D01*
X6172247Y-15298479D02*
X6162723Y-15393718D01*
X6162723Y-15393718D02*
X6172247Y-15384194D01*
X6172247Y-15384194D02*
X6191295Y-15374670D01*
X6191295Y-15374670D02*
X6238914Y-15374670D01*
X6238914Y-15374670D02*
X6257961Y-15384194D01*
X6257961Y-15384194D02*
X6267485Y-15393718D01*
X6267485Y-15393718D02*
X6277009Y-15412765D01*
X6277009Y-15412765D02*
X6277009Y-15460384D01*
X6277009Y-15460384D02*
X6267485Y-15479432D01*
X6267485Y-15479432D02*
X6257961Y-15488956D01*
X6257961Y-15488956D02*
X6238914Y-15498479D01*
X6238914Y-15498479D02*
X6191295Y-15498479D01*
X6191295Y-15498479D02*
X6172247Y-15488956D01*
X6172247Y-15488956D02*
X6162723Y-15479432D01*
X6400819Y-15298479D02*
X6419866Y-15298479D01*
X6419866Y-15298479D02*
X6438914Y-15308003D01*
X6438914Y-15308003D02*
X6448438Y-15317527D01*
X6448438Y-15317527D02*
X6457961Y-15336575D01*
X6457961Y-15336575D02*
X6467485Y-15374670D01*
X6467485Y-15374670D02*
X6467485Y-15422289D01*
X6467485Y-15422289D02*
X6457961Y-15460384D01*
X6457961Y-15460384D02*
X6448438Y-15479432D01*
X6448438Y-15479432D02*
X6438914Y-15488956D01*
X6438914Y-15488956D02*
X6419866Y-15498479D01*
X6419866Y-15498479D02*
X6400819Y-15498479D01*
X6400819Y-15498479D02*
X6381771Y-15488956D01*
X6381771Y-15488956D02*
X6372247Y-15479432D01*
X6372247Y-15479432D02*
X6362723Y-15460384D01*
X6362723Y-15460384D02*
X6353200Y-15422289D01*
X6353200Y-15422289D02*
X6353200Y-15374670D01*
X6353200Y-15374670D02*
X6362723Y-15336575D01*
X6362723Y-15336575D02*
X6372247Y-15317527D01*
X6372247Y-15317527D02*
X6381771Y-15308003D01*
X6381771Y-15308003D02*
X6400819Y-15298479D01*
X6543676Y-15298479D02*
X6543676Y-15336575D01*
X6619866Y-15298479D02*
X6619866Y-15336575D01*
X6915104Y-15574670D02*
X6905581Y-15565146D01*
X6905581Y-15565146D02*
X6886533Y-15536575D01*
X6886533Y-15536575D02*
X6877009Y-15517527D01*
X6877009Y-15517527D02*
X6867485Y-15488956D01*
X6867485Y-15488956D02*
X6857962Y-15441337D01*
X6857962Y-15441337D02*
X6857962Y-15403241D01*
X6857962Y-15403241D02*
X6867485Y-15355622D01*
X6867485Y-15355622D02*
X6877009Y-15327051D01*
X6877009Y-15327051D02*
X6886533Y-15308003D01*
X6886533Y-15308003D02*
X6905581Y-15279432D01*
X6905581Y-15279432D02*
X6915104Y-15269908D01*
X6981771Y-15317527D02*
X6991295Y-15308003D01*
X6991295Y-15308003D02*
X7010342Y-15298479D01*
X7010342Y-15298479D02*
X7057962Y-15298479D01*
X7057962Y-15298479D02*
X7077009Y-15308003D01*
X7077009Y-15308003D02*
X7086533Y-15317527D01*
X7086533Y-15317527D02*
X7096057Y-15336575D01*
X7096057Y-15336575D02*
X7096057Y-15355622D01*
X7096057Y-15355622D02*
X7086533Y-15384194D01*
X7086533Y-15384194D02*
X6972247Y-15498479D01*
X6972247Y-15498479D02*
X7096057Y-15498479D01*
X7210342Y-15384194D02*
X7191295Y-15374670D01*
X7191295Y-15374670D02*
X7181771Y-15365146D01*
X7181771Y-15365146D02*
X7172247Y-15346098D01*
X7172247Y-15346098D02*
X7172247Y-15336575D01*
X7172247Y-15336575D02*
X7181771Y-15317527D01*
X7181771Y-15317527D02*
X7191295Y-15308003D01*
X7191295Y-15308003D02*
X7210342Y-15298479D01*
X7210342Y-15298479D02*
X7248438Y-15298479D01*
X7248438Y-15298479D02*
X7267485Y-15308003D01*
X7267485Y-15308003D02*
X7277009Y-15317527D01*
X7277009Y-15317527D02*
X7286533Y-15336575D01*
X7286533Y-15336575D02*
X7286533Y-15346098D01*
X7286533Y-15346098D02*
X7277009Y-15365146D01*
X7277009Y-15365146D02*
X7267485Y-15374670D01*
X7267485Y-15374670D02*
X7248438Y-15384194D01*
X7248438Y-15384194D02*
X7210342Y-15384194D01*
X7210342Y-15384194D02*
X7191295Y-15393718D01*
X7191295Y-15393718D02*
X7181771Y-15403241D01*
X7181771Y-15403241D02*
X7172247Y-15422289D01*
X7172247Y-15422289D02*
X7172247Y-15460384D01*
X7172247Y-15460384D02*
X7181771Y-15479432D01*
X7181771Y-15479432D02*
X7191295Y-15488956D01*
X7191295Y-15488956D02*
X7210342Y-15498479D01*
X7210342Y-15498479D02*
X7248438Y-15498479D01*
X7248438Y-15498479D02*
X7267485Y-15488956D01*
X7267485Y-15488956D02*
X7277009Y-15479432D01*
X7277009Y-15479432D02*
X7286533Y-15460384D01*
X7286533Y-15460384D02*
X7286533Y-15422289D01*
X7286533Y-15422289D02*
X7277009Y-15403241D01*
X7277009Y-15403241D02*
X7267485Y-15393718D01*
X7267485Y-15393718D02*
X7248438Y-15384194D01*
X7524628Y-15498479D02*
X7524628Y-15298479D01*
X7610343Y-15498479D02*
X7610343Y-15393718D01*
X7610343Y-15393718D02*
X7600819Y-15374670D01*
X7600819Y-15374670D02*
X7581771Y-15365146D01*
X7581771Y-15365146D02*
X7553200Y-15365146D01*
X7553200Y-15365146D02*
X7534152Y-15374670D01*
X7534152Y-15374670D02*
X7524628Y-15384194D01*
X7734152Y-15498479D02*
X7715104Y-15488956D01*
X7715104Y-15488956D02*
X7705581Y-15479432D01*
X7705581Y-15479432D02*
X7696057Y-15460384D01*
X7696057Y-15460384D02*
X7696057Y-15403241D01*
X7696057Y-15403241D02*
X7705581Y-15384194D01*
X7705581Y-15384194D02*
X7715104Y-15374670D01*
X7715104Y-15374670D02*
X7734152Y-15365146D01*
X7734152Y-15365146D02*
X7762724Y-15365146D01*
X7762724Y-15365146D02*
X7781771Y-15374670D01*
X7781771Y-15374670D02*
X7791295Y-15384194D01*
X7791295Y-15384194D02*
X7800819Y-15403241D01*
X7800819Y-15403241D02*
X7800819Y-15460384D01*
X7800819Y-15460384D02*
X7791295Y-15479432D01*
X7791295Y-15479432D02*
X7781771Y-15488956D01*
X7781771Y-15488956D02*
X7762724Y-15498479D01*
X7762724Y-15498479D02*
X7734152Y-15498479D01*
X7915104Y-15498479D02*
X7896057Y-15488956D01*
X7896057Y-15488956D02*
X7886533Y-15469908D01*
X7886533Y-15469908D02*
X7886533Y-15298479D01*
X8067485Y-15488956D02*
X8048438Y-15498479D01*
X8048438Y-15498479D02*
X8010343Y-15498479D01*
X8010343Y-15498479D02*
X7991295Y-15488956D01*
X7991295Y-15488956D02*
X7981771Y-15469908D01*
X7981771Y-15469908D02*
X7981771Y-15393718D01*
X7981771Y-15393718D02*
X7991295Y-15374670D01*
X7991295Y-15374670D02*
X8010343Y-15365146D01*
X8010343Y-15365146D02*
X8048438Y-15365146D01*
X8048438Y-15365146D02*
X8067485Y-15374670D01*
X8067485Y-15374670D02*
X8077009Y-15393718D01*
X8077009Y-15393718D02*
X8077009Y-15412765D01*
X8077009Y-15412765D02*
X7981771Y-15431813D01*
X8153200Y-15488956D02*
X8172247Y-15498479D01*
X8172247Y-15498479D02*
X8210343Y-15498479D01*
X8210343Y-15498479D02*
X8229390Y-15488956D01*
X8229390Y-15488956D02*
X8238914Y-15469908D01*
X8238914Y-15469908D02*
X8238914Y-15460384D01*
X8238914Y-15460384D02*
X8229390Y-15441337D01*
X8229390Y-15441337D02*
X8210343Y-15431813D01*
X8210343Y-15431813D02*
X8181771Y-15431813D01*
X8181771Y-15431813D02*
X8162724Y-15422289D01*
X8162724Y-15422289D02*
X8153200Y-15403241D01*
X8153200Y-15403241D02*
X8153200Y-15393718D01*
X8153200Y-15393718D02*
X8162724Y-15374670D01*
X8162724Y-15374670D02*
X8181771Y-15365146D01*
X8181771Y-15365146D02*
X8210343Y-15365146D01*
X8210343Y-15365146D02*
X8229390Y-15374670D01*
X8305581Y-15574670D02*
X8315105Y-15565146D01*
X8315105Y-15565146D02*
X8334152Y-15536575D01*
X8334152Y-15536575D02*
X8343676Y-15517527D01*
X8343676Y-15517527D02*
X8353200Y-15488956D01*
X8353200Y-15488956D02*
X8362724Y-15441337D01*
X8362724Y-15441337D02*
X8362724Y-15403241D01*
X8362724Y-15403241D02*
X8353200Y-15355622D01*
X8353200Y-15355622D02*
X8343676Y-15327051D01*
X8343676Y-15327051D02*
X8334152Y-15308003D01*
X8334152Y-15308003D02*
X8315105Y-15279432D01*
X8315105Y-15279432D02*
X8305581Y-15269908D01*
X8667486Y-15574670D02*
X8657962Y-15565146D01*
X8657962Y-15565146D02*
X8638914Y-15536575D01*
X8638914Y-15536575D02*
X8629390Y-15517527D01*
X8629390Y-15517527D02*
X8619867Y-15488956D01*
X8619867Y-15488956D02*
X8610343Y-15441337D01*
X8610343Y-15441337D02*
X8610343Y-15403241D01*
X8610343Y-15403241D02*
X8619867Y-15355622D01*
X8619867Y-15355622D02*
X8629390Y-15327051D01*
X8629390Y-15327051D02*
X8638914Y-15308003D01*
X8638914Y-15308003D02*
X8657962Y-15279432D01*
X8657962Y-15279432D02*
X8667486Y-15269908D01*
X8743676Y-15365146D02*
X8743676Y-15498479D01*
X8743676Y-15384194D02*
X8753200Y-15374670D01*
X8753200Y-15374670D02*
X8772247Y-15365146D01*
X8772247Y-15365146D02*
X8800819Y-15365146D01*
X8800819Y-15365146D02*
X8819867Y-15374670D01*
X8819867Y-15374670D02*
X8829390Y-15393718D01*
X8829390Y-15393718D02*
X8829390Y-15498479D01*
X8953200Y-15498479D02*
X8934152Y-15488956D01*
X8934152Y-15488956D02*
X8924628Y-15479432D01*
X8924628Y-15479432D02*
X8915105Y-15460384D01*
X8915105Y-15460384D02*
X8915105Y-15403241D01*
X8915105Y-15403241D02*
X8924628Y-15384194D01*
X8924628Y-15384194D02*
X8934152Y-15374670D01*
X8934152Y-15374670D02*
X8953200Y-15365146D01*
X8953200Y-15365146D02*
X8981771Y-15365146D01*
X8981771Y-15365146D02*
X9000819Y-15374670D01*
X9000819Y-15374670D02*
X9010343Y-15384194D01*
X9010343Y-15384194D02*
X9019867Y-15403241D01*
X9019867Y-15403241D02*
X9019867Y-15460384D01*
X9019867Y-15460384D02*
X9010343Y-15479432D01*
X9010343Y-15479432D02*
X9000819Y-15488956D01*
X9000819Y-15488956D02*
X8981771Y-15498479D01*
X8981771Y-15498479D02*
X8953200Y-15498479D01*
X9077009Y-15365146D02*
X9153200Y-15365146D01*
X9105581Y-15298479D02*
X9105581Y-15469908D01*
X9105581Y-15469908D02*
X9115105Y-15488956D01*
X9115105Y-15488956D02*
X9134152Y-15498479D01*
X9134152Y-15498479D02*
X9153200Y-15498479D01*
X9372248Y-15365146D02*
X9372248Y-15565146D01*
X9372248Y-15374670D02*
X9391295Y-15365146D01*
X9391295Y-15365146D02*
X9429390Y-15365146D01*
X9429390Y-15365146D02*
X9448438Y-15374670D01*
X9448438Y-15374670D02*
X9457962Y-15384194D01*
X9457962Y-15384194D02*
X9467486Y-15403241D01*
X9467486Y-15403241D02*
X9467486Y-15460384D01*
X9467486Y-15460384D02*
X9457962Y-15479432D01*
X9457962Y-15479432D02*
X9448438Y-15488956D01*
X9448438Y-15488956D02*
X9429390Y-15498479D01*
X9429390Y-15498479D02*
X9391295Y-15498479D01*
X9391295Y-15498479D02*
X9372248Y-15488956D01*
X9581771Y-15498479D02*
X9562724Y-15488956D01*
X9562724Y-15488956D02*
X9553200Y-15469908D01*
X9553200Y-15469908D02*
X9553200Y-15298479D01*
X9743676Y-15498479D02*
X9743676Y-15393718D01*
X9743676Y-15393718D02*
X9734152Y-15374670D01*
X9734152Y-15374670D02*
X9715105Y-15365146D01*
X9715105Y-15365146D02*
X9677009Y-15365146D01*
X9677009Y-15365146D02*
X9657962Y-15374670D01*
X9743676Y-15488956D02*
X9724629Y-15498479D01*
X9724629Y-15498479D02*
X9677009Y-15498479D01*
X9677009Y-15498479D02*
X9657962Y-15488956D01*
X9657962Y-15488956D02*
X9648438Y-15469908D01*
X9648438Y-15469908D02*
X9648438Y-15450860D01*
X9648438Y-15450860D02*
X9657962Y-15431813D01*
X9657962Y-15431813D02*
X9677009Y-15422289D01*
X9677009Y-15422289D02*
X9724629Y-15422289D01*
X9724629Y-15422289D02*
X9743676Y-15412765D01*
X9810343Y-15365146D02*
X9886533Y-15365146D01*
X9838914Y-15298479D02*
X9838914Y-15469908D01*
X9838914Y-15469908D02*
X9848438Y-15488956D01*
X9848438Y-15488956D02*
X9867486Y-15498479D01*
X9867486Y-15498479D02*
X9886533Y-15498479D01*
X10029390Y-15488956D02*
X10010343Y-15498479D01*
X10010343Y-15498479D02*
X9972248Y-15498479D01*
X9972248Y-15498479D02*
X9953200Y-15488956D01*
X9953200Y-15488956D02*
X9943676Y-15469908D01*
X9943676Y-15469908D02*
X9943676Y-15393718D01*
X9943676Y-15393718D02*
X9953200Y-15374670D01*
X9953200Y-15374670D02*
X9972248Y-15365146D01*
X9972248Y-15365146D02*
X10010343Y-15365146D01*
X10010343Y-15365146D02*
X10029390Y-15374670D01*
X10029390Y-15374670D02*
X10038914Y-15393718D01*
X10038914Y-15393718D02*
X10038914Y-15412765D01*
X10038914Y-15412765D02*
X9943676Y-15431813D01*
X10210343Y-15498479D02*
X10210343Y-15298479D01*
X10210343Y-15488956D02*
X10191295Y-15498479D01*
X10191295Y-15498479D02*
X10153200Y-15498479D01*
X10153200Y-15498479D02*
X10134152Y-15488956D01*
X10134152Y-15488956D02*
X10124629Y-15479432D01*
X10124629Y-15479432D02*
X10115105Y-15460384D01*
X10115105Y-15460384D02*
X10115105Y-15403241D01*
X10115105Y-15403241D02*
X10124629Y-15384194D01*
X10124629Y-15384194D02*
X10134152Y-15374670D01*
X10134152Y-15374670D02*
X10153200Y-15365146D01*
X10153200Y-15365146D02*
X10191295Y-15365146D01*
X10191295Y-15365146D02*
X10210343Y-15374670D01*
X10286533Y-15574670D02*
X10296057Y-15565146D01*
X10296057Y-15565146D02*
X10315105Y-15536575D01*
X10315105Y-15536575D02*
X10324629Y-15517527D01*
X10324629Y-15517527D02*
X10334152Y-15488956D01*
X10334152Y-15488956D02*
X10343676Y-15441337D01*
X10343676Y-15441337D02*
X10343676Y-15403241D01*
X10343676Y-15403241D02*
X10334152Y-15355622D01*
X10334152Y-15355622D02*
X10324629Y-15327051D01*
X10324629Y-15327051D02*
X10315105Y-15308003D01*
X10315105Y-15308003D02*
X10296057Y-15279432D01*
X10296057Y-15279432D02*
X10286533Y-15269908D01*
M02*
