%TF.GenerationSoftware,KiCad,Pcbnew,7.0.6-7.0.6~ubuntu20.04.1*%
%TF.CreationDate,2023-07-19T10:45:05+02:00*%
%TF.ProjectId,keyboard,6b657962-6f61-4726-942e-6b696361645f,v1.0.0*%
%TF.SameCoordinates,Original*%
%TF.FileFunction,Legend,Top*%
%TF.FilePolarity,Positive*%
%FSLAX46Y46*%
G04 Gerber Fmt 4.6, Leading zero omitted, Abs format (unit mm)*
G04 Created by KiCad (PCBNEW 7.0.6-7.0.6~ubuntu20.04.1) date 2023-07-19 10:45:05*
%MOMM*%
%LPD*%
G01*
G04 APERTURE LIST*
G04 Aperture macros list*
%AMRoundRect*
0 Rectangle with rounded corners*
0 $1 Rounding radius*
0 $2 $3 $4 $5 $6 $7 $8 $9 X,Y pos of 4 corners*
0 Add a 4 corners polygon primitive as box body*
4,1,4,$2,$3,$4,$5,$6,$7,$8,$9,$2,$3,0*
0 Add four circle primitives for the rounded corners*
1,1,$1+$1,$2,$3*
1,1,$1+$1,$4,$5*
1,1,$1+$1,$6,$7*
1,1,$1+$1,$8,$9*
0 Add four rect primitives between the rounded corners*
20,1,$1+$1,$2,$3,$4,$5,0*
20,1,$1+$1,$4,$5,$6,$7,0*
20,1,$1+$1,$6,$7,$8,$9,0*
20,1,$1+$1,$8,$9,$2,$3,0*%
%AMFreePoly0*
4,1,14,0.635355,0.435355,0.650000,0.400000,0.650000,0.200000,0.635355,0.164645,0.035355,-0.435355,0.000000,-0.450000,-0.035355,-0.435355,-0.635355,0.164645,-0.650000,0.200000,-0.650000,0.400000,-0.635355,0.435355,-0.600000,0.450000,0.600000,0.450000,0.635355,0.435355,0.635355,0.435355,$1*%
%AMFreePoly1*
4,1,16,0.635355,1.035355,0.650000,1.000000,0.650000,-0.250000,0.635355,-0.285355,0.600000,-0.300000,-0.600000,-0.300000,-0.635355,-0.285355,-0.650000,-0.250000,-0.650000,1.000000,-0.635355,1.035355,-0.600000,1.050000,-0.564645,1.035355,0.000000,0.470710,0.564645,1.035355,0.600000,1.050000,0.635355,1.035355,0.635355,1.035355,$1*%
G04 Aperture macros list end*
%ADD10C,0.150000*%
%ADD11C,0.100000*%
%ADD12C,0.120000*%
%ADD13R,1.400000X1.400000*%
%ADD14C,1.400000*%
%ADD15C,1.752600*%
%ADD16C,2.000000*%
%ADD17RoundRect,0.050000X-0.450000X-0.450000X0.450000X-0.450000X0.450000X0.450000X-0.450000X0.450000X0*%
%ADD18C,1.100000*%
%ADD19RoundRect,0.050000X-0.450000X-0.625000X0.450000X-0.625000X0.450000X0.625000X-0.450000X0.625000X0*%
%ADD20FreePoly0,270.000000*%
%ADD21FreePoly1,270.000000*%
%ADD22FreePoly0,180.000000*%
%ADD23FreePoly1,180.000000*%
%ADD24RoundRect,0.050000X-0.589958X-0.463087X0.279375X-0.696024X0.589958X0.463087X-0.279375X0.696024X0*%
%ADD25C,0.700000*%
%ADD26RoundRect,0.050000X-0.450000X-0.600000X0.450000X-0.600000X0.450000X0.600000X-0.450000X0.600000X0*%
%ADD27C,1.801800*%
%ADD28C,3.100000*%
%ADD29C,3.529000*%
%ADD30RoundRect,0.050000X1.300000X1.300000X-1.300000X1.300000X-1.300000X-1.300000X1.300000X-1.300000X0*%
%ADD31C,1.700000*%
%ADD32RoundRect,0.050000X-0.395994X-0.636937X0.500581X-0.558497X0.395994X0.636937X-0.500581X0.558497X0*%
%ADD33FreePoly0,90.000000*%
%ADD34FreePoly1,90.000000*%
%ADD35RoundRect,0.050000X1.181751X1.408356X-1.408356X1.181751X-1.181751X-1.408356X1.408356X-1.181751X0*%
%ADD36C,4.800000*%
%ADD37C,4.100000*%
%ADD38RoundRect,0.050000X-0.700000X0.700000X-0.700000X-0.700000X0.700000X-0.700000X0.700000X0.700000X0*%
%ADD39C,1.500000*%
%ADD40O,1.800000X1.800000*%
%ADD41RoundRect,0.050000X-0.475833X1.775833X-1.775833X-0.475833X0.475833X-1.775833X1.775833X0.475833X0*%
%ADD42RoundRect,0.050000X-0.876300X0.876300X-0.876300X-0.876300X0.876300X-0.876300X0.876300X0.876300X0*%
%ADD43C,1.852600*%
%ADD44C,2.100000*%
%ADD45RoundRect,0.050000X-0.689711X-0.294615X0.089711X-0.744615X0.689711X0.294615X-0.089711X0.744615X0*%
%ADD46RoundRect,0.050000X1.592168X0.919239X-0.919239X1.592168X-1.592168X-0.919239X0.919239X-1.592168X0*%
G04 APERTURE END LIST*
D10*
X173223755Y-99859219D02*
X173223755Y-99592553D01*
X173642803Y-99478267D02*
X173642803Y-99859219D01*
X173642803Y-99859219D02*
X172842803Y-99859219D01*
X172842803Y-99859219D02*
X172842803Y-99478267D01*
X172842803Y-99249695D02*
X173642803Y-98983028D01*
X173642803Y-98983028D02*
X172842803Y-98716362D01*
X173718993Y-97916362D02*
X173680898Y-97992552D01*
X173680898Y-97992552D02*
X173604708Y-98068743D01*
X173604708Y-98068743D02*
X173490422Y-98183029D01*
X173490422Y-98183029D02*
X173452327Y-98259219D01*
X173452327Y-98259219D02*
X173452327Y-98335410D01*
X173642803Y-98297314D02*
X173604708Y-98373505D01*
X173604708Y-98373505D02*
X173528517Y-98449695D01*
X173528517Y-98449695D02*
X173376136Y-98487791D01*
X173376136Y-98487791D02*
X173109469Y-98487791D01*
X173109469Y-98487791D02*
X172957088Y-98449695D01*
X172957088Y-98449695D02*
X172880898Y-98373505D01*
X172880898Y-98373505D02*
X172842803Y-98297314D01*
X172842803Y-98297314D02*
X172842803Y-98144933D01*
X172842803Y-98144933D02*
X172880898Y-98068743D01*
X172880898Y-98068743D02*
X172957088Y-97992552D01*
X172957088Y-97992552D02*
X173109469Y-97954457D01*
X173109469Y-97954457D02*
X173376136Y-97954457D01*
X173376136Y-97954457D02*
X173528517Y-97992552D01*
X173528517Y-97992552D02*
X173604708Y-98068743D01*
X173604708Y-98068743D02*
X173642803Y-98144933D01*
X173642803Y-98144933D02*
X173642803Y-98297314D01*
X172842803Y-97687791D02*
X173642803Y-97497315D01*
X173642803Y-97497315D02*
X173071374Y-97344934D01*
X173071374Y-97344934D02*
X173642803Y-97192553D01*
X173642803Y-97192553D02*
X172842803Y-97002077D01*
X172880898Y-96278267D02*
X172842803Y-96354457D01*
X172842803Y-96354457D02*
X172842803Y-96468743D01*
X172842803Y-96468743D02*
X172880898Y-96583029D01*
X172880898Y-96583029D02*
X172957088Y-96659219D01*
X172957088Y-96659219D02*
X173033279Y-96697314D01*
X173033279Y-96697314D02*
X173185660Y-96735410D01*
X173185660Y-96735410D02*
X173299946Y-96735410D01*
X173299946Y-96735410D02*
X173452327Y-96697314D01*
X173452327Y-96697314D02*
X173528517Y-96659219D01*
X173528517Y-96659219D02*
X173604708Y-96583029D01*
X173604708Y-96583029D02*
X173642803Y-96468743D01*
X173642803Y-96468743D02*
X173642803Y-96392552D01*
X173642803Y-96392552D02*
X173604708Y-96278267D01*
X173604708Y-96278267D02*
X173566612Y-96240171D01*
X173566612Y-96240171D02*
X173299946Y-96240171D01*
X173299946Y-96240171D02*
X173299946Y-96392552D01*
X173642803Y-95897314D02*
X172842803Y-95897314D01*
X172842803Y-95897314D02*
X172842803Y-95706838D01*
X172842803Y-95706838D02*
X172880898Y-95592552D01*
X172880898Y-95592552D02*
X172957088Y-95516362D01*
X172957088Y-95516362D02*
X173033279Y-95478267D01*
X173033279Y-95478267D02*
X173185660Y-95440171D01*
X173185660Y-95440171D02*
X173299946Y-95440171D01*
X173299946Y-95440171D02*
X173452327Y-95478267D01*
X173452327Y-95478267D02*
X173528517Y-95516362D01*
X173528517Y-95516362D02*
X173604708Y-95592552D01*
X173604708Y-95592552D02*
X173642803Y-95706838D01*
X173642803Y-95706838D02*
X173642803Y-95897314D01*
X172842803Y-94944933D02*
X172842803Y-94868743D01*
X172842803Y-94868743D02*
X172880898Y-94792552D01*
X172880898Y-94792552D02*
X172918993Y-94754457D01*
X172918993Y-94754457D02*
X172995184Y-94716362D01*
X172995184Y-94716362D02*
X173147565Y-94678267D01*
X173147565Y-94678267D02*
X173338041Y-94678267D01*
X173338041Y-94678267D02*
X173490422Y-94716362D01*
X173490422Y-94716362D02*
X173566612Y-94754457D01*
X173566612Y-94754457D02*
X173604708Y-94792552D01*
X173604708Y-94792552D02*
X173642803Y-94868743D01*
X173642803Y-94868743D02*
X173642803Y-94944933D01*
X173642803Y-94944933D02*
X173604708Y-95021124D01*
X173604708Y-95021124D02*
X173566612Y-95059219D01*
X173566612Y-95059219D02*
X173490422Y-95097314D01*
X173490422Y-95097314D02*
X173338041Y-95135410D01*
X173338041Y-95135410D02*
X173147565Y-95135410D01*
X173147565Y-95135410D02*
X172995184Y-95097314D01*
X172995184Y-95097314D02*
X172918993Y-95059219D01*
X172918993Y-95059219D02*
X172880898Y-95021124D01*
X172880898Y-95021124D02*
X172842803Y-94944933D01*
X172842803Y-94183028D02*
X172842803Y-94106838D01*
X172842803Y-94106838D02*
X172880898Y-94030647D01*
X172880898Y-94030647D02*
X172918993Y-93992552D01*
X172918993Y-93992552D02*
X172995184Y-93954457D01*
X172995184Y-93954457D02*
X173147565Y-93916362D01*
X173147565Y-93916362D02*
X173338041Y-93916362D01*
X173338041Y-93916362D02*
X173490422Y-93954457D01*
X173490422Y-93954457D02*
X173566612Y-93992552D01*
X173566612Y-93992552D02*
X173604708Y-94030647D01*
X173604708Y-94030647D02*
X173642803Y-94106838D01*
X173642803Y-94106838D02*
X173642803Y-94183028D01*
X173642803Y-94183028D02*
X173604708Y-94259219D01*
X173604708Y-94259219D02*
X173566612Y-94297314D01*
X173566612Y-94297314D02*
X173490422Y-94335409D01*
X173490422Y-94335409D02*
X173338041Y-94373505D01*
X173338041Y-94373505D02*
X173147565Y-94373505D01*
X173147565Y-94373505D02*
X172995184Y-94335409D01*
X172995184Y-94335409D02*
X172918993Y-94297314D01*
X172918993Y-94297314D02*
X172880898Y-94259219D01*
X172880898Y-94259219D02*
X172842803Y-94183028D01*
X173642803Y-93154457D02*
X173642803Y-93611600D01*
X173642803Y-93383028D02*
X172842803Y-93383028D01*
X172842803Y-93383028D02*
X172957088Y-93459219D01*
X172957088Y-93459219D02*
X173033279Y-93535409D01*
X173033279Y-93535409D02*
X173071374Y-93611600D01*
G36*
X171772185Y-97539906D02*
G01*
X171793069Y-97560789D01*
X171817803Y-97610257D01*
X171817803Y-97689133D01*
X171793069Y-97738601D01*
X171772184Y-97759485D01*
X171722716Y-97784220D01*
X171529556Y-97784220D01*
X171480086Y-97759484D01*
X171459203Y-97738601D01*
X171434469Y-97689133D01*
X171434469Y-97610258D01*
X171459204Y-97560788D01*
X171480087Y-97539906D01*
X171529555Y-97515172D01*
X171722717Y-97515172D01*
X171772185Y-97539906D01*
G37*
G36*
X171534650Y-94660409D02*
G01*
X171491461Y-94660409D01*
X171453465Y-94641410D01*
X171434469Y-94603416D01*
X171434469Y-94486447D01*
X171453466Y-94448452D01*
X171488732Y-94430819D01*
X171534650Y-94660409D01*
G37*
G36*
X171534650Y-93974695D02*
G01*
X171491461Y-93974695D01*
X171453465Y-93955696D01*
X171434469Y-93917702D01*
X171434469Y-93800733D01*
X171453466Y-93762738D01*
X171488732Y-93745105D01*
X171534650Y-93974695D01*
G37*
G36*
X172082089Y-99991363D02*
G01*
X170903517Y-99991363D01*
X170903517Y-99649696D01*
X171017803Y-99649696D01*
X171019336Y-99653909D01*
X171018295Y-99658270D01*
X171025721Y-99683237D01*
X171063816Y-99759427D01*
X171065005Y-99760552D01*
X171077865Y-99778919D01*
X171115960Y-99817014D01*
X171117445Y-99817706D01*
X171135452Y-99831063D01*
X171211642Y-99869159D01*
X171216096Y-99869671D01*
X171219532Y-99872554D01*
X171245184Y-99877077D01*
X171321374Y-99877077D01*
X171325587Y-99875543D01*
X171329949Y-99876585D01*
X171354915Y-99869159D01*
X171431106Y-99831063D01*
X171432231Y-99829873D01*
X171450598Y-99817014D01*
X171488693Y-99778919D01*
X171489384Y-99777437D01*
X171502742Y-99759427D01*
X171540837Y-99683237D01*
X171541243Y-99679708D01*
X171546516Y-99667886D01*
X171582614Y-99523491D01*
X171611585Y-99465550D01*
X171632468Y-99444668D01*
X171681936Y-99419934D01*
X171722717Y-99419934D01*
X171772185Y-99444668D01*
X171793069Y-99465551D01*
X171817803Y-99515019D01*
X171817803Y-99675621D01*
X171783557Y-99778360D01*
X171784958Y-99829644D01*
X171818996Y-99868029D01*
X171869744Y-99875554D01*
X171913457Y-99848699D01*
X171925859Y-99825794D01*
X171963954Y-99711508D01*
X171963909Y-99709873D01*
X171967803Y-99687791D01*
X171967803Y-99497315D01*
X171966269Y-99493102D01*
X171967312Y-99488741D01*
X171959885Y-99463774D01*
X171921790Y-99387583D01*
X171920602Y-99386458D01*
X171907740Y-99368090D01*
X171869644Y-99329995D01*
X171868161Y-99329303D01*
X171850153Y-99315947D01*
X171773963Y-99277852D01*
X171769509Y-99277339D01*
X171766074Y-99274457D01*
X171740422Y-99269934D01*
X171664231Y-99269934D01*
X171660017Y-99271467D01*
X171655657Y-99270426D01*
X171630690Y-99277852D01*
X171554500Y-99315947D01*
X171553374Y-99317136D01*
X171535008Y-99329996D01*
X171496913Y-99368091D01*
X171496220Y-99369575D01*
X171482864Y-99387583D01*
X171444768Y-99463774D01*
X171444361Y-99467302D01*
X171439089Y-99479125D01*
X171402990Y-99623520D01*
X171374020Y-99681459D01*
X171353138Y-99702341D01*
X171303669Y-99727077D01*
X171262889Y-99727077D01*
X171213420Y-99702342D01*
X171192536Y-99681458D01*
X171167803Y-99631991D01*
X171167803Y-99471389D01*
X171202049Y-99368651D01*
X171200648Y-99317367D01*
X171166611Y-99278982D01*
X171115862Y-99271457D01*
X171072150Y-99298312D01*
X171059747Y-99321217D01*
X171021652Y-99435502D01*
X171021696Y-99437136D01*
X171017803Y-99459219D01*
X171017803Y-99649696D01*
X170903517Y-99649696D01*
X170903517Y-98887791D01*
X171284469Y-98887791D01*
X171286002Y-98892004D01*
X171284961Y-98896366D01*
X171292387Y-98921333D01*
X171330483Y-98997522D01*
X171331672Y-98998647D01*
X171344532Y-99017014D01*
X171382627Y-99055109D01*
X171384109Y-99055800D01*
X171402118Y-99069158D01*
X171478308Y-99107253D01*
X171482761Y-99107765D01*
X171486198Y-99110649D01*
X171511850Y-99115172D01*
X171740422Y-99115172D01*
X171744635Y-99113638D01*
X171748997Y-99114680D01*
X171773964Y-99107254D01*
X171850153Y-99069158D01*
X171851278Y-99067969D01*
X171869644Y-99055110D01*
X171907740Y-99017015D01*
X171908430Y-99015533D01*
X171921790Y-98997522D01*
X171959885Y-98921332D01*
X171960397Y-98916878D01*
X171963280Y-98913443D01*
X171967803Y-98887791D01*
X171967803Y-98735410D01*
X171966269Y-98731197D01*
X171967312Y-98726836D01*
X171959885Y-98701869D01*
X171921790Y-98625678D01*
X171884536Y-98590406D01*
X171833326Y-98587331D01*
X171792120Y-98617894D01*
X171780199Y-98667793D01*
X171787626Y-98692760D01*
X171817803Y-98753114D01*
X171817803Y-98870085D01*
X171793069Y-98919553D01*
X171772184Y-98940437D01*
X171722716Y-98965172D01*
X171529556Y-98965172D01*
X171480086Y-98940436D01*
X171459203Y-98919553D01*
X171434469Y-98870084D01*
X171434469Y-98753115D01*
X171464647Y-98692761D01*
X171470512Y-98641794D01*
X171442246Y-98598981D01*
X171393072Y-98584354D01*
X171346001Y-98604757D01*
X171330483Y-98625678D01*
X171292387Y-98701869D01*
X171291874Y-98706322D01*
X171288992Y-98709758D01*
X171284469Y-98735410D01*
X171284469Y-98887791D01*
X170903517Y-98887791D01*
X170903517Y-98163981D01*
X171284469Y-98163981D01*
X171286002Y-98168194D01*
X171284961Y-98172556D01*
X171292387Y-98197522D01*
X171321260Y-98255268D01*
X171311260Y-98258909D01*
X171285608Y-98303338D01*
X171294517Y-98353862D01*
X171333817Y-98386839D01*
X171359469Y-98391362D01*
X171892803Y-98391362D01*
X171941012Y-98373815D01*
X171966664Y-98329386D01*
X171957755Y-98278862D01*
X171918455Y-98245885D01*
X171892803Y-98241362D01*
X171529555Y-98241362D01*
X171480087Y-98216628D01*
X171459204Y-98195745D01*
X171434469Y-98146275D01*
X171434469Y-98087791D01*
X171416922Y-98039582D01*
X171372493Y-98013930D01*
X171321969Y-98022839D01*
X171288992Y-98062139D01*
X171284469Y-98087791D01*
X171284469Y-98163981D01*
X170903517Y-98163981D01*
X170903517Y-97706839D01*
X171284469Y-97706839D01*
X171286002Y-97711052D01*
X171284961Y-97715414D01*
X171292387Y-97740381D01*
X171330483Y-97816570D01*
X171331672Y-97817695D01*
X171344532Y-97836062D01*
X171382627Y-97874157D01*
X171384109Y-97874848D01*
X171402118Y-97888206D01*
X171478308Y-97926301D01*
X171482761Y-97926813D01*
X171486198Y-97929697D01*
X171511850Y-97934220D01*
X171740422Y-97934220D01*
X171744635Y-97932686D01*
X171748997Y-97933728D01*
X171773964Y-97926302D01*
X171850153Y-97888206D01*
X171851278Y-97887017D01*
X171869644Y-97874158D01*
X171907740Y-97836063D01*
X171908430Y-97834581D01*
X171921790Y-97816570D01*
X171959885Y-97740380D01*
X171960397Y-97735926D01*
X171963280Y-97732491D01*
X171967803Y-97706839D01*
X171967803Y-97592553D01*
X171966269Y-97588340D01*
X171967312Y-97583979D01*
X171959885Y-97559012D01*
X171921790Y-97482821D01*
X171920602Y-97481696D01*
X171907740Y-97463328D01*
X171869644Y-97425233D01*
X171868161Y-97424541D01*
X171850153Y-97411185D01*
X171773963Y-97373090D01*
X171769509Y-97372577D01*
X171766074Y-97369695D01*
X171740422Y-97365172D01*
X171511850Y-97365172D01*
X171507636Y-97366705D01*
X171503276Y-97365664D01*
X171478309Y-97373090D01*
X171402119Y-97411185D01*
X171400993Y-97412374D01*
X171382627Y-97425234D01*
X171344532Y-97463329D01*
X171343839Y-97464813D01*
X171330483Y-97482821D01*
X171292387Y-97559012D01*
X171291874Y-97563465D01*
X171288992Y-97566901D01*
X171284469Y-97592553D01*
X171284469Y-97706839D01*
X170903517Y-97706839D01*
X170903517Y-97084290D01*
X171018942Y-97084290D01*
X171027851Y-97134814D01*
X171067151Y-97167791D01*
X171092803Y-97172314D01*
X171778517Y-97172314D01*
X171782729Y-97170780D01*
X171787091Y-97171823D01*
X171812058Y-97164396D01*
X171888249Y-97126301D01*
X171895968Y-97118147D01*
X171906273Y-97113681D01*
X171921790Y-97092760D01*
X171959885Y-97016570D01*
X171965750Y-96965603D01*
X171937484Y-96922790D01*
X171888309Y-96908164D01*
X171841238Y-96928567D01*
X171825721Y-96949488D01*
X171798806Y-97003317D01*
X171760812Y-97022314D01*
X171092803Y-97022314D01*
X171044594Y-97039861D01*
X171018942Y-97084290D01*
X170903517Y-97084290D01*
X170903517Y-96665242D01*
X171018942Y-96665242D01*
X171027851Y-96715766D01*
X171067151Y-96748743D01*
X171092803Y-96753266D01*
X171778517Y-96753266D01*
X171782729Y-96751732D01*
X171787091Y-96752775D01*
X171812058Y-96745348D01*
X171888249Y-96707253D01*
X171895968Y-96699099D01*
X171906273Y-96694633D01*
X171921790Y-96673712D01*
X171959885Y-96597522D01*
X171965750Y-96546555D01*
X171937484Y-96503742D01*
X171888309Y-96489116D01*
X171841238Y-96509519D01*
X171825721Y-96530440D01*
X171798806Y-96584269D01*
X171760812Y-96603266D01*
X171092803Y-96603266D01*
X171044594Y-96620813D01*
X171018942Y-96665242D01*
X170903517Y-96665242D01*
X170903517Y-96343177D01*
X171284872Y-96343177D01*
X171307318Y-96389310D01*
X171354165Y-96410221D01*
X171380073Y-96407523D01*
X171913407Y-96255142D01*
X171914668Y-96254227D01*
X171916227Y-96254276D01*
X171935309Y-96239260D01*
X171954941Y-96225026D01*
X171955319Y-96223515D01*
X171956544Y-96222552D01*
X171961507Y-96198796D01*
X171967400Y-96175260D01*
X171966718Y-96173858D01*
X171967037Y-96172333D01*
X171955569Y-96150944D01*
X171944954Y-96129127D01*
X171943531Y-96128491D01*
X171942795Y-96127119D01*
X171920657Y-96113392D01*
X171713794Y-96030647D01*
X171920657Y-95947902D01*
X171921818Y-95946863D01*
X171923374Y-95946753D01*
X171940823Y-95929869D01*
X171958902Y-95913705D01*
X171959124Y-95912163D01*
X171960244Y-95911080D01*
X171962757Y-95886947D01*
X171966218Y-95862927D01*
X171965396Y-95861602D01*
X171965558Y-95860053D01*
X171951965Y-95839942D01*
X171939182Y-95819326D01*
X171937703Y-95818839D01*
X171936830Y-95817548D01*
X171913407Y-95806152D01*
X171380073Y-95653771D01*
X171328898Y-95657399D01*
X171292028Y-95693071D01*
X171286714Y-95744098D01*
X171315442Y-95786603D01*
X171338865Y-95797999D01*
X171661250Y-95890109D01*
X171483996Y-95961011D01*
X171466531Y-95976627D01*
X171448109Y-95991123D01*
X171447600Y-95993554D01*
X171445752Y-95995208D01*
X171442411Y-96018392D01*
X171437616Y-96041342D01*
X171438788Y-96043529D01*
X171438435Y-96045986D01*
X171450781Y-96065897D01*
X171461858Y-96086556D01*
X171464674Y-96088302D01*
X171465471Y-96089587D01*
X171468185Y-96090479D01*
X171483996Y-96100283D01*
X171661250Y-96171184D01*
X171338865Y-96263295D01*
X171297331Y-96293411D01*
X171284872Y-96343177D01*
X170903517Y-96343177D01*
X170903517Y-95408099D01*
X171018942Y-95408099D01*
X171027851Y-95458623D01*
X171067151Y-95491600D01*
X171092803Y-95496123D01*
X171892803Y-95496123D01*
X171941012Y-95478576D01*
X171966664Y-95434147D01*
X171957755Y-95383623D01*
X171918455Y-95350646D01*
X171892803Y-95346123D01*
X171466726Y-95346123D01*
X171459202Y-95338599D01*
X171434469Y-95289132D01*
X171434469Y-95210257D01*
X171453466Y-95172262D01*
X171491460Y-95153266D01*
X171892803Y-95153266D01*
X171941012Y-95135719D01*
X171966664Y-95091290D01*
X171957755Y-95040766D01*
X171918455Y-95007789D01*
X171892803Y-95003266D01*
X171473755Y-95003266D01*
X171469541Y-95004799D01*
X171465181Y-95003758D01*
X171440214Y-95011184D01*
X171364024Y-95049279D01*
X171356303Y-95057433D01*
X171346001Y-95061899D01*
X171330483Y-95082820D01*
X171292387Y-95159011D01*
X171291874Y-95163464D01*
X171288992Y-95166900D01*
X171284469Y-95192552D01*
X171284469Y-95306838D01*
X171286002Y-95311051D01*
X171284961Y-95315413D01*
X171292387Y-95340380D01*
X171295259Y-95346123D01*
X171092803Y-95346123D01*
X171044594Y-95363670D01*
X171018942Y-95408099D01*
X170903517Y-95408099D01*
X170903517Y-94621123D01*
X171284469Y-94621123D01*
X171286002Y-94625336D01*
X171284961Y-94629698D01*
X171292387Y-94654665D01*
X171330483Y-94730854D01*
X171338635Y-94738572D01*
X171343102Y-94748877D01*
X171364023Y-94764395D01*
X171440213Y-94802490D01*
X171444666Y-94803002D01*
X171448103Y-94805886D01*
X171473755Y-94810409D01*
X171778517Y-94810409D01*
X171782730Y-94808875D01*
X171787092Y-94809917D01*
X171812058Y-94802491D01*
X171888249Y-94764395D01*
X171895968Y-94756241D01*
X171906273Y-94751775D01*
X171921790Y-94730854D01*
X171959885Y-94654664D01*
X171960397Y-94650210D01*
X171963280Y-94646775D01*
X171967803Y-94621123D01*
X171967803Y-94468742D01*
X171966269Y-94464529D01*
X171967312Y-94460168D01*
X171959885Y-94435201D01*
X171921790Y-94359010D01*
X171884536Y-94323738D01*
X171833326Y-94320663D01*
X171792120Y-94351226D01*
X171780199Y-94401125D01*
X171787626Y-94426092D01*
X171817803Y-94486446D01*
X171817803Y-94603417D01*
X171798806Y-94641411D01*
X171760812Y-94660409D01*
X171687622Y-94660409D01*
X171623490Y-94339747D01*
X171617049Y-94329159D01*
X171614898Y-94316956D01*
X171604131Y-94307922D01*
X171596829Y-94295916D01*
X171585091Y-94291945D01*
X171575598Y-94283979D01*
X171549946Y-94279456D01*
X171473755Y-94279456D01*
X171469541Y-94280989D01*
X171465181Y-94279948D01*
X171440214Y-94287374D01*
X171364024Y-94325469D01*
X171356303Y-94333623D01*
X171346001Y-94338089D01*
X171330483Y-94359010D01*
X171292387Y-94435201D01*
X171291874Y-94439654D01*
X171288992Y-94443090D01*
X171284469Y-94468742D01*
X171284469Y-94621123D01*
X170903517Y-94621123D01*
X170903517Y-93935409D01*
X171284469Y-93935409D01*
X171286002Y-93939622D01*
X171284961Y-93943984D01*
X171292387Y-93968951D01*
X171330483Y-94045140D01*
X171338635Y-94052858D01*
X171343102Y-94063163D01*
X171364023Y-94078681D01*
X171440213Y-94116776D01*
X171444666Y-94117288D01*
X171448103Y-94120172D01*
X171473755Y-94124695D01*
X171778517Y-94124695D01*
X171782730Y-94123161D01*
X171787092Y-94124203D01*
X171812058Y-94116777D01*
X171888249Y-94078681D01*
X171895968Y-94070527D01*
X171906273Y-94066061D01*
X171921790Y-94045140D01*
X171959885Y-93968950D01*
X171960397Y-93964496D01*
X171963280Y-93961061D01*
X171967803Y-93935409D01*
X171967803Y-93783028D01*
X171966269Y-93778815D01*
X171967312Y-93774454D01*
X171959885Y-93749487D01*
X171921790Y-93673296D01*
X171884536Y-93638024D01*
X171833326Y-93634949D01*
X171792120Y-93665512D01*
X171780199Y-93715411D01*
X171787626Y-93740378D01*
X171817803Y-93800732D01*
X171817803Y-93917704D01*
X171798806Y-93955697D01*
X171760812Y-93974695D01*
X171687622Y-93974695D01*
X171623490Y-93654033D01*
X171617049Y-93643445D01*
X171614898Y-93631242D01*
X171604131Y-93622208D01*
X171596829Y-93610202D01*
X171585091Y-93606231D01*
X171575598Y-93598265D01*
X171549946Y-93593742D01*
X171473755Y-93593742D01*
X171469541Y-93595275D01*
X171465181Y-93594234D01*
X171440214Y-93601660D01*
X171364024Y-93639755D01*
X171356303Y-93647909D01*
X171346001Y-93652375D01*
X171330483Y-93673296D01*
X171292387Y-93749487D01*
X171291874Y-93753940D01*
X171288992Y-93757376D01*
X171284469Y-93783028D01*
X171284469Y-93935409D01*
X170903517Y-93935409D01*
X170903517Y-93312861D01*
X171018942Y-93312861D01*
X171027851Y-93363385D01*
X171067151Y-93396362D01*
X171092803Y-93400885D01*
X171778517Y-93400885D01*
X171782729Y-93399351D01*
X171787091Y-93400394D01*
X171812058Y-93392967D01*
X171888249Y-93354872D01*
X171895968Y-93346718D01*
X171906273Y-93342252D01*
X171921790Y-93321331D01*
X171959885Y-93245141D01*
X171965750Y-93194174D01*
X171937484Y-93151361D01*
X171888309Y-93136735D01*
X171841238Y-93157138D01*
X171825721Y-93178059D01*
X171798806Y-93231888D01*
X171760812Y-93250885D01*
X171092803Y-93250885D01*
X171044594Y-93268432D01*
X171018942Y-93312861D01*
X170903517Y-93312861D01*
X170903517Y-93022449D01*
X172082089Y-93022449D01*
X172082089Y-99991363D01*
G37*
G36*
X110857921Y-67244992D02*
G01*
X110905490Y-67340129D01*
X110905490Y-67394271D01*
X110388823Y-67497605D01*
X110388823Y-67340129D01*
X110436391Y-67244992D01*
X110531528Y-67197424D01*
X110762785Y-67197424D01*
X110857921Y-67244992D01*
G37*
G36*
X116238824Y-67942738D02*
G01*
X116162786Y-67980757D01*
X115864862Y-67980757D01*
X115769725Y-67933189D01*
X115722157Y-67838051D01*
X115722157Y-67740129D01*
X115769725Y-67644992D01*
X115864862Y-67597424D01*
X116180491Y-67597424D01*
X116184704Y-67595890D01*
X116189066Y-67596932D01*
X116214032Y-67589506D01*
X116238824Y-67577109D01*
X116238824Y-67942738D01*
G37*
G36*
X118772158Y-67235443D02*
G01*
X118772158Y-67942738D01*
X118696120Y-67980757D01*
X118464863Y-67980757D01*
X118358251Y-67927451D01*
X118308796Y-67877996D01*
X118255491Y-67771385D01*
X118255491Y-67406796D01*
X118308796Y-67300184D01*
X118358251Y-67250730D01*
X118464863Y-67197424D01*
X118696120Y-67197424D01*
X118772158Y-67235443D01*
G37*
G36*
X123136065Y-67250730D02*
G01*
X123185520Y-67300184D01*
X123238826Y-67406796D01*
X123238826Y-67771385D01*
X123185520Y-67877996D01*
X123136064Y-67927452D01*
X123029454Y-67980757D01*
X122864864Y-67980757D01*
X122758252Y-67927451D01*
X122708797Y-67877996D01*
X122655492Y-67771385D01*
X122655492Y-67406796D01*
X122708797Y-67300184D01*
X122758252Y-67250730D01*
X122864864Y-67197424D01*
X123029454Y-67197424D01*
X123136065Y-67250730D01*
G37*
G36*
X125787687Y-68330757D02*
G01*
X108972157Y-68330757D01*
X108972157Y-68055757D01*
X109172157Y-68055757D01*
X109178820Y-68074065D01*
X109182205Y-68093257D01*
X109187389Y-68097607D01*
X109189704Y-68103966D01*
X109206577Y-68113708D01*
X109221505Y-68126234D01*
X109231247Y-68127951D01*
X109234133Y-68129618D01*
X109237415Y-68129039D01*
X109247157Y-68130757D01*
X109913824Y-68130757D01*
X109962033Y-68113210D01*
X109987685Y-68068781D01*
X109978776Y-68018257D01*
X109939476Y-67985280D01*
X109913824Y-67980757D01*
X109322157Y-67980757D01*
X109322157Y-67855757D01*
X110238823Y-67855757D01*
X110240356Y-67859970D01*
X110239315Y-67864331D01*
X110246741Y-67889298D01*
X110313408Y-68022632D01*
X110321561Y-68030351D01*
X110326028Y-68040656D01*
X110346949Y-68056173D01*
X110480283Y-68122839D01*
X110484735Y-68123351D01*
X110488171Y-68126234D01*
X110513823Y-68130757D01*
X110780490Y-68130757D01*
X110784703Y-68129223D01*
X110789064Y-68130265D01*
X110814031Y-68122839D01*
X110947364Y-68056173D01*
X110982636Y-68018919D01*
X110985711Y-67967708D01*
X110955148Y-67926503D01*
X110905249Y-67914582D01*
X110880283Y-67922009D01*
X110762785Y-67980757D01*
X110531528Y-67980757D01*
X110436391Y-67933189D01*
X110388823Y-67838052D01*
X110388823Y-67650576D01*
X110995199Y-67529300D01*
X111005785Y-67522861D01*
X111017990Y-67520709D01*
X111027023Y-67509943D01*
X111039031Y-67502640D01*
X111043002Y-67490900D01*
X111050967Y-67481409D01*
X111055490Y-67455757D01*
X111055490Y-67322424D01*
X111053956Y-67318210D01*
X111054998Y-67313849D01*
X111047572Y-67288883D01*
X110980905Y-67155550D01*
X110972750Y-67147829D01*
X110968285Y-67137527D01*
X110947364Y-67122009D01*
X110922146Y-67109400D01*
X111306629Y-67109400D01*
X111315538Y-67159924D01*
X111354838Y-67192901D01*
X111380490Y-67197424D01*
X111505490Y-67197424D01*
X111505490Y-68055757D01*
X111523037Y-68103966D01*
X111567466Y-68129618D01*
X111617990Y-68120709D01*
X111650967Y-68081409D01*
X111655490Y-68055757D01*
X111655490Y-67197424D01*
X111913823Y-67197424D01*
X111962032Y-67179877D01*
X111987684Y-67135448D01*
X111983091Y-67109400D01*
X112106629Y-67109400D01*
X112115538Y-67159924D01*
X112154838Y-67192901D01*
X112180490Y-67197424D01*
X112305490Y-67197424D01*
X112305490Y-67855757D01*
X112307023Y-67859970D01*
X112305982Y-67864331D01*
X112313408Y-67889298D01*
X112380075Y-68022632D01*
X112388228Y-68030351D01*
X112392695Y-68040656D01*
X112413616Y-68056173D01*
X112546950Y-68122839D01*
X112551402Y-68123351D01*
X112554838Y-68126234D01*
X112580490Y-68130757D01*
X112713823Y-68130757D01*
X112762032Y-68113210D01*
X112787684Y-68068781D01*
X112785387Y-68055757D01*
X114172157Y-68055757D01*
X114189704Y-68103966D01*
X114234133Y-68129618D01*
X114284657Y-68120709D01*
X114317634Y-68081409D01*
X114322157Y-68055757D01*
X114322157Y-67397424D01*
X114972157Y-67397424D01*
X114972157Y-68055757D01*
X114989704Y-68103966D01*
X115034133Y-68129618D01*
X115084657Y-68120709D01*
X115117634Y-68081409D01*
X115122157Y-68055757D01*
X115122157Y-67855757D01*
X115572157Y-67855757D01*
X115573690Y-67859970D01*
X115572649Y-67864331D01*
X115580075Y-67889298D01*
X115646742Y-68022632D01*
X115654895Y-68030351D01*
X115659362Y-68040656D01*
X115680283Y-68056173D01*
X115813617Y-68122839D01*
X115818069Y-68123351D01*
X115821505Y-68126234D01*
X115847157Y-68130757D01*
X116180491Y-68130757D01*
X116184704Y-68129223D01*
X116189065Y-68130265D01*
X116214032Y-68122839D01*
X116255663Y-68102023D01*
X116256371Y-68103966D01*
X116300800Y-68129618D01*
X116351324Y-68120709D01*
X116384301Y-68081409D01*
X116388824Y-68055757D01*
X116905491Y-68055757D01*
X116923038Y-68103966D01*
X116967467Y-68129618D01*
X117017991Y-68120709D01*
X117050968Y-68081409D01*
X117055491Y-68055757D01*
X117055491Y-67286823D01*
X117091584Y-67250730D01*
X117198196Y-67197424D01*
X117362786Y-67197424D01*
X117457922Y-67244992D01*
X117505491Y-67340129D01*
X117505491Y-68055757D01*
X117523038Y-68103966D01*
X117567467Y-68129618D01*
X117617991Y-68120709D01*
X117650968Y-68081409D01*
X117655491Y-68055757D01*
X117655491Y-67789091D01*
X118105491Y-67789091D01*
X118107024Y-67793304D01*
X118105983Y-67797666D01*
X118113409Y-67822632D01*
X118180076Y-67955965D01*
X118181265Y-67957090D01*
X118194125Y-67975457D01*
X118260792Y-68042124D01*
X118262273Y-68042815D01*
X118280284Y-68056173D01*
X118413618Y-68122839D01*
X118418070Y-68123351D01*
X118421506Y-68126234D01*
X118447158Y-68130757D01*
X118713825Y-68130757D01*
X118718038Y-68129223D01*
X118722399Y-68130265D01*
X118747366Y-68122839D01*
X118788997Y-68102023D01*
X118789705Y-68103966D01*
X118834134Y-68129618D01*
X118884658Y-68120709D01*
X118917635Y-68081409D01*
X118922158Y-68055757D01*
X120505492Y-68055757D01*
X120523039Y-68103966D01*
X120567468Y-68129618D01*
X120617992Y-68120709D01*
X120650969Y-68081409D01*
X120655492Y-68055757D01*
X121705492Y-68055757D01*
X121723039Y-68103966D01*
X121767468Y-68129618D01*
X121817992Y-68120709D01*
X121850969Y-68081409D01*
X121855492Y-68055757D01*
X121855492Y-67789091D01*
X122505492Y-67789091D01*
X122507025Y-67793304D01*
X122505984Y-67797666D01*
X122513410Y-67822632D01*
X122580077Y-67955965D01*
X122581266Y-67957090D01*
X122594126Y-67975457D01*
X122660793Y-68042124D01*
X122662274Y-68042815D01*
X122680285Y-68056173D01*
X122813619Y-68122839D01*
X122818071Y-68123351D01*
X122821507Y-68126234D01*
X122847159Y-68130757D01*
X123047159Y-68130757D01*
X123051372Y-68129223D01*
X123055733Y-68130265D01*
X123080700Y-68122839D01*
X123214033Y-68056173D01*
X123214426Y-68055757D01*
X123838826Y-68055757D01*
X123856373Y-68103966D01*
X123900802Y-68129618D01*
X123951326Y-68120709D01*
X123984303Y-68081409D01*
X123988826Y-68055757D01*
X123988826Y-67286823D01*
X124024919Y-67250730D01*
X124131531Y-67197424D01*
X124296121Y-67197424D01*
X124391257Y-67244992D01*
X124438826Y-67340129D01*
X124438826Y-68055757D01*
X124456373Y-68103966D01*
X124500802Y-68129618D01*
X124551326Y-68120709D01*
X124584303Y-68081409D01*
X124588826Y-68055757D01*
X124588826Y-67322424D01*
X124587292Y-67318210D01*
X124588334Y-67313849D01*
X124580908Y-67288883D01*
X124514241Y-67155550D01*
X124506086Y-67147829D01*
X124501621Y-67137527D01*
X124480700Y-67122009D01*
X124455482Y-67109400D01*
X124906632Y-67109400D01*
X124915541Y-67159924D01*
X124954841Y-67192901D01*
X124980493Y-67197424D01*
X125105493Y-67197424D01*
X125105493Y-67855757D01*
X125107026Y-67859970D01*
X125105985Y-67864331D01*
X125113411Y-67889298D01*
X125180078Y-68022632D01*
X125188231Y-68030351D01*
X125192698Y-68040656D01*
X125213619Y-68056173D01*
X125346953Y-68122839D01*
X125351405Y-68123351D01*
X125354841Y-68126234D01*
X125380493Y-68130757D01*
X125513826Y-68130757D01*
X125562035Y-68113210D01*
X125587687Y-68068781D01*
X125578778Y-68018257D01*
X125539478Y-67985280D01*
X125513826Y-67980757D01*
X125398198Y-67980757D01*
X125303061Y-67933189D01*
X125255493Y-67838052D01*
X125255493Y-67197424D01*
X125513826Y-67197424D01*
X125562035Y-67179877D01*
X125587687Y-67135448D01*
X125578778Y-67084924D01*
X125539478Y-67051947D01*
X125513826Y-67047424D01*
X125255493Y-67047424D01*
X125255493Y-66655757D01*
X125237946Y-66607548D01*
X125193517Y-66581896D01*
X125142993Y-66590805D01*
X125110016Y-66630105D01*
X125105493Y-66655757D01*
X125105493Y-67047424D01*
X124980493Y-67047424D01*
X124932284Y-67064971D01*
X124906632Y-67109400D01*
X124455482Y-67109400D01*
X124347367Y-67055342D01*
X124342913Y-67054829D01*
X124339478Y-67051947D01*
X124313826Y-67047424D01*
X124113826Y-67047424D01*
X124109612Y-67048957D01*
X124105251Y-67047916D01*
X124080285Y-67055342D01*
X123982250Y-67104359D01*
X123971279Y-67074215D01*
X123926850Y-67048563D01*
X123876326Y-67057472D01*
X123843349Y-67096772D01*
X123838826Y-67122424D01*
X123838826Y-68055757D01*
X123214426Y-68055757D01*
X123215158Y-68054983D01*
X123233525Y-68042124D01*
X123300192Y-67975457D01*
X123300884Y-67973971D01*
X123314241Y-67955965D01*
X123380908Y-67822632D01*
X123381420Y-67818178D01*
X123384303Y-67814743D01*
X123388826Y-67789091D01*
X123388826Y-67389091D01*
X123387292Y-67384877D01*
X123388334Y-67380517D01*
X123380908Y-67355550D01*
X123314241Y-67222216D01*
X123313051Y-67221090D01*
X123300192Y-67202724D01*
X123233525Y-67136058D01*
X123232040Y-67135365D01*
X123214033Y-67122009D01*
X123080700Y-67055342D01*
X123076246Y-67054829D01*
X123072811Y-67051947D01*
X123047159Y-67047424D01*
X122847159Y-67047424D01*
X122842945Y-67048957D01*
X122838584Y-67047916D01*
X122813618Y-67055342D01*
X122680285Y-67122009D01*
X122679159Y-67123197D01*
X122660794Y-67136057D01*
X122594126Y-67202724D01*
X122593434Y-67204205D01*
X122580077Y-67222216D01*
X122513410Y-67355550D01*
X122512897Y-67360003D01*
X122510015Y-67363439D01*
X122505492Y-67389091D01*
X122505492Y-67789091D01*
X121855492Y-67789091D01*
X121855492Y-67406795D01*
X121908798Y-67300183D01*
X121958251Y-67250730D01*
X122064864Y-67197424D01*
X122180492Y-67197424D01*
X122228701Y-67179877D01*
X122254353Y-67135448D01*
X122245444Y-67084924D01*
X122206144Y-67051947D01*
X122180492Y-67047424D01*
X122047159Y-67047424D01*
X122042945Y-67048957D01*
X122038585Y-67047916D01*
X122013618Y-67055342D01*
X121880284Y-67122009D01*
X121879158Y-67123198D01*
X121860792Y-67136058D01*
X121855492Y-67141357D01*
X121855492Y-67122424D01*
X121837945Y-67074215D01*
X121793516Y-67048563D01*
X121742992Y-67057472D01*
X121710015Y-67096772D01*
X121705492Y-67122424D01*
X121705492Y-68055757D01*
X120655492Y-68055757D01*
X120655492Y-67397424D01*
X121047159Y-67397424D01*
X121095368Y-67379877D01*
X121121020Y-67335448D01*
X121112111Y-67284924D01*
X121072811Y-67251947D01*
X121047159Y-67247424D01*
X120655492Y-67247424D01*
X120655492Y-66730757D01*
X121247159Y-66730757D01*
X121295368Y-66713210D01*
X121321020Y-66668781D01*
X121312111Y-66618257D01*
X121272811Y-66585280D01*
X121247159Y-66580757D01*
X120580492Y-66580757D01*
X120562183Y-66587420D01*
X120542992Y-66590805D01*
X120538641Y-66595989D01*
X120532283Y-66598304D01*
X120522540Y-66615177D01*
X120510015Y-66630105D01*
X120508297Y-66639847D01*
X120506631Y-66642733D01*
X120507209Y-66646015D01*
X120505492Y-66655757D01*
X120505492Y-68055757D01*
X118922158Y-68055757D01*
X118922158Y-66655757D01*
X118904611Y-66607548D01*
X118860182Y-66581896D01*
X118809658Y-66590805D01*
X118776681Y-66630105D01*
X118772158Y-66655757D01*
X118772158Y-67067738D01*
X118747366Y-67055342D01*
X118742912Y-67054829D01*
X118739477Y-67051947D01*
X118713825Y-67047424D01*
X118447158Y-67047424D01*
X118442944Y-67048957D01*
X118438583Y-67047916D01*
X118413617Y-67055342D01*
X118280284Y-67122009D01*
X118279158Y-67123197D01*
X118260793Y-67136057D01*
X118194125Y-67202724D01*
X118193433Y-67204205D01*
X118180076Y-67222216D01*
X118113409Y-67355550D01*
X118112896Y-67360003D01*
X118110014Y-67363439D01*
X118105491Y-67389091D01*
X118105491Y-67789091D01*
X117655491Y-67789091D01*
X117655491Y-67322424D01*
X117653957Y-67318210D01*
X117654999Y-67313849D01*
X117647573Y-67288883D01*
X117580906Y-67155550D01*
X117572751Y-67147829D01*
X117568286Y-67137527D01*
X117547365Y-67122009D01*
X117414032Y-67055342D01*
X117409578Y-67054829D01*
X117406143Y-67051947D01*
X117380491Y-67047424D01*
X117180491Y-67047424D01*
X117176277Y-67048957D01*
X117171916Y-67047916D01*
X117146950Y-67055342D01*
X117048915Y-67104359D01*
X117037944Y-67074215D01*
X116993515Y-67048563D01*
X116942991Y-67057472D01*
X116910014Y-67096772D01*
X116905491Y-67122424D01*
X116905491Y-68055757D01*
X116388824Y-68055757D01*
X116388824Y-67322424D01*
X116387290Y-67318210D01*
X116388332Y-67313849D01*
X116380906Y-67288883D01*
X116314239Y-67155550D01*
X116306084Y-67147829D01*
X116301619Y-67137527D01*
X116280698Y-67122009D01*
X116147365Y-67055342D01*
X116142911Y-67054829D01*
X116139476Y-67051947D01*
X116113824Y-67047424D01*
X115847157Y-67047424D01*
X115842943Y-67048957D01*
X115838582Y-67047916D01*
X115813616Y-67055342D01*
X115680283Y-67122009D01*
X115645011Y-67159263D01*
X115641936Y-67210474D01*
X115672500Y-67251680D01*
X115722399Y-67263599D01*
X115747365Y-67256173D01*
X115864862Y-67197424D01*
X116096119Y-67197424D01*
X116191255Y-67244992D01*
X116238824Y-67340129D01*
X116238824Y-67409404D01*
X116162786Y-67447424D01*
X115847157Y-67447424D01*
X115842943Y-67448957D01*
X115838582Y-67447916D01*
X115813616Y-67455342D01*
X115680283Y-67522009D01*
X115672562Y-67530163D01*
X115662260Y-67534629D01*
X115646742Y-67555550D01*
X115580075Y-67688883D01*
X115579562Y-67693336D01*
X115576680Y-67696772D01*
X115572157Y-67722424D01*
X115572157Y-67855757D01*
X115122157Y-67855757D01*
X115122157Y-66655757D01*
X115104610Y-66607548D01*
X115060181Y-66581896D01*
X115009657Y-66590805D01*
X114976680Y-66630105D01*
X114972157Y-66655757D01*
X114972157Y-67247424D01*
X114322157Y-67247424D01*
X114322157Y-66655757D01*
X114304610Y-66607548D01*
X114260181Y-66581896D01*
X114209657Y-66590805D01*
X114176680Y-66630105D01*
X114172157Y-66655757D01*
X114172157Y-68055757D01*
X112785387Y-68055757D01*
X112778775Y-68018257D01*
X112739475Y-67985280D01*
X112713823Y-67980757D01*
X112598195Y-67980757D01*
X112503058Y-67933189D01*
X112455490Y-67838052D01*
X112455490Y-67197424D01*
X112713823Y-67197424D01*
X112762032Y-67179877D01*
X112787684Y-67135448D01*
X112778775Y-67084924D01*
X112739475Y-67051947D01*
X112713823Y-67047424D01*
X112455490Y-67047424D01*
X112455490Y-66655757D01*
X112437943Y-66607548D01*
X112393514Y-66581896D01*
X112342990Y-66590805D01*
X112310013Y-66630105D01*
X112305490Y-66655757D01*
X112305490Y-67047424D01*
X112180490Y-67047424D01*
X112132281Y-67064971D01*
X112106629Y-67109400D01*
X111983091Y-67109400D01*
X111978775Y-67084924D01*
X111939475Y-67051947D01*
X111913823Y-67047424D01*
X111655490Y-67047424D01*
X111655490Y-66873462D01*
X111703058Y-66778325D01*
X111798195Y-66730757D01*
X111913823Y-66730757D01*
X111962032Y-66713210D01*
X111987684Y-66668781D01*
X111978775Y-66618257D01*
X111939475Y-66585280D01*
X111913823Y-66580757D01*
X111780490Y-66580757D01*
X111776276Y-66582290D01*
X111771915Y-66581249D01*
X111746949Y-66588675D01*
X111613616Y-66655342D01*
X111605895Y-66663496D01*
X111595593Y-66667962D01*
X111580075Y-66688883D01*
X111513408Y-66822216D01*
X111512895Y-66826669D01*
X111510013Y-66830105D01*
X111505490Y-66855757D01*
X111505490Y-67047424D01*
X111380490Y-67047424D01*
X111332281Y-67064971D01*
X111306629Y-67109400D01*
X110922146Y-67109400D01*
X110814031Y-67055342D01*
X110809577Y-67054829D01*
X110806142Y-67051947D01*
X110780490Y-67047424D01*
X110513823Y-67047424D01*
X110509609Y-67048957D01*
X110505248Y-67047916D01*
X110480282Y-67055342D01*
X110346949Y-67122009D01*
X110339228Y-67130163D01*
X110328926Y-67134629D01*
X110313408Y-67155550D01*
X110246741Y-67288883D01*
X110246228Y-67293336D01*
X110243346Y-67296772D01*
X110238823Y-67322424D01*
X110238823Y-67855757D01*
X109322157Y-67855757D01*
X109322157Y-66655757D01*
X109304610Y-66607548D01*
X109260181Y-66581896D01*
X109209657Y-66590805D01*
X109176680Y-66630105D01*
X109172157Y-66655757D01*
X109172157Y-68055757D01*
X108972157Y-68055757D01*
X108972157Y-66380757D01*
X125787687Y-66380757D01*
X125787687Y-68330757D01*
G37*
X166175739Y-37883417D02*
X166785263Y-37883417D01*
X166480501Y-38188179D02*
X166480501Y-37578655D01*
X178775739Y-37883417D02*
X179385263Y-37883417D01*
G36*
X172343639Y-77748846D02*
G01*
X172361272Y-77784112D01*
X172131683Y-77830030D01*
X172131683Y-77786840D01*
X172150679Y-77748847D01*
X172188675Y-77729849D01*
X172305645Y-77729849D01*
X172343639Y-77748846D01*
G37*
G36*
X174476971Y-77748846D02*
G01*
X174494604Y-77784112D01*
X174265015Y-77830030D01*
X174265015Y-77786841D01*
X174284011Y-77748847D01*
X174322007Y-77729849D01*
X174438977Y-77729849D01*
X174476971Y-77748846D01*
G37*
G36*
X175633558Y-78377469D02*
G01*
X170000732Y-78377469D01*
X170000732Y-78188183D01*
X170115018Y-78188183D01*
X170132565Y-78236392D01*
X170176994Y-78262044D01*
X170227518Y-78253135D01*
X170260495Y-78213835D01*
X170265018Y-78188183D01*
X170265018Y-77670599D01*
X170582043Y-78225393D01*
X170587335Y-78229874D01*
X170589708Y-78236392D01*
X170606447Y-78246056D01*
X170621196Y-78258545D01*
X170628130Y-78258575D01*
X170634137Y-78262044D01*
X170653170Y-78258687D01*
X170672498Y-78258774D01*
X170677831Y-78254339D01*
X170684661Y-78253135D01*
X170697085Y-78238328D01*
X170711945Y-78225972D01*
X170713179Y-78219148D01*
X170717638Y-78213835D01*
X170722161Y-78188183D01*
X170953113Y-78188183D01*
X170970660Y-78236392D01*
X171015089Y-78262044D01*
X171065613Y-78253135D01*
X171098590Y-78213835D01*
X171103113Y-78188183D01*
X171103113Y-78035802D01*
X171295969Y-78035802D01*
X171297502Y-78040015D01*
X171296461Y-78044377D01*
X171303887Y-78069344D01*
X171341983Y-78145533D01*
X171343171Y-78146658D01*
X171356031Y-78165024D01*
X171394126Y-78203120D01*
X171395607Y-78203810D01*
X171413619Y-78217170D01*
X171489809Y-78255265D01*
X171494262Y-78255777D01*
X171497698Y-78258660D01*
X171523350Y-78263183D01*
X171675731Y-78263183D01*
X171679943Y-78261649D01*
X171684305Y-78262692D01*
X171709272Y-78255265D01*
X171785463Y-78217170D01*
X171820735Y-78179916D01*
X171823810Y-78128706D01*
X171793247Y-78087500D01*
X171743348Y-78075579D01*
X171718381Y-78083006D01*
X171658026Y-78113183D01*
X171541055Y-78113183D01*
X171491587Y-78088449D01*
X171477036Y-78073897D01*
X171981683Y-78073897D01*
X171983216Y-78078110D01*
X171982175Y-78082472D01*
X171989601Y-78107438D01*
X172027697Y-78183629D01*
X172035850Y-78191348D01*
X172040317Y-78201653D01*
X172061238Y-78217170D01*
X172137428Y-78255265D01*
X172141881Y-78255777D01*
X172145317Y-78258660D01*
X172170969Y-78263183D01*
X172323350Y-78263183D01*
X172327562Y-78261649D01*
X172331924Y-78262692D01*
X172356891Y-78255265D01*
X172433082Y-78217170D01*
X172468354Y-78179916D01*
X172470538Y-78143552D01*
X172667683Y-78143552D01*
X172672725Y-78162371D01*
X172674424Y-78181785D01*
X172680097Y-78189887D01*
X172680960Y-78193106D01*
X172683689Y-78195017D01*
X172689365Y-78203122D01*
X172727461Y-78241217D01*
X172745118Y-78249450D01*
X172761082Y-78260628D01*
X172764498Y-78260329D01*
X172767469Y-78262044D01*
X172770849Y-78261447D01*
X172773957Y-78262897D01*
X172792775Y-78257854D01*
X172812189Y-78256156D01*
X172816002Y-78253486D01*
X172817993Y-78253135D01*
X172820114Y-78250606D01*
X172820293Y-78250481D01*
X172823512Y-78249619D01*
X172825423Y-78246889D01*
X172833526Y-78241216D01*
X172871621Y-78203121D01*
X172879856Y-78185460D01*
X172891032Y-78169500D01*
X172890442Y-78162757D01*
X172893302Y-78156625D01*
X172888259Y-78137806D01*
X172886562Y-78118393D01*
X172880887Y-78110288D01*
X172880025Y-78107070D01*
X172877295Y-78105158D01*
X172871622Y-78097056D01*
X172833527Y-78058960D01*
X172815871Y-78050726D01*
X172799905Y-78039547D01*
X172796487Y-78039845D01*
X172793517Y-78038131D01*
X172790137Y-78038726D01*
X172787030Y-78037278D01*
X172768211Y-78042319D01*
X172748797Y-78044018D01*
X172744982Y-78046689D01*
X172742993Y-78047040D01*
X172740872Y-78049566D01*
X172740694Y-78049691D01*
X172737476Y-78050554D01*
X172735564Y-78053283D01*
X172727460Y-78058959D01*
X172689364Y-78097055D01*
X172681130Y-78114711D01*
X172669952Y-78130677D01*
X172670542Y-78137420D01*
X172667683Y-78143552D01*
X172470538Y-78143552D01*
X172471429Y-78128706D01*
X172440866Y-78087500D01*
X172390967Y-78075579D01*
X172366000Y-78083006D01*
X172305645Y-78113183D01*
X172188674Y-78113183D01*
X172150680Y-78094186D01*
X172131683Y-78056191D01*
X172131683Y-77983001D01*
X172452344Y-77918870D01*
X172462931Y-77912430D01*
X172475136Y-77910278D01*
X172484170Y-77899511D01*
X172496176Y-77892209D01*
X172500146Y-77880471D01*
X172508113Y-77870978D01*
X172512636Y-77845326D01*
X172512636Y-77769135D01*
X172511102Y-77764921D01*
X172512144Y-77760561D01*
X172504718Y-77735594D01*
X172466623Y-77659404D01*
X172458468Y-77651683D01*
X172454003Y-77641381D01*
X172433082Y-77625863D01*
X172356891Y-77587767D01*
X172352437Y-77587254D01*
X172349002Y-77584372D01*
X172323350Y-77579849D01*
X172170969Y-77579849D01*
X172166754Y-77581382D01*
X172162393Y-77580341D01*
X172137427Y-77587768D01*
X172061237Y-77625863D01*
X172053516Y-77634017D01*
X172043215Y-77638483D01*
X172027697Y-77659404D01*
X171989601Y-77735593D01*
X171989088Y-77740047D01*
X171986206Y-77743483D01*
X171981683Y-77769135D01*
X171981683Y-78073897D01*
X171477036Y-78073897D01*
X171470703Y-78067564D01*
X171445969Y-78018095D01*
X171445969Y-77824936D01*
X171470703Y-77775468D01*
X171491586Y-77754584D01*
X171541056Y-77729849D01*
X171658026Y-77729849D01*
X171718380Y-77760027D01*
X171769347Y-77765892D01*
X171812160Y-77737626D01*
X171826787Y-77688452D01*
X171806384Y-77641381D01*
X171785463Y-77625863D01*
X171709272Y-77587767D01*
X171704818Y-77587254D01*
X171701383Y-77584372D01*
X171675731Y-77579849D01*
X171523350Y-77579849D01*
X171519135Y-77581382D01*
X171514774Y-77580341D01*
X171489808Y-77587768D01*
X171413618Y-77625863D01*
X171412490Y-77627054D01*
X171394127Y-77639912D01*
X171356032Y-77678007D01*
X171355339Y-77679491D01*
X171341983Y-77697499D01*
X171303887Y-77773688D01*
X171303374Y-77778142D01*
X171300492Y-77781578D01*
X171295969Y-77807230D01*
X171295969Y-78035802D01*
X171103113Y-78035802D01*
X171103113Y-77654849D01*
X171085566Y-77606640D01*
X171041137Y-77580988D01*
X170990613Y-77589897D01*
X170957636Y-77629197D01*
X170953113Y-77654849D01*
X170953113Y-78188183D01*
X170722161Y-78188183D01*
X170722161Y-77419741D01*
X170915303Y-77419741D01*
X170920345Y-77438562D01*
X170922044Y-77457975D01*
X170927716Y-77466075D01*
X170928579Y-77469295D01*
X170931309Y-77471206D01*
X170936985Y-77479312D01*
X170975081Y-77517407D01*
X170992738Y-77525640D01*
X171008702Y-77536818D01*
X171012118Y-77536519D01*
X171015089Y-77538234D01*
X171018469Y-77537637D01*
X171021577Y-77539087D01*
X171040395Y-77534044D01*
X171059809Y-77532346D01*
X171063622Y-77529676D01*
X171065613Y-77529325D01*
X171067734Y-77526796D01*
X171067913Y-77526671D01*
X171071132Y-77525809D01*
X171073043Y-77523079D01*
X171081146Y-77517406D01*
X171119241Y-77479311D01*
X171127476Y-77461650D01*
X171138652Y-77445689D01*
X171138062Y-77438947D01*
X171140922Y-77432815D01*
X171140839Y-77432507D01*
X172667656Y-77432507D01*
X172705752Y-77889650D01*
X172714037Y-77907610D01*
X172719235Y-77926692D01*
X172721921Y-77928556D01*
X172723040Y-77931630D01*
X172725871Y-77933265D01*
X172727242Y-77936235D01*
X172745134Y-77944668D01*
X172761380Y-77955945D01*
X172764636Y-77955646D01*
X172767469Y-77957282D01*
X172770688Y-77956714D01*
X172773648Y-77958109D01*
X172792777Y-77953067D01*
X172812470Y-77951263D01*
X172814773Y-77948940D01*
X172817993Y-77948373D01*
X172820094Y-77945868D01*
X172823258Y-77945035D01*
X172834671Y-77928877D01*
X172848596Y-77914837D01*
X172849723Y-77910558D01*
X172850970Y-77909073D01*
X172851738Y-77904715D01*
X172852857Y-77903132D01*
X172853484Y-77896289D01*
X172855234Y-77889649D01*
X172893329Y-77432506D01*
X172888246Y-77413845D01*
X172886561Y-77394582D01*
X172880731Y-77386256D01*
X172880698Y-77386134D01*
X172972187Y-77386134D01*
X172976008Y-77411900D01*
X173242675Y-78211900D01*
X173244017Y-78213591D01*
X173244076Y-78215750D01*
X173259825Y-78233511D01*
X173274566Y-78252086D01*
X173276679Y-78252518D01*
X173278113Y-78254135D01*
X173301583Y-78257615D01*
X173324827Y-78262372D01*
X173326726Y-78261343D01*
X173328862Y-78261660D01*
X173349079Y-78249239D01*
X173369941Y-78237943D01*
X173370734Y-78235935D01*
X173372575Y-78234805D01*
X173384977Y-78211900D01*
X173392883Y-78188183D01*
X173772159Y-78188183D01*
X173789706Y-78236392D01*
X173834135Y-78262044D01*
X173884659Y-78253135D01*
X173917636Y-78213835D01*
X173922159Y-78188183D01*
X173922159Y-78073897D01*
X174115015Y-78073897D01*
X174116548Y-78078110D01*
X174115507Y-78082472D01*
X174122933Y-78107438D01*
X174161029Y-78183629D01*
X174169182Y-78191348D01*
X174173649Y-78201653D01*
X174194570Y-78217170D01*
X174270760Y-78255265D01*
X174275213Y-78255777D01*
X174278649Y-78258660D01*
X174304301Y-78263183D01*
X174456682Y-78263183D01*
X174460894Y-78261649D01*
X174465256Y-78262692D01*
X174490223Y-78255265D01*
X174566414Y-78217170D01*
X174601686Y-78179916D01*
X174604761Y-78128706D01*
X174574198Y-78087500D01*
X174524299Y-78075579D01*
X174499332Y-78083006D01*
X174438977Y-78113183D01*
X174322006Y-78113183D01*
X174284012Y-78094186D01*
X174265015Y-78056191D01*
X174265015Y-77983001D01*
X174585676Y-77918870D01*
X174596263Y-77912430D01*
X174608468Y-77910278D01*
X174617502Y-77899511D01*
X174629508Y-77892209D01*
X174633478Y-77880471D01*
X174641445Y-77870978D01*
X174645968Y-77845326D01*
X174645968Y-77769135D01*
X174644434Y-77764921D01*
X174645476Y-77760561D01*
X174638050Y-77735594D01*
X174599955Y-77659404D01*
X174591800Y-77651683D01*
X174590873Y-77649545D01*
X174762822Y-77649545D01*
X174765520Y-77675453D01*
X174917901Y-78208787D01*
X174918815Y-78210048D01*
X174918767Y-78211606D01*
X174933777Y-78230682D01*
X174948017Y-78250321D01*
X174949527Y-78250699D01*
X174950491Y-78251924D01*
X174974246Y-78256887D01*
X174997783Y-78262780D01*
X174999184Y-78262098D01*
X175000710Y-78262417D01*
X175022098Y-78250949D01*
X175043916Y-78240334D01*
X175044551Y-78238911D01*
X175045924Y-78238175D01*
X175059651Y-78216037D01*
X175142396Y-78009174D01*
X175225141Y-78216037D01*
X175226180Y-78217199D01*
X175226291Y-78218754D01*
X175243166Y-78236196D01*
X175259338Y-78254282D01*
X175260879Y-78254504D01*
X175261963Y-78255624D01*
X175286095Y-78258137D01*
X175310116Y-78261598D01*
X175311440Y-78260776D01*
X175312990Y-78260938D01*
X175333100Y-78247345D01*
X175353717Y-78234562D01*
X175354203Y-78233083D01*
X175355495Y-78232210D01*
X175366891Y-78208787D01*
X175519272Y-77675453D01*
X175515645Y-77624278D01*
X175479972Y-77587408D01*
X175428945Y-77582094D01*
X175386440Y-77610822D01*
X175375044Y-77634245D01*
X175282933Y-77956630D01*
X175212032Y-77779376D01*
X175196418Y-77761915D01*
X175181920Y-77743489D01*
X175179488Y-77742980D01*
X175177835Y-77741132D01*
X175154650Y-77737791D01*
X175131701Y-77732996D01*
X175129513Y-77734168D01*
X175127057Y-77733815D01*
X175107145Y-77746161D01*
X175086487Y-77757238D01*
X175084740Y-77760054D01*
X175083456Y-77760851D01*
X175082563Y-77763565D01*
X175072760Y-77779376D01*
X175001858Y-77956630D01*
X174909748Y-77634245D01*
X174879632Y-77592711D01*
X174829866Y-77580252D01*
X174783733Y-77602698D01*
X174762822Y-77649545D01*
X174590873Y-77649545D01*
X174587335Y-77641381D01*
X174566414Y-77625863D01*
X174490223Y-77587767D01*
X174485769Y-77587254D01*
X174482334Y-77584372D01*
X174456682Y-77579849D01*
X174304301Y-77579849D01*
X174300086Y-77581382D01*
X174295725Y-77580341D01*
X174270759Y-77587768D01*
X174194569Y-77625863D01*
X174186848Y-77634017D01*
X174176547Y-77638483D01*
X174161029Y-77659404D01*
X174122933Y-77735593D01*
X174122420Y-77740047D01*
X174119538Y-77743483D01*
X174115015Y-77769135D01*
X174115015Y-78073897D01*
X173922159Y-78073897D01*
X173922159Y-77654849D01*
X173904612Y-77606640D01*
X173860183Y-77580988D01*
X173809659Y-77589897D01*
X173776682Y-77629197D01*
X173772159Y-77654849D01*
X173772159Y-78188183D01*
X173392883Y-78188183D01*
X173649029Y-77419741D01*
X173734349Y-77419741D01*
X173739391Y-77438562D01*
X173741090Y-77457975D01*
X173746762Y-77466075D01*
X173747625Y-77469295D01*
X173750355Y-77471206D01*
X173756031Y-77479312D01*
X173794127Y-77517407D01*
X173811784Y-77525640D01*
X173827748Y-77536818D01*
X173831164Y-77536519D01*
X173834135Y-77538234D01*
X173837515Y-77537637D01*
X173840623Y-77539087D01*
X173859441Y-77534044D01*
X173878855Y-77532346D01*
X173882668Y-77529676D01*
X173884659Y-77529325D01*
X173886780Y-77526796D01*
X173886959Y-77526671D01*
X173890178Y-77525809D01*
X173892089Y-77523079D01*
X173900192Y-77517406D01*
X173938287Y-77479311D01*
X173946522Y-77461650D01*
X173957698Y-77445689D01*
X173957108Y-77438947D01*
X173959968Y-77432815D01*
X173954925Y-77413993D01*
X173953227Y-77394582D01*
X173947553Y-77386479D01*
X173946691Y-77383260D01*
X173943961Y-77381348D01*
X173938287Y-77373245D01*
X173900192Y-77335150D01*
X173882532Y-77326915D01*
X173866571Y-77315739D01*
X173863154Y-77316037D01*
X173860183Y-77314322D01*
X173856802Y-77314918D01*
X173853695Y-77313469D01*
X173834876Y-77318511D01*
X173815464Y-77320209D01*
X173811649Y-77322880D01*
X173809659Y-77323231D01*
X173807537Y-77325758D01*
X173807359Y-77325883D01*
X173804141Y-77326746D01*
X173802229Y-77329475D01*
X173794127Y-77335149D01*
X173756031Y-77373244D01*
X173747797Y-77390901D01*
X173736618Y-77406867D01*
X173737208Y-77413609D01*
X173734349Y-77419741D01*
X173649029Y-77419741D01*
X173651643Y-77411900D01*
X173650242Y-77360616D01*
X173616205Y-77322231D01*
X173565456Y-77314705D01*
X173521744Y-77341560D01*
X173509341Y-77364466D01*
X173313825Y-77951012D01*
X173118310Y-77364466D01*
X173086419Y-77324280D01*
X173036158Y-77313994D01*
X172991044Y-77338423D01*
X172972187Y-77386134D01*
X172880698Y-77386134D01*
X172879846Y-77383006D01*
X172877140Y-77381128D01*
X172871621Y-77373245D01*
X172833526Y-77335150D01*
X172815866Y-77326915D01*
X172799905Y-77315739D01*
X172796488Y-77316037D01*
X172793517Y-77314322D01*
X172790136Y-77314918D01*
X172787029Y-77313469D01*
X172768210Y-77318511D01*
X172748798Y-77320209D01*
X172744983Y-77322880D01*
X172742993Y-77323231D01*
X172740871Y-77325758D01*
X172740693Y-77325883D01*
X172737475Y-77326746D01*
X172735563Y-77329475D01*
X172727461Y-77335149D01*
X172689365Y-77373244D01*
X172681192Y-77390769D01*
X172670033Y-77406568D01*
X172669105Y-77416690D01*
X172667683Y-77419741D01*
X172668534Y-77422919D01*
X172667656Y-77432507D01*
X171140839Y-77432507D01*
X171135879Y-77413993D01*
X171134181Y-77394582D01*
X171128507Y-77386479D01*
X171127645Y-77383260D01*
X171124915Y-77381348D01*
X171119241Y-77373245D01*
X171081146Y-77335150D01*
X171063486Y-77326915D01*
X171047525Y-77315739D01*
X171044108Y-77316037D01*
X171041137Y-77314322D01*
X171037756Y-77314918D01*
X171034649Y-77313469D01*
X171015830Y-77318511D01*
X170996418Y-77320209D01*
X170992603Y-77322880D01*
X170990613Y-77323231D01*
X170988491Y-77325758D01*
X170988313Y-77325883D01*
X170985095Y-77326746D01*
X170983183Y-77329475D01*
X170975081Y-77335149D01*
X170936985Y-77373244D01*
X170928751Y-77390901D01*
X170917572Y-77406867D01*
X170918162Y-77413609D01*
X170915303Y-77419741D01*
X170722161Y-77419741D01*
X170722161Y-77388183D01*
X170704614Y-77339974D01*
X170660185Y-77314322D01*
X170609661Y-77323231D01*
X170576684Y-77362531D01*
X170572161Y-77388183D01*
X170572161Y-77905766D01*
X170255136Y-77350973D01*
X170249843Y-77346491D01*
X170247471Y-77339974D01*
X170230731Y-77330309D01*
X170215983Y-77317821D01*
X170209048Y-77317790D01*
X170203042Y-77314322D01*
X170184008Y-77317678D01*
X170164681Y-77317592D01*
X170159347Y-77322026D01*
X170152518Y-77323231D01*
X170140093Y-77338037D01*
X170125234Y-77350394D01*
X170123999Y-77357217D01*
X170119541Y-77362531D01*
X170115018Y-77388183D01*
X170115018Y-78188183D01*
X170000732Y-78188183D01*
X170000732Y-77199183D01*
X175633558Y-77199183D01*
X175633558Y-78377469D01*
G37*
X166769659Y-56458186D02*
X166769659Y-55924852D01*
X166769659Y-56077233D02*
X166807754Y-56001043D01*
X166807754Y-56001043D02*
X166845849Y-55962948D01*
X166845849Y-55962948D02*
X166922040Y-55924852D01*
X166922040Y-55924852D02*
X166998230Y-55924852D01*
X167379182Y-56458186D02*
X167302992Y-56420091D01*
X167302992Y-56420091D02*
X167264897Y-56381995D01*
X167264897Y-56381995D02*
X167226801Y-56305805D01*
X167226801Y-56305805D02*
X167226801Y-56077233D01*
X167226801Y-56077233D02*
X167264897Y-56001043D01*
X167264897Y-56001043D02*
X167302992Y-55962948D01*
X167302992Y-55962948D02*
X167379182Y-55924852D01*
X167379182Y-55924852D02*
X167493468Y-55924852D01*
X167493468Y-55924852D02*
X167569659Y-55962948D01*
X167569659Y-55962948D02*
X167607754Y-56001043D01*
X167607754Y-56001043D02*
X167645849Y-56077233D01*
X167645849Y-56077233D02*
X167645849Y-56305805D01*
X167645849Y-56305805D02*
X167607754Y-56381995D01*
X167607754Y-56381995D02*
X167569659Y-56420091D01*
X167569659Y-56420091D02*
X167493468Y-56458186D01*
X167493468Y-56458186D02*
X167379182Y-56458186D01*
X167912516Y-55924852D02*
X168064897Y-56458186D01*
X168064897Y-56458186D02*
X168217278Y-56077233D01*
X168217278Y-56077233D02*
X168369659Y-56458186D01*
X168369659Y-56458186D02*
X168522040Y-55924852D01*
X168979183Y-55658186D02*
X169055373Y-55658186D01*
X169055373Y-55658186D02*
X169131564Y-55696281D01*
X169131564Y-55696281D02*
X169169659Y-55734376D01*
X169169659Y-55734376D02*
X169207754Y-55810567D01*
X169207754Y-55810567D02*
X169245849Y-55962948D01*
X169245849Y-55962948D02*
X169245849Y-56153424D01*
X169245849Y-56153424D02*
X169207754Y-56305805D01*
X169207754Y-56305805D02*
X169169659Y-56381995D01*
X169169659Y-56381995D02*
X169131564Y-56420091D01*
X169131564Y-56420091D02*
X169055373Y-56458186D01*
X169055373Y-56458186D02*
X168979183Y-56458186D01*
X168979183Y-56458186D02*
X168902992Y-56420091D01*
X168902992Y-56420091D02*
X168864897Y-56381995D01*
X168864897Y-56381995D02*
X168826802Y-56305805D01*
X168826802Y-56305805D02*
X168788706Y-56153424D01*
X168788706Y-56153424D02*
X168788706Y-55962948D01*
X168788706Y-55962948D02*
X168826802Y-55810567D01*
X168826802Y-55810567D02*
X168864897Y-55734376D01*
X168864897Y-55734376D02*
X168902992Y-55696281D01*
X168902992Y-55696281D02*
X168979183Y-55658186D01*
X178067529Y-56381995D02*
X178029433Y-56420091D01*
X178029433Y-56420091D02*
X177915148Y-56458186D01*
X177915148Y-56458186D02*
X177838957Y-56458186D01*
X177838957Y-56458186D02*
X177724671Y-56420091D01*
X177724671Y-56420091D02*
X177648481Y-56343900D01*
X177648481Y-56343900D02*
X177610386Y-56267710D01*
X177610386Y-56267710D02*
X177572290Y-56115329D01*
X177572290Y-56115329D02*
X177572290Y-56001043D01*
X177572290Y-56001043D02*
X177610386Y-55848662D01*
X177610386Y-55848662D02*
X177648481Y-55772471D01*
X177648481Y-55772471D02*
X177724671Y-55696281D01*
X177724671Y-55696281D02*
X177838957Y-55658186D01*
X177838957Y-55658186D02*
X177915148Y-55658186D01*
X177915148Y-55658186D02*
X178029433Y-55696281D01*
X178029433Y-55696281D02*
X178067529Y-55734376D01*
X178372290Y-56420091D02*
X178486576Y-56458186D01*
X178486576Y-56458186D02*
X178677052Y-56458186D01*
X178677052Y-56458186D02*
X178753243Y-56420091D01*
X178753243Y-56420091D02*
X178791338Y-56381995D01*
X178791338Y-56381995D02*
X178829433Y-56305805D01*
X178829433Y-56305805D02*
X178829433Y-56229614D01*
X178829433Y-56229614D02*
X178791338Y-56153424D01*
X178791338Y-56153424D02*
X178753243Y-56115329D01*
X178753243Y-56115329D02*
X178677052Y-56077233D01*
X178677052Y-56077233D02*
X178524671Y-56039138D01*
X178524671Y-56039138D02*
X178448481Y-56001043D01*
X178448481Y-56001043D02*
X178410386Y-55962948D01*
X178410386Y-55962948D02*
X178372290Y-55886757D01*
X178372290Y-55886757D02*
X178372290Y-55810567D01*
X178372290Y-55810567D02*
X178410386Y-55734376D01*
X178410386Y-55734376D02*
X178448481Y-55696281D01*
X178448481Y-55696281D02*
X178524671Y-55658186D01*
X178524671Y-55658186D02*
X178715148Y-55658186D01*
X178715148Y-55658186D02*
X178829433Y-55696281D01*
X173692794Y-62873510D02*
X172892794Y-62873510D01*
X172892794Y-62873510D02*
X172892794Y-62568748D01*
X172892794Y-62568748D02*
X172930889Y-62492558D01*
X172930889Y-62492558D02*
X172968984Y-62454463D01*
X172968984Y-62454463D02*
X173045175Y-62416367D01*
X173045175Y-62416367D02*
X173159460Y-62416367D01*
X173159460Y-62416367D02*
X173235651Y-62454463D01*
X173235651Y-62454463D02*
X173273746Y-62492558D01*
X173273746Y-62492558D02*
X173311841Y-62568748D01*
X173311841Y-62568748D02*
X173311841Y-62873510D01*
X173692794Y-61959225D02*
X173654699Y-62035415D01*
X173654699Y-62035415D02*
X173578508Y-62073510D01*
X173578508Y-62073510D02*
X172892794Y-62073510D01*
X173692794Y-61311605D02*
X173273746Y-61311605D01*
X173273746Y-61311605D02*
X173197556Y-61349700D01*
X173197556Y-61349700D02*
X173159460Y-61425891D01*
X173159460Y-61425891D02*
X173159460Y-61578272D01*
X173159460Y-61578272D02*
X173197556Y-61654462D01*
X173654699Y-61311605D02*
X173692794Y-61387796D01*
X173692794Y-61387796D02*
X173692794Y-61578272D01*
X173692794Y-61578272D02*
X173654699Y-61654462D01*
X173654699Y-61654462D02*
X173578508Y-61692558D01*
X173578508Y-61692558D02*
X173502318Y-61692558D01*
X173502318Y-61692558D02*
X173426127Y-61654462D01*
X173426127Y-61654462D02*
X173388032Y-61578272D01*
X173388032Y-61578272D02*
X173388032Y-61387796D01*
X173388032Y-61387796D02*
X173349937Y-61311605D01*
X173654699Y-60587795D02*
X173692794Y-60663986D01*
X173692794Y-60663986D02*
X173692794Y-60816367D01*
X173692794Y-60816367D02*
X173654699Y-60892557D01*
X173654699Y-60892557D02*
X173616603Y-60930652D01*
X173616603Y-60930652D02*
X173540413Y-60968748D01*
X173540413Y-60968748D02*
X173311841Y-60968748D01*
X173311841Y-60968748D02*
X173235651Y-60930652D01*
X173235651Y-60930652D02*
X173197556Y-60892557D01*
X173197556Y-60892557D02*
X173159460Y-60816367D01*
X173159460Y-60816367D02*
X173159460Y-60663986D01*
X173159460Y-60663986D02*
X173197556Y-60587795D01*
X173654699Y-59940176D02*
X173692794Y-60016367D01*
X173692794Y-60016367D02*
X173692794Y-60168748D01*
X173692794Y-60168748D02*
X173654699Y-60244938D01*
X173654699Y-60244938D02*
X173578508Y-60283034D01*
X173578508Y-60283034D02*
X173273746Y-60283034D01*
X173273746Y-60283034D02*
X173197556Y-60244938D01*
X173197556Y-60244938D02*
X173159460Y-60168748D01*
X173159460Y-60168748D02*
X173159460Y-60016367D01*
X173159460Y-60016367D02*
X173197556Y-59940176D01*
X173197556Y-59940176D02*
X173273746Y-59902081D01*
X173273746Y-59902081D02*
X173349937Y-59902081D01*
X173349937Y-59902081D02*
X173426127Y-60283034D01*
X173159460Y-59063986D02*
X173159460Y-58759224D01*
X173692794Y-58949700D02*
X173007079Y-58949700D01*
X173007079Y-58949700D02*
X172930889Y-58911605D01*
X172930889Y-58911605D02*
X172892794Y-58835415D01*
X172892794Y-58835415D02*
X172892794Y-58759224D01*
X173692794Y-58149700D02*
X173273746Y-58149700D01*
X173273746Y-58149700D02*
X173197556Y-58187795D01*
X173197556Y-58187795D02*
X173159460Y-58263986D01*
X173159460Y-58263986D02*
X173159460Y-58416367D01*
X173159460Y-58416367D02*
X173197556Y-58492557D01*
X173654699Y-58149700D02*
X173692794Y-58225891D01*
X173692794Y-58225891D02*
X173692794Y-58416367D01*
X173692794Y-58416367D02*
X173654699Y-58492557D01*
X173654699Y-58492557D02*
X173578508Y-58530653D01*
X173578508Y-58530653D02*
X173502318Y-58530653D01*
X173502318Y-58530653D02*
X173426127Y-58492557D01*
X173426127Y-58492557D02*
X173388032Y-58416367D01*
X173388032Y-58416367D02*
X173388032Y-58225891D01*
X173388032Y-58225891D02*
X173349937Y-58149700D01*
X173654699Y-57425890D02*
X173692794Y-57502081D01*
X173692794Y-57502081D02*
X173692794Y-57654462D01*
X173692794Y-57654462D02*
X173654699Y-57730652D01*
X173654699Y-57730652D02*
X173616603Y-57768747D01*
X173616603Y-57768747D02*
X173540413Y-57806843D01*
X173540413Y-57806843D02*
X173311841Y-57806843D01*
X173311841Y-57806843D02*
X173235651Y-57768747D01*
X173235651Y-57768747D02*
X173197556Y-57730652D01*
X173197556Y-57730652D02*
X173159460Y-57654462D01*
X173159460Y-57654462D02*
X173159460Y-57502081D01*
X173159460Y-57502081D02*
X173197556Y-57425890D01*
X173654699Y-56778271D02*
X173692794Y-56854462D01*
X173692794Y-56854462D02*
X173692794Y-57006843D01*
X173692794Y-57006843D02*
X173654699Y-57083033D01*
X173654699Y-57083033D02*
X173578508Y-57121129D01*
X173578508Y-57121129D02*
X173273746Y-57121129D01*
X173273746Y-57121129D02*
X173197556Y-57083033D01*
X173197556Y-57083033D02*
X173159460Y-57006843D01*
X173159460Y-57006843D02*
X173159460Y-56854462D01*
X173159460Y-56854462D02*
X173197556Y-56778271D01*
X173197556Y-56778271D02*
X173273746Y-56740176D01*
X173273746Y-56740176D02*
X173349937Y-56740176D01*
X173349937Y-56740176D02*
X173426127Y-57121129D01*
X173692794Y-55444938D02*
X172892794Y-55444938D01*
X173654699Y-55444938D02*
X173692794Y-55521129D01*
X173692794Y-55521129D02*
X173692794Y-55673510D01*
X173692794Y-55673510D02*
X173654699Y-55749700D01*
X173654699Y-55749700D02*
X173616603Y-55787795D01*
X173616603Y-55787795D02*
X173540413Y-55825891D01*
X173540413Y-55825891D02*
X173311841Y-55825891D01*
X173311841Y-55825891D02*
X173235651Y-55787795D01*
X173235651Y-55787795D02*
X173197556Y-55749700D01*
X173197556Y-55749700D02*
X173159460Y-55673510D01*
X173159460Y-55673510D02*
X173159460Y-55521129D01*
X173159460Y-55521129D02*
X173197556Y-55444938D01*
X173692794Y-54949700D02*
X173654699Y-55025890D01*
X173654699Y-55025890D02*
X173616603Y-55063985D01*
X173616603Y-55063985D02*
X173540413Y-55102081D01*
X173540413Y-55102081D02*
X173311841Y-55102081D01*
X173311841Y-55102081D02*
X173235651Y-55063985D01*
X173235651Y-55063985D02*
X173197556Y-55025890D01*
X173197556Y-55025890D02*
X173159460Y-54949700D01*
X173159460Y-54949700D02*
X173159460Y-54835414D01*
X173159460Y-54835414D02*
X173197556Y-54759223D01*
X173197556Y-54759223D02*
X173235651Y-54721128D01*
X173235651Y-54721128D02*
X173311841Y-54683033D01*
X173311841Y-54683033D02*
X173540413Y-54683033D01*
X173540413Y-54683033D02*
X173616603Y-54721128D01*
X173616603Y-54721128D02*
X173654699Y-54759223D01*
X173654699Y-54759223D02*
X173692794Y-54835414D01*
X173692794Y-54835414D02*
X173692794Y-54949700D01*
X173159460Y-54416366D02*
X173692794Y-54263985D01*
X173692794Y-54263985D02*
X173311841Y-54111604D01*
X173311841Y-54111604D02*
X173692794Y-53959223D01*
X173692794Y-53959223D02*
X173159460Y-53806842D01*
X173159460Y-53502080D02*
X173692794Y-53502080D01*
X173235651Y-53502080D02*
X173197556Y-53463985D01*
X173197556Y-53463985D02*
X173159460Y-53387795D01*
X173159460Y-53387795D02*
X173159460Y-53273509D01*
X173159460Y-53273509D02*
X173197556Y-53197318D01*
X173197556Y-53197318D02*
X173273746Y-53159223D01*
X173273746Y-53159223D02*
X173692794Y-53159223D01*
X173616603Y-52778270D02*
X173654699Y-52740175D01*
X173654699Y-52740175D02*
X173692794Y-52778270D01*
X173692794Y-52778270D02*
X173654699Y-52816366D01*
X173654699Y-52816366D02*
X173616603Y-52778270D01*
X173616603Y-52778270D02*
X173692794Y-52778270D01*
X166655373Y-48038186D02*
X166922040Y-48838186D01*
X166922040Y-48838186D02*
X167188706Y-48038186D01*
X167912516Y-48761995D02*
X167874420Y-48800091D01*
X167874420Y-48800091D02*
X167760135Y-48838186D01*
X167760135Y-48838186D02*
X167683944Y-48838186D01*
X167683944Y-48838186D02*
X167569658Y-48800091D01*
X167569658Y-48800091D02*
X167493468Y-48723900D01*
X167493468Y-48723900D02*
X167455373Y-48647710D01*
X167455373Y-48647710D02*
X167417277Y-48495329D01*
X167417277Y-48495329D02*
X167417277Y-48381043D01*
X167417277Y-48381043D02*
X167455373Y-48228662D01*
X167455373Y-48228662D02*
X167493468Y-48152471D01*
X167493468Y-48152471D02*
X167569658Y-48076281D01*
X167569658Y-48076281D02*
X167683944Y-48038186D01*
X167683944Y-48038186D02*
X167760135Y-48038186D01*
X167760135Y-48038186D02*
X167874420Y-48076281D01*
X167874420Y-48076281D02*
X167912516Y-48114376D01*
X168712516Y-48761995D02*
X168674420Y-48800091D01*
X168674420Y-48800091D02*
X168560135Y-48838186D01*
X168560135Y-48838186D02*
X168483944Y-48838186D01*
X168483944Y-48838186D02*
X168369658Y-48800091D01*
X168369658Y-48800091D02*
X168293468Y-48723900D01*
X168293468Y-48723900D02*
X168255373Y-48647710D01*
X168255373Y-48647710D02*
X168217277Y-48495329D01*
X168217277Y-48495329D02*
X168217277Y-48381043D01*
X168217277Y-48381043D02*
X168255373Y-48228662D01*
X168255373Y-48228662D02*
X168293468Y-48152471D01*
X168293468Y-48152471D02*
X168369658Y-48076281D01*
X168369658Y-48076281D02*
X168483944Y-48038186D01*
X168483944Y-48038186D02*
X168560135Y-48038186D01*
X168560135Y-48038186D02*
X168674420Y-48076281D01*
X168674420Y-48076281D02*
X168712516Y-48114376D01*
X166769659Y-64078186D02*
X166769659Y-63544852D01*
X166769659Y-63697233D02*
X166807754Y-63621043D01*
X166807754Y-63621043D02*
X166845849Y-63582948D01*
X166845849Y-63582948D02*
X166922040Y-63544852D01*
X166922040Y-63544852D02*
X166998230Y-63544852D01*
X167379182Y-64078186D02*
X167302992Y-64040091D01*
X167302992Y-64040091D02*
X167264897Y-64001995D01*
X167264897Y-64001995D02*
X167226801Y-63925805D01*
X167226801Y-63925805D02*
X167226801Y-63697233D01*
X167226801Y-63697233D02*
X167264897Y-63621043D01*
X167264897Y-63621043D02*
X167302992Y-63582948D01*
X167302992Y-63582948D02*
X167379182Y-63544852D01*
X167379182Y-63544852D02*
X167493468Y-63544852D01*
X167493468Y-63544852D02*
X167569659Y-63582948D01*
X167569659Y-63582948D02*
X167607754Y-63621043D01*
X167607754Y-63621043D02*
X167645849Y-63697233D01*
X167645849Y-63697233D02*
X167645849Y-63925805D01*
X167645849Y-63925805D02*
X167607754Y-64001995D01*
X167607754Y-64001995D02*
X167569659Y-64040091D01*
X167569659Y-64040091D02*
X167493468Y-64078186D01*
X167493468Y-64078186D02*
X167379182Y-64078186D01*
X167912516Y-63544852D02*
X168064897Y-64078186D01*
X168064897Y-64078186D02*
X168217278Y-63697233D01*
X168217278Y-63697233D02*
X168369659Y-64078186D01*
X168369659Y-64078186D02*
X168522040Y-63544852D01*
X168750611Y-63278186D02*
X169245849Y-63278186D01*
X169245849Y-63278186D02*
X168979183Y-63582948D01*
X168979183Y-63582948D02*
X169093468Y-63582948D01*
X169093468Y-63582948D02*
X169169659Y-63621043D01*
X169169659Y-63621043D02*
X169207754Y-63659138D01*
X169207754Y-63659138D02*
X169245849Y-63735329D01*
X169245849Y-63735329D02*
X169245849Y-63925805D01*
X169245849Y-63925805D02*
X169207754Y-64001995D01*
X169207754Y-64001995D02*
X169169659Y-64040091D01*
X169169659Y-64040091D02*
X169093468Y-64078186D01*
X169093468Y-64078186D02*
X168864897Y-64078186D01*
X168864897Y-64078186D02*
X168788706Y-64040091D01*
X168788706Y-64040091D02*
X168750611Y-64001995D01*
X176924671Y-58960091D02*
X176848480Y-58998186D01*
X176848480Y-58998186D02*
X176696099Y-58998186D01*
X176696099Y-58998186D02*
X176619909Y-58960091D01*
X176619909Y-58960091D02*
X176581814Y-58921995D01*
X176581814Y-58921995D02*
X176543718Y-58845805D01*
X176543718Y-58845805D02*
X176543718Y-58617233D01*
X176543718Y-58617233D02*
X176581814Y-58541043D01*
X176581814Y-58541043D02*
X176619909Y-58502948D01*
X176619909Y-58502948D02*
X176696099Y-58464852D01*
X176696099Y-58464852D02*
X176848480Y-58464852D01*
X176848480Y-58464852D02*
X176924671Y-58502948D01*
X177381813Y-58998186D02*
X177305623Y-58960091D01*
X177305623Y-58960091D02*
X177267528Y-58921995D01*
X177267528Y-58921995D02*
X177229432Y-58845805D01*
X177229432Y-58845805D02*
X177229432Y-58617233D01*
X177229432Y-58617233D02*
X177267528Y-58541043D01*
X177267528Y-58541043D02*
X177305623Y-58502948D01*
X177305623Y-58502948D02*
X177381813Y-58464852D01*
X177381813Y-58464852D02*
X177496099Y-58464852D01*
X177496099Y-58464852D02*
X177572290Y-58502948D01*
X177572290Y-58502948D02*
X177610385Y-58541043D01*
X177610385Y-58541043D02*
X177648480Y-58617233D01*
X177648480Y-58617233D02*
X177648480Y-58845805D01*
X177648480Y-58845805D02*
X177610385Y-58921995D01*
X177610385Y-58921995D02*
X177572290Y-58960091D01*
X177572290Y-58960091D02*
X177496099Y-58998186D01*
X177496099Y-58998186D02*
X177381813Y-58998186D01*
X178105623Y-58998186D02*
X178029433Y-58960091D01*
X178029433Y-58960091D02*
X177991338Y-58883900D01*
X177991338Y-58883900D02*
X177991338Y-58198186D01*
X178562767Y-58198186D02*
X178638957Y-58198186D01*
X178638957Y-58198186D02*
X178715148Y-58236281D01*
X178715148Y-58236281D02*
X178753243Y-58274376D01*
X178753243Y-58274376D02*
X178791338Y-58350567D01*
X178791338Y-58350567D02*
X178829433Y-58502948D01*
X178829433Y-58502948D02*
X178829433Y-58693424D01*
X178829433Y-58693424D02*
X178791338Y-58845805D01*
X178791338Y-58845805D02*
X178753243Y-58921995D01*
X178753243Y-58921995D02*
X178715148Y-58960091D01*
X178715148Y-58960091D02*
X178638957Y-58998186D01*
X178638957Y-58998186D02*
X178562767Y-58998186D01*
X178562767Y-58998186D02*
X178486576Y-58960091D01*
X178486576Y-58960091D02*
X178448481Y-58921995D01*
X178448481Y-58921995D02*
X178410386Y-58845805D01*
X178410386Y-58845805D02*
X178372290Y-58693424D01*
X178372290Y-58693424D02*
X178372290Y-58502948D01*
X178372290Y-58502948D02*
X178410386Y-58350567D01*
X178410386Y-58350567D02*
X178448481Y-58274376D01*
X178448481Y-58274376D02*
X178486576Y-58236281D01*
X178486576Y-58236281D02*
X178562767Y-58198186D01*
X174904699Y-65159226D02*
X174942794Y-65044940D01*
X174942794Y-65044940D02*
X174942794Y-64854464D01*
X174942794Y-64854464D02*
X174904699Y-64778273D01*
X174904699Y-64778273D02*
X174866603Y-64740178D01*
X174866603Y-64740178D02*
X174790413Y-64702083D01*
X174790413Y-64702083D02*
X174714222Y-64702083D01*
X174714222Y-64702083D02*
X174638032Y-64740178D01*
X174638032Y-64740178D02*
X174599937Y-64778273D01*
X174599937Y-64778273D02*
X174561841Y-64854464D01*
X174561841Y-64854464D02*
X174523746Y-65006845D01*
X174523746Y-65006845D02*
X174485651Y-65083035D01*
X174485651Y-65083035D02*
X174447556Y-65121130D01*
X174447556Y-65121130D02*
X174371365Y-65159226D01*
X174371365Y-65159226D02*
X174295175Y-65159226D01*
X174295175Y-65159226D02*
X174218984Y-65121130D01*
X174218984Y-65121130D02*
X174180889Y-65083035D01*
X174180889Y-65083035D02*
X174142794Y-65006845D01*
X174142794Y-65006845D02*
X174142794Y-64816368D01*
X174142794Y-64816368D02*
X174180889Y-64702083D01*
X174942794Y-64244940D02*
X174904699Y-64321130D01*
X174904699Y-64321130D02*
X174866603Y-64359225D01*
X174866603Y-64359225D02*
X174790413Y-64397321D01*
X174790413Y-64397321D02*
X174561841Y-64397321D01*
X174561841Y-64397321D02*
X174485651Y-64359225D01*
X174485651Y-64359225D02*
X174447556Y-64321130D01*
X174447556Y-64321130D02*
X174409460Y-64244940D01*
X174409460Y-64244940D02*
X174409460Y-64130654D01*
X174409460Y-64130654D02*
X174447556Y-64054463D01*
X174447556Y-64054463D02*
X174485651Y-64016368D01*
X174485651Y-64016368D02*
X174561841Y-63978273D01*
X174561841Y-63978273D02*
X174790413Y-63978273D01*
X174790413Y-63978273D02*
X174866603Y-64016368D01*
X174866603Y-64016368D02*
X174904699Y-64054463D01*
X174904699Y-64054463D02*
X174942794Y-64130654D01*
X174942794Y-64130654D02*
X174942794Y-64244940D01*
X174942794Y-63521130D02*
X174904699Y-63597320D01*
X174904699Y-63597320D02*
X174828508Y-63635415D01*
X174828508Y-63635415D02*
X174142794Y-63635415D01*
X174942794Y-62873510D02*
X174142794Y-62873510D01*
X174904699Y-62873510D02*
X174942794Y-62949701D01*
X174942794Y-62949701D02*
X174942794Y-63102082D01*
X174942794Y-63102082D02*
X174904699Y-63178272D01*
X174904699Y-63178272D02*
X174866603Y-63216367D01*
X174866603Y-63216367D02*
X174790413Y-63254463D01*
X174790413Y-63254463D02*
X174561841Y-63254463D01*
X174561841Y-63254463D02*
X174485651Y-63216367D01*
X174485651Y-63216367D02*
X174447556Y-63178272D01*
X174447556Y-63178272D02*
X174409460Y-63102082D01*
X174409460Y-63102082D02*
X174409460Y-62949701D01*
X174409460Y-62949701D02*
X174447556Y-62873510D01*
X174904699Y-62187795D02*
X174942794Y-62263986D01*
X174942794Y-62263986D02*
X174942794Y-62416367D01*
X174942794Y-62416367D02*
X174904699Y-62492557D01*
X174904699Y-62492557D02*
X174828508Y-62530653D01*
X174828508Y-62530653D02*
X174523746Y-62530653D01*
X174523746Y-62530653D02*
X174447556Y-62492557D01*
X174447556Y-62492557D02*
X174409460Y-62416367D01*
X174409460Y-62416367D02*
X174409460Y-62263986D01*
X174409460Y-62263986D02*
X174447556Y-62187795D01*
X174447556Y-62187795D02*
X174523746Y-62149700D01*
X174523746Y-62149700D02*
X174599937Y-62149700D01*
X174599937Y-62149700D02*
X174676127Y-62530653D01*
X174942794Y-61806843D02*
X174409460Y-61806843D01*
X174561841Y-61806843D02*
X174485651Y-61768748D01*
X174485651Y-61768748D02*
X174447556Y-61730653D01*
X174447556Y-61730653D02*
X174409460Y-61654462D01*
X174409460Y-61654462D02*
X174409460Y-61578272D01*
X174409460Y-60702081D02*
X175095175Y-60702081D01*
X175095175Y-60702081D02*
X175171365Y-60740177D01*
X175171365Y-60740177D02*
X175209460Y-60816367D01*
X175209460Y-60816367D02*
X175209460Y-60854462D01*
X174142794Y-60702081D02*
X174180889Y-60740177D01*
X174180889Y-60740177D02*
X174218984Y-60702081D01*
X174218984Y-60702081D02*
X174180889Y-60663986D01*
X174180889Y-60663986D02*
X174142794Y-60702081D01*
X174142794Y-60702081D02*
X174218984Y-60702081D01*
X174409460Y-59978272D02*
X174942794Y-59978272D01*
X174409460Y-60321129D02*
X174828508Y-60321129D01*
X174828508Y-60321129D02*
X174904699Y-60283034D01*
X174904699Y-60283034D02*
X174942794Y-60206844D01*
X174942794Y-60206844D02*
X174942794Y-60092558D01*
X174942794Y-60092558D02*
X174904699Y-60016367D01*
X174904699Y-60016367D02*
X174866603Y-59978272D01*
X174942794Y-59597319D02*
X174409460Y-59597319D01*
X174485651Y-59597319D02*
X174447556Y-59559224D01*
X174447556Y-59559224D02*
X174409460Y-59483034D01*
X174409460Y-59483034D02*
X174409460Y-59368748D01*
X174409460Y-59368748D02*
X174447556Y-59292557D01*
X174447556Y-59292557D02*
X174523746Y-59254462D01*
X174523746Y-59254462D02*
X174942794Y-59254462D01*
X174523746Y-59254462D02*
X174447556Y-59216367D01*
X174447556Y-59216367D02*
X174409460Y-59140176D01*
X174409460Y-59140176D02*
X174409460Y-59025891D01*
X174409460Y-59025891D02*
X174447556Y-58949700D01*
X174447556Y-58949700D02*
X174523746Y-58911605D01*
X174523746Y-58911605D02*
X174942794Y-58911605D01*
X174409460Y-58530652D02*
X175209460Y-58530652D01*
X174447556Y-58530652D02*
X174409460Y-58454462D01*
X174409460Y-58454462D02*
X174409460Y-58302081D01*
X174409460Y-58302081D02*
X174447556Y-58225890D01*
X174447556Y-58225890D02*
X174485651Y-58187795D01*
X174485651Y-58187795D02*
X174561841Y-58149700D01*
X174561841Y-58149700D02*
X174790413Y-58149700D01*
X174790413Y-58149700D02*
X174866603Y-58187795D01*
X174866603Y-58187795D02*
X174904699Y-58225890D01*
X174904699Y-58225890D02*
X174942794Y-58302081D01*
X174942794Y-58302081D02*
X174942794Y-58454462D01*
X174942794Y-58454462D02*
X174904699Y-58530652D01*
X174904699Y-57502080D02*
X174942794Y-57578271D01*
X174942794Y-57578271D02*
X174942794Y-57730652D01*
X174942794Y-57730652D02*
X174904699Y-57806842D01*
X174904699Y-57806842D02*
X174828508Y-57844938D01*
X174828508Y-57844938D02*
X174523746Y-57844938D01*
X174523746Y-57844938D02*
X174447556Y-57806842D01*
X174447556Y-57806842D02*
X174409460Y-57730652D01*
X174409460Y-57730652D02*
X174409460Y-57578271D01*
X174409460Y-57578271D02*
X174447556Y-57502080D01*
X174447556Y-57502080D02*
X174523746Y-57463985D01*
X174523746Y-57463985D02*
X174599937Y-57463985D01*
X174599937Y-57463985D02*
X174676127Y-57844938D01*
X174942794Y-57121128D02*
X174409460Y-57121128D01*
X174561841Y-57121128D02*
X174485651Y-57083033D01*
X174485651Y-57083033D02*
X174447556Y-57044938D01*
X174447556Y-57044938D02*
X174409460Y-56968747D01*
X174409460Y-56968747D02*
X174409460Y-56892557D01*
X174904699Y-56663986D02*
X174942794Y-56587795D01*
X174942794Y-56587795D02*
X174942794Y-56435414D01*
X174942794Y-56435414D02*
X174904699Y-56359224D01*
X174904699Y-56359224D02*
X174828508Y-56321128D01*
X174828508Y-56321128D02*
X174790413Y-56321128D01*
X174790413Y-56321128D02*
X174714222Y-56359224D01*
X174714222Y-56359224D02*
X174676127Y-56435414D01*
X174676127Y-56435414D02*
X174676127Y-56549700D01*
X174676127Y-56549700D02*
X174638032Y-56625890D01*
X174638032Y-56625890D02*
X174561841Y-56663986D01*
X174561841Y-56663986D02*
X174523746Y-56663986D01*
X174523746Y-56663986D02*
X174447556Y-56625890D01*
X174447556Y-56625890D02*
X174409460Y-56549700D01*
X174409460Y-56549700D02*
X174409460Y-56435414D01*
X174409460Y-56435414D02*
X174447556Y-56359224D01*
X174942794Y-55254462D02*
X174904699Y-55330652D01*
X174904699Y-55330652D02*
X174866603Y-55368747D01*
X174866603Y-55368747D02*
X174790413Y-55406843D01*
X174790413Y-55406843D02*
X174561841Y-55406843D01*
X174561841Y-55406843D02*
X174485651Y-55368747D01*
X174485651Y-55368747D02*
X174447556Y-55330652D01*
X174447556Y-55330652D02*
X174409460Y-55254462D01*
X174409460Y-55254462D02*
X174409460Y-55140176D01*
X174409460Y-55140176D02*
X174447556Y-55063985D01*
X174447556Y-55063985D02*
X174485651Y-55025890D01*
X174485651Y-55025890D02*
X174561841Y-54987795D01*
X174561841Y-54987795D02*
X174790413Y-54987795D01*
X174790413Y-54987795D02*
X174866603Y-55025890D01*
X174866603Y-55025890D02*
X174904699Y-55063985D01*
X174904699Y-55063985D02*
X174942794Y-55140176D01*
X174942794Y-55140176D02*
X174942794Y-55254462D01*
X174409460Y-54644937D02*
X174942794Y-54644937D01*
X174485651Y-54644937D02*
X174447556Y-54606842D01*
X174447556Y-54606842D02*
X174409460Y-54530652D01*
X174409460Y-54530652D02*
X174409460Y-54416366D01*
X174409460Y-54416366D02*
X174447556Y-54340175D01*
X174447556Y-54340175D02*
X174523746Y-54302080D01*
X174523746Y-54302080D02*
X174942794Y-54302080D01*
X174942794Y-53311603D02*
X174142794Y-53311603D01*
X174447556Y-53311603D02*
X174409460Y-53235413D01*
X174409460Y-53235413D02*
X174409460Y-53083032D01*
X174409460Y-53083032D02*
X174447556Y-53006841D01*
X174447556Y-53006841D02*
X174485651Y-52968746D01*
X174485651Y-52968746D02*
X174561841Y-52930651D01*
X174561841Y-52930651D02*
X174790413Y-52930651D01*
X174790413Y-52930651D02*
X174866603Y-52968746D01*
X174866603Y-52968746D02*
X174904699Y-53006841D01*
X174904699Y-53006841D02*
X174942794Y-53083032D01*
X174942794Y-53083032D02*
X174942794Y-53235413D01*
X174942794Y-53235413D02*
X174904699Y-53311603D01*
X174942794Y-52244936D02*
X174523746Y-52244936D01*
X174523746Y-52244936D02*
X174447556Y-52283031D01*
X174447556Y-52283031D02*
X174409460Y-52359222D01*
X174409460Y-52359222D02*
X174409460Y-52511603D01*
X174409460Y-52511603D02*
X174447556Y-52587793D01*
X174904699Y-52244936D02*
X174942794Y-52321127D01*
X174942794Y-52321127D02*
X174942794Y-52511603D01*
X174942794Y-52511603D02*
X174904699Y-52587793D01*
X174904699Y-52587793D02*
X174828508Y-52625889D01*
X174828508Y-52625889D02*
X174752318Y-52625889D01*
X174752318Y-52625889D02*
X174676127Y-52587793D01*
X174676127Y-52587793D02*
X174638032Y-52511603D01*
X174638032Y-52511603D02*
X174638032Y-52321127D01*
X174638032Y-52321127D02*
X174599937Y-52244936D01*
X174904699Y-51521126D02*
X174942794Y-51597317D01*
X174942794Y-51597317D02*
X174942794Y-51749698D01*
X174942794Y-51749698D02*
X174904699Y-51825888D01*
X174904699Y-51825888D02*
X174866603Y-51863983D01*
X174866603Y-51863983D02*
X174790413Y-51902079D01*
X174790413Y-51902079D02*
X174561841Y-51902079D01*
X174561841Y-51902079D02*
X174485651Y-51863983D01*
X174485651Y-51863983D02*
X174447556Y-51825888D01*
X174447556Y-51825888D02*
X174409460Y-51749698D01*
X174409460Y-51749698D02*
X174409460Y-51597317D01*
X174409460Y-51597317D02*
X174447556Y-51521126D01*
X174942794Y-51178269D02*
X174142794Y-51178269D01*
X174638032Y-51102079D02*
X174942794Y-50873507D01*
X174409460Y-50873507D02*
X174714222Y-51178269D01*
X174866603Y-50530650D02*
X174904699Y-50492555D01*
X174904699Y-50492555D02*
X174942794Y-50530650D01*
X174942794Y-50530650D02*
X174904699Y-50568746D01*
X174904699Y-50568746D02*
X174866603Y-50530650D01*
X174866603Y-50530650D02*
X174942794Y-50530650D01*
X176924671Y-69120091D02*
X176848480Y-69158186D01*
X176848480Y-69158186D02*
X176696099Y-69158186D01*
X176696099Y-69158186D02*
X176619909Y-69120091D01*
X176619909Y-69120091D02*
X176581814Y-69081995D01*
X176581814Y-69081995D02*
X176543718Y-69005805D01*
X176543718Y-69005805D02*
X176543718Y-68777233D01*
X176543718Y-68777233D02*
X176581814Y-68701043D01*
X176581814Y-68701043D02*
X176619909Y-68662948D01*
X176619909Y-68662948D02*
X176696099Y-68624852D01*
X176696099Y-68624852D02*
X176848480Y-68624852D01*
X176848480Y-68624852D02*
X176924671Y-68662948D01*
X177381813Y-69158186D02*
X177305623Y-69120091D01*
X177305623Y-69120091D02*
X177267528Y-69081995D01*
X177267528Y-69081995D02*
X177229432Y-69005805D01*
X177229432Y-69005805D02*
X177229432Y-68777233D01*
X177229432Y-68777233D02*
X177267528Y-68701043D01*
X177267528Y-68701043D02*
X177305623Y-68662948D01*
X177305623Y-68662948D02*
X177381813Y-68624852D01*
X177381813Y-68624852D02*
X177496099Y-68624852D01*
X177496099Y-68624852D02*
X177572290Y-68662948D01*
X177572290Y-68662948D02*
X177610385Y-68701043D01*
X177610385Y-68701043D02*
X177648480Y-68777233D01*
X177648480Y-68777233D02*
X177648480Y-69005805D01*
X177648480Y-69005805D02*
X177610385Y-69081995D01*
X177610385Y-69081995D02*
X177572290Y-69120091D01*
X177572290Y-69120091D02*
X177496099Y-69158186D01*
X177496099Y-69158186D02*
X177381813Y-69158186D01*
X178105623Y-69158186D02*
X178029433Y-69120091D01*
X178029433Y-69120091D02*
X177991338Y-69043900D01*
X177991338Y-69043900D02*
X177991338Y-68358186D01*
X178753243Y-68624852D02*
X178753243Y-69158186D01*
X178562767Y-68320091D02*
X178372290Y-68891519D01*
X178372290Y-68891519D02*
X178867529Y-68891519D01*
X166769659Y-53499138D02*
X167036325Y-53499138D01*
X167150611Y-53918186D02*
X166769659Y-53918186D01*
X166769659Y-53918186D02*
X166769659Y-53118186D01*
X166769659Y-53118186D02*
X167150611Y-53118186D01*
X167493469Y-53918186D02*
X167493469Y-53118186D01*
X167493469Y-53118186D02*
X167950612Y-53918186D01*
X167950612Y-53918186D02*
X167950612Y-53118186D01*
X168788707Y-53841995D02*
X168750611Y-53880091D01*
X168750611Y-53880091D02*
X168636326Y-53918186D01*
X168636326Y-53918186D02*
X168560135Y-53918186D01*
X168560135Y-53918186D02*
X168445849Y-53880091D01*
X168445849Y-53880091D02*
X168369659Y-53803900D01*
X168369659Y-53803900D02*
X168331564Y-53727710D01*
X168331564Y-53727710D02*
X168293468Y-53575329D01*
X168293468Y-53575329D02*
X168293468Y-53461043D01*
X168293468Y-53461043D02*
X168331564Y-53308662D01*
X168331564Y-53308662D02*
X168369659Y-53232471D01*
X168369659Y-53232471D02*
X168445849Y-53156281D01*
X168445849Y-53156281D02*
X168560135Y-53118186D01*
X168560135Y-53118186D02*
X168636326Y-53118186D01*
X168636326Y-53118186D02*
X168750611Y-53156281D01*
X168750611Y-53156281D02*
X168788707Y-53194376D01*
X169398230Y-53499138D02*
X169512516Y-53537233D01*
X169512516Y-53537233D02*
X169550611Y-53575329D01*
X169550611Y-53575329D02*
X169588707Y-53651519D01*
X169588707Y-53651519D02*
X169588707Y-53765805D01*
X169588707Y-53765805D02*
X169550611Y-53841995D01*
X169550611Y-53841995D02*
X169512516Y-53880091D01*
X169512516Y-53880091D02*
X169436326Y-53918186D01*
X169436326Y-53918186D02*
X169131564Y-53918186D01*
X169131564Y-53918186D02*
X169131564Y-53118186D01*
X169131564Y-53118186D02*
X169398230Y-53118186D01*
X169398230Y-53118186D02*
X169474421Y-53156281D01*
X169474421Y-53156281D02*
X169512516Y-53194376D01*
X169512516Y-53194376D02*
X169550611Y-53270567D01*
X169550611Y-53270567D02*
X169550611Y-53346757D01*
X169550611Y-53346757D02*
X169512516Y-53422948D01*
X169512516Y-53422948D02*
X169474421Y-53461043D01*
X169474421Y-53461043D02*
X169398230Y-53499138D01*
X169398230Y-53499138D02*
X169131564Y-53499138D01*
X176924671Y-61500091D02*
X176848480Y-61538186D01*
X176848480Y-61538186D02*
X176696099Y-61538186D01*
X176696099Y-61538186D02*
X176619909Y-61500091D01*
X176619909Y-61500091D02*
X176581814Y-61461995D01*
X176581814Y-61461995D02*
X176543718Y-61385805D01*
X176543718Y-61385805D02*
X176543718Y-61157233D01*
X176543718Y-61157233D02*
X176581814Y-61081043D01*
X176581814Y-61081043D02*
X176619909Y-61042948D01*
X176619909Y-61042948D02*
X176696099Y-61004852D01*
X176696099Y-61004852D02*
X176848480Y-61004852D01*
X176848480Y-61004852D02*
X176924671Y-61042948D01*
X177381813Y-61538186D02*
X177305623Y-61500091D01*
X177305623Y-61500091D02*
X177267528Y-61461995D01*
X177267528Y-61461995D02*
X177229432Y-61385805D01*
X177229432Y-61385805D02*
X177229432Y-61157233D01*
X177229432Y-61157233D02*
X177267528Y-61081043D01*
X177267528Y-61081043D02*
X177305623Y-61042948D01*
X177305623Y-61042948D02*
X177381813Y-61004852D01*
X177381813Y-61004852D02*
X177496099Y-61004852D01*
X177496099Y-61004852D02*
X177572290Y-61042948D01*
X177572290Y-61042948D02*
X177610385Y-61081043D01*
X177610385Y-61081043D02*
X177648480Y-61157233D01*
X177648480Y-61157233D02*
X177648480Y-61385805D01*
X177648480Y-61385805D02*
X177610385Y-61461995D01*
X177610385Y-61461995D02*
X177572290Y-61500091D01*
X177572290Y-61500091D02*
X177496099Y-61538186D01*
X177496099Y-61538186D02*
X177381813Y-61538186D01*
X178105623Y-61538186D02*
X178029433Y-61500091D01*
X178029433Y-61500091D02*
X177991338Y-61423900D01*
X177991338Y-61423900D02*
X177991338Y-60738186D01*
X178829433Y-61538186D02*
X178372290Y-61538186D01*
X178600862Y-61538186D02*
X178600862Y-60738186D01*
X178600862Y-60738186D02*
X178524671Y-60852471D01*
X178524671Y-60852471D02*
X178448481Y-60928662D01*
X178448481Y-60928662D02*
X178372290Y-60966757D01*
X176924671Y-53880091D02*
X177038957Y-53918186D01*
X177038957Y-53918186D02*
X177229433Y-53918186D01*
X177229433Y-53918186D02*
X177305624Y-53880091D01*
X177305624Y-53880091D02*
X177343719Y-53841995D01*
X177343719Y-53841995D02*
X177381814Y-53765805D01*
X177381814Y-53765805D02*
X177381814Y-53689614D01*
X177381814Y-53689614D02*
X177343719Y-53613424D01*
X177343719Y-53613424D02*
X177305624Y-53575329D01*
X177305624Y-53575329D02*
X177229433Y-53537233D01*
X177229433Y-53537233D02*
X177077052Y-53499138D01*
X177077052Y-53499138D02*
X177000862Y-53461043D01*
X177000862Y-53461043D02*
X176962767Y-53422948D01*
X176962767Y-53422948D02*
X176924671Y-53346757D01*
X176924671Y-53346757D02*
X176924671Y-53270567D01*
X176924671Y-53270567D02*
X176962767Y-53194376D01*
X176962767Y-53194376D02*
X177000862Y-53156281D01*
X177000862Y-53156281D02*
X177077052Y-53118186D01*
X177077052Y-53118186D02*
X177267529Y-53118186D01*
X177267529Y-53118186D02*
X177381814Y-53156281D01*
X178181815Y-53841995D02*
X178143719Y-53880091D01*
X178143719Y-53880091D02*
X178029434Y-53918186D01*
X178029434Y-53918186D02*
X177953243Y-53918186D01*
X177953243Y-53918186D02*
X177838957Y-53880091D01*
X177838957Y-53880091D02*
X177762767Y-53803900D01*
X177762767Y-53803900D02*
X177724672Y-53727710D01*
X177724672Y-53727710D02*
X177686576Y-53575329D01*
X177686576Y-53575329D02*
X177686576Y-53461043D01*
X177686576Y-53461043D02*
X177724672Y-53308662D01*
X177724672Y-53308662D02*
X177762767Y-53232471D01*
X177762767Y-53232471D02*
X177838957Y-53156281D01*
X177838957Y-53156281D02*
X177953243Y-53118186D01*
X177953243Y-53118186D02*
X178029434Y-53118186D01*
X178029434Y-53118186D02*
X178143719Y-53156281D01*
X178143719Y-53156281D02*
X178181815Y-53194376D01*
X178905624Y-53918186D02*
X178524672Y-53918186D01*
X178524672Y-53918186D02*
X178524672Y-53118186D01*
X166769659Y-69158186D02*
X166769659Y-68624852D01*
X166769659Y-68777233D02*
X166807754Y-68701043D01*
X166807754Y-68701043D02*
X166845849Y-68662948D01*
X166845849Y-68662948D02*
X166922040Y-68624852D01*
X166922040Y-68624852D02*
X166998230Y-68624852D01*
X167379182Y-69158186D02*
X167302992Y-69120091D01*
X167302992Y-69120091D02*
X167264897Y-69081995D01*
X167264897Y-69081995D02*
X167226801Y-69005805D01*
X167226801Y-69005805D02*
X167226801Y-68777233D01*
X167226801Y-68777233D02*
X167264897Y-68701043D01*
X167264897Y-68701043D02*
X167302992Y-68662948D01*
X167302992Y-68662948D02*
X167379182Y-68624852D01*
X167379182Y-68624852D02*
X167493468Y-68624852D01*
X167493468Y-68624852D02*
X167569659Y-68662948D01*
X167569659Y-68662948D02*
X167607754Y-68701043D01*
X167607754Y-68701043D02*
X167645849Y-68777233D01*
X167645849Y-68777233D02*
X167645849Y-69005805D01*
X167645849Y-69005805D02*
X167607754Y-69081995D01*
X167607754Y-69081995D02*
X167569659Y-69120091D01*
X167569659Y-69120091D02*
X167493468Y-69158186D01*
X167493468Y-69158186D02*
X167379182Y-69158186D01*
X167912516Y-68624852D02*
X168064897Y-69158186D01*
X168064897Y-69158186D02*
X168217278Y-68777233D01*
X168217278Y-68777233D02*
X168369659Y-69158186D01*
X168369659Y-69158186D02*
X168522040Y-68624852D01*
X169207754Y-68358186D02*
X168826802Y-68358186D01*
X168826802Y-68358186D02*
X168788706Y-68739138D01*
X168788706Y-68739138D02*
X168826802Y-68701043D01*
X168826802Y-68701043D02*
X168902992Y-68662948D01*
X168902992Y-68662948D02*
X169093468Y-68662948D01*
X169093468Y-68662948D02*
X169169659Y-68701043D01*
X169169659Y-68701043D02*
X169207754Y-68739138D01*
X169207754Y-68739138D02*
X169245849Y-68815329D01*
X169245849Y-68815329D02*
X169245849Y-69005805D01*
X169245849Y-69005805D02*
X169207754Y-69081995D01*
X169207754Y-69081995D02*
X169169659Y-69120091D01*
X169169659Y-69120091D02*
X169093468Y-69158186D01*
X169093468Y-69158186D02*
X168902992Y-69158186D01*
X168902992Y-69158186D02*
X168826802Y-69120091D01*
X168826802Y-69120091D02*
X168788706Y-69081995D01*
X167226802Y-41218186D02*
X166960135Y-40837233D01*
X166769659Y-41218186D02*
X166769659Y-40418186D01*
X166769659Y-40418186D02*
X167074421Y-40418186D01*
X167074421Y-40418186D02*
X167150611Y-40456281D01*
X167150611Y-40456281D02*
X167188706Y-40494376D01*
X167188706Y-40494376D02*
X167226802Y-40570567D01*
X167226802Y-40570567D02*
X167226802Y-40684852D01*
X167226802Y-40684852D02*
X167188706Y-40761043D01*
X167188706Y-40761043D02*
X167150611Y-40799138D01*
X167150611Y-40799138D02*
X167074421Y-40837233D01*
X167074421Y-40837233D02*
X166769659Y-40837233D01*
X167531563Y-40989614D02*
X167912516Y-40989614D01*
X167455373Y-41218186D02*
X167722040Y-40418186D01*
X167722040Y-40418186D02*
X167988706Y-41218186D01*
X168179182Y-40418186D02*
X168369658Y-41218186D01*
X168369658Y-41218186D02*
X168522039Y-40646757D01*
X168522039Y-40646757D02*
X168674420Y-41218186D01*
X168674420Y-41218186D02*
X168864897Y-40418186D01*
X177153243Y-45536281D02*
X177077053Y-45498186D01*
X177077053Y-45498186D02*
X176962767Y-45498186D01*
X176962767Y-45498186D02*
X176848481Y-45536281D01*
X176848481Y-45536281D02*
X176772291Y-45612471D01*
X176772291Y-45612471D02*
X176734196Y-45688662D01*
X176734196Y-45688662D02*
X176696100Y-45841043D01*
X176696100Y-45841043D02*
X176696100Y-45955329D01*
X176696100Y-45955329D02*
X176734196Y-46107710D01*
X176734196Y-46107710D02*
X176772291Y-46183900D01*
X176772291Y-46183900D02*
X176848481Y-46260091D01*
X176848481Y-46260091D02*
X176962767Y-46298186D01*
X176962767Y-46298186D02*
X177038958Y-46298186D01*
X177038958Y-46298186D02*
X177153243Y-46260091D01*
X177153243Y-46260091D02*
X177191339Y-46221995D01*
X177191339Y-46221995D02*
X177191339Y-45955329D01*
X177191339Y-45955329D02*
X177038958Y-45955329D01*
X177534196Y-46298186D02*
X177534196Y-45498186D01*
X177534196Y-45498186D02*
X177991339Y-46298186D01*
X177991339Y-46298186D02*
X177991339Y-45498186D01*
X178372291Y-46298186D02*
X178372291Y-45498186D01*
X178372291Y-45498186D02*
X178562767Y-45498186D01*
X178562767Y-45498186D02*
X178677053Y-45536281D01*
X178677053Y-45536281D02*
X178753243Y-45612471D01*
X178753243Y-45612471D02*
X178791338Y-45688662D01*
X178791338Y-45688662D02*
X178829434Y-45841043D01*
X178829434Y-45841043D02*
X178829434Y-45955329D01*
X178829434Y-45955329D02*
X178791338Y-46107710D01*
X178791338Y-46107710D02*
X178753243Y-46183900D01*
X178753243Y-46183900D02*
X178677053Y-46260091D01*
X178677053Y-46260091D02*
X178562767Y-46298186D01*
X178562767Y-46298186D02*
X178372291Y-46298186D01*
X166769659Y-66618186D02*
X166769659Y-66084852D01*
X166769659Y-66237233D02*
X166807754Y-66161043D01*
X166807754Y-66161043D02*
X166845849Y-66122948D01*
X166845849Y-66122948D02*
X166922040Y-66084852D01*
X166922040Y-66084852D02*
X166998230Y-66084852D01*
X167379182Y-66618186D02*
X167302992Y-66580091D01*
X167302992Y-66580091D02*
X167264897Y-66541995D01*
X167264897Y-66541995D02*
X167226801Y-66465805D01*
X167226801Y-66465805D02*
X167226801Y-66237233D01*
X167226801Y-66237233D02*
X167264897Y-66161043D01*
X167264897Y-66161043D02*
X167302992Y-66122948D01*
X167302992Y-66122948D02*
X167379182Y-66084852D01*
X167379182Y-66084852D02*
X167493468Y-66084852D01*
X167493468Y-66084852D02*
X167569659Y-66122948D01*
X167569659Y-66122948D02*
X167607754Y-66161043D01*
X167607754Y-66161043D02*
X167645849Y-66237233D01*
X167645849Y-66237233D02*
X167645849Y-66465805D01*
X167645849Y-66465805D02*
X167607754Y-66541995D01*
X167607754Y-66541995D02*
X167569659Y-66580091D01*
X167569659Y-66580091D02*
X167493468Y-66618186D01*
X167493468Y-66618186D02*
X167379182Y-66618186D01*
X167912516Y-66084852D02*
X168064897Y-66618186D01*
X168064897Y-66618186D02*
X168217278Y-66237233D01*
X168217278Y-66237233D02*
X168369659Y-66618186D01*
X168369659Y-66618186D02*
X168522040Y-66084852D01*
X169169659Y-66084852D02*
X169169659Y-66618186D01*
X168979183Y-65780091D02*
X168788706Y-66351519D01*
X168788706Y-66351519D02*
X169283945Y-66351519D01*
G36*
X171584641Y-58684225D02*
G01*
X171541452Y-58684225D01*
X171503456Y-58665226D01*
X171484460Y-58627233D01*
X171484460Y-58510263D01*
X171503457Y-58472268D01*
X171538723Y-58454635D01*
X171584641Y-58684225D01*
G37*
G36*
X171867794Y-56567406D02*
G01*
X171867794Y-56722473D01*
X171848797Y-56760466D01*
X171810803Y-56779464D01*
X171770023Y-56779464D01*
X171732028Y-56760466D01*
X171713032Y-56722473D01*
X171713032Y-56549702D01*
X171712599Y-56548511D01*
X171858346Y-56548511D01*
X171867794Y-56567406D01*
G37*
G36*
X171822176Y-55087530D02*
G01*
X171843060Y-55108413D01*
X171867794Y-55157881D01*
X171867794Y-55236758D01*
X171843060Y-55286225D01*
X171822175Y-55307109D01*
X171772707Y-55331844D01*
X171579547Y-55331844D01*
X171530077Y-55307108D01*
X171509194Y-55286225D01*
X171484460Y-55236757D01*
X171484460Y-55157882D01*
X171509195Y-55108412D01*
X171530077Y-55087530D01*
X171579546Y-55062796D01*
X171772708Y-55062796D01*
X171822176Y-55087530D01*
G37*
G36*
X172132080Y-60815176D02*
G01*
X170953794Y-60815176D01*
X170953794Y-60612866D01*
X171068933Y-60612866D01*
X171072289Y-60631899D01*
X171072203Y-60651227D01*
X171076637Y-60656560D01*
X171077842Y-60663390D01*
X171092648Y-60675814D01*
X171105005Y-60690674D01*
X171111828Y-60691908D01*
X171117142Y-60696367D01*
X171142794Y-60700890D01*
X171942794Y-60700890D01*
X171991003Y-60683343D01*
X172016655Y-60638914D01*
X172007746Y-60588390D01*
X171968446Y-60555413D01*
X171942794Y-60550890D01*
X171425210Y-60550890D01*
X171980004Y-60233865D01*
X171984485Y-60228572D01*
X171991003Y-60226200D01*
X172000667Y-60209460D01*
X172013156Y-60194712D01*
X172013186Y-60187777D01*
X172016655Y-60181771D01*
X172013298Y-60162737D01*
X172013385Y-60143410D01*
X172008950Y-60138076D01*
X172007746Y-60131247D01*
X171992939Y-60118822D01*
X171980583Y-60103963D01*
X171973759Y-60102728D01*
X171968446Y-60098270D01*
X171942794Y-60093747D01*
X171142794Y-60093747D01*
X171094585Y-60111294D01*
X171068933Y-60155723D01*
X171077842Y-60206247D01*
X171117142Y-60239224D01*
X171142794Y-60243747D01*
X171660378Y-60243747D01*
X171105584Y-60560772D01*
X171101102Y-60566064D01*
X171094585Y-60568437D01*
X171084920Y-60585176D01*
X171072432Y-60599925D01*
X171072401Y-60606859D01*
X171068933Y-60612866D01*
X170953794Y-60612866D01*
X170953794Y-59781259D01*
X171068080Y-59781259D01*
X171073122Y-59800077D01*
X171074820Y-59819490D01*
X171077491Y-59823304D01*
X171077842Y-59825295D01*
X171080369Y-59827416D01*
X171080494Y-59827594D01*
X171081357Y-59830813D01*
X171084086Y-59832724D01*
X171089760Y-59840827D01*
X171127855Y-59878923D01*
X171145513Y-59887157D01*
X171161478Y-59898336D01*
X171168220Y-59897746D01*
X171174351Y-59900605D01*
X171193170Y-59895562D01*
X171212586Y-59893864D01*
X171220689Y-59888189D01*
X171223906Y-59887328D01*
X171225816Y-59884599D01*
X171233923Y-59878923D01*
X171272018Y-59840827D01*
X171280252Y-59823166D01*
X171291428Y-59807206D01*
X171291129Y-59803790D01*
X171292845Y-59800819D01*
X171292248Y-59797438D01*
X171293698Y-59794331D01*
X171288655Y-59775510D01*
X171288590Y-59774771D01*
X171335599Y-59774771D01*
X171344508Y-59825295D01*
X171383808Y-59858272D01*
X171409460Y-59862795D01*
X171942794Y-59862795D01*
X171991003Y-59845248D01*
X172016655Y-59800819D01*
X172007746Y-59750295D01*
X171968446Y-59717318D01*
X171942794Y-59712795D01*
X171409460Y-59712795D01*
X171361251Y-59730342D01*
X171335599Y-59774771D01*
X171288590Y-59774771D01*
X171286957Y-59756099D01*
X171284287Y-59752285D01*
X171283936Y-59750295D01*
X171281407Y-59748173D01*
X171281282Y-59747994D01*
X171280420Y-59744776D01*
X171277690Y-59742864D01*
X171272017Y-59734762D01*
X171233922Y-59696667D01*
X171216261Y-59688432D01*
X171200300Y-59677256D01*
X171193558Y-59677845D01*
X171187425Y-59674986D01*
X171168603Y-59680028D01*
X171149193Y-59681727D01*
X171141090Y-59687400D01*
X171137871Y-59688263D01*
X171135959Y-59690993D01*
X171127856Y-59696667D01*
X171089761Y-59734762D01*
X171081526Y-59752420D01*
X171070350Y-59768383D01*
X171070648Y-59771799D01*
X171068933Y-59774771D01*
X171069529Y-59778151D01*
X171068080Y-59781259D01*
X170953794Y-59781259D01*
X170953794Y-59292558D01*
X171334460Y-59292558D01*
X171335993Y-59296771D01*
X171334952Y-59301133D01*
X171342378Y-59326100D01*
X171380474Y-59402289D01*
X171381663Y-59403414D01*
X171394523Y-59421781D01*
X171432618Y-59459876D01*
X171434100Y-59460567D01*
X171452109Y-59473925D01*
X171528299Y-59512020D01*
X171532752Y-59512532D01*
X171536189Y-59515416D01*
X171561841Y-59519939D01*
X171790413Y-59519939D01*
X171794626Y-59518405D01*
X171798988Y-59519447D01*
X171823955Y-59512021D01*
X171900144Y-59473925D01*
X171901269Y-59472736D01*
X171919635Y-59459877D01*
X171957731Y-59421782D01*
X171958421Y-59420300D01*
X171971781Y-59402289D01*
X172009876Y-59326099D01*
X172010388Y-59321645D01*
X172013271Y-59318210D01*
X172017794Y-59292558D01*
X172017794Y-59140177D01*
X172016260Y-59135964D01*
X172017303Y-59131603D01*
X172009876Y-59106636D01*
X171971781Y-59030445D01*
X171934527Y-58995173D01*
X171883317Y-58992098D01*
X171842111Y-59022661D01*
X171830190Y-59072560D01*
X171837617Y-59097527D01*
X171867794Y-59157881D01*
X171867794Y-59274853D01*
X171843060Y-59324320D01*
X171822175Y-59345204D01*
X171772707Y-59369939D01*
X171579547Y-59369939D01*
X171530077Y-59345203D01*
X171509194Y-59324320D01*
X171484460Y-59274852D01*
X171484460Y-59157882D01*
X171514638Y-59097528D01*
X171520503Y-59046561D01*
X171492237Y-59003748D01*
X171443063Y-58989121D01*
X171395992Y-59009524D01*
X171380474Y-59030445D01*
X171342378Y-59106636D01*
X171341865Y-59111089D01*
X171338983Y-59114525D01*
X171334460Y-59140177D01*
X171334460Y-59292558D01*
X170953794Y-59292558D01*
X170953794Y-58644939D01*
X171334460Y-58644939D01*
X171335993Y-58649152D01*
X171334952Y-58653514D01*
X171342378Y-58678481D01*
X171380474Y-58754670D01*
X171388626Y-58762388D01*
X171393093Y-58772693D01*
X171414014Y-58788211D01*
X171490204Y-58826306D01*
X171494657Y-58826818D01*
X171498094Y-58829702D01*
X171523746Y-58834225D01*
X171828508Y-58834225D01*
X171832721Y-58832691D01*
X171837083Y-58833733D01*
X171862049Y-58826307D01*
X171938240Y-58788211D01*
X171945959Y-58780057D01*
X171956264Y-58775591D01*
X171971781Y-58754670D01*
X172009876Y-58678480D01*
X172010388Y-58674026D01*
X172013271Y-58670591D01*
X172017794Y-58644939D01*
X172017794Y-58492558D01*
X172016260Y-58488345D01*
X172017303Y-58483984D01*
X172009876Y-58459017D01*
X171971781Y-58382826D01*
X171934527Y-58347554D01*
X171883317Y-58344479D01*
X171842111Y-58375042D01*
X171830190Y-58424941D01*
X171837617Y-58449908D01*
X171867794Y-58510262D01*
X171867794Y-58627234D01*
X171848797Y-58665227D01*
X171810803Y-58684225D01*
X171737613Y-58684225D01*
X171673481Y-58363563D01*
X171667040Y-58352975D01*
X171664889Y-58340772D01*
X171654122Y-58331738D01*
X171646820Y-58319732D01*
X171635082Y-58315761D01*
X171625589Y-58307795D01*
X171599937Y-58303272D01*
X171523746Y-58303272D01*
X171519532Y-58304805D01*
X171515172Y-58303764D01*
X171490205Y-58311190D01*
X171414015Y-58349285D01*
X171406294Y-58357439D01*
X171395992Y-58361905D01*
X171380474Y-58382826D01*
X171342378Y-58459017D01*
X171341865Y-58463470D01*
X171338983Y-58466906D01*
X171334460Y-58492558D01*
X171334460Y-58644939D01*
X170953794Y-58644939D01*
X170953794Y-58028879D01*
X171068080Y-58028879D01*
X171073122Y-58047697D01*
X171074820Y-58067110D01*
X171077491Y-58070924D01*
X171077842Y-58072915D01*
X171080369Y-58075036D01*
X171080494Y-58075214D01*
X171081357Y-58078433D01*
X171084086Y-58080344D01*
X171089760Y-58088447D01*
X171127855Y-58126543D01*
X171145380Y-58134715D01*
X171161179Y-58145875D01*
X171171300Y-58146802D01*
X171174351Y-58148225D01*
X171177529Y-58147373D01*
X171187118Y-58148252D01*
X171644261Y-58110156D01*
X171662221Y-58101870D01*
X171681304Y-58096673D01*
X171683168Y-58093986D01*
X171686241Y-58092868D01*
X171687876Y-58090036D01*
X171690846Y-58088666D01*
X171699277Y-58070778D01*
X171710557Y-58054528D01*
X171710258Y-58051270D01*
X171711893Y-58048439D01*
X171711325Y-58045219D01*
X171712720Y-58042260D01*
X171709193Y-58028878D01*
X171791889Y-58028878D01*
X171796931Y-58047699D01*
X171798630Y-58067111D01*
X171801299Y-58070924D01*
X171801651Y-58072915D01*
X171804179Y-58075036D01*
X171804302Y-58075212D01*
X171805165Y-58078432D01*
X171807895Y-58080344D01*
X171813570Y-58088448D01*
X171851666Y-58126544D01*
X171869322Y-58134777D01*
X171885288Y-58145956D01*
X171892031Y-58145365D01*
X171898163Y-58148225D01*
X171916982Y-58143182D01*
X171936396Y-58141484D01*
X171944498Y-58135810D01*
X171947717Y-58134948D01*
X171949628Y-58132218D01*
X171957733Y-58126543D01*
X171995828Y-58088447D01*
X172004062Y-58070786D01*
X172015238Y-58054826D01*
X172014939Y-58051410D01*
X172016655Y-58048439D01*
X172016058Y-58045058D01*
X172017508Y-58041951D01*
X172012465Y-58023130D01*
X172010767Y-58003719D01*
X172008097Y-57999905D01*
X172007746Y-57997915D01*
X172005217Y-57995793D01*
X172005092Y-57995614D01*
X172004230Y-57992396D01*
X172001500Y-57990484D01*
X171995827Y-57982382D01*
X171957732Y-57944287D01*
X171940072Y-57936052D01*
X171924111Y-57924876D01*
X171917368Y-57925465D01*
X171911235Y-57922606D01*
X171892416Y-57927648D01*
X171873004Y-57929346D01*
X171864899Y-57935020D01*
X171861681Y-57935883D01*
X171859769Y-57938612D01*
X171851667Y-57944286D01*
X171813571Y-57982381D01*
X171805337Y-58000038D01*
X171794158Y-58016004D01*
X171794456Y-58019420D01*
X171792742Y-58022391D01*
X171793337Y-58025770D01*
X171791889Y-58028878D01*
X171709193Y-58028878D01*
X171707679Y-58023132D01*
X171705874Y-58003439D01*
X171703551Y-58001135D01*
X171702984Y-57997915D01*
X171700479Y-57995813D01*
X171699646Y-57992650D01*
X171683489Y-57981237D01*
X171669449Y-57967312D01*
X171665168Y-57966184D01*
X171663684Y-57964938D01*
X171659326Y-57964169D01*
X171657743Y-57963051D01*
X171650901Y-57962424D01*
X171644261Y-57960674D01*
X171187117Y-57922579D01*
X171168457Y-57927661D01*
X171149193Y-57929347D01*
X171140866Y-57935177D01*
X171137618Y-57936062D01*
X171135741Y-57938765D01*
X171127856Y-57944287D01*
X171089761Y-57982382D01*
X171081526Y-58000040D01*
X171070350Y-58016003D01*
X171070648Y-58019419D01*
X171068933Y-58022391D01*
X171069529Y-58025771D01*
X171068080Y-58028879D01*
X170953794Y-58028879D01*
X170953794Y-57641439D01*
X171068933Y-57641439D01*
X171072289Y-57660472D01*
X171072203Y-57679800D01*
X171076637Y-57685133D01*
X171077842Y-57691963D01*
X171092648Y-57704387D01*
X171105005Y-57719247D01*
X171111828Y-57720481D01*
X171117142Y-57724940D01*
X171142794Y-57729463D01*
X171942794Y-57729463D01*
X171991003Y-57711916D01*
X172016655Y-57667487D01*
X172007746Y-57616963D01*
X171968446Y-57583986D01*
X171942794Y-57579463D01*
X171425210Y-57579463D01*
X171980004Y-57262438D01*
X171984485Y-57257145D01*
X171991003Y-57254773D01*
X172000667Y-57238033D01*
X172013156Y-57223285D01*
X172013186Y-57216350D01*
X172016655Y-57210344D01*
X172013298Y-57191310D01*
X172013385Y-57171983D01*
X172008950Y-57166649D01*
X172007746Y-57159820D01*
X171992939Y-57147395D01*
X171980583Y-57132536D01*
X171973759Y-57131301D01*
X171968446Y-57126843D01*
X171942794Y-57122320D01*
X171142794Y-57122320D01*
X171094585Y-57139867D01*
X171068933Y-57184296D01*
X171077842Y-57234820D01*
X171117142Y-57267797D01*
X171142794Y-57272320D01*
X171660378Y-57272320D01*
X171105584Y-57589345D01*
X171101102Y-57594637D01*
X171094585Y-57597010D01*
X171084920Y-57613749D01*
X171072432Y-57628498D01*
X171072401Y-57635432D01*
X171068933Y-57641439D01*
X170953794Y-57641439D01*
X170953794Y-56740178D01*
X171334460Y-56740178D01*
X171335993Y-56744391D01*
X171334952Y-56748753D01*
X171342378Y-56773720D01*
X171380474Y-56849909D01*
X171417729Y-56885181D01*
X171468939Y-56888255D01*
X171510145Y-56857691D01*
X171522064Y-56807792D01*
X171514637Y-56782826D01*
X171484460Y-56722472D01*
X171484460Y-56605502D01*
X171503457Y-56567507D01*
X171541451Y-56548511D01*
X171553584Y-56548511D01*
X171563032Y-56567406D01*
X171563032Y-56740178D01*
X171564565Y-56744391D01*
X171563524Y-56748752D01*
X171570950Y-56773719D01*
X171609045Y-56849909D01*
X171617199Y-56857629D01*
X171621665Y-56867932D01*
X171642586Y-56883450D01*
X171718776Y-56921546D01*
X171723230Y-56922058D01*
X171726666Y-56924941D01*
X171752318Y-56929464D01*
X171828508Y-56929464D01*
X171832721Y-56927930D01*
X171837083Y-56928972D01*
X171862049Y-56921546D01*
X171938240Y-56883450D01*
X171945959Y-56875296D01*
X171956264Y-56870830D01*
X171971781Y-56849909D01*
X172009876Y-56773719D01*
X172010388Y-56769265D01*
X172013271Y-56765830D01*
X172017794Y-56740178D01*
X172017794Y-56549702D01*
X172016260Y-56545489D01*
X172017303Y-56541128D01*
X172009876Y-56516161D01*
X172005083Y-56506576D01*
X172016655Y-56486535D01*
X172007746Y-56436011D01*
X171968446Y-56403034D01*
X171942794Y-56398511D01*
X171523746Y-56398511D01*
X171519532Y-56400044D01*
X171515172Y-56399003D01*
X171490205Y-56406429D01*
X171414015Y-56444524D01*
X171406294Y-56452678D01*
X171395992Y-56457144D01*
X171380474Y-56478065D01*
X171342378Y-56554256D01*
X171341865Y-56558709D01*
X171338983Y-56562145D01*
X171334460Y-56587797D01*
X171334460Y-56740178D01*
X170953794Y-56740178D01*
X170953794Y-55978273D01*
X171334460Y-55978273D01*
X171335993Y-55982486D01*
X171334952Y-55986848D01*
X171342378Y-56011815D01*
X171357377Y-56041813D01*
X171335599Y-56079534D01*
X171344508Y-56130058D01*
X171383808Y-56163035D01*
X171409460Y-56167558D01*
X171942794Y-56167558D01*
X171991003Y-56150011D01*
X172016655Y-56105582D01*
X172007746Y-56055058D01*
X171968446Y-56022081D01*
X171942794Y-56017558D01*
X171516717Y-56017558D01*
X171509194Y-56010034D01*
X171484460Y-55960566D01*
X171484460Y-55881692D01*
X171503457Y-55843697D01*
X171541451Y-55824701D01*
X171942794Y-55824701D01*
X171991003Y-55807154D01*
X172016655Y-55762725D01*
X172007746Y-55712201D01*
X171968446Y-55679224D01*
X171942794Y-55674701D01*
X171523746Y-55674701D01*
X171519532Y-55676234D01*
X171515172Y-55675193D01*
X171490205Y-55682619D01*
X171414015Y-55720714D01*
X171406294Y-55728868D01*
X171395992Y-55733334D01*
X171380474Y-55754255D01*
X171342378Y-55830446D01*
X171341865Y-55834899D01*
X171338983Y-55838335D01*
X171334460Y-55863987D01*
X171334460Y-55978273D01*
X170953794Y-55978273D01*
X170953794Y-55254463D01*
X171334460Y-55254463D01*
X171335993Y-55258676D01*
X171334952Y-55263038D01*
X171342378Y-55288005D01*
X171380474Y-55364194D01*
X171381663Y-55365319D01*
X171394523Y-55383686D01*
X171432618Y-55421781D01*
X171434100Y-55422472D01*
X171452109Y-55435830D01*
X171528299Y-55473925D01*
X171532752Y-55474437D01*
X171536189Y-55477321D01*
X171561841Y-55481844D01*
X171790413Y-55481844D01*
X171794626Y-55480310D01*
X171798988Y-55481352D01*
X171823955Y-55473926D01*
X171900144Y-55435830D01*
X171901269Y-55434641D01*
X171919635Y-55421782D01*
X171957731Y-55383687D01*
X171958421Y-55382205D01*
X171971781Y-55364194D01*
X172009876Y-55288004D01*
X172010388Y-55283550D01*
X172013271Y-55280115D01*
X172017794Y-55254463D01*
X172017794Y-55140177D01*
X172016260Y-55135964D01*
X172017303Y-55131603D01*
X172009876Y-55106636D01*
X171971781Y-55030445D01*
X171970593Y-55029320D01*
X171957731Y-55010952D01*
X171919635Y-54972857D01*
X171918152Y-54972165D01*
X171900144Y-54958809D01*
X171823954Y-54920714D01*
X171819500Y-54920201D01*
X171816065Y-54917319D01*
X171790413Y-54912796D01*
X171561841Y-54912796D01*
X171557627Y-54914329D01*
X171553267Y-54913288D01*
X171528300Y-54920714D01*
X171452110Y-54958809D01*
X171450984Y-54959998D01*
X171432618Y-54972858D01*
X171394523Y-55010953D01*
X171393830Y-55012437D01*
X171380474Y-55030445D01*
X171342378Y-55106636D01*
X171341865Y-55111089D01*
X171338983Y-55114525D01*
X171334460Y-55140177D01*
X171334460Y-55254463D01*
X170953794Y-55254463D01*
X170953794Y-54798510D01*
X172132080Y-54798510D01*
X172132080Y-60815176D01*
G37*
X176886576Y-51340091D02*
X177000862Y-51378186D01*
X177000862Y-51378186D02*
X177191338Y-51378186D01*
X177191338Y-51378186D02*
X177267529Y-51340091D01*
X177267529Y-51340091D02*
X177305624Y-51301995D01*
X177305624Y-51301995D02*
X177343719Y-51225805D01*
X177343719Y-51225805D02*
X177343719Y-51149614D01*
X177343719Y-51149614D02*
X177305624Y-51073424D01*
X177305624Y-51073424D02*
X177267529Y-51035329D01*
X177267529Y-51035329D02*
X177191338Y-50997233D01*
X177191338Y-50997233D02*
X177038957Y-50959138D01*
X177038957Y-50959138D02*
X176962767Y-50921043D01*
X176962767Y-50921043D02*
X176924672Y-50882948D01*
X176924672Y-50882948D02*
X176886576Y-50806757D01*
X176886576Y-50806757D02*
X176886576Y-50730567D01*
X176886576Y-50730567D02*
X176924672Y-50654376D01*
X176924672Y-50654376D02*
X176962767Y-50616281D01*
X176962767Y-50616281D02*
X177038957Y-50578186D01*
X177038957Y-50578186D02*
X177229434Y-50578186D01*
X177229434Y-50578186D02*
X177343719Y-50616281D01*
X177686577Y-51378186D02*
X177686577Y-50578186D01*
X177686577Y-50578186D02*
X177877053Y-50578186D01*
X177877053Y-50578186D02*
X177991339Y-50616281D01*
X177991339Y-50616281D02*
X178067529Y-50692471D01*
X178067529Y-50692471D02*
X178105624Y-50768662D01*
X178105624Y-50768662D02*
X178143720Y-50921043D01*
X178143720Y-50921043D02*
X178143720Y-51035329D01*
X178143720Y-51035329D02*
X178105624Y-51187710D01*
X178105624Y-51187710D02*
X178067529Y-51263900D01*
X178067529Y-51263900D02*
X177991339Y-51340091D01*
X177991339Y-51340091D02*
X177877053Y-51378186D01*
X177877053Y-51378186D02*
X177686577Y-51378186D01*
X178448481Y-51149614D02*
X178829434Y-51149614D01*
X178372291Y-51378186D02*
X178638958Y-50578186D01*
X178638958Y-50578186D02*
X178905624Y-51378186D01*
X167226802Y-46298186D02*
X166960135Y-45917233D01*
X166769659Y-46298186D02*
X166769659Y-45498186D01*
X166769659Y-45498186D02*
X167074421Y-45498186D01*
X167074421Y-45498186D02*
X167150611Y-45536281D01*
X167150611Y-45536281D02*
X167188706Y-45574376D01*
X167188706Y-45574376D02*
X167226802Y-45650567D01*
X167226802Y-45650567D02*
X167226802Y-45764852D01*
X167226802Y-45764852D02*
X167188706Y-45841043D01*
X167188706Y-45841043D02*
X167150611Y-45879138D01*
X167150611Y-45879138D02*
X167074421Y-45917233D01*
X167074421Y-45917233D02*
X166769659Y-45917233D01*
X167531563Y-46260091D02*
X167645849Y-46298186D01*
X167645849Y-46298186D02*
X167836325Y-46298186D01*
X167836325Y-46298186D02*
X167912516Y-46260091D01*
X167912516Y-46260091D02*
X167950611Y-46221995D01*
X167950611Y-46221995D02*
X167988706Y-46145805D01*
X167988706Y-46145805D02*
X167988706Y-46069614D01*
X167988706Y-46069614D02*
X167950611Y-45993424D01*
X167950611Y-45993424D02*
X167912516Y-45955329D01*
X167912516Y-45955329D02*
X167836325Y-45917233D01*
X167836325Y-45917233D02*
X167683944Y-45879138D01*
X167683944Y-45879138D02*
X167607754Y-45841043D01*
X167607754Y-45841043D02*
X167569659Y-45802948D01*
X167569659Y-45802948D02*
X167531563Y-45726757D01*
X167531563Y-45726757D02*
X167531563Y-45650567D01*
X167531563Y-45650567D02*
X167569659Y-45574376D01*
X167569659Y-45574376D02*
X167607754Y-45536281D01*
X167607754Y-45536281D02*
X167683944Y-45498186D01*
X167683944Y-45498186D02*
X167874421Y-45498186D01*
X167874421Y-45498186D02*
X167988706Y-45536281D01*
X168217278Y-45498186D02*
X168674421Y-45498186D01*
X168445849Y-46298186D02*
X168445849Y-45498186D01*
X166769659Y-61538186D02*
X166769659Y-61004852D01*
X166769659Y-61157233D02*
X166807754Y-61081043D01*
X166807754Y-61081043D02*
X166845849Y-61042948D01*
X166845849Y-61042948D02*
X166922040Y-61004852D01*
X166922040Y-61004852D02*
X166998230Y-61004852D01*
X167379182Y-61538186D02*
X167302992Y-61500091D01*
X167302992Y-61500091D02*
X167264897Y-61461995D01*
X167264897Y-61461995D02*
X167226801Y-61385805D01*
X167226801Y-61385805D02*
X167226801Y-61157233D01*
X167226801Y-61157233D02*
X167264897Y-61081043D01*
X167264897Y-61081043D02*
X167302992Y-61042948D01*
X167302992Y-61042948D02*
X167379182Y-61004852D01*
X167379182Y-61004852D02*
X167493468Y-61004852D01*
X167493468Y-61004852D02*
X167569659Y-61042948D01*
X167569659Y-61042948D02*
X167607754Y-61081043D01*
X167607754Y-61081043D02*
X167645849Y-61157233D01*
X167645849Y-61157233D02*
X167645849Y-61385805D01*
X167645849Y-61385805D02*
X167607754Y-61461995D01*
X167607754Y-61461995D02*
X167569659Y-61500091D01*
X167569659Y-61500091D02*
X167493468Y-61538186D01*
X167493468Y-61538186D02*
X167379182Y-61538186D01*
X167912516Y-61004852D02*
X168064897Y-61538186D01*
X168064897Y-61538186D02*
X168217278Y-61157233D01*
X168217278Y-61157233D02*
X168369659Y-61538186D01*
X168369659Y-61538186D02*
X168522040Y-61004852D01*
X168788706Y-60814376D02*
X168826802Y-60776281D01*
X168826802Y-60776281D02*
X168902992Y-60738186D01*
X168902992Y-60738186D02*
X169093468Y-60738186D01*
X169093468Y-60738186D02*
X169169659Y-60776281D01*
X169169659Y-60776281D02*
X169207754Y-60814376D01*
X169207754Y-60814376D02*
X169245849Y-60890567D01*
X169245849Y-60890567D02*
X169245849Y-60966757D01*
X169245849Y-60966757D02*
X169207754Y-61081043D01*
X169207754Y-61081043D02*
X168750611Y-61538186D01*
X168750611Y-61538186D02*
X169245849Y-61538186D01*
X176924671Y-64040091D02*
X176848480Y-64078186D01*
X176848480Y-64078186D02*
X176696099Y-64078186D01*
X176696099Y-64078186D02*
X176619909Y-64040091D01*
X176619909Y-64040091D02*
X176581814Y-64001995D01*
X176581814Y-64001995D02*
X176543718Y-63925805D01*
X176543718Y-63925805D02*
X176543718Y-63697233D01*
X176543718Y-63697233D02*
X176581814Y-63621043D01*
X176581814Y-63621043D02*
X176619909Y-63582948D01*
X176619909Y-63582948D02*
X176696099Y-63544852D01*
X176696099Y-63544852D02*
X176848480Y-63544852D01*
X176848480Y-63544852D02*
X176924671Y-63582948D01*
X177381813Y-64078186D02*
X177305623Y-64040091D01*
X177305623Y-64040091D02*
X177267528Y-64001995D01*
X177267528Y-64001995D02*
X177229432Y-63925805D01*
X177229432Y-63925805D02*
X177229432Y-63697233D01*
X177229432Y-63697233D02*
X177267528Y-63621043D01*
X177267528Y-63621043D02*
X177305623Y-63582948D01*
X177305623Y-63582948D02*
X177381813Y-63544852D01*
X177381813Y-63544852D02*
X177496099Y-63544852D01*
X177496099Y-63544852D02*
X177572290Y-63582948D01*
X177572290Y-63582948D02*
X177610385Y-63621043D01*
X177610385Y-63621043D02*
X177648480Y-63697233D01*
X177648480Y-63697233D02*
X177648480Y-63925805D01*
X177648480Y-63925805D02*
X177610385Y-64001995D01*
X177610385Y-64001995D02*
X177572290Y-64040091D01*
X177572290Y-64040091D02*
X177496099Y-64078186D01*
X177496099Y-64078186D02*
X177381813Y-64078186D01*
X178105623Y-64078186D02*
X178029433Y-64040091D01*
X178029433Y-64040091D02*
X177991338Y-63963900D01*
X177991338Y-63963900D02*
X177991338Y-63278186D01*
X178372290Y-63354376D02*
X178410386Y-63316281D01*
X178410386Y-63316281D02*
X178486576Y-63278186D01*
X178486576Y-63278186D02*
X178677052Y-63278186D01*
X178677052Y-63278186D02*
X178753243Y-63316281D01*
X178753243Y-63316281D02*
X178791338Y-63354376D01*
X178791338Y-63354376D02*
X178829433Y-63430567D01*
X178829433Y-63430567D02*
X178829433Y-63506757D01*
X178829433Y-63506757D02*
X178791338Y-63621043D01*
X178791338Y-63621043D02*
X178334195Y-64078186D01*
X178334195Y-64078186D02*
X178829433Y-64078186D01*
X176924671Y-66580091D02*
X176848480Y-66618186D01*
X176848480Y-66618186D02*
X176696099Y-66618186D01*
X176696099Y-66618186D02*
X176619909Y-66580091D01*
X176619909Y-66580091D02*
X176581814Y-66541995D01*
X176581814Y-66541995D02*
X176543718Y-66465805D01*
X176543718Y-66465805D02*
X176543718Y-66237233D01*
X176543718Y-66237233D02*
X176581814Y-66161043D01*
X176581814Y-66161043D02*
X176619909Y-66122948D01*
X176619909Y-66122948D02*
X176696099Y-66084852D01*
X176696099Y-66084852D02*
X176848480Y-66084852D01*
X176848480Y-66084852D02*
X176924671Y-66122948D01*
X177381813Y-66618186D02*
X177305623Y-66580091D01*
X177305623Y-66580091D02*
X177267528Y-66541995D01*
X177267528Y-66541995D02*
X177229432Y-66465805D01*
X177229432Y-66465805D02*
X177229432Y-66237233D01*
X177229432Y-66237233D02*
X177267528Y-66161043D01*
X177267528Y-66161043D02*
X177305623Y-66122948D01*
X177305623Y-66122948D02*
X177381813Y-66084852D01*
X177381813Y-66084852D02*
X177496099Y-66084852D01*
X177496099Y-66084852D02*
X177572290Y-66122948D01*
X177572290Y-66122948D02*
X177610385Y-66161043D01*
X177610385Y-66161043D02*
X177648480Y-66237233D01*
X177648480Y-66237233D02*
X177648480Y-66465805D01*
X177648480Y-66465805D02*
X177610385Y-66541995D01*
X177610385Y-66541995D02*
X177572290Y-66580091D01*
X177572290Y-66580091D02*
X177496099Y-66618186D01*
X177496099Y-66618186D02*
X177381813Y-66618186D01*
X178105623Y-66618186D02*
X178029433Y-66580091D01*
X178029433Y-66580091D02*
X177991338Y-66503900D01*
X177991338Y-66503900D02*
X177991338Y-65818186D01*
X178334195Y-65818186D02*
X178829433Y-65818186D01*
X178829433Y-65818186D02*
X178562767Y-66122948D01*
X178562767Y-66122948D02*
X178677052Y-66122948D01*
X178677052Y-66122948D02*
X178753243Y-66161043D01*
X178753243Y-66161043D02*
X178791338Y-66199138D01*
X178791338Y-66199138D02*
X178829433Y-66275329D01*
X178829433Y-66275329D02*
X178829433Y-66465805D01*
X178829433Y-66465805D02*
X178791338Y-66541995D01*
X178791338Y-66541995D02*
X178753243Y-66580091D01*
X178753243Y-66580091D02*
X178677052Y-66618186D01*
X178677052Y-66618186D02*
X178448481Y-66618186D01*
X178448481Y-66618186D02*
X178372290Y-66580091D01*
X178372290Y-66580091D02*
X178334195Y-66541995D01*
X166769659Y-58998186D02*
X166769659Y-58464852D01*
X166769659Y-58617233D02*
X166807754Y-58541043D01*
X166807754Y-58541043D02*
X166845849Y-58502948D01*
X166845849Y-58502948D02*
X166922040Y-58464852D01*
X166922040Y-58464852D02*
X166998230Y-58464852D01*
X167379182Y-58998186D02*
X167302992Y-58960091D01*
X167302992Y-58960091D02*
X167264897Y-58921995D01*
X167264897Y-58921995D02*
X167226801Y-58845805D01*
X167226801Y-58845805D02*
X167226801Y-58617233D01*
X167226801Y-58617233D02*
X167264897Y-58541043D01*
X167264897Y-58541043D02*
X167302992Y-58502948D01*
X167302992Y-58502948D02*
X167379182Y-58464852D01*
X167379182Y-58464852D02*
X167493468Y-58464852D01*
X167493468Y-58464852D02*
X167569659Y-58502948D01*
X167569659Y-58502948D02*
X167607754Y-58541043D01*
X167607754Y-58541043D02*
X167645849Y-58617233D01*
X167645849Y-58617233D02*
X167645849Y-58845805D01*
X167645849Y-58845805D02*
X167607754Y-58921995D01*
X167607754Y-58921995D02*
X167569659Y-58960091D01*
X167569659Y-58960091D02*
X167493468Y-58998186D01*
X167493468Y-58998186D02*
X167379182Y-58998186D01*
X167912516Y-58464852D02*
X168064897Y-58998186D01*
X168064897Y-58998186D02*
X168217278Y-58617233D01*
X168217278Y-58617233D02*
X168369659Y-58998186D01*
X168369659Y-58998186D02*
X168522040Y-58464852D01*
X169245849Y-58998186D02*
X168788706Y-58998186D01*
X169017278Y-58998186D02*
X169017278Y-58198186D01*
X169017278Y-58198186D02*
X168941087Y-58312471D01*
X168941087Y-58312471D02*
X168864897Y-58388662D01*
X168864897Y-58388662D02*
X168788706Y-58426757D01*
X166769659Y-50959138D02*
X167036325Y-50959138D01*
X167150611Y-51378186D02*
X166769659Y-51378186D01*
X166769659Y-51378186D02*
X166769659Y-50578186D01*
X166769659Y-50578186D02*
X167150611Y-50578186D01*
X167493469Y-51378186D02*
X167493469Y-50578186D01*
X167493469Y-50578186D02*
X167950612Y-51378186D01*
X167950612Y-51378186D02*
X167950612Y-50578186D01*
X168788707Y-51301995D02*
X168750611Y-51340091D01*
X168750611Y-51340091D02*
X168636326Y-51378186D01*
X168636326Y-51378186D02*
X168560135Y-51378186D01*
X168560135Y-51378186D02*
X168445849Y-51340091D01*
X168445849Y-51340091D02*
X168369659Y-51263900D01*
X168369659Y-51263900D02*
X168331564Y-51187710D01*
X168331564Y-51187710D02*
X168293468Y-51035329D01*
X168293468Y-51035329D02*
X168293468Y-50921043D01*
X168293468Y-50921043D02*
X168331564Y-50768662D01*
X168331564Y-50768662D02*
X168369659Y-50692471D01*
X168369659Y-50692471D02*
X168445849Y-50616281D01*
X168445849Y-50616281D02*
X168560135Y-50578186D01*
X168560135Y-50578186D02*
X168636326Y-50578186D01*
X168636326Y-50578186D02*
X168750611Y-50616281D01*
X168750611Y-50616281D02*
X168788707Y-50654376D01*
X169093468Y-51149614D02*
X169474421Y-51149614D01*
X169017278Y-51378186D02*
X169283945Y-50578186D01*
X169283945Y-50578186D02*
X169550611Y-51378186D01*
X171328123Y-82280704D02*
X170994790Y-81804513D01*
X170756695Y-82280704D02*
X170756695Y-81280704D01*
X170756695Y-81280704D02*
X171137647Y-81280704D01*
X171137647Y-81280704D02*
X171232885Y-81328323D01*
X171232885Y-81328323D02*
X171280504Y-81375942D01*
X171280504Y-81375942D02*
X171328123Y-81471180D01*
X171328123Y-81471180D02*
X171328123Y-81614037D01*
X171328123Y-81614037D02*
X171280504Y-81709275D01*
X171280504Y-81709275D02*
X171232885Y-81756894D01*
X171232885Y-81756894D02*
X171137647Y-81804513D01*
X171137647Y-81804513D02*
X170756695Y-81804513D01*
X171756695Y-81756894D02*
X172090028Y-81756894D01*
X172232885Y-82280704D02*
X171756695Y-82280704D01*
X171756695Y-82280704D02*
X171756695Y-81280704D01*
X171756695Y-81280704D02*
X172232885Y-81280704D01*
X172613838Y-82233085D02*
X172756695Y-82280704D01*
X172756695Y-82280704D02*
X172994790Y-82280704D01*
X172994790Y-82280704D02*
X173090028Y-82233085D01*
X173090028Y-82233085D02*
X173137647Y-82185465D01*
X173137647Y-82185465D02*
X173185266Y-82090227D01*
X173185266Y-82090227D02*
X173185266Y-81994989D01*
X173185266Y-81994989D02*
X173137647Y-81899751D01*
X173137647Y-81899751D02*
X173090028Y-81852132D01*
X173090028Y-81852132D02*
X172994790Y-81804513D01*
X172994790Y-81804513D02*
X172804314Y-81756894D01*
X172804314Y-81756894D02*
X172709076Y-81709275D01*
X172709076Y-81709275D02*
X172661457Y-81661656D01*
X172661457Y-81661656D02*
X172613838Y-81566418D01*
X172613838Y-81566418D02*
X172613838Y-81471180D01*
X172613838Y-81471180D02*
X172661457Y-81375942D01*
X172661457Y-81375942D02*
X172709076Y-81328323D01*
X172709076Y-81328323D02*
X172804314Y-81280704D01*
X172804314Y-81280704D02*
X173042409Y-81280704D01*
X173042409Y-81280704D02*
X173185266Y-81328323D01*
X173613838Y-81756894D02*
X173947171Y-81756894D01*
X174090028Y-82280704D02*
X173613838Y-82280704D01*
X173613838Y-82280704D02*
X173613838Y-81280704D01*
X173613838Y-81280704D02*
X174090028Y-81280704D01*
X174375743Y-81280704D02*
X174947171Y-81280704D01*
X174661457Y-82280704D02*
X174661457Y-81280704D01*
%TO.C,T1*%
X169480487Y-36375888D02*
X169480487Y-39225888D01*
X169480487Y-39225888D02*
X176080487Y-39225888D01*
X172780487Y-36375888D02*
X169480487Y-36375888D01*
X172780487Y-36375888D02*
X176080487Y-36375888D01*
X174730487Y-36375888D02*
X170830487Y-36375888D01*
X176080487Y-39225888D02*
X176080487Y-36375888D01*
D11*
%TO.C,D14*%
X152226680Y-123915110D02*
X152613050Y-124018637D01*
X152613050Y-124018637D02*
X152755400Y-123487378D01*
X152613050Y-124018637D02*
X152470699Y-124549897D01*
X152613050Y-124018637D02*
X153296133Y-123787558D01*
X153296133Y-123787558D02*
X153089078Y-124560299D01*
X153192605Y-124173929D02*
X153675568Y-124303338D01*
X153089078Y-124560299D02*
X152613050Y-124018637D01*
%TO.C,D26*%
X152530493Y-90825897D02*
X152930493Y-90825897D01*
X152930493Y-90825897D02*
X152930493Y-90275897D01*
X152930493Y-90825897D02*
X152930493Y-91375897D01*
X152930493Y-90825897D02*
X153530493Y-90425897D01*
X153530493Y-90425897D02*
X153530493Y-91225897D01*
X153530493Y-90825897D02*
X154030493Y-90825897D01*
X153530493Y-91225897D02*
X152930493Y-90825897D01*
D10*
%TO.C,S16*%
X124280496Y-60415899D02*
X124280496Y-61415899D01*
X124280496Y-47415899D02*
X124280496Y-48415899D01*
X124280496Y-47415899D02*
X123280496Y-47415899D01*
X123280496Y-61415899D02*
X124280496Y-61415899D01*
X111280496Y-47415899D02*
X110280496Y-47415899D01*
X110280496Y-61415899D02*
X111280496Y-61415899D01*
X110280496Y-61415899D02*
X110280496Y-60415899D01*
X110280496Y-48415899D02*
X110280496Y-47415899D01*
D12*
%TO.C,REF\u002A\u002A*%
X163130508Y-90125886D02*
X179930508Y-90125886D01*
X163130508Y-103925886D02*
X163130508Y-90125886D01*
X179930508Y-90125886D02*
X179930508Y-103925886D01*
X179930508Y-103925886D02*
X163130508Y-103925886D01*
D11*
%TO.C,D6*%
X116530492Y-114415887D02*
X116930492Y-114415887D01*
X116930492Y-114415887D02*
X116930492Y-113865887D01*
X116930492Y-114415887D02*
X116930492Y-114965887D01*
X116930492Y-114415887D02*
X117530492Y-114015887D01*
X117530492Y-114015887D02*
X117530492Y-114815887D01*
X117530492Y-114415887D02*
X118030492Y-114415887D01*
X117530492Y-114815887D02*
X116930492Y-114415887D01*
%TO.C,D13*%
X152530493Y-54525895D02*
X152930493Y-54525895D01*
X152930493Y-54525895D02*
X152930493Y-53975895D01*
X152930493Y-54525895D02*
X152930493Y-55075895D01*
X152930493Y-54525895D02*
X153530493Y-54125895D01*
X153530493Y-54125895D02*
X153530493Y-54925895D01*
X153530493Y-54525895D02*
X154030493Y-54525895D01*
X153530493Y-54925895D02*
X152930493Y-54525895D01*
%TO.C,D19*%
X77335251Y-67322689D02*
X77733729Y-67287827D01*
X77733729Y-67287827D02*
X77685793Y-66739919D01*
X77733729Y-67287827D02*
X77781665Y-67835734D01*
X77733729Y-67287827D02*
X78296583Y-66837055D01*
X78296583Y-66837055D02*
X78366308Y-67634011D01*
X78331446Y-67235533D02*
X78829543Y-67191955D01*
X78366308Y-67634011D02*
X77733729Y-67287827D01*
D10*
%TO.C,S1*%
X51694119Y-98375616D02*
X51781275Y-99371811D01*
X50561095Y-85425085D02*
X50648250Y-86421280D01*
X50561095Y-85425085D02*
X49564900Y-85512241D01*
X50785080Y-99458966D02*
X51781275Y-99371811D01*
X37610564Y-86558110D02*
X36614369Y-86645265D01*
X37834549Y-100591991D02*
X38830744Y-100504835D01*
X37834549Y-100591991D02*
X37747394Y-99595796D01*
X36701525Y-87641460D02*
X36614369Y-86645265D01*
D11*
%TO.C,D23*%
X116530494Y-48715883D02*
X116930494Y-48715883D01*
X116930494Y-48715883D02*
X116930494Y-48165883D01*
X116930494Y-48715883D02*
X116930494Y-49265883D01*
X116930494Y-48715883D02*
X117530494Y-48315883D01*
X117530494Y-48315883D02*
X117530494Y-49115883D01*
X117530494Y-48715883D02*
X118030494Y-48715883D01*
X117530494Y-49115883D02*
X116930494Y-48715883D01*
%TO.C,D24*%
X134530488Y-88325890D02*
X134930488Y-88325890D01*
X134930488Y-88325890D02*
X134930488Y-87775890D01*
X134930488Y-88325890D02*
X134930488Y-88875890D01*
X134930488Y-88325890D02*
X135530488Y-87925890D01*
X135530488Y-87925890D02*
X135530488Y-88725890D01*
X135530488Y-88325890D02*
X136030488Y-88325890D01*
X135530488Y-88725890D02*
X134930488Y-88325890D01*
D10*
%TO.C,S4*%
X68143980Y-79871506D02*
X68231136Y-80867701D01*
X67010956Y-66920975D02*
X67098111Y-67917170D01*
X67010956Y-66920975D02*
X66014761Y-67008131D01*
X67234941Y-80954856D02*
X68231136Y-80867701D01*
X54060425Y-68054000D02*
X53064230Y-68141155D01*
X54284410Y-82087881D02*
X55280605Y-82000725D01*
X54284410Y-82087881D02*
X54197255Y-81091686D01*
X53151386Y-69137350D02*
X53064230Y-68141155D01*
D11*
%TO.C,D7*%
X116530496Y-80415891D02*
X116930496Y-80415891D01*
X116930496Y-80415891D02*
X116930496Y-79865891D01*
X116930496Y-80415891D02*
X116930496Y-80965891D01*
X116930496Y-80415891D02*
X117530496Y-80015891D01*
X117530496Y-80015891D02*
X117530496Y-80815891D01*
X117530496Y-80415891D02*
X118030496Y-80415891D01*
X117530496Y-80815891D02*
X116930496Y-80415891D01*
%TO.C,D27*%
X152530495Y-56825893D02*
X152930495Y-56825893D01*
X152930495Y-56825893D02*
X152930495Y-56275893D01*
X152930495Y-56825893D02*
X152930495Y-57375893D01*
X152930495Y-56825893D02*
X153530495Y-56425893D01*
X153530495Y-56425893D02*
X153530495Y-57225893D01*
X153530495Y-56825893D02*
X154030495Y-56825893D01*
X153530495Y-57225893D02*
X152930495Y-56825893D01*
%TO.C,D1*%
X62166580Y-100470863D02*
X62565058Y-100436001D01*
X62565058Y-100436001D02*
X62517122Y-99888093D01*
X62565058Y-100436001D02*
X62612994Y-100983908D01*
X62565058Y-100436001D02*
X63127912Y-99985229D01*
X63127912Y-99985229D02*
X63197637Y-100782185D01*
X63162775Y-100383707D02*
X63660872Y-100340129D01*
X63197637Y-100782185D02*
X62565058Y-100436001D01*
D10*
%TO.C,S6*%
X87557117Y-95238031D02*
X87644273Y-96234226D01*
X86424093Y-82287500D02*
X86511248Y-83283695D01*
X86424093Y-82287500D02*
X85427898Y-82374656D01*
X86648078Y-96321381D02*
X87644273Y-96234226D01*
X73473562Y-83420525D02*
X72477367Y-83507680D01*
X73697547Y-97454406D02*
X74693742Y-97367250D01*
X73697547Y-97454406D02*
X73610392Y-96458211D01*
X72564523Y-84503875D02*
X72477367Y-83507680D01*
%TO.C,S21*%
X142280498Y-66025885D02*
X142280498Y-67025885D01*
X142280498Y-53025885D02*
X142280498Y-54025885D01*
X142280498Y-53025885D02*
X141280498Y-53025885D01*
X141280498Y-67025885D02*
X142280498Y-67025885D01*
X129280498Y-53025885D02*
X128280498Y-53025885D01*
X128280498Y-67025885D02*
X129280498Y-67025885D01*
X128280498Y-67025885D02*
X128280498Y-66025885D01*
X128280498Y-54025885D02*
X128280498Y-53025885D01*
%TO.C,S12*%
X106280493Y-49025891D02*
X106280493Y-50025891D01*
X106280493Y-36025891D02*
X106280493Y-37025891D01*
X106280493Y-36025891D02*
X105280493Y-36025891D01*
X105280493Y-50025891D02*
X106280493Y-50025891D01*
X93280493Y-36025891D02*
X92280493Y-36025891D01*
X92280493Y-50025891D02*
X93280493Y-50025891D01*
X92280493Y-50025891D02*
X92280493Y-49025891D01*
X92280493Y-37025891D02*
X92280493Y-36025891D01*
D11*
%TO.C,D3*%
X77134785Y-65031435D02*
X77533263Y-64996573D01*
X77533263Y-64996573D02*
X77485327Y-64448665D01*
X77533263Y-64996573D02*
X77581199Y-65544480D01*
X77533263Y-64996573D02*
X78096117Y-64545801D01*
X78096117Y-64545801D02*
X78165842Y-65342757D01*
X78130980Y-64944279D02*
X78629077Y-64900701D01*
X78165842Y-65342757D02*
X77533263Y-64996573D01*
D10*
%TO.C,S18*%
X142280498Y-117025891D02*
X142280498Y-118025891D01*
X142280498Y-104025891D02*
X142280498Y-105025891D01*
X142280498Y-104025891D02*
X141280498Y-104025891D01*
X141280498Y-118025891D02*
X142280498Y-118025891D01*
X129280498Y-104025891D02*
X128280498Y-104025891D01*
X128280498Y-118025891D02*
X129280498Y-118025891D01*
X128280498Y-118025891D02*
X128280498Y-117025891D01*
X128280498Y-105025891D02*
X128280498Y-104025891D01*
%TO.C,S9*%
X106280497Y-100025882D02*
X106280497Y-101025882D01*
X106280497Y-87025882D02*
X106280497Y-88025882D01*
X106280497Y-87025882D02*
X105280497Y-87025882D01*
X105280497Y-101025882D02*
X106280497Y-101025882D01*
X93280497Y-87025882D02*
X92280497Y-87025882D01*
X92280497Y-101025882D02*
X93280497Y-101025882D01*
X92280497Y-101025882D02*
X92280497Y-100025882D01*
X92280497Y-88025882D02*
X92280497Y-87025882D01*
D11*
%TO.C,D18*%
X80298546Y-101193313D02*
X80697024Y-101158451D01*
X80697024Y-101158451D02*
X80649088Y-100610543D01*
X80697024Y-101158451D02*
X80744960Y-101706358D01*
X80697024Y-101158451D02*
X81259878Y-100707679D01*
X81259878Y-100707679D02*
X81329603Y-101504635D01*
X81294741Y-101106157D02*
X81792838Y-101062579D01*
X81329603Y-101504635D02*
X80697024Y-101158451D01*
D10*
%TO.C,S8*%
X84593829Y-61367399D02*
X84680985Y-62363594D01*
X83460805Y-48416868D02*
X83547960Y-49413063D01*
X83460805Y-48416868D02*
X82464610Y-48504024D01*
X83684790Y-62450749D02*
X84680985Y-62363594D01*
X70510274Y-49549893D02*
X69514079Y-49637048D01*
X70734259Y-63583774D02*
X71730454Y-63496618D01*
X70734259Y-63583774D02*
X70647104Y-62587579D01*
X69601235Y-50633243D02*
X69514079Y-49637048D01*
D11*
%TO.C,D2*%
X80098082Y-98902060D02*
X80496560Y-98867198D01*
X80496560Y-98867198D02*
X80448624Y-98319290D01*
X80496560Y-98867198D02*
X80544496Y-99415105D01*
X80496560Y-98867198D02*
X81059414Y-98416426D01*
X81059414Y-98416426D02*
X81129139Y-99213382D01*
X81094277Y-98814904D02*
X81592374Y-98771326D01*
X81129139Y-99213382D02*
X80496560Y-98867198D01*
%TO.C,D12*%
X152530504Y-88525880D02*
X152930504Y-88525880D01*
X152930504Y-88525880D02*
X152930504Y-87975880D01*
X152930504Y-88525880D02*
X152930504Y-89075880D01*
X152930504Y-88525880D02*
X153530504Y-88125880D01*
X153530504Y-88125880D02*
X153530504Y-88925880D01*
X153530504Y-88525880D02*
X154030504Y-88525880D01*
X153530504Y-88925880D02*
X152930504Y-88525880D01*
D10*
%TO.C,S5*%
X89038765Y-112173327D02*
X89125921Y-113169522D01*
X87905741Y-99222796D02*
X87992896Y-100218991D01*
X87905741Y-99222796D02*
X86909546Y-99309952D01*
X88129726Y-113256677D02*
X89125921Y-113169522D01*
X74955210Y-100355821D02*
X73959015Y-100442976D01*
X75179195Y-114389702D02*
X76175390Y-114302546D01*
X75179195Y-114389702D02*
X75092040Y-113393507D01*
X74046171Y-101439171D02*
X73959015Y-100442976D01*
D11*
%TO.C,D17*%
X59403744Y-68891482D02*
X59802222Y-68856620D01*
X59802222Y-68856620D02*
X59754286Y-68308712D01*
X59802222Y-68856620D02*
X59850158Y-69404527D01*
X59802222Y-68856620D02*
X60365076Y-68405848D01*
X60365076Y-68405848D02*
X60434801Y-69202804D01*
X60399939Y-68804326D02*
X60898036Y-68760748D01*
X60434801Y-69202804D02*
X59802222Y-68856620D01*
D10*
%TO.C,S13*%
X124280488Y-111415884D02*
X124280488Y-112415884D01*
X124280488Y-98415884D02*
X124280488Y-99415884D01*
X124280488Y-98415884D02*
X123280488Y-98415884D01*
X123280488Y-112415884D02*
X124280488Y-112415884D01*
X111280488Y-98415884D02*
X110280488Y-98415884D01*
X110280488Y-112415884D02*
X111280488Y-112415884D01*
X110280488Y-112415884D02*
X110280488Y-111415884D01*
X110280488Y-99415884D02*
X110280488Y-98415884D01*
D11*
%TO.C,D16*%
X62367041Y-102762108D02*
X62765519Y-102727246D01*
X62765519Y-102727246D02*
X62717583Y-102179338D01*
X62765519Y-102727246D02*
X62813455Y-103275153D01*
X62765519Y-102727246D02*
X63328373Y-102276474D01*
X63328373Y-102276474D02*
X63398098Y-103073430D01*
X63363236Y-102674952D02*
X63861333Y-102631374D01*
X63398098Y-103073430D02*
X62765519Y-102727246D01*
D10*
%TO.C,S10*%
X106280505Y-83025889D02*
X106280505Y-84025889D01*
X106280505Y-70025889D02*
X106280505Y-71025889D01*
X106280505Y-70025889D02*
X105280505Y-70025889D01*
X105280505Y-84025889D02*
X106280505Y-84025889D01*
X93280505Y-70025889D02*
X92280505Y-70025889D01*
X92280505Y-84025889D02*
X93280505Y-84025889D01*
X92280505Y-84025889D02*
X92280505Y-83025889D01*
X92280505Y-71025889D02*
X92280505Y-70025889D01*
%TO.C,S22*%
X142280507Y-49025887D02*
X142280507Y-50025887D01*
X142280507Y-36025887D02*
X142280507Y-37025887D01*
X142280507Y-36025887D02*
X141280507Y-36025887D01*
X141280507Y-50025887D02*
X142280507Y-50025887D01*
X129280507Y-36025887D02*
X128280507Y-36025887D01*
X128280507Y-50025887D02*
X129280507Y-50025887D01*
X128280507Y-50025887D02*
X128280507Y-49025887D01*
X128280507Y-37025887D02*
X128280507Y-36025887D01*
%TO.C,Nice!View1*%
X166280493Y-76575888D02*
X179280493Y-76575888D01*
X179280493Y-76575888D02*
X179280493Y-74075888D01*
X166280493Y-74075888D02*
X166280493Y-76575888D01*
X179280493Y-74075888D02*
X166280493Y-74075888D01*
D11*
%TO.C,D15*%
X42953889Y-87395606D02*
X43352367Y-87360744D01*
X43352367Y-87360744D02*
X43304431Y-86812836D01*
X43352367Y-87360744D02*
X43400303Y-87908651D01*
X43352367Y-87360744D02*
X43915221Y-86909972D01*
X43915221Y-86909972D02*
X43984946Y-87706928D01*
X43950084Y-87308450D02*
X44448181Y-87264872D01*
X43984946Y-87706928D02*
X43352367Y-87360744D01*
%TO.C,D11*%
X134530489Y-52025889D02*
X134930489Y-52025889D01*
X134930489Y-52025889D02*
X134930489Y-51475889D01*
X134930489Y-52025889D02*
X134930489Y-52575889D01*
X134930489Y-52025889D02*
X135530489Y-51625889D01*
X135530489Y-51625889D02*
X135530489Y-52425889D01*
X135530489Y-52025889D02*
X136030489Y-52025889D01*
X135530489Y-52425889D02*
X134930489Y-52025889D01*
D10*
%TO.C,S2*%
X71107273Y-113742121D02*
X71194429Y-114738316D01*
X69974249Y-100791590D02*
X70061404Y-101787785D01*
X69974249Y-100791590D02*
X68978054Y-100878746D01*
X70198234Y-114825471D02*
X71194429Y-114738316D01*
X57023718Y-101924615D02*
X56027523Y-102011770D01*
X57247703Y-115958496D02*
X58243898Y-115871340D01*
X57247703Y-115958496D02*
X57160548Y-114962301D01*
X56114679Y-103007965D02*
X56027523Y-102011770D01*
%TO.C,S11*%
X106280498Y-66025887D02*
X106280498Y-67025887D01*
X106280498Y-53025887D02*
X106280498Y-54025887D01*
X106280498Y-53025887D02*
X105280498Y-53025887D01*
X105280498Y-67025887D02*
X106280498Y-67025887D01*
X93280498Y-53025887D02*
X92280498Y-53025887D01*
X92280498Y-67025887D02*
X93280498Y-67025887D01*
X92280498Y-67025887D02*
X92280498Y-66025887D01*
X92280498Y-54025887D02*
X92280498Y-53025887D01*
%TO.C,S7*%
X86075487Y-78302699D02*
X86162643Y-79298894D01*
X84942463Y-65352168D02*
X85029618Y-66348363D01*
X84942463Y-65352168D02*
X83946268Y-65439324D01*
X85166448Y-79386049D02*
X86162643Y-79298894D01*
X71991932Y-66485193D02*
X70995737Y-66572348D01*
X72215917Y-80519074D02*
X73212112Y-80431918D01*
X72215917Y-80519074D02*
X72128762Y-79522879D01*
X71082893Y-67568543D02*
X70995737Y-66572348D01*
%TO.C,S17*%
X124280491Y-43415894D02*
X124280491Y-44415894D01*
X124280491Y-30415894D02*
X124280491Y-31415894D01*
X124280491Y-30415894D02*
X123280491Y-30415894D01*
X123280491Y-44415894D02*
X124280491Y-44415894D01*
X111280491Y-30415894D02*
X110280491Y-30415894D01*
X110280491Y-44415894D02*
X111280491Y-44415894D01*
X110280491Y-44415894D02*
X110280491Y-43415894D01*
X110280491Y-31415894D02*
X110280491Y-30415894D01*
%TO.C,S25*%
X160280498Y-68525880D02*
X160280498Y-69525880D01*
X160280498Y-55525880D02*
X160280498Y-56525880D01*
X160280498Y-55525880D02*
X159280498Y-55525880D01*
X159280498Y-69525880D02*
X160280498Y-69525880D01*
X147280498Y-55525880D02*
X146280498Y-55525880D01*
X146280498Y-69525880D02*
X147280498Y-69525880D01*
X146280498Y-69525880D02*
X146280498Y-68525880D01*
X146280498Y-56525880D02*
X146280498Y-55525880D01*
%TO.C,S28*%
X181461392Y-122842586D02*
X182327418Y-123342586D01*
X170203062Y-116342586D02*
X171069088Y-116842586D01*
X170203062Y-116342586D02*
X169703062Y-117208612D01*
X181827418Y-124208612D02*
X182327418Y-123342586D01*
X163703062Y-127600916D02*
X163203062Y-128466942D01*
X175327418Y-135466942D02*
X175827418Y-134600916D01*
X175327418Y-135466942D02*
X174461392Y-134966942D01*
X164069088Y-128966942D02*
X163203062Y-128466942D01*
%TO.C,MCU1*%
X181670499Y-37045891D02*
X163890499Y-37045891D01*
X163890499Y-37045891D02*
X163890499Y-70065891D01*
X181670499Y-70065891D02*
X181670499Y-37045891D01*
X163890499Y-70065891D02*
X181670499Y-70065891D01*
%TO.C,S19*%
X142280496Y-100025885D02*
X142280496Y-101025885D01*
X142280496Y-87025885D02*
X142280496Y-88025885D01*
X142280496Y-87025885D02*
X141280496Y-87025885D01*
X141280496Y-101025885D02*
X142280496Y-101025885D01*
X129280496Y-87025885D02*
X128280496Y-87025885D01*
X128280496Y-101025885D02*
X129280496Y-101025885D01*
X128280496Y-101025885D02*
X128280496Y-100025885D01*
X128280496Y-88025885D02*
X128280496Y-87025885D01*
%TO.C,_1*%
X175780505Y-83575885D02*
X175780505Y-83325885D01*
X175780505Y-83575885D02*
X169780505Y-83575885D01*
X175780505Y-80075885D02*
X175780505Y-80325885D01*
X175780505Y-80075885D02*
X169780505Y-80075885D01*
X169780505Y-83575885D02*
X169780505Y-83325885D01*
X169780505Y-80075885D02*
X169780505Y-80325885D01*
%TO.C,S15*%
X124280491Y-77415889D02*
X124280491Y-78415889D01*
X124280491Y-64415889D02*
X124280491Y-65415889D01*
X124280491Y-64415889D02*
X123280491Y-64415889D01*
X123280491Y-78415889D02*
X124280491Y-78415889D01*
X111280491Y-64415889D02*
X110280491Y-64415889D01*
X110280491Y-78415889D02*
X111280491Y-78415889D01*
X110280491Y-78415889D02*
X110280491Y-77415889D01*
X110280491Y-65415889D02*
X110280491Y-64415889D01*
%TO.C,S20*%
X142280491Y-83025890D02*
X142280491Y-84025890D01*
X142280491Y-70025890D02*
X142280491Y-71025890D01*
X142280491Y-70025890D02*
X141280491Y-70025890D01*
X141280491Y-84025890D02*
X142280491Y-84025890D01*
X129280491Y-70025890D02*
X128280491Y-70025890D01*
X128280491Y-84025890D02*
X129280491Y-84025890D01*
X128280491Y-84025890D02*
X128280491Y-83025890D01*
X128280491Y-71025890D02*
X128280491Y-70025890D01*
%TO.C,S3*%
X69625623Y-96806810D02*
X69712779Y-97803005D01*
X68492599Y-83856279D02*
X68579754Y-84852474D01*
X68492599Y-83856279D02*
X67496404Y-83943435D01*
X68716584Y-97890160D02*
X69712779Y-97803005D01*
X55542068Y-84989304D02*
X54545873Y-85076459D01*
X55766053Y-99023185D02*
X56762248Y-98936029D01*
X55766053Y-99023185D02*
X55678898Y-98026990D01*
X54633029Y-86072654D02*
X54545873Y-85076459D01*
D11*
%TO.C,D28*%
X175387202Y-117863401D02*
X175733612Y-118063401D01*
X175733612Y-118063401D02*
X176008612Y-117587087D01*
X175733612Y-118063401D02*
X175458612Y-118539715D01*
X175733612Y-118063401D02*
X176453227Y-118016991D01*
X176453227Y-118016991D02*
X176053227Y-118709811D01*
X176253227Y-118363401D02*
X176686240Y-118613401D01*
X176053227Y-118709811D02*
X175733612Y-118063401D01*
%TO.C,D10*%
X134530504Y-86025886D02*
X134930504Y-86025886D01*
X134930504Y-86025886D02*
X134930504Y-85475886D01*
X134930504Y-86025886D02*
X134930504Y-86575886D01*
X134930504Y-86025886D02*
X135530504Y-85625886D01*
X135530504Y-85625886D02*
X135530504Y-86425886D01*
X135530504Y-86025886D02*
X136030504Y-86025886D01*
X135530504Y-86425886D02*
X134930504Y-86025886D01*
%TO.C,D29*%
X165780485Y-105525879D02*
X166180485Y-105525879D01*
X166180485Y-105525879D02*
X166180485Y-104975879D01*
X166180485Y-105525879D02*
X166180485Y-106075879D01*
X166180485Y-105525879D02*
X166780485Y-105125879D01*
X166780485Y-105125879D02*
X166780485Y-105925879D01*
X166780485Y-105525879D02*
X167280485Y-105525879D01*
X166780485Y-105925879D02*
X166180485Y-105525879D01*
D10*
%TO.C,S26*%
X160280492Y-51525890D02*
X160280492Y-52525890D01*
X160280492Y-38525890D02*
X160280492Y-39525890D01*
X160280492Y-38525890D02*
X159280492Y-38525890D01*
X159280492Y-52525890D02*
X160280492Y-52525890D01*
X147280492Y-38525890D02*
X146280492Y-38525890D01*
X146280492Y-52525890D02*
X147280492Y-52525890D01*
X146280492Y-52525890D02*
X146280492Y-51525890D01*
X146280492Y-39525890D02*
X146280492Y-38525890D01*
D11*
%TO.C,D5*%
X98530498Y-52025887D02*
X98930498Y-52025887D01*
X98930498Y-52025887D02*
X98930498Y-51475887D01*
X98930498Y-52025887D02*
X98930498Y-52575887D01*
X98930498Y-52025887D02*
X99530498Y-51625887D01*
X99530498Y-51625887D02*
X99530498Y-52425887D01*
X99530498Y-52025887D02*
X100030498Y-52025887D01*
X99530498Y-52425887D02*
X98930498Y-52025887D01*
%TO.C,D25*%
X134530489Y-54325891D02*
X134930489Y-54325891D01*
X134930489Y-54325891D02*
X134930489Y-53775891D01*
X134930489Y-54325891D02*
X134930489Y-54875891D01*
X134930489Y-54325891D02*
X135530489Y-53925891D01*
X135530489Y-53925891D02*
X135530489Y-54725891D01*
X135530489Y-54325891D02*
X136030489Y-54325891D01*
X135530489Y-54725891D02*
X134930489Y-54325891D01*
D10*
%TO.C,S27*%
X160489066Y-123023179D02*
X160230246Y-123989105D01*
X163853713Y-110466144D02*
X163594894Y-111432069D01*
X163853713Y-110466144D02*
X162887787Y-110207324D01*
X159264321Y-123730286D02*
X160230246Y-123989105D01*
X151296677Y-107101496D02*
X150330752Y-106842677D01*
X146707285Y-120365638D02*
X147673211Y-120624458D01*
X146707285Y-120365638D02*
X146966104Y-119399713D01*
X150071932Y-107808603D02*
X150330752Y-106842677D01*
D11*
%TO.C,D21*%
X98530499Y-54325891D02*
X98930499Y-54325891D01*
X98930499Y-54325891D02*
X98930499Y-53775891D01*
X98930499Y-54325891D02*
X98930499Y-54875891D01*
X98930499Y-54325891D02*
X99530499Y-53925891D01*
X99530499Y-53925891D02*
X99530499Y-54725891D01*
X99530499Y-54325891D02*
X100030499Y-54325891D01*
X99530499Y-54725891D02*
X98930499Y-54325891D01*
D10*
%TO.C,S14*%
X124280499Y-94415883D02*
X124280499Y-95415883D01*
X124280499Y-81415883D02*
X124280499Y-82415883D01*
X124280499Y-81415883D02*
X123280499Y-81415883D01*
X123280499Y-95415883D02*
X124280499Y-95415883D01*
X111280499Y-81415883D02*
X110280499Y-81415883D01*
X110280499Y-95415883D02*
X111280499Y-95415883D01*
X110280499Y-95415883D02*
X110280499Y-94415883D01*
X110280499Y-82415883D02*
X110280499Y-81415883D01*
%TO.C,S23*%
X160280494Y-102525887D02*
X160280494Y-103525887D01*
X160280494Y-89525887D02*
X160280494Y-90525887D01*
X160280494Y-89525887D02*
X159280494Y-89525887D01*
X159280494Y-103525887D02*
X160280494Y-103525887D01*
X147280494Y-89525887D02*
X146280494Y-89525887D01*
X146280494Y-103525887D02*
X147280494Y-103525887D01*
X146280494Y-103525887D02*
X146280494Y-102525887D01*
X146280494Y-90525887D02*
X146280494Y-89525887D01*
D11*
%TO.C,D20*%
X98530488Y-88325890D02*
X98930488Y-88325890D01*
X98930488Y-88325890D02*
X98930488Y-87775890D01*
X98930488Y-88325890D02*
X98930488Y-88875890D01*
X98930488Y-88325890D02*
X99530488Y-87925890D01*
X99530488Y-87925890D02*
X99530488Y-88725890D01*
X99530488Y-88325890D02*
X100030488Y-88325890D01*
X99530488Y-88725890D02*
X98930488Y-88325890D01*
%TO.C,D9*%
X134530498Y-120025891D02*
X134930498Y-120025891D01*
X134930498Y-120025891D02*
X134930498Y-119475891D01*
X134930498Y-120025891D02*
X134930498Y-120575891D01*
X134930498Y-120025891D02*
X135530498Y-119625891D01*
X135530498Y-119625891D02*
X135530498Y-120425891D01*
X135530498Y-120025891D02*
X136030498Y-120025891D01*
X135530498Y-120425891D02*
X134930498Y-120025891D01*
D10*
%TO.C,S20*%
X160282680Y-85522957D02*
X160282680Y-86522957D01*
X160282680Y-72522957D02*
X160282680Y-73522957D01*
X160282680Y-72522957D02*
X159282680Y-72522957D01*
X159282680Y-86522957D02*
X160282680Y-86522957D01*
X147282680Y-72522957D02*
X146282680Y-72522957D01*
X146282680Y-86522957D02*
X147282680Y-86522957D01*
X146282680Y-86522957D02*
X146282680Y-85522957D01*
X146282680Y-73522957D02*
X146282680Y-72522957D01*
D11*
%TO.C,D8*%
X116530497Y-46415892D02*
X116930497Y-46415892D01*
X116930497Y-46415892D02*
X116930497Y-45865892D01*
X116930497Y-46415892D02*
X116930497Y-46965892D01*
X116930497Y-46415892D02*
X117530497Y-46015892D01*
X117530497Y-46015892D02*
X117530497Y-46815892D01*
X117530497Y-46415892D02*
X118030497Y-46415892D01*
X117530497Y-46815892D02*
X116930497Y-46415892D01*
%TO.C,D4*%
X98530499Y-86025901D02*
X98930499Y-86025901D01*
X98930499Y-86025901D02*
X98930499Y-85475901D01*
X98930499Y-86025901D02*
X98930499Y-86575901D01*
X98930499Y-86025901D02*
X99530499Y-85625901D01*
X99530499Y-85625901D02*
X99530499Y-86425901D01*
X99530499Y-86025901D02*
X100030499Y-86025901D01*
X99530499Y-86425901D02*
X98930499Y-86025901D01*
%TO.C,D22*%
X116530498Y-82715890D02*
X116930498Y-82715890D01*
X116930498Y-82715890D02*
X116930498Y-82165890D01*
X116930498Y-82715890D02*
X116930498Y-83265890D01*
X116930498Y-82715890D02*
X117530498Y-82315890D01*
X117530498Y-82315890D02*
X117530498Y-83115890D01*
X117530498Y-82715890D02*
X118030498Y-82715890D01*
X117530498Y-83115890D02*
X116930498Y-82715890D01*
%TD*%
D13*
%TO.C,*%
X165030501Y-37825884D03*
D14*
X180530501Y-37825884D03*
%TD*%
D15*
%TO.C,MCU1*%
X165160499Y-40855891D03*
X165160499Y-43395891D03*
X165160499Y-45935891D03*
X165160499Y-48475891D03*
X165160499Y-51015891D03*
X165160499Y-53555891D03*
X165160499Y-56095891D03*
X165160499Y-58635891D03*
X165160499Y-61175891D03*
X165160499Y-63715891D03*
X165160499Y-66255891D03*
X165160499Y-68795891D03*
X180400499Y-40855891D03*
X180400499Y-43395891D03*
X180400499Y-45935891D03*
X180400499Y-48475891D03*
X180400499Y-51015891D03*
X180400499Y-53555891D03*
X180400499Y-56095891D03*
X180400499Y-58635891D03*
X180400499Y-61175891D03*
X180400499Y-63715891D03*
X180400499Y-66255891D03*
X180400499Y-68795891D03*
%TD*%
D16*
%TO.C,_1*%
X169530505Y-81825885D03*
X176030505Y-81825885D03*
%TD*%
%LPC*%
D17*
%TO.C,T1*%
X169080487Y-36625888D03*
X169080487Y-38825888D03*
D18*
X171280487Y-37725888D03*
X174280487Y-37725888D03*
D17*
X176480487Y-36625888D03*
X176480487Y-38825888D03*
D19*
X175030487Y-39800888D03*
X172030487Y-39800888D03*
X170530487Y-39800888D03*
%TD*%
D20*
%TO.C,J11*%
X175788489Y-43375888D03*
D21*
X174772489Y-43375888D03*
%TD*%
D22*
%TO.C,J22*%
X172780503Y-73333888D03*
D23*
X172780503Y-72317888D03*
%TD*%
D24*
%TO.C,D14*%
X151357346Y-123682173D03*
D25*
X152226680Y-123915110D03*
X153675568Y-124303338D03*
D24*
X154544902Y-124536275D03*
%TD*%
D26*
%TO.C,D26*%
X151630493Y-90825897D03*
D25*
X152530493Y-90825897D03*
X154030493Y-90825897D03*
D26*
X154930493Y-90825897D03*
%TD*%
D27*
%TO.C,S16*%
X122780496Y-54415899D03*
D28*
X122280496Y-58165899D03*
X117280496Y-60365899D03*
X117280496Y-60365899D03*
D29*
X117280496Y-54415899D03*
D28*
X112280496Y-58165899D03*
D27*
X111780496Y-54415899D03*
D30*
X114005496Y-60365899D03*
X125555496Y-58165899D03*
%TD*%
D31*
%TO.C,REF\u002A\u002A*%
X165905508Y-92715886D03*
X165905508Y-95255886D03*
X165905508Y-97795886D03*
X165905508Y-100335886D03*
X164680508Y-90325886D03*
X164680508Y-102725886D03*
X166530508Y-90325886D03*
X166530508Y-102725886D03*
%TD*%
D26*
%TO.C,D6*%
X115630492Y-114415887D03*
D25*
X116530492Y-114415887D03*
X118030492Y-114415887D03*
D26*
X118930492Y-114415887D03*
%TD*%
%TO.C,D13*%
X151630493Y-54525895D03*
D25*
X152530493Y-54525895D03*
X154030493Y-54525895D03*
D26*
X154930493Y-54525895D03*
%TD*%
D32*
%TO.C,D19*%
X76438676Y-67401129D03*
D25*
X77335251Y-67322689D03*
X78829543Y-67191955D03*
D32*
X79726118Y-67113515D03*
%TD*%
D33*
%TO.C,J4*%
X168022495Y-100335891D03*
D34*
X169038495Y-100335891D03*
%TD*%
D27*
%TO.C,S1*%
X49676893Y-92529181D03*
D28*
X49505630Y-96308489D03*
X44716399Y-98935896D03*
X44716399Y-98935896D03*
D29*
X44197822Y-93008538D03*
D28*
X39543683Y-97180047D03*
D27*
X38718751Y-93487895D03*
D35*
X41453861Y-99221332D03*
X52768167Y-96023054D03*
%TD*%
D26*
%TO.C,D23*%
X115630494Y-48715883D03*
D25*
X116530494Y-48715883D03*
X118030494Y-48715883D03*
D26*
X118930494Y-48715883D03*
%TD*%
%TO.C,D24*%
X133630488Y-88325890D03*
D25*
X134530488Y-88325890D03*
X136030488Y-88325890D03*
D26*
X136930488Y-88325890D03*
%TD*%
D27*
%TO.C,S4*%
X66126754Y-74025071D03*
D28*
X65955491Y-77804379D03*
X61166260Y-80431786D03*
X61166260Y-80431786D03*
D29*
X60647683Y-74504428D03*
D28*
X55993544Y-78675937D03*
D27*
X55168612Y-74983785D03*
D35*
X57903722Y-80717222D03*
X69218028Y-77518944D03*
%TD*%
D26*
%TO.C,D7*%
X115630496Y-80415891D03*
D25*
X116530496Y-80415891D03*
X118030496Y-80415891D03*
D26*
X118930496Y-80415891D03*
%TD*%
%TO.C,D27*%
X151630495Y-56825893D03*
D25*
X152530495Y-56825893D03*
X154030495Y-56825893D03*
D26*
X154930495Y-56825893D03*
%TD*%
D36*
%TO.C,_8*%
X169658995Y-110749016D03*
%TD*%
D32*
%TO.C,D1*%
X61270005Y-100549303D03*
D25*
X62166580Y-100470863D03*
X63660872Y-100340129D03*
D32*
X64557447Y-100261689D03*
%TD*%
D27*
%TO.C,S6*%
X85539891Y-89391596D03*
D28*
X85368628Y-93170904D03*
X80579397Y-95798311D03*
X80579397Y-95798311D03*
D29*
X80060820Y-89870953D03*
D28*
X75406681Y-94042462D03*
D27*
X74581749Y-90350310D03*
D35*
X77316859Y-96083747D03*
X88631165Y-92885469D03*
%TD*%
D27*
%TO.C,S21*%
X140780498Y-60025885D03*
D28*
X140280498Y-63775885D03*
X135280498Y-65975885D03*
X135280498Y-65975885D03*
D29*
X135280498Y-60025885D03*
D28*
X130280498Y-63775885D03*
D27*
X129780498Y-60025885D03*
D30*
X132005498Y-65975885D03*
X143555498Y-63775885D03*
%TD*%
D27*
%TO.C,S12*%
X104780493Y-43025891D03*
D28*
X104280493Y-46775891D03*
X99280493Y-48975891D03*
X99280493Y-48975891D03*
D29*
X99280493Y-43025891D03*
D28*
X94280493Y-46775891D03*
D27*
X93780493Y-43025891D03*
D30*
X96005493Y-48975891D03*
X107555493Y-46775891D03*
%TD*%
D32*
%TO.C,D3*%
X76238210Y-65109875D03*
D25*
X77134785Y-65031435D03*
X78629077Y-64900701D03*
D32*
X79525652Y-64822261D03*
%TD*%
D27*
%TO.C,S18*%
X140780498Y-111025891D03*
D28*
X140280498Y-114775891D03*
X135280498Y-116975891D03*
X135280498Y-116975891D03*
D29*
X135280498Y-111025891D03*
D28*
X130280498Y-114775891D03*
D27*
X129780498Y-111025891D03*
D30*
X132005498Y-116975891D03*
X143555498Y-114775891D03*
%TD*%
D37*
%TO.C,_3*%
X180280500Y-81825891D03*
%TD*%
D27*
%TO.C,S9*%
X104780497Y-94025882D03*
D28*
X104280497Y-97775882D03*
X99280497Y-99975882D03*
X99280497Y-99975882D03*
D29*
X99280497Y-94025882D03*
D28*
X94280497Y-97775882D03*
D27*
X93780497Y-94025882D03*
D30*
X96005497Y-99975882D03*
X107555497Y-97775882D03*
%TD*%
D32*
%TO.C,D18*%
X79401971Y-101271753D03*
D25*
X80298546Y-101193313D03*
X81792838Y-101062579D03*
D32*
X82689413Y-100984139D03*
%TD*%
D27*
%TO.C,S8*%
X82576603Y-55520964D03*
D28*
X82405340Y-59300272D03*
X77616109Y-61927679D03*
X77616109Y-61927679D03*
D29*
X77097532Y-56000321D03*
D28*
X72443393Y-60171830D03*
D27*
X71618461Y-56479678D03*
D35*
X74353571Y-62213115D03*
X85667877Y-59014837D03*
%TD*%
D32*
%TO.C,D2*%
X79201507Y-98980500D03*
D25*
X80098082Y-98902060D03*
X81592374Y-98771326D03*
D32*
X82488949Y-98692886D03*
%TD*%
D26*
%TO.C,D12*%
X151630504Y-88525880D03*
D25*
X152530504Y-88525880D03*
X154030504Y-88525880D03*
D26*
X154930504Y-88525880D03*
%TD*%
D27*
%TO.C,S5*%
X87021539Y-106326892D03*
D28*
X86850276Y-110106200D03*
X82061045Y-112733607D03*
X82061045Y-112733607D03*
D29*
X81542468Y-106806249D03*
D28*
X76888329Y-110977758D03*
D27*
X76063397Y-107285606D03*
D35*
X78798507Y-113019043D03*
X90112813Y-109820765D03*
%TD*%
D32*
%TO.C,D17*%
X58507169Y-68969922D03*
D25*
X59403744Y-68891482D03*
X60898036Y-68760748D03*
D32*
X61794611Y-68682308D03*
%TD*%
D38*
%TO.C,*%
X165030501Y-37825884D03*
D39*
X180530501Y-37825884D03*
%TD*%
D27*
%TO.C,S13*%
X122780488Y-105415884D03*
D28*
X122280488Y-109165884D03*
X117280488Y-111365884D03*
X117280488Y-111365884D03*
D29*
X117280488Y-105415884D03*
D28*
X112280488Y-109165884D03*
D27*
X111780488Y-105415884D03*
D30*
X114005488Y-111365884D03*
X125555488Y-109165884D03*
%TD*%
D32*
%TO.C,D16*%
X61470466Y-102840548D03*
D25*
X62367041Y-102762108D03*
X63861333Y-102631374D03*
D32*
X64757908Y-102552934D03*
%TD*%
D27*
%TO.C,S10*%
X104780505Y-77025889D03*
D28*
X104280505Y-80775889D03*
X99280505Y-82975889D03*
X99280505Y-82975889D03*
D29*
X99280505Y-77025889D03*
D28*
X94280505Y-80775889D03*
D27*
X93780505Y-77025889D03*
D30*
X96005505Y-82975889D03*
X107555505Y-80775889D03*
%TD*%
D27*
%TO.C,S22*%
X140780507Y-43025887D03*
D28*
X140280507Y-46775887D03*
X135280507Y-48975887D03*
X135280507Y-48975887D03*
D29*
X135280507Y-43025887D03*
D28*
X130280507Y-46775887D03*
D27*
X129780507Y-43025887D03*
D30*
X132005507Y-48975887D03*
X143555507Y-46775887D03*
%TD*%
D40*
%TO.C,Nice!View1*%
X175320493Y-75325888D03*
X177860493Y-75325888D03*
X172780493Y-75325888D03*
X170240493Y-75325888D03*
X167700493Y-75325888D03*
%TD*%
D22*
%TO.C,J23*%
X170240500Y-73333880D03*
D23*
X170240500Y-72317880D03*
%TD*%
D32*
%TO.C,D15*%
X42057314Y-87474046D03*
D25*
X42953889Y-87395606D03*
X44448181Y-87264872D03*
D32*
X45344756Y-87186432D03*
%TD*%
D26*
%TO.C,D11*%
X133630489Y-52025889D03*
D25*
X134530489Y-52025889D03*
X136030489Y-52025889D03*
D26*
X136930489Y-52025889D03*
%TD*%
D20*
%TO.C,J12*%
X175788493Y-45925883D03*
D21*
X174772493Y-45925883D03*
%TD*%
D27*
%TO.C,S2*%
X69090047Y-107895686D03*
D28*
X68918784Y-111674994D03*
X64129553Y-114302401D03*
X64129553Y-114302401D03*
D29*
X63610976Y-108375043D03*
D28*
X58956837Y-112546552D03*
D27*
X58131905Y-108854400D03*
D35*
X60867015Y-114587837D03*
X72181321Y-111389559D03*
%TD*%
D27*
%TO.C,S11*%
X104780498Y-60025887D03*
D28*
X104280498Y-63775887D03*
X99280498Y-65975887D03*
X99280498Y-65975887D03*
D29*
X99280498Y-60025887D03*
D28*
X94280498Y-63775887D03*
D27*
X93780498Y-60025887D03*
D30*
X96005498Y-65975887D03*
X107555498Y-63775887D03*
%TD*%
D27*
%TO.C,S7*%
X84058261Y-72456264D03*
D28*
X83886998Y-76235572D03*
X79097767Y-78862979D03*
X79097767Y-78862979D03*
D29*
X78579190Y-72935621D03*
D28*
X73925051Y-77107130D03*
D27*
X73100119Y-73414978D03*
D35*
X75835229Y-79148415D03*
X87149535Y-75950137D03*
%TD*%
D22*
%TO.C,J21*%
X175320498Y-73333884D03*
D23*
X175320498Y-72317884D03*
%TD*%
D36*
%TO.C,_7*%
X126280499Y-102525885D03*
%TD*%
%TO.C,_5*%
X144280491Y-53775890D03*
%TD*%
D22*
%TO.C,J20*%
X177860491Y-73333897D03*
D23*
X177860491Y-72317897D03*
%TD*%
D27*
%TO.C,S17*%
X122780491Y-37415894D03*
D28*
X122280491Y-41165894D03*
X117280491Y-43365894D03*
X117280491Y-43365894D03*
D29*
X117280491Y-37415894D03*
D28*
X112280491Y-41165894D03*
D27*
X111780491Y-37415894D03*
D30*
X114005491Y-43365894D03*
X125555491Y-41165894D03*
%TD*%
D20*
%TO.C,J13*%
X175788494Y-48475890D03*
D21*
X174772494Y-48475890D03*
%TD*%
D27*
%TO.C,S25*%
X158780498Y-62525880D03*
D28*
X158280498Y-66275880D03*
X153280498Y-68475880D03*
X153280498Y-68475880D03*
D29*
X153280498Y-62525880D03*
D28*
X148280498Y-66275880D03*
D27*
X147780498Y-62525880D03*
D30*
X150005498Y-68475880D03*
X161555498Y-66275880D03*
%TD*%
D27*
%TO.C,S28*%
X175515240Y-121141624D03*
D28*
X178512835Y-123449637D03*
X177918091Y-128879764D03*
X177918091Y-128879764D03*
D29*
X172765240Y-125904764D03*
D28*
X173512835Y-132109891D03*
D27*
X170015240Y-130667904D03*
D41*
X176280591Y-131715997D03*
X180150335Y-120613404D03*
%TD*%
D33*
%TO.C,J14*%
X169772497Y-45925881D03*
D34*
X170788497Y-45925881D03*
%TD*%
D42*
%TO.C,MCU1*%
X165160499Y-40855891D03*
D43*
X165160499Y-40855891D03*
X165160499Y-43395891D03*
X165160499Y-45935891D03*
X165160499Y-48475891D03*
X165160499Y-51015891D03*
X165160499Y-53555891D03*
X165160499Y-56095891D03*
X165160499Y-58635891D03*
X165160499Y-61175891D03*
X165160499Y-63715891D03*
X165160499Y-66255891D03*
X165160499Y-68795891D03*
X180400499Y-40855891D03*
X180400499Y-43395891D03*
X180400499Y-45935891D03*
X180400499Y-48475891D03*
X180400499Y-51015891D03*
X180400499Y-53555891D03*
X180400499Y-56095891D03*
X180400499Y-58635891D03*
X180400499Y-61175891D03*
X180400499Y-63715891D03*
X180400499Y-66255891D03*
X180400499Y-68795891D03*
%TD*%
D36*
%TO.C,_6*%
X71835903Y-99122986D03*
%TD*%
D27*
%TO.C,S19*%
X140780496Y-94025885D03*
D28*
X140280496Y-97775885D03*
X135280496Y-99975885D03*
X135280496Y-99975885D03*
D29*
X135280496Y-94025885D03*
D28*
X130280496Y-97775885D03*
D27*
X129780496Y-94025885D03*
D30*
X132005496Y-99975885D03*
X143555496Y-97775885D03*
%TD*%
D44*
%TO.C,_1*%
X169530505Y-81825885D03*
X176030505Y-81825885D03*
%TD*%
D27*
%TO.C,S15*%
X122780491Y-71415889D03*
D28*
X122280491Y-75165889D03*
X117280491Y-77365889D03*
X117280491Y-77365889D03*
D29*
X117280491Y-71415889D03*
D28*
X112280491Y-75165889D03*
D27*
X111780491Y-71415889D03*
D30*
X114005491Y-77365889D03*
X125555491Y-75165889D03*
%TD*%
D27*
%TO.C,S20*%
X140780491Y-77025890D03*
D28*
X140280491Y-80775890D03*
X135280491Y-82975890D03*
X135280491Y-82975890D03*
D29*
X135280491Y-77025890D03*
D28*
X130280491Y-80775890D03*
D27*
X129780491Y-77025890D03*
D30*
X132005491Y-82975890D03*
X143555491Y-80775890D03*
%TD*%
D27*
%TO.C,S3*%
X67608397Y-90960375D03*
D28*
X67437134Y-94739683D03*
X62647903Y-97367090D03*
X62647903Y-97367090D03*
D29*
X62129326Y-91439732D03*
D28*
X57475187Y-95611241D03*
D27*
X56650255Y-91919089D03*
D35*
X59385365Y-97652526D03*
X70699671Y-94454248D03*
%TD*%
D45*
%TO.C,D28*%
X174607779Y-117413401D03*
D25*
X175387202Y-117863401D03*
X176686240Y-118613401D03*
D45*
X177465663Y-119063401D03*
%TD*%
D26*
%TO.C,D10*%
X133630504Y-86025886D03*
D25*
X134530504Y-86025886D03*
X136030504Y-86025886D03*
D26*
X136930504Y-86025886D03*
%TD*%
%TO.C,D29*%
X164880485Y-105525879D03*
D25*
X165780485Y-105525879D03*
X167280485Y-105525879D03*
D26*
X168180485Y-105525879D03*
%TD*%
D27*
%TO.C,S26*%
X158780492Y-45525890D03*
D28*
X158280492Y-49275890D03*
X153280492Y-51475890D03*
X153280492Y-51475890D03*
D29*
X153280492Y-45525890D03*
D28*
X148280492Y-49275890D03*
D27*
X147780492Y-45525890D03*
D30*
X150005492Y-51475890D03*
X161555492Y-49275890D03*
%TD*%
D22*
%TO.C,J24*%
X167700503Y-73333895D03*
D23*
X167700503Y-72317895D03*
%TD*%
D26*
%TO.C,D5*%
X97630498Y-52025887D03*
D25*
X98530498Y-52025887D03*
X100030498Y-52025887D03*
D26*
X100930498Y-52025887D03*
%TD*%
%TO.C,D25*%
X133630489Y-54325891D03*
D25*
X134530489Y-54325891D03*
X136030489Y-54325891D03*
D26*
X136930489Y-54325891D03*
%TD*%
D27*
%TO.C,S27*%
X160593091Y-116839396D03*
D28*
X159139557Y-120332208D03*
X153740526Y-121163150D03*
X153740526Y-121163150D03*
D29*
X155280499Y-115415891D03*
D28*
X149480298Y-117744018D03*
D27*
X149967907Y-113992386D03*
D46*
X150577119Y-120315517D03*
X162302964Y-121179840D03*
%TD*%
D26*
%TO.C,D21*%
X97630499Y-54325891D03*
D25*
X98530499Y-54325891D03*
X100030499Y-54325891D03*
D26*
X100930499Y-54325891D03*
%TD*%
D27*
%TO.C,S14*%
X122780499Y-88415883D03*
D28*
X122280499Y-92165883D03*
X117280499Y-94365883D03*
X117280499Y-94365883D03*
D29*
X117280499Y-88415883D03*
D28*
X112280499Y-92165883D03*
D27*
X111780499Y-88415883D03*
D30*
X114005499Y-94365883D03*
X125555499Y-92165883D03*
%TD*%
D27*
%TO.C,S23*%
X158780494Y-96525887D03*
D28*
X158280494Y-100275887D03*
X153280494Y-102475887D03*
X153280494Y-102475887D03*
D29*
X153280494Y-96525887D03*
D28*
X148280494Y-100275887D03*
D27*
X147780494Y-96525887D03*
D30*
X150005494Y-102475887D03*
X161555494Y-100275887D03*
%TD*%
D33*
%TO.C,J6*%
X168022501Y-95255901D03*
D34*
X169038501Y-95255901D03*
%TD*%
D26*
%TO.C,D20*%
X97630488Y-88325890D03*
D25*
X98530488Y-88325890D03*
X100030488Y-88325890D03*
D26*
X100930488Y-88325890D03*
%TD*%
%TO.C,D9*%
X133630498Y-120025891D03*
D25*
X134530498Y-120025891D03*
X136030498Y-120025891D03*
D26*
X136930498Y-120025891D03*
%TD*%
D27*
%TO.C,S20*%
X158782680Y-79522957D03*
D28*
X158282680Y-83272957D03*
X153282680Y-85472957D03*
X153282680Y-85472957D03*
D29*
X153282680Y-79522957D03*
D28*
X148282680Y-83272957D03*
D27*
X147782680Y-79522957D03*
D30*
X150007680Y-85472957D03*
X161557680Y-83272957D03*
%TD*%
D26*
%TO.C,D8*%
X115630497Y-46415892D03*
D25*
X116530497Y-46415892D03*
X118030497Y-46415892D03*
D26*
X118930497Y-46415892D03*
%TD*%
D37*
%TO.C,_2*%
X165280503Y-81825893D03*
%TD*%
D33*
%TO.C,J5*%
X168022493Y-97795880D03*
D34*
X169038493Y-97795880D03*
%TD*%
D36*
%TO.C,_4*%
X88280491Y-51525880D03*
%TD*%
D26*
%TO.C,D4*%
X97630499Y-86025901D03*
D25*
X98530499Y-86025901D03*
X100030499Y-86025901D03*
D26*
X100930499Y-86025901D03*
%TD*%
%TO.C,D22*%
X115630498Y-82715890D03*
D25*
X116530498Y-82715890D03*
X118030498Y-82715890D03*
D26*
X118930498Y-82715890D03*
%TD*%
%LPD*%
M02*
