M48
; DRILL file {KiCad 7.0.6-7.0.6~ubuntu20.04.1} date Sat 05 Aug 2023 11:34:35 AM CEST
; FORMAT={-:-/ absolute / metric / decimal}
; #@! TF.CreationDate,2023-08-05T11:34:35+02:00
; #@! TF.GenerationSoftware,Kicad,Pcbnew,7.0.6-7.0.6~ubuntu20.04.1
; #@! TF.FileFunction,NonPlated,1,2,NPTH
FMAT,2
METRIC
; #@! TA.AperFunction,NonPlated,NPTH,ComponentDrill
T1C0.900
; #@! TA.AperFunction,NonPlated,NPTH,ComponentDrill
T2C1.702
; #@! TA.AperFunction,NonPlated,NPTH,ComponentDrill
T3C3.000
; #@! TA.AperFunction,NonPlated,NPTH,ComponentDrill
T4C3.429
%
G90
G05
T1
X185.922Y-46.025
X188.922Y-46.025
T2
X53.36Y-101.787
X64.318Y-100.829
X69.81Y-83.283
X71.292Y-100.219
X72.773Y-117.154
X80.768Y-82.325
X82.25Y-99.26
X83.731Y-116.195
X86.26Y-64.779
X87.741Y-81.715
X89.223Y-98.65
X90.705Y-115.585
X97.218Y-63.821
X98.7Y-80.756
X100.181Y-97.691
X101.663Y-114.626
X108.422Y-85.325
X108.422Y-102.325
X108.422Y-68.325
X108.422Y-51.325
X119.422Y-85.325
X119.422Y-102.325
X119.422Y-68.325
X119.422Y-51.325
X126.422Y-113.715
X126.422Y-79.715
X126.422Y-62.715
X126.422Y-96.715
X126.422Y-45.715
X137.422Y-113.715
X137.422Y-79.715
X137.422Y-62.715
X137.422Y-96.715
X137.422Y-45.715
X144.422Y-68.325
X144.422Y-51.325
X144.422Y-102.325
X144.422Y-119.325
X144.422Y-85.325
X155.422Y-68.325
X155.422Y-51.325
X155.422Y-102.325
X155.422Y-119.325
X155.422Y-85.325
X162.422Y-70.825
X162.422Y-53.825
X162.422Y-104.825
X162.422Y-87.825
X164.609Y-122.292
X173.422Y-70.825
X173.422Y-53.825
X173.422Y-104.825
X173.422Y-87.825
X175.234Y-125.139
X184.657Y-138.967
X190.157Y-129.441
T3
X54.185Y-105.48
X59.358Y-107.235
X59.358Y-107.235
X64.147Y-104.608
X70.635Y-86.975
X72.116Y-103.911
X73.598Y-120.846
X75.808Y-88.731
X75.808Y-88.731
X77.289Y-105.667
X77.289Y-105.667
X78.771Y-122.602
X78.771Y-122.602
X80.597Y-86.104
X82.078Y-103.039
X83.56Y-119.975
X87.085Y-68.471
X88.566Y-85.407
X90.048Y-102.342
X91.53Y-119.277
X92.257Y-70.227
X92.257Y-70.227
X93.739Y-87.163
X93.739Y-87.163
X95.221Y-104.098
X95.221Y-104.098
X96.702Y-121.033
X96.702Y-121.033
X97.047Y-67.6
X98.528Y-84.535
X100.01Y-101.47
X101.492Y-118.406
X108.922Y-89.075
X108.922Y-106.075
X108.922Y-72.075
X108.922Y-55.075
X113.922Y-91.275
X113.922Y-91.275
X113.922Y-108.275
X113.922Y-108.275
X113.922Y-74.275
X113.922Y-74.275
X113.922Y-57.275
X113.922Y-57.275
X118.922Y-89.075
X118.922Y-106.075
X118.922Y-72.075
X118.922Y-55.075
X126.922Y-117.465
X126.922Y-83.465
X126.922Y-66.465
X126.922Y-100.465
X126.922Y-49.465
X131.922Y-119.665
X131.922Y-119.665
X131.922Y-85.665
X131.922Y-85.665
X131.922Y-68.665
X131.922Y-68.665
X131.922Y-102.665
X131.922Y-102.665
X131.922Y-51.665
X131.922Y-51.665
X136.922Y-117.465
X136.922Y-83.465
X136.922Y-66.465
X136.922Y-100.465
X136.922Y-49.465
X144.922Y-72.075
X144.922Y-55.075
X144.922Y-106.075
X144.922Y-123.075
X144.922Y-89.075
X149.922Y-74.275
X149.922Y-74.275
X149.922Y-57.275
X149.922Y-57.275
X149.922Y-108.275
X149.922Y-108.275
X149.922Y-125.275
X149.922Y-125.275
X149.922Y-91.275
X149.922Y-91.275
X154.922Y-72.075
X154.922Y-55.075
X154.922Y-106.075
X154.922Y-123.075
X154.922Y-89.075
X162.922Y-74.575
X162.922Y-57.575
X162.922Y-108.575
X162.922Y-91.575
X164.122Y-126.044
X167.922Y-76.775
X167.922Y-76.775
X167.922Y-59.775
X167.922Y-59.775
X167.922Y-110.775
X167.922Y-110.775
X167.922Y-93.775
X167.922Y-93.775
X168.382Y-129.463
X168.382Y-129.463
X172.922Y-74.575
X172.922Y-57.575
X172.922Y-108.575
X172.922Y-91.575
X173.781Y-128.632
X188.154Y-140.409
X192.559Y-137.179
X192.559Y-137.179
X193.154Y-131.749
T4
X58.839Y-101.308
X75.289Y-82.804
X76.771Y-99.739
X78.252Y-116.675
X91.739Y-64.3
X93.22Y-81.235
X94.702Y-98.17
X96.184Y-115.106
X113.922Y-85.325
X113.922Y-102.325
X113.922Y-68.325
X113.922Y-51.325
X131.922Y-113.715
X131.922Y-79.715
X131.922Y-62.715
X131.922Y-96.715
X131.922Y-45.715
X149.922Y-68.325
X149.922Y-51.325
X149.922Y-102.325
X149.922Y-119.325
X149.922Y-85.325
X167.922Y-70.825
X167.922Y-53.825
X167.922Y-104.825
X167.922Y-87.825
X169.922Y-123.715
X187.407Y-134.204
T0
M30
