M48
; DRILL file {KiCad 7.0.6-7.0.6~ubuntu20.04.1} date Wed 19 Jul 2023 11:04:24 AM CEST
; FORMAT={-:-/ absolute / metric / decimal}
; #@! TF.CreationDate,2023-07-19T11:04:24+02:00
; #@! TF.GenerationSoftware,Kicad,Pcbnew,7.0.6-7.0.6~ubuntu20.04.1
; #@! TF.FileFunction,Plated,1,2,PTH
FMAT,2
METRIC
; #@! TA.AperFunction,Plated,PTH,ComponentDrill
T1C0.300
; #@! TA.AperFunction,Plated,PTH,ViaDrill
T2C0.400
; #@! TA.AperFunction,Plated,PTH,ComponentDrill
T3C0.800
; #@! TA.AperFunction,Plated,PTH,ComponentDrill
T4C0.900
; #@! TA.AperFunction,Plated,PTH,ComponentDrill
T5C1.000
; #@! TA.AperFunction,Plated,PTH,ComponentDrill
T6C1.092
; #@! TA.AperFunction,Plated,PTH,ComponentDrill
T7C1.100
; #@! TA.AperFunction,Plated,PTH,ComponentDrill
T8C1.300
; #@! TA.AperFunction,Plated,PTH,ComponentDrill
T9C2.200
; #@! TA.AperFunction,Plated,PTH,ComponentDrill
T10C4.100
%
G90
G05
T1
X42.954Y-87.396
X44.448Y-87.265
X59.404Y-68.891
X60.898Y-68.761
X62.167Y-100.471
X62.367Y-102.762
X63.661Y-100.34
X63.861Y-102.631
X77.135Y-65.031
X77.335Y-67.323
X78.629Y-64.901
X78.83Y-67.192
X80.098Y-98.902
X80.299Y-101.193
X81.592Y-98.771
X81.793Y-101.063
X98.53Y-88.326
X98.53Y-52.026
X98.53Y-54.326
X98.53Y-86.026
X100.03Y-88.326
X100.03Y-52.026
X100.03Y-54.326
X100.03Y-86.026
X116.53Y-114.416
X116.53Y-48.716
X116.53Y-80.416
X116.53Y-46.416
X116.53Y-82.716
X118.03Y-114.416
X118.03Y-48.716
X118.03Y-80.416
X118.03Y-46.416
X118.03Y-82.716
X134.53Y-88.326
X134.53Y-52.026
X134.53Y-54.326
X134.53Y-120.026
X134.531Y-86.026
X136.03Y-88.326
X136.03Y-52.026
X136.03Y-54.326
X136.03Y-120.026
X136.031Y-86.026
X152.227Y-123.915
X152.53Y-54.526
X152.53Y-90.826
X152.53Y-56.826
X152.531Y-88.526
X153.676Y-124.303
X154.03Y-54.526
X154.03Y-90.826
X154.03Y-56.826
X154.031Y-88.526
X165.78Y-105.526
X167.28Y-105.526
X175.387Y-117.863
X176.686Y-118.613
T2
X41.514Y-94.71
X47.068Y-96.231
X57.967Y-76.205
X59.45Y-93.185
X60.936Y-110.176
X63.521Y-77.727
X64.182Y-85.313
X65.003Y-94.707
X66.49Y-111.697
X70.5Y-104.5
X74.417Y-57.701
X75.899Y-74.681
X77.381Y-91.572
X78.867Y-108.562
X79.971Y-59.223
X81.453Y-76.203
X82.183Y-84.541
X82.934Y-93.093
X83.0Y-67.0
X84.421Y-110.084
X85.5Y-82.25
X96.35Y-61.515
X96.372Y-44.537
X96.385Y-78.485
X96.392Y-95.537
X101.75Y-63.515
X101.772Y-46.537
X101.778Y-70.957
X101.785Y-80.485
X101.792Y-97.537
X103.75Y-87.75
X107.0Y-68.5
X114.424Y-106.892
X114.427Y-38.892
X114.45Y-56.015
X114.485Y-72.985
X114.492Y-90.037
X119.25Y-100.0
X119.824Y-108.892
X119.827Y-40.892
X119.844Y-67.383
X119.85Y-58.015
X119.885Y-74.985
X119.892Y-92.037
X126.75Y-54.5
X127.0Y-68.0
X132.427Y-44.592
X132.45Y-61.515
X132.485Y-78.485
X132.492Y-95.537
X132.562Y-112.575
X134.5Y-71.75
X137.75Y-105.5
X137.827Y-46.592
X137.85Y-63.515
X137.878Y-74.883
X137.885Y-80.485
X137.892Y-97.537
X137.962Y-114.575
X143.0Y-91.0
X150.427Y-46.992
X150.45Y-64.015
X150.485Y-80.985
X150.492Y-98.037
X152.096Y-116.159
X155.5Y-107.75
X155.827Y-48.992
X155.85Y-66.015
X155.878Y-75.88
X155.885Y-82.985
X155.892Y-100.037
X156.795Y-119.488
X157.75Y-55.0
X159.448Y-71.882
X159.448Y-73.881
X159.448Y-74.881
X159.448Y-72.882
X159.448Y-70.883
X159.478Y-75.88
X159.99Y-102.729
X160.548Y-88.483
X160.598Y-78.023
X161.0Y-90.75
X161.548Y-88.483
X161.597Y-78.038
X162.597Y-78.029
X163.75Y-75.75
X167.698Y-51.083
X167.701Y-71.413
X170.24Y-71.453
X170.248Y-53.583
X171.572Y-91.479
X171.598Y-52.383
X171.848Y-49.933
X171.848Y-46.983
X172.42Y-95.256
X172.605Y-129.144
X172.748Y-48.483
X172.781Y-71.433
X172.848Y-43.383
X173.269Y-92.57
X173.548Y-44.783
X175.32Y-69.933
X176.648Y-54.733
X177.037Y-125.467
X177.86Y-71.383
T3
X165.031Y-37.826
X180.531Y-37.826
T4
X164.681Y-90.326
X164.681Y-102.726
X165.906Y-92.716
X165.906Y-95.256
X165.906Y-97.796
X165.906Y-100.336
X166.531Y-90.326
X166.531Y-102.726
T5
X167.7Y-75.326
X170.24Y-75.326
X172.78Y-75.326
X175.32Y-75.326
X177.86Y-75.326
T6
X165.16Y-40.856
X165.16Y-43.396
X165.16Y-45.936
X165.16Y-48.476
X165.16Y-51.016
X165.16Y-53.556
X165.16Y-56.096
X165.16Y-58.636
X165.16Y-61.176
X165.16Y-63.716
X165.16Y-66.256
X165.16Y-68.796
X180.4Y-40.856
X180.4Y-43.396
X180.4Y-45.936
X180.4Y-48.476
X180.4Y-51.016
X180.4Y-53.556
X180.4Y-56.096
X180.4Y-58.636
X180.4Y-61.176
X180.4Y-63.716
X180.4Y-66.256
X180.4Y-68.796
T7
X165.16Y-40.856
X180.4Y-40.856
T8
X169.531Y-81.826
X176.031Y-81.826
T9
X165.281Y-81.826
X180.28Y-81.826
T10
X71.836Y-99.123
X88.28Y-51.526
X126.28Y-102.526
X144.28Y-53.776
X169.659Y-110.749
T0
M30
