%TF.GenerationSoftware,KiCad,Pcbnew,7.0.6-7.0.6~ubuntu20.04.1*%
%TF.CreationDate,2023-08-05T11:34:35+02:00*%
%TF.ProjectId,keyboard,6b657962-6f61-4726-942e-6b696361645f,v1.0.0*%
%TF.SameCoordinates,Original*%
%TF.FileFunction,Drillmap*%
%TF.FilePolarity,Positive*%
%FSLAX45Y45*%
G04 Gerber Fmt 4.5, Leading zero omitted, Abs format (unit mm)*
G04 Created by KiCad (PCBNEW 7.0.6-7.0.6~ubuntu20.04.1) date 2023-08-05 11:34:35*
%MOMM*%
%LPD*%
G01*
G04 APERTURE LIST*
%ADD10C,0.150000*%
%ADD11C,0.200000*%
%ADD12C,0.090000*%
%ADD13C,0.170180*%
%ADD14C,0.300000*%
%ADD15C,0.342900*%
G04 APERTURE END LIST*
D10*
X6849484Y-12651649D02*
X5038112Y-11217855D01*
X20026478Y-13093318D02*
X19147781Y-14615268D01*
X18905090Y-14702809D02*
X14011039Y-12889532D01*
X19770534Y-11450627D02*
X20049919Y-12956843D01*
X19767180Y-4632544D02*
X19767181Y-11414152D01*
X18905088Y-14702815D02*
G75*
G03*
X19147780Y-14615266I69482J187546D01*
G01*
X4862198Y-9207149D02*
X8074772Y-5593388D01*
X14213886Y-3626432D02*
G75*
G03*
X14169931Y-3621544I-43956J-195178D01*
G01*
X4962997Y-11078469D02*
G75*
G03*
X5038112Y-11217855I199243J17439D01*
G01*
X19767182Y-11414152D02*
G75*
G03*
X19770534Y-11450627I199908J-18D01*
G01*
X8120809Y-5555095D02*
X10371416Y-4195091D01*
X19767186Y-4632544D02*
G75*
G03*
X19567180Y-4432544I-200006J-6D01*
G01*
X6849483Y-12651650D02*
G75*
G03*
X6991045Y-12694069I124127J156820D01*
G01*
X8120808Y-5555094D02*
G75*
G03*
X8074772Y-5593388I103452J-171186D01*
G01*
X10721365Y-12373543D02*
G75*
G03*
X10673181Y-12371925I-30755J-197597D01*
G01*
X14213886Y-3626433D02*
X17770475Y-4427654D01*
X14011039Y-12889532D02*
G75*
G03*
X13972307Y-12879451I-69469J-187448D01*
G01*
X4963002Y-11078468D02*
X4812433Y-9357461D01*
X20026479Y-13093318D02*
G75*
G03*
X20049919Y-12956843I-173199J99999D01*
G01*
X13972307Y-12879451D02*
X10721365Y-12373543D01*
X12222625Y-3621543D02*
X14169931Y-3621544D01*
X12222625Y-3621543D02*
G75*
G03*
X12163115Y-3630602I5J-200027D01*
G01*
X10415343Y-4175324D02*
X12163115Y-3630602D01*
X10415343Y-4175326D02*
G75*
G03*
X10371415Y-4195091I59487J-190904D01*
G01*
X10673181Y-12371925D02*
X6991044Y-12694070D01*
X17814429Y-4432544D02*
X19567180Y-4432544D01*
X4862198Y-9207149D02*
G75*
G03*
X4812434Y-9357461I149472J-132881D01*
G01*
X17770475Y-4427653D02*
G75*
G03*
X17814430Y-4432543I43955J195113D01*
G01*
D11*
D12*
X18547181Y-4557544D02*
X18637181Y-4647544D01*
X18637181Y-4557544D02*
X18547181Y-4647544D01*
X18847181Y-4557544D02*
X18937181Y-4647544D01*
X18937181Y-4557544D02*
X18847181Y-4647544D01*
D13*
X5421096Y-10178744D02*
G75*
G03*
X5421096Y-10178744I-85090J0D01*
G01*
X6516910Y-10082873D02*
G75*
G03*
X6516910Y-10082873I-85090J0D01*
G01*
X7066081Y-8328333D02*
G75*
G03*
X7066081Y-8328333I-85090J0D01*
G01*
X7214245Y-10021865D02*
G75*
G03*
X7214245Y-10021865I-85090J0D01*
G01*
X7362411Y-11715395D02*
G75*
G03*
X7362411Y-11715395I-85090J0D01*
G01*
X8161895Y-8232462D02*
G75*
G03*
X8161895Y-8232462I-85090J0D01*
G01*
X8310059Y-9925993D02*
G75*
G03*
X8310059Y-9925993I-85090J0D01*
G01*
X8458225Y-11619523D02*
G75*
G03*
X8458225Y-11619523I-85090J0D01*
G01*
X8711067Y-6477922D02*
G75*
G03*
X8711067Y-6477922I-85090J0D01*
G01*
X8859231Y-8171453D02*
G75*
G03*
X8859231Y-8171453I-85090J0D01*
G01*
X9007396Y-9864985D02*
G75*
G03*
X9007396Y-9864985I-85090J0D01*
G01*
X9155562Y-11558515D02*
G75*
G03*
X9155562Y-11558515I-85090J0D01*
G01*
X9806881Y-6382050D02*
G75*
G03*
X9806881Y-6382050I-85090J0D01*
G01*
X9955046Y-8075581D02*
G75*
G03*
X9955046Y-8075581I-85090J0D01*
G01*
X10103210Y-9769113D02*
G75*
G03*
X10103210Y-9769113I-85090J0D01*
G01*
X10251376Y-11462643D02*
G75*
G03*
X10251376Y-11462643I-85090J0D01*
G01*
X10927270Y-8532544D02*
G75*
G03*
X10927270Y-8532544I-85090J0D01*
G01*
X10927270Y-10232544D02*
G75*
G03*
X10927270Y-10232544I-85090J0D01*
G01*
X10927270Y-6832544D02*
G75*
G03*
X10927270Y-6832544I-85090J0D01*
G01*
X10927270Y-5132544D02*
G75*
G03*
X10927270Y-5132544I-85090J0D01*
G01*
X12027270Y-8532544D02*
G75*
G03*
X12027270Y-8532544I-85090J0D01*
G01*
X12027270Y-10232544D02*
G75*
G03*
X12027270Y-10232544I-85090J0D01*
G01*
X12027270Y-6832544D02*
G75*
G03*
X12027270Y-6832544I-85090J0D01*
G01*
X12027270Y-5132544D02*
G75*
G03*
X12027270Y-5132544I-85090J0D01*
G01*
X12727270Y-11371543D02*
G75*
G03*
X12727270Y-11371543I-85090J0D01*
G01*
X12727270Y-7971543D02*
G75*
G03*
X12727270Y-7971543I-85090J0D01*
G01*
X12727270Y-6271543D02*
G75*
G03*
X12727270Y-6271543I-85090J0D01*
G01*
X12727270Y-9671543D02*
G75*
G03*
X12727270Y-9671543I-85090J0D01*
G01*
X12727271Y-4571543D02*
G75*
G03*
X12727271Y-4571543I-85090J0D01*
G01*
X13827270Y-11371543D02*
G75*
G03*
X13827270Y-11371543I-85090J0D01*
G01*
X13827270Y-7971543D02*
G75*
G03*
X13827270Y-7971543I-85090J0D01*
G01*
X13827270Y-6271543D02*
G75*
G03*
X13827270Y-6271543I-85090J0D01*
G01*
X13827270Y-9671543D02*
G75*
G03*
X13827270Y-9671543I-85090J0D01*
G01*
X13827271Y-4571543D02*
G75*
G03*
X13827271Y-4571543I-85090J0D01*
G01*
X14527270Y-6832543D02*
G75*
G03*
X14527270Y-6832543I-85090J0D01*
G01*
X14527270Y-5132543D02*
G75*
G03*
X14527270Y-5132543I-85090J0D01*
G01*
X14527270Y-10232543D02*
G75*
G03*
X14527270Y-10232543I-85090J0D01*
G01*
X14527270Y-11932543D02*
G75*
G03*
X14527270Y-11932543I-85090J0D01*
G01*
X14527270Y-8532544D02*
G75*
G03*
X14527270Y-8532544I-85090J0D01*
G01*
X15627270Y-6832543D02*
G75*
G03*
X15627270Y-6832543I-85090J0D01*
G01*
X15627270Y-5132543D02*
G75*
G03*
X15627270Y-5132543I-85090J0D01*
G01*
X15627270Y-10232543D02*
G75*
G03*
X15627270Y-10232543I-85090J0D01*
G01*
X15627270Y-11932543D02*
G75*
G03*
X15627270Y-11932543I-85090J0D01*
G01*
X15627270Y-8532544D02*
G75*
G03*
X15627270Y-8532544I-85090J0D01*
G01*
X16327270Y-7082543D02*
G75*
G03*
X16327270Y-7082543I-85090J0D01*
G01*
X16327270Y-5382544D02*
G75*
G03*
X16327270Y-5382544I-85090J0D01*
G01*
X16327270Y-10482544D02*
G75*
G03*
X16327270Y-10482544I-85090J0D01*
G01*
X16327270Y-8782543D02*
G75*
G03*
X16327270Y-8782543I-85090J0D01*
G01*
X16546011Y-12229193D02*
G75*
G03*
X16546011Y-12229193I-85090J0D01*
G01*
X17427270Y-7082543D02*
G75*
G03*
X17427270Y-7082543I-85090J0D01*
G01*
X17427270Y-5382544D02*
G75*
G03*
X17427270Y-5382544I-85090J0D01*
G01*
X17427270Y-10482544D02*
G75*
G03*
X17427270Y-10482544I-85090J0D01*
G01*
X17427271Y-8782543D02*
G75*
G03*
X17427271Y-8782543I-85090J0D01*
G01*
X17608529Y-12513894D02*
G75*
G03*
X17608529Y-12513894I-85090J0D01*
G01*
X18550744Y-13896745D02*
G75*
G03*
X18550744Y-13896745I-85090J0D01*
G01*
X19100744Y-12944117D02*
G75*
G03*
X19100744Y-12944117I-85090J0D01*
G01*
D14*
X5418499Y-10397959D02*
X5418499Y-10697959D01*
X5268499Y-10547959D02*
X5568499Y-10547959D01*
X5935770Y-10573544D02*
X5935770Y-10873544D01*
X5785770Y-10723544D02*
X6085770Y-10723544D01*
X5935770Y-10573544D02*
X5935770Y-10873544D01*
X5785770Y-10723544D02*
X6085770Y-10723544D01*
X6414694Y-10310804D02*
X6414694Y-10610804D01*
X6264694Y-10460804D02*
X6564694Y-10460804D01*
X7063484Y-8547549D02*
X7063484Y-8847549D01*
X6913484Y-8697549D02*
X7213484Y-8697549D01*
X7211648Y-10241080D02*
X7211648Y-10541080D01*
X7061648Y-10391080D02*
X7361648Y-10391080D01*
X7359814Y-11934610D02*
X7359814Y-12234610D01*
X7209814Y-12084610D02*
X7509814Y-12084610D01*
X7580756Y-8723133D02*
X7580756Y-9023133D01*
X7430756Y-8873133D02*
X7730756Y-8873133D01*
X7580756Y-8723133D02*
X7580756Y-9023133D01*
X7430756Y-8873133D02*
X7730756Y-8873133D01*
X7728920Y-10416665D02*
X7728920Y-10716665D01*
X7578920Y-10566665D02*
X7878920Y-10566665D01*
X7728920Y-10416665D02*
X7728920Y-10716665D01*
X7578920Y-10566665D02*
X7878920Y-10566665D01*
X7877086Y-12110195D02*
X7877086Y-12410195D01*
X7727086Y-12260195D02*
X8027086Y-12260195D01*
X7877086Y-12110195D02*
X7877086Y-12410195D01*
X7727086Y-12260195D02*
X8027086Y-12260195D01*
X8059679Y-8460393D02*
X8059679Y-8760393D01*
X7909679Y-8610393D02*
X8209679Y-8610393D01*
X8207843Y-10153924D02*
X8207843Y-10453924D01*
X8057843Y-10303924D02*
X8357843Y-10303924D01*
X8356009Y-11847454D02*
X8356009Y-12147454D01*
X8206009Y-11997454D02*
X8506009Y-11997454D01*
X8708470Y-6697137D02*
X8708470Y-6997137D01*
X8558470Y-6847137D02*
X8858470Y-6847137D01*
X8856635Y-8390668D02*
X8856635Y-8690668D01*
X8706635Y-8540668D02*
X9006635Y-8540668D01*
X9004799Y-10084200D02*
X9004799Y-10384200D01*
X8854799Y-10234200D02*
X9154799Y-10234200D01*
X9152965Y-11777730D02*
X9152965Y-12077730D01*
X9002965Y-11927730D02*
X9302965Y-11927730D01*
X9225742Y-6872722D02*
X9225742Y-7172722D01*
X9075742Y-7022722D02*
X9375742Y-7022722D01*
X9225742Y-6872722D02*
X9225742Y-7172722D01*
X9075742Y-7022722D02*
X9375742Y-7022722D01*
X9373906Y-8566253D02*
X9373906Y-8866253D01*
X9223906Y-8716253D02*
X9523906Y-8716253D01*
X9373906Y-8566253D02*
X9373906Y-8866253D01*
X9223906Y-8716253D02*
X9523906Y-8716253D01*
X9522071Y-10259785D02*
X9522071Y-10559785D01*
X9372071Y-10409785D02*
X9672071Y-10409785D01*
X9522071Y-10259785D02*
X9522071Y-10559785D01*
X9372071Y-10409785D02*
X9672071Y-10409785D01*
X9670237Y-11953315D02*
X9670237Y-12253315D01*
X9520237Y-12103315D02*
X9820237Y-12103315D01*
X9670237Y-11953315D02*
X9670237Y-12253315D01*
X9520237Y-12103315D02*
X9820237Y-12103315D01*
X9704665Y-6609981D02*
X9704665Y-6909981D01*
X9554665Y-6759981D02*
X9854665Y-6759981D01*
X9852829Y-8303512D02*
X9852829Y-8603512D01*
X9702829Y-8453512D02*
X10002829Y-8453512D01*
X10000994Y-9997044D02*
X10000994Y-10297044D01*
X9850994Y-10147044D02*
X10150994Y-10147044D01*
X10149160Y-11690574D02*
X10149160Y-11990574D01*
X9999160Y-11840574D02*
X10299160Y-11840574D01*
X10892180Y-8757544D02*
X10892180Y-9057544D01*
X10742180Y-8907544D02*
X11042180Y-8907544D01*
X10892180Y-10457544D02*
X10892180Y-10757544D01*
X10742180Y-10607544D02*
X11042180Y-10607544D01*
X10892180Y-7057544D02*
X10892180Y-7357544D01*
X10742180Y-7207544D02*
X11042180Y-7207544D01*
X10892180Y-5357544D02*
X10892180Y-5657543D01*
X10742180Y-5507544D02*
X11042180Y-5507544D01*
X11392180Y-8977544D02*
X11392180Y-9277544D01*
X11242180Y-9127544D02*
X11542180Y-9127544D01*
X11392180Y-8977544D02*
X11392180Y-9277544D01*
X11242180Y-9127544D02*
X11542180Y-9127544D01*
X11392180Y-10677544D02*
X11392180Y-10977544D01*
X11242180Y-10827544D02*
X11542180Y-10827544D01*
X11392180Y-10677544D02*
X11392180Y-10977544D01*
X11242180Y-10827544D02*
X11542180Y-10827544D01*
X11392180Y-7277544D02*
X11392180Y-7577544D01*
X11242180Y-7427544D02*
X11542180Y-7427544D01*
X11392180Y-7277544D02*
X11392180Y-7577544D01*
X11242180Y-7427544D02*
X11542180Y-7427544D01*
X11392180Y-5577544D02*
X11392180Y-5877543D01*
X11242180Y-5727543D02*
X11542180Y-5727543D01*
X11392180Y-5577544D02*
X11392180Y-5877543D01*
X11242180Y-5727543D02*
X11542180Y-5727543D01*
X11892180Y-8757544D02*
X11892180Y-9057544D01*
X11742180Y-8907544D02*
X12042180Y-8907544D01*
X11892180Y-10457544D02*
X11892180Y-10757544D01*
X11742180Y-10607544D02*
X12042180Y-10607544D01*
X11892180Y-7057544D02*
X11892180Y-7357544D01*
X11742180Y-7207544D02*
X12042180Y-7207544D01*
X11892180Y-5357544D02*
X11892180Y-5657543D01*
X11742180Y-5507544D02*
X12042180Y-5507544D01*
X12692180Y-11596543D02*
X12692180Y-11896543D01*
X12542180Y-11746543D02*
X12842180Y-11746543D01*
X12692180Y-8196543D02*
X12692180Y-8496543D01*
X12542180Y-8346543D02*
X12842180Y-8346543D01*
X12692180Y-6496543D02*
X12692180Y-6796543D01*
X12542180Y-6646543D02*
X12842180Y-6646543D01*
X12692180Y-9896543D02*
X12692180Y-10196543D01*
X12542180Y-10046543D02*
X12842180Y-10046543D01*
X12692181Y-4796543D02*
X12692181Y-5096543D01*
X12542181Y-4946543D02*
X12842181Y-4946543D01*
X13192180Y-11816543D02*
X13192180Y-12116543D01*
X13042180Y-11966543D02*
X13342180Y-11966543D01*
X13192180Y-11816543D02*
X13192180Y-12116543D01*
X13042180Y-11966543D02*
X13342180Y-11966543D01*
X13192180Y-8416543D02*
X13192180Y-8716543D01*
X13042180Y-8566543D02*
X13342180Y-8566543D01*
X13192180Y-8416543D02*
X13192180Y-8716543D01*
X13042180Y-8566543D02*
X13342180Y-8566543D01*
X13192180Y-6716543D02*
X13192180Y-7016543D01*
X13042180Y-6866543D02*
X13342180Y-6866543D01*
X13192180Y-6716543D02*
X13192180Y-7016543D01*
X13042180Y-6866543D02*
X13342180Y-6866543D01*
X13192180Y-10116543D02*
X13192180Y-10416543D01*
X13042180Y-10266543D02*
X13342180Y-10266543D01*
X13192180Y-10116543D02*
X13192180Y-10416543D01*
X13042180Y-10266543D02*
X13342180Y-10266543D01*
X13192181Y-5016543D02*
X13192181Y-5316543D01*
X13042181Y-5166543D02*
X13342181Y-5166543D01*
X13192181Y-5016543D02*
X13192181Y-5316543D01*
X13042181Y-5166543D02*
X13342181Y-5166543D01*
X13692180Y-11596543D02*
X13692180Y-11896543D01*
X13542180Y-11746543D02*
X13842180Y-11746543D01*
X13692180Y-8196543D02*
X13692180Y-8496543D01*
X13542180Y-8346543D02*
X13842180Y-8346543D01*
X13692180Y-6496543D02*
X13692180Y-6796543D01*
X13542180Y-6646543D02*
X13842180Y-6646543D01*
X13692180Y-9896543D02*
X13692180Y-10196543D01*
X13542180Y-10046543D02*
X13842180Y-10046543D01*
X13692181Y-4796543D02*
X13692181Y-5096543D01*
X13542181Y-4946543D02*
X13842181Y-4946543D01*
X14492180Y-7057543D02*
X14492180Y-7357543D01*
X14342180Y-7207543D02*
X14642180Y-7207543D01*
X14492180Y-5357543D02*
X14492180Y-5657543D01*
X14342180Y-5507543D02*
X14642180Y-5507543D01*
X14492180Y-10457543D02*
X14492180Y-10757543D01*
X14342180Y-10607543D02*
X14642180Y-10607543D01*
X14492180Y-12157543D02*
X14492180Y-12457543D01*
X14342180Y-12307543D02*
X14642180Y-12307543D01*
X14492180Y-8757544D02*
X14492180Y-9057544D01*
X14342180Y-8907544D02*
X14642180Y-8907544D01*
X14992180Y-7277543D02*
X14992180Y-7577543D01*
X14842180Y-7427543D02*
X15142180Y-7427543D01*
X14992180Y-7277543D02*
X14992180Y-7577543D01*
X14842180Y-7427543D02*
X15142180Y-7427543D01*
X14992180Y-5577543D02*
X14992180Y-5877543D01*
X14842180Y-5727543D02*
X15142180Y-5727543D01*
X14992180Y-5577543D02*
X14992180Y-5877543D01*
X14842180Y-5727543D02*
X15142180Y-5727543D01*
X14992180Y-10677543D02*
X14992180Y-10977543D01*
X14842180Y-10827543D02*
X15142180Y-10827543D01*
X14992180Y-10677543D02*
X14992180Y-10977543D01*
X14842180Y-10827543D02*
X15142180Y-10827543D01*
X14992180Y-12377543D02*
X14992180Y-12677543D01*
X14842180Y-12527543D02*
X15142180Y-12527543D01*
X14992180Y-12377543D02*
X14992180Y-12677543D01*
X14842180Y-12527543D02*
X15142180Y-12527543D01*
X14992180Y-8977544D02*
X14992180Y-9277544D01*
X14842180Y-9127544D02*
X15142180Y-9127544D01*
X14992180Y-8977544D02*
X14992180Y-9277544D01*
X14842180Y-9127544D02*
X15142180Y-9127544D01*
X15492180Y-7057543D02*
X15492180Y-7357543D01*
X15342180Y-7207543D02*
X15642180Y-7207543D01*
X15492180Y-5357543D02*
X15492180Y-5657543D01*
X15342180Y-5507543D02*
X15642180Y-5507543D01*
X15492180Y-10457543D02*
X15492180Y-10757543D01*
X15342180Y-10607543D02*
X15642180Y-10607543D01*
X15492180Y-12157543D02*
X15492180Y-12457543D01*
X15342180Y-12307543D02*
X15642180Y-12307543D01*
X15492180Y-8757544D02*
X15492180Y-9057544D01*
X15342180Y-8907544D02*
X15642180Y-8907544D01*
X16292180Y-7307543D02*
X16292180Y-7607543D01*
X16142180Y-7457543D02*
X16442180Y-7457543D01*
X16292180Y-5607544D02*
X16292180Y-5907544D01*
X16142180Y-5757544D02*
X16442180Y-5757544D01*
X16292180Y-10707544D02*
X16292180Y-11007544D01*
X16142180Y-10857544D02*
X16442180Y-10857544D01*
X16292180Y-9007543D02*
X16292180Y-9307543D01*
X16142180Y-9157543D02*
X16442180Y-9157543D01*
X16412160Y-12454357D02*
X16412160Y-12754357D01*
X16262160Y-12604357D02*
X16562160Y-12604357D01*
X16792180Y-7527543D02*
X16792180Y-7827543D01*
X16642180Y-7677543D02*
X16942180Y-7677543D01*
X16792180Y-7527543D02*
X16792180Y-7827543D01*
X16642180Y-7677543D02*
X16942180Y-7677543D01*
X16792180Y-5827544D02*
X16792180Y-6127544D01*
X16642180Y-5977544D02*
X16942180Y-5977544D01*
X16792180Y-5827544D02*
X16792180Y-6127544D01*
X16642180Y-5977544D02*
X16942180Y-5977544D01*
X16792180Y-10927544D02*
X16792180Y-11227544D01*
X16642180Y-11077544D02*
X16942180Y-11077544D01*
X16792180Y-10927544D02*
X16792180Y-11227544D01*
X16642180Y-11077544D02*
X16942180Y-11077544D01*
X16792181Y-9227543D02*
X16792181Y-9527543D01*
X16642180Y-9377543D02*
X16942181Y-9377543D01*
X16792181Y-9227543D02*
X16792181Y-9527543D01*
X16642180Y-9377543D02*
X16942181Y-9377543D01*
X16838183Y-12796270D02*
X16838183Y-13096270D01*
X16688183Y-12946270D02*
X16988183Y-12946270D01*
X16838183Y-12796270D02*
X16838183Y-13096270D01*
X16688183Y-12946270D02*
X16988183Y-12946270D01*
X17292180Y-7307543D02*
X17292180Y-7607543D01*
X17142180Y-7457543D02*
X17442180Y-7457543D01*
X17292180Y-5607544D02*
X17292180Y-5907544D01*
X17142180Y-5757544D02*
X17442180Y-5757544D01*
X17292180Y-10707544D02*
X17292180Y-11007544D01*
X17142180Y-10857544D02*
X17442180Y-10857544D01*
X17292181Y-9007543D02*
X17292181Y-9307543D01*
X17142181Y-9157543D02*
X17442181Y-9157543D01*
X17378086Y-12713176D02*
X17378086Y-13013176D01*
X17228086Y-12863176D02*
X17528086Y-12863176D01*
X18815413Y-13890943D02*
X18815413Y-14190943D01*
X18665413Y-14040943D02*
X18965413Y-14040943D01*
X19255939Y-13567931D02*
X19255939Y-13867931D01*
X19105939Y-13717931D02*
X19405939Y-13717931D01*
X19255939Y-13567931D02*
X19255939Y-13867931D01*
X19105939Y-13717931D02*
X19405939Y-13717931D01*
X19315413Y-13024918D02*
X19315413Y-13324918D01*
X19165413Y-13174918D02*
X19465413Y-13174918D01*
D15*
X6005147Y-10252043D02*
X6005147Y-10009574D01*
X5762678Y-10009574D01*
X5762678Y-10252043D01*
X6005147Y-10252043D01*
X7650133Y-8401632D02*
X7650133Y-8159163D01*
X7407663Y-8159163D01*
X7407663Y-8401632D01*
X7650133Y-8401632D01*
X7798297Y-10095164D02*
X7798297Y-9852694D01*
X7555827Y-9852694D01*
X7555827Y-10095164D01*
X7798297Y-10095164D01*
X7946462Y-11788694D02*
X7946462Y-11546225D01*
X7703993Y-11546225D01*
X7703993Y-11788694D01*
X7946462Y-11788694D01*
X9295119Y-6551221D02*
X9295119Y-6308751D01*
X9052649Y-6308751D01*
X9052649Y-6551221D01*
X9295119Y-6551221D01*
X9443283Y-8244752D02*
X9443283Y-8002282D01*
X9200814Y-8002282D01*
X9200814Y-8244752D01*
X9443283Y-8244752D01*
X9591448Y-9938283D02*
X9591448Y-9695814D01*
X9348979Y-9695814D01*
X9348979Y-9938283D01*
X9591448Y-9938283D01*
X9739614Y-11631814D02*
X9739614Y-11389344D01*
X9497145Y-11389344D01*
X9497145Y-11631814D01*
X9739614Y-11631814D01*
X11513414Y-8653778D02*
X11513414Y-8411309D01*
X11270945Y-8411309D01*
X11270945Y-8653778D01*
X11513414Y-8653778D01*
X11513415Y-10353778D02*
X11513415Y-10111309D01*
X11270945Y-10111309D01*
X11270945Y-10353778D01*
X11513415Y-10353778D01*
X11513415Y-6953779D02*
X11513415Y-6711310D01*
X11270946Y-6711310D01*
X11270946Y-6953779D01*
X11513415Y-6953779D01*
X11513415Y-5253778D02*
X11513415Y-5011309D01*
X11270946Y-5011309D01*
X11270946Y-5253778D01*
X11513415Y-5253778D01*
X13313414Y-11492778D02*
X13313414Y-11250309D01*
X13070945Y-11250309D01*
X13070945Y-11492778D01*
X13313414Y-11492778D01*
X13313414Y-8092778D02*
X13313414Y-7850309D01*
X13070945Y-7850309D01*
X13070945Y-8092778D01*
X13313414Y-8092778D01*
X13313415Y-6392778D02*
X13313415Y-6150309D01*
X13070946Y-6150309D01*
X13070946Y-6392778D01*
X13313415Y-6392778D01*
X13313415Y-9792778D02*
X13313415Y-9550308D01*
X13070946Y-9550308D01*
X13070946Y-9792778D01*
X13313415Y-9792778D01*
X13313416Y-4692778D02*
X13313416Y-4450309D01*
X13070946Y-4450309D01*
X13070946Y-4692778D01*
X13313416Y-4692778D01*
X15113414Y-6953778D02*
X15113414Y-6711308D01*
X14870945Y-6711308D01*
X14870945Y-6953778D01*
X15113414Y-6953778D01*
X15113415Y-5253778D02*
X15113415Y-5011309D01*
X14870945Y-5011309D01*
X14870945Y-5253778D01*
X15113415Y-5253778D01*
X15113415Y-10353778D02*
X15113415Y-10111309D01*
X14870945Y-10111309D01*
X14870945Y-10353778D01*
X15113415Y-10353778D01*
X15113415Y-12053778D02*
X15113415Y-11811309D01*
X14870945Y-11811309D01*
X14870945Y-12053778D01*
X15113415Y-12053778D01*
X15113415Y-8653779D02*
X15113415Y-8411309D01*
X14870946Y-8411309D01*
X14870946Y-8653779D01*
X15113415Y-8653779D01*
X16913415Y-7203778D02*
X16913415Y-6961309D01*
X16670945Y-6961309D01*
X16670945Y-7203778D01*
X16913415Y-7203778D01*
X16913415Y-5503778D02*
X16913415Y-5261309D01*
X16670946Y-5261309D01*
X16670946Y-5503778D01*
X16913415Y-5503778D01*
X16913415Y-10603779D02*
X16913415Y-10361309D01*
X16670946Y-10361309D01*
X16670946Y-10603779D01*
X16913415Y-10603779D01*
X16913415Y-8903778D02*
X16913415Y-8661309D01*
X16670946Y-8661309D01*
X16670946Y-8903778D01*
X16913415Y-8903778D01*
X17113415Y-12492779D02*
X17113415Y-12250309D01*
X16870945Y-12250309D01*
X16870945Y-12492779D01*
X17113415Y-12492779D01*
X18861889Y-13541665D02*
X18861889Y-13299196D01*
X18619419Y-13299196D01*
X18619419Y-13541665D01*
X18861889Y-13541665D01*
D11*
X5064949Y-15034257D02*
X5064949Y-14834257D01*
X5064949Y-14834257D02*
X5112568Y-14834257D01*
X5112568Y-14834257D02*
X5141140Y-14843780D01*
X5141140Y-14843780D02*
X5160187Y-14862828D01*
X5160187Y-14862828D02*
X5169711Y-14881876D01*
X5169711Y-14881876D02*
X5179235Y-14919971D01*
X5179235Y-14919971D02*
X5179235Y-14948542D01*
X5179235Y-14948542D02*
X5169711Y-14986637D01*
X5169711Y-14986637D02*
X5160187Y-15005685D01*
X5160187Y-15005685D02*
X5141140Y-15024733D01*
X5141140Y-15024733D02*
X5112568Y-15034257D01*
X5112568Y-15034257D02*
X5064949Y-15034257D01*
X5264949Y-15034257D02*
X5264949Y-14900923D01*
X5264949Y-14939018D02*
X5274473Y-14919971D01*
X5274473Y-14919971D02*
X5283997Y-14910447D01*
X5283997Y-14910447D02*
X5303044Y-14900923D01*
X5303044Y-14900923D02*
X5322092Y-14900923D01*
X5388759Y-15034257D02*
X5388759Y-14900923D01*
X5388759Y-14834257D02*
X5379235Y-14843780D01*
X5379235Y-14843780D02*
X5388759Y-14853304D01*
X5388759Y-14853304D02*
X5398282Y-14843780D01*
X5398282Y-14843780D02*
X5388759Y-14834257D01*
X5388759Y-14834257D02*
X5388759Y-14853304D01*
X5512568Y-15034257D02*
X5493521Y-15024733D01*
X5493521Y-15024733D02*
X5483997Y-15005685D01*
X5483997Y-15005685D02*
X5483997Y-14834257D01*
X5617330Y-15034257D02*
X5598282Y-15024733D01*
X5598282Y-15024733D02*
X5588759Y-15005685D01*
X5588759Y-15005685D02*
X5588759Y-14834257D01*
X5845901Y-15034257D02*
X5845901Y-14834257D01*
X5845901Y-14834257D02*
X5912568Y-14977114D01*
X5912568Y-14977114D02*
X5979235Y-14834257D01*
X5979235Y-14834257D02*
X5979235Y-15034257D01*
X6160187Y-15034257D02*
X6160187Y-14929495D01*
X6160187Y-14929495D02*
X6150663Y-14910447D01*
X6150663Y-14910447D02*
X6131616Y-14900923D01*
X6131616Y-14900923D02*
X6093520Y-14900923D01*
X6093520Y-14900923D02*
X6074473Y-14910447D01*
X6160187Y-15024733D02*
X6141140Y-15034257D01*
X6141140Y-15034257D02*
X6093520Y-15034257D01*
X6093520Y-15034257D02*
X6074473Y-15024733D01*
X6074473Y-15024733D02*
X6064949Y-15005685D01*
X6064949Y-15005685D02*
X6064949Y-14986637D01*
X6064949Y-14986637D02*
X6074473Y-14967590D01*
X6074473Y-14967590D02*
X6093520Y-14958066D01*
X6093520Y-14958066D02*
X6141140Y-14958066D01*
X6141140Y-14958066D02*
X6160187Y-14948542D01*
X6255425Y-14900923D02*
X6255425Y-15100923D01*
X6255425Y-14910447D02*
X6274473Y-14900923D01*
X6274473Y-14900923D02*
X6312568Y-14900923D01*
X6312568Y-14900923D02*
X6331616Y-14910447D01*
X6331616Y-14910447D02*
X6341140Y-14919971D01*
X6341140Y-14919971D02*
X6350663Y-14939018D01*
X6350663Y-14939018D02*
X6350663Y-14996161D01*
X6350663Y-14996161D02*
X6341140Y-15015209D01*
X6341140Y-15015209D02*
X6331616Y-15024733D01*
X6331616Y-15024733D02*
X6312568Y-15034257D01*
X6312568Y-15034257D02*
X6274473Y-15034257D01*
X6274473Y-15034257D02*
X6255425Y-15024733D01*
X6436378Y-15015209D02*
X6445901Y-15024733D01*
X6445901Y-15024733D02*
X6436378Y-15034257D01*
X6436378Y-15034257D02*
X6426854Y-15024733D01*
X6426854Y-15024733D02*
X6436378Y-15015209D01*
X6436378Y-15015209D02*
X6436378Y-15034257D01*
X6436378Y-14910447D02*
X6445901Y-14919971D01*
X6445901Y-14919971D02*
X6436378Y-14929495D01*
X6436378Y-14929495D02*
X6426854Y-14919971D01*
X6426854Y-14919971D02*
X6436378Y-14910447D01*
X6436378Y-14910447D02*
X6436378Y-14929495D01*
D12*
X4714172Y-15317773D02*
X4804172Y-15407773D01*
X4804172Y-15317773D02*
X4714172Y-15407773D01*
D11*
X5103044Y-15254257D02*
X5122092Y-15254257D01*
X5122092Y-15254257D02*
X5141140Y-15263780D01*
X5141140Y-15263780D02*
X5150663Y-15273304D01*
X5150663Y-15273304D02*
X5160187Y-15292352D01*
X5160187Y-15292352D02*
X5169711Y-15330447D01*
X5169711Y-15330447D02*
X5169711Y-15378066D01*
X5169711Y-15378066D02*
X5160187Y-15416161D01*
X5160187Y-15416161D02*
X5150663Y-15435209D01*
X5150663Y-15435209D02*
X5141140Y-15444733D01*
X5141140Y-15444733D02*
X5122092Y-15454257D01*
X5122092Y-15454257D02*
X5103044Y-15454257D01*
X5103044Y-15454257D02*
X5083997Y-15444733D01*
X5083997Y-15444733D02*
X5074473Y-15435209D01*
X5074473Y-15435209D02*
X5064949Y-15416161D01*
X5064949Y-15416161D02*
X5055425Y-15378066D01*
X5055425Y-15378066D02*
X5055425Y-15330447D01*
X5055425Y-15330447D02*
X5064949Y-15292352D01*
X5064949Y-15292352D02*
X5074473Y-15273304D01*
X5074473Y-15273304D02*
X5083997Y-15263780D01*
X5083997Y-15263780D02*
X5103044Y-15254257D01*
X5255425Y-15435209D02*
X5264949Y-15444733D01*
X5264949Y-15444733D02*
X5255425Y-15454257D01*
X5255425Y-15454257D02*
X5245902Y-15444733D01*
X5245902Y-15444733D02*
X5255425Y-15435209D01*
X5255425Y-15435209D02*
X5255425Y-15454257D01*
X5360187Y-15454257D02*
X5398282Y-15454257D01*
X5398282Y-15454257D02*
X5417330Y-15444733D01*
X5417330Y-15444733D02*
X5426854Y-15435209D01*
X5426854Y-15435209D02*
X5445902Y-15406637D01*
X5445902Y-15406637D02*
X5455425Y-15368542D01*
X5455425Y-15368542D02*
X5455425Y-15292352D01*
X5455425Y-15292352D02*
X5445902Y-15273304D01*
X5445902Y-15273304D02*
X5436378Y-15263780D01*
X5436378Y-15263780D02*
X5417330Y-15254257D01*
X5417330Y-15254257D02*
X5379235Y-15254257D01*
X5379235Y-15254257D02*
X5360187Y-15263780D01*
X5360187Y-15263780D02*
X5350663Y-15273304D01*
X5350663Y-15273304D02*
X5341140Y-15292352D01*
X5341140Y-15292352D02*
X5341140Y-15339971D01*
X5341140Y-15339971D02*
X5350663Y-15359018D01*
X5350663Y-15359018D02*
X5360187Y-15368542D01*
X5360187Y-15368542D02*
X5379235Y-15378066D01*
X5379235Y-15378066D02*
X5417330Y-15378066D01*
X5417330Y-15378066D02*
X5436378Y-15368542D01*
X5436378Y-15368542D02*
X5445902Y-15359018D01*
X5445902Y-15359018D02*
X5455425Y-15339971D01*
X5579235Y-15254257D02*
X5598282Y-15254257D01*
X5598282Y-15254257D02*
X5617330Y-15263780D01*
X5617330Y-15263780D02*
X5626854Y-15273304D01*
X5626854Y-15273304D02*
X5636378Y-15292352D01*
X5636378Y-15292352D02*
X5645901Y-15330447D01*
X5645901Y-15330447D02*
X5645901Y-15378066D01*
X5645901Y-15378066D02*
X5636378Y-15416161D01*
X5636378Y-15416161D02*
X5626854Y-15435209D01*
X5626854Y-15435209D02*
X5617330Y-15444733D01*
X5617330Y-15444733D02*
X5598282Y-15454257D01*
X5598282Y-15454257D02*
X5579235Y-15454257D01*
X5579235Y-15454257D02*
X5560187Y-15444733D01*
X5560187Y-15444733D02*
X5550663Y-15435209D01*
X5550663Y-15435209D02*
X5541140Y-15416161D01*
X5541140Y-15416161D02*
X5531616Y-15378066D01*
X5531616Y-15378066D02*
X5531616Y-15330447D01*
X5531616Y-15330447D02*
X5541140Y-15292352D01*
X5541140Y-15292352D02*
X5550663Y-15273304D01*
X5550663Y-15273304D02*
X5560187Y-15263780D01*
X5560187Y-15263780D02*
X5579235Y-15254257D01*
X5769711Y-15254257D02*
X5788759Y-15254257D01*
X5788759Y-15254257D02*
X5807806Y-15263780D01*
X5807806Y-15263780D02*
X5817330Y-15273304D01*
X5817330Y-15273304D02*
X5826854Y-15292352D01*
X5826854Y-15292352D02*
X5836378Y-15330447D01*
X5836378Y-15330447D02*
X5836378Y-15378066D01*
X5836378Y-15378066D02*
X5826854Y-15416161D01*
X5826854Y-15416161D02*
X5817330Y-15435209D01*
X5817330Y-15435209D02*
X5807806Y-15444733D01*
X5807806Y-15444733D02*
X5788759Y-15454257D01*
X5788759Y-15454257D02*
X5769711Y-15454257D01*
X5769711Y-15454257D02*
X5750663Y-15444733D01*
X5750663Y-15444733D02*
X5741140Y-15435209D01*
X5741140Y-15435209D02*
X5731616Y-15416161D01*
X5731616Y-15416161D02*
X5722092Y-15378066D01*
X5722092Y-15378066D02*
X5722092Y-15330447D01*
X5722092Y-15330447D02*
X5731616Y-15292352D01*
X5731616Y-15292352D02*
X5741140Y-15273304D01*
X5741140Y-15273304D02*
X5750663Y-15263780D01*
X5750663Y-15263780D02*
X5769711Y-15254257D01*
X5922092Y-15454257D02*
X5922092Y-15320923D01*
X5922092Y-15339971D02*
X5931616Y-15330447D01*
X5931616Y-15330447D02*
X5950663Y-15320923D01*
X5950663Y-15320923D02*
X5979235Y-15320923D01*
X5979235Y-15320923D02*
X5998282Y-15330447D01*
X5998282Y-15330447D02*
X6007806Y-15349495D01*
X6007806Y-15349495D02*
X6007806Y-15454257D01*
X6007806Y-15349495D02*
X6017330Y-15330447D01*
X6017330Y-15330447D02*
X6036378Y-15320923D01*
X6036378Y-15320923D02*
X6064949Y-15320923D01*
X6064949Y-15320923D02*
X6083997Y-15330447D01*
X6083997Y-15330447D02*
X6093521Y-15349495D01*
X6093521Y-15349495D02*
X6093521Y-15454257D01*
X6188759Y-15454257D02*
X6188759Y-15320923D01*
X6188759Y-15339971D02*
X6198282Y-15330447D01*
X6198282Y-15330447D02*
X6217330Y-15320923D01*
X6217330Y-15320923D02*
X6245902Y-15320923D01*
X6245902Y-15320923D02*
X6264949Y-15330447D01*
X6264949Y-15330447D02*
X6274473Y-15349495D01*
X6274473Y-15349495D02*
X6274473Y-15454257D01*
X6274473Y-15349495D02*
X6283997Y-15330447D01*
X6283997Y-15330447D02*
X6303044Y-15320923D01*
X6303044Y-15320923D02*
X6331616Y-15320923D01*
X6331616Y-15320923D02*
X6350663Y-15330447D01*
X6350663Y-15330447D02*
X6360187Y-15349495D01*
X6360187Y-15349495D02*
X6360187Y-15454257D01*
X6750663Y-15244733D02*
X6579235Y-15501876D01*
X7007806Y-15254257D02*
X7026854Y-15254257D01*
X7026854Y-15254257D02*
X7045902Y-15263780D01*
X7045902Y-15263780D02*
X7055425Y-15273304D01*
X7055425Y-15273304D02*
X7064949Y-15292352D01*
X7064949Y-15292352D02*
X7074473Y-15330447D01*
X7074473Y-15330447D02*
X7074473Y-15378066D01*
X7074473Y-15378066D02*
X7064949Y-15416161D01*
X7064949Y-15416161D02*
X7055425Y-15435209D01*
X7055425Y-15435209D02*
X7045902Y-15444733D01*
X7045902Y-15444733D02*
X7026854Y-15454257D01*
X7026854Y-15454257D02*
X7007806Y-15454257D01*
X7007806Y-15454257D02*
X6988759Y-15444733D01*
X6988759Y-15444733D02*
X6979235Y-15435209D01*
X6979235Y-15435209D02*
X6969711Y-15416161D01*
X6969711Y-15416161D02*
X6960187Y-15378066D01*
X6960187Y-15378066D02*
X6960187Y-15330447D01*
X6960187Y-15330447D02*
X6969711Y-15292352D01*
X6969711Y-15292352D02*
X6979235Y-15273304D01*
X6979235Y-15273304D02*
X6988759Y-15263780D01*
X6988759Y-15263780D02*
X7007806Y-15254257D01*
X7160187Y-15435209D02*
X7169711Y-15444733D01*
X7169711Y-15444733D02*
X7160187Y-15454257D01*
X7160187Y-15454257D02*
X7150664Y-15444733D01*
X7150664Y-15444733D02*
X7160187Y-15435209D01*
X7160187Y-15435209D02*
X7160187Y-15454257D01*
X7293521Y-15254257D02*
X7312568Y-15254257D01*
X7312568Y-15254257D02*
X7331616Y-15263780D01*
X7331616Y-15263780D02*
X7341140Y-15273304D01*
X7341140Y-15273304D02*
X7350664Y-15292352D01*
X7350664Y-15292352D02*
X7360187Y-15330447D01*
X7360187Y-15330447D02*
X7360187Y-15378066D01*
X7360187Y-15378066D02*
X7350664Y-15416161D01*
X7350664Y-15416161D02*
X7341140Y-15435209D01*
X7341140Y-15435209D02*
X7331616Y-15444733D01*
X7331616Y-15444733D02*
X7312568Y-15454257D01*
X7312568Y-15454257D02*
X7293521Y-15454257D01*
X7293521Y-15454257D02*
X7274473Y-15444733D01*
X7274473Y-15444733D02*
X7264949Y-15435209D01*
X7264949Y-15435209D02*
X7255425Y-15416161D01*
X7255425Y-15416161D02*
X7245902Y-15378066D01*
X7245902Y-15378066D02*
X7245902Y-15330447D01*
X7245902Y-15330447D02*
X7255425Y-15292352D01*
X7255425Y-15292352D02*
X7264949Y-15273304D01*
X7264949Y-15273304D02*
X7274473Y-15263780D01*
X7274473Y-15263780D02*
X7293521Y-15254257D01*
X7426854Y-15254257D02*
X7550664Y-15254257D01*
X7550664Y-15254257D02*
X7483997Y-15330447D01*
X7483997Y-15330447D02*
X7512568Y-15330447D01*
X7512568Y-15330447D02*
X7531616Y-15339971D01*
X7531616Y-15339971D02*
X7541140Y-15349495D01*
X7541140Y-15349495D02*
X7550664Y-15368542D01*
X7550664Y-15368542D02*
X7550664Y-15416161D01*
X7550664Y-15416161D02*
X7541140Y-15435209D01*
X7541140Y-15435209D02*
X7531616Y-15444733D01*
X7531616Y-15444733D02*
X7512568Y-15454257D01*
X7512568Y-15454257D02*
X7455425Y-15454257D01*
X7455425Y-15454257D02*
X7436378Y-15444733D01*
X7436378Y-15444733D02*
X7426854Y-15435209D01*
X7731616Y-15254257D02*
X7636378Y-15254257D01*
X7636378Y-15254257D02*
X7626854Y-15349495D01*
X7626854Y-15349495D02*
X7636378Y-15339971D01*
X7636378Y-15339971D02*
X7655425Y-15330447D01*
X7655425Y-15330447D02*
X7703045Y-15330447D01*
X7703045Y-15330447D02*
X7722092Y-15339971D01*
X7722092Y-15339971D02*
X7731616Y-15349495D01*
X7731616Y-15349495D02*
X7741140Y-15368542D01*
X7741140Y-15368542D02*
X7741140Y-15416161D01*
X7741140Y-15416161D02*
X7731616Y-15435209D01*
X7731616Y-15435209D02*
X7722092Y-15444733D01*
X7722092Y-15444733D02*
X7703045Y-15454257D01*
X7703045Y-15454257D02*
X7655425Y-15454257D01*
X7655425Y-15454257D02*
X7636378Y-15444733D01*
X7636378Y-15444733D02*
X7626854Y-15435209D01*
X7912568Y-15320923D02*
X7912568Y-15454257D01*
X7864949Y-15244733D02*
X7817330Y-15387590D01*
X7817330Y-15387590D02*
X7941140Y-15387590D01*
X8007806Y-15254257D02*
X8007806Y-15292352D01*
X8083997Y-15254257D02*
X8083997Y-15292352D01*
X8379235Y-15530447D02*
X8369711Y-15520923D01*
X8369711Y-15520923D02*
X8350664Y-15492352D01*
X8350664Y-15492352D02*
X8341140Y-15473304D01*
X8341140Y-15473304D02*
X8331616Y-15444733D01*
X8331616Y-15444733D02*
X8322092Y-15397114D01*
X8322092Y-15397114D02*
X8322092Y-15359018D01*
X8322092Y-15359018D02*
X8331616Y-15311399D01*
X8331616Y-15311399D02*
X8341140Y-15282828D01*
X8341140Y-15282828D02*
X8350664Y-15263780D01*
X8350664Y-15263780D02*
X8369711Y-15235209D01*
X8369711Y-15235209D02*
X8379235Y-15225685D01*
X8445902Y-15273304D02*
X8455426Y-15263780D01*
X8455426Y-15263780D02*
X8474473Y-15254257D01*
X8474473Y-15254257D02*
X8522092Y-15254257D01*
X8522092Y-15254257D02*
X8541140Y-15263780D01*
X8541140Y-15263780D02*
X8550664Y-15273304D01*
X8550664Y-15273304D02*
X8560188Y-15292352D01*
X8560188Y-15292352D02*
X8560188Y-15311399D01*
X8560188Y-15311399D02*
X8550664Y-15339971D01*
X8550664Y-15339971D02*
X8436378Y-15454257D01*
X8436378Y-15454257D02*
X8560188Y-15454257D01*
X8798283Y-15454257D02*
X8798283Y-15254257D01*
X8883997Y-15454257D02*
X8883997Y-15349495D01*
X8883997Y-15349495D02*
X8874473Y-15330447D01*
X8874473Y-15330447D02*
X8855426Y-15320923D01*
X8855426Y-15320923D02*
X8826854Y-15320923D01*
X8826854Y-15320923D02*
X8807807Y-15330447D01*
X8807807Y-15330447D02*
X8798283Y-15339971D01*
X9007807Y-15454257D02*
X8988759Y-15444733D01*
X8988759Y-15444733D02*
X8979235Y-15435209D01*
X8979235Y-15435209D02*
X8969711Y-15416161D01*
X8969711Y-15416161D02*
X8969711Y-15359018D01*
X8969711Y-15359018D02*
X8979235Y-15339971D01*
X8979235Y-15339971D02*
X8988759Y-15330447D01*
X8988759Y-15330447D02*
X9007807Y-15320923D01*
X9007807Y-15320923D02*
X9036378Y-15320923D01*
X9036378Y-15320923D02*
X9055426Y-15330447D01*
X9055426Y-15330447D02*
X9064950Y-15339971D01*
X9064950Y-15339971D02*
X9074473Y-15359018D01*
X9074473Y-15359018D02*
X9074473Y-15416161D01*
X9074473Y-15416161D02*
X9064950Y-15435209D01*
X9064950Y-15435209D02*
X9055426Y-15444733D01*
X9055426Y-15444733D02*
X9036378Y-15454257D01*
X9036378Y-15454257D02*
X9007807Y-15454257D01*
X9188759Y-15454257D02*
X9169711Y-15444733D01*
X9169711Y-15444733D02*
X9160188Y-15425685D01*
X9160188Y-15425685D02*
X9160188Y-15254257D01*
X9341140Y-15444733D02*
X9322092Y-15454257D01*
X9322092Y-15454257D02*
X9283997Y-15454257D01*
X9283997Y-15454257D02*
X9264950Y-15444733D01*
X9264950Y-15444733D02*
X9255426Y-15425685D01*
X9255426Y-15425685D02*
X9255426Y-15349495D01*
X9255426Y-15349495D02*
X9264950Y-15330447D01*
X9264950Y-15330447D02*
X9283997Y-15320923D01*
X9283997Y-15320923D02*
X9322092Y-15320923D01*
X9322092Y-15320923D02*
X9341140Y-15330447D01*
X9341140Y-15330447D02*
X9350664Y-15349495D01*
X9350664Y-15349495D02*
X9350664Y-15368542D01*
X9350664Y-15368542D02*
X9255426Y-15387590D01*
X9426854Y-15444733D02*
X9445902Y-15454257D01*
X9445902Y-15454257D02*
X9483997Y-15454257D01*
X9483997Y-15454257D02*
X9503045Y-15444733D01*
X9503045Y-15444733D02*
X9512569Y-15425685D01*
X9512569Y-15425685D02*
X9512569Y-15416161D01*
X9512569Y-15416161D02*
X9503045Y-15397114D01*
X9503045Y-15397114D02*
X9483997Y-15387590D01*
X9483997Y-15387590D02*
X9455426Y-15387590D01*
X9455426Y-15387590D02*
X9436378Y-15378066D01*
X9436378Y-15378066D02*
X9426854Y-15359018D01*
X9426854Y-15359018D02*
X9426854Y-15349495D01*
X9426854Y-15349495D02*
X9436378Y-15330447D01*
X9436378Y-15330447D02*
X9455426Y-15320923D01*
X9455426Y-15320923D02*
X9483997Y-15320923D01*
X9483997Y-15320923D02*
X9503045Y-15330447D01*
X9579235Y-15530447D02*
X9588759Y-15520923D01*
X9588759Y-15520923D02*
X9607807Y-15492352D01*
X9607807Y-15492352D02*
X9617331Y-15473304D01*
X9617331Y-15473304D02*
X9626854Y-15444733D01*
X9626854Y-15444733D02*
X9636378Y-15397114D01*
X9636378Y-15397114D02*
X9636378Y-15359018D01*
X9636378Y-15359018D02*
X9626854Y-15311399D01*
X9626854Y-15311399D02*
X9617331Y-15282828D01*
X9617331Y-15282828D02*
X9607807Y-15263780D01*
X9607807Y-15263780D02*
X9588759Y-15235209D01*
X9588759Y-15235209D02*
X9579235Y-15225685D01*
X9941140Y-15530447D02*
X9931616Y-15520923D01*
X9931616Y-15520923D02*
X9912569Y-15492352D01*
X9912569Y-15492352D02*
X9903045Y-15473304D01*
X9903045Y-15473304D02*
X9893521Y-15444733D01*
X9893521Y-15444733D02*
X9883997Y-15397114D01*
X9883997Y-15397114D02*
X9883997Y-15359018D01*
X9883997Y-15359018D02*
X9893521Y-15311399D01*
X9893521Y-15311399D02*
X9903045Y-15282828D01*
X9903045Y-15282828D02*
X9912569Y-15263780D01*
X9912569Y-15263780D02*
X9931616Y-15235209D01*
X9931616Y-15235209D02*
X9941140Y-15225685D01*
X10017331Y-15320923D02*
X10017331Y-15454257D01*
X10017331Y-15339971D02*
X10026854Y-15330447D01*
X10026854Y-15330447D02*
X10045902Y-15320923D01*
X10045902Y-15320923D02*
X10074473Y-15320923D01*
X10074473Y-15320923D02*
X10093521Y-15330447D01*
X10093521Y-15330447D02*
X10103045Y-15349495D01*
X10103045Y-15349495D02*
X10103045Y-15454257D01*
X10226854Y-15454257D02*
X10207807Y-15444733D01*
X10207807Y-15444733D02*
X10198283Y-15435209D01*
X10198283Y-15435209D02*
X10188759Y-15416161D01*
X10188759Y-15416161D02*
X10188759Y-15359018D01*
X10188759Y-15359018D02*
X10198283Y-15339971D01*
X10198283Y-15339971D02*
X10207807Y-15330447D01*
X10207807Y-15330447D02*
X10226854Y-15320923D01*
X10226854Y-15320923D02*
X10255426Y-15320923D01*
X10255426Y-15320923D02*
X10274473Y-15330447D01*
X10274473Y-15330447D02*
X10283997Y-15339971D01*
X10283997Y-15339971D02*
X10293521Y-15359018D01*
X10293521Y-15359018D02*
X10293521Y-15416161D01*
X10293521Y-15416161D02*
X10283997Y-15435209D01*
X10283997Y-15435209D02*
X10274473Y-15444733D01*
X10274473Y-15444733D02*
X10255426Y-15454257D01*
X10255426Y-15454257D02*
X10226854Y-15454257D01*
X10350664Y-15320923D02*
X10426854Y-15320923D01*
X10379235Y-15254257D02*
X10379235Y-15425685D01*
X10379235Y-15425685D02*
X10388759Y-15444733D01*
X10388759Y-15444733D02*
X10407807Y-15454257D01*
X10407807Y-15454257D02*
X10426854Y-15454257D01*
X10645902Y-15320923D02*
X10645902Y-15520923D01*
X10645902Y-15330447D02*
X10664950Y-15320923D01*
X10664950Y-15320923D02*
X10703045Y-15320923D01*
X10703045Y-15320923D02*
X10722093Y-15330447D01*
X10722093Y-15330447D02*
X10731616Y-15339971D01*
X10731616Y-15339971D02*
X10741140Y-15359018D01*
X10741140Y-15359018D02*
X10741140Y-15416161D01*
X10741140Y-15416161D02*
X10731616Y-15435209D01*
X10731616Y-15435209D02*
X10722093Y-15444733D01*
X10722093Y-15444733D02*
X10703045Y-15454257D01*
X10703045Y-15454257D02*
X10664950Y-15454257D01*
X10664950Y-15454257D02*
X10645902Y-15444733D01*
X10855426Y-15454257D02*
X10836378Y-15444733D01*
X10836378Y-15444733D02*
X10826854Y-15425685D01*
X10826854Y-15425685D02*
X10826854Y-15254257D01*
X11017331Y-15454257D02*
X11017331Y-15349495D01*
X11017331Y-15349495D02*
X11007807Y-15330447D01*
X11007807Y-15330447D02*
X10988759Y-15320923D01*
X10988759Y-15320923D02*
X10950664Y-15320923D01*
X10950664Y-15320923D02*
X10931616Y-15330447D01*
X11017331Y-15444733D02*
X10998283Y-15454257D01*
X10998283Y-15454257D02*
X10950664Y-15454257D01*
X10950664Y-15454257D02*
X10931616Y-15444733D01*
X10931616Y-15444733D02*
X10922093Y-15425685D01*
X10922093Y-15425685D02*
X10922093Y-15406637D01*
X10922093Y-15406637D02*
X10931616Y-15387590D01*
X10931616Y-15387590D02*
X10950664Y-15378066D01*
X10950664Y-15378066D02*
X10998283Y-15378066D01*
X10998283Y-15378066D02*
X11017331Y-15368542D01*
X11083997Y-15320923D02*
X11160188Y-15320923D01*
X11112569Y-15254257D02*
X11112569Y-15425685D01*
X11112569Y-15425685D02*
X11122093Y-15444733D01*
X11122093Y-15444733D02*
X11141140Y-15454257D01*
X11141140Y-15454257D02*
X11160188Y-15454257D01*
X11303045Y-15444733D02*
X11283997Y-15454257D01*
X11283997Y-15454257D02*
X11245902Y-15454257D01*
X11245902Y-15454257D02*
X11226854Y-15444733D01*
X11226854Y-15444733D02*
X11217331Y-15425685D01*
X11217331Y-15425685D02*
X11217331Y-15349495D01*
X11217331Y-15349495D02*
X11226854Y-15330447D01*
X11226854Y-15330447D02*
X11245902Y-15320923D01*
X11245902Y-15320923D02*
X11283997Y-15320923D01*
X11283997Y-15320923D02*
X11303045Y-15330447D01*
X11303045Y-15330447D02*
X11312569Y-15349495D01*
X11312569Y-15349495D02*
X11312569Y-15368542D01*
X11312569Y-15368542D02*
X11217331Y-15387590D01*
X11483997Y-15454257D02*
X11483997Y-15254257D01*
X11483997Y-15444733D02*
X11464950Y-15454257D01*
X11464950Y-15454257D02*
X11426854Y-15454257D01*
X11426854Y-15454257D02*
X11407807Y-15444733D01*
X11407807Y-15444733D02*
X11398283Y-15435209D01*
X11398283Y-15435209D02*
X11388759Y-15416161D01*
X11388759Y-15416161D02*
X11388759Y-15359018D01*
X11388759Y-15359018D02*
X11398283Y-15339971D01*
X11398283Y-15339971D02*
X11407807Y-15330447D01*
X11407807Y-15330447D02*
X11426854Y-15320923D01*
X11426854Y-15320923D02*
X11464950Y-15320923D01*
X11464950Y-15320923D02*
X11483997Y-15330447D01*
X11560188Y-15530447D02*
X11569712Y-15520923D01*
X11569712Y-15520923D02*
X11588759Y-15492352D01*
X11588759Y-15492352D02*
X11598283Y-15473304D01*
X11598283Y-15473304D02*
X11607807Y-15444733D01*
X11607807Y-15444733D02*
X11617331Y-15397114D01*
X11617331Y-15397114D02*
X11617331Y-15359018D01*
X11617331Y-15359018D02*
X11607807Y-15311399D01*
X11607807Y-15311399D02*
X11598283Y-15282828D01*
X11598283Y-15282828D02*
X11588759Y-15263780D01*
X11588759Y-15263780D02*
X11569712Y-15235209D01*
X11569712Y-15235209D02*
X11560188Y-15225685D01*
D13*
X4804172Y-15626773D02*
G75*
G03*
X4804172Y-15626773I-85090J0D01*
G01*
D11*
X5169711Y-15718257D02*
X5055425Y-15718257D01*
X5112568Y-15718257D02*
X5112568Y-15518257D01*
X5112568Y-15518257D02*
X5093521Y-15546828D01*
X5093521Y-15546828D02*
X5074473Y-15565876D01*
X5074473Y-15565876D02*
X5055425Y-15575399D01*
X5255425Y-15699209D02*
X5264949Y-15708733D01*
X5264949Y-15708733D02*
X5255425Y-15718257D01*
X5255425Y-15718257D02*
X5245902Y-15708733D01*
X5245902Y-15708733D02*
X5255425Y-15699209D01*
X5255425Y-15699209D02*
X5255425Y-15718257D01*
X5331616Y-15518257D02*
X5464949Y-15518257D01*
X5464949Y-15518257D02*
X5379235Y-15718257D01*
X5579235Y-15518257D02*
X5598282Y-15518257D01*
X5598282Y-15518257D02*
X5617330Y-15527780D01*
X5617330Y-15527780D02*
X5626854Y-15537304D01*
X5626854Y-15537304D02*
X5636378Y-15556352D01*
X5636378Y-15556352D02*
X5645901Y-15594447D01*
X5645901Y-15594447D02*
X5645901Y-15642066D01*
X5645901Y-15642066D02*
X5636378Y-15680161D01*
X5636378Y-15680161D02*
X5626854Y-15699209D01*
X5626854Y-15699209D02*
X5617330Y-15708733D01*
X5617330Y-15708733D02*
X5598282Y-15718257D01*
X5598282Y-15718257D02*
X5579235Y-15718257D01*
X5579235Y-15718257D02*
X5560187Y-15708733D01*
X5560187Y-15708733D02*
X5550663Y-15699209D01*
X5550663Y-15699209D02*
X5541140Y-15680161D01*
X5541140Y-15680161D02*
X5531616Y-15642066D01*
X5531616Y-15642066D02*
X5531616Y-15594447D01*
X5531616Y-15594447D02*
X5541140Y-15556352D01*
X5541140Y-15556352D02*
X5550663Y-15537304D01*
X5550663Y-15537304D02*
X5560187Y-15527780D01*
X5560187Y-15527780D02*
X5579235Y-15518257D01*
X5722092Y-15537304D02*
X5731616Y-15527780D01*
X5731616Y-15527780D02*
X5750663Y-15518257D01*
X5750663Y-15518257D02*
X5798282Y-15518257D01*
X5798282Y-15518257D02*
X5817330Y-15527780D01*
X5817330Y-15527780D02*
X5826854Y-15537304D01*
X5826854Y-15537304D02*
X5836378Y-15556352D01*
X5836378Y-15556352D02*
X5836378Y-15575399D01*
X5836378Y-15575399D02*
X5826854Y-15603971D01*
X5826854Y-15603971D02*
X5712568Y-15718257D01*
X5712568Y-15718257D02*
X5836378Y-15718257D01*
X5922092Y-15718257D02*
X5922092Y-15584923D01*
X5922092Y-15603971D02*
X5931616Y-15594447D01*
X5931616Y-15594447D02*
X5950663Y-15584923D01*
X5950663Y-15584923D02*
X5979235Y-15584923D01*
X5979235Y-15584923D02*
X5998282Y-15594447D01*
X5998282Y-15594447D02*
X6007806Y-15613495D01*
X6007806Y-15613495D02*
X6007806Y-15718257D01*
X6007806Y-15613495D02*
X6017330Y-15594447D01*
X6017330Y-15594447D02*
X6036378Y-15584923D01*
X6036378Y-15584923D02*
X6064949Y-15584923D01*
X6064949Y-15584923D02*
X6083997Y-15594447D01*
X6083997Y-15594447D02*
X6093521Y-15613495D01*
X6093521Y-15613495D02*
X6093521Y-15718257D01*
X6188759Y-15718257D02*
X6188759Y-15584923D01*
X6188759Y-15603971D02*
X6198282Y-15594447D01*
X6198282Y-15594447D02*
X6217330Y-15584923D01*
X6217330Y-15584923D02*
X6245902Y-15584923D01*
X6245902Y-15584923D02*
X6264949Y-15594447D01*
X6264949Y-15594447D02*
X6274473Y-15613495D01*
X6274473Y-15613495D02*
X6274473Y-15718257D01*
X6274473Y-15613495D02*
X6283997Y-15594447D01*
X6283997Y-15594447D02*
X6303044Y-15584923D01*
X6303044Y-15584923D02*
X6331616Y-15584923D01*
X6331616Y-15584923D02*
X6350663Y-15594447D01*
X6350663Y-15594447D02*
X6360187Y-15613495D01*
X6360187Y-15613495D02*
X6360187Y-15718257D01*
X6750663Y-15508733D02*
X6579235Y-15765876D01*
X7007806Y-15518257D02*
X7026854Y-15518257D01*
X7026854Y-15518257D02*
X7045902Y-15527780D01*
X7045902Y-15527780D02*
X7055425Y-15537304D01*
X7055425Y-15537304D02*
X7064949Y-15556352D01*
X7064949Y-15556352D02*
X7074473Y-15594447D01*
X7074473Y-15594447D02*
X7074473Y-15642066D01*
X7074473Y-15642066D02*
X7064949Y-15680161D01*
X7064949Y-15680161D02*
X7055425Y-15699209D01*
X7055425Y-15699209D02*
X7045902Y-15708733D01*
X7045902Y-15708733D02*
X7026854Y-15718257D01*
X7026854Y-15718257D02*
X7007806Y-15718257D01*
X7007806Y-15718257D02*
X6988759Y-15708733D01*
X6988759Y-15708733D02*
X6979235Y-15699209D01*
X6979235Y-15699209D02*
X6969711Y-15680161D01*
X6969711Y-15680161D02*
X6960187Y-15642066D01*
X6960187Y-15642066D02*
X6960187Y-15594447D01*
X6960187Y-15594447D02*
X6969711Y-15556352D01*
X6969711Y-15556352D02*
X6979235Y-15537304D01*
X6979235Y-15537304D02*
X6988759Y-15527780D01*
X6988759Y-15527780D02*
X7007806Y-15518257D01*
X7160187Y-15699209D02*
X7169711Y-15708733D01*
X7169711Y-15708733D02*
X7160187Y-15718257D01*
X7160187Y-15718257D02*
X7150664Y-15708733D01*
X7150664Y-15708733D02*
X7160187Y-15699209D01*
X7160187Y-15699209D02*
X7160187Y-15718257D01*
X7293521Y-15518257D02*
X7312568Y-15518257D01*
X7312568Y-15518257D02*
X7331616Y-15527780D01*
X7331616Y-15527780D02*
X7341140Y-15537304D01*
X7341140Y-15537304D02*
X7350664Y-15556352D01*
X7350664Y-15556352D02*
X7360187Y-15594447D01*
X7360187Y-15594447D02*
X7360187Y-15642066D01*
X7360187Y-15642066D02*
X7350664Y-15680161D01*
X7350664Y-15680161D02*
X7341140Y-15699209D01*
X7341140Y-15699209D02*
X7331616Y-15708733D01*
X7331616Y-15708733D02*
X7312568Y-15718257D01*
X7312568Y-15718257D02*
X7293521Y-15718257D01*
X7293521Y-15718257D02*
X7274473Y-15708733D01*
X7274473Y-15708733D02*
X7264949Y-15699209D01*
X7264949Y-15699209D02*
X7255425Y-15680161D01*
X7255425Y-15680161D02*
X7245902Y-15642066D01*
X7245902Y-15642066D02*
X7245902Y-15594447D01*
X7245902Y-15594447D02*
X7255425Y-15556352D01*
X7255425Y-15556352D02*
X7264949Y-15537304D01*
X7264949Y-15537304D02*
X7274473Y-15527780D01*
X7274473Y-15527780D02*
X7293521Y-15518257D01*
X7531616Y-15518257D02*
X7493521Y-15518257D01*
X7493521Y-15518257D02*
X7474473Y-15527780D01*
X7474473Y-15527780D02*
X7464949Y-15537304D01*
X7464949Y-15537304D02*
X7445902Y-15565876D01*
X7445902Y-15565876D02*
X7436378Y-15603971D01*
X7436378Y-15603971D02*
X7436378Y-15680161D01*
X7436378Y-15680161D02*
X7445902Y-15699209D01*
X7445902Y-15699209D02*
X7455425Y-15708733D01*
X7455425Y-15708733D02*
X7474473Y-15718257D01*
X7474473Y-15718257D02*
X7512568Y-15718257D01*
X7512568Y-15718257D02*
X7531616Y-15708733D01*
X7531616Y-15708733D02*
X7541140Y-15699209D01*
X7541140Y-15699209D02*
X7550664Y-15680161D01*
X7550664Y-15680161D02*
X7550664Y-15632542D01*
X7550664Y-15632542D02*
X7541140Y-15613495D01*
X7541140Y-15613495D02*
X7531616Y-15603971D01*
X7531616Y-15603971D02*
X7512568Y-15594447D01*
X7512568Y-15594447D02*
X7474473Y-15594447D01*
X7474473Y-15594447D02*
X7455425Y-15603971D01*
X7455425Y-15603971D02*
X7445902Y-15613495D01*
X7445902Y-15613495D02*
X7436378Y-15632542D01*
X7617330Y-15518257D02*
X7750664Y-15518257D01*
X7750664Y-15518257D02*
X7664949Y-15718257D01*
X7864949Y-15518257D02*
X7883997Y-15518257D01*
X7883997Y-15518257D02*
X7903045Y-15527780D01*
X7903045Y-15527780D02*
X7912568Y-15537304D01*
X7912568Y-15537304D02*
X7922092Y-15556352D01*
X7922092Y-15556352D02*
X7931616Y-15594447D01*
X7931616Y-15594447D02*
X7931616Y-15642066D01*
X7931616Y-15642066D02*
X7922092Y-15680161D01*
X7922092Y-15680161D02*
X7912568Y-15699209D01*
X7912568Y-15699209D02*
X7903045Y-15708733D01*
X7903045Y-15708733D02*
X7883997Y-15718257D01*
X7883997Y-15718257D02*
X7864949Y-15718257D01*
X7864949Y-15718257D02*
X7845902Y-15708733D01*
X7845902Y-15708733D02*
X7836378Y-15699209D01*
X7836378Y-15699209D02*
X7826854Y-15680161D01*
X7826854Y-15680161D02*
X7817330Y-15642066D01*
X7817330Y-15642066D02*
X7817330Y-15594447D01*
X7817330Y-15594447D02*
X7826854Y-15556352D01*
X7826854Y-15556352D02*
X7836378Y-15537304D01*
X7836378Y-15537304D02*
X7845902Y-15527780D01*
X7845902Y-15527780D02*
X7864949Y-15518257D01*
X8007806Y-15518257D02*
X8007806Y-15556352D01*
X8083997Y-15518257D02*
X8083997Y-15556352D01*
X8379235Y-15794447D02*
X8369711Y-15784923D01*
X8369711Y-15784923D02*
X8350664Y-15756352D01*
X8350664Y-15756352D02*
X8341140Y-15737304D01*
X8341140Y-15737304D02*
X8331616Y-15708733D01*
X8331616Y-15708733D02*
X8322092Y-15661114D01*
X8322092Y-15661114D02*
X8322092Y-15623018D01*
X8322092Y-15623018D02*
X8331616Y-15575399D01*
X8331616Y-15575399D02*
X8341140Y-15546828D01*
X8341140Y-15546828D02*
X8350664Y-15527780D01*
X8350664Y-15527780D02*
X8369711Y-15499209D01*
X8369711Y-15499209D02*
X8379235Y-15489685D01*
X8550664Y-15518257D02*
X8455426Y-15518257D01*
X8455426Y-15518257D02*
X8445902Y-15613495D01*
X8445902Y-15613495D02*
X8455426Y-15603971D01*
X8455426Y-15603971D02*
X8474473Y-15594447D01*
X8474473Y-15594447D02*
X8522092Y-15594447D01*
X8522092Y-15594447D02*
X8541140Y-15603971D01*
X8541140Y-15603971D02*
X8550664Y-15613495D01*
X8550664Y-15613495D02*
X8560188Y-15632542D01*
X8560188Y-15632542D02*
X8560188Y-15680161D01*
X8560188Y-15680161D02*
X8550664Y-15699209D01*
X8550664Y-15699209D02*
X8541140Y-15708733D01*
X8541140Y-15708733D02*
X8522092Y-15718257D01*
X8522092Y-15718257D02*
X8474473Y-15718257D01*
X8474473Y-15718257D02*
X8455426Y-15708733D01*
X8455426Y-15708733D02*
X8445902Y-15699209D01*
X8731616Y-15518257D02*
X8693521Y-15518257D01*
X8693521Y-15518257D02*
X8674473Y-15527780D01*
X8674473Y-15527780D02*
X8664949Y-15537304D01*
X8664949Y-15537304D02*
X8645902Y-15565876D01*
X8645902Y-15565876D02*
X8636378Y-15603971D01*
X8636378Y-15603971D02*
X8636378Y-15680161D01*
X8636378Y-15680161D02*
X8645902Y-15699209D01*
X8645902Y-15699209D02*
X8655426Y-15708733D01*
X8655426Y-15708733D02*
X8674473Y-15718257D01*
X8674473Y-15718257D02*
X8712569Y-15718257D01*
X8712569Y-15718257D02*
X8731616Y-15708733D01*
X8731616Y-15708733D02*
X8741140Y-15699209D01*
X8741140Y-15699209D02*
X8750664Y-15680161D01*
X8750664Y-15680161D02*
X8750664Y-15632542D01*
X8750664Y-15632542D02*
X8741140Y-15613495D01*
X8741140Y-15613495D02*
X8731616Y-15603971D01*
X8731616Y-15603971D02*
X8712569Y-15594447D01*
X8712569Y-15594447D02*
X8674473Y-15594447D01*
X8674473Y-15594447D02*
X8655426Y-15603971D01*
X8655426Y-15603971D02*
X8645902Y-15613495D01*
X8645902Y-15613495D02*
X8636378Y-15632542D01*
X8988759Y-15718257D02*
X8988759Y-15518257D01*
X9074473Y-15718257D02*
X9074473Y-15613495D01*
X9074473Y-15613495D02*
X9064950Y-15594447D01*
X9064950Y-15594447D02*
X9045902Y-15584923D01*
X9045902Y-15584923D02*
X9017330Y-15584923D01*
X9017330Y-15584923D02*
X8998283Y-15594447D01*
X8998283Y-15594447D02*
X8988759Y-15603971D01*
X9198283Y-15718257D02*
X9179235Y-15708733D01*
X9179235Y-15708733D02*
X9169711Y-15699209D01*
X9169711Y-15699209D02*
X9160188Y-15680161D01*
X9160188Y-15680161D02*
X9160188Y-15623018D01*
X9160188Y-15623018D02*
X9169711Y-15603971D01*
X9169711Y-15603971D02*
X9179235Y-15594447D01*
X9179235Y-15594447D02*
X9198283Y-15584923D01*
X9198283Y-15584923D02*
X9226854Y-15584923D01*
X9226854Y-15584923D02*
X9245902Y-15594447D01*
X9245902Y-15594447D02*
X9255426Y-15603971D01*
X9255426Y-15603971D02*
X9264950Y-15623018D01*
X9264950Y-15623018D02*
X9264950Y-15680161D01*
X9264950Y-15680161D02*
X9255426Y-15699209D01*
X9255426Y-15699209D02*
X9245902Y-15708733D01*
X9245902Y-15708733D02*
X9226854Y-15718257D01*
X9226854Y-15718257D02*
X9198283Y-15718257D01*
X9379235Y-15718257D02*
X9360188Y-15708733D01*
X9360188Y-15708733D02*
X9350664Y-15689685D01*
X9350664Y-15689685D02*
X9350664Y-15518257D01*
X9531616Y-15708733D02*
X9512569Y-15718257D01*
X9512569Y-15718257D02*
X9474473Y-15718257D01*
X9474473Y-15718257D02*
X9455426Y-15708733D01*
X9455426Y-15708733D02*
X9445902Y-15689685D01*
X9445902Y-15689685D02*
X9445902Y-15613495D01*
X9445902Y-15613495D02*
X9455426Y-15594447D01*
X9455426Y-15594447D02*
X9474473Y-15584923D01*
X9474473Y-15584923D02*
X9512569Y-15584923D01*
X9512569Y-15584923D02*
X9531616Y-15594447D01*
X9531616Y-15594447D02*
X9541140Y-15613495D01*
X9541140Y-15613495D02*
X9541140Y-15632542D01*
X9541140Y-15632542D02*
X9445902Y-15651590D01*
X9617331Y-15708733D02*
X9636378Y-15718257D01*
X9636378Y-15718257D02*
X9674473Y-15718257D01*
X9674473Y-15718257D02*
X9693521Y-15708733D01*
X9693521Y-15708733D02*
X9703045Y-15689685D01*
X9703045Y-15689685D02*
X9703045Y-15680161D01*
X9703045Y-15680161D02*
X9693521Y-15661114D01*
X9693521Y-15661114D02*
X9674473Y-15651590D01*
X9674473Y-15651590D02*
X9645902Y-15651590D01*
X9645902Y-15651590D02*
X9626854Y-15642066D01*
X9626854Y-15642066D02*
X9617331Y-15623018D01*
X9617331Y-15623018D02*
X9617331Y-15613495D01*
X9617331Y-15613495D02*
X9626854Y-15594447D01*
X9626854Y-15594447D02*
X9645902Y-15584923D01*
X9645902Y-15584923D02*
X9674473Y-15584923D01*
X9674473Y-15584923D02*
X9693521Y-15594447D01*
X9769712Y-15794447D02*
X9779235Y-15784923D01*
X9779235Y-15784923D02*
X9798283Y-15756352D01*
X9798283Y-15756352D02*
X9807807Y-15737304D01*
X9807807Y-15737304D02*
X9817331Y-15708733D01*
X9817331Y-15708733D02*
X9826854Y-15661114D01*
X9826854Y-15661114D02*
X9826854Y-15623018D01*
X9826854Y-15623018D02*
X9817331Y-15575399D01*
X9817331Y-15575399D02*
X9807807Y-15546828D01*
X9807807Y-15546828D02*
X9798283Y-15527780D01*
X9798283Y-15527780D02*
X9779235Y-15499209D01*
X9779235Y-15499209D02*
X9769712Y-15489685D01*
X10131616Y-15794447D02*
X10122092Y-15784923D01*
X10122092Y-15784923D02*
X10103045Y-15756352D01*
X10103045Y-15756352D02*
X10093521Y-15737304D01*
X10093521Y-15737304D02*
X10083997Y-15708733D01*
X10083997Y-15708733D02*
X10074473Y-15661114D01*
X10074473Y-15661114D02*
X10074473Y-15623018D01*
X10074473Y-15623018D02*
X10083997Y-15575399D01*
X10083997Y-15575399D02*
X10093521Y-15546828D01*
X10093521Y-15546828D02*
X10103045Y-15527780D01*
X10103045Y-15527780D02*
X10122092Y-15499209D01*
X10122092Y-15499209D02*
X10131616Y-15489685D01*
X10207807Y-15584923D02*
X10207807Y-15718257D01*
X10207807Y-15603971D02*
X10217331Y-15594447D01*
X10217331Y-15594447D02*
X10236378Y-15584923D01*
X10236378Y-15584923D02*
X10264950Y-15584923D01*
X10264950Y-15584923D02*
X10283997Y-15594447D01*
X10283997Y-15594447D02*
X10293521Y-15613495D01*
X10293521Y-15613495D02*
X10293521Y-15718257D01*
X10417331Y-15718257D02*
X10398283Y-15708733D01*
X10398283Y-15708733D02*
X10388759Y-15699209D01*
X10388759Y-15699209D02*
X10379235Y-15680161D01*
X10379235Y-15680161D02*
X10379235Y-15623018D01*
X10379235Y-15623018D02*
X10388759Y-15603971D01*
X10388759Y-15603971D02*
X10398283Y-15594447D01*
X10398283Y-15594447D02*
X10417331Y-15584923D01*
X10417331Y-15584923D02*
X10445902Y-15584923D01*
X10445902Y-15584923D02*
X10464950Y-15594447D01*
X10464950Y-15594447D02*
X10474473Y-15603971D01*
X10474473Y-15603971D02*
X10483997Y-15623018D01*
X10483997Y-15623018D02*
X10483997Y-15680161D01*
X10483997Y-15680161D02*
X10474473Y-15699209D01*
X10474473Y-15699209D02*
X10464950Y-15708733D01*
X10464950Y-15708733D02*
X10445902Y-15718257D01*
X10445902Y-15718257D02*
X10417331Y-15718257D01*
X10541140Y-15584923D02*
X10617331Y-15584923D01*
X10569712Y-15518257D02*
X10569712Y-15689685D01*
X10569712Y-15689685D02*
X10579235Y-15708733D01*
X10579235Y-15708733D02*
X10598283Y-15718257D01*
X10598283Y-15718257D02*
X10617331Y-15718257D01*
X10836378Y-15584923D02*
X10836378Y-15784923D01*
X10836378Y-15594447D02*
X10855426Y-15584923D01*
X10855426Y-15584923D02*
X10893521Y-15584923D01*
X10893521Y-15584923D02*
X10912569Y-15594447D01*
X10912569Y-15594447D02*
X10922093Y-15603971D01*
X10922093Y-15603971D02*
X10931616Y-15623018D01*
X10931616Y-15623018D02*
X10931616Y-15680161D01*
X10931616Y-15680161D02*
X10922093Y-15699209D01*
X10922093Y-15699209D02*
X10912569Y-15708733D01*
X10912569Y-15708733D02*
X10893521Y-15718257D01*
X10893521Y-15718257D02*
X10855426Y-15718257D01*
X10855426Y-15718257D02*
X10836378Y-15708733D01*
X11045902Y-15718257D02*
X11026854Y-15708733D01*
X11026854Y-15708733D02*
X11017331Y-15689685D01*
X11017331Y-15689685D02*
X11017331Y-15518257D01*
X11207807Y-15718257D02*
X11207807Y-15613495D01*
X11207807Y-15613495D02*
X11198283Y-15594447D01*
X11198283Y-15594447D02*
X11179235Y-15584923D01*
X11179235Y-15584923D02*
X11141140Y-15584923D01*
X11141140Y-15584923D02*
X11122093Y-15594447D01*
X11207807Y-15708733D02*
X11188759Y-15718257D01*
X11188759Y-15718257D02*
X11141140Y-15718257D01*
X11141140Y-15718257D02*
X11122093Y-15708733D01*
X11122093Y-15708733D02*
X11112569Y-15689685D01*
X11112569Y-15689685D02*
X11112569Y-15670637D01*
X11112569Y-15670637D02*
X11122093Y-15651590D01*
X11122093Y-15651590D02*
X11141140Y-15642066D01*
X11141140Y-15642066D02*
X11188759Y-15642066D01*
X11188759Y-15642066D02*
X11207807Y-15632542D01*
X11274473Y-15584923D02*
X11350664Y-15584923D01*
X11303045Y-15518257D02*
X11303045Y-15689685D01*
X11303045Y-15689685D02*
X11312569Y-15708733D01*
X11312569Y-15708733D02*
X11331616Y-15718257D01*
X11331616Y-15718257D02*
X11350664Y-15718257D01*
X11493521Y-15708733D02*
X11474473Y-15718257D01*
X11474473Y-15718257D02*
X11436378Y-15718257D01*
X11436378Y-15718257D02*
X11417331Y-15708733D01*
X11417331Y-15708733D02*
X11407807Y-15689685D01*
X11407807Y-15689685D02*
X11407807Y-15613495D01*
X11407807Y-15613495D02*
X11417331Y-15594447D01*
X11417331Y-15594447D02*
X11436378Y-15584923D01*
X11436378Y-15584923D02*
X11474473Y-15584923D01*
X11474473Y-15584923D02*
X11493521Y-15594447D01*
X11493521Y-15594447D02*
X11503045Y-15613495D01*
X11503045Y-15613495D02*
X11503045Y-15632542D01*
X11503045Y-15632542D02*
X11407807Y-15651590D01*
X11674473Y-15718257D02*
X11674473Y-15518257D01*
X11674473Y-15708733D02*
X11655426Y-15718257D01*
X11655426Y-15718257D02*
X11617331Y-15718257D01*
X11617331Y-15718257D02*
X11598283Y-15708733D01*
X11598283Y-15708733D02*
X11588759Y-15699209D01*
X11588759Y-15699209D02*
X11579235Y-15680161D01*
X11579235Y-15680161D02*
X11579235Y-15623018D01*
X11579235Y-15623018D02*
X11588759Y-15603971D01*
X11588759Y-15603971D02*
X11598283Y-15594447D01*
X11598283Y-15594447D02*
X11617331Y-15584923D01*
X11617331Y-15584923D02*
X11655426Y-15584923D01*
X11655426Y-15584923D02*
X11674473Y-15594447D01*
X11750664Y-15794447D02*
X11760188Y-15784923D01*
X11760188Y-15784923D02*
X11779235Y-15756352D01*
X11779235Y-15756352D02*
X11788759Y-15737304D01*
X11788759Y-15737304D02*
X11798283Y-15708733D01*
X11798283Y-15708733D02*
X11807807Y-15661114D01*
X11807807Y-15661114D02*
X11807807Y-15623018D01*
X11807807Y-15623018D02*
X11798283Y-15575399D01*
X11798283Y-15575399D02*
X11788759Y-15546828D01*
X11788759Y-15546828D02*
X11779235Y-15527780D01*
X11779235Y-15527780D02*
X11760188Y-15499209D01*
X11760188Y-15499209D02*
X11750664Y-15489685D01*
X4704172Y-15816953D02*
X4704172Y-16016953D01*
X4604172Y-15916953D02*
X4804172Y-15916953D01*
X5045902Y-15808437D02*
X5169711Y-15808437D01*
X5169711Y-15808437D02*
X5103044Y-15884627D01*
X5103044Y-15884627D02*
X5131616Y-15884627D01*
X5131616Y-15884627D02*
X5150663Y-15894151D01*
X5150663Y-15894151D02*
X5160187Y-15903675D01*
X5160187Y-15903675D02*
X5169711Y-15922722D01*
X5169711Y-15922722D02*
X5169711Y-15970341D01*
X5169711Y-15970341D02*
X5160187Y-15989389D01*
X5160187Y-15989389D02*
X5150663Y-15998913D01*
X5150663Y-15998913D02*
X5131616Y-16008437D01*
X5131616Y-16008437D02*
X5074473Y-16008437D01*
X5074473Y-16008437D02*
X5055425Y-15998913D01*
X5055425Y-15998913D02*
X5045902Y-15989389D01*
X5255425Y-15989389D02*
X5264949Y-15998913D01*
X5264949Y-15998913D02*
X5255425Y-16008437D01*
X5255425Y-16008437D02*
X5245902Y-15998913D01*
X5245902Y-15998913D02*
X5255425Y-15989389D01*
X5255425Y-15989389D02*
X5255425Y-16008437D01*
X5388759Y-15808437D02*
X5407806Y-15808437D01*
X5407806Y-15808437D02*
X5426854Y-15817960D01*
X5426854Y-15817960D02*
X5436378Y-15827484D01*
X5436378Y-15827484D02*
X5445902Y-15846532D01*
X5445902Y-15846532D02*
X5455425Y-15884627D01*
X5455425Y-15884627D02*
X5455425Y-15932246D01*
X5455425Y-15932246D02*
X5445902Y-15970341D01*
X5445902Y-15970341D02*
X5436378Y-15989389D01*
X5436378Y-15989389D02*
X5426854Y-15998913D01*
X5426854Y-15998913D02*
X5407806Y-16008437D01*
X5407806Y-16008437D02*
X5388759Y-16008437D01*
X5388759Y-16008437D02*
X5369711Y-15998913D01*
X5369711Y-15998913D02*
X5360187Y-15989389D01*
X5360187Y-15989389D02*
X5350663Y-15970341D01*
X5350663Y-15970341D02*
X5341140Y-15932246D01*
X5341140Y-15932246D02*
X5341140Y-15884627D01*
X5341140Y-15884627D02*
X5350663Y-15846532D01*
X5350663Y-15846532D02*
X5360187Y-15827484D01*
X5360187Y-15827484D02*
X5369711Y-15817960D01*
X5369711Y-15817960D02*
X5388759Y-15808437D01*
X5579235Y-15808437D02*
X5598282Y-15808437D01*
X5598282Y-15808437D02*
X5617330Y-15817960D01*
X5617330Y-15817960D02*
X5626854Y-15827484D01*
X5626854Y-15827484D02*
X5636378Y-15846532D01*
X5636378Y-15846532D02*
X5645901Y-15884627D01*
X5645901Y-15884627D02*
X5645901Y-15932246D01*
X5645901Y-15932246D02*
X5636378Y-15970341D01*
X5636378Y-15970341D02*
X5626854Y-15989389D01*
X5626854Y-15989389D02*
X5617330Y-15998913D01*
X5617330Y-15998913D02*
X5598282Y-16008437D01*
X5598282Y-16008437D02*
X5579235Y-16008437D01*
X5579235Y-16008437D02*
X5560187Y-15998913D01*
X5560187Y-15998913D02*
X5550663Y-15989389D01*
X5550663Y-15989389D02*
X5541140Y-15970341D01*
X5541140Y-15970341D02*
X5531616Y-15932246D01*
X5531616Y-15932246D02*
X5531616Y-15884627D01*
X5531616Y-15884627D02*
X5541140Y-15846532D01*
X5541140Y-15846532D02*
X5550663Y-15827484D01*
X5550663Y-15827484D02*
X5560187Y-15817960D01*
X5560187Y-15817960D02*
X5579235Y-15808437D01*
X5769711Y-15808437D02*
X5788759Y-15808437D01*
X5788759Y-15808437D02*
X5807806Y-15817960D01*
X5807806Y-15817960D02*
X5817330Y-15827484D01*
X5817330Y-15827484D02*
X5826854Y-15846532D01*
X5826854Y-15846532D02*
X5836378Y-15884627D01*
X5836378Y-15884627D02*
X5836378Y-15932246D01*
X5836378Y-15932246D02*
X5826854Y-15970341D01*
X5826854Y-15970341D02*
X5817330Y-15989389D01*
X5817330Y-15989389D02*
X5807806Y-15998913D01*
X5807806Y-15998913D02*
X5788759Y-16008437D01*
X5788759Y-16008437D02*
X5769711Y-16008437D01*
X5769711Y-16008437D02*
X5750663Y-15998913D01*
X5750663Y-15998913D02*
X5741140Y-15989389D01*
X5741140Y-15989389D02*
X5731616Y-15970341D01*
X5731616Y-15970341D02*
X5722092Y-15932246D01*
X5722092Y-15932246D02*
X5722092Y-15884627D01*
X5722092Y-15884627D02*
X5731616Y-15846532D01*
X5731616Y-15846532D02*
X5741140Y-15827484D01*
X5741140Y-15827484D02*
X5750663Y-15817960D01*
X5750663Y-15817960D02*
X5769711Y-15808437D01*
X5922092Y-16008437D02*
X5922092Y-15875103D01*
X5922092Y-15894151D02*
X5931616Y-15884627D01*
X5931616Y-15884627D02*
X5950663Y-15875103D01*
X5950663Y-15875103D02*
X5979235Y-15875103D01*
X5979235Y-15875103D02*
X5998282Y-15884627D01*
X5998282Y-15884627D02*
X6007806Y-15903675D01*
X6007806Y-15903675D02*
X6007806Y-16008437D01*
X6007806Y-15903675D02*
X6017330Y-15884627D01*
X6017330Y-15884627D02*
X6036378Y-15875103D01*
X6036378Y-15875103D02*
X6064949Y-15875103D01*
X6064949Y-15875103D02*
X6083997Y-15884627D01*
X6083997Y-15884627D02*
X6093521Y-15903675D01*
X6093521Y-15903675D02*
X6093521Y-16008437D01*
X6188759Y-16008437D02*
X6188759Y-15875103D01*
X6188759Y-15894151D02*
X6198282Y-15884627D01*
X6198282Y-15884627D02*
X6217330Y-15875103D01*
X6217330Y-15875103D02*
X6245902Y-15875103D01*
X6245902Y-15875103D02*
X6264949Y-15884627D01*
X6264949Y-15884627D02*
X6274473Y-15903675D01*
X6274473Y-15903675D02*
X6274473Y-16008437D01*
X6274473Y-15903675D02*
X6283997Y-15884627D01*
X6283997Y-15884627D02*
X6303044Y-15875103D01*
X6303044Y-15875103D02*
X6331616Y-15875103D01*
X6331616Y-15875103D02*
X6350663Y-15884627D01*
X6350663Y-15884627D02*
X6360187Y-15903675D01*
X6360187Y-15903675D02*
X6360187Y-16008437D01*
X6750663Y-15798913D02*
X6579235Y-16056056D01*
X7007806Y-15808437D02*
X7026854Y-15808437D01*
X7026854Y-15808437D02*
X7045902Y-15817960D01*
X7045902Y-15817960D02*
X7055425Y-15827484D01*
X7055425Y-15827484D02*
X7064949Y-15846532D01*
X7064949Y-15846532D02*
X7074473Y-15884627D01*
X7074473Y-15884627D02*
X7074473Y-15932246D01*
X7074473Y-15932246D02*
X7064949Y-15970341D01*
X7064949Y-15970341D02*
X7055425Y-15989389D01*
X7055425Y-15989389D02*
X7045902Y-15998913D01*
X7045902Y-15998913D02*
X7026854Y-16008437D01*
X7026854Y-16008437D02*
X7007806Y-16008437D01*
X7007806Y-16008437D02*
X6988759Y-15998913D01*
X6988759Y-15998913D02*
X6979235Y-15989389D01*
X6979235Y-15989389D02*
X6969711Y-15970341D01*
X6969711Y-15970341D02*
X6960187Y-15932246D01*
X6960187Y-15932246D02*
X6960187Y-15884627D01*
X6960187Y-15884627D02*
X6969711Y-15846532D01*
X6969711Y-15846532D02*
X6979235Y-15827484D01*
X6979235Y-15827484D02*
X6988759Y-15817960D01*
X6988759Y-15817960D02*
X7007806Y-15808437D01*
X7160187Y-15989389D02*
X7169711Y-15998913D01*
X7169711Y-15998913D02*
X7160187Y-16008437D01*
X7160187Y-16008437D02*
X7150664Y-15998913D01*
X7150664Y-15998913D02*
X7160187Y-15989389D01*
X7160187Y-15989389D02*
X7160187Y-16008437D01*
X7360187Y-16008437D02*
X7245902Y-16008437D01*
X7303044Y-16008437D02*
X7303044Y-15808437D01*
X7303044Y-15808437D02*
X7283997Y-15837008D01*
X7283997Y-15837008D02*
X7264949Y-15856056D01*
X7264949Y-15856056D02*
X7245902Y-15865579D01*
X7550664Y-16008437D02*
X7436378Y-16008437D01*
X7493521Y-16008437D02*
X7493521Y-15808437D01*
X7493521Y-15808437D02*
X7474473Y-15837008D01*
X7474473Y-15837008D02*
X7455425Y-15856056D01*
X7455425Y-15856056D02*
X7436378Y-15865579D01*
X7664949Y-15894151D02*
X7645902Y-15884627D01*
X7645902Y-15884627D02*
X7636378Y-15875103D01*
X7636378Y-15875103D02*
X7626854Y-15856056D01*
X7626854Y-15856056D02*
X7626854Y-15846532D01*
X7626854Y-15846532D02*
X7636378Y-15827484D01*
X7636378Y-15827484D02*
X7645902Y-15817960D01*
X7645902Y-15817960D02*
X7664949Y-15808437D01*
X7664949Y-15808437D02*
X7703045Y-15808437D01*
X7703045Y-15808437D02*
X7722092Y-15817960D01*
X7722092Y-15817960D02*
X7731616Y-15827484D01*
X7731616Y-15827484D02*
X7741140Y-15846532D01*
X7741140Y-15846532D02*
X7741140Y-15856056D01*
X7741140Y-15856056D02*
X7731616Y-15875103D01*
X7731616Y-15875103D02*
X7722092Y-15884627D01*
X7722092Y-15884627D02*
X7703045Y-15894151D01*
X7703045Y-15894151D02*
X7664949Y-15894151D01*
X7664949Y-15894151D02*
X7645902Y-15903675D01*
X7645902Y-15903675D02*
X7636378Y-15913198D01*
X7636378Y-15913198D02*
X7626854Y-15932246D01*
X7626854Y-15932246D02*
X7626854Y-15970341D01*
X7626854Y-15970341D02*
X7636378Y-15989389D01*
X7636378Y-15989389D02*
X7645902Y-15998913D01*
X7645902Y-15998913D02*
X7664949Y-16008437D01*
X7664949Y-16008437D02*
X7703045Y-16008437D01*
X7703045Y-16008437D02*
X7722092Y-15998913D01*
X7722092Y-15998913D02*
X7731616Y-15989389D01*
X7731616Y-15989389D02*
X7741140Y-15970341D01*
X7741140Y-15970341D02*
X7741140Y-15932246D01*
X7741140Y-15932246D02*
X7731616Y-15913198D01*
X7731616Y-15913198D02*
X7722092Y-15903675D01*
X7722092Y-15903675D02*
X7703045Y-15894151D01*
X7931616Y-16008437D02*
X7817330Y-16008437D01*
X7874473Y-16008437D02*
X7874473Y-15808437D01*
X7874473Y-15808437D02*
X7855425Y-15837008D01*
X7855425Y-15837008D02*
X7836378Y-15856056D01*
X7836378Y-15856056D02*
X7817330Y-15865579D01*
X8007806Y-15808437D02*
X8007806Y-15846532D01*
X8083997Y-15808437D02*
X8083997Y-15846532D01*
X8379235Y-16084627D02*
X8369711Y-16075103D01*
X8369711Y-16075103D02*
X8350664Y-16046532D01*
X8350664Y-16046532D02*
X8341140Y-16027484D01*
X8341140Y-16027484D02*
X8331616Y-15998913D01*
X8331616Y-15998913D02*
X8322092Y-15951294D01*
X8322092Y-15951294D02*
X8322092Y-15913198D01*
X8322092Y-15913198D02*
X8331616Y-15865579D01*
X8331616Y-15865579D02*
X8341140Y-15837008D01*
X8341140Y-15837008D02*
X8350664Y-15817960D01*
X8350664Y-15817960D02*
X8369711Y-15789389D01*
X8369711Y-15789389D02*
X8379235Y-15779865D01*
X8560188Y-16008437D02*
X8445902Y-16008437D01*
X8503045Y-16008437D02*
X8503045Y-15808437D01*
X8503045Y-15808437D02*
X8483997Y-15837008D01*
X8483997Y-15837008D02*
X8464949Y-15856056D01*
X8464949Y-15856056D02*
X8445902Y-15865579D01*
X8750664Y-16008437D02*
X8636378Y-16008437D01*
X8693521Y-16008437D02*
X8693521Y-15808437D01*
X8693521Y-15808437D02*
X8674473Y-15837008D01*
X8674473Y-15837008D02*
X8655426Y-15856056D01*
X8655426Y-15856056D02*
X8636378Y-15865579D01*
X8826854Y-15827484D02*
X8836378Y-15817960D01*
X8836378Y-15817960D02*
X8855426Y-15808437D01*
X8855426Y-15808437D02*
X8903045Y-15808437D01*
X8903045Y-15808437D02*
X8922092Y-15817960D01*
X8922092Y-15817960D02*
X8931616Y-15827484D01*
X8931616Y-15827484D02*
X8941140Y-15846532D01*
X8941140Y-15846532D02*
X8941140Y-15865579D01*
X8941140Y-15865579D02*
X8931616Y-15894151D01*
X8931616Y-15894151D02*
X8817330Y-16008437D01*
X8817330Y-16008437D02*
X8941140Y-16008437D01*
X9179235Y-16008437D02*
X9179235Y-15808437D01*
X9264950Y-16008437D02*
X9264950Y-15903675D01*
X9264950Y-15903675D02*
X9255426Y-15884627D01*
X9255426Y-15884627D02*
X9236378Y-15875103D01*
X9236378Y-15875103D02*
X9207807Y-15875103D01*
X9207807Y-15875103D02*
X9188759Y-15884627D01*
X9188759Y-15884627D02*
X9179235Y-15894151D01*
X9388759Y-16008437D02*
X9369711Y-15998913D01*
X9369711Y-15998913D02*
X9360188Y-15989389D01*
X9360188Y-15989389D02*
X9350664Y-15970341D01*
X9350664Y-15970341D02*
X9350664Y-15913198D01*
X9350664Y-15913198D02*
X9360188Y-15894151D01*
X9360188Y-15894151D02*
X9369711Y-15884627D01*
X9369711Y-15884627D02*
X9388759Y-15875103D01*
X9388759Y-15875103D02*
X9417331Y-15875103D01*
X9417331Y-15875103D02*
X9436378Y-15884627D01*
X9436378Y-15884627D02*
X9445902Y-15894151D01*
X9445902Y-15894151D02*
X9455426Y-15913198D01*
X9455426Y-15913198D02*
X9455426Y-15970341D01*
X9455426Y-15970341D02*
X9445902Y-15989389D01*
X9445902Y-15989389D02*
X9436378Y-15998913D01*
X9436378Y-15998913D02*
X9417331Y-16008437D01*
X9417331Y-16008437D02*
X9388759Y-16008437D01*
X9569711Y-16008437D02*
X9550664Y-15998913D01*
X9550664Y-15998913D02*
X9541140Y-15979865D01*
X9541140Y-15979865D02*
X9541140Y-15808437D01*
X9722092Y-15998913D02*
X9703045Y-16008437D01*
X9703045Y-16008437D02*
X9664950Y-16008437D01*
X9664950Y-16008437D02*
X9645902Y-15998913D01*
X9645902Y-15998913D02*
X9636378Y-15979865D01*
X9636378Y-15979865D02*
X9636378Y-15903675D01*
X9636378Y-15903675D02*
X9645902Y-15884627D01*
X9645902Y-15884627D02*
X9664950Y-15875103D01*
X9664950Y-15875103D02*
X9703045Y-15875103D01*
X9703045Y-15875103D02*
X9722092Y-15884627D01*
X9722092Y-15884627D02*
X9731616Y-15903675D01*
X9731616Y-15903675D02*
X9731616Y-15922722D01*
X9731616Y-15922722D02*
X9636378Y-15941770D01*
X9807807Y-15998913D02*
X9826854Y-16008437D01*
X9826854Y-16008437D02*
X9864950Y-16008437D01*
X9864950Y-16008437D02*
X9883997Y-15998913D01*
X9883997Y-15998913D02*
X9893521Y-15979865D01*
X9893521Y-15979865D02*
X9893521Y-15970341D01*
X9893521Y-15970341D02*
X9883997Y-15951294D01*
X9883997Y-15951294D02*
X9864950Y-15941770D01*
X9864950Y-15941770D02*
X9836378Y-15941770D01*
X9836378Y-15941770D02*
X9817331Y-15932246D01*
X9817331Y-15932246D02*
X9807807Y-15913198D01*
X9807807Y-15913198D02*
X9807807Y-15903675D01*
X9807807Y-15903675D02*
X9817331Y-15884627D01*
X9817331Y-15884627D02*
X9836378Y-15875103D01*
X9836378Y-15875103D02*
X9864950Y-15875103D01*
X9864950Y-15875103D02*
X9883997Y-15884627D01*
X9960188Y-16084627D02*
X9969712Y-16075103D01*
X9969712Y-16075103D02*
X9988759Y-16046532D01*
X9988759Y-16046532D02*
X9998283Y-16027484D01*
X9998283Y-16027484D02*
X10007807Y-15998913D01*
X10007807Y-15998913D02*
X10017331Y-15951294D01*
X10017331Y-15951294D02*
X10017331Y-15913198D01*
X10017331Y-15913198D02*
X10007807Y-15865579D01*
X10007807Y-15865579D02*
X9998283Y-15837008D01*
X9998283Y-15837008D02*
X9988759Y-15817960D01*
X9988759Y-15817960D02*
X9969712Y-15789389D01*
X9969712Y-15789389D02*
X9960188Y-15779865D01*
X10322093Y-16084627D02*
X10312569Y-16075103D01*
X10312569Y-16075103D02*
X10293521Y-16046532D01*
X10293521Y-16046532D02*
X10283997Y-16027484D01*
X10283997Y-16027484D02*
X10274473Y-15998913D01*
X10274473Y-15998913D02*
X10264950Y-15951294D01*
X10264950Y-15951294D02*
X10264950Y-15913198D01*
X10264950Y-15913198D02*
X10274473Y-15865579D01*
X10274473Y-15865579D02*
X10283997Y-15837008D01*
X10283997Y-15837008D02*
X10293521Y-15817960D01*
X10293521Y-15817960D02*
X10312569Y-15789389D01*
X10312569Y-15789389D02*
X10322093Y-15779865D01*
X10398283Y-15875103D02*
X10398283Y-16008437D01*
X10398283Y-15894151D02*
X10407807Y-15884627D01*
X10407807Y-15884627D02*
X10426854Y-15875103D01*
X10426854Y-15875103D02*
X10455426Y-15875103D01*
X10455426Y-15875103D02*
X10474473Y-15884627D01*
X10474473Y-15884627D02*
X10483997Y-15903675D01*
X10483997Y-15903675D02*
X10483997Y-16008437D01*
X10607807Y-16008437D02*
X10588759Y-15998913D01*
X10588759Y-15998913D02*
X10579235Y-15989389D01*
X10579235Y-15989389D02*
X10569712Y-15970341D01*
X10569712Y-15970341D02*
X10569712Y-15913198D01*
X10569712Y-15913198D02*
X10579235Y-15894151D01*
X10579235Y-15894151D02*
X10588759Y-15884627D01*
X10588759Y-15884627D02*
X10607807Y-15875103D01*
X10607807Y-15875103D02*
X10636378Y-15875103D01*
X10636378Y-15875103D02*
X10655426Y-15884627D01*
X10655426Y-15884627D02*
X10664950Y-15894151D01*
X10664950Y-15894151D02*
X10674473Y-15913198D01*
X10674473Y-15913198D02*
X10674473Y-15970341D01*
X10674473Y-15970341D02*
X10664950Y-15989389D01*
X10664950Y-15989389D02*
X10655426Y-15998913D01*
X10655426Y-15998913D02*
X10636378Y-16008437D01*
X10636378Y-16008437D02*
X10607807Y-16008437D01*
X10731616Y-15875103D02*
X10807807Y-15875103D01*
X10760188Y-15808437D02*
X10760188Y-15979865D01*
X10760188Y-15979865D02*
X10769712Y-15998913D01*
X10769712Y-15998913D02*
X10788759Y-16008437D01*
X10788759Y-16008437D02*
X10807807Y-16008437D01*
X11026854Y-15875103D02*
X11026854Y-16075103D01*
X11026854Y-15884627D02*
X11045902Y-15875103D01*
X11045902Y-15875103D02*
X11083997Y-15875103D01*
X11083997Y-15875103D02*
X11103045Y-15884627D01*
X11103045Y-15884627D02*
X11112569Y-15894151D01*
X11112569Y-15894151D02*
X11122093Y-15913198D01*
X11122093Y-15913198D02*
X11122093Y-15970341D01*
X11122093Y-15970341D02*
X11112569Y-15989389D01*
X11112569Y-15989389D02*
X11103045Y-15998913D01*
X11103045Y-15998913D02*
X11083997Y-16008437D01*
X11083997Y-16008437D02*
X11045902Y-16008437D01*
X11045902Y-16008437D02*
X11026854Y-15998913D01*
X11236378Y-16008437D02*
X11217331Y-15998913D01*
X11217331Y-15998913D02*
X11207807Y-15979865D01*
X11207807Y-15979865D02*
X11207807Y-15808437D01*
X11398283Y-16008437D02*
X11398283Y-15903675D01*
X11398283Y-15903675D02*
X11388759Y-15884627D01*
X11388759Y-15884627D02*
X11369712Y-15875103D01*
X11369712Y-15875103D02*
X11331616Y-15875103D01*
X11331616Y-15875103D02*
X11312569Y-15884627D01*
X11398283Y-15998913D02*
X11379235Y-16008437D01*
X11379235Y-16008437D02*
X11331616Y-16008437D01*
X11331616Y-16008437D02*
X11312569Y-15998913D01*
X11312569Y-15998913D02*
X11303045Y-15979865D01*
X11303045Y-15979865D02*
X11303045Y-15960817D01*
X11303045Y-15960817D02*
X11312569Y-15941770D01*
X11312569Y-15941770D02*
X11331616Y-15932246D01*
X11331616Y-15932246D02*
X11379235Y-15932246D01*
X11379235Y-15932246D02*
X11398283Y-15922722D01*
X11464950Y-15875103D02*
X11541140Y-15875103D01*
X11493521Y-15808437D02*
X11493521Y-15979865D01*
X11493521Y-15979865D02*
X11503045Y-15998913D01*
X11503045Y-15998913D02*
X11522092Y-16008437D01*
X11522092Y-16008437D02*
X11541140Y-16008437D01*
X11683997Y-15998913D02*
X11664950Y-16008437D01*
X11664950Y-16008437D02*
X11626854Y-16008437D01*
X11626854Y-16008437D02*
X11607807Y-15998913D01*
X11607807Y-15998913D02*
X11598283Y-15979865D01*
X11598283Y-15979865D02*
X11598283Y-15903675D01*
X11598283Y-15903675D02*
X11607807Y-15884627D01*
X11607807Y-15884627D02*
X11626854Y-15875103D01*
X11626854Y-15875103D02*
X11664950Y-15875103D01*
X11664950Y-15875103D02*
X11683997Y-15884627D01*
X11683997Y-15884627D02*
X11693521Y-15903675D01*
X11693521Y-15903675D02*
X11693521Y-15922722D01*
X11693521Y-15922722D02*
X11598283Y-15941770D01*
X11864950Y-16008437D02*
X11864950Y-15808437D01*
X11864950Y-15998913D02*
X11845902Y-16008437D01*
X11845902Y-16008437D02*
X11807807Y-16008437D01*
X11807807Y-16008437D02*
X11788759Y-15998913D01*
X11788759Y-15998913D02*
X11779235Y-15989389D01*
X11779235Y-15989389D02*
X11769712Y-15970341D01*
X11769712Y-15970341D02*
X11769712Y-15913198D01*
X11769712Y-15913198D02*
X11779235Y-15894151D01*
X11779235Y-15894151D02*
X11788759Y-15884627D01*
X11788759Y-15884627D02*
X11807807Y-15875103D01*
X11807807Y-15875103D02*
X11845902Y-15875103D01*
X11845902Y-15875103D02*
X11864950Y-15884627D01*
X11941140Y-16084627D02*
X11950664Y-16075103D01*
X11950664Y-16075103D02*
X11969712Y-16046532D01*
X11969712Y-16046532D02*
X11979235Y-16027484D01*
X11979235Y-16027484D02*
X11988759Y-15998913D01*
X11988759Y-15998913D02*
X11998283Y-15951294D01*
X11998283Y-15951294D02*
X11998283Y-15913198D01*
X11998283Y-15913198D02*
X11988759Y-15865579D01*
X11988759Y-15865579D02*
X11979235Y-15837008D01*
X11979235Y-15837008D02*
X11969712Y-15817960D01*
X11969712Y-15817960D02*
X11950664Y-15789389D01*
X11950664Y-15789389D02*
X11941140Y-15779865D01*
X4774884Y-16307664D02*
X4774884Y-16166241D01*
X4633461Y-16166241D01*
X4633461Y-16307664D01*
X4774884Y-16307664D01*
X5045902Y-16128437D02*
X5169711Y-16128437D01*
X5169711Y-16128437D02*
X5103044Y-16204627D01*
X5103044Y-16204627D02*
X5131616Y-16204627D01*
X5131616Y-16204627D02*
X5150663Y-16214151D01*
X5150663Y-16214151D02*
X5160187Y-16223675D01*
X5160187Y-16223675D02*
X5169711Y-16242722D01*
X5169711Y-16242722D02*
X5169711Y-16290341D01*
X5169711Y-16290341D02*
X5160187Y-16309389D01*
X5160187Y-16309389D02*
X5150663Y-16318913D01*
X5150663Y-16318913D02*
X5131616Y-16328437D01*
X5131616Y-16328437D02*
X5074473Y-16328437D01*
X5074473Y-16328437D02*
X5055425Y-16318913D01*
X5055425Y-16318913D02*
X5045902Y-16309389D01*
X5255425Y-16309389D02*
X5264949Y-16318913D01*
X5264949Y-16318913D02*
X5255425Y-16328437D01*
X5255425Y-16328437D02*
X5245902Y-16318913D01*
X5245902Y-16318913D02*
X5255425Y-16309389D01*
X5255425Y-16309389D02*
X5255425Y-16328437D01*
X5436378Y-16195103D02*
X5436378Y-16328437D01*
X5388759Y-16118913D02*
X5341140Y-16261770D01*
X5341140Y-16261770D02*
X5464949Y-16261770D01*
X5531616Y-16147484D02*
X5541140Y-16137960D01*
X5541140Y-16137960D02*
X5560187Y-16128437D01*
X5560187Y-16128437D02*
X5607806Y-16128437D01*
X5607806Y-16128437D02*
X5626854Y-16137960D01*
X5626854Y-16137960D02*
X5636378Y-16147484D01*
X5636378Y-16147484D02*
X5645901Y-16166532D01*
X5645901Y-16166532D02*
X5645901Y-16185579D01*
X5645901Y-16185579D02*
X5636378Y-16214151D01*
X5636378Y-16214151D02*
X5522092Y-16328437D01*
X5522092Y-16328437D02*
X5645901Y-16328437D01*
X5741140Y-16328437D02*
X5779235Y-16328437D01*
X5779235Y-16328437D02*
X5798282Y-16318913D01*
X5798282Y-16318913D02*
X5807806Y-16309389D01*
X5807806Y-16309389D02*
X5826854Y-16280817D01*
X5826854Y-16280817D02*
X5836378Y-16242722D01*
X5836378Y-16242722D02*
X5836378Y-16166532D01*
X5836378Y-16166532D02*
X5826854Y-16147484D01*
X5826854Y-16147484D02*
X5817330Y-16137960D01*
X5817330Y-16137960D02*
X5798282Y-16128437D01*
X5798282Y-16128437D02*
X5760187Y-16128437D01*
X5760187Y-16128437D02*
X5741140Y-16137960D01*
X5741140Y-16137960D02*
X5731616Y-16147484D01*
X5731616Y-16147484D02*
X5722092Y-16166532D01*
X5722092Y-16166532D02*
X5722092Y-16214151D01*
X5722092Y-16214151D02*
X5731616Y-16233198D01*
X5731616Y-16233198D02*
X5741140Y-16242722D01*
X5741140Y-16242722D02*
X5760187Y-16252246D01*
X5760187Y-16252246D02*
X5798282Y-16252246D01*
X5798282Y-16252246D02*
X5817330Y-16242722D01*
X5817330Y-16242722D02*
X5826854Y-16233198D01*
X5826854Y-16233198D02*
X5836378Y-16214151D01*
X5922092Y-16328437D02*
X5922092Y-16195103D01*
X5922092Y-16214151D02*
X5931616Y-16204627D01*
X5931616Y-16204627D02*
X5950663Y-16195103D01*
X5950663Y-16195103D02*
X5979235Y-16195103D01*
X5979235Y-16195103D02*
X5998282Y-16204627D01*
X5998282Y-16204627D02*
X6007806Y-16223675D01*
X6007806Y-16223675D02*
X6007806Y-16328437D01*
X6007806Y-16223675D02*
X6017330Y-16204627D01*
X6017330Y-16204627D02*
X6036378Y-16195103D01*
X6036378Y-16195103D02*
X6064949Y-16195103D01*
X6064949Y-16195103D02*
X6083997Y-16204627D01*
X6083997Y-16204627D02*
X6093521Y-16223675D01*
X6093521Y-16223675D02*
X6093521Y-16328437D01*
X6188759Y-16328437D02*
X6188759Y-16195103D01*
X6188759Y-16214151D02*
X6198282Y-16204627D01*
X6198282Y-16204627D02*
X6217330Y-16195103D01*
X6217330Y-16195103D02*
X6245902Y-16195103D01*
X6245902Y-16195103D02*
X6264949Y-16204627D01*
X6264949Y-16204627D02*
X6274473Y-16223675D01*
X6274473Y-16223675D02*
X6274473Y-16328437D01*
X6274473Y-16223675D02*
X6283997Y-16204627D01*
X6283997Y-16204627D02*
X6303044Y-16195103D01*
X6303044Y-16195103D02*
X6331616Y-16195103D01*
X6331616Y-16195103D02*
X6350663Y-16204627D01*
X6350663Y-16204627D02*
X6360187Y-16223675D01*
X6360187Y-16223675D02*
X6360187Y-16328437D01*
X6750663Y-16118913D02*
X6579235Y-16376056D01*
X7007806Y-16128437D02*
X7026854Y-16128437D01*
X7026854Y-16128437D02*
X7045902Y-16137960D01*
X7045902Y-16137960D02*
X7055425Y-16147484D01*
X7055425Y-16147484D02*
X7064949Y-16166532D01*
X7064949Y-16166532D02*
X7074473Y-16204627D01*
X7074473Y-16204627D02*
X7074473Y-16252246D01*
X7074473Y-16252246D02*
X7064949Y-16290341D01*
X7064949Y-16290341D02*
X7055425Y-16309389D01*
X7055425Y-16309389D02*
X7045902Y-16318913D01*
X7045902Y-16318913D02*
X7026854Y-16328437D01*
X7026854Y-16328437D02*
X7007806Y-16328437D01*
X7007806Y-16328437D02*
X6988759Y-16318913D01*
X6988759Y-16318913D02*
X6979235Y-16309389D01*
X6979235Y-16309389D02*
X6969711Y-16290341D01*
X6969711Y-16290341D02*
X6960187Y-16252246D01*
X6960187Y-16252246D02*
X6960187Y-16204627D01*
X6960187Y-16204627D02*
X6969711Y-16166532D01*
X6969711Y-16166532D02*
X6979235Y-16147484D01*
X6979235Y-16147484D02*
X6988759Y-16137960D01*
X6988759Y-16137960D02*
X7007806Y-16128437D01*
X7160187Y-16309389D02*
X7169711Y-16318913D01*
X7169711Y-16318913D02*
X7160187Y-16328437D01*
X7160187Y-16328437D02*
X7150664Y-16318913D01*
X7150664Y-16318913D02*
X7160187Y-16309389D01*
X7160187Y-16309389D02*
X7160187Y-16328437D01*
X7360187Y-16328437D02*
X7245902Y-16328437D01*
X7303044Y-16328437D02*
X7303044Y-16128437D01*
X7303044Y-16128437D02*
X7283997Y-16157008D01*
X7283997Y-16157008D02*
X7264949Y-16176056D01*
X7264949Y-16176056D02*
X7245902Y-16185579D01*
X7426854Y-16128437D02*
X7550664Y-16128437D01*
X7550664Y-16128437D02*
X7483997Y-16204627D01*
X7483997Y-16204627D02*
X7512568Y-16204627D01*
X7512568Y-16204627D02*
X7531616Y-16214151D01*
X7531616Y-16214151D02*
X7541140Y-16223675D01*
X7541140Y-16223675D02*
X7550664Y-16242722D01*
X7550664Y-16242722D02*
X7550664Y-16290341D01*
X7550664Y-16290341D02*
X7541140Y-16309389D01*
X7541140Y-16309389D02*
X7531616Y-16318913D01*
X7531616Y-16318913D02*
X7512568Y-16328437D01*
X7512568Y-16328437D02*
X7455425Y-16328437D01*
X7455425Y-16328437D02*
X7436378Y-16318913D01*
X7436378Y-16318913D02*
X7426854Y-16309389D01*
X7731616Y-16128437D02*
X7636378Y-16128437D01*
X7636378Y-16128437D02*
X7626854Y-16223675D01*
X7626854Y-16223675D02*
X7636378Y-16214151D01*
X7636378Y-16214151D02*
X7655425Y-16204627D01*
X7655425Y-16204627D02*
X7703045Y-16204627D01*
X7703045Y-16204627D02*
X7722092Y-16214151D01*
X7722092Y-16214151D02*
X7731616Y-16223675D01*
X7731616Y-16223675D02*
X7741140Y-16242722D01*
X7741140Y-16242722D02*
X7741140Y-16290341D01*
X7741140Y-16290341D02*
X7731616Y-16309389D01*
X7731616Y-16309389D02*
X7722092Y-16318913D01*
X7722092Y-16318913D02*
X7703045Y-16328437D01*
X7703045Y-16328437D02*
X7655425Y-16328437D01*
X7655425Y-16328437D02*
X7636378Y-16318913D01*
X7636378Y-16318913D02*
X7626854Y-16309389D01*
X7864949Y-16128437D02*
X7883997Y-16128437D01*
X7883997Y-16128437D02*
X7903045Y-16137960D01*
X7903045Y-16137960D02*
X7912568Y-16147484D01*
X7912568Y-16147484D02*
X7922092Y-16166532D01*
X7922092Y-16166532D02*
X7931616Y-16204627D01*
X7931616Y-16204627D02*
X7931616Y-16252246D01*
X7931616Y-16252246D02*
X7922092Y-16290341D01*
X7922092Y-16290341D02*
X7912568Y-16309389D01*
X7912568Y-16309389D02*
X7903045Y-16318913D01*
X7903045Y-16318913D02*
X7883997Y-16328437D01*
X7883997Y-16328437D02*
X7864949Y-16328437D01*
X7864949Y-16328437D02*
X7845902Y-16318913D01*
X7845902Y-16318913D02*
X7836378Y-16309389D01*
X7836378Y-16309389D02*
X7826854Y-16290341D01*
X7826854Y-16290341D02*
X7817330Y-16252246D01*
X7817330Y-16252246D02*
X7817330Y-16204627D01*
X7817330Y-16204627D02*
X7826854Y-16166532D01*
X7826854Y-16166532D02*
X7836378Y-16147484D01*
X7836378Y-16147484D02*
X7845902Y-16137960D01*
X7845902Y-16137960D02*
X7864949Y-16128437D01*
X8007806Y-16128437D02*
X8007806Y-16166532D01*
X8083997Y-16128437D02*
X8083997Y-16166532D01*
X8379235Y-16404627D02*
X8369711Y-16395103D01*
X8369711Y-16395103D02*
X8350664Y-16366532D01*
X8350664Y-16366532D02*
X8341140Y-16347484D01*
X8341140Y-16347484D02*
X8331616Y-16318913D01*
X8331616Y-16318913D02*
X8322092Y-16271294D01*
X8322092Y-16271294D02*
X8322092Y-16233198D01*
X8322092Y-16233198D02*
X8331616Y-16185579D01*
X8331616Y-16185579D02*
X8341140Y-16157008D01*
X8341140Y-16157008D02*
X8350664Y-16137960D01*
X8350664Y-16137960D02*
X8369711Y-16109389D01*
X8369711Y-16109389D02*
X8379235Y-16099865D01*
X8445902Y-16147484D02*
X8455426Y-16137960D01*
X8455426Y-16137960D02*
X8474473Y-16128437D01*
X8474473Y-16128437D02*
X8522092Y-16128437D01*
X8522092Y-16128437D02*
X8541140Y-16137960D01*
X8541140Y-16137960D02*
X8550664Y-16147484D01*
X8550664Y-16147484D02*
X8560188Y-16166532D01*
X8560188Y-16166532D02*
X8560188Y-16185579D01*
X8560188Y-16185579D02*
X8550664Y-16214151D01*
X8550664Y-16214151D02*
X8436378Y-16328437D01*
X8436378Y-16328437D02*
X8560188Y-16328437D01*
X8674473Y-16214151D02*
X8655426Y-16204627D01*
X8655426Y-16204627D02*
X8645902Y-16195103D01*
X8645902Y-16195103D02*
X8636378Y-16176056D01*
X8636378Y-16176056D02*
X8636378Y-16166532D01*
X8636378Y-16166532D02*
X8645902Y-16147484D01*
X8645902Y-16147484D02*
X8655426Y-16137960D01*
X8655426Y-16137960D02*
X8674473Y-16128437D01*
X8674473Y-16128437D02*
X8712569Y-16128437D01*
X8712569Y-16128437D02*
X8731616Y-16137960D01*
X8731616Y-16137960D02*
X8741140Y-16147484D01*
X8741140Y-16147484D02*
X8750664Y-16166532D01*
X8750664Y-16166532D02*
X8750664Y-16176056D01*
X8750664Y-16176056D02*
X8741140Y-16195103D01*
X8741140Y-16195103D02*
X8731616Y-16204627D01*
X8731616Y-16204627D02*
X8712569Y-16214151D01*
X8712569Y-16214151D02*
X8674473Y-16214151D01*
X8674473Y-16214151D02*
X8655426Y-16223675D01*
X8655426Y-16223675D02*
X8645902Y-16233198D01*
X8645902Y-16233198D02*
X8636378Y-16252246D01*
X8636378Y-16252246D02*
X8636378Y-16290341D01*
X8636378Y-16290341D02*
X8645902Y-16309389D01*
X8645902Y-16309389D02*
X8655426Y-16318913D01*
X8655426Y-16318913D02*
X8674473Y-16328437D01*
X8674473Y-16328437D02*
X8712569Y-16328437D01*
X8712569Y-16328437D02*
X8731616Y-16318913D01*
X8731616Y-16318913D02*
X8741140Y-16309389D01*
X8741140Y-16309389D02*
X8750664Y-16290341D01*
X8750664Y-16290341D02*
X8750664Y-16252246D01*
X8750664Y-16252246D02*
X8741140Y-16233198D01*
X8741140Y-16233198D02*
X8731616Y-16223675D01*
X8731616Y-16223675D02*
X8712569Y-16214151D01*
X8988759Y-16328437D02*
X8988759Y-16128437D01*
X9074473Y-16328437D02*
X9074473Y-16223675D01*
X9074473Y-16223675D02*
X9064950Y-16204627D01*
X9064950Y-16204627D02*
X9045902Y-16195103D01*
X9045902Y-16195103D02*
X9017330Y-16195103D01*
X9017330Y-16195103D02*
X8998283Y-16204627D01*
X8998283Y-16204627D02*
X8988759Y-16214151D01*
X9198283Y-16328437D02*
X9179235Y-16318913D01*
X9179235Y-16318913D02*
X9169711Y-16309389D01*
X9169711Y-16309389D02*
X9160188Y-16290341D01*
X9160188Y-16290341D02*
X9160188Y-16233198D01*
X9160188Y-16233198D02*
X9169711Y-16214151D01*
X9169711Y-16214151D02*
X9179235Y-16204627D01*
X9179235Y-16204627D02*
X9198283Y-16195103D01*
X9198283Y-16195103D02*
X9226854Y-16195103D01*
X9226854Y-16195103D02*
X9245902Y-16204627D01*
X9245902Y-16204627D02*
X9255426Y-16214151D01*
X9255426Y-16214151D02*
X9264950Y-16233198D01*
X9264950Y-16233198D02*
X9264950Y-16290341D01*
X9264950Y-16290341D02*
X9255426Y-16309389D01*
X9255426Y-16309389D02*
X9245902Y-16318913D01*
X9245902Y-16318913D02*
X9226854Y-16328437D01*
X9226854Y-16328437D02*
X9198283Y-16328437D01*
X9379235Y-16328437D02*
X9360188Y-16318913D01*
X9360188Y-16318913D02*
X9350664Y-16299865D01*
X9350664Y-16299865D02*
X9350664Y-16128437D01*
X9531616Y-16318913D02*
X9512569Y-16328437D01*
X9512569Y-16328437D02*
X9474473Y-16328437D01*
X9474473Y-16328437D02*
X9455426Y-16318913D01*
X9455426Y-16318913D02*
X9445902Y-16299865D01*
X9445902Y-16299865D02*
X9445902Y-16223675D01*
X9445902Y-16223675D02*
X9455426Y-16204627D01*
X9455426Y-16204627D02*
X9474473Y-16195103D01*
X9474473Y-16195103D02*
X9512569Y-16195103D01*
X9512569Y-16195103D02*
X9531616Y-16204627D01*
X9531616Y-16204627D02*
X9541140Y-16223675D01*
X9541140Y-16223675D02*
X9541140Y-16242722D01*
X9541140Y-16242722D02*
X9445902Y-16261770D01*
X9617331Y-16318913D02*
X9636378Y-16328437D01*
X9636378Y-16328437D02*
X9674473Y-16328437D01*
X9674473Y-16328437D02*
X9693521Y-16318913D01*
X9693521Y-16318913D02*
X9703045Y-16299865D01*
X9703045Y-16299865D02*
X9703045Y-16290341D01*
X9703045Y-16290341D02*
X9693521Y-16271294D01*
X9693521Y-16271294D02*
X9674473Y-16261770D01*
X9674473Y-16261770D02*
X9645902Y-16261770D01*
X9645902Y-16261770D02*
X9626854Y-16252246D01*
X9626854Y-16252246D02*
X9617331Y-16233198D01*
X9617331Y-16233198D02*
X9617331Y-16223675D01*
X9617331Y-16223675D02*
X9626854Y-16204627D01*
X9626854Y-16204627D02*
X9645902Y-16195103D01*
X9645902Y-16195103D02*
X9674473Y-16195103D01*
X9674473Y-16195103D02*
X9693521Y-16204627D01*
X9769712Y-16404627D02*
X9779235Y-16395103D01*
X9779235Y-16395103D02*
X9798283Y-16366532D01*
X9798283Y-16366532D02*
X9807807Y-16347484D01*
X9807807Y-16347484D02*
X9817331Y-16318913D01*
X9817331Y-16318913D02*
X9826854Y-16271294D01*
X9826854Y-16271294D02*
X9826854Y-16233198D01*
X9826854Y-16233198D02*
X9817331Y-16185579D01*
X9817331Y-16185579D02*
X9807807Y-16157008D01*
X9807807Y-16157008D02*
X9798283Y-16137960D01*
X9798283Y-16137960D02*
X9779235Y-16109389D01*
X9779235Y-16109389D02*
X9769712Y-16099865D01*
X10131616Y-16404627D02*
X10122092Y-16395103D01*
X10122092Y-16395103D02*
X10103045Y-16366532D01*
X10103045Y-16366532D02*
X10093521Y-16347484D01*
X10093521Y-16347484D02*
X10083997Y-16318913D01*
X10083997Y-16318913D02*
X10074473Y-16271294D01*
X10074473Y-16271294D02*
X10074473Y-16233198D01*
X10074473Y-16233198D02*
X10083997Y-16185579D01*
X10083997Y-16185579D02*
X10093521Y-16157008D01*
X10093521Y-16157008D02*
X10103045Y-16137960D01*
X10103045Y-16137960D02*
X10122092Y-16109389D01*
X10122092Y-16109389D02*
X10131616Y-16099865D01*
X10207807Y-16195103D02*
X10207807Y-16328437D01*
X10207807Y-16214151D02*
X10217331Y-16204627D01*
X10217331Y-16204627D02*
X10236378Y-16195103D01*
X10236378Y-16195103D02*
X10264950Y-16195103D01*
X10264950Y-16195103D02*
X10283997Y-16204627D01*
X10283997Y-16204627D02*
X10293521Y-16223675D01*
X10293521Y-16223675D02*
X10293521Y-16328437D01*
X10417331Y-16328437D02*
X10398283Y-16318913D01*
X10398283Y-16318913D02*
X10388759Y-16309389D01*
X10388759Y-16309389D02*
X10379235Y-16290341D01*
X10379235Y-16290341D02*
X10379235Y-16233198D01*
X10379235Y-16233198D02*
X10388759Y-16214151D01*
X10388759Y-16214151D02*
X10398283Y-16204627D01*
X10398283Y-16204627D02*
X10417331Y-16195103D01*
X10417331Y-16195103D02*
X10445902Y-16195103D01*
X10445902Y-16195103D02*
X10464950Y-16204627D01*
X10464950Y-16204627D02*
X10474473Y-16214151D01*
X10474473Y-16214151D02*
X10483997Y-16233198D01*
X10483997Y-16233198D02*
X10483997Y-16290341D01*
X10483997Y-16290341D02*
X10474473Y-16309389D01*
X10474473Y-16309389D02*
X10464950Y-16318913D01*
X10464950Y-16318913D02*
X10445902Y-16328437D01*
X10445902Y-16328437D02*
X10417331Y-16328437D01*
X10541140Y-16195103D02*
X10617331Y-16195103D01*
X10569712Y-16128437D02*
X10569712Y-16299865D01*
X10569712Y-16299865D02*
X10579235Y-16318913D01*
X10579235Y-16318913D02*
X10598283Y-16328437D01*
X10598283Y-16328437D02*
X10617331Y-16328437D01*
X10836378Y-16195103D02*
X10836378Y-16395103D01*
X10836378Y-16204627D02*
X10855426Y-16195103D01*
X10855426Y-16195103D02*
X10893521Y-16195103D01*
X10893521Y-16195103D02*
X10912569Y-16204627D01*
X10912569Y-16204627D02*
X10922093Y-16214151D01*
X10922093Y-16214151D02*
X10931616Y-16233198D01*
X10931616Y-16233198D02*
X10931616Y-16290341D01*
X10931616Y-16290341D02*
X10922093Y-16309389D01*
X10922093Y-16309389D02*
X10912569Y-16318913D01*
X10912569Y-16318913D02*
X10893521Y-16328437D01*
X10893521Y-16328437D02*
X10855426Y-16328437D01*
X10855426Y-16328437D02*
X10836378Y-16318913D01*
X11045902Y-16328437D02*
X11026854Y-16318913D01*
X11026854Y-16318913D02*
X11017331Y-16299865D01*
X11017331Y-16299865D02*
X11017331Y-16128437D01*
X11207807Y-16328437D02*
X11207807Y-16223675D01*
X11207807Y-16223675D02*
X11198283Y-16204627D01*
X11198283Y-16204627D02*
X11179235Y-16195103D01*
X11179235Y-16195103D02*
X11141140Y-16195103D01*
X11141140Y-16195103D02*
X11122093Y-16204627D01*
X11207807Y-16318913D02*
X11188759Y-16328437D01*
X11188759Y-16328437D02*
X11141140Y-16328437D01*
X11141140Y-16328437D02*
X11122093Y-16318913D01*
X11122093Y-16318913D02*
X11112569Y-16299865D01*
X11112569Y-16299865D02*
X11112569Y-16280817D01*
X11112569Y-16280817D02*
X11122093Y-16261770D01*
X11122093Y-16261770D02*
X11141140Y-16252246D01*
X11141140Y-16252246D02*
X11188759Y-16252246D01*
X11188759Y-16252246D02*
X11207807Y-16242722D01*
X11274473Y-16195103D02*
X11350664Y-16195103D01*
X11303045Y-16128437D02*
X11303045Y-16299865D01*
X11303045Y-16299865D02*
X11312569Y-16318913D01*
X11312569Y-16318913D02*
X11331616Y-16328437D01*
X11331616Y-16328437D02*
X11350664Y-16328437D01*
X11493521Y-16318913D02*
X11474473Y-16328437D01*
X11474473Y-16328437D02*
X11436378Y-16328437D01*
X11436378Y-16328437D02*
X11417331Y-16318913D01*
X11417331Y-16318913D02*
X11407807Y-16299865D01*
X11407807Y-16299865D02*
X11407807Y-16223675D01*
X11407807Y-16223675D02*
X11417331Y-16204627D01*
X11417331Y-16204627D02*
X11436378Y-16195103D01*
X11436378Y-16195103D02*
X11474473Y-16195103D01*
X11474473Y-16195103D02*
X11493521Y-16204627D01*
X11493521Y-16204627D02*
X11503045Y-16223675D01*
X11503045Y-16223675D02*
X11503045Y-16242722D01*
X11503045Y-16242722D02*
X11407807Y-16261770D01*
X11674473Y-16328437D02*
X11674473Y-16128437D01*
X11674473Y-16318913D02*
X11655426Y-16328437D01*
X11655426Y-16328437D02*
X11617331Y-16328437D01*
X11617331Y-16328437D02*
X11598283Y-16318913D01*
X11598283Y-16318913D02*
X11588759Y-16309389D01*
X11588759Y-16309389D02*
X11579235Y-16290341D01*
X11579235Y-16290341D02*
X11579235Y-16233198D01*
X11579235Y-16233198D02*
X11588759Y-16214151D01*
X11588759Y-16214151D02*
X11598283Y-16204627D01*
X11598283Y-16204627D02*
X11617331Y-16195103D01*
X11617331Y-16195103D02*
X11655426Y-16195103D01*
X11655426Y-16195103D02*
X11674473Y-16204627D01*
X11750664Y-16404627D02*
X11760188Y-16395103D01*
X11760188Y-16395103D02*
X11779235Y-16366532D01*
X11779235Y-16366532D02*
X11788759Y-16347484D01*
X11788759Y-16347484D02*
X11798283Y-16318913D01*
X11798283Y-16318913D02*
X11807807Y-16271294D01*
X11807807Y-16271294D02*
X11807807Y-16233198D01*
X11807807Y-16233198D02*
X11798283Y-16185579D01*
X11798283Y-16185579D02*
X11788759Y-16157008D01*
X11788759Y-16157008D02*
X11779235Y-16137960D01*
X11779235Y-16137960D02*
X11760188Y-16109389D01*
X11760188Y-16109389D02*
X11750664Y-16099865D01*
M02*
