%TF.GenerationSoftware,KiCad,Pcbnew,7.0.6-7.0.6~ubuntu20.04.1*%
%TF.CreationDate,2023-07-19T10:29:01+02:00*%
%TF.ProjectId,keyboard,6b657962-6f61-4726-942e-6b696361645f,v1.0.0*%
%TF.SameCoordinates,Original*%
%TF.FileFunction,Legend,Bot*%
%TF.FilePolarity,Positive*%
%FSLAX46Y46*%
G04 Gerber Fmt 4.6, Leading zero omitted, Abs format (unit mm)*
G04 Created by KiCad (PCBNEW 7.0.6-7.0.6~ubuntu20.04.1) date 2023-07-19 10:29:01*
%MOMM*%
%LPD*%
G01*
G04 APERTURE LIST*
G04 Aperture macros list*
%AMRoundRect*
0 Rectangle with rounded corners*
0 $1 Rounding radius*
0 $2 $3 $4 $5 $6 $7 $8 $9 X,Y pos of 4 corners*
0 Add a 4 corners polygon primitive as box body*
4,1,4,$2,$3,$4,$5,$6,$7,$8,$9,$2,$3,0*
0 Add four circle primitives for the rounded corners*
1,1,$1+$1,$2,$3*
1,1,$1+$1,$4,$5*
1,1,$1+$1,$6,$7*
1,1,$1+$1,$8,$9*
0 Add four rect primitives between the rounded corners*
20,1,$1+$1,$2,$3,$4,$5,0*
20,1,$1+$1,$4,$5,$6,$7,0*
20,1,$1+$1,$6,$7,$8,$9,0*
20,1,$1+$1,$8,$9,$2,$3,0*%
%AMFreePoly0*
4,1,14,0.635355,0.435355,0.650000,0.400000,0.650000,0.200000,0.635355,0.164645,0.035355,-0.435355,0.000000,-0.450000,-0.035355,-0.435355,-0.635355,0.164645,-0.650000,0.200000,-0.650000,0.400000,-0.635355,0.435355,-0.600000,0.450000,0.600000,0.450000,0.635355,0.435355,0.635355,0.435355,$1*%
%AMFreePoly1*
4,1,16,0.635355,1.035355,0.650000,1.000000,0.650000,-0.250000,0.635355,-0.285355,0.600000,-0.300000,-0.600000,-0.300000,-0.635355,-0.285355,-0.650000,-0.250000,-0.650000,1.000000,-0.635355,1.035355,-0.600000,1.050000,-0.564645,1.035355,0.000000,0.470710,0.564645,1.035355,0.600000,1.050000,0.635355,1.035355,0.635355,1.035355,$1*%
G04 Aperture macros list end*
%ADD10C,0.150000*%
%ADD11C,0.100000*%
%ADD12C,0.120000*%
%ADD13R,1.400000X1.400000*%
%ADD14C,1.400000*%
%ADD15C,1.752600*%
%ADD16RoundRect,0.050000X-0.450000X-0.450000X0.450000X-0.450000X0.450000X0.450000X-0.450000X0.450000X0*%
%ADD17C,1.100000*%
%ADD18RoundRect,0.050000X-0.450000X-0.625000X0.450000X-0.625000X0.450000X0.625000X-0.450000X0.625000X0*%
%ADD19RoundRect,0.050000X-0.589958X-0.463087X0.279375X-0.696024X0.589958X0.463087X-0.279375X0.696024X0*%
%ADD20C,0.700000*%
%ADD21RoundRect,0.050000X-0.450000X-0.600000X0.450000X-0.600000X0.450000X0.600000X-0.450000X0.600000X0*%
%ADD22FreePoly0,90.000000*%
%ADD23FreePoly1,90.000000*%
%ADD24C,1.801800*%
%ADD25C,3.100000*%
%ADD26C,3.529000*%
%ADD27RoundRect,0.050000X1.300000X1.300000X-1.300000X1.300000X-1.300000X-1.300000X1.300000X-1.300000X0*%
%ADD28C,1.700000*%
%ADD29FreePoly0,180.000000*%
%ADD30FreePoly1,180.000000*%
%ADD31RoundRect,0.050000X-0.395994X-0.636937X0.500581X-0.558497X0.395994X0.636937X-0.500581X0.558497X0*%
%ADD32RoundRect,0.050000X1.181751X1.408356X-1.408356X1.181751X-1.181751X-1.408356X1.408356X-1.181751X0*%
%ADD33C,4.800000*%
%ADD34C,4.100000*%
%ADD35FreePoly0,270.000000*%
%ADD36FreePoly1,270.000000*%
%ADD37RoundRect,0.050000X-0.700000X0.700000X-0.700000X-0.700000X0.700000X-0.700000X0.700000X0.700000X0*%
%ADD38C,1.500000*%
%ADD39O,1.800000X1.800000*%
%ADD40RoundRect,0.050000X-0.475833X1.775833X-1.775833X-0.475833X0.475833X-1.775833X1.775833X0.475833X0*%
%ADD41RoundRect,0.050000X-0.876300X0.876300X-0.876300X-0.876300X0.876300X-0.876300X0.876300X0.876300X0*%
%ADD42C,1.852600*%
%ADD43C,2.100000*%
%ADD44RoundRect,0.050000X-0.689711X-0.294615X0.089711X-0.744615X0.689711X0.294615X-0.089711X0.744615X0*%
%ADD45RoundRect,0.050000X1.592168X0.919239X-0.919239X1.592168X-1.592168X-0.919239X0.919239X-1.592168X0*%
G04 APERTURE END LIST*
D10*
X178775739Y-37883417D02*
X179385263Y-37883417D01*
X166175739Y-37883417D02*
X166785263Y-37883417D01*
X166480501Y-38188179D02*
X166480501Y-37578655D01*
G36*
X171276971Y-77748845D02*
G01*
X171295970Y-77786840D01*
X171295970Y-77830030D01*
X171066380Y-77784112D01*
X171084013Y-77748846D01*
X171122008Y-77729849D01*
X171238978Y-77729849D01*
X171276971Y-77748845D01*
G37*
G36*
X173410303Y-77748845D02*
G01*
X173429302Y-77786840D01*
X173429302Y-77830030D01*
X173199712Y-77784112D01*
X173217345Y-77748846D01*
X173255340Y-77729849D01*
X173372310Y-77729849D01*
X173410303Y-77748845D01*
G37*
G36*
X175560253Y-78377469D02*
G01*
X169924729Y-78377469D01*
X169924729Y-77649545D01*
X170039015Y-77649545D01*
X170041713Y-77675453D01*
X170194094Y-78208787D01*
X170195008Y-78210048D01*
X170194960Y-78211606D01*
X170209970Y-78230682D01*
X170224210Y-78250321D01*
X170225720Y-78250699D01*
X170226684Y-78251924D01*
X170250439Y-78256887D01*
X170273976Y-78262780D01*
X170275377Y-78262098D01*
X170276903Y-78262417D01*
X170298291Y-78250949D01*
X170320109Y-78240334D01*
X170320744Y-78238911D01*
X170322117Y-78238175D01*
X170335844Y-78216037D01*
X170418589Y-78009174D01*
X170501334Y-78216037D01*
X170502373Y-78217199D01*
X170502484Y-78218754D01*
X170519359Y-78236196D01*
X170535531Y-78254282D01*
X170537072Y-78254504D01*
X170538156Y-78255624D01*
X170562288Y-78258137D01*
X170586309Y-78261598D01*
X170587633Y-78260776D01*
X170589183Y-78260938D01*
X170609293Y-78247345D01*
X170629910Y-78234562D01*
X170630396Y-78233083D01*
X170631688Y-78232210D01*
X170643084Y-78208787D01*
X170746930Y-77845326D01*
X170915017Y-77845326D01*
X170919255Y-77856970D01*
X170918972Y-77869360D01*
X170927757Y-77880330D01*
X170932564Y-77893535D01*
X170943295Y-77899730D01*
X170951042Y-77909404D01*
X170975308Y-77918870D01*
X171295970Y-77983001D01*
X171295970Y-78056191D01*
X171276972Y-78094186D01*
X171238979Y-78113183D01*
X171122008Y-78113183D01*
X171061653Y-78083006D01*
X171010686Y-78077141D01*
X170967873Y-78105408D01*
X170953247Y-78154582D01*
X170973650Y-78201653D01*
X170994571Y-78217170D01*
X171070762Y-78255265D01*
X171075215Y-78255777D01*
X171078651Y-78258660D01*
X171104303Y-78263183D01*
X171256684Y-78263183D01*
X171260897Y-78261649D01*
X171265258Y-78262691D01*
X171290225Y-78255265D01*
X171366415Y-78217170D01*
X171374135Y-78209015D01*
X171384438Y-78204550D01*
X171396578Y-78188183D01*
X171638826Y-78188183D01*
X171656373Y-78236392D01*
X171700802Y-78262044D01*
X171751326Y-78253135D01*
X171784303Y-78213835D01*
X171788826Y-78188183D01*
X171788826Y-77654849D01*
X171771279Y-77606640D01*
X171726850Y-77580988D01*
X171676326Y-77589897D01*
X171643349Y-77629197D01*
X171638826Y-77654849D01*
X171638826Y-78188183D01*
X171396578Y-78188183D01*
X171399956Y-78183629D01*
X171438052Y-78107439D01*
X171438564Y-78102984D01*
X171441447Y-78099549D01*
X171445970Y-78073897D01*
X171445970Y-77769135D01*
X171444436Y-77764920D01*
X171445478Y-77760559D01*
X171438051Y-77735593D01*
X171399956Y-77659403D01*
X171391801Y-77651682D01*
X171387336Y-77641381D01*
X171366415Y-77625863D01*
X171290226Y-77587767D01*
X171285771Y-77587254D01*
X171282336Y-77584372D01*
X171256684Y-77579849D01*
X171104303Y-77579849D01*
X171100089Y-77581382D01*
X171095728Y-77580341D01*
X171070761Y-77587767D01*
X170994571Y-77625863D01*
X170986851Y-77634016D01*
X170976547Y-77638483D01*
X170961030Y-77659404D01*
X170922935Y-77735594D01*
X170922422Y-77740047D01*
X170919540Y-77743483D01*
X170915017Y-77769135D01*
X170915017Y-77845326D01*
X170746930Y-77845326D01*
X170795465Y-77675453D01*
X170791838Y-77624278D01*
X170756165Y-77587408D01*
X170705138Y-77582094D01*
X170662633Y-77610822D01*
X170651237Y-77634245D01*
X170559126Y-77956630D01*
X170488225Y-77779376D01*
X170472611Y-77761915D01*
X170458113Y-77743489D01*
X170455681Y-77742980D01*
X170454028Y-77741132D01*
X170430843Y-77737791D01*
X170407894Y-77732996D01*
X170405706Y-77734168D01*
X170403250Y-77733815D01*
X170383338Y-77746161D01*
X170362680Y-77757238D01*
X170360933Y-77760054D01*
X170359649Y-77760851D01*
X170358756Y-77763565D01*
X170348953Y-77779376D01*
X170278051Y-77956630D01*
X170185941Y-77634245D01*
X170155825Y-77592711D01*
X170106059Y-77580252D01*
X170059926Y-77602698D01*
X170039015Y-77649545D01*
X169924729Y-77649545D01*
X169924729Y-77419742D01*
X171601017Y-77419742D01*
X171606059Y-77438561D01*
X171607758Y-77457974D01*
X171613431Y-77466076D01*
X171614294Y-77469296D01*
X171617024Y-77471207D01*
X171622698Y-77479311D01*
X171660793Y-77517406D01*
X171678452Y-77525640D01*
X171694414Y-77536817D01*
X171697830Y-77536518D01*
X171700802Y-77538234D01*
X171704181Y-77537638D01*
X171707289Y-77539087D01*
X171726107Y-77534044D01*
X171745521Y-77532347D01*
X171749335Y-77529675D01*
X171751326Y-77529325D01*
X171753447Y-77526797D01*
X171753625Y-77526672D01*
X171756844Y-77525810D01*
X171758755Y-77523080D01*
X171766858Y-77517407D01*
X171804954Y-77479312D01*
X171813189Y-77461652D01*
X171824367Y-77445688D01*
X171823777Y-77438946D01*
X171826636Y-77432816D01*
X171821593Y-77413997D01*
X171819895Y-77394581D01*
X171814220Y-77386477D01*
X171814128Y-77386134D01*
X171905521Y-77386134D01*
X171909342Y-77411900D01*
X172176008Y-78211900D01*
X172177350Y-78213591D01*
X172177409Y-78215750D01*
X172193158Y-78233511D01*
X172207899Y-78252086D01*
X172210012Y-78252518D01*
X172211446Y-78254135D01*
X172234916Y-78257615D01*
X172258160Y-78262372D01*
X172260059Y-78261343D01*
X172262195Y-78261660D01*
X172282401Y-78249245D01*
X172303274Y-78237944D01*
X172304068Y-78235934D01*
X172305907Y-78234805D01*
X172318310Y-78211900D01*
X172341093Y-78143552D01*
X172667683Y-78143552D01*
X172672725Y-78162370D01*
X172674424Y-78181784D01*
X172680098Y-78189888D01*
X172680961Y-78193107D01*
X172683690Y-78195018D01*
X172689364Y-78203121D01*
X172727459Y-78241216D01*
X172745118Y-78249450D01*
X172761080Y-78260627D01*
X172764496Y-78260328D01*
X172767468Y-78262044D01*
X172770847Y-78261448D01*
X172773955Y-78262897D01*
X172792773Y-78257854D01*
X172812187Y-78256157D01*
X172816001Y-78253485D01*
X172817992Y-78253135D01*
X172820113Y-78250607D01*
X172820291Y-78250482D01*
X172823510Y-78249620D01*
X172825421Y-78246890D01*
X172833524Y-78241217D01*
X172871620Y-78203122D01*
X172879853Y-78185465D01*
X172891033Y-78169500D01*
X172890443Y-78162756D01*
X172893302Y-78156626D01*
X172888260Y-78137809D01*
X172886562Y-78118392D01*
X172880886Y-78110287D01*
X172880025Y-78107071D01*
X172877296Y-78105160D01*
X172871621Y-78097055D01*
X172833525Y-78058959D01*
X172815866Y-78050724D01*
X172799902Y-78039547D01*
X172796486Y-78039845D01*
X172793516Y-78038131D01*
X172790135Y-78038727D01*
X172787028Y-78037278D01*
X172768208Y-78042320D01*
X172748795Y-78044019D01*
X172744981Y-78046689D01*
X172742992Y-78047040D01*
X172740870Y-78049567D01*
X172740692Y-78049692D01*
X172737474Y-78050555D01*
X172735562Y-78053284D01*
X172727458Y-78058960D01*
X172689363Y-78097056D01*
X172681129Y-78114713D01*
X172669952Y-78130677D01*
X172670542Y-78137420D01*
X172667683Y-78143552D01*
X172341093Y-78143552D01*
X172578108Y-77432506D01*
X172667656Y-77432506D01*
X172705751Y-77889650D01*
X172714036Y-77907611D01*
X172719234Y-77926692D01*
X172721920Y-77928556D01*
X172723039Y-77931630D01*
X172725870Y-77933265D01*
X172727241Y-77936235D01*
X172745133Y-77944668D01*
X172761379Y-77955945D01*
X172764635Y-77955646D01*
X172767468Y-77957282D01*
X172770687Y-77956714D01*
X172773647Y-77958109D01*
X172792776Y-77953067D01*
X172812468Y-77951263D01*
X172814770Y-77948940D01*
X172817992Y-77948373D01*
X172820093Y-77945868D01*
X172823256Y-77945035D01*
X172834669Y-77928878D01*
X172848595Y-77914837D01*
X172849722Y-77910558D01*
X172850969Y-77909073D01*
X172851737Y-77904715D01*
X172852856Y-77903132D01*
X172853482Y-77896290D01*
X172855233Y-77889650D01*
X172858927Y-77845326D01*
X173048349Y-77845326D01*
X173052587Y-77856970D01*
X173052304Y-77869360D01*
X173061089Y-77880330D01*
X173065896Y-77893535D01*
X173076627Y-77899730D01*
X173084374Y-77909404D01*
X173108640Y-77918870D01*
X173429302Y-77983001D01*
X173429302Y-78056191D01*
X173410304Y-78094186D01*
X173372311Y-78113183D01*
X173255340Y-78113183D01*
X173194985Y-78083006D01*
X173144018Y-78077141D01*
X173101205Y-78105408D01*
X173086579Y-78154582D01*
X173106982Y-78201653D01*
X173127903Y-78217170D01*
X173204094Y-78255265D01*
X173208547Y-78255777D01*
X173211983Y-78258660D01*
X173237635Y-78263183D01*
X173390016Y-78263183D01*
X173394229Y-78261649D01*
X173398590Y-78262691D01*
X173423557Y-78255265D01*
X173499747Y-78217170D01*
X173507467Y-78209015D01*
X173517770Y-78204550D01*
X173533288Y-78183629D01*
X173547812Y-78154582D01*
X173734198Y-78154582D01*
X173754601Y-78201653D01*
X173775522Y-78217170D01*
X173851713Y-78255265D01*
X173856166Y-78255777D01*
X173859602Y-78258660D01*
X173885254Y-78263183D01*
X174037635Y-78263183D01*
X174041848Y-78261649D01*
X174046209Y-78262691D01*
X174071176Y-78255265D01*
X174147366Y-78217170D01*
X174148490Y-78215982D01*
X174166859Y-78203120D01*
X174181796Y-78188183D01*
X174457872Y-78188183D01*
X174475419Y-78236392D01*
X174519848Y-78262044D01*
X174570372Y-78253135D01*
X174603349Y-78213835D01*
X174607872Y-78188183D01*
X174838824Y-78188183D01*
X174841195Y-78194699D01*
X174840022Y-78201535D01*
X174849761Y-78218232D01*
X174856371Y-78236392D01*
X174862376Y-78239859D01*
X174865871Y-78245851D01*
X174884062Y-78252380D01*
X174900800Y-78262044D01*
X174907631Y-78260839D01*
X174914158Y-78263182D01*
X174932289Y-78256491D01*
X174951324Y-78253135D01*
X174955781Y-78247822D01*
X174962288Y-78245422D01*
X174978942Y-78225393D01*
X175295967Y-77670599D01*
X175295967Y-78188183D01*
X175313514Y-78236392D01*
X175357943Y-78262044D01*
X175408467Y-78253135D01*
X175441444Y-78213835D01*
X175445967Y-78188183D01*
X175445967Y-77388183D01*
X175443595Y-77381666D01*
X175444769Y-77374831D01*
X175435029Y-77358133D01*
X175428420Y-77339974D01*
X175422414Y-77336506D01*
X175418920Y-77330515D01*
X175400728Y-77323985D01*
X175383991Y-77314322D01*
X175377159Y-77315526D01*
X175370633Y-77313184D01*
X175352501Y-77319874D01*
X175333467Y-77323231D01*
X175329009Y-77328543D01*
X175322503Y-77330944D01*
X175305849Y-77350973D01*
X174988824Y-77905766D01*
X174988824Y-77388183D01*
X174971277Y-77339974D01*
X174926848Y-77314322D01*
X174876324Y-77323231D01*
X174843347Y-77362531D01*
X174838824Y-77388183D01*
X174838824Y-78188183D01*
X174607872Y-78188183D01*
X174607872Y-77654849D01*
X174590325Y-77606640D01*
X174545896Y-77580988D01*
X174495372Y-77589897D01*
X174462395Y-77629197D01*
X174457872Y-77654849D01*
X174457872Y-78188183D01*
X174181796Y-78188183D01*
X174204954Y-78165024D01*
X174205645Y-78163540D01*
X174219002Y-78145534D01*
X174257097Y-78069344D01*
X174257609Y-78064890D01*
X174260493Y-78061454D01*
X174265016Y-78035802D01*
X174265016Y-77807230D01*
X174263482Y-77803015D01*
X174264524Y-77798654D01*
X174257097Y-77773688D01*
X174219002Y-77697498D01*
X174217810Y-77696370D01*
X174204953Y-77678007D01*
X174166858Y-77639912D01*
X174165373Y-77639219D01*
X174147366Y-77625863D01*
X174071177Y-77587767D01*
X174066722Y-77587254D01*
X174063287Y-77584372D01*
X174037635Y-77579849D01*
X173885254Y-77579849D01*
X173881040Y-77581382D01*
X173876679Y-77580341D01*
X173851712Y-77587767D01*
X173775522Y-77625863D01*
X173740250Y-77663118D01*
X173737175Y-77714328D01*
X173767739Y-77755534D01*
X173817638Y-77767453D01*
X173842604Y-77760027D01*
X173902959Y-77729849D01*
X174019929Y-77729849D01*
X174069397Y-77754583D01*
X174090280Y-77775466D01*
X174115016Y-77824935D01*
X174115016Y-78018096D01*
X174090280Y-78067566D01*
X174069397Y-78088449D01*
X174019930Y-78113183D01*
X173902959Y-78113183D01*
X173842604Y-78083006D01*
X173791637Y-78077141D01*
X173748824Y-78105408D01*
X173734198Y-78154582D01*
X173547812Y-78154582D01*
X173571384Y-78107439D01*
X173571896Y-78102984D01*
X173574779Y-78099549D01*
X173579302Y-78073897D01*
X173579302Y-77769135D01*
X173577768Y-77764920D01*
X173578810Y-77760559D01*
X173571383Y-77735593D01*
X173533288Y-77659403D01*
X173525133Y-77651682D01*
X173520668Y-77641381D01*
X173499747Y-77625863D01*
X173423558Y-77587767D01*
X173419103Y-77587254D01*
X173415668Y-77584372D01*
X173390016Y-77579849D01*
X173237635Y-77579849D01*
X173233421Y-77581382D01*
X173229060Y-77580341D01*
X173204093Y-77587767D01*
X173127903Y-77625863D01*
X173120183Y-77634016D01*
X173109879Y-77638483D01*
X173094362Y-77659404D01*
X173056267Y-77735594D01*
X173055754Y-77740047D01*
X173052872Y-77743483D01*
X173048349Y-77769135D01*
X173048349Y-77845326D01*
X172858927Y-77845326D01*
X172893329Y-77432506D01*
X172889852Y-77419742D01*
X174420063Y-77419742D01*
X174425105Y-77438561D01*
X174426804Y-77457974D01*
X174432477Y-77466076D01*
X174433340Y-77469296D01*
X174436070Y-77471207D01*
X174441744Y-77479311D01*
X174479839Y-77517406D01*
X174497498Y-77525640D01*
X174513460Y-77536817D01*
X174516876Y-77536518D01*
X174519848Y-77538234D01*
X174523227Y-77537638D01*
X174526335Y-77539087D01*
X174545153Y-77534044D01*
X174564567Y-77532347D01*
X174568381Y-77529675D01*
X174570372Y-77529325D01*
X174572493Y-77526797D01*
X174572671Y-77526672D01*
X174575890Y-77525810D01*
X174577801Y-77523080D01*
X174585904Y-77517407D01*
X174624000Y-77479312D01*
X174632235Y-77461652D01*
X174643413Y-77445688D01*
X174642823Y-77438946D01*
X174645682Y-77432816D01*
X174640639Y-77413997D01*
X174638941Y-77394581D01*
X174633266Y-77386477D01*
X174632405Y-77383261D01*
X174629676Y-77381350D01*
X174624000Y-77373244D01*
X174585904Y-77335149D01*
X174568243Y-77326914D01*
X174552283Y-77315739D01*
X174548867Y-77316037D01*
X174545896Y-77314322D01*
X174542515Y-77314918D01*
X174539408Y-77313469D01*
X174520587Y-77318511D01*
X174501176Y-77320210D01*
X174497362Y-77322879D01*
X174495372Y-77323231D01*
X174493250Y-77325759D01*
X174493071Y-77325884D01*
X174489853Y-77326747D01*
X174487941Y-77329476D01*
X174479839Y-77335150D01*
X174441744Y-77373245D01*
X174433510Y-77390902D01*
X174422332Y-77406867D01*
X174422922Y-77413610D01*
X174420063Y-77419742D01*
X172889852Y-77419742D01*
X172888246Y-77413848D01*
X172886561Y-77394581D01*
X172880731Y-77386255D01*
X172879846Y-77383006D01*
X172877140Y-77381128D01*
X172871620Y-77373244D01*
X172833524Y-77335149D01*
X172815863Y-77326914D01*
X172799903Y-77315739D01*
X172796487Y-77316037D01*
X172793516Y-77314322D01*
X172790135Y-77314918D01*
X172787028Y-77313469D01*
X172768207Y-77318511D01*
X172748796Y-77320210D01*
X172744982Y-77322879D01*
X172742992Y-77323231D01*
X172740870Y-77325759D01*
X172740691Y-77325884D01*
X172737473Y-77326747D01*
X172735561Y-77329476D01*
X172727459Y-77335150D01*
X172689364Y-77373245D01*
X172681192Y-77390769D01*
X172670033Y-77406567D01*
X172669105Y-77416692D01*
X172667683Y-77419742D01*
X172668534Y-77422919D01*
X172667656Y-77432506D01*
X172578108Y-77432506D01*
X172584977Y-77411900D01*
X172583576Y-77360616D01*
X172549539Y-77322231D01*
X172498790Y-77314706D01*
X172455077Y-77341561D01*
X172442675Y-77364466D01*
X172247159Y-77951012D01*
X172051644Y-77364466D01*
X172019753Y-77324280D01*
X171969492Y-77313994D01*
X171924378Y-77338423D01*
X171905521Y-77386134D01*
X171814128Y-77386134D01*
X171813359Y-77383261D01*
X171810630Y-77381350D01*
X171804954Y-77373244D01*
X171766858Y-77335149D01*
X171749197Y-77326914D01*
X171733237Y-77315739D01*
X171729821Y-77316037D01*
X171726850Y-77314322D01*
X171723469Y-77314918D01*
X171720362Y-77313469D01*
X171701541Y-77318511D01*
X171682130Y-77320210D01*
X171678316Y-77322879D01*
X171676326Y-77323231D01*
X171674204Y-77325759D01*
X171674025Y-77325884D01*
X171670807Y-77326747D01*
X171668895Y-77329476D01*
X171660793Y-77335150D01*
X171622698Y-77373245D01*
X171614464Y-77390902D01*
X171603286Y-77406867D01*
X171603876Y-77413610D01*
X171601017Y-77419742D01*
X169924729Y-77419742D01*
X169924729Y-77198898D01*
X175560253Y-77198898D01*
X175560253Y-78377469D01*
G37*
X167493468Y-56381995D02*
X167531564Y-56420091D01*
X167531564Y-56420091D02*
X167645849Y-56458186D01*
X167645849Y-56458186D02*
X167722040Y-56458186D01*
X167722040Y-56458186D02*
X167836326Y-56420091D01*
X167836326Y-56420091D02*
X167912516Y-56343900D01*
X167912516Y-56343900D02*
X167950611Y-56267710D01*
X167950611Y-56267710D02*
X167988707Y-56115329D01*
X167988707Y-56115329D02*
X167988707Y-56001043D01*
X167988707Y-56001043D02*
X167950611Y-55848662D01*
X167950611Y-55848662D02*
X167912516Y-55772471D01*
X167912516Y-55772471D02*
X167836326Y-55696281D01*
X167836326Y-55696281D02*
X167722040Y-55658186D01*
X167722040Y-55658186D02*
X167645849Y-55658186D01*
X167645849Y-55658186D02*
X167531564Y-55696281D01*
X167531564Y-55696281D02*
X167493468Y-55734376D01*
X167188707Y-56420091D02*
X167074421Y-56458186D01*
X167074421Y-56458186D02*
X166883945Y-56458186D01*
X166883945Y-56458186D02*
X166807754Y-56420091D01*
X166807754Y-56420091D02*
X166769659Y-56381995D01*
X166769659Y-56381995D02*
X166731564Y-56305805D01*
X166731564Y-56305805D02*
X166731564Y-56229614D01*
X166731564Y-56229614D02*
X166769659Y-56153424D01*
X166769659Y-56153424D02*
X166807754Y-56115329D01*
X166807754Y-56115329D02*
X166883945Y-56077233D01*
X166883945Y-56077233D02*
X167036326Y-56039138D01*
X167036326Y-56039138D02*
X167112516Y-56001043D01*
X167112516Y-56001043D02*
X167150611Y-55962948D01*
X167150611Y-55962948D02*
X167188707Y-55886757D01*
X167188707Y-55886757D02*
X167188707Y-55810567D01*
X167188707Y-55810567D02*
X167150611Y-55734376D01*
X167150611Y-55734376D02*
X167112516Y-55696281D01*
X167112516Y-55696281D02*
X167036326Y-55658186D01*
X167036326Y-55658186D02*
X166845849Y-55658186D01*
X166845849Y-55658186D02*
X166731564Y-55696281D01*
X178791338Y-53499138D02*
X178524672Y-53499138D01*
X178410386Y-53918186D02*
X178791338Y-53918186D01*
X178791338Y-53918186D02*
X178791338Y-53118186D01*
X178791338Y-53118186D02*
X178410386Y-53118186D01*
X178067528Y-53918186D02*
X178067528Y-53118186D01*
X178067528Y-53118186D02*
X177610385Y-53918186D01*
X177610385Y-53918186D02*
X177610385Y-53118186D01*
X176772290Y-53841995D02*
X176810386Y-53880091D01*
X176810386Y-53880091D02*
X176924671Y-53918186D01*
X176924671Y-53918186D02*
X177000862Y-53918186D01*
X177000862Y-53918186D02*
X177115148Y-53880091D01*
X177115148Y-53880091D02*
X177191338Y-53803900D01*
X177191338Y-53803900D02*
X177229433Y-53727710D01*
X177229433Y-53727710D02*
X177267529Y-53575329D01*
X177267529Y-53575329D02*
X177267529Y-53461043D01*
X177267529Y-53461043D02*
X177229433Y-53308662D01*
X177229433Y-53308662D02*
X177191338Y-53232471D01*
X177191338Y-53232471D02*
X177115148Y-53156281D01*
X177115148Y-53156281D02*
X177000862Y-53118186D01*
X177000862Y-53118186D02*
X176924671Y-53118186D01*
X176924671Y-53118186D02*
X176810386Y-53156281D01*
X176810386Y-53156281D02*
X176772290Y-53194376D01*
X176162767Y-53499138D02*
X176048481Y-53537233D01*
X176048481Y-53537233D02*
X176010386Y-53575329D01*
X176010386Y-53575329D02*
X175972290Y-53651519D01*
X175972290Y-53651519D02*
X175972290Y-53765805D01*
X175972290Y-53765805D02*
X176010386Y-53841995D01*
X176010386Y-53841995D02*
X176048481Y-53880091D01*
X176048481Y-53880091D02*
X176124671Y-53918186D01*
X176124671Y-53918186D02*
X176429433Y-53918186D01*
X176429433Y-53918186D02*
X176429433Y-53118186D01*
X176429433Y-53118186D02*
X176162767Y-53118186D01*
X176162767Y-53118186D02*
X176086576Y-53156281D01*
X176086576Y-53156281D02*
X176048481Y-53194376D01*
X176048481Y-53194376D02*
X176010386Y-53270567D01*
X176010386Y-53270567D02*
X176010386Y-53346757D01*
X176010386Y-53346757D02*
X176048481Y-53422948D01*
X176048481Y-53422948D02*
X176086576Y-53461043D01*
X176086576Y-53461043D02*
X176162767Y-53499138D01*
X176162767Y-53499138D02*
X176429433Y-53499138D01*
X168674421Y-51340091D02*
X168560135Y-51378186D01*
X168560135Y-51378186D02*
X168369659Y-51378186D01*
X168369659Y-51378186D02*
X168293468Y-51340091D01*
X168293468Y-51340091D02*
X168255373Y-51301995D01*
X168255373Y-51301995D02*
X168217278Y-51225805D01*
X168217278Y-51225805D02*
X168217278Y-51149614D01*
X168217278Y-51149614D02*
X168255373Y-51073424D01*
X168255373Y-51073424D02*
X168293468Y-51035329D01*
X168293468Y-51035329D02*
X168369659Y-50997233D01*
X168369659Y-50997233D02*
X168522040Y-50959138D01*
X168522040Y-50959138D02*
X168598230Y-50921043D01*
X168598230Y-50921043D02*
X168636325Y-50882948D01*
X168636325Y-50882948D02*
X168674421Y-50806757D01*
X168674421Y-50806757D02*
X168674421Y-50730567D01*
X168674421Y-50730567D02*
X168636325Y-50654376D01*
X168636325Y-50654376D02*
X168598230Y-50616281D01*
X168598230Y-50616281D02*
X168522040Y-50578186D01*
X168522040Y-50578186D02*
X168331563Y-50578186D01*
X168331563Y-50578186D02*
X168217278Y-50616281D01*
X167874420Y-51378186D02*
X167874420Y-50578186D01*
X167874420Y-50578186D02*
X167683944Y-50578186D01*
X167683944Y-50578186D02*
X167569658Y-50616281D01*
X167569658Y-50616281D02*
X167493468Y-50692471D01*
X167493468Y-50692471D02*
X167455373Y-50768662D01*
X167455373Y-50768662D02*
X167417277Y-50921043D01*
X167417277Y-50921043D02*
X167417277Y-51035329D01*
X167417277Y-51035329D02*
X167455373Y-51187710D01*
X167455373Y-51187710D02*
X167493468Y-51263900D01*
X167493468Y-51263900D02*
X167569658Y-51340091D01*
X167569658Y-51340091D02*
X167683944Y-51378186D01*
X167683944Y-51378186D02*
X167874420Y-51378186D01*
X167112516Y-51149614D02*
X166731563Y-51149614D01*
X167188706Y-51378186D02*
X166922039Y-50578186D01*
X166922039Y-50578186D02*
X166655373Y-51378186D01*
X174904699Y-65159226D02*
X174942794Y-65044940D01*
X174942794Y-65044940D02*
X174942794Y-64854464D01*
X174942794Y-64854464D02*
X174904699Y-64778273D01*
X174904699Y-64778273D02*
X174866603Y-64740178D01*
X174866603Y-64740178D02*
X174790413Y-64702083D01*
X174790413Y-64702083D02*
X174714222Y-64702083D01*
X174714222Y-64702083D02*
X174638032Y-64740178D01*
X174638032Y-64740178D02*
X174599937Y-64778273D01*
X174599937Y-64778273D02*
X174561841Y-64854464D01*
X174561841Y-64854464D02*
X174523746Y-65006845D01*
X174523746Y-65006845D02*
X174485651Y-65083035D01*
X174485651Y-65083035D02*
X174447556Y-65121130D01*
X174447556Y-65121130D02*
X174371365Y-65159226D01*
X174371365Y-65159226D02*
X174295175Y-65159226D01*
X174295175Y-65159226D02*
X174218984Y-65121130D01*
X174218984Y-65121130D02*
X174180889Y-65083035D01*
X174180889Y-65083035D02*
X174142794Y-65006845D01*
X174142794Y-65006845D02*
X174142794Y-64816368D01*
X174142794Y-64816368D02*
X174180889Y-64702083D01*
X174942794Y-64244940D02*
X174904699Y-64321130D01*
X174904699Y-64321130D02*
X174866603Y-64359225D01*
X174866603Y-64359225D02*
X174790413Y-64397321D01*
X174790413Y-64397321D02*
X174561841Y-64397321D01*
X174561841Y-64397321D02*
X174485651Y-64359225D01*
X174485651Y-64359225D02*
X174447556Y-64321130D01*
X174447556Y-64321130D02*
X174409460Y-64244940D01*
X174409460Y-64244940D02*
X174409460Y-64130654D01*
X174409460Y-64130654D02*
X174447556Y-64054463D01*
X174447556Y-64054463D02*
X174485651Y-64016368D01*
X174485651Y-64016368D02*
X174561841Y-63978273D01*
X174561841Y-63978273D02*
X174790413Y-63978273D01*
X174790413Y-63978273D02*
X174866603Y-64016368D01*
X174866603Y-64016368D02*
X174904699Y-64054463D01*
X174904699Y-64054463D02*
X174942794Y-64130654D01*
X174942794Y-64130654D02*
X174942794Y-64244940D01*
X174942794Y-63521130D02*
X174904699Y-63597320D01*
X174904699Y-63597320D02*
X174828508Y-63635415D01*
X174828508Y-63635415D02*
X174142794Y-63635415D01*
X174942794Y-62873510D02*
X174142794Y-62873510D01*
X174904699Y-62873510D02*
X174942794Y-62949701D01*
X174942794Y-62949701D02*
X174942794Y-63102082D01*
X174942794Y-63102082D02*
X174904699Y-63178272D01*
X174904699Y-63178272D02*
X174866603Y-63216367D01*
X174866603Y-63216367D02*
X174790413Y-63254463D01*
X174790413Y-63254463D02*
X174561841Y-63254463D01*
X174561841Y-63254463D02*
X174485651Y-63216367D01*
X174485651Y-63216367D02*
X174447556Y-63178272D01*
X174447556Y-63178272D02*
X174409460Y-63102082D01*
X174409460Y-63102082D02*
X174409460Y-62949701D01*
X174409460Y-62949701D02*
X174447556Y-62873510D01*
X174904699Y-62187795D02*
X174942794Y-62263986D01*
X174942794Y-62263986D02*
X174942794Y-62416367D01*
X174942794Y-62416367D02*
X174904699Y-62492557D01*
X174904699Y-62492557D02*
X174828508Y-62530653D01*
X174828508Y-62530653D02*
X174523746Y-62530653D01*
X174523746Y-62530653D02*
X174447556Y-62492557D01*
X174447556Y-62492557D02*
X174409460Y-62416367D01*
X174409460Y-62416367D02*
X174409460Y-62263986D01*
X174409460Y-62263986D02*
X174447556Y-62187795D01*
X174447556Y-62187795D02*
X174523746Y-62149700D01*
X174523746Y-62149700D02*
X174599937Y-62149700D01*
X174599937Y-62149700D02*
X174676127Y-62530653D01*
X174942794Y-61806843D02*
X174409460Y-61806843D01*
X174561841Y-61806843D02*
X174485651Y-61768748D01*
X174485651Y-61768748D02*
X174447556Y-61730653D01*
X174447556Y-61730653D02*
X174409460Y-61654462D01*
X174409460Y-61654462D02*
X174409460Y-61578272D01*
X174409460Y-60702081D02*
X175095175Y-60702081D01*
X175095175Y-60702081D02*
X175171365Y-60740177D01*
X175171365Y-60740177D02*
X175209460Y-60816367D01*
X175209460Y-60816367D02*
X175209460Y-60854462D01*
X174142794Y-60702081D02*
X174180889Y-60740177D01*
X174180889Y-60740177D02*
X174218984Y-60702081D01*
X174218984Y-60702081D02*
X174180889Y-60663986D01*
X174180889Y-60663986D02*
X174142794Y-60702081D01*
X174142794Y-60702081D02*
X174218984Y-60702081D01*
X174409460Y-59978272D02*
X174942794Y-59978272D01*
X174409460Y-60321129D02*
X174828508Y-60321129D01*
X174828508Y-60321129D02*
X174904699Y-60283034D01*
X174904699Y-60283034D02*
X174942794Y-60206844D01*
X174942794Y-60206844D02*
X174942794Y-60092558D01*
X174942794Y-60092558D02*
X174904699Y-60016367D01*
X174904699Y-60016367D02*
X174866603Y-59978272D01*
X174942794Y-59597319D02*
X174409460Y-59597319D01*
X174485651Y-59597319D02*
X174447556Y-59559224D01*
X174447556Y-59559224D02*
X174409460Y-59483034D01*
X174409460Y-59483034D02*
X174409460Y-59368748D01*
X174409460Y-59368748D02*
X174447556Y-59292557D01*
X174447556Y-59292557D02*
X174523746Y-59254462D01*
X174523746Y-59254462D02*
X174942794Y-59254462D01*
X174523746Y-59254462D02*
X174447556Y-59216367D01*
X174447556Y-59216367D02*
X174409460Y-59140176D01*
X174409460Y-59140176D02*
X174409460Y-59025891D01*
X174409460Y-59025891D02*
X174447556Y-58949700D01*
X174447556Y-58949700D02*
X174523746Y-58911605D01*
X174523746Y-58911605D02*
X174942794Y-58911605D01*
X174409460Y-58530652D02*
X175209460Y-58530652D01*
X174447556Y-58530652D02*
X174409460Y-58454462D01*
X174409460Y-58454462D02*
X174409460Y-58302081D01*
X174409460Y-58302081D02*
X174447556Y-58225890D01*
X174447556Y-58225890D02*
X174485651Y-58187795D01*
X174485651Y-58187795D02*
X174561841Y-58149700D01*
X174561841Y-58149700D02*
X174790413Y-58149700D01*
X174790413Y-58149700D02*
X174866603Y-58187795D01*
X174866603Y-58187795D02*
X174904699Y-58225890D01*
X174904699Y-58225890D02*
X174942794Y-58302081D01*
X174942794Y-58302081D02*
X174942794Y-58454462D01*
X174942794Y-58454462D02*
X174904699Y-58530652D01*
X174904699Y-57502080D02*
X174942794Y-57578271D01*
X174942794Y-57578271D02*
X174942794Y-57730652D01*
X174942794Y-57730652D02*
X174904699Y-57806842D01*
X174904699Y-57806842D02*
X174828508Y-57844938D01*
X174828508Y-57844938D02*
X174523746Y-57844938D01*
X174523746Y-57844938D02*
X174447556Y-57806842D01*
X174447556Y-57806842D02*
X174409460Y-57730652D01*
X174409460Y-57730652D02*
X174409460Y-57578271D01*
X174409460Y-57578271D02*
X174447556Y-57502080D01*
X174447556Y-57502080D02*
X174523746Y-57463985D01*
X174523746Y-57463985D02*
X174599937Y-57463985D01*
X174599937Y-57463985D02*
X174676127Y-57844938D01*
X174942794Y-57121128D02*
X174409460Y-57121128D01*
X174561841Y-57121128D02*
X174485651Y-57083033D01*
X174485651Y-57083033D02*
X174447556Y-57044938D01*
X174447556Y-57044938D02*
X174409460Y-56968747D01*
X174409460Y-56968747D02*
X174409460Y-56892557D01*
X174904699Y-56663986D02*
X174942794Y-56587795D01*
X174942794Y-56587795D02*
X174942794Y-56435414D01*
X174942794Y-56435414D02*
X174904699Y-56359224D01*
X174904699Y-56359224D02*
X174828508Y-56321128D01*
X174828508Y-56321128D02*
X174790413Y-56321128D01*
X174790413Y-56321128D02*
X174714222Y-56359224D01*
X174714222Y-56359224D02*
X174676127Y-56435414D01*
X174676127Y-56435414D02*
X174676127Y-56549700D01*
X174676127Y-56549700D02*
X174638032Y-56625890D01*
X174638032Y-56625890D02*
X174561841Y-56663986D01*
X174561841Y-56663986D02*
X174523746Y-56663986D01*
X174523746Y-56663986D02*
X174447556Y-56625890D01*
X174447556Y-56625890D02*
X174409460Y-56549700D01*
X174409460Y-56549700D02*
X174409460Y-56435414D01*
X174409460Y-56435414D02*
X174447556Y-56359224D01*
X174942794Y-55254462D02*
X174904699Y-55330652D01*
X174904699Y-55330652D02*
X174866603Y-55368747D01*
X174866603Y-55368747D02*
X174790413Y-55406843D01*
X174790413Y-55406843D02*
X174561841Y-55406843D01*
X174561841Y-55406843D02*
X174485651Y-55368747D01*
X174485651Y-55368747D02*
X174447556Y-55330652D01*
X174447556Y-55330652D02*
X174409460Y-55254462D01*
X174409460Y-55254462D02*
X174409460Y-55140176D01*
X174409460Y-55140176D02*
X174447556Y-55063985D01*
X174447556Y-55063985D02*
X174485651Y-55025890D01*
X174485651Y-55025890D02*
X174561841Y-54987795D01*
X174561841Y-54987795D02*
X174790413Y-54987795D01*
X174790413Y-54987795D02*
X174866603Y-55025890D01*
X174866603Y-55025890D02*
X174904699Y-55063985D01*
X174904699Y-55063985D02*
X174942794Y-55140176D01*
X174942794Y-55140176D02*
X174942794Y-55254462D01*
X174409460Y-54644937D02*
X174942794Y-54644937D01*
X174485651Y-54644937D02*
X174447556Y-54606842D01*
X174447556Y-54606842D02*
X174409460Y-54530652D01*
X174409460Y-54530652D02*
X174409460Y-54416366D01*
X174409460Y-54416366D02*
X174447556Y-54340175D01*
X174447556Y-54340175D02*
X174523746Y-54302080D01*
X174523746Y-54302080D02*
X174942794Y-54302080D01*
X174942794Y-53311603D02*
X174142794Y-53311603D01*
X174447556Y-53311603D02*
X174409460Y-53235413D01*
X174409460Y-53235413D02*
X174409460Y-53083032D01*
X174409460Y-53083032D02*
X174447556Y-53006841D01*
X174447556Y-53006841D02*
X174485651Y-52968746D01*
X174485651Y-52968746D02*
X174561841Y-52930651D01*
X174561841Y-52930651D02*
X174790413Y-52930651D01*
X174790413Y-52930651D02*
X174866603Y-52968746D01*
X174866603Y-52968746D02*
X174904699Y-53006841D01*
X174904699Y-53006841D02*
X174942794Y-53083032D01*
X174942794Y-53083032D02*
X174942794Y-53235413D01*
X174942794Y-53235413D02*
X174904699Y-53311603D01*
X174942794Y-52244936D02*
X174523746Y-52244936D01*
X174523746Y-52244936D02*
X174447556Y-52283031D01*
X174447556Y-52283031D02*
X174409460Y-52359222D01*
X174409460Y-52359222D02*
X174409460Y-52511603D01*
X174409460Y-52511603D02*
X174447556Y-52587793D01*
X174904699Y-52244936D02*
X174942794Y-52321127D01*
X174942794Y-52321127D02*
X174942794Y-52511603D01*
X174942794Y-52511603D02*
X174904699Y-52587793D01*
X174904699Y-52587793D02*
X174828508Y-52625889D01*
X174828508Y-52625889D02*
X174752318Y-52625889D01*
X174752318Y-52625889D02*
X174676127Y-52587793D01*
X174676127Y-52587793D02*
X174638032Y-52511603D01*
X174638032Y-52511603D02*
X174638032Y-52321127D01*
X174638032Y-52321127D02*
X174599937Y-52244936D01*
X174904699Y-51521126D02*
X174942794Y-51597317D01*
X174942794Y-51597317D02*
X174942794Y-51749698D01*
X174942794Y-51749698D02*
X174904699Y-51825888D01*
X174904699Y-51825888D02*
X174866603Y-51863983D01*
X174866603Y-51863983D02*
X174790413Y-51902079D01*
X174790413Y-51902079D02*
X174561841Y-51902079D01*
X174561841Y-51902079D02*
X174485651Y-51863983D01*
X174485651Y-51863983D02*
X174447556Y-51825888D01*
X174447556Y-51825888D02*
X174409460Y-51749698D01*
X174409460Y-51749698D02*
X174409460Y-51597317D01*
X174409460Y-51597317D02*
X174447556Y-51521126D01*
X174942794Y-51178269D02*
X174142794Y-51178269D01*
X174638032Y-51102079D02*
X174942794Y-50873507D01*
X174409460Y-50873507D02*
X174714222Y-51178269D01*
X174866603Y-50530650D02*
X174904699Y-50492555D01*
X174904699Y-50492555D02*
X174942794Y-50530650D01*
X174942794Y-50530650D02*
X174904699Y-50568746D01*
X174904699Y-50568746D02*
X174866603Y-50530650D01*
X174866603Y-50530650D02*
X174942794Y-50530650D01*
X178334195Y-41218186D02*
X178600862Y-40837233D01*
X178791338Y-41218186D02*
X178791338Y-40418186D01*
X178791338Y-40418186D02*
X178486576Y-40418186D01*
X178486576Y-40418186D02*
X178410386Y-40456281D01*
X178410386Y-40456281D02*
X178372291Y-40494376D01*
X178372291Y-40494376D02*
X178334195Y-40570567D01*
X178334195Y-40570567D02*
X178334195Y-40684852D01*
X178334195Y-40684852D02*
X178372291Y-40761043D01*
X178372291Y-40761043D02*
X178410386Y-40799138D01*
X178410386Y-40799138D02*
X178486576Y-40837233D01*
X178486576Y-40837233D02*
X178791338Y-40837233D01*
X178029434Y-40989614D02*
X177648481Y-40989614D01*
X178105624Y-41218186D02*
X177838957Y-40418186D01*
X177838957Y-40418186D02*
X177572291Y-41218186D01*
X177381815Y-40418186D02*
X177191339Y-41218186D01*
X177191339Y-41218186D02*
X177038958Y-40646757D01*
X177038958Y-40646757D02*
X176886577Y-41218186D01*
X176886577Y-41218186D02*
X176696101Y-40418186D01*
X168636326Y-66580091D02*
X168712517Y-66618186D01*
X168712517Y-66618186D02*
X168864898Y-66618186D01*
X168864898Y-66618186D02*
X168941088Y-66580091D01*
X168941088Y-66580091D02*
X168979183Y-66541995D01*
X168979183Y-66541995D02*
X169017279Y-66465805D01*
X169017279Y-66465805D02*
X169017279Y-66237233D01*
X169017279Y-66237233D02*
X168979183Y-66161043D01*
X168979183Y-66161043D02*
X168941088Y-66122948D01*
X168941088Y-66122948D02*
X168864898Y-66084852D01*
X168864898Y-66084852D02*
X168712517Y-66084852D01*
X168712517Y-66084852D02*
X168636326Y-66122948D01*
X168179184Y-66618186D02*
X168255374Y-66580091D01*
X168255374Y-66580091D02*
X168293469Y-66541995D01*
X168293469Y-66541995D02*
X168331565Y-66465805D01*
X168331565Y-66465805D02*
X168331565Y-66237233D01*
X168331565Y-66237233D02*
X168293469Y-66161043D01*
X168293469Y-66161043D02*
X168255374Y-66122948D01*
X168255374Y-66122948D02*
X168179184Y-66084852D01*
X168179184Y-66084852D02*
X168064898Y-66084852D01*
X168064898Y-66084852D02*
X167988707Y-66122948D01*
X167988707Y-66122948D02*
X167950612Y-66161043D01*
X167950612Y-66161043D02*
X167912517Y-66237233D01*
X167912517Y-66237233D02*
X167912517Y-66465805D01*
X167912517Y-66465805D02*
X167950612Y-66541995D01*
X167950612Y-66541995D02*
X167988707Y-66580091D01*
X167988707Y-66580091D02*
X168064898Y-66618186D01*
X168064898Y-66618186D02*
X168179184Y-66618186D01*
X167455374Y-66618186D02*
X167531564Y-66580091D01*
X167531564Y-66580091D02*
X167569659Y-66503900D01*
X167569659Y-66503900D02*
X167569659Y-65818186D01*
X167226802Y-65818186D02*
X166731564Y-65818186D01*
X166731564Y-65818186D02*
X166998230Y-66122948D01*
X166998230Y-66122948D02*
X166883945Y-66122948D01*
X166883945Y-66122948D02*
X166807754Y-66161043D01*
X166807754Y-66161043D02*
X166769659Y-66199138D01*
X166769659Y-66199138D02*
X166731564Y-66275329D01*
X166731564Y-66275329D02*
X166731564Y-66465805D01*
X166731564Y-66465805D02*
X166769659Y-66541995D01*
X166769659Y-66541995D02*
X166807754Y-66580091D01*
X166807754Y-66580091D02*
X166883945Y-66618186D01*
X166883945Y-66618186D02*
X167112516Y-66618186D01*
X167112516Y-66618186D02*
X167188707Y-66580091D01*
X167188707Y-66580091D02*
X167226802Y-66541995D01*
X178905624Y-48038186D02*
X178638957Y-48838186D01*
X178638957Y-48838186D02*
X178372291Y-48038186D01*
X177648481Y-48761995D02*
X177686577Y-48800091D01*
X177686577Y-48800091D02*
X177800862Y-48838186D01*
X177800862Y-48838186D02*
X177877053Y-48838186D01*
X177877053Y-48838186D02*
X177991339Y-48800091D01*
X177991339Y-48800091D02*
X178067529Y-48723900D01*
X178067529Y-48723900D02*
X178105624Y-48647710D01*
X178105624Y-48647710D02*
X178143720Y-48495329D01*
X178143720Y-48495329D02*
X178143720Y-48381043D01*
X178143720Y-48381043D02*
X178105624Y-48228662D01*
X178105624Y-48228662D02*
X178067529Y-48152471D01*
X178067529Y-48152471D02*
X177991339Y-48076281D01*
X177991339Y-48076281D02*
X177877053Y-48038186D01*
X177877053Y-48038186D02*
X177800862Y-48038186D01*
X177800862Y-48038186D02*
X177686577Y-48076281D01*
X177686577Y-48076281D02*
X177648481Y-48114376D01*
X176848481Y-48761995D02*
X176886577Y-48800091D01*
X176886577Y-48800091D02*
X177000862Y-48838186D01*
X177000862Y-48838186D02*
X177077053Y-48838186D01*
X177077053Y-48838186D02*
X177191339Y-48800091D01*
X177191339Y-48800091D02*
X177267529Y-48723900D01*
X177267529Y-48723900D02*
X177305624Y-48647710D01*
X177305624Y-48647710D02*
X177343720Y-48495329D01*
X177343720Y-48495329D02*
X177343720Y-48381043D01*
X177343720Y-48381043D02*
X177305624Y-48228662D01*
X177305624Y-48228662D02*
X177267529Y-48152471D01*
X177267529Y-48152471D02*
X177191339Y-48076281D01*
X177191339Y-48076281D02*
X177077053Y-48038186D01*
X177077053Y-48038186D02*
X177000862Y-48038186D01*
X177000862Y-48038186D02*
X176886577Y-48076281D01*
X176886577Y-48076281D02*
X176848481Y-48114376D01*
X168636326Y-64040091D02*
X168712517Y-64078186D01*
X168712517Y-64078186D02*
X168864898Y-64078186D01*
X168864898Y-64078186D02*
X168941088Y-64040091D01*
X168941088Y-64040091D02*
X168979183Y-64001995D01*
X168979183Y-64001995D02*
X169017279Y-63925805D01*
X169017279Y-63925805D02*
X169017279Y-63697233D01*
X169017279Y-63697233D02*
X168979183Y-63621043D01*
X168979183Y-63621043D02*
X168941088Y-63582948D01*
X168941088Y-63582948D02*
X168864898Y-63544852D01*
X168864898Y-63544852D02*
X168712517Y-63544852D01*
X168712517Y-63544852D02*
X168636326Y-63582948D01*
X168179184Y-64078186D02*
X168255374Y-64040091D01*
X168255374Y-64040091D02*
X168293469Y-64001995D01*
X168293469Y-64001995D02*
X168331565Y-63925805D01*
X168331565Y-63925805D02*
X168331565Y-63697233D01*
X168331565Y-63697233D02*
X168293469Y-63621043D01*
X168293469Y-63621043D02*
X168255374Y-63582948D01*
X168255374Y-63582948D02*
X168179184Y-63544852D01*
X168179184Y-63544852D02*
X168064898Y-63544852D01*
X168064898Y-63544852D02*
X167988707Y-63582948D01*
X167988707Y-63582948D02*
X167950612Y-63621043D01*
X167950612Y-63621043D02*
X167912517Y-63697233D01*
X167912517Y-63697233D02*
X167912517Y-63925805D01*
X167912517Y-63925805D02*
X167950612Y-64001995D01*
X167950612Y-64001995D02*
X167988707Y-64040091D01*
X167988707Y-64040091D02*
X168064898Y-64078186D01*
X168064898Y-64078186D02*
X168179184Y-64078186D01*
X167455374Y-64078186D02*
X167531564Y-64040091D01*
X167531564Y-64040091D02*
X167569659Y-63963900D01*
X167569659Y-63963900D02*
X167569659Y-63278186D01*
X167188707Y-63354376D02*
X167150611Y-63316281D01*
X167150611Y-63316281D02*
X167074421Y-63278186D01*
X167074421Y-63278186D02*
X166883945Y-63278186D01*
X166883945Y-63278186D02*
X166807754Y-63316281D01*
X166807754Y-63316281D02*
X166769659Y-63354376D01*
X166769659Y-63354376D02*
X166731564Y-63430567D01*
X166731564Y-63430567D02*
X166731564Y-63506757D01*
X166731564Y-63506757D02*
X166769659Y-63621043D01*
X166769659Y-63621043D02*
X167226802Y-64078186D01*
X167226802Y-64078186D02*
X166731564Y-64078186D01*
X168407754Y-45536281D02*
X168483944Y-45498186D01*
X168483944Y-45498186D02*
X168598230Y-45498186D01*
X168598230Y-45498186D02*
X168712516Y-45536281D01*
X168712516Y-45536281D02*
X168788706Y-45612471D01*
X168788706Y-45612471D02*
X168826801Y-45688662D01*
X168826801Y-45688662D02*
X168864897Y-45841043D01*
X168864897Y-45841043D02*
X168864897Y-45955329D01*
X168864897Y-45955329D02*
X168826801Y-46107710D01*
X168826801Y-46107710D02*
X168788706Y-46183900D01*
X168788706Y-46183900D02*
X168712516Y-46260091D01*
X168712516Y-46260091D02*
X168598230Y-46298186D01*
X168598230Y-46298186D02*
X168522039Y-46298186D01*
X168522039Y-46298186D02*
X168407754Y-46260091D01*
X168407754Y-46260091D02*
X168369658Y-46221995D01*
X168369658Y-46221995D02*
X168369658Y-45955329D01*
X168369658Y-45955329D02*
X168522039Y-45955329D01*
X168026801Y-46298186D02*
X168026801Y-45498186D01*
X168026801Y-45498186D02*
X167569658Y-46298186D01*
X167569658Y-46298186D02*
X167569658Y-45498186D01*
X167188706Y-46298186D02*
X167188706Y-45498186D01*
X167188706Y-45498186D02*
X166998230Y-45498186D01*
X166998230Y-45498186D02*
X166883944Y-45536281D01*
X166883944Y-45536281D02*
X166807754Y-45612471D01*
X166807754Y-45612471D02*
X166769659Y-45688662D01*
X166769659Y-45688662D02*
X166731563Y-45841043D01*
X166731563Y-45841043D02*
X166731563Y-45955329D01*
X166731563Y-45955329D02*
X166769659Y-46107710D01*
X166769659Y-46107710D02*
X166807754Y-46183900D01*
X166807754Y-46183900D02*
X166883944Y-46260091D01*
X166883944Y-46260091D02*
X166998230Y-46298186D01*
X166998230Y-46298186D02*
X167188706Y-46298186D01*
X178791338Y-61538186D02*
X178791338Y-61004852D01*
X178791338Y-61157233D02*
X178753243Y-61081043D01*
X178753243Y-61081043D02*
X178715148Y-61042948D01*
X178715148Y-61042948D02*
X178638957Y-61004852D01*
X178638957Y-61004852D02*
X178562767Y-61004852D01*
X178181815Y-61538186D02*
X178258005Y-61500091D01*
X178258005Y-61500091D02*
X178296100Y-61461995D01*
X178296100Y-61461995D02*
X178334196Y-61385805D01*
X178334196Y-61385805D02*
X178334196Y-61157233D01*
X178334196Y-61157233D02*
X178296100Y-61081043D01*
X178296100Y-61081043D02*
X178258005Y-61042948D01*
X178258005Y-61042948D02*
X178181815Y-61004852D01*
X178181815Y-61004852D02*
X178067529Y-61004852D01*
X178067529Y-61004852D02*
X177991338Y-61042948D01*
X177991338Y-61042948D02*
X177953243Y-61081043D01*
X177953243Y-61081043D02*
X177915148Y-61157233D01*
X177915148Y-61157233D02*
X177915148Y-61385805D01*
X177915148Y-61385805D02*
X177953243Y-61461995D01*
X177953243Y-61461995D02*
X177991338Y-61500091D01*
X177991338Y-61500091D02*
X178067529Y-61538186D01*
X178067529Y-61538186D02*
X178181815Y-61538186D01*
X177648481Y-61004852D02*
X177496100Y-61538186D01*
X177496100Y-61538186D02*
X177343719Y-61157233D01*
X177343719Y-61157233D02*
X177191338Y-61538186D01*
X177191338Y-61538186D02*
X177038957Y-61004852D01*
X176772291Y-60814376D02*
X176734195Y-60776281D01*
X176734195Y-60776281D02*
X176658005Y-60738186D01*
X176658005Y-60738186D02*
X176467529Y-60738186D01*
X176467529Y-60738186D02*
X176391338Y-60776281D01*
X176391338Y-60776281D02*
X176353243Y-60814376D01*
X176353243Y-60814376D02*
X176315148Y-60890567D01*
X176315148Y-60890567D02*
X176315148Y-60966757D01*
X176315148Y-60966757D02*
X176353243Y-61081043D01*
X176353243Y-61081043D02*
X176810386Y-61538186D01*
X176810386Y-61538186D02*
X176315148Y-61538186D01*
X178791338Y-50959138D02*
X178524672Y-50959138D01*
X178410386Y-51378186D02*
X178791338Y-51378186D01*
X178791338Y-51378186D02*
X178791338Y-50578186D01*
X178791338Y-50578186D02*
X178410386Y-50578186D01*
X178067528Y-51378186D02*
X178067528Y-50578186D01*
X178067528Y-50578186D02*
X177610385Y-51378186D01*
X177610385Y-51378186D02*
X177610385Y-50578186D01*
X176772290Y-51301995D02*
X176810386Y-51340091D01*
X176810386Y-51340091D02*
X176924671Y-51378186D01*
X176924671Y-51378186D02*
X177000862Y-51378186D01*
X177000862Y-51378186D02*
X177115148Y-51340091D01*
X177115148Y-51340091D02*
X177191338Y-51263900D01*
X177191338Y-51263900D02*
X177229433Y-51187710D01*
X177229433Y-51187710D02*
X177267529Y-51035329D01*
X177267529Y-51035329D02*
X177267529Y-50921043D01*
X177267529Y-50921043D02*
X177229433Y-50768662D01*
X177229433Y-50768662D02*
X177191338Y-50692471D01*
X177191338Y-50692471D02*
X177115148Y-50616281D01*
X177115148Y-50616281D02*
X177000862Y-50578186D01*
X177000862Y-50578186D02*
X176924671Y-50578186D01*
X176924671Y-50578186D02*
X176810386Y-50616281D01*
X176810386Y-50616281D02*
X176772290Y-50654376D01*
X176467529Y-51149614D02*
X176086576Y-51149614D01*
X176543719Y-51378186D02*
X176277052Y-50578186D01*
X176277052Y-50578186D02*
X176010386Y-51378186D01*
X178791338Y-64078186D02*
X178791338Y-63544852D01*
X178791338Y-63697233D02*
X178753243Y-63621043D01*
X178753243Y-63621043D02*
X178715148Y-63582948D01*
X178715148Y-63582948D02*
X178638957Y-63544852D01*
X178638957Y-63544852D02*
X178562767Y-63544852D01*
X178181815Y-64078186D02*
X178258005Y-64040091D01*
X178258005Y-64040091D02*
X178296100Y-64001995D01*
X178296100Y-64001995D02*
X178334196Y-63925805D01*
X178334196Y-63925805D02*
X178334196Y-63697233D01*
X178334196Y-63697233D02*
X178296100Y-63621043D01*
X178296100Y-63621043D02*
X178258005Y-63582948D01*
X178258005Y-63582948D02*
X178181815Y-63544852D01*
X178181815Y-63544852D02*
X178067529Y-63544852D01*
X178067529Y-63544852D02*
X177991338Y-63582948D01*
X177991338Y-63582948D02*
X177953243Y-63621043D01*
X177953243Y-63621043D02*
X177915148Y-63697233D01*
X177915148Y-63697233D02*
X177915148Y-63925805D01*
X177915148Y-63925805D02*
X177953243Y-64001995D01*
X177953243Y-64001995D02*
X177991338Y-64040091D01*
X177991338Y-64040091D02*
X178067529Y-64078186D01*
X178067529Y-64078186D02*
X178181815Y-64078186D01*
X177648481Y-63544852D02*
X177496100Y-64078186D01*
X177496100Y-64078186D02*
X177343719Y-63697233D01*
X177343719Y-63697233D02*
X177191338Y-64078186D01*
X177191338Y-64078186D02*
X177038957Y-63544852D01*
X176810386Y-63278186D02*
X176315148Y-63278186D01*
X176315148Y-63278186D02*
X176581814Y-63582948D01*
X176581814Y-63582948D02*
X176467529Y-63582948D01*
X176467529Y-63582948D02*
X176391338Y-63621043D01*
X176391338Y-63621043D02*
X176353243Y-63659138D01*
X176353243Y-63659138D02*
X176315148Y-63735329D01*
X176315148Y-63735329D02*
X176315148Y-63925805D01*
X176315148Y-63925805D02*
X176353243Y-64001995D01*
X176353243Y-64001995D02*
X176391338Y-64040091D01*
X176391338Y-64040091D02*
X176467529Y-64078186D01*
X176467529Y-64078186D02*
X176696100Y-64078186D01*
X176696100Y-64078186D02*
X176772291Y-64040091D01*
X176772291Y-64040091D02*
X176810386Y-64001995D01*
X178791338Y-66618186D02*
X178791338Y-66084852D01*
X178791338Y-66237233D02*
X178753243Y-66161043D01*
X178753243Y-66161043D02*
X178715148Y-66122948D01*
X178715148Y-66122948D02*
X178638957Y-66084852D01*
X178638957Y-66084852D02*
X178562767Y-66084852D01*
X178181815Y-66618186D02*
X178258005Y-66580091D01*
X178258005Y-66580091D02*
X178296100Y-66541995D01*
X178296100Y-66541995D02*
X178334196Y-66465805D01*
X178334196Y-66465805D02*
X178334196Y-66237233D01*
X178334196Y-66237233D02*
X178296100Y-66161043D01*
X178296100Y-66161043D02*
X178258005Y-66122948D01*
X178258005Y-66122948D02*
X178181815Y-66084852D01*
X178181815Y-66084852D02*
X178067529Y-66084852D01*
X178067529Y-66084852D02*
X177991338Y-66122948D01*
X177991338Y-66122948D02*
X177953243Y-66161043D01*
X177953243Y-66161043D02*
X177915148Y-66237233D01*
X177915148Y-66237233D02*
X177915148Y-66465805D01*
X177915148Y-66465805D02*
X177953243Y-66541995D01*
X177953243Y-66541995D02*
X177991338Y-66580091D01*
X177991338Y-66580091D02*
X178067529Y-66618186D01*
X178067529Y-66618186D02*
X178181815Y-66618186D01*
X177648481Y-66084852D02*
X177496100Y-66618186D01*
X177496100Y-66618186D02*
X177343719Y-66237233D01*
X177343719Y-66237233D02*
X177191338Y-66618186D01*
X177191338Y-66618186D02*
X177038957Y-66084852D01*
X176391338Y-66084852D02*
X176391338Y-66618186D01*
X176581814Y-65780091D02*
X176772291Y-66351519D01*
X176772291Y-66351519D02*
X176277052Y-66351519D01*
G36*
X171822175Y-60344671D02*
G01*
X171843060Y-60365555D01*
X171867794Y-60415022D01*
X171867794Y-60493899D01*
X171843060Y-60543367D01*
X171822176Y-60564250D01*
X171772708Y-60588985D01*
X171579546Y-60588985D01*
X171530078Y-60564251D01*
X171509195Y-60543368D01*
X171484460Y-60493898D01*
X171484460Y-60415024D01*
X171509194Y-60365556D01*
X171530077Y-60344672D01*
X171579547Y-60319937D01*
X171772707Y-60319937D01*
X171822175Y-60344671D01*
G37*
G36*
X171848797Y-58891314D02*
G01*
X171867794Y-58929308D01*
X171867794Y-59084374D01*
X171858346Y-59103270D01*
X171712822Y-59103270D01*
X171713032Y-59102079D01*
X171713032Y-58929307D01*
X171732028Y-58891314D01*
X171770023Y-58872317D01*
X171810803Y-58872317D01*
X171848797Y-58891314D01*
G37*
G36*
X171538723Y-57197145D02*
G01*
X171503457Y-57179512D01*
X171484460Y-57141517D01*
X171484460Y-57024547D01*
X171503456Y-56986554D01*
X171541452Y-56967556D01*
X171584641Y-56967556D01*
X171538723Y-57197145D01*
G37*
G36*
X172132080Y-60853271D02*
G01*
X170953509Y-60853271D01*
X170953509Y-60511604D01*
X171334460Y-60511604D01*
X171335993Y-60515817D01*
X171334952Y-60520179D01*
X171342378Y-60545145D01*
X171380474Y-60621336D01*
X171381663Y-60622461D01*
X171394523Y-60640828D01*
X171432618Y-60678923D01*
X171434099Y-60679614D01*
X171452110Y-60692972D01*
X171528300Y-60731067D01*
X171532753Y-60731579D01*
X171536189Y-60734462D01*
X171561841Y-60738985D01*
X171790413Y-60738985D01*
X171794626Y-60737451D01*
X171798987Y-60738493D01*
X171823954Y-60731067D01*
X171900144Y-60692972D01*
X171901269Y-60691783D01*
X171919635Y-60678924D01*
X171957731Y-60640829D01*
X171958421Y-60639347D01*
X171971781Y-60621336D01*
X172009876Y-60545145D01*
X172010388Y-60540691D01*
X172013271Y-60537256D01*
X172017794Y-60511604D01*
X172017794Y-60397318D01*
X172016260Y-60393104D01*
X172017302Y-60388744D01*
X172009876Y-60363777D01*
X171971781Y-60287587D01*
X171970593Y-60286462D01*
X171957731Y-60268094D01*
X171919635Y-60229999D01*
X171918149Y-60229306D01*
X171900144Y-60215951D01*
X171823955Y-60177855D01*
X171819500Y-60177342D01*
X171816065Y-60174460D01*
X171790413Y-60169937D01*
X171561841Y-60169937D01*
X171557626Y-60171470D01*
X171553265Y-60170429D01*
X171528299Y-60177856D01*
X171452109Y-60215951D01*
X171450981Y-60217142D01*
X171432618Y-60230000D01*
X171394523Y-60268095D01*
X171393830Y-60269579D01*
X171380474Y-60287587D01*
X171342378Y-60363776D01*
X171341865Y-60368230D01*
X171338983Y-60371666D01*
X171334460Y-60397318D01*
X171334460Y-60511604D01*
X170953509Y-60511604D01*
X170953509Y-59787794D01*
X171334460Y-59787794D01*
X171335993Y-59792007D01*
X171334952Y-59796369D01*
X171342378Y-59821335D01*
X171380474Y-59897526D01*
X171388627Y-59905245D01*
X171393094Y-59915550D01*
X171414015Y-59931067D01*
X171490205Y-59969162D01*
X171494658Y-59969674D01*
X171498094Y-59972557D01*
X171523746Y-59977080D01*
X171942794Y-59977080D01*
X171991003Y-59959533D01*
X172016655Y-59915104D01*
X172007746Y-59864580D01*
X171968446Y-59831603D01*
X171942794Y-59827080D01*
X171541451Y-59827080D01*
X171503457Y-59808083D01*
X171484460Y-59770088D01*
X171484460Y-59691214D01*
X171509194Y-59641745D01*
X171516717Y-59634223D01*
X171942794Y-59634223D01*
X171991003Y-59616676D01*
X172016655Y-59572247D01*
X172007746Y-59521723D01*
X171968446Y-59488746D01*
X171942794Y-59484223D01*
X171409460Y-59484223D01*
X171361251Y-59501770D01*
X171335599Y-59546199D01*
X171344508Y-59596723D01*
X171358239Y-59608244D01*
X171342378Y-59639966D01*
X171341865Y-59644420D01*
X171338983Y-59647856D01*
X171334460Y-59673508D01*
X171334460Y-59787794D01*
X170953509Y-59787794D01*
X170953509Y-59063984D01*
X171334460Y-59063984D01*
X171335993Y-59068197D01*
X171334952Y-59072559D01*
X171342378Y-59097525D01*
X171380474Y-59173716D01*
X171388627Y-59181435D01*
X171393094Y-59191740D01*
X171414015Y-59207257D01*
X171490205Y-59245352D01*
X171494658Y-59245864D01*
X171498094Y-59248747D01*
X171523746Y-59253270D01*
X171942794Y-59253270D01*
X171991003Y-59235723D01*
X172016655Y-59191294D01*
X172007746Y-59140770D01*
X172007432Y-59140506D01*
X172009876Y-59135620D01*
X172010388Y-59131166D01*
X172013271Y-59127731D01*
X172017794Y-59102079D01*
X172017794Y-58911603D01*
X172016260Y-58907389D01*
X172017302Y-58903029D01*
X172009876Y-58878062D01*
X171971781Y-58801872D01*
X171963626Y-58794151D01*
X171959161Y-58783849D01*
X171938240Y-58768331D01*
X171862049Y-58730235D01*
X171857595Y-58729722D01*
X171854160Y-58726840D01*
X171828508Y-58722317D01*
X171752318Y-58722317D01*
X171748104Y-58723850D01*
X171743743Y-58722809D01*
X171718776Y-58730235D01*
X171642586Y-58768331D01*
X171634866Y-58776484D01*
X171624562Y-58780951D01*
X171609045Y-58801872D01*
X171570950Y-58878062D01*
X171570437Y-58882515D01*
X171567555Y-58885951D01*
X171563032Y-58911603D01*
X171563032Y-59084374D01*
X171553584Y-59103270D01*
X171541451Y-59103270D01*
X171503457Y-59084273D01*
X171484460Y-59046278D01*
X171484460Y-58929309D01*
X171514637Y-58868955D01*
X171520503Y-58817988D01*
X171492237Y-58775175D01*
X171443063Y-58760548D01*
X171395992Y-58780951D01*
X171380474Y-58801872D01*
X171342378Y-58878061D01*
X171341865Y-58882515D01*
X171338983Y-58885951D01*
X171334460Y-58911603D01*
X171334460Y-59063984D01*
X170953509Y-59063984D01*
X170953509Y-57997652D01*
X171067795Y-57997652D01*
X171074485Y-58015783D01*
X171077842Y-58034818D01*
X171083154Y-58039275D01*
X171085555Y-58045782D01*
X171105584Y-58062436D01*
X171660378Y-58379461D01*
X171142794Y-58379461D01*
X171094585Y-58397008D01*
X171068933Y-58441437D01*
X171077842Y-58491961D01*
X171117142Y-58524938D01*
X171142794Y-58529461D01*
X171942794Y-58529461D01*
X171949310Y-58527089D01*
X171956146Y-58528263D01*
X171972843Y-58518523D01*
X171991003Y-58511914D01*
X171994470Y-58505908D01*
X172000462Y-58502414D01*
X172006991Y-58484222D01*
X172016655Y-58467485D01*
X172015450Y-58460653D01*
X172017793Y-58454127D01*
X172011102Y-58435995D01*
X172007746Y-58416961D01*
X172002433Y-58412503D01*
X172000033Y-58405997D01*
X171980004Y-58389343D01*
X171425210Y-58072318D01*
X171942794Y-58072318D01*
X171991003Y-58054771D01*
X172016655Y-58010342D01*
X172007746Y-57959818D01*
X171968446Y-57926841D01*
X171942794Y-57922318D01*
X171142794Y-57922318D01*
X171136277Y-57924689D01*
X171129442Y-57923516D01*
X171112744Y-57933255D01*
X171094585Y-57939865D01*
X171091117Y-57945870D01*
X171085126Y-57949365D01*
X171078596Y-57967556D01*
X171068933Y-57984294D01*
X171070137Y-57991125D01*
X171067795Y-57997652D01*
X170953509Y-57997652D01*
X170953509Y-57609830D01*
X171068080Y-57609830D01*
X171073122Y-57628648D01*
X171074821Y-57648062D01*
X171077490Y-57651875D01*
X171077842Y-57653866D01*
X171080370Y-57655987D01*
X171080495Y-57656166D01*
X171081358Y-57659385D01*
X171084087Y-57661296D01*
X171089761Y-57669399D01*
X171127856Y-57707494D01*
X171145381Y-57715665D01*
X171161178Y-57726825D01*
X171171301Y-57727752D01*
X171174352Y-57729175D01*
X171177530Y-57728323D01*
X171187117Y-57729202D01*
X171644261Y-57691107D01*
X171662221Y-57682821D01*
X171681304Y-57677624D01*
X171683168Y-57674937D01*
X171686241Y-57673819D01*
X171687876Y-57670987D01*
X171690846Y-57669617D01*
X171699277Y-57651729D01*
X171710557Y-57635479D01*
X171710258Y-57632221D01*
X171711893Y-57629390D01*
X171711325Y-57626170D01*
X171712720Y-57623211D01*
X171709194Y-57609830D01*
X171791889Y-57609830D01*
X171796931Y-57628649D01*
X171798630Y-57648063D01*
X171801300Y-57651876D01*
X171801651Y-57653866D01*
X171804178Y-57655987D01*
X171804303Y-57656165D01*
X171805166Y-57659384D01*
X171807895Y-57661295D01*
X171813571Y-57669400D01*
X171851667Y-57707495D01*
X171869324Y-57715728D01*
X171885288Y-57726906D01*
X171892031Y-57726315D01*
X171898163Y-57729175D01*
X171916981Y-57724132D01*
X171936395Y-57722434D01*
X171944499Y-57716759D01*
X171947718Y-57715897D01*
X171949629Y-57713167D01*
X171957732Y-57707494D01*
X171995827Y-57669399D01*
X172004062Y-57651738D01*
X172015238Y-57635778D01*
X172014939Y-57632361D01*
X172016655Y-57629390D01*
X172016059Y-57626010D01*
X172017508Y-57622903D01*
X172012465Y-57604084D01*
X172010768Y-57584671D01*
X172008096Y-57580856D01*
X172007746Y-57578866D01*
X172005218Y-57576744D01*
X172005093Y-57576566D01*
X172004231Y-57573348D01*
X172001501Y-57571436D01*
X171995828Y-57563334D01*
X171957733Y-57525238D01*
X171940077Y-57517004D01*
X171924111Y-57505825D01*
X171917367Y-57506414D01*
X171911236Y-57503556D01*
X171892417Y-57508597D01*
X171873003Y-57510296D01*
X171864900Y-57515969D01*
X171861682Y-57516832D01*
X171859770Y-57519561D01*
X171851666Y-57525237D01*
X171813570Y-57563333D01*
X171805336Y-57580989D01*
X171794158Y-57596955D01*
X171794456Y-57600371D01*
X171792742Y-57603342D01*
X171793338Y-57606722D01*
X171791889Y-57609830D01*
X171709194Y-57609830D01*
X171707679Y-57604083D01*
X171705874Y-57584390D01*
X171703551Y-57582086D01*
X171702984Y-57578866D01*
X171700479Y-57576764D01*
X171699646Y-57573602D01*
X171683491Y-57562190D01*
X171669449Y-57548263D01*
X171665168Y-57547135D01*
X171663684Y-57545889D01*
X171659326Y-57545120D01*
X171657743Y-57544002D01*
X171650901Y-57543375D01*
X171644261Y-57541625D01*
X171187118Y-57503529D01*
X171168460Y-57508610D01*
X171149192Y-57510297D01*
X171140865Y-57516127D01*
X171137618Y-57517012D01*
X171135741Y-57519715D01*
X171127855Y-57525238D01*
X171089760Y-57563334D01*
X171081526Y-57580991D01*
X171070349Y-57596955D01*
X171070647Y-57600371D01*
X171068933Y-57603342D01*
X171069529Y-57606722D01*
X171068080Y-57609830D01*
X170953509Y-57609830D01*
X170953509Y-57159223D01*
X171334460Y-57159223D01*
X171335993Y-57163436D01*
X171334952Y-57167798D01*
X171342378Y-57192764D01*
X171380474Y-57268955D01*
X171388627Y-57276674D01*
X171393094Y-57286979D01*
X171414015Y-57302496D01*
X171490205Y-57340591D01*
X171494658Y-57341103D01*
X171498094Y-57343986D01*
X171523746Y-57348509D01*
X171599937Y-57348509D01*
X171611581Y-57344270D01*
X171623971Y-57344554D01*
X171634941Y-57335768D01*
X171648146Y-57330962D01*
X171654341Y-57320230D01*
X171664015Y-57312484D01*
X171673481Y-57288218D01*
X171737613Y-56967556D01*
X171810803Y-56967556D01*
X171848797Y-56986553D01*
X171867794Y-57024547D01*
X171867794Y-57141518D01*
X171837617Y-57201873D01*
X171831752Y-57252840D01*
X171860019Y-57295653D01*
X171909193Y-57310279D01*
X171956264Y-57289876D01*
X171971781Y-57268955D01*
X172009876Y-57192764D01*
X172010388Y-57188310D01*
X172013271Y-57184875D01*
X172017794Y-57159223D01*
X172017794Y-57006842D01*
X172016260Y-57002628D01*
X172017302Y-56998268D01*
X172009876Y-56973301D01*
X171971781Y-56897111D01*
X171963626Y-56889390D01*
X171959161Y-56879088D01*
X171938240Y-56863570D01*
X171862049Y-56825474D01*
X171857595Y-56824961D01*
X171854160Y-56822079D01*
X171828508Y-56817556D01*
X171523746Y-56817556D01*
X171519531Y-56819089D01*
X171515170Y-56818048D01*
X171490204Y-56825475D01*
X171414014Y-56863570D01*
X171406293Y-56871724D01*
X171395992Y-56876190D01*
X171380474Y-56897111D01*
X171342378Y-56973300D01*
X171341865Y-56977754D01*
X171338983Y-56981190D01*
X171334460Y-57006842D01*
X171334460Y-57159223D01*
X170953509Y-57159223D01*
X170953509Y-56511604D01*
X171334460Y-56511604D01*
X171335993Y-56515817D01*
X171334952Y-56520179D01*
X171342378Y-56545145D01*
X171380474Y-56621336D01*
X171417728Y-56656608D01*
X171468939Y-56659682D01*
X171510144Y-56629119D01*
X171522064Y-56579220D01*
X171514638Y-56554253D01*
X171484460Y-56493898D01*
X171484460Y-56376928D01*
X171509194Y-56327461D01*
X171530077Y-56306577D01*
X171579547Y-56281842D01*
X171772707Y-56281842D01*
X171822175Y-56306576D01*
X171843060Y-56327460D01*
X171867794Y-56376927D01*
X171867794Y-56493899D01*
X171837617Y-56554254D01*
X171831752Y-56605221D01*
X171860019Y-56648034D01*
X171909193Y-56662660D01*
X171956264Y-56642257D01*
X171971781Y-56621336D01*
X172009876Y-56545145D01*
X172010388Y-56540691D01*
X172013271Y-56537256D01*
X172017794Y-56511604D01*
X172017794Y-56359223D01*
X172016260Y-56355009D01*
X172017302Y-56350649D01*
X172009876Y-56325682D01*
X171971781Y-56249492D01*
X171970593Y-56248367D01*
X171957731Y-56229999D01*
X171919635Y-56191904D01*
X171918149Y-56191211D01*
X171900144Y-56177856D01*
X171823955Y-56139760D01*
X171819500Y-56139247D01*
X171816065Y-56136365D01*
X171790413Y-56131842D01*
X171561841Y-56131842D01*
X171557626Y-56133375D01*
X171553265Y-56132334D01*
X171528299Y-56139761D01*
X171452109Y-56177856D01*
X171450981Y-56179047D01*
X171432618Y-56191905D01*
X171394523Y-56230000D01*
X171393830Y-56231484D01*
X171380474Y-56249492D01*
X171342378Y-56325681D01*
X171341865Y-56330135D01*
X171338983Y-56333571D01*
X171334460Y-56359223D01*
X171334460Y-56511604D01*
X170953509Y-56511604D01*
X170953509Y-55857450D01*
X171068080Y-55857450D01*
X171073122Y-55876268D01*
X171074821Y-55895682D01*
X171077490Y-55899495D01*
X171077842Y-55901486D01*
X171080370Y-55903607D01*
X171080495Y-55903786D01*
X171081358Y-55907005D01*
X171084087Y-55908916D01*
X171089761Y-55917019D01*
X171127856Y-55955114D01*
X171145514Y-55963347D01*
X171161478Y-55974526D01*
X171168220Y-55973935D01*
X171174352Y-55976795D01*
X171193171Y-55971752D01*
X171212585Y-55970054D01*
X171220687Y-55964380D01*
X171223907Y-55963518D01*
X171225818Y-55960788D01*
X171233922Y-55955114D01*
X171272017Y-55917019D01*
X171280252Y-55899358D01*
X171291428Y-55883398D01*
X171291129Y-55879981D01*
X171292845Y-55877010D01*
X171292249Y-55873630D01*
X171293698Y-55870523D01*
X171288655Y-55851704D01*
X171288590Y-55850962D01*
X171335599Y-55850962D01*
X171344508Y-55901486D01*
X171383808Y-55934463D01*
X171409460Y-55938986D01*
X171942794Y-55938986D01*
X171991003Y-55921439D01*
X172016655Y-55877010D01*
X172007746Y-55826486D01*
X171968446Y-55793509D01*
X171942794Y-55788986D01*
X171409460Y-55788986D01*
X171361251Y-55806533D01*
X171335599Y-55850962D01*
X171288590Y-55850962D01*
X171286958Y-55832291D01*
X171284286Y-55828476D01*
X171283936Y-55826486D01*
X171281408Y-55824364D01*
X171281283Y-55824186D01*
X171280421Y-55820968D01*
X171277691Y-55819056D01*
X171272018Y-55810954D01*
X171233923Y-55772858D01*
X171216263Y-55764623D01*
X171200299Y-55753445D01*
X171193556Y-55754034D01*
X171187426Y-55751176D01*
X171168605Y-55756218D01*
X171149192Y-55757917D01*
X171141091Y-55763589D01*
X171137872Y-55764452D01*
X171135960Y-55767182D01*
X171127855Y-55772858D01*
X171089760Y-55810954D01*
X171081526Y-55828611D01*
X171070349Y-55844575D01*
X171070647Y-55847991D01*
X171068933Y-55850962D01*
X171069529Y-55854342D01*
X171068080Y-55857450D01*
X170953509Y-55857450D01*
X170953509Y-55026225D01*
X171067795Y-55026225D01*
X171074485Y-55044356D01*
X171077842Y-55063391D01*
X171083154Y-55067848D01*
X171085555Y-55074355D01*
X171105584Y-55091009D01*
X171660378Y-55408034D01*
X171142794Y-55408034D01*
X171094585Y-55425581D01*
X171068933Y-55470010D01*
X171077842Y-55520534D01*
X171117142Y-55553511D01*
X171142794Y-55558034D01*
X171942794Y-55558034D01*
X171949310Y-55555662D01*
X171956146Y-55556836D01*
X171972843Y-55547096D01*
X171991003Y-55540487D01*
X171994470Y-55534481D01*
X172000462Y-55530987D01*
X172006991Y-55512795D01*
X172016655Y-55496058D01*
X172015450Y-55489226D01*
X172017793Y-55482700D01*
X172011102Y-55464568D01*
X172007746Y-55445534D01*
X172002433Y-55441076D01*
X172000033Y-55434570D01*
X171980004Y-55417916D01*
X171425210Y-55100891D01*
X171942794Y-55100891D01*
X171991003Y-55083344D01*
X172016655Y-55038915D01*
X172007746Y-54988391D01*
X171968446Y-54955414D01*
X171942794Y-54950891D01*
X171142794Y-54950891D01*
X171136277Y-54953262D01*
X171129442Y-54952089D01*
X171112744Y-54961828D01*
X171094585Y-54968438D01*
X171091117Y-54974443D01*
X171085126Y-54977938D01*
X171078596Y-54996129D01*
X171068933Y-55012867D01*
X171070137Y-55019698D01*
X171067795Y-55026225D01*
X170953509Y-55026225D01*
X170953509Y-54836605D01*
X172132080Y-54836605D01*
X172132080Y-60853271D01*
G37*
X168636326Y-61500091D02*
X168712517Y-61538186D01*
X168712517Y-61538186D02*
X168864898Y-61538186D01*
X168864898Y-61538186D02*
X168941088Y-61500091D01*
X168941088Y-61500091D02*
X168979183Y-61461995D01*
X168979183Y-61461995D02*
X169017279Y-61385805D01*
X169017279Y-61385805D02*
X169017279Y-61157233D01*
X169017279Y-61157233D02*
X168979183Y-61081043D01*
X168979183Y-61081043D02*
X168941088Y-61042948D01*
X168941088Y-61042948D02*
X168864898Y-61004852D01*
X168864898Y-61004852D02*
X168712517Y-61004852D01*
X168712517Y-61004852D02*
X168636326Y-61042948D01*
X168179184Y-61538186D02*
X168255374Y-61500091D01*
X168255374Y-61500091D02*
X168293469Y-61461995D01*
X168293469Y-61461995D02*
X168331565Y-61385805D01*
X168331565Y-61385805D02*
X168331565Y-61157233D01*
X168331565Y-61157233D02*
X168293469Y-61081043D01*
X168293469Y-61081043D02*
X168255374Y-61042948D01*
X168255374Y-61042948D02*
X168179184Y-61004852D01*
X168179184Y-61004852D02*
X168064898Y-61004852D01*
X168064898Y-61004852D02*
X167988707Y-61042948D01*
X167988707Y-61042948D02*
X167950612Y-61081043D01*
X167950612Y-61081043D02*
X167912517Y-61157233D01*
X167912517Y-61157233D02*
X167912517Y-61385805D01*
X167912517Y-61385805D02*
X167950612Y-61461995D01*
X167950612Y-61461995D02*
X167988707Y-61500091D01*
X167988707Y-61500091D02*
X168064898Y-61538186D01*
X168064898Y-61538186D02*
X168179184Y-61538186D01*
X167455374Y-61538186D02*
X167531564Y-61500091D01*
X167531564Y-61500091D02*
X167569659Y-61423900D01*
X167569659Y-61423900D02*
X167569659Y-60738186D01*
X166731564Y-61538186D02*
X167188707Y-61538186D01*
X166960135Y-61538186D02*
X166960135Y-60738186D01*
X166960135Y-60738186D02*
X167036326Y-60852471D01*
X167036326Y-60852471D02*
X167112516Y-60928662D01*
X167112516Y-60928662D02*
X167188707Y-60966757D01*
X178334195Y-46298186D02*
X178600862Y-45917233D01*
X178791338Y-46298186D02*
X178791338Y-45498186D01*
X178791338Y-45498186D02*
X178486576Y-45498186D01*
X178486576Y-45498186D02*
X178410386Y-45536281D01*
X178410386Y-45536281D02*
X178372291Y-45574376D01*
X178372291Y-45574376D02*
X178334195Y-45650567D01*
X178334195Y-45650567D02*
X178334195Y-45764852D01*
X178334195Y-45764852D02*
X178372291Y-45841043D01*
X178372291Y-45841043D02*
X178410386Y-45879138D01*
X178410386Y-45879138D02*
X178486576Y-45917233D01*
X178486576Y-45917233D02*
X178791338Y-45917233D01*
X178029434Y-46260091D02*
X177915148Y-46298186D01*
X177915148Y-46298186D02*
X177724672Y-46298186D01*
X177724672Y-46298186D02*
X177648481Y-46260091D01*
X177648481Y-46260091D02*
X177610386Y-46221995D01*
X177610386Y-46221995D02*
X177572291Y-46145805D01*
X177572291Y-46145805D02*
X177572291Y-46069614D01*
X177572291Y-46069614D02*
X177610386Y-45993424D01*
X177610386Y-45993424D02*
X177648481Y-45955329D01*
X177648481Y-45955329D02*
X177724672Y-45917233D01*
X177724672Y-45917233D02*
X177877053Y-45879138D01*
X177877053Y-45879138D02*
X177953243Y-45841043D01*
X177953243Y-45841043D02*
X177991338Y-45802948D01*
X177991338Y-45802948D02*
X178029434Y-45726757D01*
X178029434Y-45726757D02*
X178029434Y-45650567D01*
X178029434Y-45650567D02*
X177991338Y-45574376D01*
X177991338Y-45574376D02*
X177953243Y-45536281D01*
X177953243Y-45536281D02*
X177877053Y-45498186D01*
X177877053Y-45498186D02*
X177686576Y-45498186D01*
X177686576Y-45498186D02*
X177572291Y-45536281D01*
X177343719Y-45498186D02*
X176886576Y-45498186D01*
X177115148Y-46298186D02*
X177115148Y-45498186D01*
X173692794Y-52778271D02*
X172892794Y-52778271D01*
X172892794Y-52778271D02*
X172892794Y-53083033D01*
X172892794Y-53083033D02*
X172930889Y-53159223D01*
X172930889Y-53159223D02*
X172968984Y-53197318D01*
X172968984Y-53197318D02*
X173045175Y-53235414D01*
X173045175Y-53235414D02*
X173159460Y-53235414D01*
X173159460Y-53235414D02*
X173235651Y-53197318D01*
X173235651Y-53197318D02*
X173273746Y-53159223D01*
X173273746Y-53159223D02*
X173311841Y-53083033D01*
X173311841Y-53083033D02*
X173311841Y-52778271D01*
X173692794Y-53692556D02*
X173654699Y-53616366D01*
X173654699Y-53616366D02*
X173578508Y-53578271D01*
X173578508Y-53578271D02*
X172892794Y-53578271D01*
X173692794Y-54340176D02*
X173273746Y-54340176D01*
X173273746Y-54340176D02*
X173197556Y-54302081D01*
X173197556Y-54302081D02*
X173159460Y-54225890D01*
X173159460Y-54225890D02*
X173159460Y-54073509D01*
X173159460Y-54073509D02*
X173197556Y-53997319D01*
X173654699Y-54340176D02*
X173692794Y-54263985D01*
X173692794Y-54263985D02*
X173692794Y-54073509D01*
X173692794Y-54073509D02*
X173654699Y-53997319D01*
X173654699Y-53997319D02*
X173578508Y-53959223D01*
X173578508Y-53959223D02*
X173502318Y-53959223D01*
X173502318Y-53959223D02*
X173426127Y-53997319D01*
X173426127Y-53997319D02*
X173388032Y-54073509D01*
X173388032Y-54073509D02*
X173388032Y-54263985D01*
X173388032Y-54263985D02*
X173349937Y-54340176D01*
X173654699Y-55063986D02*
X173692794Y-54987795D01*
X173692794Y-54987795D02*
X173692794Y-54835414D01*
X173692794Y-54835414D02*
X173654699Y-54759224D01*
X173654699Y-54759224D02*
X173616603Y-54721129D01*
X173616603Y-54721129D02*
X173540413Y-54683033D01*
X173540413Y-54683033D02*
X173311841Y-54683033D01*
X173311841Y-54683033D02*
X173235651Y-54721129D01*
X173235651Y-54721129D02*
X173197556Y-54759224D01*
X173197556Y-54759224D02*
X173159460Y-54835414D01*
X173159460Y-54835414D02*
X173159460Y-54987795D01*
X173159460Y-54987795D02*
X173197556Y-55063986D01*
X173654699Y-55711605D02*
X173692794Y-55635414D01*
X173692794Y-55635414D02*
X173692794Y-55483033D01*
X173692794Y-55483033D02*
X173654699Y-55406843D01*
X173654699Y-55406843D02*
X173578508Y-55368747D01*
X173578508Y-55368747D02*
X173273746Y-55368747D01*
X173273746Y-55368747D02*
X173197556Y-55406843D01*
X173197556Y-55406843D02*
X173159460Y-55483033D01*
X173159460Y-55483033D02*
X173159460Y-55635414D01*
X173159460Y-55635414D02*
X173197556Y-55711605D01*
X173197556Y-55711605D02*
X173273746Y-55749700D01*
X173273746Y-55749700D02*
X173349937Y-55749700D01*
X173349937Y-55749700D02*
X173426127Y-55368747D01*
X173159460Y-56587795D02*
X173159460Y-56892557D01*
X173692794Y-56702081D02*
X173007079Y-56702081D01*
X173007079Y-56702081D02*
X172930889Y-56740176D01*
X172930889Y-56740176D02*
X172892794Y-56816366D01*
X172892794Y-56816366D02*
X172892794Y-56892557D01*
X173692794Y-57502081D02*
X173273746Y-57502081D01*
X173273746Y-57502081D02*
X173197556Y-57463986D01*
X173197556Y-57463986D02*
X173159460Y-57387795D01*
X173159460Y-57387795D02*
X173159460Y-57235414D01*
X173159460Y-57235414D02*
X173197556Y-57159224D01*
X173654699Y-57502081D02*
X173692794Y-57425890D01*
X173692794Y-57425890D02*
X173692794Y-57235414D01*
X173692794Y-57235414D02*
X173654699Y-57159224D01*
X173654699Y-57159224D02*
X173578508Y-57121128D01*
X173578508Y-57121128D02*
X173502318Y-57121128D01*
X173502318Y-57121128D02*
X173426127Y-57159224D01*
X173426127Y-57159224D02*
X173388032Y-57235414D01*
X173388032Y-57235414D02*
X173388032Y-57425890D01*
X173388032Y-57425890D02*
X173349937Y-57502081D01*
X173654699Y-58225891D02*
X173692794Y-58149700D01*
X173692794Y-58149700D02*
X173692794Y-57997319D01*
X173692794Y-57997319D02*
X173654699Y-57921129D01*
X173654699Y-57921129D02*
X173616603Y-57883034D01*
X173616603Y-57883034D02*
X173540413Y-57844938D01*
X173540413Y-57844938D02*
X173311841Y-57844938D01*
X173311841Y-57844938D02*
X173235651Y-57883034D01*
X173235651Y-57883034D02*
X173197556Y-57921129D01*
X173197556Y-57921129D02*
X173159460Y-57997319D01*
X173159460Y-57997319D02*
X173159460Y-58149700D01*
X173159460Y-58149700D02*
X173197556Y-58225891D01*
X173654699Y-58873510D02*
X173692794Y-58797319D01*
X173692794Y-58797319D02*
X173692794Y-58644938D01*
X173692794Y-58644938D02*
X173654699Y-58568748D01*
X173654699Y-58568748D02*
X173578508Y-58530652D01*
X173578508Y-58530652D02*
X173273746Y-58530652D01*
X173273746Y-58530652D02*
X173197556Y-58568748D01*
X173197556Y-58568748D02*
X173159460Y-58644938D01*
X173159460Y-58644938D02*
X173159460Y-58797319D01*
X173159460Y-58797319D02*
X173197556Y-58873510D01*
X173197556Y-58873510D02*
X173273746Y-58911605D01*
X173273746Y-58911605D02*
X173349937Y-58911605D01*
X173349937Y-58911605D02*
X173426127Y-58530652D01*
X173692794Y-60206843D02*
X172892794Y-60206843D01*
X173654699Y-60206843D02*
X173692794Y-60130652D01*
X173692794Y-60130652D02*
X173692794Y-59978271D01*
X173692794Y-59978271D02*
X173654699Y-59902081D01*
X173654699Y-59902081D02*
X173616603Y-59863986D01*
X173616603Y-59863986D02*
X173540413Y-59825890D01*
X173540413Y-59825890D02*
X173311841Y-59825890D01*
X173311841Y-59825890D02*
X173235651Y-59863986D01*
X173235651Y-59863986D02*
X173197556Y-59902081D01*
X173197556Y-59902081D02*
X173159460Y-59978271D01*
X173159460Y-59978271D02*
X173159460Y-60130652D01*
X173159460Y-60130652D02*
X173197556Y-60206843D01*
X173692794Y-60702081D02*
X173654699Y-60625891D01*
X173654699Y-60625891D02*
X173616603Y-60587796D01*
X173616603Y-60587796D02*
X173540413Y-60549700D01*
X173540413Y-60549700D02*
X173311841Y-60549700D01*
X173311841Y-60549700D02*
X173235651Y-60587796D01*
X173235651Y-60587796D02*
X173197556Y-60625891D01*
X173197556Y-60625891D02*
X173159460Y-60702081D01*
X173159460Y-60702081D02*
X173159460Y-60816367D01*
X173159460Y-60816367D02*
X173197556Y-60892558D01*
X173197556Y-60892558D02*
X173235651Y-60930653D01*
X173235651Y-60930653D02*
X173311841Y-60968748D01*
X173311841Y-60968748D02*
X173540413Y-60968748D01*
X173540413Y-60968748D02*
X173616603Y-60930653D01*
X173616603Y-60930653D02*
X173654699Y-60892558D01*
X173654699Y-60892558D02*
X173692794Y-60816367D01*
X173692794Y-60816367D02*
X173692794Y-60702081D01*
X173159460Y-61235415D02*
X173692794Y-61387796D01*
X173692794Y-61387796D02*
X173311841Y-61540177D01*
X173311841Y-61540177D02*
X173692794Y-61692558D01*
X173692794Y-61692558D02*
X173159460Y-61844939D01*
X173159460Y-62149701D02*
X173692794Y-62149701D01*
X173235651Y-62149701D02*
X173197556Y-62187796D01*
X173197556Y-62187796D02*
X173159460Y-62263986D01*
X173159460Y-62263986D02*
X173159460Y-62378272D01*
X173159460Y-62378272D02*
X173197556Y-62454463D01*
X173197556Y-62454463D02*
X173273746Y-62492558D01*
X173273746Y-62492558D02*
X173692794Y-62492558D01*
X173616603Y-62873511D02*
X173654699Y-62911606D01*
X173654699Y-62911606D02*
X173692794Y-62873511D01*
X173692794Y-62873511D02*
X173654699Y-62835415D01*
X173654699Y-62835415D02*
X173616603Y-62873511D01*
X173616603Y-62873511D02*
X173692794Y-62873511D01*
X168636326Y-58960091D02*
X168712517Y-58998186D01*
X168712517Y-58998186D02*
X168864898Y-58998186D01*
X168864898Y-58998186D02*
X168941088Y-58960091D01*
X168941088Y-58960091D02*
X168979183Y-58921995D01*
X168979183Y-58921995D02*
X169017279Y-58845805D01*
X169017279Y-58845805D02*
X169017279Y-58617233D01*
X169017279Y-58617233D02*
X168979183Y-58541043D01*
X168979183Y-58541043D02*
X168941088Y-58502948D01*
X168941088Y-58502948D02*
X168864898Y-58464852D01*
X168864898Y-58464852D02*
X168712517Y-58464852D01*
X168712517Y-58464852D02*
X168636326Y-58502948D01*
X168179184Y-58998186D02*
X168255374Y-58960091D01*
X168255374Y-58960091D02*
X168293469Y-58921995D01*
X168293469Y-58921995D02*
X168331565Y-58845805D01*
X168331565Y-58845805D02*
X168331565Y-58617233D01*
X168331565Y-58617233D02*
X168293469Y-58541043D01*
X168293469Y-58541043D02*
X168255374Y-58502948D01*
X168255374Y-58502948D02*
X168179184Y-58464852D01*
X168179184Y-58464852D02*
X168064898Y-58464852D01*
X168064898Y-58464852D02*
X167988707Y-58502948D01*
X167988707Y-58502948D02*
X167950612Y-58541043D01*
X167950612Y-58541043D02*
X167912517Y-58617233D01*
X167912517Y-58617233D02*
X167912517Y-58845805D01*
X167912517Y-58845805D02*
X167950612Y-58921995D01*
X167950612Y-58921995D02*
X167988707Y-58960091D01*
X167988707Y-58960091D02*
X168064898Y-58998186D01*
X168064898Y-58998186D02*
X168179184Y-58998186D01*
X167455374Y-58998186D02*
X167531564Y-58960091D01*
X167531564Y-58960091D02*
X167569659Y-58883900D01*
X167569659Y-58883900D02*
X167569659Y-58198186D01*
X166998230Y-58198186D02*
X166922040Y-58198186D01*
X166922040Y-58198186D02*
X166845849Y-58236281D01*
X166845849Y-58236281D02*
X166807754Y-58274376D01*
X166807754Y-58274376D02*
X166769659Y-58350567D01*
X166769659Y-58350567D02*
X166731564Y-58502948D01*
X166731564Y-58502948D02*
X166731564Y-58693424D01*
X166731564Y-58693424D02*
X166769659Y-58845805D01*
X166769659Y-58845805D02*
X166807754Y-58921995D01*
X166807754Y-58921995D02*
X166845849Y-58960091D01*
X166845849Y-58960091D02*
X166922040Y-58998186D01*
X166922040Y-58998186D02*
X166998230Y-58998186D01*
X166998230Y-58998186D02*
X167074421Y-58960091D01*
X167074421Y-58960091D02*
X167112516Y-58921995D01*
X167112516Y-58921995D02*
X167150611Y-58845805D01*
X167150611Y-58845805D02*
X167188707Y-58693424D01*
X167188707Y-58693424D02*
X167188707Y-58502948D01*
X167188707Y-58502948D02*
X167150611Y-58350567D01*
X167150611Y-58350567D02*
X167112516Y-58274376D01*
X167112516Y-58274376D02*
X167074421Y-58236281D01*
X167074421Y-58236281D02*
X166998230Y-58198186D01*
X178791338Y-56458186D02*
X178791338Y-55924852D01*
X178791338Y-56077233D02*
X178753243Y-56001043D01*
X178753243Y-56001043D02*
X178715148Y-55962948D01*
X178715148Y-55962948D02*
X178638957Y-55924852D01*
X178638957Y-55924852D02*
X178562767Y-55924852D01*
X178181815Y-56458186D02*
X178258005Y-56420091D01*
X178258005Y-56420091D02*
X178296100Y-56381995D01*
X178296100Y-56381995D02*
X178334196Y-56305805D01*
X178334196Y-56305805D02*
X178334196Y-56077233D01*
X178334196Y-56077233D02*
X178296100Y-56001043D01*
X178296100Y-56001043D02*
X178258005Y-55962948D01*
X178258005Y-55962948D02*
X178181815Y-55924852D01*
X178181815Y-55924852D02*
X178067529Y-55924852D01*
X178067529Y-55924852D02*
X177991338Y-55962948D01*
X177991338Y-55962948D02*
X177953243Y-56001043D01*
X177953243Y-56001043D02*
X177915148Y-56077233D01*
X177915148Y-56077233D02*
X177915148Y-56305805D01*
X177915148Y-56305805D02*
X177953243Y-56381995D01*
X177953243Y-56381995D02*
X177991338Y-56420091D01*
X177991338Y-56420091D02*
X178067529Y-56458186D01*
X178067529Y-56458186D02*
X178181815Y-56458186D01*
X177648481Y-55924852D02*
X177496100Y-56458186D01*
X177496100Y-56458186D02*
X177343719Y-56077233D01*
X177343719Y-56077233D02*
X177191338Y-56458186D01*
X177191338Y-56458186D02*
X177038957Y-55924852D01*
X176581814Y-55658186D02*
X176505624Y-55658186D01*
X176505624Y-55658186D02*
X176429433Y-55696281D01*
X176429433Y-55696281D02*
X176391338Y-55734376D01*
X176391338Y-55734376D02*
X176353243Y-55810567D01*
X176353243Y-55810567D02*
X176315148Y-55962948D01*
X176315148Y-55962948D02*
X176315148Y-56153424D01*
X176315148Y-56153424D02*
X176353243Y-56305805D01*
X176353243Y-56305805D02*
X176391338Y-56381995D01*
X176391338Y-56381995D02*
X176429433Y-56420091D01*
X176429433Y-56420091D02*
X176505624Y-56458186D01*
X176505624Y-56458186D02*
X176581814Y-56458186D01*
X176581814Y-56458186D02*
X176658005Y-56420091D01*
X176658005Y-56420091D02*
X176696100Y-56381995D01*
X176696100Y-56381995D02*
X176734195Y-56305805D01*
X176734195Y-56305805D02*
X176772291Y-56153424D01*
X176772291Y-56153424D02*
X176772291Y-55962948D01*
X176772291Y-55962948D02*
X176734195Y-55810567D01*
X176734195Y-55810567D02*
X176696100Y-55734376D01*
X176696100Y-55734376D02*
X176658005Y-55696281D01*
X176658005Y-55696281D02*
X176581814Y-55658186D01*
X168636326Y-69120091D02*
X168712517Y-69158186D01*
X168712517Y-69158186D02*
X168864898Y-69158186D01*
X168864898Y-69158186D02*
X168941088Y-69120091D01*
X168941088Y-69120091D02*
X168979183Y-69081995D01*
X168979183Y-69081995D02*
X169017279Y-69005805D01*
X169017279Y-69005805D02*
X169017279Y-68777233D01*
X169017279Y-68777233D02*
X168979183Y-68701043D01*
X168979183Y-68701043D02*
X168941088Y-68662948D01*
X168941088Y-68662948D02*
X168864898Y-68624852D01*
X168864898Y-68624852D02*
X168712517Y-68624852D01*
X168712517Y-68624852D02*
X168636326Y-68662948D01*
X168179184Y-69158186D02*
X168255374Y-69120091D01*
X168255374Y-69120091D02*
X168293469Y-69081995D01*
X168293469Y-69081995D02*
X168331565Y-69005805D01*
X168331565Y-69005805D02*
X168331565Y-68777233D01*
X168331565Y-68777233D02*
X168293469Y-68701043D01*
X168293469Y-68701043D02*
X168255374Y-68662948D01*
X168255374Y-68662948D02*
X168179184Y-68624852D01*
X168179184Y-68624852D02*
X168064898Y-68624852D01*
X168064898Y-68624852D02*
X167988707Y-68662948D01*
X167988707Y-68662948D02*
X167950612Y-68701043D01*
X167950612Y-68701043D02*
X167912517Y-68777233D01*
X167912517Y-68777233D02*
X167912517Y-69005805D01*
X167912517Y-69005805D02*
X167950612Y-69081995D01*
X167950612Y-69081995D02*
X167988707Y-69120091D01*
X167988707Y-69120091D02*
X168064898Y-69158186D01*
X168064898Y-69158186D02*
X168179184Y-69158186D01*
X167455374Y-69158186D02*
X167531564Y-69120091D01*
X167531564Y-69120091D02*
X167569659Y-69043900D01*
X167569659Y-69043900D02*
X167569659Y-68358186D01*
X166807754Y-68624852D02*
X166807754Y-69158186D01*
X166998230Y-68320091D02*
X167188707Y-68891519D01*
X167188707Y-68891519D02*
X166693468Y-68891519D01*
X168636326Y-53880091D02*
X168522040Y-53918186D01*
X168522040Y-53918186D02*
X168331564Y-53918186D01*
X168331564Y-53918186D02*
X168255373Y-53880091D01*
X168255373Y-53880091D02*
X168217278Y-53841995D01*
X168217278Y-53841995D02*
X168179183Y-53765805D01*
X168179183Y-53765805D02*
X168179183Y-53689614D01*
X168179183Y-53689614D02*
X168217278Y-53613424D01*
X168217278Y-53613424D02*
X168255373Y-53575329D01*
X168255373Y-53575329D02*
X168331564Y-53537233D01*
X168331564Y-53537233D02*
X168483945Y-53499138D01*
X168483945Y-53499138D02*
X168560135Y-53461043D01*
X168560135Y-53461043D02*
X168598230Y-53422948D01*
X168598230Y-53422948D02*
X168636326Y-53346757D01*
X168636326Y-53346757D02*
X168636326Y-53270567D01*
X168636326Y-53270567D02*
X168598230Y-53194376D01*
X168598230Y-53194376D02*
X168560135Y-53156281D01*
X168560135Y-53156281D02*
X168483945Y-53118186D01*
X168483945Y-53118186D02*
X168293468Y-53118186D01*
X168293468Y-53118186D02*
X168179183Y-53156281D01*
X167379182Y-53841995D02*
X167417278Y-53880091D01*
X167417278Y-53880091D02*
X167531563Y-53918186D01*
X167531563Y-53918186D02*
X167607754Y-53918186D01*
X167607754Y-53918186D02*
X167722040Y-53880091D01*
X167722040Y-53880091D02*
X167798230Y-53803900D01*
X167798230Y-53803900D02*
X167836325Y-53727710D01*
X167836325Y-53727710D02*
X167874421Y-53575329D01*
X167874421Y-53575329D02*
X167874421Y-53461043D01*
X167874421Y-53461043D02*
X167836325Y-53308662D01*
X167836325Y-53308662D02*
X167798230Y-53232471D01*
X167798230Y-53232471D02*
X167722040Y-53156281D01*
X167722040Y-53156281D02*
X167607754Y-53118186D01*
X167607754Y-53118186D02*
X167531563Y-53118186D01*
X167531563Y-53118186D02*
X167417278Y-53156281D01*
X167417278Y-53156281D02*
X167379182Y-53194376D01*
X166655373Y-53918186D02*
X167036325Y-53918186D01*
X167036325Y-53918186D02*
X167036325Y-53118186D01*
X178791338Y-58998186D02*
X178791338Y-58464852D01*
X178791338Y-58617233D02*
X178753243Y-58541043D01*
X178753243Y-58541043D02*
X178715148Y-58502948D01*
X178715148Y-58502948D02*
X178638957Y-58464852D01*
X178638957Y-58464852D02*
X178562767Y-58464852D01*
X178181815Y-58998186D02*
X178258005Y-58960091D01*
X178258005Y-58960091D02*
X178296100Y-58921995D01*
X178296100Y-58921995D02*
X178334196Y-58845805D01*
X178334196Y-58845805D02*
X178334196Y-58617233D01*
X178334196Y-58617233D02*
X178296100Y-58541043D01*
X178296100Y-58541043D02*
X178258005Y-58502948D01*
X178258005Y-58502948D02*
X178181815Y-58464852D01*
X178181815Y-58464852D02*
X178067529Y-58464852D01*
X178067529Y-58464852D02*
X177991338Y-58502948D01*
X177991338Y-58502948D02*
X177953243Y-58541043D01*
X177953243Y-58541043D02*
X177915148Y-58617233D01*
X177915148Y-58617233D02*
X177915148Y-58845805D01*
X177915148Y-58845805D02*
X177953243Y-58921995D01*
X177953243Y-58921995D02*
X177991338Y-58960091D01*
X177991338Y-58960091D02*
X178067529Y-58998186D01*
X178067529Y-58998186D02*
X178181815Y-58998186D01*
X177648481Y-58464852D02*
X177496100Y-58998186D01*
X177496100Y-58998186D02*
X177343719Y-58617233D01*
X177343719Y-58617233D02*
X177191338Y-58998186D01*
X177191338Y-58998186D02*
X177038957Y-58464852D01*
X176315148Y-58998186D02*
X176772291Y-58998186D01*
X176543719Y-58998186D02*
X176543719Y-58198186D01*
X176543719Y-58198186D02*
X176619910Y-58312471D01*
X176619910Y-58312471D02*
X176696100Y-58388662D01*
X176696100Y-58388662D02*
X176772291Y-58426757D01*
X178791338Y-69158186D02*
X178791338Y-68624852D01*
X178791338Y-68777233D02*
X178753243Y-68701043D01*
X178753243Y-68701043D02*
X178715148Y-68662948D01*
X178715148Y-68662948D02*
X178638957Y-68624852D01*
X178638957Y-68624852D02*
X178562767Y-68624852D01*
X178181815Y-69158186D02*
X178258005Y-69120091D01*
X178258005Y-69120091D02*
X178296100Y-69081995D01*
X178296100Y-69081995D02*
X178334196Y-69005805D01*
X178334196Y-69005805D02*
X178334196Y-68777233D01*
X178334196Y-68777233D02*
X178296100Y-68701043D01*
X178296100Y-68701043D02*
X178258005Y-68662948D01*
X178258005Y-68662948D02*
X178181815Y-68624852D01*
X178181815Y-68624852D02*
X178067529Y-68624852D01*
X178067529Y-68624852D02*
X177991338Y-68662948D01*
X177991338Y-68662948D02*
X177953243Y-68701043D01*
X177953243Y-68701043D02*
X177915148Y-68777233D01*
X177915148Y-68777233D02*
X177915148Y-69005805D01*
X177915148Y-69005805D02*
X177953243Y-69081995D01*
X177953243Y-69081995D02*
X177991338Y-69120091D01*
X177991338Y-69120091D02*
X178067529Y-69158186D01*
X178067529Y-69158186D02*
X178181815Y-69158186D01*
X177648481Y-68624852D02*
X177496100Y-69158186D01*
X177496100Y-69158186D02*
X177343719Y-68777233D01*
X177343719Y-68777233D02*
X177191338Y-69158186D01*
X177191338Y-69158186D02*
X177038957Y-68624852D01*
X176353243Y-68358186D02*
X176734195Y-68358186D01*
X176734195Y-68358186D02*
X176772291Y-68739138D01*
X176772291Y-68739138D02*
X176734195Y-68701043D01*
X176734195Y-68701043D02*
X176658005Y-68662948D01*
X176658005Y-68662948D02*
X176467529Y-68662948D01*
X176467529Y-68662948D02*
X176391338Y-68701043D01*
X176391338Y-68701043D02*
X176353243Y-68739138D01*
X176353243Y-68739138D02*
X176315148Y-68815329D01*
X176315148Y-68815329D02*
X176315148Y-69005805D01*
X176315148Y-69005805D02*
X176353243Y-69081995D01*
X176353243Y-69081995D02*
X176391338Y-69120091D01*
X176391338Y-69120091D02*
X176467529Y-69158186D01*
X176467529Y-69158186D02*
X176658005Y-69158186D01*
X176658005Y-69158186D02*
X176734195Y-69120091D01*
X176734195Y-69120091D02*
X176772291Y-69081995D01*
X174105886Y-82280704D02*
X174439219Y-81804513D01*
X174677314Y-82280704D02*
X174677314Y-81280704D01*
X174677314Y-81280704D02*
X174296362Y-81280704D01*
X174296362Y-81280704D02*
X174201124Y-81328323D01*
X174201124Y-81328323D02*
X174153505Y-81375942D01*
X174153505Y-81375942D02*
X174105886Y-81471180D01*
X174105886Y-81471180D02*
X174105886Y-81614037D01*
X174105886Y-81614037D02*
X174153505Y-81709275D01*
X174153505Y-81709275D02*
X174201124Y-81756894D01*
X174201124Y-81756894D02*
X174296362Y-81804513D01*
X174296362Y-81804513D02*
X174677314Y-81804513D01*
X173677314Y-81756894D02*
X173343981Y-81756894D01*
X173201124Y-82280704D02*
X173677314Y-82280704D01*
X173677314Y-82280704D02*
X173677314Y-81280704D01*
X173677314Y-81280704D02*
X173201124Y-81280704D01*
X172820171Y-82233085D02*
X172677314Y-82280704D01*
X172677314Y-82280704D02*
X172439219Y-82280704D01*
X172439219Y-82280704D02*
X172343981Y-82233085D01*
X172343981Y-82233085D02*
X172296362Y-82185465D01*
X172296362Y-82185465D02*
X172248743Y-82090227D01*
X172248743Y-82090227D02*
X172248743Y-81994989D01*
X172248743Y-81994989D02*
X172296362Y-81899751D01*
X172296362Y-81899751D02*
X172343981Y-81852132D01*
X172343981Y-81852132D02*
X172439219Y-81804513D01*
X172439219Y-81804513D02*
X172629695Y-81756894D01*
X172629695Y-81756894D02*
X172724933Y-81709275D01*
X172724933Y-81709275D02*
X172772552Y-81661656D01*
X172772552Y-81661656D02*
X172820171Y-81566418D01*
X172820171Y-81566418D02*
X172820171Y-81471180D01*
X172820171Y-81471180D02*
X172772552Y-81375942D01*
X172772552Y-81375942D02*
X172724933Y-81328323D01*
X172724933Y-81328323D02*
X172629695Y-81280704D01*
X172629695Y-81280704D02*
X172391600Y-81280704D01*
X172391600Y-81280704D02*
X172248743Y-81328323D01*
X171820171Y-81756894D02*
X171486838Y-81756894D01*
X171343981Y-82280704D02*
X171820171Y-82280704D01*
X171820171Y-82280704D02*
X171820171Y-81280704D01*
X171820171Y-81280704D02*
X171343981Y-81280704D01*
X171058266Y-81280704D02*
X170486838Y-81280704D01*
X170772552Y-82280704D02*
X170772552Y-81280704D01*
G36*
X123869400Y-67250730D02*
G01*
X123918854Y-67300184D01*
X123972160Y-67406795D01*
X123972160Y-67771385D01*
X123918853Y-67877997D01*
X123869399Y-67927451D01*
X123762788Y-67980757D01*
X123531531Y-67980757D01*
X123455493Y-67942738D01*
X123455493Y-67235443D01*
X123531532Y-67197424D01*
X123762788Y-67197424D01*
X123869400Y-67250730D01*
G37*
G36*
X111069397Y-67250730D02*
G01*
X111118851Y-67300184D01*
X111172157Y-67406796D01*
X111172157Y-67771385D01*
X111118850Y-67877997D01*
X111069396Y-67927451D01*
X110962785Y-67980757D01*
X110798195Y-67980757D01*
X110691583Y-67927451D01*
X110642128Y-67877996D01*
X110588824Y-67771386D01*
X110588824Y-67406795D01*
X110642129Y-67300184D01*
X110691583Y-67250730D01*
X110798195Y-67197424D01*
X110962785Y-67197424D01*
X111069397Y-67250730D01*
G37*
G36*
X115469397Y-67250730D02*
G01*
X115518851Y-67300184D01*
X115572157Y-67406795D01*
X115572157Y-67771385D01*
X115518851Y-67877997D01*
X115469397Y-67927451D01*
X115362786Y-67980757D01*
X115131529Y-67980757D01*
X115055491Y-67942738D01*
X115055491Y-67235443D01*
X115131530Y-67197424D01*
X115362786Y-67197424D01*
X115469397Y-67250730D01*
G37*
G36*
X117613618Y-67589506D02*
G01*
X117618071Y-67590018D01*
X117621507Y-67592901D01*
X117647159Y-67597424D01*
X117962787Y-67597424D01*
X118057923Y-67644992D01*
X118105492Y-67740129D01*
X118105492Y-67838051D01*
X118057923Y-67933189D01*
X117962787Y-67980757D01*
X117664863Y-67980757D01*
X117588825Y-67942738D01*
X117588825Y-67577109D01*
X117613618Y-67589506D01*
G37*
G36*
X125972160Y-67314091D02*
G01*
X125531532Y-67314091D01*
X125424921Y-67260785D01*
X125375465Y-67211329D01*
X125322160Y-67104718D01*
X125322160Y-66940129D01*
X125375465Y-66833518D01*
X125424921Y-66784062D01*
X125531532Y-66730757D01*
X125972160Y-66730757D01*
X125972160Y-67314091D01*
G37*
G36*
X126322160Y-68797424D02*
G01*
X108039962Y-68797424D01*
X108039962Y-68255757D01*
X123305493Y-68255757D01*
X123307026Y-68259970D01*
X123305985Y-68264331D01*
X123313411Y-68289298D01*
X123380078Y-68422632D01*
X123381265Y-68423756D01*
X123394127Y-68442124D01*
X123460795Y-68508791D01*
X123462280Y-68509483D01*
X123480286Y-68522839D01*
X123613619Y-68589506D01*
X123618072Y-68590018D01*
X123621508Y-68592901D01*
X123647160Y-68597424D01*
X123847160Y-68597424D01*
X123851373Y-68595890D01*
X123855735Y-68596932D01*
X123880701Y-68589506D01*
X124014034Y-68522839D01*
X124049306Y-68485585D01*
X124052381Y-68434374D01*
X124021817Y-68393168D01*
X123971918Y-68381249D01*
X123946952Y-68388675D01*
X123829455Y-68447424D01*
X123664865Y-68447424D01*
X123558253Y-68394117D01*
X123508798Y-68344663D01*
X123455493Y-68238052D01*
X123455493Y-68110442D01*
X123480286Y-68122839D01*
X123484739Y-68123351D01*
X123488175Y-68126234D01*
X123513827Y-68130757D01*
X123780493Y-68130757D01*
X123784705Y-68129223D01*
X123789067Y-68130266D01*
X123814034Y-68122839D01*
X123947367Y-68056173D01*
X123947761Y-68055757D01*
X124572160Y-68055757D01*
X124589707Y-68103966D01*
X124634136Y-68129618D01*
X124684660Y-68120709D01*
X124717637Y-68081409D01*
X124722160Y-68055757D01*
X124722160Y-67122424D01*
X125172160Y-67122424D01*
X125173693Y-67126637D01*
X125172652Y-67130999D01*
X125180078Y-67155965D01*
X125246745Y-67289298D01*
X125247934Y-67290423D01*
X125260794Y-67308790D01*
X125327461Y-67375457D01*
X125328946Y-67376149D01*
X125346953Y-67389506D01*
X125480286Y-67456173D01*
X125484739Y-67456685D01*
X125488175Y-67459568D01*
X125513827Y-67464091D01*
X125569778Y-67464091D01*
X125185718Y-68012747D01*
X125172447Y-68062304D01*
X125194134Y-68108797D01*
X125240634Y-68130473D01*
X125290187Y-68117188D01*
X125308602Y-68098767D01*
X125752876Y-67464091D01*
X125972160Y-67464091D01*
X125972160Y-68055757D01*
X125989707Y-68103966D01*
X126034136Y-68129618D01*
X126084660Y-68120709D01*
X126117637Y-68081409D01*
X126122160Y-68055757D01*
X126122160Y-66655757D01*
X126115496Y-66637448D01*
X126112112Y-66618257D01*
X126106927Y-66613906D01*
X126104613Y-66607548D01*
X126087739Y-66597805D01*
X126072812Y-66585280D01*
X126063069Y-66583562D01*
X126060184Y-66581896D01*
X126056901Y-66582474D01*
X126047160Y-66580757D01*
X125513827Y-66580757D01*
X125509613Y-66582290D01*
X125505252Y-66581249D01*
X125480286Y-66588675D01*
X125346953Y-66655342D01*
X125345827Y-66656531D01*
X125327461Y-66669391D01*
X125260794Y-66736058D01*
X125260101Y-66737542D01*
X125246745Y-66755550D01*
X125180078Y-66888883D01*
X125179565Y-66893336D01*
X125176683Y-66896772D01*
X125172160Y-66922424D01*
X125172160Y-67122424D01*
X124722160Y-67122424D01*
X124704613Y-67074215D01*
X124660184Y-67048563D01*
X124609660Y-67057472D01*
X124576683Y-67096772D01*
X124572160Y-67122424D01*
X124572160Y-68055757D01*
X123947761Y-68055757D01*
X123948489Y-68054987D01*
X123966860Y-68042124D01*
X124033527Y-67975456D01*
X124034219Y-67973970D01*
X124047575Y-67955965D01*
X124114242Y-67822632D01*
X124114754Y-67818178D01*
X124117637Y-67814743D01*
X124122160Y-67789091D01*
X124122160Y-67389091D01*
X124120626Y-67384877D01*
X124121668Y-67380517D01*
X124114242Y-67355550D01*
X124047575Y-67222216D01*
X124046385Y-67221090D01*
X124033526Y-67202724D01*
X123966860Y-67136058D01*
X123965378Y-67135367D01*
X123947368Y-67122009D01*
X123814034Y-67055342D01*
X123809580Y-67054829D01*
X123806145Y-67051947D01*
X123780493Y-67047424D01*
X123513827Y-67047424D01*
X123509613Y-67048957D01*
X123505253Y-67047916D01*
X123480286Y-67055342D01*
X123438653Y-67076158D01*
X123437946Y-67074215D01*
X123393517Y-67048563D01*
X123342993Y-67057472D01*
X123310016Y-67096772D01*
X123305493Y-67122424D01*
X123305493Y-68255757D01*
X108039962Y-68255757D01*
X108039962Y-68042733D01*
X108239962Y-68042733D01*
X108248871Y-68093257D01*
X108288171Y-68126234D01*
X108313823Y-68130757D01*
X108447156Y-68130757D01*
X108451368Y-68129223D01*
X108455730Y-68130266D01*
X108480697Y-68122839D01*
X108614030Y-68056173D01*
X108614424Y-68055757D01*
X109238823Y-68055757D01*
X109256370Y-68103966D01*
X109300799Y-68129618D01*
X109351323Y-68120709D01*
X109384300Y-68081409D01*
X109388823Y-68055757D01*
X109388823Y-67340129D01*
X109436391Y-67244992D01*
X109531528Y-67197424D01*
X109696118Y-67197424D01*
X109802730Y-67250730D01*
X109838823Y-67286823D01*
X109838823Y-68055757D01*
X109856370Y-68103966D01*
X109900799Y-68129618D01*
X109951323Y-68120709D01*
X109984300Y-68081409D01*
X109988823Y-68055757D01*
X109988823Y-67789091D01*
X110438824Y-67789091D01*
X110440357Y-67793304D01*
X110439316Y-67797665D01*
X110446742Y-67822632D01*
X110513408Y-67955965D01*
X110514597Y-67957090D01*
X110527457Y-67975457D01*
X110594124Y-68042124D01*
X110595605Y-68042815D01*
X110613616Y-68056173D01*
X110746950Y-68122839D01*
X110751402Y-68123351D01*
X110754838Y-68126234D01*
X110780490Y-68130757D01*
X110980490Y-68130757D01*
X110984702Y-68129223D01*
X110989064Y-68130266D01*
X111014031Y-68122839D01*
X111147364Y-68056173D01*
X111148486Y-68054987D01*
X111166857Y-68042124D01*
X111233524Y-67975456D01*
X111234216Y-67973970D01*
X111247572Y-67955965D01*
X111314239Y-67822632D01*
X111314751Y-67818178D01*
X111317634Y-67814743D01*
X111322157Y-67789091D01*
X111322157Y-67389091D01*
X111320623Y-67384877D01*
X111321665Y-67380517D01*
X111314239Y-67355550D01*
X111247572Y-67222216D01*
X111246382Y-67221090D01*
X111233523Y-67202724D01*
X111166857Y-67136058D01*
X111165375Y-67135367D01*
X111147365Y-67122009D01*
X111122147Y-67109400D01*
X111573296Y-67109400D01*
X111582205Y-67159924D01*
X111621505Y-67192901D01*
X111647157Y-67197424D01*
X111762786Y-67197424D01*
X111869397Y-67250730D01*
X111918852Y-67300184D01*
X111972157Y-67406794D01*
X111972157Y-68055757D01*
X111989704Y-68103966D01*
X112034133Y-68129618D01*
X112084657Y-68120709D01*
X112117634Y-68081409D01*
X112122157Y-68055757D01*
X112122157Y-67122424D01*
X112104610Y-67074215D01*
X112060181Y-67048563D01*
X112009657Y-67057472D01*
X111976680Y-67096772D01*
X111972157Y-67122424D01*
X111972157Y-67141357D01*
X111966857Y-67136058D01*
X111965372Y-67135365D01*
X111947365Y-67122009D01*
X111814032Y-67055342D01*
X111809578Y-67054829D01*
X111806143Y-67051947D01*
X111780491Y-67047424D01*
X111647157Y-67047424D01*
X111598948Y-67064971D01*
X111573296Y-67109400D01*
X111122147Y-67109400D01*
X111014031Y-67055342D01*
X111009577Y-67054829D01*
X111006142Y-67051947D01*
X110980490Y-67047424D01*
X110780490Y-67047424D01*
X110776276Y-67048957D01*
X110771915Y-67047916D01*
X110746949Y-67055342D01*
X110613616Y-67122009D01*
X110612490Y-67123197D01*
X110594125Y-67136057D01*
X110527457Y-67202724D01*
X110526764Y-67204208D01*
X110513408Y-67222217D01*
X110446742Y-67355550D01*
X110446229Y-67360003D01*
X110443347Y-67363439D01*
X110438824Y-67389091D01*
X110438824Y-67789091D01*
X109988823Y-67789091D01*
X109988823Y-67122424D01*
X109971276Y-67074215D01*
X109926847Y-67048563D01*
X109876323Y-67057472D01*
X109843346Y-67096772D01*
X109842282Y-67102801D01*
X109747364Y-67055342D01*
X109742910Y-67054829D01*
X109739475Y-67051947D01*
X109713823Y-67047424D01*
X109513823Y-67047424D01*
X109509609Y-67048957D01*
X109505248Y-67047916D01*
X109480282Y-67055342D01*
X109346949Y-67122009D01*
X109339228Y-67130163D01*
X109328926Y-67134629D01*
X109313408Y-67155550D01*
X109246741Y-67288883D01*
X109246228Y-67293336D01*
X109243346Y-67296772D01*
X109238823Y-67322424D01*
X109238823Y-68055757D01*
X108614424Y-68055757D01*
X108621749Y-68048019D01*
X108632055Y-68043553D01*
X108647572Y-68022632D01*
X108714238Y-67889298D01*
X108714750Y-67884844D01*
X108717633Y-67881409D01*
X108722156Y-67855757D01*
X108722156Y-67197424D01*
X108847156Y-67197424D01*
X108895365Y-67179877D01*
X108921017Y-67135448D01*
X108912108Y-67084924D01*
X108872808Y-67051947D01*
X108847156Y-67047424D01*
X108722156Y-67047424D01*
X108722156Y-66655757D01*
X108717416Y-66642733D01*
X112506630Y-66642733D01*
X112515539Y-66693257D01*
X112554839Y-66726234D01*
X112580491Y-66730757D01*
X113172157Y-66730757D01*
X113172157Y-67247424D01*
X112780491Y-67247424D01*
X112732282Y-67264971D01*
X112706630Y-67309400D01*
X112715539Y-67359924D01*
X112754839Y-67392901D01*
X112780491Y-67397424D01*
X113172157Y-67397424D01*
X113172157Y-68055757D01*
X113189704Y-68103966D01*
X113234133Y-68129618D01*
X113284657Y-68120709D01*
X113317634Y-68081409D01*
X113322157Y-68055757D01*
X114905491Y-68055757D01*
X114923038Y-68103966D01*
X114967467Y-68129618D01*
X115017991Y-68120709D01*
X115035142Y-68100268D01*
X115080284Y-68122839D01*
X115084737Y-68123351D01*
X115088173Y-68126234D01*
X115113825Y-68130757D01*
X115380491Y-68130757D01*
X115384703Y-68129223D01*
X115389065Y-68130266D01*
X115414032Y-68122839D01*
X115547365Y-68056173D01*
X115547759Y-68055757D01*
X116172158Y-68055757D01*
X116189705Y-68103966D01*
X116234134Y-68129618D01*
X116284658Y-68120709D01*
X116317635Y-68081409D01*
X116322158Y-68055757D01*
X116322158Y-67340129D01*
X116369726Y-67244992D01*
X116464863Y-67197424D01*
X116629453Y-67197424D01*
X116736065Y-67250730D01*
X116772158Y-67286823D01*
X116772158Y-68055757D01*
X116789705Y-68103966D01*
X116834134Y-68129618D01*
X116884658Y-68120709D01*
X116917635Y-68081409D01*
X116922158Y-68055757D01*
X117438825Y-68055757D01*
X117456372Y-68103966D01*
X117500801Y-68129618D01*
X117551325Y-68120709D01*
X117568476Y-68100268D01*
X117613618Y-68122839D01*
X117618071Y-68123351D01*
X117621507Y-68126234D01*
X117647159Y-68130757D01*
X117980492Y-68130757D01*
X117984705Y-68129223D01*
X117989066Y-68130265D01*
X118014033Y-68122839D01*
X118147366Y-68056173D01*
X118147760Y-68055757D01*
X118705492Y-68055757D01*
X118723039Y-68103966D01*
X118767468Y-68129618D01*
X118817992Y-68120709D01*
X118850969Y-68081409D01*
X118855492Y-68055757D01*
X118855492Y-67397424D01*
X119505492Y-67397424D01*
X119505492Y-68055757D01*
X119523039Y-68103966D01*
X119567468Y-68129618D01*
X119617992Y-68120709D01*
X119650969Y-68081409D01*
X119655492Y-68055757D01*
X119655492Y-68042733D01*
X121039965Y-68042733D01*
X121048874Y-68093257D01*
X121088174Y-68126234D01*
X121113826Y-68130757D01*
X121247159Y-68130757D01*
X121251371Y-68129223D01*
X121255733Y-68130266D01*
X121280700Y-68122839D01*
X121414033Y-68056173D01*
X121414427Y-68055757D01*
X122038826Y-68055757D01*
X122056373Y-68103966D01*
X122100802Y-68129618D01*
X122151326Y-68120709D01*
X122184303Y-68081409D01*
X122188826Y-68055757D01*
X122188826Y-67340129D01*
X122236394Y-67244992D01*
X122331531Y-67197424D01*
X122496121Y-67197424D01*
X122602732Y-67250730D01*
X122638825Y-67286822D01*
X122638826Y-68055757D01*
X122656373Y-68103966D01*
X122700802Y-68129618D01*
X122751326Y-68120709D01*
X122784303Y-68081409D01*
X122788826Y-68055757D01*
X122788826Y-66715888D01*
X124505780Y-66715888D01*
X124510822Y-66734707D01*
X124512520Y-66754120D01*
X124518194Y-66762223D01*
X124519057Y-66765443D01*
X124521787Y-66767354D01*
X124527461Y-66775457D01*
X124594127Y-66842124D01*
X124611786Y-66850359D01*
X124627749Y-66861536D01*
X124631165Y-66861237D01*
X124634136Y-66862952D01*
X124637514Y-66862356D01*
X124640623Y-66863806D01*
X124659448Y-66858762D01*
X124678856Y-66857064D01*
X124682669Y-66854394D01*
X124684660Y-66854043D01*
X124686781Y-66851514D01*
X124686956Y-66851392D01*
X124690178Y-66850529D01*
X124692091Y-66847796D01*
X124700193Y-66842124D01*
X124766860Y-66775457D01*
X124775095Y-66757796D01*
X124786271Y-66741835D01*
X124785681Y-66735093D01*
X124788541Y-66728961D01*
X124783498Y-66710139D01*
X124781800Y-66690728D01*
X124776126Y-66682625D01*
X124775264Y-66679406D01*
X124772534Y-66677494D01*
X124766860Y-66669391D01*
X124700193Y-66602724D01*
X124682537Y-66594491D01*
X124666571Y-66583312D01*
X124663154Y-66583610D01*
X124660184Y-66581896D01*
X124656803Y-66582492D01*
X124653696Y-66581043D01*
X124634876Y-66586085D01*
X124615464Y-66587784D01*
X124611650Y-66590453D01*
X124609660Y-66590805D01*
X124607538Y-66593333D01*
X124607361Y-66593457D01*
X124604142Y-66594320D01*
X124602230Y-66597050D01*
X124594127Y-66602724D01*
X124527461Y-66669391D01*
X124519227Y-66687049D01*
X124508050Y-66703012D01*
X124508639Y-66709754D01*
X124505780Y-66715888D01*
X122788826Y-66715888D01*
X122788826Y-66655757D01*
X122771279Y-66607548D01*
X122726850Y-66581896D01*
X122676326Y-66590805D01*
X122643349Y-66630105D01*
X122638826Y-66655757D01*
X122638826Y-67101071D01*
X122547367Y-67055342D01*
X122542913Y-67054829D01*
X122539478Y-67051947D01*
X122513826Y-67047424D01*
X122313826Y-67047424D01*
X122309612Y-67048957D01*
X122305251Y-67047916D01*
X122280285Y-67055342D01*
X122146952Y-67122009D01*
X122139231Y-67130163D01*
X122128929Y-67134629D01*
X122113411Y-67155550D01*
X122046744Y-67288883D01*
X122046231Y-67293336D01*
X122043349Y-67296772D01*
X122038826Y-67322424D01*
X122038826Y-68055757D01*
X121414427Y-68055757D01*
X121421752Y-68048019D01*
X121432058Y-68043553D01*
X121447575Y-68022632D01*
X121514241Y-67889298D01*
X121514753Y-67884844D01*
X121517636Y-67881409D01*
X121522159Y-67855757D01*
X121522159Y-67197424D01*
X121647159Y-67197424D01*
X121695368Y-67179877D01*
X121721020Y-67135448D01*
X121712111Y-67084924D01*
X121672811Y-67051947D01*
X121647159Y-67047424D01*
X121522159Y-67047424D01*
X121522159Y-66655757D01*
X121504612Y-66607548D01*
X121460183Y-66581896D01*
X121409659Y-66590805D01*
X121376682Y-66630105D01*
X121372159Y-66655757D01*
X121372159Y-67047424D01*
X121113826Y-67047424D01*
X121065617Y-67064971D01*
X121039965Y-67109400D01*
X121048874Y-67159924D01*
X121088174Y-67192901D01*
X121113826Y-67197424D01*
X121372159Y-67197424D01*
X121372159Y-67838053D01*
X121324591Y-67933189D01*
X121229454Y-67980757D01*
X121113826Y-67980757D01*
X121065617Y-67998304D01*
X121039965Y-68042733D01*
X119655492Y-68042733D01*
X119655492Y-66655757D01*
X119637945Y-66607548D01*
X119593516Y-66581896D01*
X119542992Y-66590805D01*
X119510015Y-66630105D01*
X119505492Y-66655757D01*
X119505492Y-67247424D01*
X118855492Y-67247424D01*
X118855492Y-66655757D01*
X118837945Y-66607548D01*
X118793516Y-66581896D01*
X118742992Y-66590805D01*
X118710015Y-66630105D01*
X118705492Y-66655757D01*
X118705492Y-68055757D01*
X118147760Y-68055757D01*
X118155085Y-68048019D01*
X118165390Y-68043553D01*
X118180907Y-68022632D01*
X118247574Y-67889298D01*
X118248086Y-67884844D01*
X118250969Y-67881409D01*
X118255492Y-67855757D01*
X118255492Y-67722424D01*
X118253958Y-67718210D01*
X118255000Y-67713849D01*
X118247574Y-67688883D01*
X118180907Y-67555550D01*
X118172752Y-67547829D01*
X118168287Y-67537527D01*
X118147366Y-67522009D01*
X118014033Y-67455342D01*
X118009579Y-67454829D01*
X118006144Y-67451947D01*
X117980492Y-67447424D01*
X117664864Y-67447424D01*
X117588825Y-67409404D01*
X117588825Y-67340129D01*
X117636393Y-67244992D01*
X117731530Y-67197424D01*
X117962787Y-67197424D01*
X118080284Y-67256173D01*
X118131250Y-67262038D01*
X118174064Y-67233772D01*
X118188690Y-67184598D01*
X118168287Y-67137527D01*
X118147366Y-67122009D01*
X118014033Y-67055342D01*
X118009579Y-67054829D01*
X118006144Y-67051947D01*
X117980492Y-67047424D01*
X117713825Y-67047424D01*
X117709611Y-67048957D01*
X117705250Y-67047916D01*
X117680284Y-67055342D01*
X117546951Y-67122009D01*
X117539230Y-67130163D01*
X117528928Y-67134629D01*
X117513410Y-67155550D01*
X117446743Y-67288883D01*
X117446230Y-67293336D01*
X117443348Y-67296772D01*
X117438825Y-67322424D01*
X117438825Y-68055757D01*
X116922158Y-68055757D01*
X116922158Y-67122424D01*
X116904611Y-67074215D01*
X116860182Y-67048563D01*
X116809658Y-67057472D01*
X116776681Y-67096772D01*
X116775617Y-67102801D01*
X116680699Y-67055342D01*
X116676245Y-67054829D01*
X116672810Y-67051947D01*
X116647158Y-67047424D01*
X116447158Y-67047424D01*
X116442944Y-67048957D01*
X116438583Y-67047916D01*
X116413617Y-67055342D01*
X116280284Y-67122009D01*
X116272563Y-67130163D01*
X116262261Y-67134629D01*
X116246743Y-67155550D01*
X116180076Y-67288883D01*
X116179563Y-67293336D01*
X116176681Y-67296772D01*
X116172158Y-67322424D01*
X116172158Y-68055757D01*
X115547759Y-68055757D01*
X115548487Y-68054987D01*
X115566858Y-68042124D01*
X115633525Y-67975456D01*
X115634217Y-67973970D01*
X115647573Y-67955965D01*
X115714240Y-67822632D01*
X115714752Y-67818178D01*
X115717635Y-67814743D01*
X115722158Y-67789091D01*
X115722158Y-67389091D01*
X115720624Y-67384877D01*
X115721666Y-67380517D01*
X115714240Y-67355550D01*
X115647573Y-67222216D01*
X115646383Y-67221090D01*
X115633524Y-67202724D01*
X115566858Y-67136058D01*
X115565376Y-67135367D01*
X115547366Y-67122009D01*
X115414032Y-67055342D01*
X115409578Y-67054829D01*
X115406143Y-67051947D01*
X115380491Y-67047424D01*
X115113825Y-67047424D01*
X115109611Y-67048957D01*
X115105251Y-67047916D01*
X115080284Y-67055342D01*
X115055491Y-67067738D01*
X115055491Y-66655757D01*
X115037944Y-66607548D01*
X114993515Y-66581896D01*
X114942991Y-66590805D01*
X114910014Y-66630105D01*
X114905491Y-66655757D01*
X114905491Y-68055757D01*
X113322157Y-68055757D01*
X113322157Y-66655757D01*
X113315493Y-66637448D01*
X113312109Y-66618257D01*
X113306924Y-66613906D01*
X113304610Y-66607548D01*
X113287736Y-66597805D01*
X113272809Y-66585280D01*
X113263066Y-66583562D01*
X113260181Y-66581896D01*
X113256898Y-66582474D01*
X113247157Y-66580757D01*
X112580491Y-66580757D01*
X112532282Y-66598304D01*
X112506630Y-66642733D01*
X108717416Y-66642733D01*
X108704609Y-66607548D01*
X108660180Y-66581896D01*
X108609656Y-66590805D01*
X108576679Y-66630105D01*
X108572156Y-66655757D01*
X108572156Y-67047424D01*
X108313823Y-67047424D01*
X108265614Y-67064971D01*
X108239962Y-67109400D01*
X108248871Y-67159924D01*
X108288171Y-67192901D01*
X108313823Y-67197424D01*
X108572156Y-67197424D01*
X108572156Y-67838053D01*
X108524588Y-67933189D01*
X108429451Y-67980757D01*
X108313823Y-67980757D01*
X108265614Y-67998304D01*
X108239962Y-68042733D01*
X108039962Y-68042733D01*
X108039962Y-66380757D01*
X126322160Y-66380757D01*
X126322160Y-68797424D01*
G37*
%TO.C,T1*%
X169480487Y-36375888D02*
X169480487Y-39225888D01*
X169480487Y-39225888D02*
X176080487Y-39225888D01*
X172780487Y-36375888D02*
X169480487Y-36375888D01*
X172780487Y-36375888D02*
X176080487Y-36375888D01*
X174730487Y-36375888D02*
X170830487Y-36375888D01*
X176080487Y-39225888D02*
X176080487Y-36375888D01*
D11*
%TO.C,D14*%
X152226680Y-123915110D02*
X152613050Y-124018637D01*
X152613050Y-124018637D02*
X152755400Y-123487378D01*
X152613050Y-124018637D02*
X152470699Y-124549897D01*
X152613050Y-124018637D02*
X153296133Y-123787558D01*
X153296133Y-123787558D02*
X153089078Y-124560299D01*
X153192605Y-124173929D02*
X153675568Y-124303338D01*
X153089078Y-124560299D02*
X152613050Y-124018637D01*
%TO.C,D26*%
X152530493Y-90825897D02*
X152930493Y-90825897D01*
X152930493Y-90825897D02*
X152930493Y-90275897D01*
X152930493Y-90825897D02*
X152930493Y-91375897D01*
X152930493Y-90825897D02*
X153530493Y-90425897D01*
X153530493Y-90425897D02*
X153530493Y-91225897D01*
X153530493Y-90825897D02*
X154030493Y-90825897D01*
X153530493Y-91225897D02*
X152930493Y-90825897D01*
D10*
%TO.C,S16*%
X124280496Y-60415899D02*
X124280496Y-61415899D01*
X124280496Y-47415899D02*
X124280496Y-48415899D01*
X124280496Y-47415899D02*
X123280496Y-47415899D01*
X123280496Y-61415899D02*
X124280496Y-61415899D01*
X111280496Y-47415899D02*
X110280496Y-47415899D01*
X110280496Y-61415899D02*
X111280496Y-61415899D01*
X110280496Y-61415899D02*
X110280496Y-60415899D01*
X110280496Y-48415899D02*
X110280496Y-47415899D01*
D12*
%TO.C,REF\u002A\u002A*%
X163130508Y-89125886D02*
X163130508Y-102925886D01*
X163130508Y-102925886D02*
X179930508Y-102925886D01*
X179930508Y-89125886D02*
X163130508Y-89125886D01*
X179930508Y-102925886D02*
X179930508Y-89125886D01*
D11*
%TO.C,D6*%
X116530492Y-114415887D02*
X116930492Y-114415887D01*
X116930492Y-114415887D02*
X116930492Y-113865887D01*
X116930492Y-114415887D02*
X116930492Y-114965887D01*
X116930492Y-114415887D02*
X117530492Y-114015887D01*
X117530492Y-114015887D02*
X117530492Y-114815887D01*
X117530492Y-114415887D02*
X118030492Y-114415887D01*
X117530492Y-114815887D02*
X116930492Y-114415887D01*
%TO.C,D13*%
X152530493Y-54525895D02*
X152930493Y-54525895D01*
X152930493Y-54525895D02*
X152930493Y-53975895D01*
X152930493Y-54525895D02*
X152930493Y-55075895D01*
X152930493Y-54525895D02*
X153530493Y-54125895D01*
X153530493Y-54125895D02*
X153530493Y-54925895D01*
X153530493Y-54525895D02*
X154030493Y-54525895D01*
X153530493Y-54925895D02*
X152930493Y-54525895D01*
%TO.C,D19*%
X77335251Y-67322689D02*
X77733729Y-67287827D01*
X77733729Y-67287827D02*
X77685793Y-66739919D01*
X77733729Y-67287827D02*
X77781665Y-67835734D01*
X77733729Y-67287827D02*
X78296583Y-66837055D01*
X78296583Y-66837055D02*
X78366308Y-67634011D01*
X78331446Y-67235533D02*
X78829543Y-67191955D01*
X78366308Y-67634011D02*
X77733729Y-67287827D01*
D10*
%TO.C,S1*%
X51694119Y-98375616D02*
X51781275Y-99371811D01*
X50561095Y-85425085D02*
X50648250Y-86421280D01*
X50561095Y-85425085D02*
X49564900Y-85512241D01*
X50785080Y-99458966D02*
X51781275Y-99371811D01*
X37610564Y-86558110D02*
X36614369Y-86645265D01*
X37834549Y-100591991D02*
X38830744Y-100504835D01*
X37834549Y-100591991D02*
X37747394Y-99595796D01*
X36701525Y-87641460D02*
X36614369Y-86645265D01*
D11*
%TO.C,D23*%
X116530494Y-48715883D02*
X116930494Y-48715883D01*
X116930494Y-48715883D02*
X116930494Y-48165883D01*
X116930494Y-48715883D02*
X116930494Y-49265883D01*
X116930494Y-48715883D02*
X117530494Y-48315883D01*
X117530494Y-48315883D02*
X117530494Y-49115883D01*
X117530494Y-48715883D02*
X118030494Y-48715883D01*
X117530494Y-49115883D02*
X116930494Y-48715883D01*
%TO.C,D24*%
X134530488Y-88325890D02*
X134930488Y-88325890D01*
X134930488Y-88325890D02*
X134930488Y-87775890D01*
X134930488Y-88325890D02*
X134930488Y-88875890D01*
X134930488Y-88325890D02*
X135530488Y-87925890D01*
X135530488Y-87925890D02*
X135530488Y-88725890D01*
X135530488Y-88325890D02*
X136030488Y-88325890D01*
X135530488Y-88725890D02*
X134930488Y-88325890D01*
D10*
%TO.C,S4*%
X68143980Y-79871506D02*
X68231136Y-80867701D01*
X67010956Y-66920975D02*
X67098111Y-67917170D01*
X67010956Y-66920975D02*
X66014761Y-67008131D01*
X67234941Y-80954856D02*
X68231136Y-80867701D01*
X54060425Y-68054000D02*
X53064230Y-68141155D01*
X54284410Y-82087881D02*
X55280605Y-82000725D01*
X54284410Y-82087881D02*
X54197255Y-81091686D01*
X53151386Y-69137350D02*
X53064230Y-68141155D01*
D11*
%TO.C,D7*%
X116530496Y-80415891D02*
X116930496Y-80415891D01*
X116930496Y-80415891D02*
X116930496Y-79865891D01*
X116930496Y-80415891D02*
X116930496Y-80965891D01*
X116930496Y-80415891D02*
X117530496Y-80015891D01*
X117530496Y-80015891D02*
X117530496Y-80815891D01*
X117530496Y-80415891D02*
X118030496Y-80415891D01*
X117530496Y-80815891D02*
X116930496Y-80415891D01*
%TO.C,D27*%
X152530495Y-56825893D02*
X152930495Y-56825893D01*
X152930495Y-56825893D02*
X152930495Y-56275893D01*
X152930495Y-56825893D02*
X152930495Y-57375893D01*
X152930495Y-56825893D02*
X153530495Y-56425893D01*
X153530495Y-56425893D02*
X153530495Y-57225893D01*
X153530495Y-56825893D02*
X154030495Y-56825893D01*
X153530495Y-57225893D02*
X152930495Y-56825893D01*
%TO.C,D1*%
X62166580Y-100470863D02*
X62565058Y-100436001D01*
X62565058Y-100436001D02*
X62517122Y-99888093D01*
X62565058Y-100436001D02*
X62612994Y-100983908D01*
X62565058Y-100436001D02*
X63127912Y-99985229D01*
X63127912Y-99985229D02*
X63197637Y-100782185D01*
X63162775Y-100383707D02*
X63660872Y-100340129D01*
X63197637Y-100782185D02*
X62565058Y-100436001D01*
D10*
%TO.C,S6*%
X87557117Y-95238031D02*
X87644273Y-96234226D01*
X86424093Y-82287500D02*
X86511248Y-83283695D01*
X86424093Y-82287500D02*
X85427898Y-82374656D01*
X86648078Y-96321381D02*
X87644273Y-96234226D01*
X73473562Y-83420525D02*
X72477367Y-83507680D01*
X73697547Y-97454406D02*
X74693742Y-97367250D01*
X73697547Y-97454406D02*
X73610392Y-96458211D01*
X72564523Y-84503875D02*
X72477367Y-83507680D01*
%TO.C,S21*%
X142280498Y-66025885D02*
X142280498Y-67025885D01*
X142280498Y-53025885D02*
X142280498Y-54025885D01*
X142280498Y-53025885D02*
X141280498Y-53025885D01*
X141280498Y-67025885D02*
X142280498Y-67025885D01*
X129280498Y-53025885D02*
X128280498Y-53025885D01*
X128280498Y-67025885D02*
X129280498Y-67025885D01*
X128280498Y-67025885D02*
X128280498Y-66025885D01*
X128280498Y-54025885D02*
X128280498Y-53025885D01*
%TO.C,S12*%
X106280493Y-49025891D02*
X106280493Y-50025891D01*
X106280493Y-36025891D02*
X106280493Y-37025891D01*
X106280493Y-36025891D02*
X105280493Y-36025891D01*
X105280493Y-50025891D02*
X106280493Y-50025891D01*
X93280493Y-36025891D02*
X92280493Y-36025891D01*
X92280493Y-50025891D02*
X93280493Y-50025891D01*
X92280493Y-50025891D02*
X92280493Y-49025891D01*
X92280493Y-37025891D02*
X92280493Y-36025891D01*
D11*
%TO.C,D3*%
X77134785Y-65031435D02*
X77533263Y-64996573D01*
X77533263Y-64996573D02*
X77485327Y-64448665D01*
X77533263Y-64996573D02*
X77581199Y-65544480D01*
X77533263Y-64996573D02*
X78096117Y-64545801D01*
X78096117Y-64545801D02*
X78165842Y-65342757D01*
X78130980Y-64944279D02*
X78629077Y-64900701D01*
X78165842Y-65342757D02*
X77533263Y-64996573D01*
D10*
%TO.C,S18*%
X142280498Y-117025891D02*
X142280498Y-118025891D01*
X142280498Y-104025891D02*
X142280498Y-105025891D01*
X142280498Y-104025891D02*
X141280498Y-104025891D01*
X141280498Y-118025891D02*
X142280498Y-118025891D01*
X129280498Y-104025891D02*
X128280498Y-104025891D01*
X128280498Y-118025891D02*
X129280498Y-118025891D01*
X128280498Y-118025891D02*
X128280498Y-117025891D01*
X128280498Y-105025891D02*
X128280498Y-104025891D01*
%TO.C,S9*%
X106280497Y-100025882D02*
X106280497Y-101025882D01*
X106280497Y-87025882D02*
X106280497Y-88025882D01*
X106280497Y-87025882D02*
X105280497Y-87025882D01*
X105280497Y-101025882D02*
X106280497Y-101025882D01*
X93280497Y-87025882D02*
X92280497Y-87025882D01*
X92280497Y-101025882D02*
X93280497Y-101025882D01*
X92280497Y-101025882D02*
X92280497Y-100025882D01*
X92280497Y-88025882D02*
X92280497Y-87025882D01*
D11*
%TO.C,D18*%
X80298546Y-101193313D02*
X80697024Y-101158451D01*
X80697024Y-101158451D02*
X80649088Y-100610543D01*
X80697024Y-101158451D02*
X80744960Y-101706358D01*
X80697024Y-101158451D02*
X81259878Y-100707679D01*
X81259878Y-100707679D02*
X81329603Y-101504635D01*
X81294741Y-101106157D02*
X81792838Y-101062579D01*
X81329603Y-101504635D02*
X80697024Y-101158451D01*
D10*
%TO.C,S8*%
X84593829Y-61367399D02*
X84680985Y-62363594D01*
X83460805Y-48416868D02*
X83547960Y-49413063D01*
X83460805Y-48416868D02*
X82464610Y-48504024D01*
X83684790Y-62450749D02*
X84680985Y-62363594D01*
X70510274Y-49549893D02*
X69514079Y-49637048D01*
X70734259Y-63583774D02*
X71730454Y-63496618D01*
X70734259Y-63583774D02*
X70647104Y-62587579D01*
X69601235Y-50633243D02*
X69514079Y-49637048D01*
D11*
%TO.C,D2*%
X80098082Y-98902060D02*
X80496560Y-98867198D01*
X80496560Y-98867198D02*
X80448624Y-98319290D01*
X80496560Y-98867198D02*
X80544496Y-99415105D01*
X80496560Y-98867198D02*
X81059414Y-98416426D01*
X81059414Y-98416426D02*
X81129139Y-99213382D01*
X81094277Y-98814904D02*
X81592374Y-98771326D01*
X81129139Y-99213382D02*
X80496560Y-98867198D01*
%TO.C,D12*%
X152530504Y-88525880D02*
X152930504Y-88525880D01*
X152930504Y-88525880D02*
X152930504Y-87975880D01*
X152930504Y-88525880D02*
X152930504Y-89075880D01*
X152930504Y-88525880D02*
X153530504Y-88125880D01*
X153530504Y-88125880D02*
X153530504Y-88925880D01*
X153530504Y-88525880D02*
X154030504Y-88525880D01*
X153530504Y-88925880D02*
X152930504Y-88525880D01*
D10*
%TO.C,S5*%
X89038765Y-112173327D02*
X89125921Y-113169522D01*
X87905741Y-99222796D02*
X87992896Y-100218991D01*
X87905741Y-99222796D02*
X86909546Y-99309952D01*
X88129726Y-113256677D02*
X89125921Y-113169522D01*
X74955210Y-100355821D02*
X73959015Y-100442976D01*
X75179195Y-114389702D02*
X76175390Y-114302546D01*
X75179195Y-114389702D02*
X75092040Y-113393507D01*
X74046171Y-101439171D02*
X73959015Y-100442976D01*
D11*
%TO.C,D17*%
X59403744Y-68891482D02*
X59802222Y-68856620D01*
X59802222Y-68856620D02*
X59754286Y-68308712D01*
X59802222Y-68856620D02*
X59850158Y-69404527D01*
X59802222Y-68856620D02*
X60365076Y-68405848D01*
X60365076Y-68405848D02*
X60434801Y-69202804D01*
X60399939Y-68804326D02*
X60898036Y-68760748D01*
X60434801Y-69202804D02*
X59802222Y-68856620D01*
D10*
%TO.C,S13*%
X124280488Y-111415884D02*
X124280488Y-112415884D01*
X124280488Y-98415884D02*
X124280488Y-99415884D01*
X124280488Y-98415884D02*
X123280488Y-98415884D01*
X123280488Y-112415884D02*
X124280488Y-112415884D01*
X111280488Y-98415884D02*
X110280488Y-98415884D01*
X110280488Y-112415884D02*
X111280488Y-112415884D01*
X110280488Y-112415884D02*
X110280488Y-111415884D01*
X110280488Y-99415884D02*
X110280488Y-98415884D01*
D11*
%TO.C,D16*%
X62367041Y-102762108D02*
X62765519Y-102727246D01*
X62765519Y-102727246D02*
X62717583Y-102179338D01*
X62765519Y-102727246D02*
X62813455Y-103275153D01*
X62765519Y-102727246D02*
X63328373Y-102276474D01*
X63328373Y-102276474D02*
X63398098Y-103073430D01*
X63363236Y-102674952D02*
X63861333Y-102631374D01*
X63398098Y-103073430D02*
X62765519Y-102727246D01*
D10*
%TO.C,S10*%
X106280505Y-83025889D02*
X106280505Y-84025889D01*
X106280505Y-70025889D02*
X106280505Y-71025889D01*
X106280505Y-70025889D02*
X105280505Y-70025889D01*
X105280505Y-84025889D02*
X106280505Y-84025889D01*
X93280505Y-70025889D02*
X92280505Y-70025889D01*
X92280505Y-84025889D02*
X93280505Y-84025889D01*
X92280505Y-84025889D02*
X92280505Y-83025889D01*
X92280505Y-71025889D02*
X92280505Y-70025889D01*
%TO.C,S22*%
X142280507Y-49025887D02*
X142280507Y-50025887D01*
X142280507Y-36025887D02*
X142280507Y-37025887D01*
X142280507Y-36025887D02*
X141280507Y-36025887D01*
X141280507Y-50025887D02*
X142280507Y-50025887D01*
X129280507Y-36025887D02*
X128280507Y-36025887D01*
X128280507Y-50025887D02*
X129280507Y-50025887D01*
X128280507Y-50025887D02*
X128280507Y-49025887D01*
X128280507Y-37025887D02*
X128280507Y-36025887D01*
D11*
%TO.C,D15*%
X42953889Y-87395606D02*
X43352367Y-87360744D01*
X43352367Y-87360744D02*
X43304431Y-86812836D01*
X43352367Y-87360744D02*
X43400303Y-87908651D01*
X43352367Y-87360744D02*
X43915221Y-86909972D01*
X43915221Y-86909972D02*
X43984946Y-87706928D01*
X43950084Y-87308450D02*
X44448181Y-87264872D01*
X43984946Y-87706928D02*
X43352367Y-87360744D01*
%TO.C,D11*%
X134530489Y-52025889D02*
X134930489Y-52025889D01*
X134930489Y-52025889D02*
X134930489Y-51475889D01*
X134930489Y-52025889D02*
X134930489Y-52575889D01*
X134930489Y-52025889D02*
X135530489Y-51625889D01*
X135530489Y-51625889D02*
X135530489Y-52425889D01*
X135530489Y-52025889D02*
X136030489Y-52025889D01*
X135530489Y-52425889D02*
X134930489Y-52025889D01*
D10*
%TO.C,S2*%
X71107273Y-113742121D02*
X71194429Y-114738316D01*
X69974249Y-100791590D02*
X70061404Y-101787785D01*
X69974249Y-100791590D02*
X68978054Y-100878746D01*
X70198234Y-114825471D02*
X71194429Y-114738316D01*
X57023718Y-101924615D02*
X56027523Y-102011770D01*
X57247703Y-115958496D02*
X58243898Y-115871340D01*
X57247703Y-115958496D02*
X57160548Y-114962301D01*
X56114679Y-103007965D02*
X56027523Y-102011770D01*
%TO.C,S11*%
X106280498Y-66025887D02*
X106280498Y-67025887D01*
X106280498Y-53025887D02*
X106280498Y-54025887D01*
X106280498Y-53025887D02*
X105280498Y-53025887D01*
X105280498Y-67025887D02*
X106280498Y-67025887D01*
X93280498Y-53025887D02*
X92280498Y-53025887D01*
X92280498Y-67025887D02*
X93280498Y-67025887D01*
X92280498Y-67025887D02*
X92280498Y-66025887D01*
X92280498Y-54025887D02*
X92280498Y-53025887D01*
%TO.C,S7*%
X86075487Y-78302699D02*
X86162643Y-79298894D01*
X84942463Y-65352168D02*
X85029618Y-66348363D01*
X84942463Y-65352168D02*
X83946268Y-65439324D01*
X85166448Y-79386049D02*
X86162643Y-79298894D01*
X71991932Y-66485193D02*
X70995737Y-66572348D01*
X72215917Y-80519074D02*
X73212112Y-80431918D01*
X72215917Y-80519074D02*
X72128762Y-79522879D01*
X71082893Y-67568543D02*
X70995737Y-66572348D01*
%TO.C,S17*%
X124280491Y-43415894D02*
X124280491Y-44415894D01*
X124280491Y-30415894D02*
X124280491Y-31415894D01*
X124280491Y-30415894D02*
X123280491Y-30415894D01*
X123280491Y-44415894D02*
X124280491Y-44415894D01*
X111280491Y-30415894D02*
X110280491Y-30415894D01*
X110280491Y-44415894D02*
X111280491Y-44415894D01*
X110280491Y-44415894D02*
X110280491Y-43415894D01*
X110280491Y-31415894D02*
X110280491Y-30415894D01*
%TO.C,S25*%
X160280498Y-68525880D02*
X160280498Y-69525880D01*
X160280498Y-55525880D02*
X160280498Y-56525880D01*
X160280498Y-55525880D02*
X159280498Y-55525880D01*
X159280498Y-69525880D02*
X160280498Y-69525880D01*
X147280498Y-55525880D02*
X146280498Y-55525880D01*
X146280498Y-69525880D02*
X147280498Y-69525880D01*
X146280498Y-69525880D02*
X146280498Y-68525880D01*
X146280498Y-56525880D02*
X146280498Y-55525880D01*
%TO.C,S28*%
X181461392Y-122842586D02*
X182327418Y-123342586D01*
X170203062Y-116342586D02*
X171069088Y-116842586D01*
X170203062Y-116342586D02*
X169703062Y-117208612D01*
X181827418Y-124208612D02*
X182327418Y-123342586D01*
X163703062Y-127600916D02*
X163203062Y-128466942D01*
X175327418Y-135466942D02*
X175827418Y-134600916D01*
X175327418Y-135466942D02*
X174461392Y-134966942D01*
X164069088Y-128966942D02*
X163203062Y-128466942D01*
%TO.C,S19*%
X142280496Y-100025885D02*
X142280496Y-101025885D01*
X142280496Y-87025885D02*
X142280496Y-88025885D01*
X142280496Y-87025885D02*
X141280496Y-87025885D01*
X141280496Y-101025885D02*
X142280496Y-101025885D01*
X129280496Y-87025885D02*
X128280496Y-87025885D01*
X128280496Y-101025885D02*
X129280496Y-101025885D01*
X128280496Y-101025885D02*
X128280496Y-100025885D01*
X128280496Y-88025885D02*
X128280496Y-87025885D01*
%TO.C,_1*%
X175780505Y-83575885D02*
X169780505Y-83575885D01*
X175780505Y-83325885D02*
X175780505Y-83575885D01*
X175780505Y-80075885D02*
X175780505Y-80325885D01*
X169780505Y-83575885D02*
X169780505Y-83325885D01*
X169780505Y-80325885D02*
X169780505Y-80075885D01*
X169780505Y-80075885D02*
X175780505Y-80075885D01*
%TO.C,S15*%
X124280491Y-77415889D02*
X124280491Y-78415889D01*
X124280491Y-64415889D02*
X124280491Y-65415889D01*
X124280491Y-64415889D02*
X123280491Y-64415889D01*
X123280491Y-78415889D02*
X124280491Y-78415889D01*
X111280491Y-64415889D02*
X110280491Y-64415889D01*
X110280491Y-78415889D02*
X111280491Y-78415889D01*
X110280491Y-78415889D02*
X110280491Y-77415889D01*
X110280491Y-65415889D02*
X110280491Y-64415889D01*
%TO.C,S20*%
X142280491Y-83025890D02*
X142280491Y-84025890D01*
X142280491Y-70025890D02*
X142280491Y-71025890D01*
X142280491Y-70025890D02*
X141280491Y-70025890D01*
X141280491Y-84025890D02*
X142280491Y-84025890D01*
X129280491Y-70025890D02*
X128280491Y-70025890D01*
X128280491Y-84025890D02*
X129280491Y-84025890D01*
X128280491Y-84025890D02*
X128280491Y-83025890D01*
X128280491Y-71025890D02*
X128280491Y-70025890D01*
%TO.C,S3*%
X69625623Y-96806810D02*
X69712779Y-97803005D01*
X68492599Y-83856279D02*
X68579754Y-84852474D01*
X68492599Y-83856279D02*
X67496404Y-83943435D01*
X68716584Y-97890160D02*
X69712779Y-97803005D01*
X55542068Y-84989304D02*
X54545873Y-85076459D01*
X55766053Y-99023185D02*
X56762248Y-98936029D01*
X55766053Y-99023185D02*
X55678898Y-98026990D01*
X54633029Y-86072654D02*
X54545873Y-85076459D01*
D11*
%TO.C,D28*%
X175387202Y-117863401D02*
X175733612Y-118063401D01*
X175733612Y-118063401D02*
X176008612Y-117587087D01*
X175733612Y-118063401D02*
X175458612Y-118539715D01*
X175733612Y-118063401D02*
X176453227Y-118016991D01*
X176453227Y-118016991D02*
X176053227Y-118709811D01*
X176253227Y-118363401D02*
X176686240Y-118613401D01*
X176053227Y-118709811D02*
X175733612Y-118063401D01*
%TO.C,D10*%
X134530504Y-86025886D02*
X134930504Y-86025886D01*
X134930504Y-86025886D02*
X134930504Y-85475886D01*
X134930504Y-86025886D02*
X134930504Y-86575886D01*
X134930504Y-86025886D02*
X135530504Y-85625886D01*
X135530504Y-85625886D02*
X135530504Y-86425886D01*
X135530504Y-86025886D02*
X136030504Y-86025886D01*
X135530504Y-86425886D02*
X134930504Y-86025886D01*
%TO.C,D29*%
X165780485Y-105525879D02*
X166180485Y-105525879D01*
X166180485Y-105525879D02*
X166180485Y-104975879D01*
X166180485Y-105525879D02*
X166180485Y-106075879D01*
X166180485Y-105525879D02*
X166780485Y-105125879D01*
X166780485Y-105125879D02*
X166780485Y-105925879D01*
X166780485Y-105525879D02*
X167280485Y-105525879D01*
X166780485Y-105925879D02*
X166180485Y-105525879D01*
D10*
%TO.C,S26*%
X160280492Y-51525890D02*
X160280492Y-52525890D01*
X160280492Y-38525890D02*
X160280492Y-39525890D01*
X160280492Y-38525890D02*
X159280492Y-38525890D01*
X159280492Y-52525890D02*
X160280492Y-52525890D01*
X147280492Y-38525890D02*
X146280492Y-38525890D01*
X146280492Y-52525890D02*
X147280492Y-52525890D01*
X146280492Y-52525890D02*
X146280492Y-51525890D01*
X146280492Y-39525890D02*
X146280492Y-38525890D01*
D11*
%TO.C,D5*%
X98530498Y-52025887D02*
X98930498Y-52025887D01*
X98930498Y-52025887D02*
X98930498Y-51475887D01*
X98930498Y-52025887D02*
X98930498Y-52575887D01*
X98930498Y-52025887D02*
X99530498Y-51625887D01*
X99530498Y-51625887D02*
X99530498Y-52425887D01*
X99530498Y-52025887D02*
X100030498Y-52025887D01*
X99530498Y-52425887D02*
X98930498Y-52025887D01*
%TO.C,D25*%
X134530489Y-54325891D02*
X134930489Y-54325891D01*
X134930489Y-54325891D02*
X134930489Y-53775891D01*
X134930489Y-54325891D02*
X134930489Y-54875891D01*
X134930489Y-54325891D02*
X135530489Y-53925891D01*
X135530489Y-53925891D02*
X135530489Y-54725891D01*
X135530489Y-54325891D02*
X136030489Y-54325891D01*
X135530489Y-54725891D02*
X134930489Y-54325891D01*
D10*
%TO.C,S27*%
X160489066Y-123023179D02*
X160230246Y-123989105D01*
X163853713Y-110466144D02*
X163594894Y-111432069D01*
X163853713Y-110466144D02*
X162887787Y-110207324D01*
X159264321Y-123730286D02*
X160230246Y-123989105D01*
X151296677Y-107101496D02*
X150330752Y-106842677D01*
X146707285Y-120365638D02*
X147673211Y-120624458D01*
X146707285Y-120365638D02*
X146966104Y-119399713D01*
X150071932Y-107808603D02*
X150330752Y-106842677D01*
D11*
%TO.C,D21*%
X98530499Y-54325891D02*
X98930499Y-54325891D01*
X98930499Y-54325891D02*
X98930499Y-53775891D01*
X98930499Y-54325891D02*
X98930499Y-54875891D01*
X98930499Y-54325891D02*
X99530499Y-53925891D01*
X99530499Y-53925891D02*
X99530499Y-54725891D01*
X99530499Y-54325891D02*
X100030499Y-54325891D01*
X99530499Y-54725891D02*
X98930499Y-54325891D01*
D10*
%TO.C,S14*%
X124280499Y-94415883D02*
X124280499Y-95415883D01*
X124280499Y-81415883D02*
X124280499Y-82415883D01*
X124280499Y-81415883D02*
X123280499Y-81415883D01*
X123280499Y-95415883D02*
X124280499Y-95415883D01*
X111280499Y-81415883D02*
X110280499Y-81415883D01*
X110280499Y-95415883D02*
X111280499Y-95415883D01*
X110280499Y-95415883D02*
X110280499Y-94415883D01*
X110280499Y-82415883D02*
X110280499Y-81415883D01*
%TO.C,S23*%
X160280494Y-102525887D02*
X160280494Y-103525887D01*
X160280494Y-89525887D02*
X160280494Y-90525887D01*
X160280494Y-89525887D02*
X159280494Y-89525887D01*
X159280494Y-103525887D02*
X160280494Y-103525887D01*
X147280494Y-89525887D02*
X146280494Y-89525887D01*
X146280494Y-103525887D02*
X147280494Y-103525887D01*
X146280494Y-103525887D02*
X146280494Y-102525887D01*
X146280494Y-90525887D02*
X146280494Y-89525887D01*
D11*
%TO.C,D20*%
X98530488Y-88325890D02*
X98930488Y-88325890D01*
X98930488Y-88325890D02*
X98930488Y-87775890D01*
X98930488Y-88325890D02*
X98930488Y-88875890D01*
X98930488Y-88325890D02*
X99530488Y-87925890D01*
X99530488Y-87925890D02*
X99530488Y-88725890D01*
X99530488Y-88325890D02*
X100030488Y-88325890D01*
X99530488Y-88725890D02*
X98930488Y-88325890D01*
%TO.C,D9*%
X134530498Y-120025891D02*
X134930498Y-120025891D01*
X134930498Y-120025891D02*
X134930498Y-119475891D01*
X134930498Y-120025891D02*
X134930498Y-120575891D01*
X134930498Y-120025891D02*
X135530498Y-119625891D01*
X135530498Y-119625891D02*
X135530498Y-120425891D01*
X135530498Y-120025891D02*
X136030498Y-120025891D01*
X135530498Y-120425891D02*
X134930498Y-120025891D01*
D10*
%TO.C,S20*%
X160282680Y-85522957D02*
X160282680Y-86522957D01*
X160282680Y-72522957D02*
X160282680Y-73522957D01*
X160282680Y-72522957D02*
X159282680Y-72522957D01*
X159282680Y-86522957D02*
X160282680Y-86522957D01*
X147282680Y-72522957D02*
X146282680Y-72522957D01*
X146282680Y-86522957D02*
X147282680Y-86522957D01*
X146282680Y-86522957D02*
X146282680Y-85522957D01*
X146282680Y-73522957D02*
X146282680Y-72522957D01*
D11*
%TO.C,D8*%
X116530497Y-46415892D02*
X116930497Y-46415892D01*
X116930497Y-46415892D02*
X116930497Y-45865892D01*
X116930497Y-46415892D02*
X116930497Y-46965892D01*
X116930497Y-46415892D02*
X117530497Y-46015892D01*
X117530497Y-46015892D02*
X117530497Y-46815892D01*
X117530497Y-46415892D02*
X118030497Y-46415892D01*
X117530497Y-46815892D02*
X116930497Y-46415892D01*
%TO.C,D4*%
X98530499Y-86025901D02*
X98930499Y-86025901D01*
X98930499Y-86025901D02*
X98930499Y-85475901D01*
X98930499Y-86025901D02*
X98930499Y-86575901D01*
X98930499Y-86025901D02*
X99530499Y-85625901D01*
X99530499Y-85625901D02*
X99530499Y-86425901D01*
X99530499Y-86025901D02*
X100030499Y-86025901D01*
X99530499Y-86425901D02*
X98930499Y-86025901D01*
%TO.C,D22*%
X116530498Y-82715890D02*
X116930498Y-82715890D01*
X116930498Y-82715890D02*
X116930498Y-82165890D01*
X116930498Y-82715890D02*
X116930498Y-83265890D01*
X116930498Y-82715890D02*
X117530498Y-82315890D01*
X117530498Y-82315890D02*
X117530498Y-83115890D01*
X117530498Y-82715890D02*
X118030498Y-82715890D01*
X117530498Y-83115890D02*
X116930498Y-82715890D01*
%TD*%
D13*
%TO.C,*%
X165030501Y-37825884D03*
D14*
X180530501Y-37825884D03*
%TD*%
D15*
%TO.C,MCU1*%
X165160499Y-40855891D03*
X165160499Y-43395891D03*
X165160499Y-45935891D03*
X165160499Y-48475891D03*
X165160499Y-51015891D03*
X165160499Y-53555891D03*
X165160499Y-56095891D03*
X165160499Y-58635891D03*
X165160499Y-61175891D03*
X165160499Y-63715891D03*
X165160499Y-66255891D03*
X165160499Y-68795891D03*
X180400499Y-40855891D03*
X180400499Y-43395891D03*
X180400499Y-45935891D03*
X180400499Y-48475891D03*
X180400499Y-51015891D03*
X180400499Y-53555891D03*
X180400499Y-56095891D03*
X180400499Y-58635891D03*
X180400499Y-61175891D03*
X180400499Y-63715891D03*
X180400499Y-66255891D03*
X180400499Y-68795891D03*
%TD*%
%LPC*%
D16*
%TO.C,T1*%
X169080487Y-36625888D03*
X169080487Y-38825888D03*
D17*
X171280487Y-37725888D03*
X174280487Y-37725888D03*
D16*
X176480487Y-36625888D03*
X176480487Y-38825888D03*
D18*
X170530487Y-39800888D03*
X173530487Y-39800888D03*
X175030487Y-39800888D03*
%TD*%
D19*
%TO.C,D14*%
X151357346Y-123682173D03*
D20*
X152226680Y-123915110D03*
X153675568Y-124303338D03*
D19*
X154544902Y-124536275D03*
%TD*%
D21*
%TO.C,D26*%
X151630493Y-90825897D03*
D20*
X152530493Y-90825897D03*
X154030493Y-90825897D03*
D21*
X154930493Y-90825897D03*
%TD*%
D22*
%TO.C,J2*%
X168022501Y-95255901D03*
D23*
X169038501Y-95255901D03*
%TD*%
D24*
%TO.C,S16*%
X122780496Y-54415899D03*
D25*
X122280496Y-58165899D03*
X117280496Y-60365899D03*
X117280496Y-60365899D03*
D26*
X117280496Y-54415899D03*
D25*
X112280496Y-58165899D03*
D24*
X111780496Y-54415899D03*
D27*
X120555496Y-60365899D03*
X109005496Y-58165899D03*
%TD*%
D28*
%TO.C,REF\u002A\u002A*%
X165905508Y-92715886D03*
X165905508Y-95255886D03*
X165905508Y-97795886D03*
X165905508Y-100335886D03*
X164680508Y-90325886D03*
X164680508Y-102725886D03*
X166530508Y-90325886D03*
X166530508Y-102725886D03*
%TD*%
D29*
%TO.C,J19*%
X177860491Y-73333897D03*
D30*
X177860491Y-72317897D03*
%TD*%
D21*
%TO.C,D6*%
X115630492Y-114415887D03*
D20*
X116530492Y-114415887D03*
X118030492Y-114415887D03*
D21*
X118930492Y-114415887D03*
%TD*%
%TO.C,D13*%
X151630493Y-54525895D03*
D20*
X152530493Y-54525895D03*
X154030493Y-54525895D03*
D21*
X154930493Y-54525895D03*
%TD*%
D31*
%TO.C,D19*%
X76438676Y-67401129D03*
D20*
X77335251Y-67322689D03*
X78829543Y-67191955D03*
D31*
X79726118Y-67113515D03*
%TD*%
D24*
%TO.C,S1*%
X49676893Y-92529181D03*
D25*
X49505630Y-96308489D03*
X44716399Y-98935896D03*
X44716399Y-98935896D03*
D26*
X44197822Y-93008538D03*
D25*
X39543683Y-97180047D03*
D24*
X38718751Y-93487895D03*
D32*
X47978936Y-98650461D03*
X36281145Y-97465482D03*
%TD*%
D21*
%TO.C,D23*%
X115630494Y-48715883D03*
D20*
X116530494Y-48715883D03*
X118030494Y-48715883D03*
D21*
X118930494Y-48715883D03*
%TD*%
D22*
%TO.C,J9*%
X169772494Y-48475887D03*
D23*
X170788494Y-48475887D03*
%TD*%
D21*
%TO.C,D24*%
X133630488Y-88325890D03*
D20*
X134530488Y-88325890D03*
X136030488Y-88325890D03*
D21*
X136930488Y-88325890D03*
%TD*%
D29*
%TO.C,J17*%
X172780503Y-73333888D03*
D30*
X172780503Y-72317888D03*
%TD*%
D24*
%TO.C,S4*%
X66126754Y-74025071D03*
D25*
X65955491Y-77804379D03*
X61166260Y-80431786D03*
X61166260Y-80431786D03*
D26*
X60647683Y-74504428D03*
D25*
X55993544Y-78675937D03*
D24*
X55168612Y-74983785D03*
D32*
X64428797Y-80146351D03*
X52731006Y-78961372D03*
%TD*%
D21*
%TO.C,D7*%
X115630496Y-80415891D03*
D20*
X116530496Y-80415891D03*
X118030496Y-80415891D03*
D21*
X118930496Y-80415891D03*
%TD*%
%TO.C,D27*%
X151630495Y-56825893D03*
D20*
X152530495Y-56825893D03*
X154030495Y-56825893D03*
D21*
X154930495Y-56825893D03*
%TD*%
D33*
%TO.C,_8*%
X169658995Y-110749016D03*
%TD*%
D31*
%TO.C,D1*%
X61270005Y-100549303D03*
D20*
X62166580Y-100470863D03*
X63660872Y-100340129D03*
D31*
X64557447Y-100261689D03*
%TD*%
D24*
%TO.C,S6*%
X85539891Y-89391596D03*
D25*
X85368628Y-93170904D03*
X80579397Y-95798311D03*
X80579397Y-95798311D03*
D26*
X80060820Y-89870953D03*
D25*
X75406681Y-94042462D03*
D24*
X74581749Y-90350310D03*
D32*
X83841934Y-95512876D03*
X72144143Y-94327897D03*
%TD*%
D29*
%TO.C,J16*%
X170240500Y-73333880D03*
D30*
X170240500Y-72317880D03*
%TD*%
D24*
%TO.C,S21*%
X140780498Y-60025885D03*
D25*
X140280498Y-63775885D03*
X135280498Y-65975885D03*
X135280498Y-65975885D03*
D26*
X135280498Y-60025885D03*
D25*
X130280498Y-63775885D03*
D24*
X129780498Y-60025885D03*
D27*
X138555498Y-65975885D03*
X127005498Y-63775885D03*
%TD*%
D24*
%TO.C,S12*%
X104780493Y-43025891D03*
D25*
X104280493Y-46775891D03*
X99280493Y-48975891D03*
X99280493Y-48975891D03*
D26*
X99280493Y-43025891D03*
D25*
X94280493Y-46775891D03*
D24*
X93780493Y-43025891D03*
D27*
X102555493Y-48975891D03*
X91005493Y-46775891D03*
%TD*%
D31*
%TO.C,D3*%
X76238210Y-65109875D03*
D20*
X77134785Y-65031435D03*
X78629077Y-64900701D03*
D31*
X79525652Y-64822261D03*
%TD*%
D24*
%TO.C,S18*%
X140780498Y-111025891D03*
D25*
X140280498Y-114775891D03*
X135280498Y-116975891D03*
X135280498Y-116975891D03*
D26*
X135280498Y-111025891D03*
D25*
X130280498Y-114775891D03*
D24*
X129780498Y-111025891D03*
D27*
X138555498Y-116975891D03*
X127005498Y-114775891D03*
%TD*%
D34*
%TO.C,_3*%
X180280500Y-81825891D03*
%TD*%
D35*
%TO.C,J10*%
X175788493Y-45925883D03*
D36*
X174772493Y-45925883D03*
%TD*%
D24*
%TO.C,S9*%
X104780497Y-94025882D03*
D25*
X104280497Y-97775882D03*
X99280497Y-99975882D03*
X99280497Y-99975882D03*
D26*
X99280497Y-94025882D03*
D25*
X94280497Y-97775882D03*
D24*
X93780497Y-94025882D03*
D27*
X102555497Y-99975882D03*
X91005497Y-97775882D03*
%TD*%
D31*
%TO.C,D18*%
X79401971Y-101271753D03*
D20*
X80298546Y-101193313D03*
X81792838Y-101062579D03*
D31*
X82689413Y-100984139D03*
%TD*%
D24*
%TO.C,S8*%
X82576603Y-55520964D03*
D25*
X82405340Y-59300272D03*
X77616109Y-61927679D03*
X77616109Y-61927679D03*
D26*
X77097532Y-56000321D03*
D25*
X72443393Y-60171830D03*
D24*
X71618461Y-56479678D03*
D32*
X80878646Y-61642244D03*
X69180855Y-60457265D03*
%TD*%
D31*
%TO.C,D2*%
X79201507Y-98980500D03*
D20*
X80098082Y-98902060D03*
X81592374Y-98771326D03*
D31*
X82488949Y-98692886D03*
%TD*%
D21*
%TO.C,D12*%
X151630504Y-88525880D03*
D20*
X152530504Y-88525880D03*
X154030504Y-88525880D03*
D21*
X154930504Y-88525880D03*
%TD*%
D24*
%TO.C,S5*%
X87021539Y-106326892D03*
D25*
X86850276Y-110106200D03*
X82061045Y-112733607D03*
X82061045Y-112733607D03*
D26*
X81542468Y-106806249D03*
D25*
X76888329Y-110977758D03*
D24*
X76063397Y-107285606D03*
D32*
X85323582Y-112448172D03*
X73625791Y-111263193D03*
%TD*%
D29*
%TO.C,J18*%
X175320498Y-73333884D03*
D30*
X175320498Y-72317884D03*
%TD*%
D31*
%TO.C,D17*%
X58507169Y-68969922D03*
D20*
X59403744Y-68891482D03*
X60898036Y-68760748D03*
D31*
X61794611Y-68682308D03*
%TD*%
D37*
%TO.C,*%
X165030501Y-37825884D03*
D38*
X180530501Y-37825884D03*
%TD*%
D24*
%TO.C,S13*%
X122780488Y-105415884D03*
D25*
X122280488Y-109165884D03*
X117280488Y-111365884D03*
X117280488Y-111365884D03*
D26*
X117280488Y-105415884D03*
D25*
X112280488Y-109165884D03*
D24*
X111780488Y-105415884D03*
D27*
X120555488Y-111365884D03*
X109005488Y-109165884D03*
%TD*%
D31*
%TO.C,D16*%
X61470466Y-102840548D03*
D20*
X62367041Y-102762108D03*
X63861333Y-102631374D03*
D31*
X64757908Y-102552934D03*
%TD*%
D24*
%TO.C,S10*%
X104780505Y-77025889D03*
D25*
X104280505Y-80775889D03*
X99280505Y-82975889D03*
X99280505Y-82975889D03*
D26*
X99280505Y-77025889D03*
D25*
X94280505Y-80775889D03*
D24*
X93780505Y-77025889D03*
D27*
X102555505Y-82975889D03*
X91005505Y-80775889D03*
%TD*%
D24*
%TO.C,S22*%
X140780507Y-43025887D03*
D25*
X140280507Y-46775887D03*
X135280507Y-48975887D03*
X135280507Y-48975887D03*
D26*
X135280507Y-43025887D03*
D25*
X130280507Y-46775887D03*
D24*
X129780507Y-43025887D03*
D27*
X138555507Y-48975887D03*
X127005507Y-46775887D03*
%TD*%
D39*
%TO.C,Nice!View1*%
X175320493Y-75325888D03*
X177860493Y-75325888D03*
X172780493Y-75325888D03*
X170240493Y-75325888D03*
X167700493Y-75325888D03*
%TD*%
D31*
%TO.C,D15*%
X42057314Y-87474046D03*
D20*
X42953889Y-87395606D03*
X44448181Y-87264872D03*
D31*
X45344756Y-87186432D03*
%TD*%
D21*
%TO.C,D11*%
X133630489Y-52025889D03*
D20*
X134530489Y-52025889D03*
X136030489Y-52025889D03*
D21*
X136930489Y-52025889D03*
%TD*%
D24*
%TO.C,S2*%
X69090047Y-107895686D03*
D25*
X68918784Y-111674994D03*
X64129553Y-114302401D03*
X64129553Y-114302401D03*
D26*
X63610976Y-108375043D03*
D25*
X58956837Y-112546552D03*
D24*
X58131905Y-108854400D03*
D32*
X67392090Y-114016966D03*
X55694299Y-112831987D03*
%TD*%
D24*
%TO.C,S11*%
X104780498Y-60025887D03*
D25*
X104280498Y-63775887D03*
X99280498Y-65975887D03*
X99280498Y-65975887D03*
D26*
X99280498Y-60025887D03*
D25*
X94280498Y-63775887D03*
D24*
X93780498Y-60025887D03*
D27*
X102555498Y-65975887D03*
X91005498Y-63775887D03*
%TD*%
D24*
%TO.C,S7*%
X84058261Y-72456264D03*
D25*
X83886998Y-76235572D03*
X79097767Y-78862979D03*
X79097767Y-78862979D03*
D26*
X78579190Y-72935621D03*
D25*
X73925051Y-77107130D03*
D24*
X73100119Y-73414978D03*
D32*
X82360304Y-78577544D03*
X70662513Y-77392565D03*
%TD*%
D33*
%TO.C,_7*%
X126280499Y-102525885D03*
%TD*%
%TO.C,_5*%
X144280491Y-53775890D03*
%TD*%
D24*
%TO.C,S17*%
X122780491Y-37415894D03*
D25*
X122280491Y-41165894D03*
X117280491Y-43365894D03*
X117280491Y-43365894D03*
D26*
X117280491Y-37415894D03*
D25*
X112280491Y-41165894D03*
D24*
X111780491Y-37415894D03*
D27*
X120555491Y-43365894D03*
X109005491Y-41165894D03*
%TD*%
D24*
%TO.C,S25*%
X158780498Y-62525880D03*
D25*
X158280498Y-66275880D03*
X153280498Y-68475880D03*
X153280498Y-68475880D03*
D26*
X153280498Y-62525880D03*
D25*
X148280498Y-66275880D03*
D24*
X147780498Y-62525880D03*
D27*
X156555498Y-68475880D03*
X145005498Y-66275880D03*
%TD*%
D24*
%TO.C,S28*%
X175515240Y-121141624D03*
D25*
X178512835Y-123449637D03*
X177918091Y-128879764D03*
X177918091Y-128879764D03*
D26*
X172765240Y-125904764D03*
D25*
X173512835Y-132109891D03*
D24*
X170015240Y-130667904D03*
D40*
X179555591Y-126043531D03*
X171875335Y-134946124D03*
%TD*%
D22*
%TO.C,J7*%
X169772489Y-43375888D03*
D23*
X170788489Y-43375888D03*
%TD*%
D41*
%TO.C,MCU1*%
X180400499Y-40855891D03*
D42*
X165160499Y-40855891D03*
X165160499Y-43395891D03*
X165160499Y-45935891D03*
X165160499Y-48475891D03*
X165160499Y-51015891D03*
X165160499Y-53555891D03*
X165160499Y-56095891D03*
X165160499Y-58635891D03*
X165160499Y-61175891D03*
X165160499Y-63715891D03*
X165160499Y-66255891D03*
X165160499Y-68795891D03*
X180400499Y-40855891D03*
X180400499Y-43395891D03*
X180400499Y-45935891D03*
X180400499Y-48475891D03*
X180400499Y-51015891D03*
X180400499Y-53555891D03*
X180400499Y-56095891D03*
X180400499Y-58635891D03*
X180400499Y-61175891D03*
X180400499Y-63715891D03*
X180400499Y-66255891D03*
X180400499Y-68795891D03*
%TD*%
D22*
%TO.C,J1*%
X168022493Y-92715894D03*
D23*
X169038493Y-92715894D03*
%TD*%
D33*
%TO.C,_6*%
X71835903Y-99122986D03*
%TD*%
D22*
%TO.C,J3*%
X168022493Y-97795880D03*
D23*
X169038493Y-97795880D03*
%TD*%
D24*
%TO.C,S19*%
X140780496Y-94025885D03*
D25*
X140280496Y-97775885D03*
X135280496Y-99975885D03*
X135280496Y-99975885D03*
D26*
X135280496Y-94025885D03*
D25*
X130280496Y-97775885D03*
D24*
X129780496Y-94025885D03*
D27*
X138555496Y-99975885D03*
X127005496Y-97775885D03*
%TD*%
D43*
%TO.C,_1*%
X169530505Y-81825885D03*
X176030505Y-81825885D03*
%TD*%
D24*
%TO.C,S15*%
X122780491Y-71415889D03*
D25*
X122280491Y-75165889D03*
X117280491Y-77365889D03*
X117280491Y-77365889D03*
D26*
X117280491Y-71415889D03*
D25*
X112280491Y-75165889D03*
D24*
X111780491Y-71415889D03*
D27*
X120555491Y-77365889D03*
X109005491Y-75165889D03*
%TD*%
D24*
%TO.C,S20*%
X140780491Y-77025890D03*
D25*
X140280491Y-80775890D03*
X135280491Y-82975890D03*
X135280491Y-82975890D03*
D26*
X135280491Y-77025890D03*
D25*
X130280491Y-80775890D03*
D24*
X129780491Y-77025890D03*
D27*
X138555491Y-82975890D03*
X127005491Y-80775890D03*
%TD*%
D24*
%TO.C,S3*%
X67608397Y-90960375D03*
D25*
X67437134Y-94739683D03*
X62647903Y-97367090D03*
X62647903Y-97367090D03*
D26*
X62129326Y-91439732D03*
D25*
X57475187Y-95611241D03*
D24*
X56650255Y-91919089D03*
D32*
X65910440Y-97081655D03*
X54212649Y-95896676D03*
%TD*%
D44*
%TO.C,D28*%
X174607779Y-117413401D03*
D20*
X175387202Y-117863401D03*
X176686240Y-118613401D03*
D44*
X177465663Y-119063401D03*
%TD*%
D21*
%TO.C,D10*%
X133630504Y-86025886D03*
D20*
X134530504Y-86025886D03*
X136030504Y-86025886D03*
D21*
X136930504Y-86025886D03*
%TD*%
%TO.C,D29*%
X164880485Y-105525879D03*
D20*
X165780485Y-105525879D03*
X167280485Y-105525879D03*
D21*
X168180485Y-105525879D03*
%TD*%
D24*
%TO.C,S26*%
X158780492Y-45525890D03*
D25*
X158280492Y-49275890D03*
X153280492Y-51475890D03*
X153280492Y-51475890D03*
D26*
X153280492Y-45525890D03*
D25*
X148280492Y-49275890D03*
D24*
X147780492Y-45525890D03*
D27*
X156555492Y-51475890D03*
X145005492Y-49275890D03*
%TD*%
D21*
%TO.C,D5*%
X97630498Y-52025887D03*
D20*
X98530498Y-52025887D03*
X100030498Y-52025887D03*
D21*
X100930498Y-52025887D03*
%TD*%
%TO.C,D25*%
X133630489Y-54325891D03*
D20*
X134530489Y-54325891D03*
X136030489Y-54325891D03*
D21*
X136930489Y-54325891D03*
%TD*%
D24*
%TO.C,S27*%
X160593091Y-116839396D03*
D25*
X159139557Y-120332208D03*
X153740526Y-121163150D03*
X153740526Y-121163150D03*
D26*
X155280499Y-115415891D03*
D25*
X149480298Y-117744018D03*
D24*
X149967907Y-113992386D03*
D45*
X156903933Y-122010782D03*
X146316891Y-116896385D03*
%TD*%
D21*
%TO.C,D21*%
X97630499Y-54325891D03*
D20*
X98530499Y-54325891D03*
X100030499Y-54325891D03*
D21*
X100930499Y-54325891D03*
%TD*%
D24*
%TO.C,S14*%
X122780499Y-88415883D03*
D25*
X122280499Y-92165883D03*
X117280499Y-94365883D03*
X117280499Y-94365883D03*
D26*
X117280499Y-88415883D03*
D25*
X112280499Y-92165883D03*
D24*
X111780499Y-88415883D03*
D27*
X120555499Y-94365883D03*
X109005499Y-92165883D03*
%TD*%
D24*
%TO.C,S23*%
X158780494Y-96525887D03*
D25*
X158280494Y-100275887D03*
X153280494Y-102475887D03*
X153280494Y-102475887D03*
D26*
X153280494Y-96525887D03*
D25*
X148280494Y-100275887D03*
D24*
X147780494Y-96525887D03*
D27*
X156555494Y-102475887D03*
X145005494Y-100275887D03*
%TD*%
D21*
%TO.C,D20*%
X97630488Y-88325890D03*
D20*
X98530488Y-88325890D03*
X100030488Y-88325890D03*
D21*
X100930488Y-88325890D03*
%TD*%
D22*
%TO.C,J8*%
X169772497Y-45925881D03*
D23*
X170788497Y-45925881D03*
%TD*%
D21*
%TO.C,D9*%
X133630498Y-120025891D03*
D20*
X134530498Y-120025891D03*
X136030498Y-120025891D03*
D21*
X136930498Y-120025891D03*
%TD*%
D24*
%TO.C,S20*%
X158782680Y-79522957D03*
D25*
X158282680Y-83272957D03*
X153282680Y-85472957D03*
X153282680Y-85472957D03*
D26*
X153282680Y-79522957D03*
D25*
X148282680Y-83272957D03*
D24*
X147782680Y-79522957D03*
D27*
X156557680Y-85472957D03*
X145007680Y-83272957D03*
%TD*%
D21*
%TO.C,D8*%
X115630497Y-46415892D03*
D20*
X116530497Y-46415892D03*
X118030497Y-46415892D03*
D21*
X118930497Y-46415892D03*
%TD*%
D34*
%TO.C,_2*%
X165280503Y-81825893D03*
%TD*%
D29*
%TO.C,J15*%
X167700503Y-73333895D03*
D30*
X167700503Y-72317895D03*
%TD*%
D33*
%TO.C,_4*%
X88280491Y-51525880D03*
%TD*%
D21*
%TO.C,D4*%
X97630499Y-86025901D03*
D20*
X98530499Y-86025901D03*
X100030499Y-86025901D03*
D21*
X100930499Y-86025901D03*
%TD*%
%TO.C,D22*%
X115630498Y-82715890D03*
D20*
X116530498Y-82715890D03*
X118030498Y-82715890D03*
D21*
X118930498Y-82715890D03*
%TD*%
%LPD*%
M02*
