%TF.GenerationSoftware,KiCad,Pcbnew,7.0.6-7.0.6~ubuntu20.04.1*%
%TF.CreationDate,2023-07-19T13:10:17+02:00*%
%TF.ProjectId,keyboard,6b657962-6f61-4726-942e-6b696361645f,v1.0.0*%
%TF.SameCoordinates,Original*%
%TF.FileFunction,Profile,NP*%
%FSLAX46Y46*%
G04 Gerber Fmt 4.6, Leading zero omitted, Abs format (unit mm)*
G04 Created by KiCad (PCBNEW 7.0.6-7.0.6~ubuntu20.04.1) date 2023-07-19 13:10:17*
%MOMM*%
%LPD*%
G01*
G04 APERTURE LIST*
%TA.AperFunction,Profile*%
%ADD10C,0.150000*%
%TD*%
G04 APERTURE END LIST*
D10*
X185623450Y-122633630D02*
G75*
G03*
X185857879Y-121268886I-1732050J1000030D01*
G01*
X127497548Y-27964793D02*
X163063451Y-35976992D01*
X89512126Y-33453701D02*
X106989839Y-28006478D01*
X183030411Y-38025897D02*
G75*
G03*
X181030488Y-36025889I-2000011J-3D01*
G01*
X127497549Y-27964788D02*
G75*
G03*
X127058014Y-27915885I-439449J-1950012D01*
G01*
X174409603Y-138728540D02*
X125469076Y-120595760D01*
X53853532Y-118216944D02*
X35739807Y-103879001D01*
X34988712Y-102485137D02*
X33483026Y-85275057D01*
X125469074Y-120595767D02*
G75*
G03*
X125081772Y-120494966I-694874J-1875433D01*
G01*
X92090501Y-115419705D02*
X55269133Y-118641162D01*
X66566784Y-47251403D02*
G75*
G03*
X66106409Y-47634342I1034916J-1712397D01*
G01*
X89512128Y-33453707D02*
G75*
G03*
X89072847Y-33651362I595072J-1909493D01*
G01*
X33980661Y-83771949D02*
G75*
G03*
X33483026Y-85275057I1494759J-1328801D01*
G01*
X107584936Y-27915894D02*
G75*
G03*
X106989839Y-28006479I-36J-1999806D01*
G01*
X163063450Y-35976997D02*
G75*
G03*
X163502981Y-36025884I439550J1951597D01*
G01*
X163502983Y-36025886D02*
X181030488Y-36025889D01*
X66566783Y-47251401D02*
X89072851Y-33651372D01*
X92572346Y-115435881D02*
G75*
G03*
X92090486Y-115419703I-307546J-1976119D01*
G01*
X33980661Y-83771949D02*
X66106409Y-47634342D01*
X174409585Y-138728588D02*
G75*
G03*
X176836502Y-137853123I694815J1875488D01*
G01*
X107584936Y-27915894D02*
X127058014Y-27915885D01*
X183030496Y-38025897D02*
X183030495Y-105841966D01*
X183064032Y-106206716D02*
X185857884Y-121268883D01*
X185623478Y-122633646D02*
X176836492Y-137853134D01*
X53853548Y-118216924D02*
G75*
G03*
X55269134Y-118641160I1241252J1567924D01*
G01*
X125081772Y-120494966D02*
X92572345Y-115435885D01*
X34988735Y-102485135D02*
G75*
G03*
X35739807Y-103879000I1992465J174335D01*
G01*
X183030503Y-105841966D02*
G75*
G03*
X183064029Y-106206719I1999497J-134D01*
G01*
%TO.C,REF\u002A\u002A*%
X178930508Y-89225886D02*
X178930508Y-103825886D01*
X179230508Y-104125886D02*
X181030508Y-104125886D01*
X181030508Y-88925886D02*
X179230508Y-88925886D01*
X181330508Y-103825886D02*
X181330508Y-89225886D01*
X179230508Y-88925886D02*
G75*
G03*
X178930508Y-89225886I0J-300000D01*
G01*
X178930508Y-103825886D02*
G75*
G03*
X179230508Y-104125886I300000J0D01*
G01*
X181330508Y-89225886D02*
G75*
G03*
X181030508Y-88925886I-300000J0D01*
G01*
X181030508Y-104125886D02*
G75*
G03*
X181330508Y-103825886I0J300000D01*
G01*
%TD*%
M02*
