%TF.GenerationSoftware,KiCad,Pcbnew,7.0.6-7.0.6~ubuntu20.04.1*%
%TF.CreationDate,2023-08-05T11:34:35+02:00*%
%TF.ProjectId,keyboard,6b657962-6f61-4726-942e-6b696361645f,v1.0.0*%
%TF.SameCoordinates,Original*%
%TF.FileFunction,Drillmap*%
%TF.FilePolarity,Positive*%
%FSLAX45Y45*%
G04 Gerber Fmt 4.5, Leading zero omitted, Abs format (unit mm)*
G04 Created by KiCad (PCBNEW 7.0.6-7.0.6~ubuntu20.04.1) date 2023-08-05 11:34:35*
%MOMM*%
%LPD*%
G01*
G04 APERTURE LIST*
%ADD10C,0.150000*%
%ADD11C,0.200000*%
%ADD12C,0.030000*%
%ADD13C,0.040000*%
%ADD14C,0.080000*%
%ADD15C,0.090000*%
%ADD16C,0.100000*%
%ADD17C,0.109220*%
%ADD18C,0.110000*%
%ADD19C,0.130000*%
%ADD20C,0.220000*%
%ADD21C,0.410000*%
G04 APERTURE END LIST*
D10*
X6849484Y-12651649D02*
X5038112Y-11217855D01*
X20026478Y-13093318D02*
X19147781Y-14615268D01*
X18905090Y-14702809D02*
X14011039Y-12889532D01*
X19770534Y-11450627D02*
X20049919Y-12956843D01*
X19767180Y-4632544D02*
X19767181Y-11414152D01*
X18905088Y-14702815D02*
G75*
G03*
X19147780Y-14615266I69482J187546D01*
G01*
X4862198Y-9207149D02*
X8074772Y-5593388D01*
X14213886Y-3626432D02*
G75*
G03*
X14169931Y-3621544I-43956J-195178D01*
G01*
X4962997Y-11078469D02*
G75*
G03*
X5038112Y-11217855I199243J17439D01*
G01*
X19767182Y-11414152D02*
G75*
G03*
X19770534Y-11450627I199908J-18D01*
G01*
X8120809Y-5555095D02*
X10371416Y-4195091D01*
X19767186Y-4632544D02*
G75*
G03*
X19567180Y-4432544I-200006J-6D01*
G01*
X6849483Y-12651650D02*
G75*
G03*
X6991045Y-12694069I124127J156820D01*
G01*
X8120808Y-5555094D02*
G75*
G03*
X8074772Y-5593388I103452J-171186D01*
G01*
X10721365Y-12373543D02*
G75*
G03*
X10673181Y-12371925I-30755J-197597D01*
G01*
X14213886Y-3626433D02*
X17770475Y-4427654D01*
X14011039Y-12889532D02*
G75*
G03*
X13972307Y-12879451I-69469J-187448D01*
G01*
X4963002Y-11078468D02*
X4812433Y-9357461D01*
X20026479Y-13093318D02*
G75*
G03*
X20049919Y-12956843I-173199J99999D01*
G01*
X13972307Y-12879451D02*
X10721365Y-12373543D01*
X12222625Y-3621543D02*
X14169931Y-3621544D01*
X12222625Y-3621543D02*
G75*
G03*
X12163115Y-3630602I5J-200027D01*
G01*
X10415343Y-4175324D02*
X12163115Y-3630602D01*
X10415343Y-4175326D02*
G75*
G03*
X10371415Y-4195091I59487J-190904D01*
G01*
X10673181Y-12371925D02*
X6991044Y-12694070D01*
X17814429Y-4432544D02*
X19567180Y-4432544D01*
X4862198Y-9207149D02*
G75*
G03*
X4812434Y-9357461I149472J-132881D01*
G01*
X17770475Y-4427653D02*
G75*
G03*
X17814430Y-4432543I43955J195113D01*
G01*
D11*
D12*
X5748877Y-9604324D02*
X5778877Y-9634324D01*
X5778877Y-9604324D02*
X5748877Y-9634324D01*
X5898306Y-9591250D02*
X5928306Y-9621250D01*
X5928306Y-9591250D02*
X5898306Y-9621250D01*
X7393863Y-7753912D02*
X7423863Y-7783912D01*
X7423863Y-7753912D02*
X7393863Y-7783912D01*
X7543292Y-7740839D02*
X7573292Y-7770839D01*
X7573292Y-7740839D02*
X7543292Y-7770839D01*
X7670146Y-10911851D02*
X7700146Y-10941851D01*
X7700146Y-10911851D02*
X7670146Y-10941851D01*
X7690192Y-11140975D02*
X7720192Y-11170975D01*
X7720192Y-11140975D02*
X7690192Y-11170975D01*
X7819575Y-10898777D02*
X7849575Y-10928777D01*
X7849575Y-10898777D02*
X7819575Y-10928777D01*
X7839621Y-11127902D02*
X7869621Y-11157902D01*
X7869621Y-11127902D02*
X7839621Y-11157902D01*
X9166968Y-7367908D02*
X9196968Y-7397908D01*
X9196968Y-7367908D02*
X9166968Y-7397908D01*
X9187013Y-7597033D02*
X9217013Y-7627033D01*
X9217013Y-7597033D02*
X9187013Y-7627033D01*
X9316397Y-7354835D02*
X9346397Y-7384835D01*
X9346397Y-7354835D02*
X9316397Y-7384835D01*
X9336442Y-7583959D02*
X9366442Y-7613959D01*
X9366442Y-7583959D02*
X9336442Y-7613959D01*
X9463297Y-10754970D02*
X9493297Y-10784970D01*
X9493297Y-10754970D02*
X9463297Y-10784970D01*
X9483343Y-10984094D02*
X9513343Y-11014094D01*
X9513343Y-10984094D02*
X9483343Y-11014094D01*
X9612726Y-10741896D02*
X9642726Y-10771896D01*
X9642726Y-10741896D02*
X9612726Y-10771896D01*
X9632772Y-10971021D02*
X9662772Y-11001021D01*
X9662772Y-10971021D02*
X9632772Y-11001021D01*
X11302179Y-6067543D02*
X11332179Y-6097543D01*
X11332179Y-6067543D02*
X11302179Y-6097543D01*
X11302180Y-9467544D02*
X11332180Y-9497544D01*
X11332180Y-9467544D02*
X11302180Y-9497544D01*
X11302180Y-6297543D02*
X11332180Y-6327543D01*
X11332180Y-6297543D02*
X11302180Y-6327543D01*
X11302180Y-9697543D02*
X11332180Y-9727543D01*
X11332180Y-9697543D02*
X11302180Y-9727543D01*
X11452179Y-6067543D02*
X11482179Y-6097543D01*
X11482179Y-6067543D02*
X11452179Y-6097543D01*
X11452180Y-9467544D02*
X11482180Y-9497544D01*
X11482180Y-9467544D02*
X11452180Y-9497544D01*
X11452180Y-6297543D02*
X11482180Y-6327543D01*
X11482180Y-6297543D02*
X11452180Y-6327543D01*
X11452180Y-9697543D02*
X11482180Y-9727543D01*
X11482180Y-9697543D02*
X11452180Y-9727543D01*
X13102180Y-5736543D02*
X13132180Y-5766543D01*
X13132180Y-5736543D02*
X13102180Y-5766543D01*
X13102180Y-12306544D02*
X13132180Y-12336544D01*
X13132180Y-12306544D02*
X13102180Y-12336544D01*
X13102180Y-9136543D02*
X13132180Y-9166543D01*
X13132180Y-9136543D02*
X13102180Y-9166543D01*
X13102180Y-8906544D02*
X13132180Y-8936544D01*
X13132180Y-8906544D02*
X13102180Y-8936544D01*
X13102181Y-5506543D02*
X13132181Y-5536543D01*
X13132181Y-5506543D02*
X13102181Y-5536543D01*
X13252180Y-5736543D02*
X13282180Y-5766543D01*
X13282180Y-5736543D02*
X13252180Y-5766543D01*
X13252180Y-12306544D02*
X13282180Y-12336544D01*
X13282180Y-12306544D02*
X13252180Y-12336544D01*
X13252180Y-9136543D02*
X13282180Y-9166543D01*
X13282180Y-9136543D02*
X13252180Y-9166543D01*
X13252180Y-8906544D02*
X13282180Y-8936544D01*
X13282180Y-8906544D02*
X13252180Y-8936544D01*
X13252181Y-5506543D02*
X13282181Y-5536543D01*
X13282181Y-5506543D02*
X13252181Y-5536543D01*
X14902180Y-9697543D02*
X14932180Y-9727543D01*
X14932180Y-9697543D02*
X14902180Y-9727543D01*
X14902180Y-9467543D02*
X14932180Y-9497543D01*
X14932180Y-9467543D02*
X14902180Y-9497543D01*
X14902180Y-6067543D02*
X14932180Y-6097543D01*
X14932180Y-6067543D02*
X14902180Y-6097543D01*
X14902180Y-12867543D02*
X14932180Y-12897543D01*
X14932180Y-12867543D02*
X14902180Y-12897543D01*
X14902180Y-6297543D02*
X14932180Y-6327543D01*
X14932180Y-6297543D02*
X14902180Y-6327543D01*
X15052180Y-9697543D02*
X15082180Y-9727543D01*
X15082180Y-9697543D02*
X15052180Y-9727543D01*
X15052180Y-9467543D02*
X15082180Y-9497543D01*
X15082180Y-9467543D02*
X15052180Y-9497543D01*
X15052180Y-6067543D02*
X15082180Y-6097543D01*
X15082180Y-6067543D02*
X15052180Y-6097543D01*
X15052180Y-12867543D02*
X15082180Y-12897543D01*
X15082180Y-12867543D02*
X15052180Y-12897543D01*
X15052180Y-6297543D02*
X15082180Y-6327543D01*
X15082180Y-6297543D02*
X15052180Y-6327543D01*
X16658858Y-13254762D02*
X16688858Y-13284762D01*
X16688858Y-13254762D02*
X16658858Y-13284762D01*
X16702180Y-6547543D02*
X16732180Y-6577543D01*
X16732180Y-6547543D02*
X16702180Y-6577543D01*
X16702181Y-6317544D02*
X16732181Y-6347544D01*
X16732181Y-6317544D02*
X16702181Y-6347544D01*
X16702181Y-9717544D02*
X16732181Y-9747544D01*
X16732181Y-9717544D02*
X16702181Y-9747544D01*
X16702181Y-9947543D02*
X16732181Y-9977543D01*
X16732181Y-9947543D02*
X16702181Y-9977543D01*
X16803747Y-13293585D02*
X16833747Y-13323585D01*
X16833747Y-13293585D02*
X16803747Y-13323585D01*
X16852180Y-6547543D02*
X16882180Y-6577543D01*
X16882180Y-6547543D02*
X16852180Y-6577543D01*
X16852181Y-6317544D02*
X16882181Y-6347544D01*
X16882181Y-6317544D02*
X16852181Y-6347544D01*
X16852181Y-9717544D02*
X16882181Y-9747544D01*
X16882181Y-9717544D02*
X16852181Y-9747544D01*
X16852181Y-9947543D02*
X16882181Y-9977543D01*
X16882181Y-9947543D02*
X16852181Y-9977543D01*
X18027181Y-11367544D02*
X18057181Y-11397544D01*
X18057181Y-11367544D02*
X18027181Y-11397544D01*
X18177181Y-11367544D02*
X18207181Y-11397544D01*
X18207181Y-11367544D02*
X18177181Y-11397544D01*
X18987850Y-12601294D02*
X19017850Y-12631294D01*
X19017850Y-12601294D02*
X18987850Y-12631294D01*
X19117754Y-12676294D02*
X19147754Y-12706294D01*
X19147754Y-12676294D02*
X19117754Y-12706294D01*
D13*
X5633856Y-10313931D02*
G75*
G03*
X5633856Y-10313931I-20000J0D01*
G01*
X6217375Y-10443568D02*
G75*
G03*
X6217375Y-10443568I-20000J0D01*
G01*
X7279837Y-8463433D02*
G75*
G03*
X7279837Y-8463433I-20000J0D01*
G01*
X7422044Y-10157705D02*
G75*
G03*
X7422044Y-10157705I-20000J0D01*
G01*
X7575408Y-11850780D02*
G75*
G03*
X7575408Y-11850780I-20000J0D01*
G01*
X7821391Y-9476522D02*
G75*
G03*
X7821391Y-9476522I-20000J0D01*
G01*
X7863357Y-8593070D02*
G75*
G03*
X7863357Y-8593070I-20000J0D01*
G01*
X7929435Y-9348350D02*
G75*
G03*
X7929435Y-9348350I-20000J0D01*
G01*
X8005563Y-10287341D02*
G75*
G03*
X8005563Y-10287341I-20000J0D01*
G01*
X8158927Y-11980418D02*
G75*
G03*
X8158927Y-11980418I-20000J0D01*
G01*
X8384391Y-10986522D02*
G75*
G03*
X8384391Y-10986522I-20000J0D01*
G01*
X8451391Y-11240522D02*
G75*
G03*
X8451391Y-11240522I-20000J0D01*
G01*
X8920534Y-6612393D02*
G75*
G03*
X8920534Y-6612393I-20000J0D01*
G01*
X9073897Y-8305469D02*
G75*
G03*
X9073897Y-8305469I-20000J0D01*
G01*
X9216104Y-9999742D02*
G75*
G03*
X9216104Y-9999742I-20000J0D01*
G01*
X9369468Y-11692818D02*
G75*
G03*
X9369468Y-11692818I-20000J0D01*
G01*
X9504052Y-6742029D02*
G75*
G03*
X9504052Y-6742029I-20000J0D01*
G01*
X9657416Y-8435106D02*
G75*
G03*
X9657416Y-8435106I-20000J0D01*
G01*
X9724697Y-9264012D02*
G75*
G03*
X9724697Y-9264012I-20000J0D01*
G01*
X9799623Y-10129378D02*
G75*
G03*
X9799623Y-10129378I-20000J0D01*
G01*
X9822391Y-7586522D02*
G75*
G03*
X9822391Y-7586522I-20000J0D01*
G01*
X9911391Y-9042522D02*
G75*
G03*
X9911391Y-9042522I-20000J0D01*
G01*
X9952986Y-11822453D02*
G75*
G03*
X9952986Y-11822453I-20000J0D01*
G01*
X10108391Y-10970522D02*
G75*
G03*
X10108391Y-10970522I-20000J0D01*
G01*
X10956391Y-8284522D02*
G75*
G03*
X10956391Y-8284522I-20000J0D01*
G01*
X11122152Y-8690948D02*
G75*
G03*
X11122152Y-8690948I-20000J0D01*
G01*
X11122932Y-5290729D02*
G75*
G03*
X11122932Y-5290729I-20000J0D01*
G01*
X11127371Y-10390947D02*
G75*
G03*
X11127371Y-10390947I-20000J0D01*
G01*
X11128152Y-6990729D02*
G75*
G03*
X11128152Y-6990729I-20000J0D01*
G01*
X11692152Y-8870948D02*
G75*
G03*
X11692152Y-8870948I-20000J0D01*
G01*
X11692932Y-8054685D02*
G75*
G03*
X11692932Y-8054685I-20000J0D01*
G01*
X11692932Y-5470728D02*
G75*
G03*
X11692932Y-5470728I-20000J0D01*
G01*
X11697370Y-10570947D02*
G75*
G03*
X11697370Y-10570947I-20000J0D01*
G01*
X11698152Y-7170729D02*
G75*
G03*
X11698152Y-7170729I-20000J0D01*
G01*
X11864391Y-9662522D02*
G75*
G03*
X11864391Y-9662522I-20000J0D01*
G01*
X11995391Y-7783522D02*
G75*
G03*
X11995391Y-7783522I-20000J0D01*
G01*
X12921152Y-8129947D02*
G75*
G03*
X12921152Y-8129947I-20000J0D01*
G01*
X12921535Y-11530114D02*
G75*
G03*
X12921535Y-11530114I-20000J0D01*
G01*
X12921932Y-4729728D02*
G75*
G03*
X12921932Y-4729728I-20000J0D01*
G01*
X12926371Y-9829948D02*
G75*
G03*
X12926371Y-9829948I-20000J0D01*
G01*
X12927151Y-6429729D02*
G75*
G03*
X12927151Y-6429729I-20000J0D01*
G01*
X13424391Y-10829522D02*
G75*
G03*
X13424391Y-10829522I-20000J0D01*
G01*
X13491151Y-8309947D02*
G75*
G03*
X13491151Y-8309947I-20000J0D01*
G01*
X13491535Y-11710113D02*
G75*
G03*
X13491535Y-11710113I-20000J0D01*
G01*
X13491933Y-4909729D02*
G75*
G03*
X13491933Y-4909729I-20000J0D01*
G01*
X13491933Y-7836879D02*
G75*
G03*
X13491933Y-7836879I-20000J0D01*
G01*
X13496370Y-10009948D02*
G75*
G03*
X13496370Y-10009948I-20000J0D01*
G01*
X13497151Y-6609729D02*
G75*
G03*
X13497151Y-6609729I-20000J0D01*
G01*
X13641391Y-7413522D02*
G75*
G03*
X13641391Y-7413522I-20000J0D01*
G01*
X14171391Y-9751522D02*
G75*
G03*
X14171391Y-9751522I-20000J0D01*
G01*
X14581391Y-7985522D02*
G75*
G03*
X14581391Y-7985522I-20000J0D01*
G01*
X14721152Y-8691948D02*
G75*
G03*
X14721152Y-8691948I-20000J0D01*
G01*
X14721932Y-5291728D02*
G75*
G03*
X14721932Y-5291728I-20000J0D01*
G01*
X14722066Y-12091114D02*
G75*
G03*
X14722066Y-12091114I-20000J0D01*
G01*
X14726370Y-10391948D02*
G75*
G03*
X14726370Y-10391948I-20000J0D01*
G01*
X14727151Y-6991729D02*
G75*
G03*
X14727151Y-6991729I-20000J0D01*
G01*
X15218391Y-11359522D02*
G75*
G03*
X15218391Y-11359522I-20000J0D01*
G01*
X15291151Y-8871948D02*
G75*
G03*
X15291151Y-8871948I-20000J0D01*
G01*
X15291932Y-5471730D02*
G75*
G03*
X15291932Y-5471730I-20000J0D01*
G01*
X15291932Y-8332235D02*
G75*
G03*
X15291932Y-8332235I-20000J0D01*
G01*
X15292067Y-12271115D02*
G75*
G03*
X15292067Y-12271115I-20000J0D01*
G01*
X15296370Y-10571948D02*
G75*
G03*
X15296370Y-10571948I-20000J0D01*
G01*
X15297151Y-7171729D02*
G75*
G03*
X15297151Y-7171729I-20000J0D01*
G01*
X15337391Y-11611522D02*
G75*
G03*
X15337391Y-11611522I-20000J0D01*
G01*
X15469391Y-9537522D02*
G75*
G03*
X15469391Y-9537522I-20000J0D01*
G01*
X16521151Y-8940948D02*
G75*
G03*
X16521151Y-8940948I-20000J0D01*
G01*
X16521933Y-5540729D02*
G75*
G03*
X16521933Y-5540729I-20000J0D01*
G01*
X16526370Y-10640947D02*
G75*
G03*
X16526370Y-10640947I-20000J0D01*
G01*
X16527152Y-7240729D02*
G75*
G03*
X16527152Y-7240729I-20000J0D01*
G01*
X16690850Y-12449946D02*
G75*
G03*
X16690850Y-12449946I-20000J0D01*
G01*
X17091151Y-9120948D02*
G75*
G03*
X17091151Y-9120948I-20000J0D01*
G01*
X17091933Y-5720729D02*
G75*
G03*
X17091933Y-5720729I-20000J0D01*
G01*
X17096370Y-10820948D02*
G75*
G03*
X17096370Y-10820948I-20000J0D01*
G01*
X17097151Y-7420729D02*
G75*
G03*
X17097151Y-7420729I-20000J0D01*
G01*
X17178391Y-8514522D02*
G75*
G03*
X17178391Y-8514522I-20000J0D01*
G01*
X17194841Y-12771340D02*
G75*
G03*
X17194841Y-12771340I-20000J0D01*
G01*
X17280000Y-6400000D02*
G75*
G03*
X17280000Y-6400000I-20000J0D01*
G01*
X17363391Y-9995522D02*
G75*
G03*
X17363391Y-9995522I-20000J0D01*
G01*
X17405729Y-8232086D02*
G75*
G03*
X17405729Y-8232086I-20000J0D01*
G01*
X17405729Y-7932235D02*
G75*
G03*
X17405729Y-7932235I-20000J0D01*
G01*
X17405729Y-8032186D02*
G75*
G03*
X17405729Y-8032186I-20000J0D01*
G01*
X17405729Y-8132136D02*
G75*
G03*
X17405729Y-8132136I-20000J0D01*
G01*
X17405729Y-8332037D02*
G75*
G03*
X17405729Y-8332037I-20000J0D01*
G01*
X17452391Y-12234522D02*
G75*
G03*
X17452391Y-12234522I-20000J0D01*
G01*
X17480000Y-6680000D02*
G75*
G03*
X17480000Y-6680000I-20000J0D01*
G01*
X17580000Y-8566522D02*
G75*
G03*
X17580000Y-8566522I-20000J0D01*
G01*
X17587390Y-11091522D02*
G75*
G03*
X17587390Y-11091522I-20000J0D01*
G01*
X17587391Y-9870043D02*
G75*
G03*
X17587391Y-9870043I-20000J0D01*
G01*
X17587391Y-9741522D02*
G75*
G03*
X17587391Y-9741522I-20000J0D01*
G01*
X17687341Y-8566522D02*
G75*
G03*
X17687341Y-8566522I-20000J0D01*
G01*
X17800000Y-8566522D02*
G75*
G03*
X17800000Y-8566522I-20000J0D01*
G01*
X17840391Y-9379522D02*
G75*
G03*
X17840391Y-9379522I-20000J0D01*
G01*
X18000000Y-8380000D02*
G75*
G03*
X18000000Y-8380000I-20000J0D01*
G01*
X18251932Y-5940729D02*
G75*
G03*
X18251932Y-5940729I-20000J0D01*
G01*
X18254180Y-7970729D02*
G75*
G03*
X18254180Y-7970729I-20000J0D01*
G01*
X18473247Y-13544525D02*
G75*
G03*
X18473247Y-13544525I-20000J0D01*
G01*
X18508181Y-7970729D02*
G75*
G03*
X18508181Y-7970729I-20000J0D01*
G01*
X18511933Y-6180728D02*
G75*
G03*
X18511933Y-6180728I-20000J0D01*
G01*
X18641932Y-6070729D02*
G75*
G03*
X18641932Y-6070729I-20000J0D01*
G01*
X18661166Y-5520729D02*
G75*
G03*
X18661166Y-5520729I-20000J0D01*
G01*
X18661932Y-5850729D02*
G75*
G03*
X18661932Y-5850729I-20000J0D01*
G01*
X18731932Y-9990729D02*
G75*
G03*
X18731932Y-9990729I-20000J0D01*
G01*
X18748181Y-13752201D02*
G75*
G03*
X18748181Y-13752201I-20000J0D01*
G01*
X18761932Y-5170729D02*
G75*
G03*
X18761932Y-5170729I-20000J0D01*
G01*
X18762180Y-7970728D02*
G75*
G03*
X18762180Y-7970728I-20000J0D01*
G01*
X18762180Y-5687791D02*
G75*
G03*
X18762180Y-5687791I-20000J0D01*
G01*
X18826644Y-12732422D02*
G75*
G03*
X18826644Y-12732422I-20000J0D01*
G01*
X18826748Y-10355543D02*
G75*
G03*
X18826748Y-10355543I-20000J0D01*
G01*
X18849566Y-5310729D02*
G75*
G03*
X18849566Y-5310729I-20000J0D01*
G01*
X18921932Y-10101544D02*
G75*
G03*
X18921932Y-10101544I-20000J0D01*
G01*
X19016181Y-7850728D02*
G75*
G03*
X19016181Y-7850728I-20000J0D01*
G01*
X19141933Y-6290729D02*
G75*
G03*
X19141933Y-6290729I-20000J0D01*
G01*
X19189065Y-13348567D02*
G75*
G03*
X19189065Y-13348567I-20000J0D01*
G01*
X19270180Y-7970729D02*
G75*
G03*
X19270180Y-7970729I-20000J0D01*
G01*
D14*
X17967180Y-4572543D02*
X17967180Y-4652543D01*
X17927180Y-4612543D02*
X18007180Y-4612543D01*
X19517180Y-4572543D02*
X19517180Y-4652543D01*
X19477180Y-4612543D02*
X19557180Y-4612543D01*
D15*
X17964001Y-9894364D02*
X17964001Y-9830723D01*
X17900361Y-9830723D01*
X17900361Y-9894364D01*
X17964001Y-9894364D01*
X17964001Y-11134364D02*
X17964001Y-11070723D01*
X17900361Y-11070723D01*
X17900361Y-11134364D01*
X17964001Y-11134364D01*
X18086501Y-10133364D02*
X18086501Y-10069723D01*
X18022861Y-10069723D01*
X18022861Y-10133364D01*
X18086501Y-10133364D01*
X18086501Y-10387364D02*
X18086501Y-10323723D01*
X18022861Y-10323723D01*
X18022861Y-10387364D01*
X18086501Y-10387364D01*
X18086501Y-10641364D02*
X18086501Y-10577723D01*
X18022861Y-10577723D01*
X18022861Y-10641364D01*
X18086501Y-10641364D01*
X18086501Y-10895364D02*
X18086501Y-10831723D01*
X18022861Y-10831723D01*
X18022861Y-10895364D01*
X18086501Y-10895364D01*
X18149001Y-9894364D02*
X18149001Y-9830723D01*
X18085361Y-9830723D01*
X18085361Y-9894364D01*
X18149001Y-9894364D01*
X18149001Y-11134364D02*
X18149001Y-11070723D01*
X18085361Y-11070723D01*
X18085361Y-11134364D01*
X18149001Y-11134364D01*
D16*
X18234180Y-8412544D02*
X18284180Y-8362543D01*
X18234180Y-8312543D01*
X18184180Y-8362543D01*
X18234180Y-8412544D01*
X18488180Y-8412544D02*
X18538180Y-8362543D01*
X18488180Y-8312543D01*
X18438180Y-8362543D01*
X18488180Y-8412544D01*
X18742180Y-8412544D02*
X18792180Y-8362543D01*
X18742180Y-8312543D01*
X18692180Y-8362543D01*
X18742180Y-8412544D01*
X18996180Y-8412544D02*
X19046180Y-8362543D01*
X18996180Y-8312543D01*
X18946180Y-8362543D01*
X18996180Y-8412544D01*
X19250180Y-8412544D02*
X19300180Y-8362543D01*
X19250180Y-8312543D01*
X19200180Y-8362543D01*
X19250180Y-8412544D01*
D17*
X17925571Y-4860934D02*
X18034791Y-4970154D01*
X18034791Y-4860934D02*
X17925571Y-4970154D01*
X18034791Y-4915544D02*
G75*
G03*
X18034791Y-4915544I-54610J0D01*
G01*
X17925571Y-5114934D02*
X18034791Y-5224154D01*
X18034791Y-5114934D02*
X17925571Y-5224154D01*
X18034791Y-5169544D02*
G75*
G03*
X18034791Y-5169544I-54610J0D01*
G01*
X17925571Y-5368934D02*
X18034791Y-5478154D01*
X18034791Y-5368934D02*
X17925571Y-5478154D01*
X18034791Y-5423544D02*
G75*
G03*
X18034791Y-5423544I-54610J0D01*
G01*
X17925571Y-5622934D02*
X18034791Y-5732154D01*
X18034791Y-5622934D02*
X17925571Y-5732154D01*
X18034791Y-5677544D02*
G75*
G03*
X18034791Y-5677544I-54610J0D01*
G01*
X17925571Y-5876934D02*
X18034791Y-5986154D01*
X18034791Y-5876934D02*
X17925571Y-5986154D01*
X18034791Y-5931544D02*
G75*
G03*
X18034791Y-5931544I-54610J0D01*
G01*
X17925571Y-6130934D02*
X18034791Y-6240154D01*
X18034791Y-6130934D02*
X17925571Y-6240154D01*
X18034791Y-6185544D02*
G75*
G03*
X18034791Y-6185544I-54610J0D01*
G01*
X17925571Y-6384934D02*
X18034791Y-6494154D01*
X18034791Y-6384934D02*
X17925571Y-6494154D01*
X18034791Y-6439544D02*
G75*
G03*
X18034791Y-6439544I-54610J0D01*
G01*
X17925571Y-6638934D02*
X18034791Y-6748154D01*
X18034791Y-6638934D02*
X17925571Y-6748154D01*
X18034791Y-6693544D02*
G75*
G03*
X18034791Y-6693544I-54610J0D01*
G01*
X17925571Y-6892934D02*
X18034791Y-7002154D01*
X18034791Y-6892934D02*
X17925571Y-7002154D01*
X18034791Y-6947544D02*
G75*
G03*
X18034791Y-6947544I-54610J0D01*
G01*
X17925571Y-7146934D02*
X18034791Y-7256154D01*
X18034791Y-7146934D02*
X17925571Y-7256154D01*
X18034791Y-7201544D02*
G75*
G03*
X18034791Y-7201544I-54610J0D01*
G01*
X17925571Y-7400934D02*
X18034791Y-7510154D01*
X18034791Y-7400934D02*
X17925571Y-7510154D01*
X18034791Y-7455544D02*
G75*
G03*
X18034791Y-7455544I-54610J0D01*
G01*
X17925571Y-7654934D02*
X18034791Y-7764154D01*
X18034791Y-7654934D02*
X17925571Y-7764154D01*
X18034791Y-7709544D02*
G75*
G03*
X18034791Y-7709544I-54610J0D01*
G01*
X19449571Y-4860934D02*
X19558791Y-4970154D01*
X19558791Y-4860934D02*
X19449571Y-4970154D01*
X19558791Y-4915544D02*
G75*
G03*
X19558791Y-4915544I-54610J0D01*
G01*
X19449571Y-5114934D02*
X19558791Y-5224154D01*
X19558791Y-5114934D02*
X19449571Y-5224154D01*
X19558791Y-5169544D02*
G75*
G03*
X19558791Y-5169544I-54610J0D01*
G01*
X19449571Y-5368934D02*
X19558791Y-5478154D01*
X19558791Y-5368934D02*
X19449571Y-5478154D01*
X19558791Y-5423544D02*
G75*
G03*
X19558791Y-5423544I-54610J0D01*
G01*
X19449571Y-5622934D02*
X19558791Y-5732154D01*
X19558791Y-5622934D02*
X19449571Y-5732154D01*
X19558791Y-5677544D02*
G75*
G03*
X19558791Y-5677544I-54610J0D01*
G01*
X19449571Y-5876934D02*
X19558791Y-5986154D01*
X19558791Y-5876934D02*
X19449571Y-5986154D01*
X19558791Y-5931544D02*
G75*
G03*
X19558791Y-5931544I-54610J0D01*
G01*
X19449571Y-6130934D02*
X19558791Y-6240154D01*
X19558791Y-6130934D02*
X19449571Y-6240154D01*
X19558791Y-6185544D02*
G75*
G03*
X19558791Y-6185544I-54610J0D01*
G01*
X19449571Y-6384934D02*
X19558791Y-6494154D01*
X19558791Y-6384934D02*
X19449571Y-6494154D01*
X19558791Y-6439544D02*
G75*
G03*
X19558791Y-6439544I-54610J0D01*
G01*
X19449571Y-6638934D02*
X19558791Y-6748154D01*
X19558791Y-6638934D02*
X19449571Y-6748154D01*
X19558791Y-6693544D02*
G75*
G03*
X19558791Y-6693544I-54610J0D01*
G01*
X19449571Y-6892934D02*
X19558791Y-7002154D01*
X19558791Y-6892934D02*
X19449571Y-7002154D01*
X19558791Y-6947544D02*
G75*
G03*
X19558791Y-6947544I-54610J0D01*
G01*
X19449571Y-7146934D02*
X19558791Y-7256154D01*
X19558791Y-7146934D02*
X19449571Y-7256154D01*
X19558791Y-7201544D02*
G75*
G03*
X19558791Y-7201544I-54610J0D01*
G01*
X19449571Y-7400934D02*
X19558791Y-7510154D01*
X19558791Y-7400934D02*
X19449571Y-7510154D01*
X19558791Y-7455544D02*
G75*
G03*
X19558791Y-7455544I-54610J0D01*
G01*
X19449571Y-7654934D02*
X19558791Y-7764154D01*
X19558791Y-7654934D02*
X19449571Y-7764154D01*
X19558791Y-7709544D02*
G75*
G03*
X19558791Y-7709544I-54610J0D01*
G01*
D18*
X17925181Y-4860544D02*
X18035181Y-4970544D01*
X18035181Y-4860544D02*
X17925181Y-4970544D01*
X17980181Y-4860544D02*
X17980181Y-4970544D01*
X17925181Y-4915544D02*
X18035181Y-4915544D01*
X19449181Y-4860544D02*
X19559181Y-4970544D01*
X19559181Y-4860544D02*
X19449181Y-4970544D01*
X19504181Y-4860544D02*
X19504181Y-4970544D01*
X19449181Y-4915544D02*
X19559181Y-4915544D01*
D19*
X18352180Y-8947543D02*
X18482180Y-9077543D01*
X18482180Y-8947543D02*
X18352180Y-9077543D01*
X18463142Y-9058505D02*
X18463142Y-8966581D01*
X18371218Y-8966581D01*
X18371218Y-9058505D01*
X18463142Y-9058505D01*
X19002180Y-8947543D02*
X19132180Y-9077543D01*
X19132180Y-8947543D02*
X19002180Y-9077543D01*
X19113142Y-9058505D02*
X19113142Y-8966581D01*
X19021218Y-8966581D01*
X19021218Y-9058505D01*
X19113142Y-9058505D01*
D20*
X17882180Y-8902544D02*
X18102180Y-9122544D01*
X18102180Y-8902544D02*
X17882180Y-9122544D01*
X17992180Y-9122544D02*
X18102180Y-9012544D01*
X17992180Y-8902544D01*
X17882180Y-9012544D01*
X17992180Y-9122544D01*
X19382181Y-8902544D02*
X19602181Y-9122544D01*
X19602181Y-8902544D02*
X19382181Y-9122544D01*
X19492181Y-9122544D02*
X19602181Y-9012544D01*
X19492181Y-8902544D01*
X19382181Y-9012544D01*
X19492181Y-9122544D01*
D21*
X8647721Y-10537254D02*
X8647721Y-10947254D01*
X8442721Y-10742254D02*
X8852721Y-10742254D01*
X8852721Y-10742254D02*
G75*
G03*
X8852721Y-10742254I-205000J0D01*
G01*
X10292180Y-5777544D02*
X10292180Y-6187544D01*
X10087180Y-5982544D02*
X10497180Y-5982544D01*
X10497180Y-5982544D02*
G75*
G03*
X10497180Y-5982544I-205000J0D01*
G01*
X14092180Y-10877543D02*
X14092180Y-11287543D01*
X13887180Y-11082543D02*
X14297180Y-11082543D01*
X14297180Y-11082543D02*
G75*
G03*
X14297180Y-11082543I-205000J0D01*
G01*
X15892180Y-5902543D02*
X15892180Y-6312543D01*
X15687180Y-6107543D02*
X16097180Y-6107543D01*
X16097180Y-6107543D02*
G75*
G03*
X16097180Y-6107543I-205000J0D01*
G01*
X18430031Y-11699856D02*
X18430031Y-12109856D01*
X18225031Y-11904856D02*
X18635031Y-11904856D01*
X18635031Y-11904856D02*
G75*
G03*
X18635031Y-11904856I-205000J0D01*
G01*
D11*
X5064949Y-15034257D02*
X5064949Y-14834257D01*
X5064949Y-14834257D02*
X5112568Y-14834257D01*
X5112568Y-14834257D02*
X5141140Y-14843780D01*
X5141140Y-14843780D02*
X5160187Y-14862828D01*
X5160187Y-14862828D02*
X5169711Y-14881876D01*
X5169711Y-14881876D02*
X5179235Y-14919971D01*
X5179235Y-14919971D02*
X5179235Y-14948542D01*
X5179235Y-14948542D02*
X5169711Y-14986637D01*
X5169711Y-14986637D02*
X5160187Y-15005685D01*
X5160187Y-15005685D02*
X5141140Y-15024733D01*
X5141140Y-15024733D02*
X5112568Y-15034257D01*
X5112568Y-15034257D02*
X5064949Y-15034257D01*
X5264949Y-15034257D02*
X5264949Y-14900923D01*
X5264949Y-14939018D02*
X5274473Y-14919971D01*
X5274473Y-14919971D02*
X5283997Y-14910447D01*
X5283997Y-14910447D02*
X5303044Y-14900923D01*
X5303044Y-14900923D02*
X5322092Y-14900923D01*
X5388759Y-15034257D02*
X5388759Y-14900923D01*
X5388759Y-14834257D02*
X5379235Y-14843780D01*
X5379235Y-14843780D02*
X5388759Y-14853304D01*
X5388759Y-14853304D02*
X5398282Y-14843780D01*
X5398282Y-14843780D02*
X5388759Y-14834257D01*
X5388759Y-14834257D02*
X5388759Y-14853304D01*
X5512568Y-15034257D02*
X5493521Y-15024733D01*
X5493521Y-15024733D02*
X5483997Y-15005685D01*
X5483997Y-15005685D02*
X5483997Y-14834257D01*
X5617330Y-15034257D02*
X5598282Y-15024733D01*
X5598282Y-15024733D02*
X5588759Y-15005685D01*
X5588759Y-15005685D02*
X5588759Y-14834257D01*
X5845901Y-15034257D02*
X5845901Y-14834257D01*
X5845901Y-14834257D02*
X5912568Y-14977114D01*
X5912568Y-14977114D02*
X5979235Y-14834257D01*
X5979235Y-14834257D02*
X5979235Y-15034257D01*
X6160187Y-15034257D02*
X6160187Y-14929495D01*
X6160187Y-14929495D02*
X6150663Y-14910447D01*
X6150663Y-14910447D02*
X6131616Y-14900923D01*
X6131616Y-14900923D02*
X6093520Y-14900923D01*
X6093520Y-14900923D02*
X6074473Y-14910447D01*
X6160187Y-15024733D02*
X6141140Y-15034257D01*
X6141140Y-15034257D02*
X6093520Y-15034257D01*
X6093520Y-15034257D02*
X6074473Y-15024733D01*
X6074473Y-15024733D02*
X6064949Y-15005685D01*
X6064949Y-15005685D02*
X6064949Y-14986637D01*
X6064949Y-14986637D02*
X6074473Y-14967590D01*
X6074473Y-14967590D02*
X6093520Y-14958066D01*
X6093520Y-14958066D02*
X6141140Y-14958066D01*
X6141140Y-14958066D02*
X6160187Y-14948542D01*
X6255425Y-14900923D02*
X6255425Y-15100923D01*
X6255425Y-14910447D02*
X6274473Y-14900923D01*
X6274473Y-14900923D02*
X6312568Y-14900923D01*
X6312568Y-14900923D02*
X6331616Y-14910447D01*
X6331616Y-14910447D02*
X6341140Y-14919971D01*
X6341140Y-14919971D02*
X6350663Y-14939018D01*
X6350663Y-14939018D02*
X6350663Y-14996161D01*
X6350663Y-14996161D02*
X6341140Y-15015209D01*
X6341140Y-15015209D02*
X6331616Y-15024733D01*
X6331616Y-15024733D02*
X6312568Y-15034257D01*
X6312568Y-15034257D02*
X6274473Y-15034257D01*
X6274473Y-15034257D02*
X6255425Y-15024733D01*
X6436378Y-15015209D02*
X6445901Y-15024733D01*
X6445901Y-15024733D02*
X6436378Y-15034257D01*
X6436378Y-15034257D02*
X6426854Y-15024733D01*
X6426854Y-15024733D02*
X6436378Y-15015209D01*
X6436378Y-15015209D02*
X6436378Y-15034257D01*
X6436378Y-14910447D02*
X6445901Y-14919971D01*
X6445901Y-14919971D02*
X6436378Y-14929495D01*
X6436378Y-14929495D02*
X6426854Y-14919971D01*
X6426854Y-14919971D02*
X6436378Y-14910447D01*
X6436378Y-14910447D02*
X6436378Y-14929495D01*
D12*
X4774172Y-15347773D02*
X4804172Y-15377773D01*
X4804172Y-15347773D02*
X4774172Y-15377773D01*
D11*
X5103044Y-15254257D02*
X5122092Y-15254257D01*
X5122092Y-15254257D02*
X5141140Y-15263780D01*
X5141140Y-15263780D02*
X5150663Y-15273304D01*
X5150663Y-15273304D02*
X5160187Y-15292352D01*
X5160187Y-15292352D02*
X5169711Y-15330447D01*
X5169711Y-15330447D02*
X5169711Y-15378066D01*
X5169711Y-15378066D02*
X5160187Y-15416161D01*
X5160187Y-15416161D02*
X5150663Y-15435209D01*
X5150663Y-15435209D02*
X5141140Y-15444733D01*
X5141140Y-15444733D02*
X5122092Y-15454257D01*
X5122092Y-15454257D02*
X5103044Y-15454257D01*
X5103044Y-15454257D02*
X5083997Y-15444733D01*
X5083997Y-15444733D02*
X5074473Y-15435209D01*
X5074473Y-15435209D02*
X5064949Y-15416161D01*
X5064949Y-15416161D02*
X5055425Y-15378066D01*
X5055425Y-15378066D02*
X5055425Y-15330447D01*
X5055425Y-15330447D02*
X5064949Y-15292352D01*
X5064949Y-15292352D02*
X5074473Y-15273304D01*
X5074473Y-15273304D02*
X5083997Y-15263780D01*
X5083997Y-15263780D02*
X5103044Y-15254257D01*
X5255425Y-15435209D02*
X5264949Y-15444733D01*
X5264949Y-15444733D02*
X5255425Y-15454257D01*
X5255425Y-15454257D02*
X5245902Y-15444733D01*
X5245902Y-15444733D02*
X5255425Y-15435209D01*
X5255425Y-15435209D02*
X5255425Y-15454257D01*
X5331616Y-15254257D02*
X5455425Y-15254257D01*
X5455425Y-15254257D02*
X5388759Y-15330447D01*
X5388759Y-15330447D02*
X5417330Y-15330447D01*
X5417330Y-15330447D02*
X5436378Y-15339971D01*
X5436378Y-15339971D02*
X5445902Y-15349495D01*
X5445902Y-15349495D02*
X5455425Y-15368542D01*
X5455425Y-15368542D02*
X5455425Y-15416161D01*
X5455425Y-15416161D02*
X5445902Y-15435209D01*
X5445902Y-15435209D02*
X5436378Y-15444733D01*
X5436378Y-15444733D02*
X5417330Y-15454257D01*
X5417330Y-15454257D02*
X5360187Y-15454257D01*
X5360187Y-15454257D02*
X5341140Y-15444733D01*
X5341140Y-15444733D02*
X5331616Y-15435209D01*
X5579235Y-15254257D02*
X5598282Y-15254257D01*
X5598282Y-15254257D02*
X5617330Y-15263780D01*
X5617330Y-15263780D02*
X5626854Y-15273304D01*
X5626854Y-15273304D02*
X5636378Y-15292352D01*
X5636378Y-15292352D02*
X5645901Y-15330447D01*
X5645901Y-15330447D02*
X5645901Y-15378066D01*
X5645901Y-15378066D02*
X5636378Y-15416161D01*
X5636378Y-15416161D02*
X5626854Y-15435209D01*
X5626854Y-15435209D02*
X5617330Y-15444733D01*
X5617330Y-15444733D02*
X5598282Y-15454257D01*
X5598282Y-15454257D02*
X5579235Y-15454257D01*
X5579235Y-15454257D02*
X5560187Y-15444733D01*
X5560187Y-15444733D02*
X5550663Y-15435209D01*
X5550663Y-15435209D02*
X5541140Y-15416161D01*
X5541140Y-15416161D02*
X5531616Y-15378066D01*
X5531616Y-15378066D02*
X5531616Y-15330447D01*
X5531616Y-15330447D02*
X5541140Y-15292352D01*
X5541140Y-15292352D02*
X5550663Y-15273304D01*
X5550663Y-15273304D02*
X5560187Y-15263780D01*
X5560187Y-15263780D02*
X5579235Y-15254257D01*
X5769711Y-15254257D02*
X5788759Y-15254257D01*
X5788759Y-15254257D02*
X5807806Y-15263780D01*
X5807806Y-15263780D02*
X5817330Y-15273304D01*
X5817330Y-15273304D02*
X5826854Y-15292352D01*
X5826854Y-15292352D02*
X5836378Y-15330447D01*
X5836378Y-15330447D02*
X5836378Y-15378066D01*
X5836378Y-15378066D02*
X5826854Y-15416161D01*
X5826854Y-15416161D02*
X5817330Y-15435209D01*
X5817330Y-15435209D02*
X5807806Y-15444733D01*
X5807806Y-15444733D02*
X5788759Y-15454257D01*
X5788759Y-15454257D02*
X5769711Y-15454257D01*
X5769711Y-15454257D02*
X5750663Y-15444733D01*
X5750663Y-15444733D02*
X5741140Y-15435209D01*
X5741140Y-15435209D02*
X5731616Y-15416161D01*
X5731616Y-15416161D02*
X5722092Y-15378066D01*
X5722092Y-15378066D02*
X5722092Y-15330447D01*
X5722092Y-15330447D02*
X5731616Y-15292352D01*
X5731616Y-15292352D02*
X5741140Y-15273304D01*
X5741140Y-15273304D02*
X5750663Y-15263780D01*
X5750663Y-15263780D02*
X5769711Y-15254257D01*
X5922092Y-15454257D02*
X5922092Y-15320923D01*
X5922092Y-15339971D02*
X5931616Y-15330447D01*
X5931616Y-15330447D02*
X5950663Y-15320923D01*
X5950663Y-15320923D02*
X5979235Y-15320923D01*
X5979235Y-15320923D02*
X5998282Y-15330447D01*
X5998282Y-15330447D02*
X6007806Y-15349495D01*
X6007806Y-15349495D02*
X6007806Y-15454257D01*
X6007806Y-15349495D02*
X6017330Y-15330447D01*
X6017330Y-15330447D02*
X6036378Y-15320923D01*
X6036378Y-15320923D02*
X6064949Y-15320923D01*
X6064949Y-15320923D02*
X6083997Y-15330447D01*
X6083997Y-15330447D02*
X6093521Y-15349495D01*
X6093521Y-15349495D02*
X6093521Y-15454257D01*
X6188759Y-15454257D02*
X6188759Y-15320923D01*
X6188759Y-15339971D02*
X6198282Y-15330447D01*
X6198282Y-15330447D02*
X6217330Y-15320923D01*
X6217330Y-15320923D02*
X6245902Y-15320923D01*
X6245902Y-15320923D02*
X6264949Y-15330447D01*
X6264949Y-15330447D02*
X6274473Y-15349495D01*
X6274473Y-15349495D02*
X6274473Y-15454257D01*
X6274473Y-15349495D02*
X6283997Y-15330447D01*
X6283997Y-15330447D02*
X6303044Y-15320923D01*
X6303044Y-15320923D02*
X6331616Y-15320923D01*
X6331616Y-15320923D02*
X6350663Y-15330447D01*
X6350663Y-15330447D02*
X6360187Y-15349495D01*
X6360187Y-15349495D02*
X6360187Y-15454257D01*
X6750663Y-15244733D02*
X6579235Y-15501876D01*
X7007806Y-15254257D02*
X7026854Y-15254257D01*
X7026854Y-15254257D02*
X7045902Y-15263780D01*
X7045902Y-15263780D02*
X7055425Y-15273304D01*
X7055425Y-15273304D02*
X7064949Y-15292352D01*
X7064949Y-15292352D02*
X7074473Y-15330447D01*
X7074473Y-15330447D02*
X7074473Y-15378066D01*
X7074473Y-15378066D02*
X7064949Y-15416161D01*
X7064949Y-15416161D02*
X7055425Y-15435209D01*
X7055425Y-15435209D02*
X7045902Y-15444733D01*
X7045902Y-15444733D02*
X7026854Y-15454257D01*
X7026854Y-15454257D02*
X7007806Y-15454257D01*
X7007806Y-15454257D02*
X6988759Y-15444733D01*
X6988759Y-15444733D02*
X6979235Y-15435209D01*
X6979235Y-15435209D02*
X6969711Y-15416161D01*
X6969711Y-15416161D02*
X6960187Y-15378066D01*
X6960187Y-15378066D02*
X6960187Y-15330447D01*
X6960187Y-15330447D02*
X6969711Y-15292352D01*
X6969711Y-15292352D02*
X6979235Y-15273304D01*
X6979235Y-15273304D02*
X6988759Y-15263780D01*
X6988759Y-15263780D02*
X7007806Y-15254257D01*
X7160187Y-15435209D02*
X7169711Y-15444733D01*
X7169711Y-15444733D02*
X7160187Y-15454257D01*
X7160187Y-15454257D02*
X7150664Y-15444733D01*
X7150664Y-15444733D02*
X7160187Y-15435209D01*
X7160187Y-15435209D02*
X7160187Y-15454257D01*
X7293521Y-15254257D02*
X7312568Y-15254257D01*
X7312568Y-15254257D02*
X7331616Y-15263780D01*
X7331616Y-15263780D02*
X7341140Y-15273304D01*
X7341140Y-15273304D02*
X7350664Y-15292352D01*
X7350664Y-15292352D02*
X7360187Y-15330447D01*
X7360187Y-15330447D02*
X7360187Y-15378066D01*
X7360187Y-15378066D02*
X7350664Y-15416161D01*
X7350664Y-15416161D02*
X7341140Y-15435209D01*
X7341140Y-15435209D02*
X7331616Y-15444733D01*
X7331616Y-15444733D02*
X7312568Y-15454257D01*
X7312568Y-15454257D02*
X7293521Y-15454257D01*
X7293521Y-15454257D02*
X7274473Y-15444733D01*
X7274473Y-15444733D02*
X7264949Y-15435209D01*
X7264949Y-15435209D02*
X7255425Y-15416161D01*
X7255425Y-15416161D02*
X7245902Y-15378066D01*
X7245902Y-15378066D02*
X7245902Y-15330447D01*
X7245902Y-15330447D02*
X7255425Y-15292352D01*
X7255425Y-15292352D02*
X7264949Y-15273304D01*
X7264949Y-15273304D02*
X7274473Y-15263780D01*
X7274473Y-15263780D02*
X7293521Y-15254257D01*
X7550664Y-15454257D02*
X7436378Y-15454257D01*
X7493521Y-15454257D02*
X7493521Y-15254257D01*
X7493521Y-15254257D02*
X7474473Y-15282828D01*
X7474473Y-15282828D02*
X7455425Y-15301876D01*
X7455425Y-15301876D02*
X7436378Y-15311399D01*
X7741140Y-15454257D02*
X7626854Y-15454257D01*
X7683997Y-15454257D02*
X7683997Y-15254257D01*
X7683997Y-15254257D02*
X7664949Y-15282828D01*
X7664949Y-15282828D02*
X7645902Y-15301876D01*
X7645902Y-15301876D02*
X7626854Y-15311399D01*
X7855425Y-15339971D02*
X7836378Y-15330447D01*
X7836378Y-15330447D02*
X7826854Y-15320923D01*
X7826854Y-15320923D02*
X7817330Y-15301876D01*
X7817330Y-15301876D02*
X7817330Y-15292352D01*
X7817330Y-15292352D02*
X7826854Y-15273304D01*
X7826854Y-15273304D02*
X7836378Y-15263780D01*
X7836378Y-15263780D02*
X7855425Y-15254257D01*
X7855425Y-15254257D02*
X7893521Y-15254257D01*
X7893521Y-15254257D02*
X7912568Y-15263780D01*
X7912568Y-15263780D02*
X7922092Y-15273304D01*
X7922092Y-15273304D02*
X7931616Y-15292352D01*
X7931616Y-15292352D02*
X7931616Y-15301876D01*
X7931616Y-15301876D02*
X7922092Y-15320923D01*
X7922092Y-15320923D02*
X7912568Y-15330447D01*
X7912568Y-15330447D02*
X7893521Y-15339971D01*
X7893521Y-15339971D02*
X7855425Y-15339971D01*
X7855425Y-15339971D02*
X7836378Y-15349495D01*
X7836378Y-15349495D02*
X7826854Y-15359018D01*
X7826854Y-15359018D02*
X7817330Y-15378066D01*
X7817330Y-15378066D02*
X7817330Y-15416161D01*
X7817330Y-15416161D02*
X7826854Y-15435209D01*
X7826854Y-15435209D02*
X7836378Y-15444733D01*
X7836378Y-15444733D02*
X7855425Y-15454257D01*
X7855425Y-15454257D02*
X7893521Y-15454257D01*
X7893521Y-15454257D02*
X7912568Y-15444733D01*
X7912568Y-15444733D02*
X7922092Y-15435209D01*
X7922092Y-15435209D02*
X7931616Y-15416161D01*
X7931616Y-15416161D02*
X7931616Y-15378066D01*
X7931616Y-15378066D02*
X7922092Y-15359018D01*
X7922092Y-15359018D02*
X7912568Y-15349495D01*
X7912568Y-15349495D02*
X7893521Y-15339971D01*
X8007806Y-15254257D02*
X8007806Y-15292352D01*
X8083997Y-15254257D02*
X8083997Y-15292352D01*
X8379235Y-15530447D02*
X8369711Y-15520923D01*
X8369711Y-15520923D02*
X8350664Y-15492352D01*
X8350664Y-15492352D02*
X8341140Y-15473304D01*
X8341140Y-15473304D02*
X8331616Y-15444733D01*
X8331616Y-15444733D02*
X8322092Y-15397114D01*
X8322092Y-15397114D02*
X8322092Y-15359018D01*
X8322092Y-15359018D02*
X8331616Y-15311399D01*
X8331616Y-15311399D02*
X8341140Y-15282828D01*
X8341140Y-15282828D02*
X8350664Y-15263780D01*
X8350664Y-15263780D02*
X8369711Y-15235209D01*
X8369711Y-15235209D02*
X8379235Y-15225685D01*
X8550664Y-15254257D02*
X8455426Y-15254257D01*
X8455426Y-15254257D02*
X8445902Y-15349495D01*
X8445902Y-15349495D02*
X8455426Y-15339971D01*
X8455426Y-15339971D02*
X8474473Y-15330447D01*
X8474473Y-15330447D02*
X8522092Y-15330447D01*
X8522092Y-15330447D02*
X8541140Y-15339971D01*
X8541140Y-15339971D02*
X8550664Y-15349495D01*
X8550664Y-15349495D02*
X8560188Y-15368542D01*
X8560188Y-15368542D02*
X8560188Y-15416161D01*
X8560188Y-15416161D02*
X8550664Y-15435209D01*
X8550664Y-15435209D02*
X8541140Y-15444733D01*
X8541140Y-15444733D02*
X8522092Y-15454257D01*
X8522092Y-15454257D02*
X8474473Y-15454257D01*
X8474473Y-15454257D02*
X8455426Y-15444733D01*
X8455426Y-15444733D02*
X8445902Y-15435209D01*
X8674473Y-15339971D02*
X8655426Y-15330447D01*
X8655426Y-15330447D02*
X8645902Y-15320923D01*
X8645902Y-15320923D02*
X8636378Y-15301876D01*
X8636378Y-15301876D02*
X8636378Y-15292352D01*
X8636378Y-15292352D02*
X8645902Y-15273304D01*
X8645902Y-15273304D02*
X8655426Y-15263780D01*
X8655426Y-15263780D02*
X8674473Y-15254257D01*
X8674473Y-15254257D02*
X8712569Y-15254257D01*
X8712569Y-15254257D02*
X8731616Y-15263780D01*
X8731616Y-15263780D02*
X8741140Y-15273304D01*
X8741140Y-15273304D02*
X8750664Y-15292352D01*
X8750664Y-15292352D02*
X8750664Y-15301876D01*
X8750664Y-15301876D02*
X8741140Y-15320923D01*
X8741140Y-15320923D02*
X8731616Y-15330447D01*
X8731616Y-15330447D02*
X8712569Y-15339971D01*
X8712569Y-15339971D02*
X8674473Y-15339971D01*
X8674473Y-15339971D02*
X8655426Y-15349495D01*
X8655426Y-15349495D02*
X8645902Y-15359018D01*
X8645902Y-15359018D02*
X8636378Y-15378066D01*
X8636378Y-15378066D02*
X8636378Y-15416161D01*
X8636378Y-15416161D02*
X8645902Y-15435209D01*
X8645902Y-15435209D02*
X8655426Y-15444733D01*
X8655426Y-15444733D02*
X8674473Y-15454257D01*
X8674473Y-15454257D02*
X8712569Y-15454257D01*
X8712569Y-15454257D02*
X8731616Y-15444733D01*
X8731616Y-15444733D02*
X8741140Y-15435209D01*
X8741140Y-15435209D02*
X8750664Y-15416161D01*
X8750664Y-15416161D02*
X8750664Y-15378066D01*
X8750664Y-15378066D02*
X8741140Y-15359018D01*
X8741140Y-15359018D02*
X8731616Y-15349495D01*
X8731616Y-15349495D02*
X8712569Y-15339971D01*
X8988759Y-15454257D02*
X8988759Y-15254257D01*
X9074473Y-15454257D02*
X9074473Y-15349495D01*
X9074473Y-15349495D02*
X9064950Y-15330447D01*
X9064950Y-15330447D02*
X9045902Y-15320923D01*
X9045902Y-15320923D02*
X9017330Y-15320923D01*
X9017330Y-15320923D02*
X8998283Y-15330447D01*
X8998283Y-15330447D02*
X8988759Y-15339971D01*
X9198283Y-15454257D02*
X9179235Y-15444733D01*
X9179235Y-15444733D02*
X9169711Y-15435209D01*
X9169711Y-15435209D02*
X9160188Y-15416161D01*
X9160188Y-15416161D02*
X9160188Y-15359018D01*
X9160188Y-15359018D02*
X9169711Y-15339971D01*
X9169711Y-15339971D02*
X9179235Y-15330447D01*
X9179235Y-15330447D02*
X9198283Y-15320923D01*
X9198283Y-15320923D02*
X9226854Y-15320923D01*
X9226854Y-15320923D02*
X9245902Y-15330447D01*
X9245902Y-15330447D02*
X9255426Y-15339971D01*
X9255426Y-15339971D02*
X9264950Y-15359018D01*
X9264950Y-15359018D02*
X9264950Y-15416161D01*
X9264950Y-15416161D02*
X9255426Y-15435209D01*
X9255426Y-15435209D02*
X9245902Y-15444733D01*
X9245902Y-15444733D02*
X9226854Y-15454257D01*
X9226854Y-15454257D02*
X9198283Y-15454257D01*
X9379235Y-15454257D02*
X9360188Y-15444733D01*
X9360188Y-15444733D02*
X9350664Y-15425685D01*
X9350664Y-15425685D02*
X9350664Y-15254257D01*
X9531616Y-15444733D02*
X9512569Y-15454257D01*
X9512569Y-15454257D02*
X9474473Y-15454257D01*
X9474473Y-15454257D02*
X9455426Y-15444733D01*
X9455426Y-15444733D02*
X9445902Y-15425685D01*
X9445902Y-15425685D02*
X9445902Y-15349495D01*
X9445902Y-15349495D02*
X9455426Y-15330447D01*
X9455426Y-15330447D02*
X9474473Y-15320923D01*
X9474473Y-15320923D02*
X9512569Y-15320923D01*
X9512569Y-15320923D02*
X9531616Y-15330447D01*
X9531616Y-15330447D02*
X9541140Y-15349495D01*
X9541140Y-15349495D02*
X9541140Y-15368542D01*
X9541140Y-15368542D02*
X9445902Y-15387590D01*
X9617331Y-15444733D02*
X9636378Y-15454257D01*
X9636378Y-15454257D02*
X9674473Y-15454257D01*
X9674473Y-15454257D02*
X9693521Y-15444733D01*
X9693521Y-15444733D02*
X9703045Y-15425685D01*
X9703045Y-15425685D02*
X9703045Y-15416161D01*
X9703045Y-15416161D02*
X9693521Y-15397114D01*
X9693521Y-15397114D02*
X9674473Y-15387590D01*
X9674473Y-15387590D02*
X9645902Y-15387590D01*
X9645902Y-15387590D02*
X9626854Y-15378066D01*
X9626854Y-15378066D02*
X9617331Y-15359018D01*
X9617331Y-15359018D02*
X9617331Y-15349495D01*
X9617331Y-15349495D02*
X9626854Y-15330447D01*
X9626854Y-15330447D02*
X9645902Y-15320923D01*
X9645902Y-15320923D02*
X9674473Y-15320923D01*
X9674473Y-15320923D02*
X9693521Y-15330447D01*
X9769712Y-15530447D02*
X9779235Y-15520923D01*
X9779235Y-15520923D02*
X9798283Y-15492352D01*
X9798283Y-15492352D02*
X9807807Y-15473304D01*
X9807807Y-15473304D02*
X9817331Y-15444733D01*
X9817331Y-15444733D02*
X9826854Y-15397114D01*
X9826854Y-15397114D02*
X9826854Y-15359018D01*
X9826854Y-15359018D02*
X9817331Y-15311399D01*
X9817331Y-15311399D02*
X9807807Y-15282828D01*
X9807807Y-15282828D02*
X9798283Y-15263780D01*
X9798283Y-15263780D02*
X9779235Y-15235209D01*
X9779235Y-15235209D02*
X9769712Y-15225685D01*
D13*
X4804172Y-15626773D02*
G75*
G03*
X4804172Y-15626773I-20000J0D01*
G01*
D11*
X5103044Y-15518257D02*
X5122092Y-15518257D01*
X5122092Y-15518257D02*
X5141140Y-15527780D01*
X5141140Y-15527780D02*
X5150663Y-15537304D01*
X5150663Y-15537304D02*
X5160187Y-15556352D01*
X5160187Y-15556352D02*
X5169711Y-15594447D01*
X5169711Y-15594447D02*
X5169711Y-15642066D01*
X5169711Y-15642066D02*
X5160187Y-15680161D01*
X5160187Y-15680161D02*
X5150663Y-15699209D01*
X5150663Y-15699209D02*
X5141140Y-15708733D01*
X5141140Y-15708733D02*
X5122092Y-15718257D01*
X5122092Y-15718257D02*
X5103044Y-15718257D01*
X5103044Y-15718257D02*
X5083997Y-15708733D01*
X5083997Y-15708733D02*
X5074473Y-15699209D01*
X5074473Y-15699209D02*
X5064949Y-15680161D01*
X5064949Y-15680161D02*
X5055425Y-15642066D01*
X5055425Y-15642066D02*
X5055425Y-15594447D01*
X5055425Y-15594447D02*
X5064949Y-15556352D01*
X5064949Y-15556352D02*
X5074473Y-15537304D01*
X5074473Y-15537304D02*
X5083997Y-15527780D01*
X5083997Y-15527780D02*
X5103044Y-15518257D01*
X5255425Y-15699209D02*
X5264949Y-15708733D01*
X5264949Y-15708733D02*
X5255425Y-15718257D01*
X5255425Y-15718257D02*
X5245902Y-15708733D01*
X5245902Y-15708733D02*
X5255425Y-15699209D01*
X5255425Y-15699209D02*
X5255425Y-15718257D01*
X5436378Y-15584923D02*
X5436378Y-15718257D01*
X5388759Y-15508733D02*
X5341140Y-15651590D01*
X5341140Y-15651590D02*
X5464949Y-15651590D01*
X5579235Y-15518257D02*
X5598282Y-15518257D01*
X5598282Y-15518257D02*
X5617330Y-15527780D01*
X5617330Y-15527780D02*
X5626854Y-15537304D01*
X5626854Y-15537304D02*
X5636378Y-15556352D01*
X5636378Y-15556352D02*
X5645901Y-15594447D01*
X5645901Y-15594447D02*
X5645901Y-15642066D01*
X5645901Y-15642066D02*
X5636378Y-15680161D01*
X5636378Y-15680161D02*
X5626854Y-15699209D01*
X5626854Y-15699209D02*
X5617330Y-15708733D01*
X5617330Y-15708733D02*
X5598282Y-15718257D01*
X5598282Y-15718257D02*
X5579235Y-15718257D01*
X5579235Y-15718257D02*
X5560187Y-15708733D01*
X5560187Y-15708733D02*
X5550663Y-15699209D01*
X5550663Y-15699209D02*
X5541140Y-15680161D01*
X5541140Y-15680161D02*
X5531616Y-15642066D01*
X5531616Y-15642066D02*
X5531616Y-15594447D01*
X5531616Y-15594447D02*
X5541140Y-15556352D01*
X5541140Y-15556352D02*
X5550663Y-15537304D01*
X5550663Y-15537304D02*
X5560187Y-15527780D01*
X5560187Y-15527780D02*
X5579235Y-15518257D01*
X5769711Y-15518257D02*
X5788759Y-15518257D01*
X5788759Y-15518257D02*
X5807806Y-15527780D01*
X5807806Y-15527780D02*
X5817330Y-15537304D01*
X5817330Y-15537304D02*
X5826854Y-15556352D01*
X5826854Y-15556352D02*
X5836378Y-15594447D01*
X5836378Y-15594447D02*
X5836378Y-15642066D01*
X5836378Y-15642066D02*
X5826854Y-15680161D01*
X5826854Y-15680161D02*
X5817330Y-15699209D01*
X5817330Y-15699209D02*
X5807806Y-15708733D01*
X5807806Y-15708733D02*
X5788759Y-15718257D01*
X5788759Y-15718257D02*
X5769711Y-15718257D01*
X5769711Y-15718257D02*
X5750663Y-15708733D01*
X5750663Y-15708733D02*
X5741140Y-15699209D01*
X5741140Y-15699209D02*
X5731616Y-15680161D01*
X5731616Y-15680161D02*
X5722092Y-15642066D01*
X5722092Y-15642066D02*
X5722092Y-15594447D01*
X5722092Y-15594447D02*
X5731616Y-15556352D01*
X5731616Y-15556352D02*
X5741140Y-15537304D01*
X5741140Y-15537304D02*
X5750663Y-15527780D01*
X5750663Y-15527780D02*
X5769711Y-15518257D01*
X5922092Y-15718257D02*
X5922092Y-15584923D01*
X5922092Y-15603971D02*
X5931616Y-15594447D01*
X5931616Y-15594447D02*
X5950663Y-15584923D01*
X5950663Y-15584923D02*
X5979235Y-15584923D01*
X5979235Y-15584923D02*
X5998282Y-15594447D01*
X5998282Y-15594447D02*
X6007806Y-15613495D01*
X6007806Y-15613495D02*
X6007806Y-15718257D01*
X6007806Y-15613495D02*
X6017330Y-15594447D01*
X6017330Y-15594447D02*
X6036378Y-15584923D01*
X6036378Y-15584923D02*
X6064949Y-15584923D01*
X6064949Y-15584923D02*
X6083997Y-15594447D01*
X6083997Y-15594447D02*
X6093521Y-15613495D01*
X6093521Y-15613495D02*
X6093521Y-15718257D01*
X6188759Y-15718257D02*
X6188759Y-15584923D01*
X6188759Y-15603971D02*
X6198282Y-15594447D01*
X6198282Y-15594447D02*
X6217330Y-15584923D01*
X6217330Y-15584923D02*
X6245902Y-15584923D01*
X6245902Y-15584923D02*
X6264949Y-15594447D01*
X6264949Y-15594447D02*
X6274473Y-15613495D01*
X6274473Y-15613495D02*
X6274473Y-15718257D01*
X6274473Y-15613495D02*
X6283997Y-15594447D01*
X6283997Y-15594447D02*
X6303044Y-15584923D01*
X6303044Y-15584923D02*
X6331616Y-15584923D01*
X6331616Y-15584923D02*
X6350663Y-15594447D01*
X6350663Y-15594447D02*
X6360187Y-15613495D01*
X6360187Y-15613495D02*
X6360187Y-15718257D01*
X6750663Y-15508733D02*
X6579235Y-15765876D01*
X7007806Y-15518257D02*
X7026854Y-15518257D01*
X7026854Y-15518257D02*
X7045902Y-15527780D01*
X7045902Y-15527780D02*
X7055425Y-15537304D01*
X7055425Y-15537304D02*
X7064949Y-15556352D01*
X7064949Y-15556352D02*
X7074473Y-15594447D01*
X7074473Y-15594447D02*
X7074473Y-15642066D01*
X7074473Y-15642066D02*
X7064949Y-15680161D01*
X7064949Y-15680161D02*
X7055425Y-15699209D01*
X7055425Y-15699209D02*
X7045902Y-15708733D01*
X7045902Y-15708733D02*
X7026854Y-15718257D01*
X7026854Y-15718257D02*
X7007806Y-15718257D01*
X7007806Y-15718257D02*
X6988759Y-15708733D01*
X6988759Y-15708733D02*
X6979235Y-15699209D01*
X6979235Y-15699209D02*
X6969711Y-15680161D01*
X6969711Y-15680161D02*
X6960187Y-15642066D01*
X6960187Y-15642066D02*
X6960187Y-15594447D01*
X6960187Y-15594447D02*
X6969711Y-15556352D01*
X6969711Y-15556352D02*
X6979235Y-15537304D01*
X6979235Y-15537304D02*
X6988759Y-15527780D01*
X6988759Y-15527780D02*
X7007806Y-15518257D01*
X7160187Y-15699209D02*
X7169711Y-15708733D01*
X7169711Y-15708733D02*
X7160187Y-15718257D01*
X7160187Y-15718257D02*
X7150664Y-15708733D01*
X7150664Y-15708733D02*
X7160187Y-15699209D01*
X7160187Y-15699209D02*
X7160187Y-15718257D01*
X7293521Y-15518257D02*
X7312568Y-15518257D01*
X7312568Y-15518257D02*
X7331616Y-15527780D01*
X7331616Y-15527780D02*
X7341140Y-15537304D01*
X7341140Y-15537304D02*
X7350664Y-15556352D01*
X7350664Y-15556352D02*
X7360187Y-15594447D01*
X7360187Y-15594447D02*
X7360187Y-15642066D01*
X7360187Y-15642066D02*
X7350664Y-15680161D01*
X7350664Y-15680161D02*
X7341140Y-15699209D01*
X7341140Y-15699209D02*
X7331616Y-15708733D01*
X7331616Y-15708733D02*
X7312568Y-15718257D01*
X7312568Y-15718257D02*
X7293521Y-15718257D01*
X7293521Y-15718257D02*
X7274473Y-15708733D01*
X7274473Y-15708733D02*
X7264949Y-15699209D01*
X7264949Y-15699209D02*
X7255425Y-15680161D01*
X7255425Y-15680161D02*
X7245902Y-15642066D01*
X7245902Y-15642066D02*
X7245902Y-15594447D01*
X7245902Y-15594447D02*
X7255425Y-15556352D01*
X7255425Y-15556352D02*
X7264949Y-15537304D01*
X7264949Y-15537304D02*
X7274473Y-15527780D01*
X7274473Y-15527780D02*
X7293521Y-15518257D01*
X7550664Y-15718257D02*
X7436378Y-15718257D01*
X7493521Y-15718257D02*
X7493521Y-15518257D01*
X7493521Y-15518257D02*
X7474473Y-15546828D01*
X7474473Y-15546828D02*
X7455425Y-15565876D01*
X7455425Y-15565876D02*
X7436378Y-15575399D01*
X7731616Y-15518257D02*
X7636378Y-15518257D01*
X7636378Y-15518257D02*
X7626854Y-15613495D01*
X7626854Y-15613495D02*
X7636378Y-15603971D01*
X7636378Y-15603971D02*
X7655425Y-15594447D01*
X7655425Y-15594447D02*
X7703045Y-15594447D01*
X7703045Y-15594447D02*
X7722092Y-15603971D01*
X7722092Y-15603971D02*
X7731616Y-15613495D01*
X7731616Y-15613495D02*
X7741140Y-15632542D01*
X7741140Y-15632542D02*
X7741140Y-15680161D01*
X7741140Y-15680161D02*
X7731616Y-15699209D01*
X7731616Y-15699209D02*
X7722092Y-15708733D01*
X7722092Y-15708733D02*
X7703045Y-15718257D01*
X7703045Y-15718257D02*
X7655425Y-15718257D01*
X7655425Y-15718257D02*
X7636378Y-15708733D01*
X7636378Y-15708733D02*
X7626854Y-15699209D01*
X7807806Y-15518257D02*
X7941140Y-15518257D01*
X7941140Y-15518257D02*
X7855425Y-15718257D01*
X8007806Y-15518257D02*
X8007806Y-15556352D01*
X8083997Y-15518257D02*
X8083997Y-15556352D01*
X8379235Y-15794447D02*
X8369711Y-15784923D01*
X8369711Y-15784923D02*
X8350664Y-15756352D01*
X8350664Y-15756352D02*
X8341140Y-15737304D01*
X8341140Y-15737304D02*
X8331616Y-15708733D01*
X8331616Y-15708733D02*
X8322092Y-15661114D01*
X8322092Y-15661114D02*
X8322092Y-15623018D01*
X8322092Y-15623018D02*
X8331616Y-15575399D01*
X8331616Y-15575399D02*
X8341140Y-15546828D01*
X8341140Y-15546828D02*
X8350664Y-15527780D01*
X8350664Y-15527780D02*
X8369711Y-15499209D01*
X8369711Y-15499209D02*
X8379235Y-15489685D01*
X8560188Y-15718257D02*
X8445902Y-15718257D01*
X8503045Y-15718257D02*
X8503045Y-15518257D01*
X8503045Y-15518257D02*
X8483997Y-15546828D01*
X8483997Y-15546828D02*
X8464949Y-15565876D01*
X8464949Y-15565876D02*
X8445902Y-15575399D01*
X8750664Y-15718257D02*
X8636378Y-15718257D01*
X8693521Y-15718257D02*
X8693521Y-15518257D01*
X8693521Y-15518257D02*
X8674473Y-15546828D01*
X8674473Y-15546828D02*
X8655426Y-15565876D01*
X8655426Y-15565876D02*
X8636378Y-15575399D01*
X8922092Y-15584923D02*
X8922092Y-15718257D01*
X8874473Y-15508733D02*
X8826854Y-15651590D01*
X8826854Y-15651590D02*
X8950664Y-15651590D01*
X9179235Y-15718257D02*
X9179235Y-15518257D01*
X9264950Y-15718257D02*
X9264950Y-15613495D01*
X9264950Y-15613495D02*
X9255426Y-15594447D01*
X9255426Y-15594447D02*
X9236378Y-15584923D01*
X9236378Y-15584923D02*
X9207807Y-15584923D01*
X9207807Y-15584923D02*
X9188759Y-15594447D01*
X9188759Y-15594447D02*
X9179235Y-15603971D01*
X9388759Y-15718257D02*
X9369711Y-15708733D01*
X9369711Y-15708733D02*
X9360188Y-15699209D01*
X9360188Y-15699209D02*
X9350664Y-15680161D01*
X9350664Y-15680161D02*
X9350664Y-15623018D01*
X9350664Y-15623018D02*
X9360188Y-15603971D01*
X9360188Y-15603971D02*
X9369711Y-15594447D01*
X9369711Y-15594447D02*
X9388759Y-15584923D01*
X9388759Y-15584923D02*
X9417331Y-15584923D01*
X9417331Y-15584923D02*
X9436378Y-15594447D01*
X9436378Y-15594447D02*
X9445902Y-15603971D01*
X9445902Y-15603971D02*
X9455426Y-15623018D01*
X9455426Y-15623018D02*
X9455426Y-15680161D01*
X9455426Y-15680161D02*
X9445902Y-15699209D01*
X9445902Y-15699209D02*
X9436378Y-15708733D01*
X9436378Y-15708733D02*
X9417331Y-15718257D01*
X9417331Y-15718257D02*
X9388759Y-15718257D01*
X9569711Y-15718257D02*
X9550664Y-15708733D01*
X9550664Y-15708733D02*
X9541140Y-15689685D01*
X9541140Y-15689685D02*
X9541140Y-15518257D01*
X9722092Y-15708733D02*
X9703045Y-15718257D01*
X9703045Y-15718257D02*
X9664950Y-15718257D01*
X9664950Y-15718257D02*
X9645902Y-15708733D01*
X9645902Y-15708733D02*
X9636378Y-15689685D01*
X9636378Y-15689685D02*
X9636378Y-15613495D01*
X9636378Y-15613495D02*
X9645902Y-15594447D01*
X9645902Y-15594447D02*
X9664950Y-15584923D01*
X9664950Y-15584923D02*
X9703045Y-15584923D01*
X9703045Y-15584923D02*
X9722092Y-15594447D01*
X9722092Y-15594447D02*
X9731616Y-15613495D01*
X9731616Y-15613495D02*
X9731616Y-15632542D01*
X9731616Y-15632542D02*
X9636378Y-15651590D01*
X9807807Y-15708733D02*
X9826854Y-15718257D01*
X9826854Y-15718257D02*
X9864950Y-15718257D01*
X9864950Y-15718257D02*
X9883997Y-15708733D01*
X9883997Y-15708733D02*
X9893521Y-15689685D01*
X9893521Y-15689685D02*
X9893521Y-15680161D01*
X9893521Y-15680161D02*
X9883997Y-15661114D01*
X9883997Y-15661114D02*
X9864950Y-15651590D01*
X9864950Y-15651590D02*
X9836378Y-15651590D01*
X9836378Y-15651590D02*
X9817331Y-15642066D01*
X9817331Y-15642066D02*
X9807807Y-15623018D01*
X9807807Y-15623018D02*
X9807807Y-15613495D01*
X9807807Y-15613495D02*
X9817331Y-15594447D01*
X9817331Y-15594447D02*
X9836378Y-15584923D01*
X9836378Y-15584923D02*
X9864950Y-15584923D01*
X9864950Y-15584923D02*
X9883997Y-15594447D01*
X9960188Y-15794447D02*
X9969712Y-15784923D01*
X9969712Y-15784923D02*
X9988759Y-15756352D01*
X9988759Y-15756352D02*
X9998283Y-15737304D01*
X9998283Y-15737304D02*
X10007807Y-15708733D01*
X10007807Y-15708733D02*
X10017331Y-15661114D01*
X10017331Y-15661114D02*
X10017331Y-15623018D01*
X10017331Y-15623018D02*
X10007807Y-15575399D01*
X10007807Y-15575399D02*
X9998283Y-15546828D01*
X9998283Y-15546828D02*
X9988759Y-15527780D01*
X9988759Y-15527780D02*
X9969712Y-15499209D01*
X9969712Y-15499209D02*
X9960188Y-15489685D01*
D14*
X4764172Y-15850773D02*
X4764172Y-15930773D01*
X4724172Y-15890773D02*
X4804172Y-15890773D01*
D11*
X5103044Y-15782257D02*
X5122092Y-15782257D01*
X5122092Y-15782257D02*
X5141140Y-15791780D01*
X5141140Y-15791780D02*
X5150663Y-15801304D01*
X5150663Y-15801304D02*
X5160187Y-15820352D01*
X5160187Y-15820352D02*
X5169711Y-15858447D01*
X5169711Y-15858447D02*
X5169711Y-15906066D01*
X5169711Y-15906066D02*
X5160187Y-15944161D01*
X5160187Y-15944161D02*
X5150663Y-15963209D01*
X5150663Y-15963209D02*
X5141140Y-15972733D01*
X5141140Y-15972733D02*
X5122092Y-15982257D01*
X5122092Y-15982257D02*
X5103044Y-15982257D01*
X5103044Y-15982257D02*
X5083997Y-15972733D01*
X5083997Y-15972733D02*
X5074473Y-15963209D01*
X5074473Y-15963209D02*
X5064949Y-15944161D01*
X5064949Y-15944161D02*
X5055425Y-15906066D01*
X5055425Y-15906066D02*
X5055425Y-15858447D01*
X5055425Y-15858447D02*
X5064949Y-15820352D01*
X5064949Y-15820352D02*
X5074473Y-15801304D01*
X5074473Y-15801304D02*
X5083997Y-15791780D01*
X5083997Y-15791780D02*
X5103044Y-15782257D01*
X5255425Y-15963209D02*
X5264949Y-15972733D01*
X5264949Y-15972733D02*
X5255425Y-15982257D01*
X5255425Y-15982257D02*
X5245902Y-15972733D01*
X5245902Y-15972733D02*
X5255425Y-15963209D01*
X5255425Y-15963209D02*
X5255425Y-15982257D01*
X5379235Y-15867971D02*
X5360187Y-15858447D01*
X5360187Y-15858447D02*
X5350663Y-15848923D01*
X5350663Y-15848923D02*
X5341140Y-15829876D01*
X5341140Y-15829876D02*
X5341140Y-15820352D01*
X5341140Y-15820352D02*
X5350663Y-15801304D01*
X5350663Y-15801304D02*
X5360187Y-15791780D01*
X5360187Y-15791780D02*
X5379235Y-15782257D01*
X5379235Y-15782257D02*
X5417330Y-15782257D01*
X5417330Y-15782257D02*
X5436378Y-15791780D01*
X5436378Y-15791780D02*
X5445902Y-15801304D01*
X5445902Y-15801304D02*
X5455425Y-15820352D01*
X5455425Y-15820352D02*
X5455425Y-15829876D01*
X5455425Y-15829876D02*
X5445902Y-15848923D01*
X5445902Y-15848923D02*
X5436378Y-15858447D01*
X5436378Y-15858447D02*
X5417330Y-15867971D01*
X5417330Y-15867971D02*
X5379235Y-15867971D01*
X5379235Y-15867971D02*
X5360187Y-15877495D01*
X5360187Y-15877495D02*
X5350663Y-15887018D01*
X5350663Y-15887018D02*
X5341140Y-15906066D01*
X5341140Y-15906066D02*
X5341140Y-15944161D01*
X5341140Y-15944161D02*
X5350663Y-15963209D01*
X5350663Y-15963209D02*
X5360187Y-15972733D01*
X5360187Y-15972733D02*
X5379235Y-15982257D01*
X5379235Y-15982257D02*
X5417330Y-15982257D01*
X5417330Y-15982257D02*
X5436378Y-15972733D01*
X5436378Y-15972733D02*
X5445902Y-15963209D01*
X5445902Y-15963209D02*
X5455425Y-15944161D01*
X5455425Y-15944161D02*
X5455425Y-15906066D01*
X5455425Y-15906066D02*
X5445902Y-15887018D01*
X5445902Y-15887018D02*
X5436378Y-15877495D01*
X5436378Y-15877495D02*
X5417330Y-15867971D01*
X5579235Y-15782257D02*
X5598282Y-15782257D01*
X5598282Y-15782257D02*
X5617330Y-15791780D01*
X5617330Y-15791780D02*
X5626854Y-15801304D01*
X5626854Y-15801304D02*
X5636378Y-15820352D01*
X5636378Y-15820352D02*
X5645901Y-15858447D01*
X5645901Y-15858447D02*
X5645901Y-15906066D01*
X5645901Y-15906066D02*
X5636378Y-15944161D01*
X5636378Y-15944161D02*
X5626854Y-15963209D01*
X5626854Y-15963209D02*
X5617330Y-15972733D01*
X5617330Y-15972733D02*
X5598282Y-15982257D01*
X5598282Y-15982257D02*
X5579235Y-15982257D01*
X5579235Y-15982257D02*
X5560187Y-15972733D01*
X5560187Y-15972733D02*
X5550663Y-15963209D01*
X5550663Y-15963209D02*
X5541140Y-15944161D01*
X5541140Y-15944161D02*
X5531616Y-15906066D01*
X5531616Y-15906066D02*
X5531616Y-15858447D01*
X5531616Y-15858447D02*
X5541140Y-15820352D01*
X5541140Y-15820352D02*
X5550663Y-15801304D01*
X5550663Y-15801304D02*
X5560187Y-15791780D01*
X5560187Y-15791780D02*
X5579235Y-15782257D01*
X5769711Y-15782257D02*
X5788759Y-15782257D01*
X5788759Y-15782257D02*
X5807806Y-15791780D01*
X5807806Y-15791780D02*
X5817330Y-15801304D01*
X5817330Y-15801304D02*
X5826854Y-15820352D01*
X5826854Y-15820352D02*
X5836378Y-15858447D01*
X5836378Y-15858447D02*
X5836378Y-15906066D01*
X5836378Y-15906066D02*
X5826854Y-15944161D01*
X5826854Y-15944161D02*
X5817330Y-15963209D01*
X5817330Y-15963209D02*
X5807806Y-15972733D01*
X5807806Y-15972733D02*
X5788759Y-15982257D01*
X5788759Y-15982257D02*
X5769711Y-15982257D01*
X5769711Y-15982257D02*
X5750663Y-15972733D01*
X5750663Y-15972733D02*
X5741140Y-15963209D01*
X5741140Y-15963209D02*
X5731616Y-15944161D01*
X5731616Y-15944161D02*
X5722092Y-15906066D01*
X5722092Y-15906066D02*
X5722092Y-15858447D01*
X5722092Y-15858447D02*
X5731616Y-15820352D01*
X5731616Y-15820352D02*
X5741140Y-15801304D01*
X5741140Y-15801304D02*
X5750663Y-15791780D01*
X5750663Y-15791780D02*
X5769711Y-15782257D01*
X5922092Y-15982257D02*
X5922092Y-15848923D01*
X5922092Y-15867971D02*
X5931616Y-15858447D01*
X5931616Y-15858447D02*
X5950663Y-15848923D01*
X5950663Y-15848923D02*
X5979235Y-15848923D01*
X5979235Y-15848923D02*
X5998282Y-15858447D01*
X5998282Y-15858447D02*
X6007806Y-15877495D01*
X6007806Y-15877495D02*
X6007806Y-15982257D01*
X6007806Y-15877495D02*
X6017330Y-15858447D01*
X6017330Y-15858447D02*
X6036378Y-15848923D01*
X6036378Y-15848923D02*
X6064949Y-15848923D01*
X6064949Y-15848923D02*
X6083997Y-15858447D01*
X6083997Y-15858447D02*
X6093521Y-15877495D01*
X6093521Y-15877495D02*
X6093521Y-15982257D01*
X6188759Y-15982257D02*
X6188759Y-15848923D01*
X6188759Y-15867971D02*
X6198282Y-15858447D01*
X6198282Y-15858447D02*
X6217330Y-15848923D01*
X6217330Y-15848923D02*
X6245902Y-15848923D01*
X6245902Y-15848923D02*
X6264949Y-15858447D01*
X6264949Y-15858447D02*
X6274473Y-15877495D01*
X6274473Y-15877495D02*
X6274473Y-15982257D01*
X6274473Y-15877495D02*
X6283997Y-15858447D01*
X6283997Y-15858447D02*
X6303044Y-15848923D01*
X6303044Y-15848923D02*
X6331616Y-15848923D01*
X6331616Y-15848923D02*
X6350663Y-15858447D01*
X6350663Y-15858447D02*
X6360187Y-15877495D01*
X6360187Y-15877495D02*
X6360187Y-15982257D01*
X6750663Y-15772733D02*
X6579235Y-16029876D01*
X7007806Y-15782257D02*
X7026854Y-15782257D01*
X7026854Y-15782257D02*
X7045902Y-15791780D01*
X7045902Y-15791780D02*
X7055425Y-15801304D01*
X7055425Y-15801304D02*
X7064949Y-15820352D01*
X7064949Y-15820352D02*
X7074473Y-15858447D01*
X7074473Y-15858447D02*
X7074473Y-15906066D01*
X7074473Y-15906066D02*
X7064949Y-15944161D01*
X7064949Y-15944161D02*
X7055425Y-15963209D01*
X7055425Y-15963209D02*
X7045902Y-15972733D01*
X7045902Y-15972733D02*
X7026854Y-15982257D01*
X7026854Y-15982257D02*
X7007806Y-15982257D01*
X7007806Y-15982257D02*
X6988759Y-15972733D01*
X6988759Y-15972733D02*
X6979235Y-15963209D01*
X6979235Y-15963209D02*
X6969711Y-15944161D01*
X6969711Y-15944161D02*
X6960187Y-15906066D01*
X6960187Y-15906066D02*
X6960187Y-15858447D01*
X6960187Y-15858447D02*
X6969711Y-15820352D01*
X6969711Y-15820352D02*
X6979235Y-15801304D01*
X6979235Y-15801304D02*
X6988759Y-15791780D01*
X6988759Y-15791780D02*
X7007806Y-15782257D01*
X7160187Y-15963209D02*
X7169711Y-15972733D01*
X7169711Y-15972733D02*
X7160187Y-15982257D01*
X7160187Y-15982257D02*
X7150664Y-15972733D01*
X7150664Y-15972733D02*
X7160187Y-15963209D01*
X7160187Y-15963209D02*
X7160187Y-15982257D01*
X7293521Y-15782257D02*
X7312568Y-15782257D01*
X7312568Y-15782257D02*
X7331616Y-15791780D01*
X7331616Y-15791780D02*
X7341140Y-15801304D01*
X7341140Y-15801304D02*
X7350664Y-15820352D01*
X7350664Y-15820352D02*
X7360187Y-15858447D01*
X7360187Y-15858447D02*
X7360187Y-15906066D01*
X7360187Y-15906066D02*
X7350664Y-15944161D01*
X7350664Y-15944161D02*
X7341140Y-15963209D01*
X7341140Y-15963209D02*
X7331616Y-15972733D01*
X7331616Y-15972733D02*
X7312568Y-15982257D01*
X7312568Y-15982257D02*
X7293521Y-15982257D01*
X7293521Y-15982257D02*
X7274473Y-15972733D01*
X7274473Y-15972733D02*
X7264949Y-15963209D01*
X7264949Y-15963209D02*
X7255425Y-15944161D01*
X7255425Y-15944161D02*
X7245902Y-15906066D01*
X7245902Y-15906066D02*
X7245902Y-15858447D01*
X7245902Y-15858447D02*
X7255425Y-15820352D01*
X7255425Y-15820352D02*
X7264949Y-15801304D01*
X7264949Y-15801304D02*
X7274473Y-15791780D01*
X7274473Y-15791780D02*
X7293521Y-15782257D01*
X7426854Y-15782257D02*
X7550664Y-15782257D01*
X7550664Y-15782257D02*
X7483997Y-15858447D01*
X7483997Y-15858447D02*
X7512568Y-15858447D01*
X7512568Y-15858447D02*
X7531616Y-15867971D01*
X7531616Y-15867971D02*
X7541140Y-15877495D01*
X7541140Y-15877495D02*
X7550664Y-15896542D01*
X7550664Y-15896542D02*
X7550664Y-15944161D01*
X7550664Y-15944161D02*
X7541140Y-15963209D01*
X7541140Y-15963209D02*
X7531616Y-15972733D01*
X7531616Y-15972733D02*
X7512568Y-15982257D01*
X7512568Y-15982257D02*
X7455425Y-15982257D01*
X7455425Y-15982257D02*
X7436378Y-15972733D01*
X7436378Y-15972733D02*
X7426854Y-15963209D01*
X7741140Y-15982257D02*
X7626854Y-15982257D01*
X7683997Y-15982257D02*
X7683997Y-15782257D01*
X7683997Y-15782257D02*
X7664949Y-15810828D01*
X7664949Y-15810828D02*
X7645902Y-15829876D01*
X7645902Y-15829876D02*
X7626854Y-15839399D01*
X7922092Y-15782257D02*
X7826854Y-15782257D01*
X7826854Y-15782257D02*
X7817330Y-15877495D01*
X7817330Y-15877495D02*
X7826854Y-15867971D01*
X7826854Y-15867971D02*
X7845902Y-15858447D01*
X7845902Y-15858447D02*
X7893521Y-15858447D01*
X7893521Y-15858447D02*
X7912568Y-15867971D01*
X7912568Y-15867971D02*
X7922092Y-15877495D01*
X7922092Y-15877495D02*
X7931616Y-15896542D01*
X7931616Y-15896542D02*
X7931616Y-15944161D01*
X7931616Y-15944161D02*
X7922092Y-15963209D01*
X7922092Y-15963209D02*
X7912568Y-15972733D01*
X7912568Y-15972733D02*
X7893521Y-15982257D01*
X7893521Y-15982257D02*
X7845902Y-15982257D01*
X7845902Y-15982257D02*
X7826854Y-15972733D01*
X7826854Y-15972733D02*
X7817330Y-15963209D01*
X8007806Y-15782257D02*
X8007806Y-15820352D01*
X8083997Y-15782257D02*
X8083997Y-15820352D01*
X8379235Y-16058447D02*
X8369711Y-16048923D01*
X8369711Y-16048923D02*
X8350664Y-16020352D01*
X8350664Y-16020352D02*
X8341140Y-16001304D01*
X8341140Y-16001304D02*
X8331616Y-15972733D01*
X8331616Y-15972733D02*
X8322092Y-15925114D01*
X8322092Y-15925114D02*
X8322092Y-15887018D01*
X8322092Y-15887018D02*
X8331616Y-15839399D01*
X8331616Y-15839399D02*
X8341140Y-15810828D01*
X8341140Y-15810828D02*
X8350664Y-15791780D01*
X8350664Y-15791780D02*
X8369711Y-15763209D01*
X8369711Y-15763209D02*
X8379235Y-15753685D01*
X8445902Y-15801304D02*
X8455426Y-15791780D01*
X8455426Y-15791780D02*
X8474473Y-15782257D01*
X8474473Y-15782257D02*
X8522092Y-15782257D01*
X8522092Y-15782257D02*
X8541140Y-15791780D01*
X8541140Y-15791780D02*
X8550664Y-15801304D01*
X8550664Y-15801304D02*
X8560188Y-15820352D01*
X8560188Y-15820352D02*
X8560188Y-15839399D01*
X8560188Y-15839399D02*
X8550664Y-15867971D01*
X8550664Y-15867971D02*
X8436378Y-15982257D01*
X8436378Y-15982257D02*
X8560188Y-15982257D01*
X8798283Y-15982257D02*
X8798283Y-15782257D01*
X8883997Y-15982257D02*
X8883997Y-15877495D01*
X8883997Y-15877495D02*
X8874473Y-15858447D01*
X8874473Y-15858447D02*
X8855426Y-15848923D01*
X8855426Y-15848923D02*
X8826854Y-15848923D01*
X8826854Y-15848923D02*
X8807807Y-15858447D01*
X8807807Y-15858447D02*
X8798283Y-15867971D01*
X9007807Y-15982257D02*
X8988759Y-15972733D01*
X8988759Y-15972733D02*
X8979235Y-15963209D01*
X8979235Y-15963209D02*
X8969711Y-15944161D01*
X8969711Y-15944161D02*
X8969711Y-15887018D01*
X8969711Y-15887018D02*
X8979235Y-15867971D01*
X8979235Y-15867971D02*
X8988759Y-15858447D01*
X8988759Y-15858447D02*
X9007807Y-15848923D01*
X9007807Y-15848923D02*
X9036378Y-15848923D01*
X9036378Y-15848923D02*
X9055426Y-15858447D01*
X9055426Y-15858447D02*
X9064950Y-15867971D01*
X9064950Y-15867971D02*
X9074473Y-15887018D01*
X9074473Y-15887018D02*
X9074473Y-15944161D01*
X9074473Y-15944161D02*
X9064950Y-15963209D01*
X9064950Y-15963209D02*
X9055426Y-15972733D01*
X9055426Y-15972733D02*
X9036378Y-15982257D01*
X9036378Y-15982257D02*
X9007807Y-15982257D01*
X9188759Y-15982257D02*
X9169711Y-15972733D01*
X9169711Y-15972733D02*
X9160188Y-15953685D01*
X9160188Y-15953685D02*
X9160188Y-15782257D01*
X9341140Y-15972733D02*
X9322092Y-15982257D01*
X9322092Y-15982257D02*
X9283997Y-15982257D01*
X9283997Y-15982257D02*
X9264950Y-15972733D01*
X9264950Y-15972733D02*
X9255426Y-15953685D01*
X9255426Y-15953685D02*
X9255426Y-15877495D01*
X9255426Y-15877495D02*
X9264950Y-15858447D01*
X9264950Y-15858447D02*
X9283997Y-15848923D01*
X9283997Y-15848923D02*
X9322092Y-15848923D01*
X9322092Y-15848923D02*
X9341140Y-15858447D01*
X9341140Y-15858447D02*
X9350664Y-15877495D01*
X9350664Y-15877495D02*
X9350664Y-15896542D01*
X9350664Y-15896542D02*
X9255426Y-15915590D01*
X9426854Y-15972733D02*
X9445902Y-15982257D01*
X9445902Y-15982257D02*
X9483997Y-15982257D01*
X9483997Y-15982257D02*
X9503045Y-15972733D01*
X9503045Y-15972733D02*
X9512569Y-15953685D01*
X9512569Y-15953685D02*
X9512569Y-15944161D01*
X9512569Y-15944161D02*
X9503045Y-15925114D01*
X9503045Y-15925114D02*
X9483997Y-15915590D01*
X9483997Y-15915590D02*
X9455426Y-15915590D01*
X9455426Y-15915590D02*
X9436378Y-15906066D01*
X9436378Y-15906066D02*
X9426854Y-15887018D01*
X9426854Y-15887018D02*
X9426854Y-15877495D01*
X9426854Y-15877495D02*
X9436378Y-15858447D01*
X9436378Y-15858447D02*
X9455426Y-15848923D01*
X9455426Y-15848923D02*
X9483997Y-15848923D01*
X9483997Y-15848923D02*
X9503045Y-15858447D01*
X9579235Y-16058447D02*
X9588759Y-16048923D01*
X9588759Y-16048923D02*
X9607807Y-16020352D01*
X9607807Y-16020352D02*
X9617331Y-16001304D01*
X9617331Y-16001304D02*
X9626854Y-15972733D01*
X9626854Y-15972733D02*
X9636378Y-15925114D01*
X9636378Y-15925114D02*
X9636378Y-15887018D01*
X9636378Y-15887018D02*
X9626854Y-15839399D01*
X9626854Y-15839399D02*
X9617331Y-15810828D01*
X9617331Y-15810828D02*
X9607807Y-15791780D01*
X9607807Y-15791780D02*
X9588759Y-15763209D01*
X9588759Y-15763209D02*
X9579235Y-15753685D01*
D15*
X4790992Y-16186593D02*
X4790992Y-16122953D01*
X4727352Y-16122953D01*
X4727352Y-16186593D01*
X4790992Y-16186593D01*
D11*
X5103044Y-16046257D02*
X5122092Y-16046257D01*
X5122092Y-16046257D02*
X5141140Y-16055780D01*
X5141140Y-16055780D02*
X5150663Y-16065304D01*
X5150663Y-16065304D02*
X5160187Y-16084352D01*
X5160187Y-16084352D02*
X5169711Y-16122447D01*
X5169711Y-16122447D02*
X5169711Y-16170066D01*
X5169711Y-16170066D02*
X5160187Y-16208161D01*
X5160187Y-16208161D02*
X5150663Y-16227209D01*
X5150663Y-16227209D02*
X5141140Y-16236733D01*
X5141140Y-16236733D02*
X5122092Y-16246257D01*
X5122092Y-16246257D02*
X5103044Y-16246257D01*
X5103044Y-16246257D02*
X5083997Y-16236733D01*
X5083997Y-16236733D02*
X5074473Y-16227209D01*
X5074473Y-16227209D02*
X5064949Y-16208161D01*
X5064949Y-16208161D02*
X5055425Y-16170066D01*
X5055425Y-16170066D02*
X5055425Y-16122447D01*
X5055425Y-16122447D02*
X5064949Y-16084352D01*
X5064949Y-16084352D02*
X5074473Y-16065304D01*
X5074473Y-16065304D02*
X5083997Y-16055780D01*
X5083997Y-16055780D02*
X5103044Y-16046257D01*
X5255425Y-16227209D02*
X5264949Y-16236733D01*
X5264949Y-16236733D02*
X5255425Y-16246257D01*
X5255425Y-16246257D02*
X5245902Y-16236733D01*
X5245902Y-16236733D02*
X5255425Y-16227209D01*
X5255425Y-16227209D02*
X5255425Y-16246257D01*
X5360187Y-16246257D02*
X5398282Y-16246257D01*
X5398282Y-16246257D02*
X5417330Y-16236733D01*
X5417330Y-16236733D02*
X5426854Y-16227209D01*
X5426854Y-16227209D02*
X5445902Y-16198637D01*
X5445902Y-16198637D02*
X5455425Y-16160542D01*
X5455425Y-16160542D02*
X5455425Y-16084352D01*
X5455425Y-16084352D02*
X5445902Y-16065304D01*
X5445902Y-16065304D02*
X5436378Y-16055780D01*
X5436378Y-16055780D02*
X5417330Y-16046257D01*
X5417330Y-16046257D02*
X5379235Y-16046257D01*
X5379235Y-16046257D02*
X5360187Y-16055780D01*
X5360187Y-16055780D02*
X5350663Y-16065304D01*
X5350663Y-16065304D02*
X5341140Y-16084352D01*
X5341140Y-16084352D02*
X5341140Y-16131971D01*
X5341140Y-16131971D02*
X5350663Y-16151018D01*
X5350663Y-16151018D02*
X5360187Y-16160542D01*
X5360187Y-16160542D02*
X5379235Y-16170066D01*
X5379235Y-16170066D02*
X5417330Y-16170066D01*
X5417330Y-16170066D02*
X5436378Y-16160542D01*
X5436378Y-16160542D02*
X5445902Y-16151018D01*
X5445902Y-16151018D02*
X5455425Y-16131971D01*
X5579235Y-16046257D02*
X5598282Y-16046257D01*
X5598282Y-16046257D02*
X5617330Y-16055780D01*
X5617330Y-16055780D02*
X5626854Y-16065304D01*
X5626854Y-16065304D02*
X5636378Y-16084352D01*
X5636378Y-16084352D02*
X5645901Y-16122447D01*
X5645901Y-16122447D02*
X5645901Y-16170066D01*
X5645901Y-16170066D02*
X5636378Y-16208161D01*
X5636378Y-16208161D02*
X5626854Y-16227209D01*
X5626854Y-16227209D02*
X5617330Y-16236733D01*
X5617330Y-16236733D02*
X5598282Y-16246257D01*
X5598282Y-16246257D02*
X5579235Y-16246257D01*
X5579235Y-16246257D02*
X5560187Y-16236733D01*
X5560187Y-16236733D02*
X5550663Y-16227209D01*
X5550663Y-16227209D02*
X5541140Y-16208161D01*
X5541140Y-16208161D02*
X5531616Y-16170066D01*
X5531616Y-16170066D02*
X5531616Y-16122447D01*
X5531616Y-16122447D02*
X5541140Y-16084352D01*
X5541140Y-16084352D02*
X5550663Y-16065304D01*
X5550663Y-16065304D02*
X5560187Y-16055780D01*
X5560187Y-16055780D02*
X5579235Y-16046257D01*
X5769711Y-16046257D02*
X5788759Y-16046257D01*
X5788759Y-16046257D02*
X5807806Y-16055780D01*
X5807806Y-16055780D02*
X5817330Y-16065304D01*
X5817330Y-16065304D02*
X5826854Y-16084352D01*
X5826854Y-16084352D02*
X5836378Y-16122447D01*
X5836378Y-16122447D02*
X5836378Y-16170066D01*
X5836378Y-16170066D02*
X5826854Y-16208161D01*
X5826854Y-16208161D02*
X5817330Y-16227209D01*
X5817330Y-16227209D02*
X5807806Y-16236733D01*
X5807806Y-16236733D02*
X5788759Y-16246257D01*
X5788759Y-16246257D02*
X5769711Y-16246257D01*
X5769711Y-16246257D02*
X5750663Y-16236733D01*
X5750663Y-16236733D02*
X5741140Y-16227209D01*
X5741140Y-16227209D02*
X5731616Y-16208161D01*
X5731616Y-16208161D02*
X5722092Y-16170066D01*
X5722092Y-16170066D02*
X5722092Y-16122447D01*
X5722092Y-16122447D02*
X5731616Y-16084352D01*
X5731616Y-16084352D02*
X5741140Y-16065304D01*
X5741140Y-16065304D02*
X5750663Y-16055780D01*
X5750663Y-16055780D02*
X5769711Y-16046257D01*
X5922092Y-16246257D02*
X5922092Y-16112923D01*
X5922092Y-16131971D02*
X5931616Y-16122447D01*
X5931616Y-16122447D02*
X5950663Y-16112923D01*
X5950663Y-16112923D02*
X5979235Y-16112923D01*
X5979235Y-16112923D02*
X5998282Y-16122447D01*
X5998282Y-16122447D02*
X6007806Y-16141495D01*
X6007806Y-16141495D02*
X6007806Y-16246257D01*
X6007806Y-16141495D02*
X6017330Y-16122447D01*
X6017330Y-16122447D02*
X6036378Y-16112923D01*
X6036378Y-16112923D02*
X6064949Y-16112923D01*
X6064949Y-16112923D02*
X6083997Y-16122447D01*
X6083997Y-16122447D02*
X6093521Y-16141495D01*
X6093521Y-16141495D02*
X6093521Y-16246257D01*
X6188759Y-16246257D02*
X6188759Y-16112923D01*
X6188759Y-16131971D02*
X6198282Y-16122447D01*
X6198282Y-16122447D02*
X6217330Y-16112923D01*
X6217330Y-16112923D02*
X6245902Y-16112923D01*
X6245902Y-16112923D02*
X6264949Y-16122447D01*
X6264949Y-16122447D02*
X6274473Y-16141495D01*
X6274473Y-16141495D02*
X6274473Y-16246257D01*
X6274473Y-16141495D02*
X6283997Y-16122447D01*
X6283997Y-16122447D02*
X6303044Y-16112923D01*
X6303044Y-16112923D02*
X6331616Y-16112923D01*
X6331616Y-16112923D02*
X6350663Y-16122447D01*
X6350663Y-16122447D02*
X6360187Y-16141495D01*
X6360187Y-16141495D02*
X6360187Y-16246257D01*
X6750663Y-16036733D02*
X6579235Y-16293876D01*
X7007806Y-16046257D02*
X7026854Y-16046257D01*
X7026854Y-16046257D02*
X7045902Y-16055780D01*
X7045902Y-16055780D02*
X7055425Y-16065304D01*
X7055425Y-16065304D02*
X7064949Y-16084352D01*
X7064949Y-16084352D02*
X7074473Y-16122447D01*
X7074473Y-16122447D02*
X7074473Y-16170066D01*
X7074473Y-16170066D02*
X7064949Y-16208161D01*
X7064949Y-16208161D02*
X7055425Y-16227209D01*
X7055425Y-16227209D02*
X7045902Y-16236733D01*
X7045902Y-16236733D02*
X7026854Y-16246257D01*
X7026854Y-16246257D02*
X7007806Y-16246257D01*
X7007806Y-16246257D02*
X6988759Y-16236733D01*
X6988759Y-16236733D02*
X6979235Y-16227209D01*
X6979235Y-16227209D02*
X6969711Y-16208161D01*
X6969711Y-16208161D02*
X6960187Y-16170066D01*
X6960187Y-16170066D02*
X6960187Y-16122447D01*
X6960187Y-16122447D02*
X6969711Y-16084352D01*
X6969711Y-16084352D02*
X6979235Y-16065304D01*
X6979235Y-16065304D02*
X6988759Y-16055780D01*
X6988759Y-16055780D02*
X7007806Y-16046257D01*
X7160187Y-16227209D02*
X7169711Y-16236733D01*
X7169711Y-16236733D02*
X7160187Y-16246257D01*
X7160187Y-16246257D02*
X7150664Y-16236733D01*
X7150664Y-16236733D02*
X7160187Y-16227209D01*
X7160187Y-16227209D02*
X7160187Y-16246257D01*
X7293521Y-16046257D02*
X7312568Y-16046257D01*
X7312568Y-16046257D02*
X7331616Y-16055780D01*
X7331616Y-16055780D02*
X7341140Y-16065304D01*
X7341140Y-16065304D02*
X7350664Y-16084352D01*
X7350664Y-16084352D02*
X7360187Y-16122447D01*
X7360187Y-16122447D02*
X7360187Y-16170066D01*
X7360187Y-16170066D02*
X7350664Y-16208161D01*
X7350664Y-16208161D02*
X7341140Y-16227209D01*
X7341140Y-16227209D02*
X7331616Y-16236733D01*
X7331616Y-16236733D02*
X7312568Y-16246257D01*
X7312568Y-16246257D02*
X7293521Y-16246257D01*
X7293521Y-16246257D02*
X7274473Y-16236733D01*
X7274473Y-16236733D02*
X7264949Y-16227209D01*
X7264949Y-16227209D02*
X7255425Y-16208161D01*
X7255425Y-16208161D02*
X7245902Y-16170066D01*
X7245902Y-16170066D02*
X7245902Y-16122447D01*
X7245902Y-16122447D02*
X7255425Y-16084352D01*
X7255425Y-16084352D02*
X7264949Y-16065304D01*
X7264949Y-16065304D02*
X7274473Y-16055780D01*
X7274473Y-16055780D02*
X7293521Y-16046257D01*
X7426854Y-16046257D02*
X7550664Y-16046257D01*
X7550664Y-16046257D02*
X7483997Y-16122447D01*
X7483997Y-16122447D02*
X7512568Y-16122447D01*
X7512568Y-16122447D02*
X7531616Y-16131971D01*
X7531616Y-16131971D02*
X7541140Y-16141495D01*
X7541140Y-16141495D02*
X7550664Y-16160542D01*
X7550664Y-16160542D02*
X7550664Y-16208161D01*
X7550664Y-16208161D02*
X7541140Y-16227209D01*
X7541140Y-16227209D02*
X7531616Y-16236733D01*
X7531616Y-16236733D02*
X7512568Y-16246257D01*
X7512568Y-16246257D02*
X7455425Y-16246257D01*
X7455425Y-16246257D02*
X7436378Y-16236733D01*
X7436378Y-16236733D02*
X7426854Y-16227209D01*
X7731616Y-16046257D02*
X7636378Y-16046257D01*
X7636378Y-16046257D02*
X7626854Y-16141495D01*
X7626854Y-16141495D02*
X7636378Y-16131971D01*
X7636378Y-16131971D02*
X7655425Y-16122447D01*
X7655425Y-16122447D02*
X7703045Y-16122447D01*
X7703045Y-16122447D02*
X7722092Y-16131971D01*
X7722092Y-16131971D02*
X7731616Y-16141495D01*
X7731616Y-16141495D02*
X7741140Y-16160542D01*
X7741140Y-16160542D02*
X7741140Y-16208161D01*
X7741140Y-16208161D02*
X7731616Y-16227209D01*
X7731616Y-16227209D02*
X7722092Y-16236733D01*
X7722092Y-16236733D02*
X7703045Y-16246257D01*
X7703045Y-16246257D02*
X7655425Y-16246257D01*
X7655425Y-16246257D02*
X7636378Y-16236733D01*
X7636378Y-16236733D02*
X7626854Y-16227209D01*
X7912568Y-16112923D02*
X7912568Y-16246257D01*
X7864949Y-16036733D02*
X7817330Y-16179590D01*
X7817330Y-16179590D02*
X7941140Y-16179590D01*
X8007806Y-16046257D02*
X8007806Y-16084352D01*
X8083997Y-16046257D02*
X8083997Y-16084352D01*
X8379235Y-16322447D02*
X8369711Y-16312923D01*
X8369711Y-16312923D02*
X8350664Y-16284352D01*
X8350664Y-16284352D02*
X8341140Y-16265304D01*
X8341140Y-16265304D02*
X8331616Y-16236733D01*
X8331616Y-16236733D02*
X8322092Y-16189114D01*
X8322092Y-16189114D02*
X8322092Y-16151018D01*
X8322092Y-16151018D02*
X8331616Y-16103399D01*
X8331616Y-16103399D02*
X8341140Y-16074828D01*
X8341140Y-16074828D02*
X8350664Y-16055780D01*
X8350664Y-16055780D02*
X8369711Y-16027209D01*
X8369711Y-16027209D02*
X8379235Y-16017685D01*
X8483997Y-16131971D02*
X8464949Y-16122447D01*
X8464949Y-16122447D02*
X8455426Y-16112923D01*
X8455426Y-16112923D02*
X8445902Y-16093876D01*
X8445902Y-16093876D02*
X8445902Y-16084352D01*
X8445902Y-16084352D02*
X8455426Y-16065304D01*
X8455426Y-16065304D02*
X8464949Y-16055780D01*
X8464949Y-16055780D02*
X8483997Y-16046257D01*
X8483997Y-16046257D02*
X8522092Y-16046257D01*
X8522092Y-16046257D02*
X8541140Y-16055780D01*
X8541140Y-16055780D02*
X8550664Y-16065304D01*
X8550664Y-16065304D02*
X8560188Y-16084352D01*
X8560188Y-16084352D02*
X8560188Y-16093876D01*
X8560188Y-16093876D02*
X8550664Y-16112923D01*
X8550664Y-16112923D02*
X8541140Y-16122447D01*
X8541140Y-16122447D02*
X8522092Y-16131971D01*
X8522092Y-16131971D02*
X8483997Y-16131971D01*
X8483997Y-16131971D02*
X8464949Y-16141495D01*
X8464949Y-16141495D02*
X8455426Y-16151018D01*
X8455426Y-16151018D02*
X8445902Y-16170066D01*
X8445902Y-16170066D02*
X8445902Y-16208161D01*
X8445902Y-16208161D02*
X8455426Y-16227209D01*
X8455426Y-16227209D02*
X8464949Y-16236733D01*
X8464949Y-16236733D02*
X8483997Y-16246257D01*
X8483997Y-16246257D02*
X8522092Y-16246257D01*
X8522092Y-16246257D02*
X8541140Y-16236733D01*
X8541140Y-16236733D02*
X8550664Y-16227209D01*
X8550664Y-16227209D02*
X8560188Y-16208161D01*
X8560188Y-16208161D02*
X8560188Y-16170066D01*
X8560188Y-16170066D02*
X8550664Y-16151018D01*
X8550664Y-16151018D02*
X8541140Y-16141495D01*
X8541140Y-16141495D02*
X8522092Y-16131971D01*
X8798283Y-16246257D02*
X8798283Y-16046257D01*
X8883997Y-16246257D02*
X8883997Y-16141495D01*
X8883997Y-16141495D02*
X8874473Y-16122447D01*
X8874473Y-16122447D02*
X8855426Y-16112923D01*
X8855426Y-16112923D02*
X8826854Y-16112923D01*
X8826854Y-16112923D02*
X8807807Y-16122447D01*
X8807807Y-16122447D02*
X8798283Y-16131971D01*
X9007807Y-16246257D02*
X8988759Y-16236733D01*
X8988759Y-16236733D02*
X8979235Y-16227209D01*
X8979235Y-16227209D02*
X8969711Y-16208161D01*
X8969711Y-16208161D02*
X8969711Y-16151018D01*
X8969711Y-16151018D02*
X8979235Y-16131971D01*
X8979235Y-16131971D02*
X8988759Y-16122447D01*
X8988759Y-16122447D02*
X9007807Y-16112923D01*
X9007807Y-16112923D02*
X9036378Y-16112923D01*
X9036378Y-16112923D02*
X9055426Y-16122447D01*
X9055426Y-16122447D02*
X9064950Y-16131971D01*
X9064950Y-16131971D02*
X9074473Y-16151018D01*
X9074473Y-16151018D02*
X9074473Y-16208161D01*
X9074473Y-16208161D02*
X9064950Y-16227209D01*
X9064950Y-16227209D02*
X9055426Y-16236733D01*
X9055426Y-16236733D02*
X9036378Y-16246257D01*
X9036378Y-16246257D02*
X9007807Y-16246257D01*
X9188759Y-16246257D02*
X9169711Y-16236733D01*
X9169711Y-16236733D02*
X9160188Y-16217685D01*
X9160188Y-16217685D02*
X9160188Y-16046257D01*
X9341140Y-16236733D02*
X9322092Y-16246257D01*
X9322092Y-16246257D02*
X9283997Y-16246257D01*
X9283997Y-16246257D02*
X9264950Y-16236733D01*
X9264950Y-16236733D02*
X9255426Y-16217685D01*
X9255426Y-16217685D02*
X9255426Y-16141495D01*
X9255426Y-16141495D02*
X9264950Y-16122447D01*
X9264950Y-16122447D02*
X9283997Y-16112923D01*
X9283997Y-16112923D02*
X9322092Y-16112923D01*
X9322092Y-16112923D02*
X9341140Y-16122447D01*
X9341140Y-16122447D02*
X9350664Y-16141495D01*
X9350664Y-16141495D02*
X9350664Y-16160542D01*
X9350664Y-16160542D02*
X9255426Y-16179590D01*
X9426854Y-16236733D02*
X9445902Y-16246257D01*
X9445902Y-16246257D02*
X9483997Y-16246257D01*
X9483997Y-16246257D02*
X9503045Y-16236733D01*
X9503045Y-16236733D02*
X9512569Y-16217685D01*
X9512569Y-16217685D02*
X9512569Y-16208161D01*
X9512569Y-16208161D02*
X9503045Y-16189114D01*
X9503045Y-16189114D02*
X9483997Y-16179590D01*
X9483997Y-16179590D02*
X9455426Y-16179590D01*
X9455426Y-16179590D02*
X9436378Y-16170066D01*
X9436378Y-16170066D02*
X9426854Y-16151018D01*
X9426854Y-16151018D02*
X9426854Y-16141495D01*
X9426854Y-16141495D02*
X9436378Y-16122447D01*
X9436378Y-16122447D02*
X9455426Y-16112923D01*
X9455426Y-16112923D02*
X9483997Y-16112923D01*
X9483997Y-16112923D02*
X9503045Y-16122447D01*
X9579235Y-16322447D02*
X9588759Y-16312923D01*
X9588759Y-16312923D02*
X9607807Y-16284352D01*
X9607807Y-16284352D02*
X9617331Y-16265304D01*
X9617331Y-16265304D02*
X9626854Y-16236733D01*
X9626854Y-16236733D02*
X9636378Y-16189114D01*
X9636378Y-16189114D02*
X9636378Y-16151018D01*
X9636378Y-16151018D02*
X9626854Y-16103399D01*
X9626854Y-16103399D02*
X9617331Y-16074828D01*
X9617331Y-16074828D02*
X9607807Y-16055780D01*
X9607807Y-16055780D02*
X9588759Y-16027209D01*
X9588759Y-16027209D02*
X9579235Y-16017685D01*
D16*
X4754172Y-16468773D02*
X4804172Y-16418773D01*
X4754172Y-16368773D01*
X4704172Y-16418773D01*
X4754172Y-16468773D01*
D11*
X5169711Y-16510257D02*
X5055425Y-16510257D01*
X5112568Y-16510257D02*
X5112568Y-16310257D01*
X5112568Y-16310257D02*
X5093521Y-16338828D01*
X5093521Y-16338828D02*
X5074473Y-16357876D01*
X5074473Y-16357876D02*
X5055425Y-16367399D01*
X5255425Y-16491209D02*
X5264949Y-16500733D01*
X5264949Y-16500733D02*
X5255425Y-16510257D01*
X5255425Y-16510257D02*
X5245902Y-16500733D01*
X5245902Y-16500733D02*
X5255425Y-16491209D01*
X5255425Y-16491209D02*
X5255425Y-16510257D01*
X5388759Y-16310257D02*
X5407806Y-16310257D01*
X5407806Y-16310257D02*
X5426854Y-16319780D01*
X5426854Y-16319780D02*
X5436378Y-16329304D01*
X5436378Y-16329304D02*
X5445902Y-16348352D01*
X5445902Y-16348352D02*
X5455425Y-16386447D01*
X5455425Y-16386447D02*
X5455425Y-16434066D01*
X5455425Y-16434066D02*
X5445902Y-16472161D01*
X5445902Y-16472161D02*
X5436378Y-16491209D01*
X5436378Y-16491209D02*
X5426854Y-16500733D01*
X5426854Y-16500733D02*
X5407806Y-16510257D01*
X5407806Y-16510257D02*
X5388759Y-16510257D01*
X5388759Y-16510257D02*
X5369711Y-16500733D01*
X5369711Y-16500733D02*
X5360187Y-16491209D01*
X5360187Y-16491209D02*
X5350663Y-16472161D01*
X5350663Y-16472161D02*
X5341140Y-16434066D01*
X5341140Y-16434066D02*
X5341140Y-16386447D01*
X5341140Y-16386447D02*
X5350663Y-16348352D01*
X5350663Y-16348352D02*
X5360187Y-16329304D01*
X5360187Y-16329304D02*
X5369711Y-16319780D01*
X5369711Y-16319780D02*
X5388759Y-16310257D01*
X5579235Y-16310257D02*
X5598282Y-16310257D01*
X5598282Y-16310257D02*
X5617330Y-16319780D01*
X5617330Y-16319780D02*
X5626854Y-16329304D01*
X5626854Y-16329304D02*
X5636378Y-16348352D01*
X5636378Y-16348352D02*
X5645901Y-16386447D01*
X5645901Y-16386447D02*
X5645901Y-16434066D01*
X5645901Y-16434066D02*
X5636378Y-16472161D01*
X5636378Y-16472161D02*
X5626854Y-16491209D01*
X5626854Y-16491209D02*
X5617330Y-16500733D01*
X5617330Y-16500733D02*
X5598282Y-16510257D01*
X5598282Y-16510257D02*
X5579235Y-16510257D01*
X5579235Y-16510257D02*
X5560187Y-16500733D01*
X5560187Y-16500733D02*
X5550663Y-16491209D01*
X5550663Y-16491209D02*
X5541140Y-16472161D01*
X5541140Y-16472161D02*
X5531616Y-16434066D01*
X5531616Y-16434066D02*
X5531616Y-16386447D01*
X5531616Y-16386447D02*
X5541140Y-16348352D01*
X5541140Y-16348352D02*
X5550663Y-16329304D01*
X5550663Y-16329304D02*
X5560187Y-16319780D01*
X5560187Y-16319780D02*
X5579235Y-16310257D01*
X5769711Y-16310257D02*
X5788759Y-16310257D01*
X5788759Y-16310257D02*
X5807806Y-16319780D01*
X5807806Y-16319780D02*
X5817330Y-16329304D01*
X5817330Y-16329304D02*
X5826854Y-16348352D01*
X5826854Y-16348352D02*
X5836378Y-16386447D01*
X5836378Y-16386447D02*
X5836378Y-16434066D01*
X5836378Y-16434066D02*
X5826854Y-16472161D01*
X5826854Y-16472161D02*
X5817330Y-16491209D01*
X5817330Y-16491209D02*
X5807806Y-16500733D01*
X5807806Y-16500733D02*
X5788759Y-16510257D01*
X5788759Y-16510257D02*
X5769711Y-16510257D01*
X5769711Y-16510257D02*
X5750663Y-16500733D01*
X5750663Y-16500733D02*
X5741140Y-16491209D01*
X5741140Y-16491209D02*
X5731616Y-16472161D01*
X5731616Y-16472161D02*
X5722092Y-16434066D01*
X5722092Y-16434066D02*
X5722092Y-16386447D01*
X5722092Y-16386447D02*
X5731616Y-16348352D01*
X5731616Y-16348352D02*
X5741140Y-16329304D01*
X5741140Y-16329304D02*
X5750663Y-16319780D01*
X5750663Y-16319780D02*
X5769711Y-16310257D01*
X5922092Y-16510257D02*
X5922092Y-16376923D01*
X5922092Y-16395971D02*
X5931616Y-16386447D01*
X5931616Y-16386447D02*
X5950663Y-16376923D01*
X5950663Y-16376923D02*
X5979235Y-16376923D01*
X5979235Y-16376923D02*
X5998282Y-16386447D01*
X5998282Y-16386447D02*
X6007806Y-16405495D01*
X6007806Y-16405495D02*
X6007806Y-16510257D01*
X6007806Y-16405495D02*
X6017330Y-16386447D01*
X6017330Y-16386447D02*
X6036378Y-16376923D01*
X6036378Y-16376923D02*
X6064949Y-16376923D01*
X6064949Y-16376923D02*
X6083997Y-16386447D01*
X6083997Y-16386447D02*
X6093521Y-16405495D01*
X6093521Y-16405495D02*
X6093521Y-16510257D01*
X6188759Y-16510257D02*
X6188759Y-16376923D01*
X6188759Y-16395971D02*
X6198282Y-16386447D01*
X6198282Y-16386447D02*
X6217330Y-16376923D01*
X6217330Y-16376923D02*
X6245902Y-16376923D01*
X6245902Y-16376923D02*
X6264949Y-16386447D01*
X6264949Y-16386447D02*
X6274473Y-16405495D01*
X6274473Y-16405495D02*
X6274473Y-16510257D01*
X6274473Y-16405495D02*
X6283997Y-16386447D01*
X6283997Y-16386447D02*
X6303044Y-16376923D01*
X6303044Y-16376923D02*
X6331616Y-16376923D01*
X6331616Y-16376923D02*
X6350663Y-16386447D01*
X6350663Y-16386447D02*
X6360187Y-16405495D01*
X6360187Y-16405495D02*
X6360187Y-16510257D01*
X6750663Y-16300733D02*
X6579235Y-16557876D01*
X7007806Y-16310257D02*
X7026854Y-16310257D01*
X7026854Y-16310257D02*
X7045902Y-16319780D01*
X7045902Y-16319780D02*
X7055425Y-16329304D01*
X7055425Y-16329304D02*
X7064949Y-16348352D01*
X7064949Y-16348352D02*
X7074473Y-16386447D01*
X7074473Y-16386447D02*
X7074473Y-16434066D01*
X7074473Y-16434066D02*
X7064949Y-16472161D01*
X7064949Y-16472161D02*
X7055425Y-16491209D01*
X7055425Y-16491209D02*
X7045902Y-16500733D01*
X7045902Y-16500733D02*
X7026854Y-16510257D01*
X7026854Y-16510257D02*
X7007806Y-16510257D01*
X7007806Y-16510257D02*
X6988759Y-16500733D01*
X6988759Y-16500733D02*
X6979235Y-16491209D01*
X6979235Y-16491209D02*
X6969711Y-16472161D01*
X6969711Y-16472161D02*
X6960187Y-16434066D01*
X6960187Y-16434066D02*
X6960187Y-16386447D01*
X6960187Y-16386447D02*
X6969711Y-16348352D01*
X6969711Y-16348352D02*
X6979235Y-16329304D01*
X6979235Y-16329304D02*
X6988759Y-16319780D01*
X6988759Y-16319780D02*
X7007806Y-16310257D01*
X7160187Y-16491209D02*
X7169711Y-16500733D01*
X7169711Y-16500733D02*
X7160187Y-16510257D01*
X7160187Y-16510257D02*
X7150664Y-16500733D01*
X7150664Y-16500733D02*
X7160187Y-16491209D01*
X7160187Y-16491209D02*
X7160187Y-16510257D01*
X7293521Y-16310257D02*
X7312568Y-16310257D01*
X7312568Y-16310257D02*
X7331616Y-16319780D01*
X7331616Y-16319780D02*
X7341140Y-16329304D01*
X7341140Y-16329304D02*
X7350664Y-16348352D01*
X7350664Y-16348352D02*
X7360187Y-16386447D01*
X7360187Y-16386447D02*
X7360187Y-16434066D01*
X7360187Y-16434066D02*
X7350664Y-16472161D01*
X7350664Y-16472161D02*
X7341140Y-16491209D01*
X7341140Y-16491209D02*
X7331616Y-16500733D01*
X7331616Y-16500733D02*
X7312568Y-16510257D01*
X7312568Y-16510257D02*
X7293521Y-16510257D01*
X7293521Y-16510257D02*
X7274473Y-16500733D01*
X7274473Y-16500733D02*
X7264949Y-16491209D01*
X7264949Y-16491209D02*
X7255425Y-16472161D01*
X7255425Y-16472161D02*
X7245902Y-16434066D01*
X7245902Y-16434066D02*
X7245902Y-16386447D01*
X7245902Y-16386447D02*
X7255425Y-16348352D01*
X7255425Y-16348352D02*
X7264949Y-16329304D01*
X7264949Y-16329304D02*
X7274473Y-16319780D01*
X7274473Y-16319780D02*
X7293521Y-16310257D01*
X7426854Y-16310257D02*
X7550664Y-16310257D01*
X7550664Y-16310257D02*
X7483997Y-16386447D01*
X7483997Y-16386447D02*
X7512568Y-16386447D01*
X7512568Y-16386447D02*
X7531616Y-16395971D01*
X7531616Y-16395971D02*
X7541140Y-16405495D01*
X7541140Y-16405495D02*
X7550664Y-16424542D01*
X7550664Y-16424542D02*
X7550664Y-16472161D01*
X7550664Y-16472161D02*
X7541140Y-16491209D01*
X7541140Y-16491209D02*
X7531616Y-16500733D01*
X7531616Y-16500733D02*
X7512568Y-16510257D01*
X7512568Y-16510257D02*
X7455425Y-16510257D01*
X7455425Y-16510257D02*
X7436378Y-16500733D01*
X7436378Y-16500733D02*
X7426854Y-16491209D01*
X7645902Y-16510257D02*
X7683997Y-16510257D01*
X7683997Y-16510257D02*
X7703045Y-16500733D01*
X7703045Y-16500733D02*
X7712568Y-16491209D01*
X7712568Y-16491209D02*
X7731616Y-16462637D01*
X7731616Y-16462637D02*
X7741140Y-16424542D01*
X7741140Y-16424542D02*
X7741140Y-16348352D01*
X7741140Y-16348352D02*
X7731616Y-16329304D01*
X7731616Y-16329304D02*
X7722092Y-16319780D01*
X7722092Y-16319780D02*
X7703045Y-16310257D01*
X7703045Y-16310257D02*
X7664949Y-16310257D01*
X7664949Y-16310257D02*
X7645902Y-16319780D01*
X7645902Y-16319780D02*
X7636378Y-16329304D01*
X7636378Y-16329304D02*
X7626854Y-16348352D01*
X7626854Y-16348352D02*
X7626854Y-16395971D01*
X7626854Y-16395971D02*
X7636378Y-16415018D01*
X7636378Y-16415018D02*
X7645902Y-16424542D01*
X7645902Y-16424542D02*
X7664949Y-16434066D01*
X7664949Y-16434066D02*
X7703045Y-16434066D01*
X7703045Y-16434066D02*
X7722092Y-16424542D01*
X7722092Y-16424542D02*
X7731616Y-16415018D01*
X7731616Y-16415018D02*
X7741140Y-16395971D01*
X7912568Y-16376923D02*
X7912568Y-16510257D01*
X7864949Y-16300733D02*
X7817330Y-16443590D01*
X7817330Y-16443590D02*
X7941140Y-16443590D01*
X8007806Y-16310257D02*
X8007806Y-16348352D01*
X8083997Y-16310257D02*
X8083997Y-16348352D01*
X8379235Y-16586447D02*
X8369711Y-16576923D01*
X8369711Y-16576923D02*
X8350664Y-16548352D01*
X8350664Y-16548352D02*
X8341140Y-16529304D01*
X8341140Y-16529304D02*
X8331616Y-16500733D01*
X8331616Y-16500733D02*
X8322092Y-16453114D01*
X8322092Y-16453114D02*
X8322092Y-16415018D01*
X8322092Y-16415018D02*
X8331616Y-16367399D01*
X8331616Y-16367399D02*
X8341140Y-16338828D01*
X8341140Y-16338828D02*
X8350664Y-16319780D01*
X8350664Y-16319780D02*
X8369711Y-16291209D01*
X8369711Y-16291209D02*
X8379235Y-16281685D01*
X8550664Y-16310257D02*
X8455426Y-16310257D01*
X8455426Y-16310257D02*
X8445902Y-16405495D01*
X8445902Y-16405495D02*
X8455426Y-16395971D01*
X8455426Y-16395971D02*
X8474473Y-16386447D01*
X8474473Y-16386447D02*
X8522092Y-16386447D01*
X8522092Y-16386447D02*
X8541140Y-16395971D01*
X8541140Y-16395971D02*
X8550664Y-16405495D01*
X8550664Y-16405495D02*
X8560188Y-16424542D01*
X8560188Y-16424542D02*
X8560188Y-16472161D01*
X8560188Y-16472161D02*
X8550664Y-16491209D01*
X8550664Y-16491209D02*
X8541140Y-16500733D01*
X8541140Y-16500733D02*
X8522092Y-16510257D01*
X8522092Y-16510257D02*
X8474473Y-16510257D01*
X8474473Y-16510257D02*
X8455426Y-16500733D01*
X8455426Y-16500733D02*
X8445902Y-16491209D01*
X8798283Y-16510257D02*
X8798283Y-16310257D01*
X8883997Y-16510257D02*
X8883997Y-16405495D01*
X8883997Y-16405495D02*
X8874473Y-16386447D01*
X8874473Y-16386447D02*
X8855426Y-16376923D01*
X8855426Y-16376923D02*
X8826854Y-16376923D01*
X8826854Y-16376923D02*
X8807807Y-16386447D01*
X8807807Y-16386447D02*
X8798283Y-16395971D01*
X9007807Y-16510257D02*
X8988759Y-16500733D01*
X8988759Y-16500733D02*
X8979235Y-16491209D01*
X8979235Y-16491209D02*
X8969711Y-16472161D01*
X8969711Y-16472161D02*
X8969711Y-16415018D01*
X8969711Y-16415018D02*
X8979235Y-16395971D01*
X8979235Y-16395971D02*
X8988759Y-16386447D01*
X8988759Y-16386447D02*
X9007807Y-16376923D01*
X9007807Y-16376923D02*
X9036378Y-16376923D01*
X9036378Y-16376923D02*
X9055426Y-16386447D01*
X9055426Y-16386447D02*
X9064950Y-16395971D01*
X9064950Y-16395971D02*
X9074473Y-16415018D01*
X9074473Y-16415018D02*
X9074473Y-16472161D01*
X9074473Y-16472161D02*
X9064950Y-16491209D01*
X9064950Y-16491209D02*
X9055426Y-16500733D01*
X9055426Y-16500733D02*
X9036378Y-16510257D01*
X9036378Y-16510257D02*
X9007807Y-16510257D01*
X9188759Y-16510257D02*
X9169711Y-16500733D01*
X9169711Y-16500733D02*
X9160188Y-16481685D01*
X9160188Y-16481685D02*
X9160188Y-16310257D01*
X9341140Y-16500733D02*
X9322092Y-16510257D01*
X9322092Y-16510257D02*
X9283997Y-16510257D01*
X9283997Y-16510257D02*
X9264950Y-16500733D01*
X9264950Y-16500733D02*
X9255426Y-16481685D01*
X9255426Y-16481685D02*
X9255426Y-16405495D01*
X9255426Y-16405495D02*
X9264950Y-16386447D01*
X9264950Y-16386447D02*
X9283997Y-16376923D01*
X9283997Y-16376923D02*
X9322092Y-16376923D01*
X9322092Y-16376923D02*
X9341140Y-16386447D01*
X9341140Y-16386447D02*
X9350664Y-16405495D01*
X9350664Y-16405495D02*
X9350664Y-16424542D01*
X9350664Y-16424542D02*
X9255426Y-16443590D01*
X9426854Y-16500733D02*
X9445902Y-16510257D01*
X9445902Y-16510257D02*
X9483997Y-16510257D01*
X9483997Y-16510257D02*
X9503045Y-16500733D01*
X9503045Y-16500733D02*
X9512569Y-16481685D01*
X9512569Y-16481685D02*
X9512569Y-16472161D01*
X9512569Y-16472161D02*
X9503045Y-16453114D01*
X9503045Y-16453114D02*
X9483997Y-16443590D01*
X9483997Y-16443590D02*
X9455426Y-16443590D01*
X9455426Y-16443590D02*
X9436378Y-16434066D01*
X9436378Y-16434066D02*
X9426854Y-16415018D01*
X9426854Y-16415018D02*
X9426854Y-16405495D01*
X9426854Y-16405495D02*
X9436378Y-16386447D01*
X9436378Y-16386447D02*
X9455426Y-16376923D01*
X9455426Y-16376923D02*
X9483997Y-16376923D01*
X9483997Y-16376923D02*
X9503045Y-16386447D01*
X9579235Y-16586447D02*
X9588759Y-16576923D01*
X9588759Y-16576923D02*
X9607807Y-16548352D01*
X9607807Y-16548352D02*
X9617331Y-16529304D01*
X9617331Y-16529304D02*
X9626854Y-16500733D01*
X9626854Y-16500733D02*
X9636378Y-16453114D01*
X9636378Y-16453114D02*
X9636378Y-16415018D01*
X9636378Y-16415018D02*
X9626854Y-16367399D01*
X9626854Y-16367399D02*
X9617331Y-16338828D01*
X9617331Y-16338828D02*
X9607807Y-16319780D01*
X9607807Y-16319780D02*
X9588759Y-16291209D01*
X9588759Y-16291209D02*
X9579235Y-16281685D01*
D17*
X4694952Y-16628163D02*
X4804172Y-16737383D01*
X4804172Y-16628163D02*
X4694952Y-16737383D01*
X4804172Y-16682773D02*
G75*
G03*
X4804172Y-16682773I-54610J0D01*
G01*
D11*
X5169711Y-16774257D02*
X5055425Y-16774257D01*
X5112568Y-16774257D02*
X5112568Y-16574257D01*
X5112568Y-16574257D02*
X5093521Y-16602828D01*
X5093521Y-16602828D02*
X5074473Y-16621876D01*
X5074473Y-16621876D02*
X5055425Y-16631399D01*
X5255425Y-16755209D02*
X5264949Y-16764733D01*
X5264949Y-16764733D02*
X5255425Y-16774257D01*
X5255425Y-16774257D02*
X5245902Y-16764733D01*
X5245902Y-16764733D02*
X5255425Y-16755209D01*
X5255425Y-16755209D02*
X5255425Y-16774257D01*
X5388759Y-16574257D02*
X5407806Y-16574257D01*
X5407806Y-16574257D02*
X5426854Y-16583780D01*
X5426854Y-16583780D02*
X5436378Y-16593304D01*
X5436378Y-16593304D02*
X5445902Y-16612352D01*
X5445902Y-16612352D02*
X5455425Y-16650447D01*
X5455425Y-16650447D02*
X5455425Y-16698066D01*
X5455425Y-16698066D02*
X5445902Y-16736161D01*
X5445902Y-16736161D02*
X5436378Y-16755209D01*
X5436378Y-16755209D02*
X5426854Y-16764733D01*
X5426854Y-16764733D02*
X5407806Y-16774257D01*
X5407806Y-16774257D02*
X5388759Y-16774257D01*
X5388759Y-16774257D02*
X5369711Y-16764733D01*
X5369711Y-16764733D02*
X5360187Y-16755209D01*
X5360187Y-16755209D02*
X5350663Y-16736161D01*
X5350663Y-16736161D02*
X5341140Y-16698066D01*
X5341140Y-16698066D02*
X5341140Y-16650447D01*
X5341140Y-16650447D02*
X5350663Y-16612352D01*
X5350663Y-16612352D02*
X5360187Y-16593304D01*
X5360187Y-16593304D02*
X5369711Y-16583780D01*
X5369711Y-16583780D02*
X5388759Y-16574257D01*
X5550663Y-16774257D02*
X5588759Y-16774257D01*
X5588759Y-16774257D02*
X5607806Y-16764733D01*
X5607806Y-16764733D02*
X5617330Y-16755209D01*
X5617330Y-16755209D02*
X5636378Y-16726637D01*
X5636378Y-16726637D02*
X5645901Y-16688542D01*
X5645901Y-16688542D02*
X5645901Y-16612352D01*
X5645901Y-16612352D02*
X5636378Y-16593304D01*
X5636378Y-16593304D02*
X5626854Y-16583780D01*
X5626854Y-16583780D02*
X5607806Y-16574257D01*
X5607806Y-16574257D02*
X5569711Y-16574257D01*
X5569711Y-16574257D02*
X5550663Y-16583780D01*
X5550663Y-16583780D02*
X5541140Y-16593304D01*
X5541140Y-16593304D02*
X5531616Y-16612352D01*
X5531616Y-16612352D02*
X5531616Y-16659971D01*
X5531616Y-16659971D02*
X5541140Y-16679018D01*
X5541140Y-16679018D02*
X5550663Y-16688542D01*
X5550663Y-16688542D02*
X5569711Y-16698066D01*
X5569711Y-16698066D02*
X5607806Y-16698066D01*
X5607806Y-16698066D02*
X5626854Y-16688542D01*
X5626854Y-16688542D02*
X5636378Y-16679018D01*
X5636378Y-16679018D02*
X5645901Y-16659971D01*
X5722092Y-16593304D02*
X5731616Y-16583780D01*
X5731616Y-16583780D02*
X5750663Y-16574257D01*
X5750663Y-16574257D02*
X5798282Y-16574257D01*
X5798282Y-16574257D02*
X5817330Y-16583780D01*
X5817330Y-16583780D02*
X5826854Y-16593304D01*
X5826854Y-16593304D02*
X5836378Y-16612352D01*
X5836378Y-16612352D02*
X5836378Y-16631399D01*
X5836378Y-16631399D02*
X5826854Y-16659971D01*
X5826854Y-16659971D02*
X5712568Y-16774257D01*
X5712568Y-16774257D02*
X5836378Y-16774257D01*
X5922092Y-16774257D02*
X5922092Y-16640923D01*
X5922092Y-16659971D02*
X5931616Y-16650447D01*
X5931616Y-16650447D02*
X5950663Y-16640923D01*
X5950663Y-16640923D02*
X5979235Y-16640923D01*
X5979235Y-16640923D02*
X5998282Y-16650447D01*
X5998282Y-16650447D02*
X6007806Y-16669495D01*
X6007806Y-16669495D02*
X6007806Y-16774257D01*
X6007806Y-16669495D02*
X6017330Y-16650447D01*
X6017330Y-16650447D02*
X6036378Y-16640923D01*
X6036378Y-16640923D02*
X6064949Y-16640923D01*
X6064949Y-16640923D02*
X6083997Y-16650447D01*
X6083997Y-16650447D02*
X6093521Y-16669495D01*
X6093521Y-16669495D02*
X6093521Y-16774257D01*
X6188759Y-16774257D02*
X6188759Y-16640923D01*
X6188759Y-16659971D02*
X6198282Y-16650447D01*
X6198282Y-16650447D02*
X6217330Y-16640923D01*
X6217330Y-16640923D02*
X6245902Y-16640923D01*
X6245902Y-16640923D02*
X6264949Y-16650447D01*
X6264949Y-16650447D02*
X6274473Y-16669495D01*
X6274473Y-16669495D02*
X6274473Y-16774257D01*
X6274473Y-16669495D02*
X6283997Y-16650447D01*
X6283997Y-16650447D02*
X6303044Y-16640923D01*
X6303044Y-16640923D02*
X6331616Y-16640923D01*
X6331616Y-16640923D02*
X6350663Y-16650447D01*
X6350663Y-16650447D02*
X6360187Y-16669495D01*
X6360187Y-16669495D02*
X6360187Y-16774257D01*
X6750663Y-16564733D02*
X6579235Y-16821876D01*
X7007806Y-16574257D02*
X7026854Y-16574257D01*
X7026854Y-16574257D02*
X7045902Y-16583780D01*
X7045902Y-16583780D02*
X7055425Y-16593304D01*
X7055425Y-16593304D02*
X7064949Y-16612352D01*
X7064949Y-16612352D02*
X7074473Y-16650447D01*
X7074473Y-16650447D02*
X7074473Y-16698066D01*
X7074473Y-16698066D02*
X7064949Y-16736161D01*
X7064949Y-16736161D02*
X7055425Y-16755209D01*
X7055425Y-16755209D02*
X7045902Y-16764733D01*
X7045902Y-16764733D02*
X7026854Y-16774257D01*
X7026854Y-16774257D02*
X7007806Y-16774257D01*
X7007806Y-16774257D02*
X6988759Y-16764733D01*
X6988759Y-16764733D02*
X6979235Y-16755209D01*
X6979235Y-16755209D02*
X6969711Y-16736161D01*
X6969711Y-16736161D02*
X6960187Y-16698066D01*
X6960187Y-16698066D02*
X6960187Y-16650447D01*
X6960187Y-16650447D02*
X6969711Y-16612352D01*
X6969711Y-16612352D02*
X6979235Y-16593304D01*
X6979235Y-16593304D02*
X6988759Y-16583780D01*
X6988759Y-16583780D02*
X7007806Y-16574257D01*
X7160187Y-16755209D02*
X7169711Y-16764733D01*
X7169711Y-16764733D02*
X7160187Y-16774257D01*
X7160187Y-16774257D02*
X7150664Y-16764733D01*
X7150664Y-16764733D02*
X7160187Y-16755209D01*
X7160187Y-16755209D02*
X7160187Y-16774257D01*
X7293521Y-16574257D02*
X7312568Y-16574257D01*
X7312568Y-16574257D02*
X7331616Y-16583780D01*
X7331616Y-16583780D02*
X7341140Y-16593304D01*
X7341140Y-16593304D02*
X7350664Y-16612352D01*
X7350664Y-16612352D02*
X7360187Y-16650447D01*
X7360187Y-16650447D02*
X7360187Y-16698066D01*
X7360187Y-16698066D02*
X7350664Y-16736161D01*
X7350664Y-16736161D02*
X7341140Y-16755209D01*
X7341140Y-16755209D02*
X7331616Y-16764733D01*
X7331616Y-16764733D02*
X7312568Y-16774257D01*
X7312568Y-16774257D02*
X7293521Y-16774257D01*
X7293521Y-16774257D02*
X7274473Y-16764733D01*
X7274473Y-16764733D02*
X7264949Y-16755209D01*
X7264949Y-16755209D02*
X7255425Y-16736161D01*
X7255425Y-16736161D02*
X7245902Y-16698066D01*
X7245902Y-16698066D02*
X7245902Y-16650447D01*
X7245902Y-16650447D02*
X7255425Y-16612352D01*
X7255425Y-16612352D02*
X7264949Y-16593304D01*
X7264949Y-16593304D02*
X7274473Y-16583780D01*
X7274473Y-16583780D02*
X7293521Y-16574257D01*
X7531616Y-16640923D02*
X7531616Y-16774257D01*
X7483997Y-16564733D02*
X7436378Y-16707590D01*
X7436378Y-16707590D02*
X7560187Y-16707590D01*
X7617330Y-16574257D02*
X7741140Y-16574257D01*
X7741140Y-16574257D02*
X7674473Y-16650447D01*
X7674473Y-16650447D02*
X7703045Y-16650447D01*
X7703045Y-16650447D02*
X7722092Y-16659971D01*
X7722092Y-16659971D02*
X7731616Y-16669495D01*
X7731616Y-16669495D02*
X7741140Y-16688542D01*
X7741140Y-16688542D02*
X7741140Y-16736161D01*
X7741140Y-16736161D02*
X7731616Y-16755209D01*
X7731616Y-16755209D02*
X7722092Y-16764733D01*
X7722092Y-16764733D02*
X7703045Y-16774257D01*
X7703045Y-16774257D02*
X7645902Y-16774257D01*
X7645902Y-16774257D02*
X7626854Y-16764733D01*
X7626854Y-16764733D02*
X7617330Y-16755209D01*
X7864949Y-16574257D02*
X7883997Y-16574257D01*
X7883997Y-16574257D02*
X7903045Y-16583780D01*
X7903045Y-16583780D02*
X7912568Y-16593304D01*
X7912568Y-16593304D02*
X7922092Y-16612352D01*
X7922092Y-16612352D02*
X7931616Y-16650447D01*
X7931616Y-16650447D02*
X7931616Y-16698066D01*
X7931616Y-16698066D02*
X7922092Y-16736161D01*
X7922092Y-16736161D02*
X7912568Y-16755209D01*
X7912568Y-16755209D02*
X7903045Y-16764733D01*
X7903045Y-16764733D02*
X7883997Y-16774257D01*
X7883997Y-16774257D02*
X7864949Y-16774257D01*
X7864949Y-16774257D02*
X7845902Y-16764733D01*
X7845902Y-16764733D02*
X7836378Y-16755209D01*
X7836378Y-16755209D02*
X7826854Y-16736161D01*
X7826854Y-16736161D02*
X7817330Y-16698066D01*
X7817330Y-16698066D02*
X7817330Y-16650447D01*
X7817330Y-16650447D02*
X7826854Y-16612352D01*
X7826854Y-16612352D02*
X7836378Y-16593304D01*
X7836378Y-16593304D02*
X7845902Y-16583780D01*
X7845902Y-16583780D02*
X7864949Y-16574257D01*
X8007806Y-16574257D02*
X8007806Y-16612352D01*
X8083997Y-16574257D02*
X8083997Y-16612352D01*
X8379235Y-16850447D02*
X8369711Y-16840923D01*
X8369711Y-16840923D02*
X8350664Y-16812352D01*
X8350664Y-16812352D02*
X8341140Y-16793304D01*
X8341140Y-16793304D02*
X8331616Y-16764733D01*
X8331616Y-16764733D02*
X8322092Y-16717114D01*
X8322092Y-16717114D02*
X8322092Y-16679018D01*
X8322092Y-16679018D02*
X8331616Y-16631399D01*
X8331616Y-16631399D02*
X8341140Y-16602828D01*
X8341140Y-16602828D02*
X8350664Y-16583780D01*
X8350664Y-16583780D02*
X8369711Y-16555209D01*
X8369711Y-16555209D02*
X8379235Y-16545685D01*
X8445902Y-16593304D02*
X8455426Y-16583780D01*
X8455426Y-16583780D02*
X8474473Y-16574257D01*
X8474473Y-16574257D02*
X8522092Y-16574257D01*
X8522092Y-16574257D02*
X8541140Y-16583780D01*
X8541140Y-16583780D02*
X8550664Y-16593304D01*
X8550664Y-16593304D02*
X8560188Y-16612352D01*
X8560188Y-16612352D02*
X8560188Y-16631399D01*
X8560188Y-16631399D02*
X8550664Y-16659971D01*
X8550664Y-16659971D02*
X8436378Y-16774257D01*
X8436378Y-16774257D02*
X8560188Y-16774257D01*
X8731616Y-16640923D02*
X8731616Y-16774257D01*
X8683997Y-16564733D02*
X8636378Y-16707590D01*
X8636378Y-16707590D02*
X8760188Y-16707590D01*
X8988759Y-16774257D02*
X8988759Y-16574257D01*
X9074473Y-16774257D02*
X9074473Y-16669495D01*
X9074473Y-16669495D02*
X9064950Y-16650447D01*
X9064950Y-16650447D02*
X9045902Y-16640923D01*
X9045902Y-16640923D02*
X9017330Y-16640923D01*
X9017330Y-16640923D02*
X8998283Y-16650447D01*
X8998283Y-16650447D02*
X8988759Y-16659971D01*
X9198283Y-16774257D02*
X9179235Y-16764733D01*
X9179235Y-16764733D02*
X9169711Y-16755209D01*
X9169711Y-16755209D02*
X9160188Y-16736161D01*
X9160188Y-16736161D02*
X9160188Y-16679018D01*
X9160188Y-16679018D02*
X9169711Y-16659971D01*
X9169711Y-16659971D02*
X9179235Y-16650447D01*
X9179235Y-16650447D02*
X9198283Y-16640923D01*
X9198283Y-16640923D02*
X9226854Y-16640923D01*
X9226854Y-16640923D02*
X9245902Y-16650447D01*
X9245902Y-16650447D02*
X9255426Y-16659971D01*
X9255426Y-16659971D02*
X9264950Y-16679018D01*
X9264950Y-16679018D02*
X9264950Y-16736161D01*
X9264950Y-16736161D02*
X9255426Y-16755209D01*
X9255426Y-16755209D02*
X9245902Y-16764733D01*
X9245902Y-16764733D02*
X9226854Y-16774257D01*
X9226854Y-16774257D02*
X9198283Y-16774257D01*
X9379235Y-16774257D02*
X9360188Y-16764733D01*
X9360188Y-16764733D02*
X9350664Y-16745685D01*
X9350664Y-16745685D02*
X9350664Y-16574257D01*
X9531616Y-16764733D02*
X9512569Y-16774257D01*
X9512569Y-16774257D02*
X9474473Y-16774257D01*
X9474473Y-16774257D02*
X9455426Y-16764733D01*
X9455426Y-16764733D02*
X9445902Y-16745685D01*
X9445902Y-16745685D02*
X9445902Y-16669495D01*
X9445902Y-16669495D02*
X9455426Y-16650447D01*
X9455426Y-16650447D02*
X9474473Y-16640923D01*
X9474473Y-16640923D02*
X9512569Y-16640923D01*
X9512569Y-16640923D02*
X9531616Y-16650447D01*
X9531616Y-16650447D02*
X9541140Y-16669495D01*
X9541140Y-16669495D02*
X9541140Y-16688542D01*
X9541140Y-16688542D02*
X9445902Y-16707590D01*
X9617331Y-16764733D02*
X9636378Y-16774257D01*
X9636378Y-16774257D02*
X9674473Y-16774257D01*
X9674473Y-16774257D02*
X9693521Y-16764733D01*
X9693521Y-16764733D02*
X9703045Y-16745685D01*
X9703045Y-16745685D02*
X9703045Y-16736161D01*
X9703045Y-16736161D02*
X9693521Y-16717114D01*
X9693521Y-16717114D02*
X9674473Y-16707590D01*
X9674473Y-16707590D02*
X9645902Y-16707590D01*
X9645902Y-16707590D02*
X9626854Y-16698066D01*
X9626854Y-16698066D02*
X9617331Y-16679018D01*
X9617331Y-16679018D02*
X9617331Y-16669495D01*
X9617331Y-16669495D02*
X9626854Y-16650447D01*
X9626854Y-16650447D02*
X9645902Y-16640923D01*
X9645902Y-16640923D02*
X9674473Y-16640923D01*
X9674473Y-16640923D02*
X9693521Y-16650447D01*
X9769712Y-16850447D02*
X9779235Y-16840923D01*
X9779235Y-16840923D02*
X9798283Y-16812352D01*
X9798283Y-16812352D02*
X9807807Y-16793304D01*
X9807807Y-16793304D02*
X9817331Y-16764733D01*
X9817331Y-16764733D02*
X9826854Y-16717114D01*
X9826854Y-16717114D02*
X9826854Y-16679018D01*
X9826854Y-16679018D02*
X9817331Y-16631399D01*
X9817331Y-16631399D02*
X9807807Y-16602828D01*
X9807807Y-16602828D02*
X9798283Y-16583780D01*
X9798283Y-16583780D02*
X9779235Y-16555209D01*
X9779235Y-16555209D02*
X9769712Y-16545685D01*
D18*
X4694172Y-16891773D02*
X4804172Y-17001773D01*
X4804172Y-16891773D02*
X4694172Y-17001773D01*
X4749172Y-16891773D02*
X4749172Y-17001773D01*
X4694172Y-16946773D02*
X4804172Y-16946773D01*
D11*
X5169711Y-17038257D02*
X5055425Y-17038257D01*
X5112568Y-17038257D02*
X5112568Y-16838257D01*
X5112568Y-16838257D02*
X5093521Y-16866828D01*
X5093521Y-16866828D02*
X5074473Y-16885876D01*
X5074473Y-16885876D02*
X5055425Y-16895399D01*
X5255425Y-17019209D02*
X5264949Y-17028733D01*
X5264949Y-17028733D02*
X5255425Y-17038257D01*
X5255425Y-17038257D02*
X5245902Y-17028733D01*
X5245902Y-17028733D02*
X5255425Y-17019209D01*
X5255425Y-17019209D02*
X5255425Y-17038257D01*
X5455425Y-17038257D02*
X5341140Y-17038257D01*
X5398282Y-17038257D02*
X5398282Y-16838257D01*
X5398282Y-16838257D02*
X5379235Y-16866828D01*
X5379235Y-16866828D02*
X5360187Y-16885876D01*
X5360187Y-16885876D02*
X5341140Y-16895399D01*
X5579235Y-16838257D02*
X5598282Y-16838257D01*
X5598282Y-16838257D02*
X5617330Y-16847780D01*
X5617330Y-16847780D02*
X5626854Y-16857304D01*
X5626854Y-16857304D02*
X5636378Y-16876352D01*
X5636378Y-16876352D02*
X5645901Y-16914447D01*
X5645901Y-16914447D02*
X5645901Y-16962066D01*
X5645901Y-16962066D02*
X5636378Y-17000161D01*
X5636378Y-17000161D02*
X5626854Y-17019209D01*
X5626854Y-17019209D02*
X5617330Y-17028733D01*
X5617330Y-17028733D02*
X5598282Y-17038257D01*
X5598282Y-17038257D02*
X5579235Y-17038257D01*
X5579235Y-17038257D02*
X5560187Y-17028733D01*
X5560187Y-17028733D02*
X5550663Y-17019209D01*
X5550663Y-17019209D02*
X5541140Y-17000161D01*
X5541140Y-17000161D02*
X5531616Y-16962066D01*
X5531616Y-16962066D02*
X5531616Y-16914447D01*
X5531616Y-16914447D02*
X5541140Y-16876352D01*
X5541140Y-16876352D02*
X5550663Y-16857304D01*
X5550663Y-16857304D02*
X5560187Y-16847780D01*
X5560187Y-16847780D02*
X5579235Y-16838257D01*
X5769711Y-16838257D02*
X5788759Y-16838257D01*
X5788759Y-16838257D02*
X5807806Y-16847780D01*
X5807806Y-16847780D02*
X5817330Y-16857304D01*
X5817330Y-16857304D02*
X5826854Y-16876352D01*
X5826854Y-16876352D02*
X5836378Y-16914447D01*
X5836378Y-16914447D02*
X5836378Y-16962066D01*
X5836378Y-16962066D02*
X5826854Y-17000161D01*
X5826854Y-17000161D02*
X5817330Y-17019209D01*
X5817330Y-17019209D02*
X5807806Y-17028733D01*
X5807806Y-17028733D02*
X5788759Y-17038257D01*
X5788759Y-17038257D02*
X5769711Y-17038257D01*
X5769711Y-17038257D02*
X5750663Y-17028733D01*
X5750663Y-17028733D02*
X5741140Y-17019209D01*
X5741140Y-17019209D02*
X5731616Y-17000161D01*
X5731616Y-17000161D02*
X5722092Y-16962066D01*
X5722092Y-16962066D02*
X5722092Y-16914447D01*
X5722092Y-16914447D02*
X5731616Y-16876352D01*
X5731616Y-16876352D02*
X5741140Y-16857304D01*
X5741140Y-16857304D02*
X5750663Y-16847780D01*
X5750663Y-16847780D02*
X5769711Y-16838257D01*
X5922092Y-17038257D02*
X5922092Y-16904923D01*
X5922092Y-16923971D02*
X5931616Y-16914447D01*
X5931616Y-16914447D02*
X5950663Y-16904923D01*
X5950663Y-16904923D02*
X5979235Y-16904923D01*
X5979235Y-16904923D02*
X5998282Y-16914447D01*
X5998282Y-16914447D02*
X6007806Y-16933495D01*
X6007806Y-16933495D02*
X6007806Y-17038257D01*
X6007806Y-16933495D02*
X6017330Y-16914447D01*
X6017330Y-16914447D02*
X6036378Y-16904923D01*
X6036378Y-16904923D02*
X6064949Y-16904923D01*
X6064949Y-16904923D02*
X6083997Y-16914447D01*
X6083997Y-16914447D02*
X6093521Y-16933495D01*
X6093521Y-16933495D02*
X6093521Y-17038257D01*
X6188759Y-17038257D02*
X6188759Y-16904923D01*
X6188759Y-16923971D02*
X6198282Y-16914447D01*
X6198282Y-16914447D02*
X6217330Y-16904923D01*
X6217330Y-16904923D02*
X6245902Y-16904923D01*
X6245902Y-16904923D02*
X6264949Y-16914447D01*
X6264949Y-16914447D02*
X6274473Y-16933495D01*
X6274473Y-16933495D02*
X6274473Y-17038257D01*
X6274473Y-16933495D02*
X6283997Y-16914447D01*
X6283997Y-16914447D02*
X6303044Y-16904923D01*
X6303044Y-16904923D02*
X6331616Y-16904923D01*
X6331616Y-16904923D02*
X6350663Y-16914447D01*
X6350663Y-16914447D02*
X6360187Y-16933495D01*
X6360187Y-16933495D02*
X6360187Y-17038257D01*
X6750663Y-16828733D02*
X6579235Y-17085876D01*
X7007806Y-16838257D02*
X7026854Y-16838257D01*
X7026854Y-16838257D02*
X7045902Y-16847780D01*
X7045902Y-16847780D02*
X7055425Y-16857304D01*
X7055425Y-16857304D02*
X7064949Y-16876352D01*
X7064949Y-16876352D02*
X7074473Y-16914447D01*
X7074473Y-16914447D02*
X7074473Y-16962066D01*
X7074473Y-16962066D02*
X7064949Y-17000161D01*
X7064949Y-17000161D02*
X7055425Y-17019209D01*
X7055425Y-17019209D02*
X7045902Y-17028733D01*
X7045902Y-17028733D02*
X7026854Y-17038257D01*
X7026854Y-17038257D02*
X7007806Y-17038257D01*
X7007806Y-17038257D02*
X6988759Y-17028733D01*
X6988759Y-17028733D02*
X6979235Y-17019209D01*
X6979235Y-17019209D02*
X6969711Y-17000161D01*
X6969711Y-17000161D02*
X6960187Y-16962066D01*
X6960187Y-16962066D02*
X6960187Y-16914447D01*
X6960187Y-16914447D02*
X6969711Y-16876352D01*
X6969711Y-16876352D02*
X6979235Y-16857304D01*
X6979235Y-16857304D02*
X6988759Y-16847780D01*
X6988759Y-16847780D02*
X7007806Y-16838257D01*
X7160187Y-17019209D02*
X7169711Y-17028733D01*
X7169711Y-17028733D02*
X7160187Y-17038257D01*
X7160187Y-17038257D02*
X7150664Y-17028733D01*
X7150664Y-17028733D02*
X7160187Y-17019209D01*
X7160187Y-17019209D02*
X7160187Y-17038257D01*
X7293521Y-16838257D02*
X7312568Y-16838257D01*
X7312568Y-16838257D02*
X7331616Y-16847780D01*
X7331616Y-16847780D02*
X7341140Y-16857304D01*
X7341140Y-16857304D02*
X7350664Y-16876352D01*
X7350664Y-16876352D02*
X7360187Y-16914447D01*
X7360187Y-16914447D02*
X7360187Y-16962066D01*
X7360187Y-16962066D02*
X7350664Y-17000161D01*
X7350664Y-17000161D02*
X7341140Y-17019209D01*
X7341140Y-17019209D02*
X7331616Y-17028733D01*
X7331616Y-17028733D02*
X7312568Y-17038257D01*
X7312568Y-17038257D02*
X7293521Y-17038257D01*
X7293521Y-17038257D02*
X7274473Y-17028733D01*
X7274473Y-17028733D02*
X7264949Y-17019209D01*
X7264949Y-17019209D02*
X7255425Y-17000161D01*
X7255425Y-17000161D02*
X7245902Y-16962066D01*
X7245902Y-16962066D02*
X7245902Y-16914447D01*
X7245902Y-16914447D02*
X7255425Y-16876352D01*
X7255425Y-16876352D02*
X7264949Y-16857304D01*
X7264949Y-16857304D02*
X7274473Y-16847780D01*
X7274473Y-16847780D02*
X7293521Y-16838257D01*
X7531616Y-16904923D02*
X7531616Y-17038257D01*
X7483997Y-16828733D02*
X7436378Y-16971590D01*
X7436378Y-16971590D02*
X7560187Y-16971590D01*
X7617330Y-16838257D02*
X7741140Y-16838257D01*
X7741140Y-16838257D02*
X7674473Y-16914447D01*
X7674473Y-16914447D02*
X7703045Y-16914447D01*
X7703045Y-16914447D02*
X7722092Y-16923971D01*
X7722092Y-16923971D02*
X7731616Y-16933495D01*
X7731616Y-16933495D02*
X7741140Y-16952542D01*
X7741140Y-16952542D02*
X7741140Y-17000161D01*
X7741140Y-17000161D02*
X7731616Y-17019209D01*
X7731616Y-17019209D02*
X7722092Y-17028733D01*
X7722092Y-17028733D02*
X7703045Y-17038257D01*
X7703045Y-17038257D02*
X7645902Y-17038257D01*
X7645902Y-17038257D02*
X7626854Y-17028733D01*
X7626854Y-17028733D02*
X7617330Y-17019209D01*
X7807806Y-16838257D02*
X7931616Y-16838257D01*
X7931616Y-16838257D02*
X7864949Y-16914447D01*
X7864949Y-16914447D02*
X7893521Y-16914447D01*
X7893521Y-16914447D02*
X7912568Y-16923971D01*
X7912568Y-16923971D02*
X7922092Y-16933495D01*
X7922092Y-16933495D02*
X7931616Y-16952542D01*
X7931616Y-16952542D02*
X7931616Y-17000161D01*
X7931616Y-17000161D02*
X7922092Y-17019209D01*
X7922092Y-17019209D02*
X7912568Y-17028733D01*
X7912568Y-17028733D02*
X7893521Y-17038257D01*
X7893521Y-17038257D02*
X7836378Y-17038257D01*
X7836378Y-17038257D02*
X7817330Y-17028733D01*
X7817330Y-17028733D02*
X7807806Y-17019209D01*
X8007806Y-16838257D02*
X8007806Y-16876352D01*
X8083997Y-16838257D02*
X8083997Y-16876352D01*
X8379235Y-17114447D02*
X8369711Y-17104923D01*
X8369711Y-17104923D02*
X8350664Y-17076352D01*
X8350664Y-17076352D02*
X8341140Y-17057304D01*
X8341140Y-17057304D02*
X8331616Y-17028733D01*
X8331616Y-17028733D02*
X8322092Y-16981114D01*
X8322092Y-16981114D02*
X8322092Y-16943019D01*
X8322092Y-16943019D02*
X8331616Y-16895399D01*
X8331616Y-16895399D02*
X8341140Y-16866828D01*
X8341140Y-16866828D02*
X8350664Y-16847780D01*
X8350664Y-16847780D02*
X8369711Y-16819209D01*
X8369711Y-16819209D02*
X8379235Y-16809685D01*
X8445902Y-16857304D02*
X8455426Y-16847780D01*
X8455426Y-16847780D02*
X8474473Y-16838257D01*
X8474473Y-16838257D02*
X8522092Y-16838257D01*
X8522092Y-16838257D02*
X8541140Y-16847780D01*
X8541140Y-16847780D02*
X8550664Y-16857304D01*
X8550664Y-16857304D02*
X8560188Y-16876352D01*
X8560188Y-16876352D02*
X8560188Y-16895399D01*
X8560188Y-16895399D02*
X8550664Y-16923971D01*
X8550664Y-16923971D02*
X8436378Y-17038257D01*
X8436378Y-17038257D02*
X8560188Y-17038257D01*
X8798283Y-17038257D02*
X8798283Y-16838257D01*
X8883997Y-17038257D02*
X8883997Y-16933495D01*
X8883997Y-16933495D02*
X8874473Y-16914447D01*
X8874473Y-16914447D02*
X8855426Y-16904923D01*
X8855426Y-16904923D02*
X8826854Y-16904923D01*
X8826854Y-16904923D02*
X8807807Y-16914447D01*
X8807807Y-16914447D02*
X8798283Y-16923971D01*
X9007807Y-17038257D02*
X8988759Y-17028733D01*
X8988759Y-17028733D02*
X8979235Y-17019209D01*
X8979235Y-17019209D02*
X8969711Y-17000161D01*
X8969711Y-17000161D02*
X8969711Y-16943019D01*
X8969711Y-16943019D02*
X8979235Y-16923971D01*
X8979235Y-16923971D02*
X8988759Y-16914447D01*
X8988759Y-16914447D02*
X9007807Y-16904923D01*
X9007807Y-16904923D02*
X9036378Y-16904923D01*
X9036378Y-16904923D02*
X9055426Y-16914447D01*
X9055426Y-16914447D02*
X9064950Y-16923971D01*
X9064950Y-16923971D02*
X9074473Y-16943019D01*
X9074473Y-16943019D02*
X9074473Y-17000161D01*
X9074473Y-17000161D02*
X9064950Y-17019209D01*
X9064950Y-17019209D02*
X9055426Y-17028733D01*
X9055426Y-17028733D02*
X9036378Y-17038257D01*
X9036378Y-17038257D02*
X9007807Y-17038257D01*
X9188759Y-17038257D02*
X9169711Y-17028733D01*
X9169711Y-17028733D02*
X9160188Y-17009685D01*
X9160188Y-17009685D02*
X9160188Y-16838257D01*
X9341140Y-17028733D02*
X9322092Y-17038257D01*
X9322092Y-17038257D02*
X9283997Y-17038257D01*
X9283997Y-17038257D02*
X9264950Y-17028733D01*
X9264950Y-17028733D02*
X9255426Y-17009685D01*
X9255426Y-17009685D02*
X9255426Y-16933495D01*
X9255426Y-16933495D02*
X9264950Y-16914447D01*
X9264950Y-16914447D02*
X9283997Y-16904923D01*
X9283997Y-16904923D02*
X9322092Y-16904923D01*
X9322092Y-16904923D02*
X9341140Y-16914447D01*
X9341140Y-16914447D02*
X9350664Y-16933495D01*
X9350664Y-16933495D02*
X9350664Y-16952542D01*
X9350664Y-16952542D02*
X9255426Y-16971590D01*
X9426854Y-17028733D02*
X9445902Y-17038257D01*
X9445902Y-17038257D02*
X9483997Y-17038257D01*
X9483997Y-17038257D02*
X9503045Y-17028733D01*
X9503045Y-17028733D02*
X9512569Y-17009685D01*
X9512569Y-17009685D02*
X9512569Y-17000161D01*
X9512569Y-17000161D02*
X9503045Y-16981114D01*
X9503045Y-16981114D02*
X9483997Y-16971590D01*
X9483997Y-16971590D02*
X9455426Y-16971590D01*
X9455426Y-16971590D02*
X9436378Y-16962066D01*
X9436378Y-16962066D02*
X9426854Y-16943019D01*
X9426854Y-16943019D02*
X9426854Y-16933495D01*
X9426854Y-16933495D02*
X9436378Y-16914447D01*
X9436378Y-16914447D02*
X9455426Y-16904923D01*
X9455426Y-16904923D02*
X9483997Y-16904923D01*
X9483997Y-16904923D02*
X9503045Y-16914447D01*
X9579235Y-17114447D02*
X9588759Y-17104923D01*
X9588759Y-17104923D02*
X9607807Y-17076352D01*
X9607807Y-17076352D02*
X9617331Y-17057304D01*
X9617331Y-17057304D02*
X9626854Y-17028733D01*
X9626854Y-17028733D02*
X9636378Y-16981114D01*
X9636378Y-16981114D02*
X9636378Y-16943019D01*
X9636378Y-16943019D02*
X9626854Y-16895399D01*
X9626854Y-16895399D02*
X9617331Y-16866828D01*
X9617331Y-16866828D02*
X9607807Y-16847780D01*
X9607807Y-16847780D02*
X9588759Y-16819209D01*
X9588759Y-16819209D02*
X9579235Y-16809685D01*
D19*
X4674172Y-17145773D02*
X4804172Y-17275773D01*
X4804172Y-17145773D02*
X4674172Y-17275773D01*
X4785135Y-17256735D02*
X4785135Y-17164810D01*
X4693210Y-17164810D01*
X4693210Y-17256735D01*
X4785135Y-17256735D01*
D11*
X5169711Y-17302257D02*
X5055425Y-17302257D01*
X5112568Y-17302257D02*
X5112568Y-17102257D01*
X5112568Y-17102257D02*
X5093521Y-17130828D01*
X5093521Y-17130828D02*
X5074473Y-17149876D01*
X5074473Y-17149876D02*
X5055425Y-17159399D01*
X5255425Y-17283209D02*
X5264949Y-17292733D01*
X5264949Y-17292733D02*
X5255425Y-17302257D01*
X5255425Y-17302257D02*
X5245902Y-17292733D01*
X5245902Y-17292733D02*
X5255425Y-17283209D01*
X5255425Y-17283209D02*
X5255425Y-17302257D01*
X5331616Y-17102257D02*
X5455425Y-17102257D01*
X5455425Y-17102257D02*
X5388759Y-17178447D01*
X5388759Y-17178447D02*
X5417330Y-17178447D01*
X5417330Y-17178447D02*
X5436378Y-17187971D01*
X5436378Y-17187971D02*
X5445902Y-17197495D01*
X5445902Y-17197495D02*
X5455425Y-17216542D01*
X5455425Y-17216542D02*
X5455425Y-17264161D01*
X5455425Y-17264161D02*
X5445902Y-17283209D01*
X5445902Y-17283209D02*
X5436378Y-17292733D01*
X5436378Y-17292733D02*
X5417330Y-17302257D01*
X5417330Y-17302257D02*
X5360187Y-17302257D01*
X5360187Y-17302257D02*
X5341140Y-17292733D01*
X5341140Y-17292733D02*
X5331616Y-17283209D01*
X5579235Y-17102257D02*
X5598282Y-17102257D01*
X5598282Y-17102257D02*
X5617330Y-17111780D01*
X5617330Y-17111780D02*
X5626854Y-17121304D01*
X5626854Y-17121304D02*
X5636378Y-17140352D01*
X5636378Y-17140352D02*
X5645901Y-17178447D01*
X5645901Y-17178447D02*
X5645901Y-17226066D01*
X5645901Y-17226066D02*
X5636378Y-17264161D01*
X5636378Y-17264161D02*
X5626854Y-17283209D01*
X5626854Y-17283209D02*
X5617330Y-17292733D01*
X5617330Y-17292733D02*
X5598282Y-17302257D01*
X5598282Y-17302257D02*
X5579235Y-17302257D01*
X5579235Y-17302257D02*
X5560187Y-17292733D01*
X5560187Y-17292733D02*
X5550663Y-17283209D01*
X5550663Y-17283209D02*
X5541140Y-17264161D01*
X5541140Y-17264161D02*
X5531616Y-17226066D01*
X5531616Y-17226066D02*
X5531616Y-17178447D01*
X5531616Y-17178447D02*
X5541140Y-17140352D01*
X5541140Y-17140352D02*
X5550663Y-17121304D01*
X5550663Y-17121304D02*
X5560187Y-17111780D01*
X5560187Y-17111780D02*
X5579235Y-17102257D01*
X5769711Y-17102257D02*
X5788759Y-17102257D01*
X5788759Y-17102257D02*
X5807806Y-17111780D01*
X5807806Y-17111780D02*
X5817330Y-17121304D01*
X5817330Y-17121304D02*
X5826854Y-17140352D01*
X5826854Y-17140352D02*
X5836378Y-17178447D01*
X5836378Y-17178447D02*
X5836378Y-17226066D01*
X5836378Y-17226066D02*
X5826854Y-17264161D01*
X5826854Y-17264161D02*
X5817330Y-17283209D01*
X5817330Y-17283209D02*
X5807806Y-17292733D01*
X5807806Y-17292733D02*
X5788759Y-17302257D01*
X5788759Y-17302257D02*
X5769711Y-17302257D01*
X5769711Y-17302257D02*
X5750663Y-17292733D01*
X5750663Y-17292733D02*
X5741140Y-17283209D01*
X5741140Y-17283209D02*
X5731616Y-17264161D01*
X5731616Y-17264161D02*
X5722092Y-17226066D01*
X5722092Y-17226066D02*
X5722092Y-17178447D01*
X5722092Y-17178447D02*
X5731616Y-17140352D01*
X5731616Y-17140352D02*
X5741140Y-17121304D01*
X5741140Y-17121304D02*
X5750663Y-17111780D01*
X5750663Y-17111780D02*
X5769711Y-17102257D01*
X5922092Y-17302257D02*
X5922092Y-17168923D01*
X5922092Y-17187971D02*
X5931616Y-17178447D01*
X5931616Y-17178447D02*
X5950663Y-17168923D01*
X5950663Y-17168923D02*
X5979235Y-17168923D01*
X5979235Y-17168923D02*
X5998282Y-17178447D01*
X5998282Y-17178447D02*
X6007806Y-17197495D01*
X6007806Y-17197495D02*
X6007806Y-17302257D01*
X6007806Y-17197495D02*
X6017330Y-17178447D01*
X6017330Y-17178447D02*
X6036378Y-17168923D01*
X6036378Y-17168923D02*
X6064949Y-17168923D01*
X6064949Y-17168923D02*
X6083997Y-17178447D01*
X6083997Y-17178447D02*
X6093521Y-17197495D01*
X6093521Y-17197495D02*
X6093521Y-17302257D01*
X6188759Y-17302257D02*
X6188759Y-17168923D01*
X6188759Y-17187971D02*
X6198282Y-17178447D01*
X6198282Y-17178447D02*
X6217330Y-17168923D01*
X6217330Y-17168923D02*
X6245902Y-17168923D01*
X6245902Y-17168923D02*
X6264949Y-17178447D01*
X6264949Y-17178447D02*
X6274473Y-17197495D01*
X6274473Y-17197495D02*
X6274473Y-17302257D01*
X6274473Y-17197495D02*
X6283997Y-17178447D01*
X6283997Y-17178447D02*
X6303044Y-17168923D01*
X6303044Y-17168923D02*
X6331616Y-17168923D01*
X6331616Y-17168923D02*
X6350663Y-17178447D01*
X6350663Y-17178447D02*
X6360187Y-17197495D01*
X6360187Y-17197495D02*
X6360187Y-17302257D01*
X6750663Y-17092733D02*
X6579235Y-17349876D01*
X7007806Y-17102257D02*
X7026854Y-17102257D01*
X7026854Y-17102257D02*
X7045902Y-17111780D01*
X7045902Y-17111780D02*
X7055425Y-17121304D01*
X7055425Y-17121304D02*
X7064949Y-17140352D01*
X7064949Y-17140352D02*
X7074473Y-17178447D01*
X7074473Y-17178447D02*
X7074473Y-17226066D01*
X7074473Y-17226066D02*
X7064949Y-17264161D01*
X7064949Y-17264161D02*
X7055425Y-17283209D01*
X7055425Y-17283209D02*
X7045902Y-17292733D01*
X7045902Y-17292733D02*
X7026854Y-17302257D01*
X7026854Y-17302257D02*
X7007806Y-17302257D01*
X7007806Y-17302257D02*
X6988759Y-17292733D01*
X6988759Y-17292733D02*
X6979235Y-17283209D01*
X6979235Y-17283209D02*
X6969711Y-17264161D01*
X6969711Y-17264161D02*
X6960187Y-17226066D01*
X6960187Y-17226066D02*
X6960187Y-17178447D01*
X6960187Y-17178447D02*
X6969711Y-17140352D01*
X6969711Y-17140352D02*
X6979235Y-17121304D01*
X6979235Y-17121304D02*
X6988759Y-17111780D01*
X6988759Y-17111780D02*
X7007806Y-17102257D01*
X7160187Y-17283209D02*
X7169711Y-17292733D01*
X7169711Y-17292733D02*
X7160187Y-17302257D01*
X7160187Y-17302257D02*
X7150664Y-17292733D01*
X7150664Y-17292733D02*
X7160187Y-17283209D01*
X7160187Y-17283209D02*
X7160187Y-17302257D01*
X7293521Y-17102257D02*
X7312568Y-17102257D01*
X7312568Y-17102257D02*
X7331616Y-17111780D01*
X7331616Y-17111780D02*
X7341140Y-17121304D01*
X7341140Y-17121304D02*
X7350664Y-17140352D01*
X7350664Y-17140352D02*
X7360187Y-17178447D01*
X7360187Y-17178447D02*
X7360187Y-17226066D01*
X7360187Y-17226066D02*
X7350664Y-17264161D01*
X7350664Y-17264161D02*
X7341140Y-17283209D01*
X7341140Y-17283209D02*
X7331616Y-17292733D01*
X7331616Y-17292733D02*
X7312568Y-17302257D01*
X7312568Y-17302257D02*
X7293521Y-17302257D01*
X7293521Y-17302257D02*
X7274473Y-17292733D01*
X7274473Y-17292733D02*
X7264949Y-17283209D01*
X7264949Y-17283209D02*
X7255425Y-17264161D01*
X7255425Y-17264161D02*
X7245902Y-17226066D01*
X7245902Y-17226066D02*
X7245902Y-17178447D01*
X7245902Y-17178447D02*
X7255425Y-17140352D01*
X7255425Y-17140352D02*
X7264949Y-17121304D01*
X7264949Y-17121304D02*
X7274473Y-17111780D01*
X7274473Y-17111780D02*
X7293521Y-17102257D01*
X7541140Y-17102257D02*
X7445902Y-17102257D01*
X7445902Y-17102257D02*
X7436378Y-17197495D01*
X7436378Y-17197495D02*
X7445902Y-17187971D01*
X7445902Y-17187971D02*
X7464949Y-17178447D01*
X7464949Y-17178447D02*
X7512568Y-17178447D01*
X7512568Y-17178447D02*
X7531616Y-17187971D01*
X7531616Y-17187971D02*
X7541140Y-17197495D01*
X7541140Y-17197495D02*
X7550664Y-17216542D01*
X7550664Y-17216542D02*
X7550664Y-17264161D01*
X7550664Y-17264161D02*
X7541140Y-17283209D01*
X7541140Y-17283209D02*
X7531616Y-17292733D01*
X7531616Y-17292733D02*
X7512568Y-17302257D01*
X7512568Y-17302257D02*
X7464949Y-17302257D01*
X7464949Y-17302257D02*
X7445902Y-17292733D01*
X7445902Y-17292733D02*
X7436378Y-17283209D01*
X7741140Y-17302257D02*
X7626854Y-17302257D01*
X7683997Y-17302257D02*
X7683997Y-17102257D01*
X7683997Y-17102257D02*
X7664949Y-17130828D01*
X7664949Y-17130828D02*
X7645902Y-17149876D01*
X7645902Y-17149876D02*
X7626854Y-17159399D01*
X7817330Y-17121304D02*
X7826854Y-17111780D01*
X7826854Y-17111780D02*
X7845902Y-17102257D01*
X7845902Y-17102257D02*
X7893521Y-17102257D01*
X7893521Y-17102257D02*
X7912568Y-17111780D01*
X7912568Y-17111780D02*
X7922092Y-17121304D01*
X7922092Y-17121304D02*
X7931616Y-17140352D01*
X7931616Y-17140352D02*
X7931616Y-17159399D01*
X7931616Y-17159399D02*
X7922092Y-17187971D01*
X7922092Y-17187971D02*
X7807806Y-17302257D01*
X7807806Y-17302257D02*
X7931616Y-17302257D01*
X8007806Y-17102257D02*
X8007806Y-17140352D01*
X8083997Y-17102257D02*
X8083997Y-17140352D01*
X8379235Y-17378447D02*
X8369711Y-17368923D01*
X8369711Y-17368923D02*
X8350664Y-17340352D01*
X8350664Y-17340352D02*
X8341140Y-17321304D01*
X8341140Y-17321304D02*
X8331616Y-17292733D01*
X8331616Y-17292733D02*
X8322092Y-17245114D01*
X8322092Y-17245114D02*
X8322092Y-17207019D01*
X8322092Y-17207019D02*
X8331616Y-17159399D01*
X8331616Y-17159399D02*
X8341140Y-17130828D01*
X8341140Y-17130828D02*
X8350664Y-17111780D01*
X8350664Y-17111780D02*
X8369711Y-17083209D01*
X8369711Y-17083209D02*
X8379235Y-17073685D01*
X8445902Y-17121304D02*
X8455426Y-17111780D01*
X8455426Y-17111780D02*
X8474473Y-17102257D01*
X8474473Y-17102257D02*
X8522092Y-17102257D01*
X8522092Y-17102257D02*
X8541140Y-17111780D01*
X8541140Y-17111780D02*
X8550664Y-17121304D01*
X8550664Y-17121304D02*
X8560188Y-17140352D01*
X8560188Y-17140352D02*
X8560188Y-17159399D01*
X8560188Y-17159399D02*
X8550664Y-17187971D01*
X8550664Y-17187971D02*
X8436378Y-17302257D01*
X8436378Y-17302257D02*
X8560188Y-17302257D01*
X8798283Y-17302257D02*
X8798283Y-17102257D01*
X8883997Y-17302257D02*
X8883997Y-17197495D01*
X8883997Y-17197495D02*
X8874473Y-17178447D01*
X8874473Y-17178447D02*
X8855426Y-17168923D01*
X8855426Y-17168923D02*
X8826854Y-17168923D01*
X8826854Y-17168923D02*
X8807807Y-17178447D01*
X8807807Y-17178447D02*
X8798283Y-17187971D01*
X9007807Y-17302257D02*
X8988759Y-17292733D01*
X8988759Y-17292733D02*
X8979235Y-17283209D01*
X8979235Y-17283209D02*
X8969711Y-17264161D01*
X8969711Y-17264161D02*
X8969711Y-17207019D01*
X8969711Y-17207019D02*
X8979235Y-17187971D01*
X8979235Y-17187971D02*
X8988759Y-17178447D01*
X8988759Y-17178447D02*
X9007807Y-17168923D01*
X9007807Y-17168923D02*
X9036378Y-17168923D01*
X9036378Y-17168923D02*
X9055426Y-17178447D01*
X9055426Y-17178447D02*
X9064950Y-17187971D01*
X9064950Y-17187971D02*
X9074473Y-17207019D01*
X9074473Y-17207019D02*
X9074473Y-17264161D01*
X9074473Y-17264161D02*
X9064950Y-17283209D01*
X9064950Y-17283209D02*
X9055426Y-17292733D01*
X9055426Y-17292733D02*
X9036378Y-17302257D01*
X9036378Y-17302257D02*
X9007807Y-17302257D01*
X9188759Y-17302257D02*
X9169711Y-17292733D01*
X9169711Y-17292733D02*
X9160188Y-17273685D01*
X9160188Y-17273685D02*
X9160188Y-17102257D01*
X9341140Y-17292733D02*
X9322092Y-17302257D01*
X9322092Y-17302257D02*
X9283997Y-17302257D01*
X9283997Y-17302257D02*
X9264950Y-17292733D01*
X9264950Y-17292733D02*
X9255426Y-17273685D01*
X9255426Y-17273685D02*
X9255426Y-17197495D01*
X9255426Y-17197495D02*
X9264950Y-17178447D01*
X9264950Y-17178447D02*
X9283997Y-17168923D01*
X9283997Y-17168923D02*
X9322092Y-17168923D01*
X9322092Y-17168923D02*
X9341140Y-17178447D01*
X9341140Y-17178447D02*
X9350664Y-17197495D01*
X9350664Y-17197495D02*
X9350664Y-17216542D01*
X9350664Y-17216542D02*
X9255426Y-17235590D01*
X9426854Y-17292733D02*
X9445902Y-17302257D01*
X9445902Y-17302257D02*
X9483997Y-17302257D01*
X9483997Y-17302257D02*
X9503045Y-17292733D01*
X9503045Y-17292733D02*
X9512569Y-17273685D01*
X9512569Y-17273685D02*
X9512569Y-17264161D01*
X9512569Y-17264161D02*
X9503045Y-17245114D01*
X9503045Y-17245114D02*
X9483997Y-17235590D01*
X9483997Y-17235590D02*
X9455426Y-17235590D01*
X9455426Y-17235590D02*
X9436378Y-17226066D01*
X9436378Y-17226066D02*
X9426854Y-17207019D01*
X9426854Y-17207019D02*
X9426854Y-17197495D01*
X9426854Y-17197495D02*
X9436378Y-17178447D01*
X9436378Y-17178447D02*
X9455426Y-17168923D01*
X9455426Y-17168923D02*
X9483997Y-17168923D01*
X9483997Y-17168923D02*
X9503045Y-17178447D01*
X9579235Y-17378447D02*
X9588759Y-17368923D01*
X9588759Y-17368923D02*
X9607807Y-17340352D01*
X9607807Y-17340352D02*
X9617331Y-17321304D01*
X9617331Y-17321304D02*
X9626854Y-17292733D01*
X9626854Y-17292733D02*
X9636378Y-17245114D01*
X9636378Y-17245114D02*
X9636378Y-17207019D01*
X9636378Y-17207019D02*
X9626854Y-17159399D01*
X9626854Y-17159399D02*
X9617331Y-17130828D01*
X9617331Y-17130828D02*
X9607807Y-17111780D01*
X9607807Y-17111780D02*
X9588759Y-17083209D01*
X9588759Y-17083209D02*
X9579235Y-17073685D01*
X4604172Y-17374773D02*
X4804172Y-17574773D01*
X4804172Y-17374773D02*
X4604172Y-17574773D01*
X4704172Y-17574773D02*
X4804172Y-17474773D01*
X4704172Y-17374773D01*
X4604172Y-17474773D01*
X4704172Y-17574773D01*
X5055425Y-17385304D02*
X5064949Y-17375780D01*
X5064949Y-17375780D02*
X5083997Y-17366257D01*
X5083997Y-17366257D02*
X5131616Y-17366257D01*
X5131616Y-17366257D02*
X5150663Y-17375780D01*
X5150663Y-17375780D02*
X5160187Y-17385304D01*
X5160187Y-17385304D02*
X5169711Y-17404352D01*
X5169711Y-17404352D02*
X5169711Y-17423399D01*
X5169711Y-17423399D02*
X5160187Y-17451971D01*
X5160187Y-17451971D02*
X5045902Y-17566257D01*
X5045902Y-17566257D02*
X5169711Y-17566257D01*
X5255425Y-17547209D02*
X5264949Y-17556733D01*
X5264949Y-17556733D02*
X5255425Y-17566257D01*
X5255425Y-17566257D02*
X5245902Y-17556733D01*
X5245902Y-17556733D02*
X5255425Y-17547209D01*
X5255425Y-17547209D02*
X5255425Y-17566257D01*
X5341140Y-17385304D02*
X5350663Y-17375780D01*
X5350663Y-17375780D02*
X5369711Y-17366257D01*
X5369711Y-17366257D02*
X5417330Y-17366257D01*
X5417330Y-17366257D02*
X5436378Y-17375780D01*
X5436378Y-17375780D02*
X5445902Y-17385304D01*
X5445902Y-17385304D02*
X5455425Y-17404352D01*
X5455425Y-17404352D02*
X5455425Y-17423399D01*
X5455425Y-17423399D02*
X5445902Y-17451971D01*
X5445902Y-17451971D02*
X5331616Y-17566257D01*
X5331616Y-17566257D02*
X5455425Y-17566257D01*
X5579235Y-17366257D02*
X5598282Y-17366257D01*
X5598282Y-17366257D02*
X5617330Y-17375780D01*
X5617330Y-17375780D02*
X5626854Y-17385304D01*
X5626854Y-17385304D02*
X5636378Y-17404352D01*
X5636378Y-17404352D02*
X5645901Y-17442447D01*
X5645901Y-17442447D02*
X5645901Y-17490066D01*
X5645901Y-17490066D02*
X5636378Y-17528161D01*
X5636378Y-17528161D02*
X5626854Y-17547209D01*
X5626854Y-17547209D02*
X5617330Y-17556733D01*
X5617330Y-17556733D02*
X5598282Y-17566257D01*
X5598282Y-17566257D02*
X5579235Y-17566257D01*
X5579235Y-17566257D02*
X5560187Y-17556733D01*
X5560187Y-17556733D02*
X5550663Y-17547209D01*
X5550663Y-17547209D02*
X5541140Y-17528161D01*
X5541140Y-17528161D02*
X5531616Y-17490066D01*
X5531616Y-17490066D02*
X5531616Y-17442447D01*
X5531616Y-17442447D02*
X5541140Y-17404352D01*
X5541140Y-17404352D02*
X5550663Y-17385304D01*
X5550663Y-17385304D02*
X5560187Y-17375780D01*
X5560187Y-17375780D02*
X5579235Y-17366257D01*
X5769711Y-17366257D02*
X5788759Y-17366257D01*
X5788759Y-17366257D02*
X5807806Y-17375780D01*
X5807806Y-17375780D02*
X5817330Y-17385304D01*
X5817330Y-17385304D02*
X5826854Y-17404352D01*
X5826854Y-17404352D02*
X5836378Y-17442447D01*
X5836378Y-17442447D02*
X5836378Y-17490066D01*
X5836378Y-17490066D02*
X5826854Y-17528161D01*
X5826854Y-17528161D02*
X5817330Y-17547209D01*
X5817330Y-17547209D02*
X5807806Y-17556733D01*
X5807806Y-17556733D02*
X5788759Y-17566257D01*
X5788759Y-17566257D02*
X5769711Y-17566257D01*
X5769711Y-17566257D02*
X5750663Y-17556733D01*
X5750663Y-17556733D02*
X5741140Y-17547209D01*
X5741140Y-17547209D02*
X5731616Y-17528161D01*
X5731616Y-17528161D02*
X5722092Y-17490066D01*
X5722092Y-17490066D02*
X5722092Y-17442447D01*
X5722092Y-17442447D02*
X5731616Y-17404352D01*
X5731616Y-17404352D02*
X5741140Y-17385304D01*
X5741140Y-17385304D02*
X5750663Y-17375780D01*
X5750663Y-17375780D02*
X5769711Y-17366257D01*
X5922092Y-17566257D02*
X5922092Y-17432923D01*
X5922092Y-17451971D02*
X5931616Y-17442447D01*
X5931616Y-17442447D02*
X5950663Y-17432923D01*
X5950663Y-17432923D02*
X5979235Y-17432923D01*
X5979235Y-17432923D02*
X5998282Y-17442447D01*
X5998282Y-17442447D02*
X6007806Y-17461495D01*
X6007806Y-17461495D02*
X6007806Y-17566257D01*
X6007806Y-17461495D02*
X6017330Y-17442447D01*
X6017330Y-17442447D02*
X6036378Y-17432923D01*
X6036378Y-17432923D02*
X6064949Y-17432923D01*
X6064949Y-17432923D02*
X6083997Y-17442447D01*
X6083997Y-17442447D02*
X6093521Y-17461495D01*
X6093521Y-17461495D02*
X6093521Y-17566257D01*
X6188759Y-17566257D02*
X6188759Y-17432923D01*
X6188759Y-17451971D02*
X6198282Y-17442447D01*
X6198282Y-17442447D02*
X6217330Y-17432923D01*
X6217330Y-17432923D02*
X6245902Y-17432923D01*
X6245902Y-17432923D02*
X6264949Y-17442447D01*
X6264949Y-17442447D02*
X6274473Y-17461495D01*
X6274473Y-17461495D02*
X6274473Y-17566257D01*
X6274473Y-17461495D02*
X6283997Y-17442447D01*
X6283997Y-17442447D02*
X6303044Y-17432923D01*
X6303044Y-17432923D02*
X6331616Y-17432923D01*
X6331616Y-17432923D02*
X6350663Y-17442447D01*
X6350663Y-17442447D02*
X6360187Y-17461495D01*
X6360187Y-17461495D02*
X6360187Y-17566257D01*
X6750663Y-17356733D02*
X6579235Y-17613876D01*
X7007806Y-17366257D02*
X7026854Y-17366257D01*
X7026854Y-17366257D02*
X7045902Y-17375780D01*
X7045902Y-17375780D02*
X7055425Y-17385304D01*
X7055425Y-17385304D02*
X7064949Y-17404352D01*
X7064949Y-17404352D02*
X7074473Y-17442447D01*
X7074473Y-17442447D02*
X7074473Y-17490066D01*
X7074473Y-17490066D02*
X7064949Y-17528161D01*
X7064949Y-17528161D02*
X7055425Y-17547209D01*
X7055425Y-17547209D02*
X7045902Y-17556733D01*
X7045902Y-17556733D02*
X7026854Y-17566257D01*
X7026854Y-17566257D02*
X7007806Y-17566257D01*
X7007806Y-17566257D02*
X6988759Y-17556733D01*
X6988759Y-17556733D02*
X6979235Y-17547209D01*
X6979235Y-17547209D02*
X6969711Y-17528161D01*
X6969711Y-17528161D02*
X6960187Y-17490066D01*
X6960187Y-17490066D02*
X6960187Y-17442447D01*
X6960187Y-17442447D02*
X6969711Y-17404352D01*
X6969711Y-17404352D02*
X6979235Y-17385304D01*
X6979235Y-17385304D02*
X6988759Y-17375780D01*
X6988759Y-17375780D02*
X7007806Y-17366257D01*
X7160187Y-17547209D02*
X7169711Y-17556733D01*
X7169711Y-17556733D02*
X7160187Y-17566257D01*
X7160187Y-17566257D02*
X7150664Y-17556733D01*
X7150664Y-17556733D02*
X7160187Y-17547209D01*
X7160187Y-17547209D02*
X7160187Y-17566257D01*
X7293521Y-17366257D02*
X7312568Y-17366257D01*
X7312568Y-17366257D02*
X7331616Y-17375780D01*
X7331616Y-17375780D02*
X7341140Y-17385304D01*
X7341140Y-17385304D02*
X7350664Y-17404352D01*
X7350664Y-17404352D02*
X7360187Y-17442447D01*
X7360187Y-17442447D02*
X7360187Y-17490066D01*
X7360187Y-17490066D02*
X7350664Y-17528161D01*
X7350664Y-17528161D02*
X7341140Y-17547209D01*
X7341140Y-17547209D02*
X7331616Y-17556733D01*
X7331616Y-17556733D02*
X7312568Y-17566257D01*
X7312568Y-17566257D02*
X7293521Y-17566257D01*
X7293521Y-17566257D02*
X7274473Y-17556733D01*
X7274473Y-17556733D02*
X7264949Y-17547209D01*
X7264949Y-17547209D02*
X7255425Y-17528161D01*
X7255425Y-17528161D02*
X7245902Y-17490066D01*
X7245902Y-17490066D02*
X7245902Y-17442447D01*
X7245902Y-17442447D02*
X7255425Y-17404352D01*
X7255425Y-17404352D02*
X7264949Y-17385304D01*
X7264949Y-17385304D02*
X7274473Y-17375780D01*
X7274473Y-17375780D02*
X7293521Y-17366257D01*
X7474473Y-17451971D02*
X7455425Y-17442447D01*
X7455425Y-17442447D02*
X7445902Y-17432923D01*
X7445902Y-17432923D02*
X7436378Y-17413876D01*
X7436378Y-17413876D02*
X7436378Y-17404352D01*
X7436378Y-17404352D02*
X7445902Y-17385304D01*
X7445902Y-17385304D02*
X7455425Y-17375780D01*
X7455425Y-17375780D02*
X7474473Y-17366257D01*
X7474473Y-17366257D02*
X7512568Y-17366257D01*
X7512568Y-17366257D02*
X7531616Y-17375780D01*
X7531616Y-17375780D02*
X7541140Y-17385304D01*
X7541140Y-17385304D02*
X7550664Y-17404352D01*
X7550664Y-17404352D02*
X7550664Y-17413876D01*
X7550664Y-17413876D02*
X7541140Y-17432923D01*
X7541140Y-17432923D02*
X7531616Y-17442447D01*
X7531616Y-17442447D02*
X7512568Y-17451971D01*
X7512568Y-17451971D02*
X7474473Y-17451971D01*
X7474473Y-17451971D02*
X7455425Y-17461495D01*
X7455425Y-17461495D02*
X7445902Y-17471019D01*
X7445902Y-17471019D02*
X7436378Y-17490066D01*
X7436378Y-17490066D02*
X7436378Y-17528161D01*
X7436378Y-17528161D02*
X7445902Y-17547209D01*
X7445902Y-17547209D02*
X7455425Y-17556733D01*
X7455425Y-17556733D02*
X7474473Y-17566257D01*
X7474473Y-17566257D02*
X7512568Y-17566257D01*
X7512568Y-17566257D02*
X7531616Y-17556733D01*
X7531616Y-17556733D02*
X7541140Y-17547209D01*
X7541140Y-17547209D02*
X7550664Y-17528161D01*
X7550664Y-17528161D02*
X7550664Y-17490066D01*
X7550664Y-17490066D02*
X7541140Y-17471019D01*
X7541140Y-17471019D02*
X7531616Y-17461495D01*
X7531616Y-17461495D02*
X7512568Y-17451971D01*
X7722092Y-17366257D02*
X7683997Y-17366257D01*
X7683997Y-17366257D02*
X7664949Y-17375780D01*
X7664949Y-17375780D02*
X7655425Y-17385304D01*
X7655425Y-17385304D02*
X7636378Y-17413876D01*
X7636378Y-17413876D02*
X7626854Y-17451971D01*
X7626854Y-17451971D02*
X7626854Y-17528161D01*
X7626854Y-17528161D02*
X7636378Y-17547209D01*
X7636378Y-17547209D02*
X7645902Y-17556733D01*
X7645902Y-17556733D02*
X7664949Y-17566257D01*
X7664949Y-17566257D02*
X7703045Y-17566257D01*
X7703045Y-17566257D02*
X7722092Y-17556733D01*
X7722092Y-17556733D02*
X7731616Y-17547209D01*
X7731616Y-17547209D02*
X7741140Y-17528161D01*
X7741140Y-17528161D02*
X7741140Y-17480542D01*
X7741140Y-17480542D02*
X7731616Y-17461495D01*
X7731616Y-17461495D02*
X7722092Y-17451971D01*
X7722092Y-17451971D02*
X7703045Y-17442447D01*
X7703045Y-17442447D02*
X7664949Y-17442447D01*
X7664949Y-17442447D02*
X7645902Y-17451971D01*
X7645902Y-17451971D02*
X7636378Y-17461495D01*
X7636378Y-17461495D02*
X7626854Y-17480542D01*
X7912568Y-17366257D02*
X7874473Y-17366257D01*
X7874473Y-17366257D02*
X7855425Y-17375780D01*
X7855425Y-17375780D02*
X7845902Y-17385304D01*
X7845902Y-17385304D02*
X7826854Y-17413876D01*
X7826854Y-17413876D02*
X7817330Y-17451971D01*
X7817330Y-17451971D02*
X7817330Y-17528161D01*
X7817330Y-17528161D02*
X7826854Y-17547209D01*
X7826854Y-17547209D02*
X7836378Y-17556733D01*
X7836378Y-17556733D02*
X7855425Y-17566257D01*
X7855425Y-17566257D02*
X7893521Y-17566257D01*
X7893521Y-17566257D02*
X7912568Y-17556733D01*
X7912568Y-17556733D02*
X7922092Y-17547209D01*
X7922092Y-17547209D02*
X7931616Y-17528161D01*
X7931616Y-17528161D02*
X7931616Y-17480542D01*
X7931616Y-17480542D02*
X7922092Y-17461495D01*
X7922092Y-17461495D02*
X7912568Y-17451971D01*
X7912568Y-17451971D02*
X7893521Y-17442447D01*
X7893521Y-17442447D02*
X7855425Y-17442447D01*
X7855425Y-17442447D02*
X7836378Y-17451971D01*
X7836378Y-17451971D02*
X7826854Y-17461495D01*
X7826854Y-17461495D02*
X7817330Y-17480542D01*
X8007806Y-17366257D02*
X8007806Y-17404352D01*
X8083997Y-17366257D02*
X8083997Y-17404352D01*
X8379235Y-17642447D02*
X8369711Y-17632923D01*
X8369711Y-17632923D02*
X8350664Y-17604352D01*
X8350664Y-17604352D02*
X8341140Y-17585304D01*
X8341140Y-17585304D02*
X8331616Y-17556733D01*
X8331616Y-17556733D02*
X8322092Y-17509114D01*
X8322092Y-17509114D02*
X8322092Y-17471019D01*
X8322092Y-17471019D02*
X8331616Y-17423399D01*
X8331616Y-17423399D02*
X8341140Y-17394828D01*
X8341140Y-17394828D02*
X8350664Y-17375780D01*
X8350664Y-17375780D02*
X8369711Y-17347209D01*
X8369711Y-17347209D02*
X8379235Y-17337685D01*
X8445902Y-17385304D02*
X8455426Y-17375780D01*
X8455426Y-17375780D02*
X8474473Y-17366257D01*
X8474473Y-17366257D02*
X8522092Y-17366257D01*
X8522092Y-17366257D02*
X8541140Y-17375780D01*
X8541140Y-17375780D02*
X8550664Y-17385304D01*
X8550664Y-17385304D02*
X8560188Y-17404352D01*
X8560188Y-17404352D02*
X8560188Y-17423399D01*
X8560188Y-17423399D02*
X8550664Y-17451971D01*
X8550664Y-17451971D02*
X8436378Y-17566257D01*
X8436378Y-17566257D02*
X8560188Y-17566257D01*
X8798283Y-17566257D02*
X8798283Y-17366257D01*
X8883997Y-17566257D02*
X8883997Y-17461495D01*
X8883997Y-17461495D02*
X8874473Y-17442447D01*
X8874473Y-17442447D02*
X8855426Y-17432923D01*
X8855426Y-17432923D02*
X8826854Y-17432923D01*
X8826854Y-17432923D02*
X8807807Y-17442447D01*
X8807807Y-17442447D02*
X8798283Y-17451971D01*
X9007807Y-17566257D02*
X8988759Y-17556733D01*
X8988759Y-17556733D02*
X8979235Y-17547209D01*
X8979235Y-17547209D02*
X8969711Y-17528161D01*
X8969711Y-17528161D02*
X8969711Y-17471019D01*
X8969711Y-17471019D02*
X8979235Y-17451971D01*
X8979235Y-17451971D02*
X8988759Y-17442447D01*
X8988759Y-17442447D02*
X9007807Y-17432923D01*
X9007807Y-17432923D02*
X9036378Y-17432923D01*
X9036378Y-17432923D02*
X9055426Y-17442447D01*
X9055426Y-17442447D02*
X9064950Y-17451971D01*
X9064950Y-17451971D02*
X9074473Y-17471019D01*
X9074473Y-17471019D02*
X9074473Y-17528161D01*
X9074473Y-17528161D02*
X9064950Y-17547209D01*
X9064950Y-17547209D02*
X9055426Y-17556733D01*
X9055426Y-17556733D02*
X9036378Y-17566257D01*
X9036378Y-17566257D02*
X9007807Y-17566257D01*
X9188759Y-17566257D02*
X9169711Y-17556733D01*
X9169711Y-17556733D02*
X9160188Y-17537685D01*
X9160188Y-17537685D02*
X9160188Y-17366257D01*
X9341140Y-17556733D02*
X9322092Y-17566257D01*
X9322092Y-17566257D02*
X9283997Y-17566257D01*
X9283997Y-17566257D02*
X9264950Y-17556733D01*
X9264950Y-17556733D02*
X9255426Y-17537685D01*
X9255426Y-17537685D02*
X9255426Y-17461495D01*
X9255426Y-17461495D02*
X9264950Y-17442447D01*
X9264950Y-17442447D02*
X9283997Y-17432923D01*
X9283997Y-17432923D02*
X9322092Y-17432923D01*
X9322092Y-17432923D02*
X9341140Y-17442447D01*
X9341140Y-17442447D02*
X9350664Y-17461495D01*
X9350664Y-17461495D02*
X9350664Y-17480542D01*
X9350664Y-17480542D02*
X9255426Y-17499590D01*
X9426854Y-17556733D02*
X9445902Y-17566257D01*
X9445902Y-17566257D02*
X9483997Y-17566257D01*
X9483997Y-17566257D02*
X9503045Y-17556733D01*
X9503045Y-17556733D02*
X9512569Y-17537685D01*
X9512569Y-17537685D02*
X9512569Y-17528161D01*
X9512569Y-17528161D02*
X9503045Y-17509114D01*
X9503045Y-17509114D02*
X9483997Y-17499590D01*
X9483997Y-17499590D02*
X9455426Y-17499590D01*
X9455426Y-17499590D02*
X9436378Y-17490066D01*
X9436378Y-17490066D02*
X9426854Y-17471019D01*
X9426854Y-17471019D02*
X9426854Y-17461495D01*
X9426854Y-17461495D02*
X9436378Y-17442447D01*
X9436378Y-17442447D02*
X9455426Y-17432923D01*
X9455426Y-17432923D02*
X9483997Y-17432923D01*
X9483997Y-17432923D02*
X9503045Y-17442447D01*
X9579235Y-17642447D02*
X9588759Y-17632923D01*
X9588759Y-17632923D02*
X9607807Y-17604352D01*
X9607807Y-17604352D02*
X9617331Y-17585304D01*
X9617331Y-17585304D02*
X9626854Y-17556733D01*
X9626854Y-17556733D02*
X9636378Y-17509114D01*
X9636378Y-17509114D02*
X9636378Y-17471019D01*
X9636378Y-17471019D02*
X9626854Y-17423399D01*
X9626854Y-17423399D02*
X9617331Y-17394828D01*
X9617331Y-17394828D02*
X9607807Y-17375780D01*
X9607807Y-17375780D02*
X9588759Y-17347209D01*
X9588759Y-17347209D02*
X9579235Y-17337685D01*
X4704172Y-17694773D02*
X4704172Y-17894773D01*
X4604172Y-17794773D02*
X4804172Y-17794773D01*
X4804172Y-17794773D02*
G75*
G03*
X4804172Y-17794773I-100000J0D01*
G01*
X5150663Y-17752923D02*
X5150663Y-17886257D01*
X5103044Y-17676733D02*
X5055425Y-17819590D01*
X5055425Y-17819590D02*
X5179235Y-17819590D01*
X5255425Y-17867209D02*
X5264949Y-17876733D01*
X5264949Y-17876733D02*
X5255425Y-17886257D01*
X5255425Y-17886257D02*
X5245902Y-17876733D01*
X5245902Y-17876733D02*
X5255425Y-17867209D01*
X5255425Y-17867209D02*
X5255425Y-17886257D01*
X5455425Y-17886257D02*
X5341140Y-17886257D01*
X5398282Y-17886257D02*
X5398282Y-17686257D01*
X5398282Y-17686257D02*
X5379235Y-17714828D01*
X5379235Y-17714828D02*
X5360187Y-17733876D01*
X5360187Y-17733876D02*
X5341140Y-17743399D01*
X5579235Y-17686257D02*
X5598282Y-17686257D01*
X5598282Y-17686257D02*
X5617330Y-17695780D01*
X5617330Y-17695780D02*
X5626854Y-17705304D01*
X5626854Y-17705304D02*
X5636378Y-17724352D01*
X5636378Y-17724352D02*
X5645901Y-17762447D01*
X5645901Y-17762447D02*
X5645901Y-17810066D01*
X5645901Y-17810066D02*
X5636378Y-17848161D01*
X5636378Y-17848161D02*
X5626854Y-17867209D01*
X5626854Y-17867209D02*
X5617330Y-17876733D01*
X5617330Y-17876733D02*
X5598282Y-17886257D01*
X5598282Y-17886257D02*
X5579235Y-17886257D01*
X5579235Y-17886257D02*
X5560187Y-17876733D01*
X5560187Y-17876733D02*
X5550663Y-17867209D01*
X5550663Y-17867209D02*
X5541140Y-17848161D01*
X5541140Y-17848161D02*
X5531616Y-17810066D01*
X5531616Y-17810066D02*
X5531616Y-17762447D01*
X5531616Y-17762447D02*
X5541140Y-17724352D01*
X5541140Y-17724352D02*
X5550663Y-17705304D01*
X5550663Y-17705304D02*
X5560187Y-17695780D01*
X5560187Y-17695780D02*
X5579235Y-17686257D01*
X5769711Y-17686257D02*
X5788759Y-17686257D01*
X5788759Y-17686257D02*
X5807806Y-17695780D01*
X5807806Y-17695780D02*
X5817330Y-17705304D01*
X5817330Y-17705304D02*
X5826854Y-17724352D01*
X5826854Y-17724352D02*
X5836378Y-17762447D01*
X5836378Y-17762447D02*
X5836378Y-17810066D01*
X5836378Y-17810066D02*
X5826854Y-17848161D01*
X5826854Y-17848161D02*
X5817330Y-17867209D01*
X5817330Y-17867209D02*
X5807806Y-17876733D01*
X5807806Y-17876733D02*
X5788759Y-17886257D01*
X5788759Y-17886257D02*
X5769711Y-17886257D01*
X5769711Y-17886257D02*
X5750663Y-17876733D01*
X5750663Y-17876733D02*
X5741140Y-17867209D01*
X5741140Y-17867209D02*
X5731616Y-17848161D01*
X5731616Y-17848161D02*
X5722092Y-17810066D01*
X5722092Y-17810066D02*
X5722092Y-17762447D01*
X5722092Y-17762447D02*
X5731616Y-17724352D01*
X5731616Y-17724352D02*
X5741140Y-17705304D01*
X5741140Y-17705304D02*
X5750663Y-17695780D01*
X5750663Y-17695780D02*
X5769711Y-17686257D01*
X5922092Y-17886257D02*
X5922092Y-17752923D01*
X5922092Y-17771971D02*
X5931616Y-17762447D01*
X5931616Y-17762447D02*
X5950663Y-17752923D01*
X5950663Y-17752923D02*
X5979235Y-17752923D01*
X5979235Y-17752923D02*
X5998282Y-17762447D01*
X5998282Y-17762447D02*
X6007806Y-17781495D01*
X6007806Y-17781495D02*
X6007806Y-17886257D01*
X6007806Y-17781495D02*
X6017330Y-17762447D01*
X6017330Y-17762447D02*
X6036378Y-17752923D01*
X6036378Y-17752923D02*
X6064949Y-17752923D01*
X6064949Y-17752923D02*
X6083997Y-17762447D01*
X6083997Y-17762447D02*
X6093521Y-17781495D01*
X6093521Y-17781495D02*
X6093521Y-17886257D01*
X6188759Y-17886257D02*
X6188759Y-17752923D01*
X6188759Y-17771971D02*
X6198282Y-17762447D01*
X6198282Y-17762447D02*
X6217330Y-17752923D01*
X6217330Y-17752923D02*
X6245902Y-17752923D01*
X6245902Y-17752923D02*
X6264949Y-17762447D01*
X6264949Y-17762447D02*
X6274473Y-17781495D01*
X6274473Y-17781495D02*
X6274473Y-17886257D01*
X6274473Y-17781495D02*
X6283997Y-17762447D01*
X6283997Y-17762447D02*
X6303044Y-17752923D01*
X6303044Y-17752923D02*
X6331616Y-17752923D01*
X6331616Y-17752923D02*
X6350663Y-17762447D01*
X6350663Y-17762447D02*
X6360187Y-17781495D01*
X6360187Y-17781495D02*
X6360187Y-17886257D01*
X6750663Y-17676733D02*
X6579235Y-17933876D01*
X7007806Y-17686257D02*
X7026854Y-17686257D01*
X7026854Y-17686257D02*
X7045902Y-17695780D01*
X7045902Y-17695780D02*
X7055425Y-17705304D01*
X7055425Y-17705304D02*
X7064949Y-17724352D01*
X7064949Y-17724352D02*
X7074473Y-17762447D01*
X7074473Y-17762447D02*
X7074473Y-17810066D01*
X7074473Y-17810066D02*
X7064949Y-17848161D01*
X7064949Y-17848161D02*
X7055425Y-17867209D01*
X7055425Y-17867209D02*
X7045902Y-17876733D01*
X7045902Y-17876733D02*
X7026854Y-17886257D01*
X7026854Y-17886257D02*
X7007806Y-17886257D01*
X7007806Y-17886257D02*
X6988759Y-17876733D01*
X6988759Y-17876733D02*
X6979235Y-17867209D01*
X6979235Y-17867209D02*
X6969711Y-17848161D01*
X6969711Y-17848161D02*
X6960187Y-17810066D01*
X6960187Y-17810066D02*
X6960187Y-17762447D01*
X6960187Y-17762447D02*
X6969711Y-17724352D01*
X6969711Y-17724352D02*
X6979235Y-17705304D01*
X6979235Y-17705304D02*
X6988759Y-17695780D01*
X6988759Y-17695780D02*
X7007806Y-17686257D01*
X7160187Y-17867209D02*
X7169711Y-17876733D01*
X7169711Y-17876733D02*
X7160187Y-17886257D01*
X7160187Y-17886257D02*
X7150664Y-17876733D01*
X7150664Y-17876733D02*
X7160187Y-17867209D01*
X7160187Y-17867209D02*
X7160187Y-17886257D01*
X7360187Y-17886257D02*
X7245902Y-17886257D01*
X7303044Y-17886257D02*
X7303044Y-17686257D01*
X7303044Y-17686257D02*
X7283997Y-17714828D01*
X7283997Y-17714828D02*
X7264949Y-17733876D01*
X7264949Y-17733876D02*
X7245902Y-17743399D01*
X7531616Y-17686257D02*
X7493521Y-17686257D01*
X7493521Y-17686257D02*
X7474473Y-17695780D01*
X7474473Y-17695780D02*
X7464949Y-17705304D01*
X7464949Y-17705304D02*
X7445902Y-17733876D01*
X7445902Y-17733876D02*
X7436378Y-17771971D01*
X7436378Y-17771971D02*
X7436378Y-17848161D01*
X7436378Y-17848161D02*
X7445902Y-17867209D01*
X7445902Y-17867209D02*
X7455425Y-17876733D01*
X7455425Y-17876733D02*
X7474473Y-17886257D01*
X7474473Y-17886257D02*
X7512568Y-17886257D01*
X7512568Y-17886257D02*
X7531616Y-17876733D01*
X7531616Y-17876733D02*
X7541140Y-17867209D01*
X7541140Y-17867209D02*
X7550664Y-17848161D01*
X7550664Y-17848161D02*
X7550664Y-17800542D01*
X7550664Y-17800542D02*
X7541140Y-17781495D01*
X7541140Y-17781495D02*
X7531616Y-17771971D01*
X7531616Y-17771971D02*
X7512568Y-17762447D01*
X7512568Y-17762447D02*
X7474473Y-17762447D01*
X7474473Y-17762447D02*
X7455425Y-17771971D01*
X7455425Y-17771971D02*
X7445902Y-17781495D01*
X7445902Y-17781495D02*
X7436378Y-17800542D01*
X7741140Y-17886257D02*
X7626854Y-17886257D01*
X7683997Y-17886257D02*
X7683997Y-17686257D01*
X7683997Y-17686257D02*
X7664949Y-17714828D01*
X7664949Y-17714828D02*
X7645902Y-17733876D01*
X7645902Y-17733876D02*
X7626854Y-17743399D01*
X7912568Y-17752923D02*
X7912568Y-17886257D01*
X7864949Y-17676733D02*
X7817330Y-17819590D01*
X7817330Y-17819590D02*
X7941140Y-17819590D01*
X8007806Y-17686257D02*
X8007806Y-17724352D01*
X8083997Y-17686257D02*
X8083997Y-17724352D01*
X8379235Y-17962447D02*
X8369711Y-17952923D01*
X8369711Y-17952923D02*
X8350664Y-17924352D01*
X8350664Y-17924352D02*
X8341140Y-17905304D01*
X8341140Y-17905304D02*
X8331616Y-17876733D01*
X8331616Y-17876733D02*
X8322092Y-17829114D01*
X8322092Y-17829114D02*
X8322092Y-17791019D01*
X8322092Y-17791019D02*
X8331616Y-17743399D01*
X8331616Y-17743399D02*
X8341140Y-17714828D01*
X8341140Y-17714828D02*
X8350664Y-17695780D01*
X8350664Y-17695780D02*
X8369711Y-17667209D01*
X8369711Y-17667209D02*
X8379235Y-17657685D01*
X8550664Y-17686257D02*
X8455426Y-17686257D01*
X8455426Y-17686257D02*
X8445902Y-17781495D01*
X8445902Y-17781495D02*
X8455426Y-17771971D01*
X8455426Y-17771971D02*
X8474473Y-17762447D01*
X8474473Y-17762447D02*
X8522092Y-17762447D01*
X8522092Y-17762447D02*
X8541140Y-17771971D01*
X8541140Y-17771971D02*
X8550664Y-17781495D01*
X8550664Y-17781495D02*
X8560188Y-17800542D01*
X8560188Y-17800542D02*
X8560188Y-17848161D01*
X8560188Y-17848161D02*
X8550664Y-17867209D01*
X8550664Y-17867209D02*
X8541140Y-17876733D01*
X8541140Y-17876733D02*
X8522092Y-17886257D01*
X8522092Y-17886257D02*
X8474473Y-17886257D01*
X8474473Y-17886257D02*
X8455426Y-17876733D01*
X8455426Y-17876733D02*
X8445902Y-17867209D01*
X8798283Y-17886257D02*
X8798283Y-17686257D01*
X8883997Y-17886257D02*
X8883997Y-17781495D01*
X8883997Y-17781495D02*
X8874473Y-17762447D01*
X8874473Y-17762447D02*
X8855426Y-17752923D01*
X8855426Y-17752923D02*
X8826854Y-17752923D01*
X8826854Y-17752923D02*
X8807807Y-17762447D01*
X8807807Y-17762447D02*
X8798283Y-17771971D01*
X9007807Y-17886257D02*
X8988759Y-17876733D01*
X8988759Y-17876733D02*
X8979235Y-17867209D01*
X8979235Y-17867209D02*
X8969711Y-17848161D01*
X8969711Y-17848161D02*
X8969711Y-17791019D01*
X8969711Y-17791019D02*
X8979235Y-17771971D01*
X8979235Y-17771971D02*
X8988759Y-17762447D01*
X8988759Y-17762447D02*
X9007807Y-17752923D01*
X9007807Y-17752923D02*
X9036378Y-17752923D01*
X9036378Y-17752923D02*
X9055426Y-17762447D01*
X9055426Y-17762447D02*
X9064950Y-17771971D01*
X9064950Y-17771971D02*
X9074473Y-17791019D01*
X9074473Y-17791019D02*
X9074473Y-17848161D01*
X9074473Y-17848161D02*
X9064950Y-17867209D01*
X9064950Y-17867209D02*
X9055426Y-17876733D01*
X9055426Y-17876733D02*
X9036378Y-17886257D01*
X9036378Y-17886257D02*
X9007807Y-17886257D01*
X9188759Y-17886257D02*
X9169711Y-17876733D01*
X9169711Y-17876733D02*
X9160188Y-17857685D01*
X9160188Y-17857685D02*
X9160188Y-17686257D01*
X9341140Y-17876733D02*
X9322092Y-17886257D01*
X9322092Y-17886257D02*
X9283997Y-17886257D01*
X9283997Y-17886257D02*
X9264950Y-17876733D01*
X9264950Y-17876733D02*
X9255426Y-17857685D01*
X9255426Y-17857685D02*
X9255426Y-17781495D01*
X9255426Y-17781495D02*
X9264950Y-17762447D01*
X9264950Y-17762447D02*
X9283997Y-17752923D01*
X9283997Y-17752923D02*
X9322092Y-17752923D01*
X9322092Y-17752923D02*
X9341140Y-17762447D01*
X9341140Y-17762447D02*
X9350664Y-17781495D01*
X9350664Y-17781495D02*
X9350664Y-17800542D01*
X9350664Y-17800542D02*
X9255426Y-17819590D01*
X9426854Y-17876733D02*
X9445902Y-17886257D01*
X9445902Y-17886257D02*
X9483997Y-17886257D01*
X9483997Y-17886257D02*
X9503045Y-17876733D01*
X9503045Y-17876733D02*
X9512569Y-17857685D01*
X9512569Y-17857685D02*
X9512569Y-17848161D01*
X9512569Y-17848161D02*
X9503045Y-17829114D01*
X9503045Y-17829114D02*
X9483997Y-17819590D01*
X9483997Y-17819590D02*
X9455426Y-17819590D01*
X9455426Y-17819590D02*
X9436378Y-17810066D01*
X9436378Y-17810066D02*
X9426854Y-17791019D01*
X9426854Y-17791019D02*
X9426854Y-17781495D01*
X9426854Y-17781495D02*
X9436378Y-17762447D01*
X9436378Y-17762447D02*
X9455426Y-17752923D01*
X9455426Y-17752923D02*
X9483997Y-17752923D01*
X9483997Y-17752923D02*
X9503045Y-17762447D01*
X9579235Y-17962447D02*
X9588759Y-17952923D01*
X9588759Y-17952923D02*
X9607807Y-17924352D01*
X9607807Y-17924352D02*
X9617331Y-17905304D01*
X9617331Y-17905304D02*
X9626854Y-17876733D01*
X9626854Y-17876733D02*
X9636378Y-17829114D01*
X9636378Y-17829114D02*
X9636378Y-17791019D01*
X9636378Y-17791019D02*
X9626854Y-17743399D01*
X9626854Y-17743399D02*
X9617331Y-17714828D01*
X9617331Y-17714828D02*
X9607807Y-17695780D01*
X9607807Y-17695780D02*
X9588759Y-17667209D01*
X9588759Y-17667209D02*
X9579235Y-17657685D01*
M02*
