M48
; DRILL file {KiCad 7.0.6-7.0.6~ubuntu20.04.1} date Wed 19 Jul 2023 01:10:15 PM CEST
; FORMAT={-:-/ absolute / metric / decimal}
; #@! TF.CreationDate,2023-07-19T13:10:15+02:00
; #@! TF.GenerationSoftware,Kicad,Pcbnew,7.0.6-7.0.6~ubuntu20.04.1
; #@! TF.FileFunction,NonPlated,1,2,NPTH
FMAT,2
METRIC
; #@! TA.AperFunction,NonPlated,NPTH,ComponentDrill
T1C0.900
; #@! TA.AperFunction,NonPlated,NPTH,ComponentDrill
T2C1.702
; #@! TA.AperFunction,NonPlated,NPTH,ComponentDrill
T3C3.000
; #@! TA.AperFunction,NonPlated,NPTH,ComponentDrill
T4C3.429
%
G90
G05
T1
X171.28Y-37.726
X174.28Y-37.726
T2
X38.719Y-93.488
X49.677Y-92.529
X55.169Y-74.984
X56.65Y-91.919
X58.132Y-108.854
X66.127Y-74.025
X67.608Y-90.96
X69.09Y-107.896
X71.618Y-56.48
X73.1Y-73.415
X74.582Y-90.35
X76.063Y-107.286
X82.577Y-55.521
X84.058Y-72.456
X85.54Y-89.392
X87.022Y-106.327
X93.78Y-43.026
X93.78Y-94.026
X93.78Y-60.026
X93.781Y-77.026
X104.78Y-43.026
X104.78Y-94.026
X104.78Y-60.026
X104.781Y-77.026
X111.78Y-105.416
X111.78Y-37.416
X111.78Y-71.416
X111.78Y-54.416
X111.78Y-88.416
X122.78Y-105.416
X122.78Y-37.416
X122.78Y-71.416
X122.78Y-54.416
X122.78Y-88.416
X129.78Y-77.026
X129.78Y-94.026
X129.78Y-60.026
X129.78Y-111.026
X129.781Y-43.026
X140.78Y-77.026
X140.78Y-94.026
X140.78Y-60.026
X140.78Y-111.026
X140.781Y-43.026
X147.78Y-45.526
X147.78Y-96.526
X147.78Y-62.526
X147.783Y-79.523
X149.968Y-113.992
X158.78Y-45.526
X158.78Y-96.526
X158.78Y-62.526
X158.783Y-79.523
X160.593Y-116.839
X170.015Y-130.668
X175.515Y-121.142
T3
X39.544Y-97.18
X44.716Y-98.936
X44.716Y-98.936
X49.506Y-96.308
X55.994Y-78.676
X57.475Y-95.611
X58.957Y-112.547
X61.166Y-80.432
X61.166Y-80.432
X62.648Y-97.367
X62.648Y-97.367
X64.13Y-114.302
X64.13Y-114.302
X65.955Y-77.804
X67.437Y-94.74
X68.919Y-111.675
X72.443Y-60.172
X73.925Y-77.107
X75.407Y-94.042
X76.888Y-110.978
X77.616Y-61.928
X77.616Y-61.928
X79.098Y-78.863
X79.098Y-78.863
X80.579Y-95.798
X80.579Y-95.798
X82.061Y-112.734
X82.061Y-112.734
X82.405Y-59.3
X83.887Y-76.236
X85.369Y-93.171
X86.85Y-110.106
X94.28Y-46.776
X94.28Y-97.776
X94.28Y-63.776
X94.281Y-80.776
X99.28Y-48.976
X99.28Y-48.976
X99.28Y-99.976
X99.28Y-99.976
X99.28Y-65.976
X99.28Y-65.976
X99.281Y-82.976
X99.281Y-82.976
X104.28Y-46.776
X104.28Y-97.776
X104.28Y-63.776
X104.281Y-80.776
X112.28Y-109.166
X112.28Y-41.166
X112.28Y-75.166
X112.28Y-58.166
X112.28Y-92.166
X117.28Y-111.366
X117.28Y-111.366
X117.28Y-43.366
X117.28Y-43.366
X117.28Y-77.366
X117.28Y-77.366
X117.28Y-60.366
X117.28Y-60.366
X117.28Y-94.366
X117.28Y-94.366
X122.28Y-109.166
X122.28Y-41.166
X122.28Y-75.166
X122.28Y-58.166
X122.28Y-92.166
X130.28Y-80.776
X130.28Y-97.776
X130.28Y-63.776
X130.28Y-114.776
X130.281Y-46.776
X135.28Y-82.976
X135.28Y-82.976
X135.28Y-99.976
X135.28Y-99.976
X135.28Y-65.976
X135.28Y-65.976
X135.28Y-116.976
X135.28Y-116.976
X135.281Y-48.976
X135.281Y-48.976
X140.28Y-80.776
X140.28Y-97.776
X140.28Y-63.776
X140.28Y-114.776
X140.281Y-46.776
X148.28Y-49.276
X148.28Y-100.276
X148.28Y-66.276
X148.283Y-83.273
X149.48Y-117.744
X153.28Y-51.476
X153.28Y-51.476
X153.28Y-102.476
X153.28Y-102.476
X153.28Y-68.476
X153.28Y-68.476
X153.283Y-85.473
X153.283Y-85.473
X153.741Y-121.163
X153.741Y-121.163
X158.28Y-49.276
X158.28Y-100.276
X158.28Y-66.276
X158.283Y-83.273
X159.14Y-120.332
X173.513Y-132.11
X177.918Y-128.88
X177.918Y-128.88
X178.513Y-123.45
T4
X44.198Y-93.009
X60.648Y-74.504
X62.129Y-91.44
X63.611Y-108.375
X77.098Y-56.0
X78.579Y-72.936
X80.061Y-89.871
X81.542Y-106.806
X99.28Y-43.026
X99.28Y-94.026
X99.28Y-60.026
X99.281Y-77.026
X117.28Y-105.416
X117.28Y-37.416
X117.28Y-71.416
X117.28Y-54.416
X117.28Y-88.416
X135.28Y-77.026
X135.28Y-94.026
X135.28Y-60.026
X135.28Y-111.026
X135.281Y-43.026
X153.28Y-45.526
X153.28Y-96.526
X153.28Y-62.526
X153.283Y-79.523
X155.28Y-115.416
X172.765Y-125.905
T0
M30
