%TF.GenerationSoftware,KiCad,Pcbnew,7.0.6-7.0.6~ubuntu20.04.1*%
%TF.CreationDate,2023-07-19T10:29:01+02:00*%
%TF.ProjectId,keyboard,6b657962-6f61-4726-942e-6b696361645f,v1.0.0*%
%TF.SameCoordinates,Original*%
%TF.FileFunction,Paste,Top*%
%TF.FilePolarity,Positive*%
%FSLAX46Y46*%
G04 Gerber Fmt 4.6, Leading zero omitted, Abs format (unit mm)*
G04 Created by KiCad (PCBNEW 7.0.6-7.0.6~ubuntu20.04.1) date 2023-07-19 10:29:01*
%MOMM*%
%LPD*%
G01*
G04 APERTURE LIST*
G04 Aperture macros list*
%AMRotRect*
0 Rectangle, with rotation*
0 The origin of the aperture is its center*
0 $1 length*
0 $2 width*
0 $3 Rotation angle, in degrees counterclockwise*
0 Add horizontal line*
21,1,$1,$2,0,0,$3*%
%AMFreePoly0*
4,1,6,0.600000,0.200000,0.000000,-0.400000,-0.600000,0.200000,-0.600000,0.400000,0.600000,0.400000,0.600000,0.200000,0.600000,0.200000,$1*%
%AMFreePoly1*
4,1,6,0.600000,-0.250000,-0.600000,-0.250000,-0.600000,1.000000,0.000000,0.400000,0.600000,1.000000,0.600000,-0.250000,0.600000,-0.250000,$1*%
G04 Aperture macros list end*
%ADD10R,0.900000X0.900000*%
%ADD11R,0.900000X1.250000*%
%ADD12FreePoly0,270.000000*%
%ADD13FreePoly1,270.000000*%
%ADD14FreePoly0,180.000000*%
%ADD15FreePoly1,180.000000*%
%ADD16RotRect,0.900000X1.200000X345.000000*%
%ADD17R,0.900000X1.200000*%
%ADD18R,2.600000X2.600000*%
%ADD19RotRect,0.900000X1.200000X5.000000*%
%ADD20FreePoly0,90.000000*%
%ADD21FreePoly1,90.000000*%
%ADD22RotRect,2.600000X2.600000X185.000000*%
%ADD23RotRect,2.600000X2.600000X240.000000*%
%ADD24RotRect,0.900000X1.200000X330.000000*%
%ADD25RotRect,2.600000X2.600000X165.000000*%
G04 APERTURE END LIST*
D10*
%TO.C,T1*%
X169080487Y-36625888D03*
X169080487Y-38825888D03*
X176480487Y-36625888D03*
X176480487Y-38825888D03*
D11*
X175030487Y-39800888D03*
X172030487Y-39800888D03*
X170530487Y-39800888D03*
%TD*%
D12*
%TO.C,J11*%
X175788489Y-43375888D03*
D13*
X174772489Y-43375888D03*
%TD*%
D14*
%TO.C,J22*%
X172780503Y-73333888D03*
D15*
X172780503Y-72317888D03*
%TD*%
D16*
%TO.C,D14*%
X151357346Y-123682173D03*
X154544902Y-124536275D03*
%TD*%
D17*
%TO.C,D26*%
X151630493Y-90825897D03*
X154930493Y-90825897D03*
%TD*%
D18*
%TO.C,S16*%
X114005496Y-60365899D03*
X125555496Y-58165899D03*
%TD*%
D17*
%TO.C,D6*%
X115630492Y-114415887D03*
X118930492Y-114415887D03*
%TD*%
%TO.C,D13*%
X151630493Y-54525895D03*
X154930493Y-54525895D03*
%TD*%
D19*
%TO.C,D19*%
X76438676Y-67401129D03*
X79726118Y-67113515D03*
%TD*%
D20*
%TO.C,J4*%
X168022495Y-100335891D03*
D21*
X169038495Y-100335891D03*
%TD*%
D22*
%TO.C,S1*%
X41453861Y-99221332D03*
X52768167Y-96023054D03*
%TD*%
D17*
%TO.C,D23*%
X115630494Y-48715883D03*
X118930494Y-48715883D03*
%TD*%
%TO.C,D24*%
X133630488Y-88325890D03*
X136930488Y-88325890D03*
%TD*%
D22*
%TO.C,S4*%
X57903722Y-80717222D03*
X69218028Y-77518944D03*
%TD*%
D17*
%TO.C,D7*%
X115630496Y-80415891D03*
X118930496Y-80415891D03*
%TD*%
%TO.C,D27*%
X151630495Y-56825893D03*
X154930495Y-56825893D03*
%TD*%
D19*
%TO.C,D1*%
X61270005Y-100549303D03*
X64557447Y-100261689D03*
%TD*%
D22*
%TO.C,S6*%
X77316859Y-96083747D03*
X88631165Y-92885469D03*
%TD*%
D18*
%TO.C,S21*%
X132005498Y-65975885D03*
X143555498Y-63775885D03*
%TD*%
%TO.C,S12*%
X96005493Y-48975891D03*
X107555493Y-46775891D03*
%TD*%
D19*
%TO.C,D3*%
X76238210Y-65109875D03*
X79525652Y-64822261D03*
%TD*%
D18*
%TO.C,S18*%
X132005498Y-116975891D03*
X143555498Y-114775891D03*
%TD*%
%TO.C,S9*%
X96005497Y-99975882D03*
X107555497Y-97775882D03*
%TD*%
D19*
%TO.C,D18*%
X79401971Y-101271753D03*
X82689413Y-100984139D03*
%TD*%
D22*
%TO.C,S8*%
X74353571Y-62213115D03*
X85667877Y-59014837D03*
%TD*%
D19*
%TO.C,D2*%
X79201507Y-98980500D03*
X82488949Y-98692886D03*
%TD*%
D17*
%TO.C,D12*%
X151630504Y-88525880D03*
X154930504Y-88525880D03*
%TD*%
D22*
%TO.C,S5*%
X78798507Y-113019043D03*
X90112813Y-109820765D03*
%TD*%
D19*
%TO.C,D17*%
X58507169Y-68969922D03*
X61794611Y-68682308D03*
%TD*%
D18*
%TO.C,S13*%
X114005488Y-111365884D03*
X125555488Y-109165884D03*
%TD*%
D19*
%TO.C,D16*%
X61470466Y-102840548D03*
X64757908Y-102552934D03*
%TD*%
D18*
%TO.C,S10*%
X96005505Y-82975889D03*
X107555505Y-80775889D03*
%TD*%
%TO.C,S22*%
X132005507Y-48975887D03*
X143555507Y-46775887D03*
%TD*%
D14*
%TO.C,J23*%
X170240500Y-73333880D03*
D15*
X170240500Y-72317880D03*
%TD*%
D19*
%TO.C,D15*%
X42057314Y-87474046D03*
X45344756Y-87186432D03*
%TD*%
D17*
%TO.C,D11*%
X133630489Y-52025889D03*
X136930489Y-52025889D03*
%TD*%
D12*
%TO.C,J12*%
X175788493Y-45925883D03*
D13*
X174772493Y-45925883D03*
%TD*%
D22*
%TO.C,S2*%
X60867015Y-114587837D03*
X72181321Y-111389559D03*
%TD*%
D18*
%TO.C,S11*%
X96005498Y-65975887D03*
X107555498Y-63775887D03*
%TD*%
D22*
%TO.C,S7*%
X75835229Y-79148415D03*
X87149535Y-75950137D03*
%TD*%
D14*
%TO.C,J21*%
X175320498Y-73333884D03*
D15*
X175320498Y-72317884D03*
%TD*%
D14*
%TO.C,J20*%
X177860491Y-73333897D03*
D15*
X177860491Y-72317897D03*
%TD*%
D18*
%TO.C,S17*%
X114005491Y-43365894D03*
X125555491Y-41165894D03*
%TD*%
D12*
%TO.C,J13*%
X175788494Y-48475890D03*
D13*
X174772494Y-48475890D03*
%TD*%
D18*
%TO.C,S25*%
X150005498Y-68475880D03*
X161555498Y-66275880D03*
%TD*%
D23*
%TO.C,S28*%
X176280591Y-131715997D03*
X180150335Y-120613404D03*
%TD*%
D20*
%TO.C,J14*%
X169772497Y-45925881D03*
D21*
X170788497Y-45925881D03*
%TD*%
D18*
%TO.C,S19*%
X132005496Y-99975885D03*
X143555496Y-97775885D03*
%TD*%
%TO.C,S15*%
X114005491Y-77365889D03*
X125555491Y-75165889D03*
%TD*%
%TO.C,S20*%
X132005491Y-82975890D03*
X143555491Y-80775890D03*
%TD*%
D22*
%TO.C,S3*%
X59385365Y-97652526D03*
X70699671Y-94454248D03*
%TD*%
D24*
%TO.C,D28*%
X174607779Y-117413401D03*
X177465663Y-119063401D03*
%TD*%
D17*
%TO.C,D10*%
X133630504Y-86025886D03*
X136930504Y-86025886D03*
%TD*%
%TO.C,D29*%
X164880485Y-105525879D03*
X168180485Y-105525879D03*
%TD*%
D18*
%TO.C,S26*%
X150005492Y-51475890D03*
X161555492Y-49275890D03*
%TD*%
D14*
%TO.C,J24*%
X167700503Y-73333895D03*
D15*
X167700503Y-72317895D03*
%TD*%
D17*
%TO.C,D5*%
X97630498Y-52025887D03*
X100930498Y-52025887D03*
%TD*%
%TO.C,D25*%
X133630489Y-54325891D03*
X136930489Y-54325891D03*
%TD*%
D25*
%TO.C,S27*%
X150577119Y-120315517D03*
X162302964Y-121179840D03*
%TD*%
D17*
%TO.C,D21*%
X97630499Y-54325891D03*
X100930499Y-54325891D03*
%TD*%
D18*
%TO.C,S14*%
X114005499Y-94365883D03*
X125555499Y-92165883D03*
%TD*%
%TO.C,S23*%
X150005494Y-102475887D03*
X161555494Y-100275887D03*
%TD*%
D20*
%TO.C,J6*%
X168022501Y-95255901D03*
D21*
X169038501Y-95255901D03*
%TD*%
D17*
%TO.C,D20*%
X97630488Y-88325890D03*
X100930488Y-88325890D03*
%TD*%
%TO.C,D9*%
X133630498Y-120025891D03*
X136930498Y-120025891D03*
%TD*%
D18*
%TO.C,S20*%
X150007680Y-85472957D03*
X161557680Y-83272957D03*
%TD*%
D17*
%TO.C,D8*%
X115630497Y-46415892D03*
X118930497Y-46415892D03*
%TD*%
D20*
%TO.C,J5*%
X168022493Y-97795880D03*
D21*
X169038493Y-97795880D03*
%TD*%
D17*
%TO.C,D4*%
X97630499Y-86025901D03*
X100930499Y-86025901D03*
%TD*%
%TO.C,D22*%
X115630498Y-82715890D03*
X118930498Y-82715890D03*
%TD*%
M02*
