<?xml version="1.0" encoding="UTF-8" standalone="no"?>
<svg
   width="343.66px"
   height="252px"
   enable-background="new 0 0 343.665 252"
   version="1.1"
   viewBox="0 0 343.665 252"
   id="svg8"
   sodipodi:docname="jackdaw-2022865.svg"
   inkscape:version="1.1 (c68e22c387, 2021-05-23)"
   xmlns:inkscape="http://www.inkscape.org/namespaces/inkscape"
   xmlns:sodipodi="http://sodipodi.sourceforge.net/DTD/sodipodi-0.dtd"
   xmlns="http://www.w3.org/2000/svg"
   xmlns:svg="http://www.w3.org/2000/svg">
  <defs
     id="defs12" />
  <sodipodi:namedview
     id="namedview10"
     pagecolor="#ffffff"
     bordercolor="#666666"
     borderopacity="1.0"
     inkscape:pageshadow="2"
     inkscape:pageopacity="0.0"
     inkscape:pagecheckerboard="0"
     showgrid="false"
     inkscape:zoom="14.269841"
     inkscape:cx="271.27141"
     inkscape:cy="221.97164"
     inkscape:window-width="2560"
     inkscape:window-height="1411"
     inkscape:window-x="2551"
     inkscape:window-y="-9"
     inkscape:window-maximized="1"
     inkscape:current-layer="svg8" />
  <g
     clip-rule="evenodd"
     fill-rule="evenodd"
     id="g6"
     transform="matrix(0.12926838,0.03463736,-0.03463736,0.12926838,267.8772,202.51448)">
    <path
       d="m 65.646,239.68 h -1.635 c -0.664,-0.271 -1.425,-0.423 -1.957,-0.855 -0.378,-0.308 -0.569,-0.062 -0.921,-0.019 0.077,-0.479 -0.278,-0.393 -0.524,-0.523 -0.208,-0.11 -0.237,-0.521 -0.402,-0.76 -0.247,-0.359 -0.665,-0.635 -0.415,-1.177 0.035,-0.074 -0.044,-0.249 -0.122,-0.32 -0.53,-0.484 -0.51,-1.135 -0.548,-1.764 -0.092,-1.524 0.124,-3.017 0.489,-4.493 0.217,-0.878 0.224,-1.749 -0.052,-2.748 -0.379,0.282 -0.666,0.49 -0.947,0.707 -3.202,2.473 -6.594,4.607 -10.478,5.86 -1.116,0.359 -2.074,1.118 -3.275,1.273 -0.21,0.027 -0.387,0.276 -0.589,0.408 -0.733,0.479 -1.46,0.972 -2.211,1.421 -0.519,0.311 -1.057,0.285 -1.492,-0.174 -0.354,-0.374 -0.729,-0.417 -1.226,-0.331 -1.154,0.2 -2.283,0.183 -3.286,-0.602 -0.232,-0.182 -0.625,-0.217 -0.944,-0.22 -2.678,-0.028 -4.965,-0.96 -6.803,-2.923 -0.315,-0.336 -0.602,-0.361 -1.037,-0.289 -0.618,0.104 -1.268,0.126 -1.89,0.059 -0.789,-0.086 -1.535,-0.803 -1.602,-1.401 -0.087,-0.785 -0.046,-1.563 0.259,-2.296 0.406,-0.975 0.858,-1.93 1.275,-2.899 0.213,-0.496 0.446,-0.993 0.576,-1.513 0.328,-1.308 0.849,-2.515 1.606,-3.631 0.645,-0.951 1.256,-1.925 1.86,-2.901 0.719,-1.162 1.518,-2.252 2.496,-3.218 0.945,-0.934 1.837,-1.921 2.725,-2.909 0.667,-0.742 1.27,-1.542 1.938,-2.284 4.979,-5.533 9.954,-11.071 14.958,-16.583 5.256,-5.79 10.065,-11.932 14.536,-18.343 0.176,-0.253 0.333,-0.519 0.499,-0.778 -0.966,0.262 -1.81,0.651 -2.666,1.013 -3.871,1.635 -7.759,3.23 -11.613,4.902 -2.383,1.034 -4.748,2.108 -7.02,3.391 -1.308,0.738 -2.746,1.26 -4.158,1.794 -1.497,0.565 -2.903,0.356 -4.159,-0.711 -0.427,-0.363 -0.653,-0.776 -0.676,-1.321 -0.048,-1.159 0.027,-2.304 0.504,-3.38 0.454,-1.022 0.871,-2.068 1.422,-3.037 1.495,-2.624 2.899,-5.315 5.086,-7.476 0.407,-0.401 0.739,-0.88 1.087,-1.337 1.425,-1.872 3.121,-3.451 5.063,-4.775 0.925,-0.63 1.81,-1.318 2.731,-1.952 0.331,-0.228 0.506,-0.499 0.532,-0.89 0.023,-0.352 0.06,-0.703 0.091,-1.058 h -0.637 c 0.231,-0.5 0.88,-0.581 1.02,-1.162 -0.134,0.017 -0.204,0.005 -0.24,0.034 -0.373,0.309 -0.75,0.613 -1.108,0.938 -3.997,3.628 -8.25,6.917 -12.808,9.817 -1.836,1.169 -3.593,2.462 -5.366,3.727 -0.463,0.33 -0.849,0.767 -1.277,1.147 -0.189,0.168 -0.394,0.317 -0.625,0.502 -0.172,-0.541 -0.17,-0.539 -0.007,-0.81 0.328,-0.543 0.678,-1.075 0.973,-1.636 0.918,-1.744 1.93,-3.425 3.221,-4.925 1.225,-1.421 2.445,-2.845 3.664,-4.271 0.055,-0.063 0.08,-0.152 0.127,-0.248 -0.181,-0.122 -0.347,-0.232 -0.552,-0.371 0.2,-0.271 0.369,-0.517 0.554,-0.748 2.652,-3.303 5.275,-6.63 7.968,-9.9 3.695,-4.487 7.55,-8.826 11.8,-12.813 3.421,-3.208 6.693,-6.573 10.068,-9.831 2.96,-2.857 5.97,-5.665 8.962,-8.49 0.484,-0.457 1,-0.88 1.473,-1.348 0.09,-0.089 0.045,-0.316 0.079,-0.633 -1.723,1.037 -3.29,1.946 -4.694,3.105 -0.256,0.211 -0.498,0.449 -0.78,0.619 -0.116,0.069 -0.384,0.05 -0.468,-0.038 -0.093,-0.097 -0.109,-0.34 -0.057,-0.482 0.056,-0.156 0.219,-0.279 0.351,-0.4 3.119,-2.87 6.074,-5.885 8.834,-9.117 3.595,-4.21 6.692,-8.742 9.408,-13.542 1.642,-2.901 3.387,-5.728 5.403,-8.384 1.829,-2.41 3.739,-4.762 5.496,-7.223 4.013,-5.624 8.335,-10.979 13.041,-16.045 5,-5.383 9.802,-10.951 14.794,-16.303 0,-0.533 -0.025,-1.092 0.006,-1.648 0.045,-0.805 0.4,-1.507 0.773,-2.207 0.149,-0.279 0.204,-0.613 0.271,-0.929 0.063,-0.298 0.086,-0.605 0.125,-0.898 -0.109,0.018 -0.291,0.046 -0.674,0.108 0.231,-0.397 0.324,-0.7 0.526,-0.878 0.823,-0.721 1.224,-1.695 1.688,-2.64 0.253,-0.514 0.548,-1.012 0.859,-1.494 2.111,-3.271 5.155,-5.007 8.989,-5.434 0.12,-0.013 0.236,-0.053 0.417,-0.095 -0.438,-0.374 -1.055,-0.208 -1.325,-0.841 h 1.299 v -1.387 c 0.671,0.238 1.34,0.474 2.008,0.71 -0.394,-0.527 -0.856,-0.913 -1.281,-1.335 -0.248,-0.246 -0.522,-0.498 -0.312,-0.948 0.075,-0.16 -0.068,-0.421 -0.159,-0.867 0.981,0.597 1.784,1.087 2.587,1.576 -0.228,-0.413 -0.552,-0.721 -0.809,-1.079 -0.255,-0.355 -0.754,-0.63 -0.54,-1.265 0.878,0.25 1.334,1.053 2.203,1.477 -0.394,-0.773 -1.066,-1.264 -1.191,-2.251 1.027,0.978 1.913,1.821 2.824,2.688 2.761,-2.48 5.736,-4.499 8.816,-6.459 -0.24,-0.104 -0.386,-0.168 -0.645,-0.281 0.371,-0.237 0.629,-0.448 0.922,-0.58 0.715,-0.321 1.439,-0.628 2.174,-0.9 0.785,-0.291 1.665,-0.89 1.95,-1.397 -0.095,0 -0.186,-0.001 -0.275,0 -0.816,0.019 -1.129,-0.119 -1.194,-0.526 -0.061,-0.384 0.221,-0.68 0.949,-0.927 1.975,-0.67 3.945,-1.357 5.935,-1.978 1.182,-0.368 2.383,-0.726 3.603,-0.9 1.305,-0.187 2.514,-0.615 3.747,-1.024 1.691,-0.562 3.396,-1.087 5.112,-1.57 1.275,-0.359 2.576,-0.624 3.865,-0.931 h 1.271 c 0.628,0.208 1.288,0.349 1.878,0.634 1.709,0.826 3.497,1.298 5.384,1.491 2.075,0.212 4.137,0.547 6.235,0.424 1.691,-0.099 3.384,-0.165 5.076,-0.253 0.802,-0.042 1.603,-0.103 2.404,-0.155 0.003,-0.045 0.007,-0.091 0.011,-0.136 -0.265,-0.065 -0.53,-0.13 -0.796,-0.196 -0.062,-0.355 0.127,-0.462 0.428,-0.563 2,-0.665 4.039,-0.675 6.099,-0.413 0.668,0.085 1.296,0.265 2.001,-0.066 0.482,-0.227 1.137,-0.188 1.697,-0.121 1.107,0.13 2.216,0.306 3.301,0.563 2.695,0.64 5.179,1.821 7.636,3.071 1.045,0.532 2.136,0.975 3.178,1.446 0.477,-0.556 0.488,-0.581 1.019,-0.451 0.704,0.172 1.396,0.389 2.097,0.576 0.169,0.045 0.422,0.133 0.512,0.057 0.554,-0.477 1.106,-0.161 1.634,-0.012 0.694,0.196 1.364,0.477 2.045,0.717 0.109,0.039 0.27,0.116 0.333,0.071 0.451,-0.317 0.934,-0.127 1.493,-0.027 -0.466,-0.752 -1.001,-1.332 -1.064,-2.154 0.28,0.196 0.484,0.449 0.707,0.683 0.541,0.568 1.081,1.14 1.644,1.687 0.263,0.256 0.577,0.461 0.979,0.111 -0.468,-0.351 -0.947,-0.662 -1.367,-1.039 -0.42,-0.377 -0.99,-0.646 -1.213,-1.478 0.642,0.355 1.121,0.621 1.609,0.891 0.049,-0.229 0.083,-0.39 0.134,-0.633 0.471,0.33 0.859,0.602 1.282,0.898 0.127,-0.605 0.491,-0.492 0.826,-0.301 0.735,0.419 1.45,0.875 2.18,1.303 0.162,0.095 0.352,0.141 0.638,0.251 -0.167,-0.746 -0.794,-1.226 -0.598,-2.051 0.464,0.188 0.881,0.338 1.282,0.522 0.604,0.278 1.193,0.586 1.795,0.869 0.976,0.458 1.987,0.69 3.08,0.555 0.475,-0.059 0.966,-0.016 1.447,0.024 1.112,0.092 2.221,0.234 3.334,0.309 0.721,0.048 1.443,-0.022 2.125,0.334 0.278,0.146 0.63,0.149 0.951,0.218 0.204,-1.133 0.229,-1.154 1.359,-1.125 0.333,0.008 0.666,0.019 0.998,0.033 2.23,0.1 4.282,0.657 6.025,2.161 0.593,0.511 1.378,0.699 2.158,0.733 0.391,-0.763 0.492,-0.817 1.165,-0.398 1.309,0.815 2.609,1.646 3.885,2.512 0.411,0.279 0.823,0.466 1.306,0.557 1.588,0.298 3.093,0.842 4.479,1.672 2.527,1.514 4.857,3.287 6.915,5.405 0.156,0.161 0.342,0.293 0.566,0.482 0.109,-0.389 0.188,-0.675 0.286,-1.023 1.03,0.543 1.729,1.295 2.401,2.065 2.627,3.015 4.652,6.399 6.12,10.117 0.122,0.309 0.223,0.632 0.389,0.916 1.185,2.027 1.952,4.221 2.572,6.469 0.289,1.048 0.423,2.147 0.8,3.159 0.348,0.935 0.299,1.815 0.161,2.752 -0.091,0.618 -0.057,1.255 -0.068,1.884 -10e-4,0.068 0.067,0.195 0.108,0.197 0.468,0.025 0.329,0.373 0.284,0.597 -0.111,0.561 -0.224,1.13 -0.429,1.659 -0.25,0.643 -0.595,1.249 -0.918,1.91 0.659,1.104 1.045,2.3 0.93,3.612 -0.155,1.762 -0.546,3.468 -1.418,5.023 -0.272,0.484 -0.374,0.918 -0.208,1.455 0.083,0.27 0.015,0.586 0.015,0.998 0.269,0.171 0.435,0.485 0.151,0.95 -0.338,0.553 -0.327,1.096 0.047,1.666 0.313,0.477 0.537,1.015 0.786,1.532 1.782,3.693 2.806,7.583 3.031,11.681 0.015,0.262 0.108,0.52 0.165,0.779 v 4.358 c -0.064,0.715 -0.157,1.429 -0.187,2.146 -0.059,1.469 -0.375,2.878 -0.966,4.217 -0.356,0.808 -0.693,0.924 -1.513,0.602 -0.249,-0.098 -0.498,-0.234 -0.698,-0.409 -0.501,-0.437 -1.001,-0.88 -1.452,-1.367 -1.589,-1.714 -2.934,-3.615 -4.21,-5.568 -1.589,-2.43 -3.181,-4.859 -4.775,-7.286 -0.229,-0.35 -0.478,-0.687 -0.69,-0.99 -0.879,0.087 -1.672,0.173 -2.467,0.235 -0.137,0.011 -0.28,-0.101 -0.425,-0.13 -0.803,-0.159 -1.6,-0.235 -2.397,0.064 -0.237,0.089 -0.548,0.161 -0.759,0.076 -0.126,-0.051 -0.123,-0.421 -0.178,-0.648 -1.47,0.129 -1.47,0.129 -2.013,-0.164 0.112,-0.125 0.216,-0.241 0.319,-0.355 -1,0 -1.994,-0.046 -2.982,0.012 -1.068,0.063 -1.837,-0.62 -2.872,-0.922 0.262,-0.337 0.455,-0.585 0.674,-0.867 -0.122,-0.056 -0.23,-0.154 -0.324,-0.142 -1.012,0.129 -1.981,-0.255 -3.008,-0.17 -2.592,0.213 -5.193,0.311 -7.792,0.442 -1.794,0.091 -3.546,0.372 -5.212,1.074 -0.11,0.046 -0.262,0.143 -0.335,0.104 -0.439,-0.234 -0.643,0.108 -0.902,0.33 -0.391,0.333 -0.758,0.708 -1.407,0.919 0.181,-0.519 0.302,-0.867 0.424,-1.215 -0.044,-0.03 -0.089,-0.061 -0.134,-0.092 -0.423,0.396 -0.847,0.791 -1.374,1.284 -0.045,-0.397 -0.072,-0.633 -0.105,-0.928 -0.188,0.088 -0.365,0.116 -0.388,0.191 -0.183,0.582 -0.666,0.727 -1.168,0.867 -0.291,0.081 -0.57,0.208 -0.864,0.273 -0.804,0.179 -1.401,0.634 -1.948,1.242 -0.665,0.738 -1.41,1.407 -2.138,2.087 -0.18,0.168 -0.427,0.264 -0.795,0.484 0.239,-0.951 1.163,-1.507 0.692,-2.567 -0.641,0.764 -0.406,1.935 -1.355,2.563 -0.096,-0.161 -0.185,-0.307 -0.2,-0.333 -0.369,0.051 -0.639,0.088 -1.115,0.153 -0.247,0.316 -0.628,0.819 -1.025,1.31 -1.237,1.527 -2.435,3.089 -3.733,4.563 -1.366,1.551 -2.951,2.864 -4.774,3.868 -1.367,0.753 -2.807,1.285 -4.375,1.374 -0.416,0.023 -0.68,0.174 -0.878,0.514 -0.122,0.208 -0.264,0.405 -0.396,0.608 -5.299,8.167 -11.074,15.958 -18.082,22.765 -0.841,0.817 -1.577,1.653 -1.806,2.845 -0.056,0.292 -0.208,0.566 -0.331,0.843 -1.305,2.963 -2.781,5.839 -4.392,8.646 -0.06,0.104 -0.119,0.286 -0.193,0.295 -0.761,0.083 -0.898,0.889 -1.43,1.211 -0.7,0.425 -1.082,1.119 -1.594,1.706 -0.476,0.545 -0.981,1.066 -1.499,1.572 -0.148,0.146 -0.38,0.203 -0.574,0.301 -0.053,-0.048 -0.105,-0.097 -0.157,-0.145 0.617,-0.899 1.316,-1.763 1.428,-2.938 -1.288,1.493 -2.54,2.945 -3.815,4.425 0.188,0.214 0.363,0.419 0.543,0.619 1.278,1.415 2.576,2.812 3.826,4.25 0.495,0.57 1.06,0.972 1.767,1.207 1.061,0.354 2.118,0.72 3.171,1.094 0.738,0.262 1.326,0.712 1.688,1.428 0.06,0.117 0.154,0.217 0.241,0.337 0.307,-0.257 0.554,-0.48 0.818,-0.682 1.524,-1.163 2.977,-0.883 3.966,0.773 0.294,0.493 0.529,1.021 0.824,1.513 0.133,0.224 0.312,0.453 0.528,0.587 0.847,0.524 1.719,1.008 2.577,1.514 1.516,0.894 2.963,1.881 4.228,3.115 0.238,0.231 0.498,0.461 0.665,0.74 0.396,0.662 0.912,1.174 1.566,1.587 0.549,0.347 0.982,0.86 1.039,1.529 0.074,0.871 0.07,1.75 0.052,2.625 -0.01,0.451 -0.122,0.887 -0.508,1.219 -0.126,0.108 -0.173,0.369 -0.172,0.561 0.013,1.831 -0.811,3.396 -1.638,4.935 -0.3,0.557 -0.864,1.012 -1.392,1.397 -1.256,0.918 -3.153,0.182 -3.554,-1.341 -0.033,-0.124 0.031,-0.272 0.051,-0.413 0.365,0 0.663,0.004 0.96,0 0.66,-0.009 1.207,-0.307 1.518,-0.852 0.568,-0.998 1.064,-2.04 0.932,-3.129 -0.558,-0.582 -1.097,-1.037 -1.491,-1.596 -0.261,-0.368 -0.466,-0.901 -0.422,-1.332 0.069,-0.664 -0.153,-1.099 -0.597,-1.517 -0.264,-0.247 -0.462,-0.565 -0.733,-0.803 -0.321,-0.281 -0.688,-0.511 -1.075,-0.792 -0.299,0.713 -0.069,1.257 0.07,1.802 0.217,0.849 0.497,1.683 0.674,2.539 0.326,1.574 0.264,3.101 -0.53,4.574 -0.496,0.921 -0.875,1.913 -1.225,2.901 -0.661,1.865 -1.493,3.56 -3.448,4.419 -0.745,0.328 -1.434,0.78 -2.166,1.14 -0.459,0.226 -0.942,0.415 -1.432,0.563 -0.297,0.09 -0.74,0.292 -0.899,-0.079 -0.116,-0.272 0.032,-0.68 0.123,-1.009 0.043,-0.156 0.231,-0.271 0.352,-0.407 0.579,-0.654 1.181,-1.29 1.73,-1.968 0.675,-0.833 1.084,-1.812 1.397,-2.83 0.111,-0.363 0.083,-0.663 -0.15,-1.013 -0.932,-1.4 -0.81,-3.65 0.218,-5.03 0.558,-0.748 0.588,-1.302 0.068,-2.069 -0.664,-0.979 -0.98,-2.04 -1.035,-3.231 -0.032,-0.702 -0.278,-1.409 -0.521,-2.08 -0.1,-0.274 -0.41,-0.545 -0.689,-0.667 -0.718,-0.313 -1.476,-0.521 -2.319,-0.42 -0.333,1.206 -0.958,2.218 -1.888,3.038 -0.155,0.137 -0.286,0.32 -0.375,0.508 -0.491,1.034 -0.975,2.072 -1.44,3.118 -0.184,0.413 -0.284,0.863 -0.471,1.273 -0.326,0.715 -0.736,0.899 -1.456,0.712 -0.73,-0.19 -0.985,-0.53 -0.966,-1.311 0.005,-0.211 0.021,-0.425 0.062,-0.631 0.278,-1.393 0.494,-2.803 0.87,-4.169 0.293,-1.063 0.063,-2.051 -0.251,-2.999 -0.306,-0.925 -0.487,-1.798 -0.201,-2.739 0.11,-0.364 0.108,-0.729 -0.164,-1.027 -0.448,-0.49 -0.854,-1.043 -1.38,-1.433 -3.306,-2.449 -6.63,-4.872 -9.968,-7.278 -1.862,-1.342 -3.833,-2.543 -5.392,-4.304 -2.257,1.861 -4.847,2.985 -7.585,3.806 -0.404,0.121 -0.82,0.218 -1.238,0.271 -0.558,0.07 -0.659,-0.046 -0.691,-0.728 -0.625,0.34 -1.226,0.667 -1.81,0.984 -0.192,-0.146 -0.366,-0.226 -0.459,-0.361 -0.096,-0.141 -0.113,-0.336 -0.167,-0.519 -0.333,0.266 -0.667,0.521 -0.988,0.793 -1.028,0.87 -1.733,2.067 -3.136,2.57 -0.924,0.331 -1.323,0.533 -2.159,-0.071 0.443,0.016 0.943,0.215 1.156,-0.428 0.03,-0.09 0.254,-0.134 0.396,-0.163 0.353,-0.073 0.711,-0.123 1.065,-0.19 0.039,-0.008 0.066,-0.074 0.119,-0.138 -0.147,-0.094 -0.293,-0.187 -0.567,-0.36 0.375,-0.136 0.557,-0.209 0.744,-0.268 0.219,-0.068 0.441,-0.125 0.64,-0.182 -0.066,-0.225 -0.113,-0.382 -0.159,-0.539 1.424,-0.437 1.531,-0.592 1.171,-1.785 -0.307,0.24 -0.6,0.432 -0.849,0.669 -0.896,0.85 -1.768,1.723 -2.667,2.568 -0.321,0.302 -0.692,0.552 -1.041,0.825 -0.376,0.446 -0.792,0.824 -1.506,0.754 1.094,-1.129 2.188,-2.257 3.281,-3.386 -0.821,0.376 -1.534,0.875 -2.292,1.291 -0.496,0.272 -1.053,0.44 -1.595,0.618 -0.114,0.038 -0.282,-0.085 -0.498,-0.159 0.848,-0.568 1.606,-1.077 2.365,-1.586 -0.032,-0.061 -0.064,-0.121 -0.096,-0.182 -0.298,0.12 -0.601,0.229 -0.893,0.361 -0.66,0.297 -1.305,0.63 -1.974,0.902 -1.787,0.729 -3.64,1.096 -5.582,0.965 -1.792,-0.121 -3.523,-0.52 -5.224,-1.081 -0.231,-0.076 -0.47,-0.128 -0.812,-0.22 0.896,1.857 1.735,3.561 2.873,5.103 0.898,1.217 1.818,2.424 2.62,3.703 1.253,2.001 2.805,3.707 4.646,5.17 0.605,0.48 0.939,0.532 1.637,0.207 0.321,-0.149 0.68,-0.314 1.019,-0.309 0.432,0.007 0.751,-0.149 1.084,-0.368 1.207,-0.791 2.459,-0.952 3.768,-0.245 0.041,0.022 0.112,-0.012 0.205,-0.024 0.137,-0.204 0.26,-0.456 0.446,-0.645 0.205,-0.207 0.455,-0.376 0.708,-0.523 0.275,-0.16 0.604,-0.237 0.862,-0.417 1.007,-0.705 2.127,-1.135 3.329,-0.898 0.898,0.177 1.661,0.001 2.455,-0.314 0.999,-0.396 2.129,-0.276 3.106,-0.789 0.166,-0.087 0.421,-0.04 0.627,-0.008 0.596,0.091 1.191,0.192 1.78,0.316 0.85,0.178 1.337,0.786 1.396,1.652 0.015,0.22 0.072,0.472 0.198,0.644 1.155,1.577 2.079,3.271 2.499,5.188 0.206,0.937 0.351,1.911 0.339,2.867 -0.024,1.979 -0.925,3.059 -2.818,3.588 0.253,0.587 0.581,1.09 1.064,1.538 0.379,0.352 0.628,0.868 0.858,1.349 0.178,0.371 0.247,0.797 0.346,1.202 0.17,0.697 0.57,1.402 0.296,2.114 -0.37,0.962 -0.351,1.943 -0.35,2.929 0.001,1.255 -0.118,2.503 -0.677,3.623 -1.001,2.005 -3.266,3.104 -5.474,2.737 -1.201,-0.2 -2.135,-0.815 -2.687,-1.938 -0.145,-0.294 -0.272,-0.587 0.073,-0.998 0.589,0.905 1.425,1.001 2.269,0.708 0.645,-0.224 1.231,-0.626 1.823,-0.982 0.167,-0.1 0.319,-0.302 0.378,-0.488 0.271,-0.861 0.481,-1.735 0.32,-2.634 -0.081,-0.023 -0.109,-0.039 -0.138,-0.039 -0.12,0.001 -0.24,0.006 -0.36,0.009 -1.19,0.038 -2.116,-0.467 -2.768,-1.436 -0.588,-0.872 -0.908,-1.851 -0.828,-2.914 0.028,-0.38 0.134,-0.777 0.3,-1.12 0.394,-0.813 0.24,-1.22 -0.657,-1.405 -0.739,-0.154 -1.492,-0.243 -2.237,-0.371 -0.734,-0.125 -1.375,-0.401 -1.871,-1.006 -0.279,-0.34 -0.662,-0.595 -1.166,-1.034 0.194,0.643 0.357,1.059 0.444,1.49 0.233,1.168 0.399,2.354 -0.28,3.433 -0.252,0.4 -0.25,0.734 -0.184,1.176 0.234,1.544 -0.055,2.963 -1.271,4.059 -0.944,0.851 -2.49,0.842 -3.41,-0.009 -0.113,-0.104 -0.21,-0.332 -0.173,-0.463 0.035,-0.121 0.247,-0.241 0.399,-0.271 0.726,-0.146 0.814,-0.179 0.849,-0.877 0.043,-0.87 0.01,-1.744 0.01,-2.563 -1.46,-0.881 -2.476,-2.057 -3.028,-3.572 -0.201,-0.552 -0.447,-1.035 -0.783,-1.508 -0.517,-0.729 -1.292,-1.061 -2.021,-1.483 -0.323,-0.187 -0.597,-0.23 -0.934,-0.098 -0.534,0.21 -1.078,0.396 -1.615,0.598 -0.576,0.216 -1.107,0.116 -1.663,-0.127 -1.122,-0.491 -1.67,-1.422 -2.1,-2.489 -0.14,-0.347 -0.348,-0.719 -0.633,-0.943 -1.001,-0.793 -1.683,-1.783 -2.171,-2.957 -0.392,-0.943 -0.877,-1.853 -1.37,-2.75 -0.437,-0.794 -0.922,-1.563 -1.418,-2.322 -1.622,-2.48 -3.238,-4.965 -4.9,-7.418 -0.432,-0.638 -1.022,-1.168 -1.492,-1.694 -0.644,0.172 -0.803,0.514 -0.889,1.024 -0.26,1.547 -0.515,3.103 -0.919,4.615 -1.239,4.633 -3.152,9.011 -5.241,13.312 -4.572,9.413 -9.555,18.613 -14.475,27.846 -2.781,5.219 -5.931,10.251 -8.074,15.798 -0.337,0.873 -0.764,1.712 -1.172,2.556 -0.461,0.951 -0.934,1.898 -1.436,2.829 -0.097,0.181 -0.359,0.388 -0.532,0.378 -0.177,-0.011 -0.392,-0.247 -0.492,-0.436 -0.124,-0.233 -0.147,-0.521 -0.212,-0.785 -0.2,-0.813 -0.398,-1.628 -0.598,-2.442 -0.04,1.34 -0.015,2.666 0.12,3.981 0.05,0.492 -0.003,0.891 -0.27,1.278 -0.377,0.548 -0.815,1.062 -1.129,1.643 -1.534,2.843 -3.548,5.336 -5.622,7.784 -0.425,0.502 -0.918,0.982 -1.469,1.332 -0.891,0.566 -1.846,1.033 -2.792,1.507 -0.773,0.388 -0.85,0.353 -1.499,-0.327 -1.121,1.119 -2.453,1.935 -3.888,2.596 -1.042,0.479 -2.071,0.987 -3.11,1.474 -0.218,0.103 -0.448,0.217 -0.681,0.239 -1.08,0.104 -2.049,0.47 -2.939,1.088 -0.438,0.304 -0.919,0.264 -1.371,-0.013 -0.228,-0.14 -0.442,-0.3 -0.686,-0.467 -0.802,0.768 -1.691,0.698 -2.619,0.305 -0.528,-0.225 -1.072,-0.414 -1.595,-0.65 -0.323,-0.146 -0.607,-0.17 -0.948,-0.033 -2.296,0.924 -4.699,1.279 -7.161,1.313 -0.168,0.003 -0.334,0.11 -0.501,0.167 -0.799,0.269 -1.582,0.623 -2.403,0.785 -1.422,0.281 -2.869,0.485 -4.291,-0.083 -0.406,0.174 -0.817,0.347 -1.228,0.52 z m 110.97,-74.673 c 0.28,0.183 0.371,0.265 0.478,0.308 0.706,0.287 1.386,0.594 1.739,1.349 0.065,0.14 0.282,0.208 0.426,0.313 0.317,0.229 0.659,0.431 0.944,0.694 0.641,0.594 1.459,0.77 2.215,1.125 0.501,-0.745 0.577,-1.461 0.486,-2.206 -1.556,-0.377 -3.23,-0.424 -3.879,-2.265 -0.774,0.218 -1.488,0.421 -2.409,0.682 z m 22.776,-23.699 c -1.039,0.248 -1.435,0.91 -1.83,1.491 0.177,0.284 0.33,0.53 0.592,0.951 0.467,-0.92 0.81,-1.598 1.238,-2.442 z m -24.659,4.247 c -0.065,-0.056 -0.13,-0.111 -0.195,-0.167 -0.147,0.182 -0.295,0.364 -0.443,0.546 0.038,0.035 0.075,0.069 0.113,0.104 z"
       id="path2" />
    <path
       d="m 168.02,150.52 c -0.462,0.085 -0.925,0.17 -1.388,0.255 -0.013,-0.063 -0.026,-0.127 -0.039,-0.19 0.411,-0.304 0.896,-0.308 1.375,-0.334 0.017,0.089 0.035,0.179 0.052,0.269 z"
       id="path4" />
  </g>
</svg>
