0
SECTION
2
HEADER
9
$INSUNITS
70
4
0
ENDSEC
0
SECTION
2
TABLES
0
TABLE
2
LTYPE
0
LTYPE
72
65
70
64
2
CONTINUOUS
3
______
73
0
40
0
0
ENDTAB
0
TABLE
2
LAYER
0
ENDTAB
0
ENDSEC
0
SECTION
2
ENTITIES
0
LINE
8
0
10
53.9145217
20
-120.0077053
11
67.3631501
21
-118.8311028
0
LINE
8
0
10
69.1812281
20
-116.664402
11
68.0917813
21
-104.2119683
0
LINE
8
0
10
65.9250805
20
-102.3938903
11
52.4764521
21
-103.5704928
0
LINE
8
0
10
50.6583741
20
-105.7371936
11
51.7478209
21
-118.1896273
0
LINE
8
0
10
73.3276739
20
-135.3742118
11
86.7763023
21
-134.1976093
0
LINE
8
0
10
88.5943803
20
-132.0309085
11
87.5049335
21
-119.5784748
0
LINE
8
0
10
85.3382327
20
-117.7603968
11
71.8896043
21
-118.9369993
0
LINE
8
0
10
70.0715263
20
-121.1037001
11
71.1609731
21
-133.5561338
0
LINE
8
0
10
71.8460262
20
-118.438902
11
85.2946546
21
-117.2622995
0
LINE
8
0
10
87.1127326
20
-115.0955987
11
86.0232858
21
-102.643165
0
LINE
8
0
10
83.856585
20
-100.825087
11
70.4079566
21
-102.0016895
0
LINE
8
0
10
68.5898786
20
-104.1683903
11
69.6793254
21
-116.620824
0
LINE
8
0
10
70.3643786
20
-101.5035921
11
83.813007
21
-100.3269896
0
LINE
8
0
10
85.631085
20
-98.1602888
11
84.5416382
21
-85.7078551
0
LINE
8
0
10
82.3749374
20
-83.8897771
11
68.926309
21
-85.0663796
0
LINE
8
0
10
67.108231
20
-87.2330804
11
68.1976778
21
-99.6855141
0
LINE
8
0
10
91.2591784
20
-133.8054085
11
104.7078068
21
-132.628806
0
LINE
8
0
10
106.5258848
20
-130.4621052
11
105.436438
21
-118.0096715
0
LINE
8
0
10
103.2697372
20
-116.1915935
11
89.8211088
21
-117.368196
0
LINE
8
0
10
88.0030308
20
-119.5348968
11
89.0924776
21
-131.9873305
0
LINE
8
0
10
89.7775308
20
-116.8700986
11
103.2261592
21
-115.6934961
0
LINE
8
0
10
105.0442372
20
-113.5267953
11
103.9547904
21
-101.0743616
0
LINE
8
0
10
101.7880896
20
-99.2562836
11
88.3394612
21
-100.4328861
0
LINE
8
0
10
86.5213832
20
-102.5995869
11
87.61083
21
-115.0520206
0
LINE
8
0
10
88.2958832
20
-99.9347887
11
101.7445116
21
-98.7581862
0
LINE
8
0
10
103.5625896
20
-96.5914854
11
102.4731428
21
-84.1390517
0
LINE
8
0
10
100.306442
20
-82.3209737
11
86.8578136
21
-83.4975762
0
LINE
8
0
10
85.0397356
20
-85.664277
11
86.1291824
21
-98.1167107
0
LINE
8
0
10
86.8142355
20
-82.9994789
11
100.2628639
21
-81.8228764
0
LINE
8
0
10
102.0809419
20
-79.6561756
11
100.9914951
21
-67.2037419
0
LINE
8
0
10
98.8247943
20
-65.3856639
11
85.3761659
21
-66.5622664
0
LINE
8
0
10
83.5580879
20
-68.7289672
11
84.6475347
21
-81.1814009
0
LINE
8
0
10
108.2524767
20
-120.4681454
11
121.7524767
21
-120.4681454
0
LINE
8
0
10
123.7524767
20
-118.4681454
11
123.7524767
21
-105.9681454
0
LINE
8
0
10
121.7524767
20
-103.9681454
11
108.2524767
21
-103.9681454
0
LINE
8
0
10
106.2524767
20
-105.9681454
11
106.2524767
21
-118.4681454
0
LINE
8
0
10
108.2524766
20
-103.4681453
11
121.7524766
21
-103.4681453
0
LINE
8
0
10
123.7524766
20
-101.4681453
11
123.7524766
21
-88.9681453
0
LINE
8
0
10
121.7524766
20
-86.9681453
11
108.2524766
21
-86.9681453
0
LINE
8
0
10
106.2524766
20
-88.9681453
11
106.2524766
21
-101.4681453
0
LINE
8
0
10
108.2524766
20
-86.4681453
11
121.7524766
21
-86.4681453
0
LINE
8
0
10
123.7524766
20
-84.4681453
11
123.7524766
21
-71.9681453
0
LINE
8
0
10
121.7524766
20
-69.9681453
11
108.2524766
21
-69.9681453
0
LINE
8
0
10
106.2524766
20
-71.9681453
11
106.2524766
21
-84.4681453
0
LINE
8
0
10
108.2524766
20
-69.4681453
11
121.7524766
21
-69.4681453
0
LINE
8
0
10
123.7524766
20
-67.4681453
11
123.7524766
21
-54.9681453
0
LINE
8
0
10
121.7524766
20
-52.9681453
11
108.2524766
21
-52.9681453
0
LINE
8
0
10
106.2524766
20
-54.9681453
11
106.2524766
21
-67.4681453
0
LINE
8
0
10
126.2524766
20
-131.8581454
11
139.7524766
21
-131.8581454
0
LINE
8
0
10
141.7524766
20
-129.8581454
11
141.7524766
21
-117.3581454
0
LINE
8
0
10
139.7524766
20
-115.3581454
11
126.2524766
21
-115.3581454
0
LINE
8
0
10
124.2524766
20
-117.3581454
11
124.2524766
21
-129.8581454
0
LINE
8
0
10
126.2524766
20
-114.8581453
11
139.7524766
21
-114.8581453
0
LINE
8
0
10
141.7524766
20
-112.8581453
11
141.7524766
21
-100.3581453
0
LINE
8
0
10
139.7524766
20
-98.3581453
11
126.2524766
21
-98.3581453
0
LINE
8
0
10
124.2524766
20
-100.3581453
11
124.2524766
21
-112.8581453
0
LINE
8
0
10
126.2524765
20
-97.8581453
11
139.7524765
21
-97.8581453
0
LINE
8
0
10
141.7524765
20
-95.8581453
11
141.7524765
21
-83.3581453
0
LINE
8
0
10
139.7524765
20
-81.3581453
11
126.2524765
21
-81.3581453
0
LINE
8
0
10
124.2524765
20
-83.3581453
11
124.2524765
21
-95.8581453
0
LINE
8
0
10
126.2524765
20
-80.8581453
11
139.7524765
21
-80.8581453
0
LINE
8
0
10
141.7524765
20
-78.8581453
11
141.7524765
21
-66.3581453
0
LINE
8
0
10
139.7524765
20
-64.3581453
11
126.2524765
21
-64.3581453
0
LINE
8
0
10
124.2524765
20
-66.3581453
11
124.2524765
21
-78.8581453
0
LINE
8
0
10
126.2524765
20
-63.8581453
11
139.7524765
21
-63.8581453
0
LINE
8
0
10
141.7524765
20
-61.8581453
11
141.7524765
21
-49.3581453
0
LINE
8
0
10
139.7524765
20
-47.3581453
11
126.2524765
21
-47.3581453
0
LINE
8
0
10
124.2524765
20
-49.3581453
11
124.2524765
21
-61.8581453
0
LINE
8
0
10
144.2524766
20
-137.4681453
11
157.7524766
21
-137.4681453
0
LINE
8
0
10
159.7524766
20
-135.4681453
11
159.7524766
21
-122.9681453
0
LINE
8
0
10
157.7524766
20
-120.9681453
11
144.2524766
21
-120.9681453
0
LINE
8
0
10
142.2524766
20
-122.9681453
11
142.2524766
21
-135.4681453
0
LINE
8
0
10
144.2524766
20
-120.4681453
11
157.7524766
21
-120.4681453
0
LINE
8
0
10
159.7524766
20
-118.4681453
11
159.7524766
21
-105.9681453
0
LINE
8
0
10
157.7524766
20
-103.9681453
11
144.2524766
21
-103.9681453
0
LINE
8
0
10
142.2524766
20
-105.9681453
11
142.2524766
21
-118.4681453
0
LINE
8
0
10
144.2524766
20
-103.4681453
11
157.7524766
21
-103.4681453
0
LINE
8
0
10
159.7524766
20
-101.4681453
11
159.7524766
21
-88.9681453
0
LINE
8
0
10
157.7524766
20
-86.9681453
11
144.2524766
21
-86.9681453
0
LINE
8
0
10
142.2524766
20
-88.9681453
11
142.2524766
21
-101.4681453
0
LINE
8
0
10
144.2524766
20
-86.4681453
11
157.7524766
21
-86.4681453
0
LINE
8
0
10
159.7524766
20
-84.4681453
11
159.7524766
21
-71.9681453
0
LINE
8
0
10
157.7524766
20
-69.9681453
11
144.2524766
21
-69.9681453
0
LINE
8
0
10
142.2524766
20
-71.9681453
11
142.2524766
21
-84.4681453
0
LINE
8
0
10
144.2524765
20
-69.4681452
11
157.7524765
21
-69.4681452
0
LINE
8
0
10
159.7524765
20
-67.4681452
11
159.7524765
21
-54.9681452
0
LINE
8
0
10
157.7524765
20
-52.9681452
11
144.2524765
21
-52.9681452
0
LINE
8
0
10
142.2524765
20
-54.9681452
11
142.2524765
21
-67.4681452
0
LINE
8
0
10
162.2524766
20
-122.9681453
11
175.7524766
21
-122.9681453
0
LINE
8
0
10
177.7524766
20
-120.9681453
11
177.7524766
21
-108.4681453
0
LINE
8
0
10
175.7524766
20
-106.4681453
11
162.2524766
21
-106.4681453
0
LINE
8
0
10
160.2524766
20
-108.4681453
11
160.2524766
21
-120.9681453
0
LINE
8
0
10
162.2524766
20
-105.9681453
11
175.7524766
21
-105.9681453
0
LINE
8
0
10
177.7524766
20
-103.9681453
11
177.7524766
21
-91.4681453
0
LINE
8
0
10
175.7524766
20
-89.4681453
11
162.2524766
21
-89.4681453
0
LINE
8
0
10
160.2524766
20
-91.4681453
11
160.2524766
21
-103.9681453
0
LINE
8
0
10
162.2524765
20
-88.9681452
11
175.7524765
21
-88.9681452
0
LINE
8
0
10
177.7524765
20
-86.9681452
11
177.7524765
21
-74.4681452
0
LINE
8
0
10
175.7524765
20
-72.4681452
11
162.2524765
21
-72.4681452
0
LINE
8
0
10
160.2524765
20
-74.4681452
11
160.2524765
21
-86.9681452
0
LINE
8
0
10
162.2524765
20
-71.9681452
11
175.7524765
21
-71.9681452
0
LINE
8
0
10
177.7524765
20
-69.9681452
11
177.7524765
21
-57.4681452
0
LINE
8
0
10
175.7524765
20
-55.4681452
11
162.2524765
21
-55.4681452
0
LINE
8
0
10
160.2524765
20
-57.4681452
11
160.2524765
21
-69.9681452
0
LINE
8
0
10
162.3472202
20
-139.8300048
11
175.3872188
21
-143.3240619
0
LINE
8
0
10
177.8367085
20
-141.9098482
11
181.0719465
21
-129.8357755
0
LINE
8
0
10
179.6577328
20
-127.3862858
11
166.6177342
21
-123.8922287
0
LINE
8
0
10
164.1682445
20
-125.3064424
11
160.9330065
21
-137.3805151
0
LINE
8
0
10
192.2569272
20
-154.0676866
11
199.0069272
21
-142.3763436
0
LINE
8
0
10
198.2748764
20
-139.6442928
11
187.4495588
21
-133.3942928
0
LINE
8
0
10
184.717508
20
-134.1263436
11
177.967508
21
-145.8176866
0
LINE
8
0
10
178.6995588
20
-148.5497374
11
189.5248764
21
-154.7997374
0
LINE
8
0
10
180.5024766
20
-122.9681453
11
194.0024766
21
-122.9681453
0
LINE
8
0
10
196.0024766
20
-120.9681453
11
196.0024766
21
-108.4681453
0
LINE
8
0
10
194.0024766
20
-106.4681453
11
180.5024766
21
-106.4681453
0
LINE
8
0
10
178.5024766
20
-108.4681453
11
178.5024766
21
-120.9681453
0
LINE
8
0
10
180.2524765
20
-66.2681452
11
180.2524765
21
-79.7681452
0
LINE
8
0
10
182.2524765
20
-81.7681452
11
194.7524765
21
-81.7681452
0
LINE
8
0
10
196.7524765
20
-79.7681452
11
196.7524765
21
-66.2681452
0
LINE
8
0
10
194.7524765
20
-64.2681452
11
182.2524765
21
-64.2681452
0
ARC
8
0
10
197.2748764
20
-141.3763436
40
2
50
329.9999999
51
59.9999999
0
ARC
8
0
10
186.4495588
20
-135.1263436
40
2
50
59.9999999
51
149.9999999
0
ARC
8
0
10
179.6995588
20
-146.8176866
40
2
50
149.9999999
51
239.9999999
0
ARC
8
0
10
190.5248764
20
-153.0676866
40
2
50
239.9999999
51
329.9999999
0
ARC
8
0
10
121.7524767
20
-118.4681454
40
2
50
270
51
0
0
ARC
8
0
10
121.7524767
20
-105.9681454
40
2
50
0
51
90
0
ARC
8
0
10
108.2524767
20
-105.9681454
40
2
50
90
51
180
0
ARC
8
0
10
108.2524767
20
-118.4681454
40
2
50
180
51
270
0
ARC
8
0
10
121.7524766
20
-101.4681453
40
2
50
270
51
0
0
ARC
8
0
10
121.7524766
20
-88.9681453
40
2
50
0
51
90
0
ARC
8
0
10
108.2524766
20
-88.9681453
40
2
50
90
51
180
0
ARC
8
0
10
108.2524766
20
-101.4681453
40
2
50
180
51
270
0
ARC
8
0
10
121.7524766
20
-84.4681453
40
2
50
270
51
0
0
ARC
8
0
10
121.7524766
20
-71.9681453
40
2
50
0
51
90
0
ARC
8
0
10
108.2524766
20
-71.9681453
40
2
50
90
51
180
0
ARC
8
0
10
108.2524766
20
-84.4681453
40
2
50
180
51
270
0
ARC
8
0
10
121.7524766
20
-67.4681453
40
2
50
270
51
0
0
ARC
8
0
10
121.7524766
20
-54.9681453
40
2
50
0
51
90
0
ARC
8
0
10
108.2524766
20
-54.9681453
40
2
50
90
51
180
0
ARC
8
0
10
108.2524766
20
-67.4681453
40
2
50
180
51
270
0
ARC
8
0
10
139.7524766
20
-129.8581454
40
2
50
270
51
0
0
ARC
8
0
10
139.7524766
20
-117.3581454
40
2
50
0
51
90
0
ARC
8
0
10
126.2524766
20
-117.3581454
40
2
50
90
51
180
0
ARC
8
0
10
126.2524766
20
-129.8581454
40
2
50
180
51
270
0
ARC
8
0
10
139.7524766
20
-112.8581453
40
2
50
270
51
0
0
ARC
8
0
10
139.7524766
20
-100.3581453
40
2
50
0
51
90
0
ARC
8
0
10
126.2524766
20
-100.3581453
40
2
50
90
51
180
0
ARC
8
0
10
126.2524766
20
-112.8581453
40
2
50
180
51
270
0
ARC
8
0
10
139.7524765
20
-95.8581453
40
2
50
270
51
0
0
ARC
8
0
10
139.7524765
20
-83.3581453
40
2
50
0
51
90
0
ARC
8
0
10
126.2524765
20
-83.3581453
40
2
50
90
51
180
0
ARC
8
0
10
126.2524765
20
-95.8581453
40
2
50
180
51
270
0
ARC
8
0
10
139.7524765
20
-78.8581453
40
2
50
270
51
0
0
ARC
8
0
10
139.7524765
20
-66.3581453
40
2
50
0
51
90
0
ARC
8
0
10
126.2524765
20
-66.3581453
40
2
50
90
51
180
0
ARC
8
0
10
126.2524765
20
-78.8581453
40
2
50
180
51
270
0
ARC
8
0
10
139.7524765
20
-61.8581453
40
2
50
270
51
0
0
ARC
8
0
10
139.7524765
20
-49.3581453
40
2
50
0
51
90
0
ARC
8
0
10
126.2524765
20
-49.3581453
40
2
50
90
51
180
0
ARC
8
0
10
126.2524765
20
-61.8581453
40
2
50
180
51
270
0
ARC
8
0
10
157.7524766
20
-135.4681453
40
2
50
270
51
0
0
ARC
8
0
10
157.7524766
20
-122.9681453
40
2
50
0
51
90
0
ARC
8
0
10
144.2524766
20
-122.9681453
40
2
50
90
51
180
0
ARC
8
0
10
144.2524766
20
-135.4681453
40
2
50
180
51
270
0
ARC
8
0
10
157.7524766
20
-118.4681453
40
2
50
270
51
0
0
ARC
8
0
10
157.7524766
20
-105.9681453
40
2
50
0
51
90
0
ARC
8
0
10
144.2524766
20
-105.9681453
40
2
50
90
51
180
0
ARC
8
0
10
144.2524766
20
-118.4681453
40
2
50
180
51
270
0
ARC
8
0
10
157.7524766
20
-101.4681453
40
2
50
270
51
0
0
ARC
8
0
10
157.7524766
20
-88.9681453
40
2
50
0
51
90
0
ARC
8
0
10
144.2524766
20
-88.9681453
40
2
50
90
51
180
0
ARC
8
0
10
144.2524766
20
-101.4681453
40
2
50
180
51
270
0
ARC
8
0
10
157.7524766
20
-84.4681453
40
2
50
270
51
0
0
ARC
8
0
10
157.7524766
20
-71.9681453
40
2
50
0
51
90
0
ARC
8
0
10
144.2524766
20
-71.9681453
40
2
50
90
51
180
0
ARC
8
0
10
144.2524766
20
-84.4681453
40
2
50
180
51
270
0
ARC
8
0
10
157.7524765
20
-67.4681452
40
2
50
270
51
0
0
ARC
8
0
10
157.7524765
20
-54.9681452
40
2
50
0
51
90
0
ARC
8
0
10
144.2524765
20
-54.9681452
40
2
50
90
51
180
0
ARC
8
0
10
144.2524765
20
-67.4681452
40
2
50
180
51
270
0
ARC
8
0
10
175.7524766
20
-120.9681453
40
2
50
270
51
0
0
ARC
8
0
10
175.7524766
20
-108.4681453
40
2
50
0
51
90
0
ARC
8
0
10
162.2524766
20
-108.4681453
40
2
50
90
51
180
0
ARC
8
0
10
162.2524766
20
-120.9681453
40
2
50
180
51
270
0
ARC
8
0
10
175.7524766
20
-103.9681453
40
2
50
270
51
0
0
ARC
8
0
10
175.7524766
20
-91.4681453
40
2
50
0
51
90
0
ARC
8
0
10
162.2524766
20
-91.4681453
40
2
50
90
51
180
0
ARC
8
0
10
162.2524766
20
-103.9681453
40
2
50
180
51
270
0
ARC
8
0
10
175.7524765
20
-86.9681452
40
2
50
270
51
0
0
ARC
8
0
10
175.7524765
20
-74.4681452
40
2
50
0
51
90
0
ARC
8
0
10
162.2524765
20
-74.4681452
40
2
50
90
51
180
0
ARC
8
0
10
162.2524765
20
-86.9681452
40
2
50
180
51
270
0
ARC
8
0
10
175.7524765
20
-69.9681452
40
2
50
270
51
0
0
ARC
8
0
10
175.7524765
20
-57.4681452
40
2
50
0
51
90
0
ARC
8
0
10
162.2524765
20
-57.4681452
40
2
50
90
51
180
0
ARC
8
0
10
162.2524765
20
-69.9681452
40
2
50
180
51
270
0
ARC
8
0
10
194.0024766
20
-120.9681453
40
2
50
270
51
0
0
ARC
8
0
10
194.0024766
20
-108.4681453
40
2
50
0
51
90
0
ARC
8
0
10
180.5024766
20
-108.4681453
40
2
50
90
51
180
0
ARC
8
0
10
180.5024766
20
-120.9681453
40
2
50
180
51
270
0
ARC
8
0
10
182.2524765
20
-79.7681452
40
2
50
180
51
270
0
ARC
8
0
10
194.7524765
20
-79.7681452
40
2
50
270
51
0
0
ARC
8
0
10
194.7524765
20
-66.2681452
40
2
50
0
51
90
0
ARC
8
0
10
182.2524765
20
-66.2681452
40
2
50
90
51
180
0
ARC
8
0
10
175.9048568
20
-141.3922102
40
2
50
255.0000021
51
345.0000021
0
ARC
8
0
10
179.1400948
20
-129.3181375
40
2
50
345.0000021
51
75.0000021
0
ARC
8
0
10
166.1000962
20
-125.8240804
40
2
50
75.0000021
51
165.0000021
0
ARC
8
0
10
162.8648582
20
-137.8981531
40
2
50
165.0000021
51
255.0000021
0
ARC
8
0
10
86.6019909
20
-132.2052199
40
2
50
274.9999976
51
4.9999976
0
ARC
8
0
10
85.5125441
20
-119.7527862
40
2
50
4.9999976
51
94.9999976
0
ARC
8
0
10
72.0639157
20
-120.9293887
40
2
50
94.9999976
51
184.9999976
0
ARC
8
0
10
73.1533625
20
-133.3818224
40
2
50
184.9999976
51
274.9999976
0
ARC
8
0
10
85.1203432
20
-115.2699101
40
2
50
274.9999976
51
4.9999976
0
ARC
8
0
10
84.0308964
20
-102.8174764
40
2
50
4.9999976
51
94.9999976
0
ARC
8
0
10
70.582268
20
-103.9940789
40
2
50
94.9999976
51
184.9999976
0
ARC
8
0
10
71.6717148
20
-116.4465126
40
2
50
184.9999976
51
274.9999976
0
ARC
8
0
10
83.6386956
20
-98.3346002
40
2
50
274.9999976
51
4.9999976
0
ARC
8
0
10
82.5492488
20
-85.8821665
40
2
50
4.9999976
51
94.9999976
0
ARC
8
0
10
69.1006204
20
-87.058769
40
2
50
94.9999976
51
184.9999976
0
ARC
8
0
10
70.1900672
20
-99.5112027
40
2
50
184.9999976
51
274.9999976
0
ARC
8
0
10
104.5334954
20
-130.6364166
40
2
50
274.9999976
51
4.9999976
0
ARC
8
0
10
103.4440486
20
-118.1839829
40
2
50
4.9999976
51
94.9999976
0
ARC
8
0
10
89.9954202
20
-119.3605854
40
2
50
94.9999976
51
184.9999976
0
ARC
8
0
10
91.084867
20
-131.8130191
40
2
50
184.9999976
51
274.9999976
0
ARC
8
0
10
67.1888387
20
-116.8387134
40
2
50
274.9999976
51
4.9999976
0
ARC
8
0
10
66.0993919
20
-104.3862797
40
2
50
4.9999976
51
94.9999976
0
ARC
8
0
10
52.6507635
20
-105.5628822
40
2
50
94.9999976
51
184.9999976
0
ARC
8
0
10
53.7402103
20
-118.0153159
40
2
50
184.9999976
51
274.9999976
0
ARC
8
0
10
103.0518478
20
-113.7011067
40
2
50
274.9999976
51
4.9999976
0
ARC
8
0
10
101.962401
20
-101.248673
40
2
50
4.9999976
51
94.9999976
0
ARC
8
0
10
88.5137726
20
-102.4252755
40
2
50
94.9999976
51
184.9999976
0
ARC
8
0
10
89.6032194
20
-114.8777092
40
2
50
184.9999976
51
274.9999976
0
ARC
8
0
10
101.5702002
20
-96.7657968
40
2
50
274.9999976
51
4.9999976
0
ARC
8
0
10
100.4807534
20
-84.3133631
40
2
50
4.9999976
51
94.9999976
0
ARC
8
0
10
87.032125
20
-85.4899656
40
2
50
94.9999976
51
184.9999976
0
ARC
8
0
10
88.1215718
20
-97.9423993
40
2
50
184.9999976
51
274.9999976
0
ARC
8
0
10
100.0885525
20
-79.830487
40
2
50
274.9999976
51
4.9999976
0
ARC
8
0
10
98.9991057
20
-67.3780533
40
2
50
4.9999976
51
94.9999976
0
ARC
8
0
10
85.5504773
20
-68.5546558
40
2
50
94.9999976
51
184.9999976
0
ARC
8
0
10
86.6399241
20
-81.0070895
40
2
50
184.9999976
51
274.9999976
0
ENDSEC
0
EOF