0
SECTION
2
HEADER
9
$INSUNITS
70
4
0
ENDSEC
0
SECTION
2
TABLES
0
TABLE
2
LTYPE
0
LTYPE
72
65
70
64
2
CONTINUOUS
3
______
73
0
40
0
0
ENDTAB
0
TABLE
2
LAYER
0
ENDTAB
0
ENDSEC
0
SECTION
2
ENTITIES
0
LINE
8
0
10
48.5132363
20
-124.244581
11
56.4827939
21
-123.547335
0
LINE
8
0
10
54.391056
20
-99.6386623
11
46.4214985
21
-100.3359082
0
LINE
8
0
10
46.4214985
20
-100.3359082
11
48.5132363
21
-124.244581
0
LINE
8
0
10
58.8359989
20
-150.4445919
11
121.5962648
21
-144.9537801
0
LINE
8
0
10
56.4827939
20
-123.547335
11
58.8359989
21
-150.4445919
0
LINE
8
0
10
52.037851
20
-72.7414055
11
54.391056
21
-99.6386623
0
LINE
8
0
10
52.037851
20
-72.7414055
11
69.9693556
21
-71.1726021
0
LINE
8
0
10
120.7786277
20
-135.6081454
11
121.5962648
21
-144.9537801
0
LINE
8
0
10
69.3592653
20
-64.1992392
11
92.5024766
21
-62.1744706
0
LINE
8
0
10
69.9693556
20
-71.1726021
11
69.3592653
21
-64.1992392
0
LINE
8
0
10
92.5024766
20
-56.2181453
11
102.5024766
21
-56.2181453
0
LINE
8
0
10
92.5024766
20
-62.1744706
11
92.5024766
21
-56.2181453
0
LINE
8
0
10
102.5024766
20
-49.2181453
11
120.5024765
21
-49.2181453
0
LINE
8
0
10
102.5024766
20
-49.2181453
11
102.5024766
21
-56.2181453
0
LINE
8
0
10
120.7786277
20
-135.6081454
11
138.5024766
21
-135.6081454
0
LINE
8
0
10
145.5024765
20
-49.2181452
11
145.5024765
21
-43.6081453
0
LINE
8
0
10
145.5024765
20
-43.6081453
11
120.5024765
21
-43.6081453
0
LINE
8
0
10
120.5024765
20
-43.6081453
11
120.5024765
21
-49.2181453
0
LINE
8
0
10
138.5024766
20
-141.2181453
11
156.0224309
21
-141.2181453
0
LINE
8
0
10
138.5024766
20
-135.6081454
11
138.5024766
21
-141.2181453
0
LINE
8
0
10
163.5024765
20
-51.7181452
11
163.5024765
21
-49.2181452
0
LINE
8
0
10
145.5024765
20
-49.2181452
11
163.5024765
21
-49.2181452
0
LINE
8
0
10
181.5024766
20
-102.7181453
11
181.5024766
21
-85.5181452
0
LINE
8
0
10
181.5024765
20
-60.5181452
11
181.5024765
21
-51.7181452
0
LINE
8
0
10
163.5024765
20
-51.7181452
11
181.5024765
21
-51.7181452
0
LINE
8
0
10
155.8225751
20
-141.9640172
11
173.1774843
21
-146.6142511
0
LINE
8
0
10
185.4675952
20
-127.9198786
11
185.7895987
21
-126.7181453
0
LINE
8
0
10
156.0224309
20
-141.2181453
11
155.8225751
21
-141.9640172
0
LINE
8
0
10
192.6295224
20
-160.9223326
11
205.1295224
21
-139.2716976
0
LINE
8
0
10
205.1295224
20
-139.2716976
11
185.4675952
21
-127.9198786
0
LINE
8
0
10
173.1774843
20
-146.6142511
11
171.8449128
21
-148.9223326
0
LINE
8
0
10
171.8449128
20
-148.9223326
11
192.6295224
21
-160.9223326
0
LINE
8
0
10
185.7895987
20
-126.7181453
11
199.7524766
21
-126.7181453
0
LINE
8
0
10
199.7524766
20
-126.7181453
11
199.7524766
21
-102.7181453
0
LINE
8
0
10
199.7524766
20
-102.7181453
11
181.5024766
21
-102.7181453
0
LINE
8
0
10
181.5024766
20
-85.5181452
11
200.5024765
21
-85.5181452
0
LINE
8
0
10
200.5024765
20
-85.5181452
11
200.5024765
21
-60.5181452
0
LINE
8
0
10
200.5024765
20
-60.5181452
11
181.5024765
21
-60.5181452
0
ENDSEC
0
EOF