0
SECTION
2
HEADER
9
$INSUNITS
70
4
0
ENDSEC
0
SECTION
2
TABLES
0
TABLE
2
LTYPE
0
LTYPE
72
65
70
64
2
CONTINUOUS
3
______
73
0
40
0
0
ENDTAB
0
TABLE
2
LAYER
0
ENDTAB
0
ENDSEC
0
SECTION
2
ENTITIES
0
LINE
8
0
10
69.5755111
20
-136.4091991
11
51.4617919
21
-122.0712605
0
LINE
8
0
10
50.7106973
20
-120.6773923
11
49.2050109
21
-103.467318
0
LINE
8
0
10
49.7026522
20
-101.9641996
11
81.8283933
21
-65.8265995
0
LINE
8
0
10
82.2887638
20
-65.4436638
11
104.7948275
21
-51.8436242
0
LINE
8
0
10
105.234105
20
-51.6459545
11
122.7118211
21
-46.1987329
0
LINE
8
0
10
123.3069213
20
-46.1081453
11
142.7799866
21
-46.1081453
0
LINE
8
0
10
143.2195268
20
-46.1570419
11
177.4420167
21
-53.8666083
0
LINE
8
0
10
179.0024765
20
-55.8177117
11
179.0024765
21
-101.7181453
0
LINE
8
0
10
181.0024765
20
-103.7181453
11
196.7524766
21
-103.7181453
0
LINE
8
0
10
198.7524766
20
-105.7181453
11
198.7524766
21
-124.0342262
0
LINE
8
0
10
198.7860192
20
-124.39898
11
201.5798643
21
-139.461136
0
LINE
8
0
10
201.3454578
20
-140.8258898
11
192.5584779
21
-156.0453854
0
LINE
8
0
10
190.1315737
20
-156.9207997
11
141.1910669
21
-138.7880193
0
LINE
8
0
10
140.8037502
20
-138.6872197
11
108.2943263
21
-133.6281327
0
LINE
8
0
10
107.8124782
20
-133.6119572
11
70.9911173
21
-136.8334089
0
ARC
8
0
10
52.7030867
20
-120.5030809
40
2
50
184.9999976
51
231.6365737
0
ARC
8
0
10
51.1974004
20
-103.2930066
40
2
50
138.3634216
51
184.9999976
0
ARC
8
0
10
83.3231414
20
-67.1554065
40
2
50
121.1438711
51
138.3634216
0
ARC
8
0
10
105.8292052
20
-53.5553669
40
2
50
107.3105158
51
121.1438711
0
ARC
8
0
10
123.3069213
20
-48.1081453
40
2
50
90
51
107.3105158
0
ARC
8
0
10
142.7799866
20
-48.1081453
40
2
50
77.3044699
51
90
0
ARC
8
0
10
177.0024765
20
-55.8177117
40
2
50
0
51
77.3044699
0
ARC
8
0
10
181.0024765
20
-101.7181453
40
2
50
180
51
270
0
ARC
8
0
10
196.7524766
20
-105.7181453
40
2
50
0
51
90
0
ARC
8
0
10
200.7524766
20
-124.0342262
40
2
50
180
51
190.5082382
0
ARC
8
0
10
199.613407
20
-139.8258898
40
2
50
329.9999999
51
10.5082382
0
ARC
8
0
10
190.8264271
20
-155.0453854
40
2
50
249.67
51
329.9999999
0
ARC
8
0
10
140.4962136
20
-140.6634336
40
2
50
69.67
51
81.154631
0
ARC
8
0
10
107.9867896
20
-135.6043466
40
2
50
81.154631
51
94.9999976
0
ARC
8
0
10
70.8168059
20
-134.8410195
40
2
50
231.6365737
51
274.9999976
0
LINE
8
0
10
53.5565284
20
-118.7842509
11
67.5032542
21
-117.5640705
0
LINE
8
0
10
67.5032542
20
-117.5640705
11
66.2830738
21
-103.6173447
0
LINE
8
0
10
66.2830738
20
-103.6173447
11
52.336348
21
-104.8375251
0
LINE
8
0
10
52.336348
20
-104.8375251
11
53.5565284
21
-118.7842509
0
LINE
8
0
10
72.9696806
20
-134.1507574
11
86.9164064
21
-132.930577
0
LINE
8
0
10
86.9164064
20
-132.930577
11
85.696226
21
-118.9838512
0
LINE
8
0
10
85.696226
20
-118.9838512
11
71.7495002
21
-120.2040316
0
LINE
8
0
10
71.7495002
20
-120.2040316
11
72.9696806
21
-134.1507574
0
LINE
8
0
10
71.4880329
20
-117.2154476
11
85.4347587
21
-115.9952672
0
LINE
8
0
10
85.4347587
20
-115.9952672
11
84.2145783
21
-102.0485414
0
LINE
8
0
10
84.2145783
20
-102.0485414
11
70.2678525
21
-103.2687218
0
LINE
8
0
10
70.2678525
20
-103.2687218
11
71.4880329
21
-117.2154476
0
LINE
8
0
10
70.0063853
20
-100.2801377
11
83.9531111
21
-99.0599573
0
LINE
8
0
10
83.9531111
20
-99.0599573
11
82.7329307
21
-85.1132315
0
LINE
8
0
10
82.7329307
20
-85.1132315
11
68.7862049
21
-86.3334119
0
LINE
8
0
10
68.7862049
20
-86.3334119
11
70.0063853
21
-100.2801377
0
LINE
8
0
10
90.9011851
20
-132.5819541
11
104.8479109
21
-131.3617737
0
LINE
8
0
10
104.8479109
20
-131.3617737
11
103.6277305
21
-117.4150479
0
LINE
8
0
10
103.6277305
20
-117.4150479
11
89.6810047
21
-118.6352283
0
LINE
8
0
10
89.6810047
20
-118.6352283
11
90.9011851
21
-132.5819541
0
LINE
8
0
10
89.4195375
20
-115.6466442
11
103.3662633
21
-114.4264638
0
LINE
8
0
10
103.3662633
20
-114.4264638
11
102.1460829
21
-100.479738
0
LINE
8
0
10
102.1460829
20
-100.479738
11
88.1993571
21
-101.6999184
0
LINE
8
0
10
88.1993571
20
-101.6999184
11
89.4195375
21
-115.6466442
0
LINE
8
0
10
87.9378899
20
-98.7113343
11
101.8846157
21
-97.4911539
0
LINE
8
0
10
101.8846157
20
-97.4911539
11
100.6644353
21
-83.5444281
0
LINE
8
0
10
100.6644353
20
-83.5444281
11
86.7177095
21
-84.7646085
0
LINE
8
0
10
86.7177095
20
-84.7646085
11
87.9378899
21
-98.7113343
0
LINE
8
0
10
86.4562422
20
-81.7760245
11
100.402968
21
-80.5558441
0
LINE
8
0
10
100.402968
20
-80.5558441
11
99.1827876
21
-66.6091183
0
LINE
8
0
10
99.1827876
20
-66.6091183
11
85.2360618
21
-67.8292987
0
LINE
8
0
10
85.2360618
20
-67.8292987
11
86.4562422
21
-81.7760245
0
LINE
8
0
10
108.0024767
20
-119.2181454
11
122.0024767
21
-119.2181454
0
LINE
8
0
10
122.0024767
20
-119.2181454
11
122.0024767
21
-105.2181454
0
LINE
8
0
10
122.0024767
20
-105.2181454
11
108.0024767
21
-105.2181454
0
LINE
8
0
10
108.0024767
20
-105.2181454
11
108.0024767
21
-119.2181454
0
LINE
8
0
10
108.0024766
20
-102.2181453
11
122.0024766
21
-102.2181453
0
LINE
8
0
10
122.0024766
20
-102.2181453
11
122.0024766
21
-88.2181453
0
LINE
8
0
10
122.0024766
20
-88.2181453
11
108.0024766
21
-88.2181453
0
LINE
8
0
10
108.0024766
20
-88.2181453
11
108.0024766
21
-102.2181453
0
LINE
8
0
10
108.0024766
20
-85.2181453
11
122.0024766
21
-85.2181453
0
LINE
8
0
10
122.0024766
20
-85.2181453
11
122.0024766
21
-71.2181453
0
LINE
8
0
10
122.0024766
20
-71.2181453
11
108.0024766
21
-71.2181453
0
LINE
8
0
10
108.0024766
20
-71.2181453
11
108.0024766
21
-85.2181453
0
LINE
8
0
10
108.0024766
20
-68.2181453
11
122.0024766
21
-68.2181453
0
LINE
8
0
10
122.0024766
20
-68.2181453
11
122.0024766
21
-54.2181453
0
LINE
8
0
10
122.0024766
20
-54.2181453
11
108.0024766
21
-54.2181453
0
LINE
8
0
10
108.0024766
20
-54.2181453
11
108.0024766
21
-68.2181453
0
LINE
8
0
10
126.0024766
20
-130.6081454
11
140.0024766
21
-130.6081454
0
LINE
8
0
10
140.0024766
20
-130.6081454
11
140.0024766
21
-116.6081454
0
LINE
8
0
10
140.0024766
20
-116.6081454
11
126.0024766
21
-116.6081454
0
LINE
8
0
10
126.0024766
20
-116.6081454
11
126.0024766
21
-130.6081454
0
LINE
8
0
10
126.0024766
20
-113.6081453
11
140.0024766
21
-113.6081453
0
LINE
8
0
10
140.0024766
20
-113.6081453
11
140.0024766
21
-99.6081453
0
LINE
8
0
10
140.0024766
20
-99.6081453
11
126.0024766
21
-99.6081453
0
LINE
8
0
10
126.0024766
20
-99.6081453
11
126.0024766
21
-113.6081453
0
LINE
8
0
10
126.0024765
20
-96.6081453
11
140.0024765
21
-96.6081453
0
LINE
8
0
10
140.0024765
20
-96.6081453
11
140.0024765
21
-82.6081453
0
LINE
8
0
10
140.0024765
20
-82.6081453
11
126.0024765
21
-82.6081453
0
LINE
8
0
10
126.0024765
20
-82.6081453
11
126.0024765
21
-96.6081453
0
LINE
8
0
10
126.0024765
20
-79.6081453
11
140.0024765
21
-79.6081453
0
LINE
8
0
10
140.0024765
20
-79.6081453
11
140.0024765
21
-65.6081453
0
LINE
8
0
10
140.0024765
20
-65.6081453
11
126.0024765
21
-65.6081453
0
LINE
8
0
10
126.0024765
20
-65.6081453
11
126.0024765
21
-79.6081453
0
LINE
8
0
10
126.0024765
20
-62.6081453
11
140.0024765
21
-62.6081453
0
LINE
8
0
10
140.0024765
20
-62.6081453
11
140.0024765
21
-48.6081453
0
LINE
8
0
10
140.0024765
20
-48.6081453
11
126.0024765
21
-48.6081453
0
LINE
8
0
10
126.0024765
20
-48.6081453
11
126.0024765
21
-62.6081453
0
LINE
8
0
10
144.0024766
20
-136.2181453
11
158.0024766
21
-136.2181453
0
LINE
8
0
10
158.0024766
20
-136.2181453
11
158.0024766
21
-122.2181453
0
LINE
8
0
10
158.0024766
20
-122.2181453
11
144.0024766
21
-122.2181453
0
LINE
8
0
10
144.0024766
20
-122.2181453
11
144.0024766
21
-136.2181453
0
LINE
8
0
10
144.0024766
20
-119.2181453
11
158.0024766
21
-119.2181453
0
LINE
8
0
10
158.0024766
20
-119.2181453
11
158.0024766
21
-105.2181453
0
LINE
8
0
10
158.0024766
20
-105.2181453
11
144.0024766
21
-105.2181453
0
LINE
8
0
10
144.0024766
20
-105.2181453
11
144.0024766
21
-119.2181453
0
LINE
8
0
10
144.0024766
20
-102.2181453
11
158.0024766
21
-102.2181453
0
LINE
8
0
10
158.0024766
20
-102.2181453
11
158.0024766
21
-88.2181453
0
LINE
8
0
10
158.0024766
20
-88.2181453
11
144.0024766
21
-88.2181453
0
LINE
8
0
10
144.0024766
20
-88.2181453
11
144.0024766
21
-102.2181453
0
LINE
8
0
10
144.0024766
20
-85.2181453
11
158.0024766
21
-85.2181453
0
LINE
8
0
10
158.0024766
20
-85.2181453
11
158.0024766
21
-71.2181453
0
LINE
8
0
10
158.0024766
20
-71.2181453
11
144.0024766
21
-71.2181453
0
LINE
8
0
10
144.0024766
20
-71.2181453
11
144.0024766
21
-85.2181453
0
LINE
8
0
10
144.0024765
20
-68.2181452
11
158.0024765
21
-68.2181452
0
LINE
8
0
10
158.0024765
20
-68.2181452
11
158.0024765
21
-54.2181452
0
LINE
8
0
10
158.0024765
20
-54.2181452
11
144.0024765
21
-54.2181452
0
LINE
8
0
10
144.0024765
20
-54.2181452
11
144.0024765
21
-68.2181452
0
LINE
8
0
10
162.0024766
20
-121.7181453
11
176.0024766
21
-121.7181453
0
LINE
8
0
10
176.0024766
20
-121.7181453
11
176.0024766
21
-107.7181453
0
LINE
8
0
10
176.0024766
20
-107.7181453
11
162.0024766
21
-107.7181453
0
LINE
8
0
10
162.0024766
20
-107.7181453
11
162.0024766
21
-121.7181453
0
LINE
8
0
10
162.0024766
20
-104.7181453
11
176.0024766
21
-104.7181453
0
LINE
8
0
10
176.0024766
20
-104.7181453
11
176.0024766
21
-90.7181453
0
LINE
8
0
10
176.0024766
20
-90.7181453
11
162.0024766
21
-90.7181453
0
LINE
8
0
10
162.0024766
20
-90.7181453
11
162.0024766
21
-104.7181453
0
LINE
8
0
10
162.0024765
20
-87.7181452
11
176.0024765
21
-87.7181452
0
LINE
8
0
10
176.0024765
20
-87.7181452
11
176.0024765
21
-73.7181452
0
LINE
8
0
10
176.0024765
20
-73.7181452
11
162.0024765
21
-73.7181452
0
LINE
8
0
10
162.0024765
20
-73.7181452
11
162.0024765
21
-87.7181452
0
LINE
8
0
10
162.0024765
20
-70.7181452
11
176.0024765
21
-70.7181452
0
LINE
8
0
10
176.0024765
20
-70.7181452
11
176.0024765
21
-56.7181452
0
LINE
8
0
10
176.0024765
20
-56.7181452
11
162.0024765
21
-56.7181452
0
LINE
8
0
10
162.0024765
20
-56.7181452
11
162.0024765
21
-70.7181452
0
LINE
8
0
10
162.4292624
20
-138.5578928
11
175.952224
21
-142.1813594
0
LINE
8
0
10
175.952224
20
-142.1813594
11
179.5756906
21
-128.6583978
0
LINE
8
0
10
179.5756906
20
-128.6583978
11
166.052729
21
-125.0349312
0
LINE
8
0
10
166.052729
20
-125.0349312
11
162.4292624
21
-138.5578928
0
LINE
8
0
10
191.0493954
20
-153.6591929
11
198.0493954
21
-141.5348373
0
LINE
8
0
10
198.0493954
20
-141.5348373
11
185.9250398
21
-134.5348373
0
LINE
8
0
10
185.9250398
20
-134.5348373
11
178.9250398
21
-146.6591929
0
LINE
8
0
10
178.9250398
20
-146.6591929
11
191.0493954
21
-153.6591929
0
LINE
8
0
10
178.5024766
20
-121.9681453
11
196.0024766
21
-121.9681453
0
LINE
8
0
10
196.0024766
20
-121.9681453
11
196.0024766
21
-107.4681453
0
LINE
8
0
10
196.0024766
20
-107.4681453
11
178.5024766
21
-107.4681453
0
LINE
8
0
10
178.5024766
20
-107.4681453
11
178.5024766
21
-121.9681453
0
ENDSEC
0
EOF